%TF.GenerationSoftware,KiCad,Pcbnew,(5.1.9)-1*%
%TF.CreationDate,2021-03-18T19:40:28-04:00*%
%TF.ProjectId,PowerDetector,506f7765-7244-4657-9465-63746f722e6b,rev?*%
%TF.SameCoordinates,Original*%
%TF.FileFunction,Copper,L2,Bot*%
%TF.FilePolarity,Positive*%
%FSLAX46Y46*%
G04 Gerber Fmt 4.6, Leading zero omitted, Abs format (unit mm)*
G04 Created by KiCad (PCBNEW (5.1.9)-1) date 2021-03-18 19:40:28*
%MOMM*%
%LPD*%
G01*
G04 APERTURE LIST*
%TA.AperFunction,SMDPad,CuDef*%
%ADD10R,1.750000X4.200000*%
%TD*%
%TA.AperFunction,ComponentPad*%
%ADD11O,1.700000X1.700000*%
%TD*%
%TA.AperFunction,ComponentPad*%
%ADD12R,1.700000X1.700000*%
%TD*%
%TA.AperFunction,ViaPad*%
%ADD13C,0.800000*%
%TD*%
%TA.AperFunction,Conductor*%
%ADD14C,1.000000*%
%TD*%
%TA.AperFunction,Conductor*%
%ADD15C,0.500000*%
%TD*%
%TA.AperFunction,Conductor*%
%ADD16C,0.254000*%
%TD*%
%TA.AperFunction,Conductor*%
%ADD17C,0.100000*%
%TD*%
G04 APERTURE END LIST*
D10*
%TO.P,J1,3_2*%
%TO.N,GND*%
X115285000Y-75765000D03*
%TO.P,J1,2_2*%
X120935000Y-75765000D03*
%TD*%
D11*
%TO.P,J4,2*%
%TO.N,GND*%
X127635000Y-96520000D03*
D12*
%TO.P,J4,1*%
%TO.N,Net-(J4-Pad1)*%
X127635000Y-99060000D03*
%TD*%
D11*
%TO.P,J2,3*%
%TO.N,VEE*%
X110998000Y-92710000D03*
%TO.P,J2,2*%
%TO.N,GND*%
X110998000Y-90170000D03*
D12*
%TO.P,J2,1*%
%TO.N,VCC*%
X110998000Y-87630000D03*
%TD*%
D13*
%TO.N,GND*%
X118237000Y-93472000D03*
X108564877Y-79473550D03*
X108564877Y-83473550D03*
X108564877Y-87473550D03*
X108564877Y-91473550D03*
X108564877Y-95473550D03*
X108564877Y-102473550D03*
X108564877Y-109473550D03*
X110564877Y-81473550D03*
X111564877Y-84473550D03*
X111564877Y-96473550D03*
X111564877Y-110473550D03*
X112564877Y-75473550D03*
X112564877Y-79473550D03*
X112564877Y-107473550D03*
X113564877Y-82473550D03*
X113564877Y-89473550D03*
X114564877Y-85473550D03*
X114564877Y-109473550D03*
X115564877Y-80473550D03*
X117564877Y-110473550D03*
X119564877Y-79473550D03*
X120564877Y-82473550D03*
X120564877Y-109473550D03*
X121564877Y-95473550D03*
X122564877Y-80473550D03*
X122564877Y-84473550D03*
X123564877Y-75473550D03*
X123564877Y-105473550D03*
X123564877Y-110473550D03*
X124564877Y-78473550D03*
X124564877Y-82473550D03*
X124564877Y-86473550D03*
X124564877Y-96473550D03*
X125564877Y-103473550D03*
X125564877Y-107473550D03*
X126564877Y-80473550D03*
X126564877Y-84473550D03*
X127564877Y-87473550D03*
X127564877Y-91473550D03*
X127564877Y-101473550D03*
X127564877Y-109473550D03*
X128564877Y-82473550D03*
X128564877Y-94473550D03*
X129564877Y-79473550D03*
X129564877Y-85473550D03*
X129564877Y-89473550D03*
X129564877Y-103473550D03*
%TO.N,VEE*%
X116586000Y-106934000D03*
X118364000Y-96774000D03*
%TD*%
D14*
%TO.N,VEE*%
X116586000Y-106934000D02*
X116586000Y-98552000D01*
X116586000Y-98552000D02*
X118364000Y-96774000D01*
D15*
X118364000Y-96774000D02*
X118364000Y-96774000D01*
D14*
X116586000Y-106934000D02*
X116586000Y-105156000D01*
X114300000Y-92710000D02*
X118364000Y-96774000D01*
X110998000Y-92710000D02*
X114300000Y-92710000D01*
%TD*%
D16*
%TO.N,GND*%
X113775000Y-75479250D02*
X113933750Y-75638000D01*
X115158000Y-75638000D01*
X115158000Y-75618000D01*
X115412000Y-75618000D01*
X115412000Y-75638000D01*
X116636250Y-75638000D01*
X116795000Y-75479250D01*
X116796963Y-74320000D01*
X119423037Y-74320000D01*
X119425000Y-75479250D01*
X119583750Y-75638000D01*
X120808000Y-75638000D01*
X120808000Y-75618000D01*
X121062000Y-75618000D01*
X121062000Y-75638000D01*
X122286250Y-75638000D01*
X122445000Y-75479250D01*
X122446963Y-74320000D01*
X131420001Y-74320000D01*
X131420000Y-111735000D01*
X107340000Y-111735000D01*
X107340000Y-106509117D01*
X108120000Y-106509117D01*
X108120000Y-106850883D01*
X108186675Y-107186081D01*
X108317463Y-107501831D01*
X108507337Y-107785998D01*
X108749002Y-108027663D01*
X109033169Y-108217537D01*
X109348919Y-108348325D01*
X109684117Y-108415000D01*
X110025883Y-108415000D01*
X110361081Y-108348325D01*
X110676831Y-108217537D01*
X110960998Y-108027663D01*
X111202663Y-107785998D01*
X111392537Y-107501831D01*
X111523325Y-107186081D01*
X111590000Y-106850883D01*
X111590000Y-106509117D01*
X111523325Y-106173919D01*
X111392537Y-105858169D01*
X111202663Y-105574002D01*
X110960998Y-105332337D01*
X110676831Y-105142463D01*
X110361081Y-105011675D01*
X110025883Y-104945000D01*
X109684117Y-104945000D01*
X109348919Y-105011675D01*
X109033169Y-105142463D01*
X108749002Y-105332337D01*
X108507337Y-105574002D01*
X108317463Y-105858169D01*
X108186675Y-106173919D01*
X108120000Y-106509117D01*
X107340000Y-106509117D01*
X107340000Y-92563740D01*
X109513000Y-92563740D01*
X109513000Y-92856260D01*
X109570068Y-93143158D01*
X109682010Y-93413411D01*
X109844525Y-93656632D01*
X110051368Y-93863475D01*
X110294589Y-94025990D01*
X110564842Y-94137932D01*
X110851740Y-94195000D01*
X111144260Y-94195000D01*
X111431158Y-94137932D01*
X111701411Y-94025990D01*
X111944632Y-93863475D01*
X111963107Y-93845000D01*
X113829869Y-93845000D01*
X116758868Y-96774000D01*
X115822860Y-97710009D01*
X115779552Y-97745551D01*
X115637717Y-97918377D01*
X115581384Y-98023770D01*
X115532324Y-98115554D01*
X115467423Y-98329502D01*
X115445509Y-98552000D01*
X115451001Y-98607761D01*
X115451000Y-106989751D01*
X115467423Y-107156498D01*
X115532324Y-107370446D01*
X115637716Y-107567623D01*
X115779551Y-107740449D01*
X115952377Y-107882284D01*
X116149553Y-107987676D01*
X116363501Y-108052577D01*
X116586000Y-108074491D01*
X116808498Y-108052577D01*
X117022446Y-107987676D01*
X117219623Y-107882284D01*
X117392449Y-107740449D01*
X117534284Y-107567623D01*
X117639676Y-107370447D01*
X117704577Y-107156499D01*
X117721000Y-106989752D01*
X117721000Y-106001117D01*
X127297000Y-106001117D01*
X127297000Y-106342883D01*
X127363675Y-106678081D01*
X127494463Y-106993831D01*
X127684337Y-107277998D01*
X127926002Y-107519663D01*
X128210169Y-107709537D01*
X128525919Y-107840325D01*
X128861117Y-107907000D01*
X129202883Y-107907000D01*
X129538081Y-107840325D01*
X129853831Y-107709537D01*
X130137998Y-107519663D01*
X130379663Y-107277998D01*
X130569537Y-106993831D01*
X130700325Y-106678081D01*
X130767000Y-106342883D01*
X130767000Y-106001117D01*
X130700325Y-105665919D01*
X130569537Y-105350169D01*
X130379663Y-105066002D01*
X130137998Y-104824337D01*
X129853831Y-104634463D01*
X129538081Y-104503675D01*
X129202883Y-104437000D01*
X128861117Y-104437000D01*
X128525919Y-104503675D01*
X128210169Y-104634463D01*
X127926002Y-104824337D01*
X127684337Y-105066002D01*
X127494463Y-105350169D01*
X127363675Y-105665919D01*
X127297000Y-106001117D01*
X117721000Y-106001117D01*
X117721000Y-99022131D01*
X118533132Y-98210000D01*
X126146928Y-98210000D01*
X126146928Y-99910000D01*
X126159188Y-100034482D01*
X126195498Y-100154180D01*
X126254463Y-100264494D01*
X126333815Y-100361185D01*
X126430506Y-100440537D01*
X126540820Y-100499502D01*
X126660518Y-100535812D01*
X126785000Y-100548072D01*
X128485000Y-100548072D01*
X128609482Y-100535812D01*
X128729180Y-100499502D01*
X128839494Y-100440537D01*
X128936185Y-100361185D01*
X129015537Y-100264494D01*
X129074502Y-100154180D01*
X129110812Y-100034482D01*
X129123072Y-99910000D01*
X129123072Y-98210000D01*
X129110812Y-98085518D01*
X129074502Y-97965820D01*
X129015537Y-97855506D01*
X128936185Y-97758815D01*
X128839494Y-97679463D01*
X128729180Y-97620498D01*
X128648534Y-97596034D01*
X128732588Y-97520269D01*
X128906641Y-97286920D01*
X129031825Y-97024099D01*
X129076476Y-96876890D01*
X128955155Y-96647000D01*
X127762000Y-96647000D01*
X127762000Y-96667000D01*
X127508000Y-96667000D01*
X127508000Y-96647000D01*
X126314845Y-96647000D01*
X126193524Y-96876890D01*
X126238175Y-97024099D01*
X126363359Y-97286920D01*
X126537412Y-97520269D01*
X126621466Y-97596034D01*
X126540820Y-97620498D01*
X126430506Y-97679463D01*
X126333815Y-97758815D01*
X126254463Y-97855506D01*
X126195498Y-97965820D01*
X126159188Y-98085518D01*
X126146928Y-98210000D01*
X118533132Y-98210000D01*
X119127156Y-97615977D01*
X119170448Y-97580448D01*
X119205977Y-97537156D01*
X119205989Y-97537144D01*
X119312284Y-97407623D01*
X119417676Y-97210447D01*
X119482577Y-96996499D01*
X119504491Y-96774000D01*
X119482577Y-96551501D01*
X119417676Y-96337553D01*
X119324435Y-96163110D01*
X126193524Y-96163110D01*
X126314845Y-96393000D01*
X127508000Y-96393000D01*
X127508000Y-95199186D01*
X127762000Y-95199186D01*
X127762000Y-96393000D01*
X128955155Y-96393000D01*
X129076476Y-96163110D01*
X129031825Y-96015901D01*
X128906641Y-95753080D01*
X128732588Y-95519731D01*
X128516355Y-95324822D01*
X128266252Y-95175843D01*
X127991891Y-95078519D01*
X127762000Y-95199186D01*
X127508000Y-95199186D01*
X127278109Y-95078519D01*
X127003748Y-95175843D01*
X126753645Y-95324822D01*
X126537412Y-95519731D01*
X126363359Y-95753080D01*
X126238175Y-96015901D01*
X126193524Y-96163110D01*
X119324435Y-96163110D01*
X119312284Y-96140377D01*
X119170449Y-95967551D01*
X119127141Y-95932009D01*
X115141996Y-91946865D01*
X115106449Y-91903551D01*
X114933623Y-91761716D01*
X114736447Y-91656324D01*
X114522499Y-91591423D01*
X114355752Y-91575000D01*
X114355751Y-91575000D01*
X114300000Y-91569509D01*
X114244249Y-91575000D01*
X111963107Y-91575000D01*
X111944632Y-91556525D01*
X111762466Y-91434805D01*
X111879355Y-91365178D01*
X112095588Y-91170269D01*
X112269641Y-90936920D01*
X112394825Y-90674099D01*
X112439476Y-90526890D01*
X112318155Y-90297000D01*
X111125000Y-90297000D01*
X111125000Y-90317000D01*
X110871000Y-90317000D01*
X110871000Y-90297000D01*
X109677845Y-90297000D01*
X109556524Y-90526890D01*
X109601175Y-90674099D01*
X109726359Y-90936920D01*
X109900412Y-91170269D01*
X110116645Y-91365178D01*
X110233534Y-91434805D01*
X110051368Y-91556525D01*
X109844525Y-91763368D01*
X109682010Y-92006589D01*
X109570068Y-92276842D01*
X109513000Y-92563740D01*
X107340000Y-92563740D01*
X107340000Y-86780000D01*
X109509928Y-86780000D01*
X109509928Y-88480000D01*
X109522188Y-88604482D01*
X109558498Y-88724180D01*
X109617463Y-88834494D01*
X109696815Y-88931185D01*
X109793506Y-89010537D01*
X109903820Y-89069502D01*
X109984466Y-89093966D01*
X109900412Y-89169731D01*
X109726359Y-89403080D01*
X109601175Y-89665901D01*
X109556524Y-89813110D01*
X109677845Y-90043000D01*
X110871000Y-90043000D01*
X110871000Y-90023000D01*
X111125000Y-90023000D01*
X111125000Y-90043000D01*
X112318155Y-90043000D01*
X112439476Y-89813110D01*
X112394825Y-89665901D01*
X112269641Y-89403080D01*
X112095588Y-89169731D01*
X112011534Y-89093966D01*
X112092180Y-89069502D01*
X112202494Y-89010537D01*
X112299185Y-88931185D01*
X112378537Y-88834494D01*
X112437502Y-88724180D01*
X112473812Y-88604482D01*
X112486072Y-88480000D01*
X112486072Y-86780000D01*
X112473812Y-86655518D01*
X112437502Y-86535820D01*
X112378537Y-86425506D01*
X112299185Y-86328815D01*
X112202494Y-86249463D01*
X112092180Y-86190498D01*
X111972482Y-86154188D01*
X111848000Y-86141928D01*
X110148000Y-86141928D01*
X110023518Y-86154188D01*
X109903820Y-86190498D01*
X109793506Y-86249463D01*
X109696815Y-86328815D01*
X109617463Y-86425506D01*
X109558498Y-86535820D01*
X109522188Y-86655518D01*
X109509928Y-86780000D01*
X107340000Y-86780000D01*
X107340000Y-76664117D01*
X108120000Y-76664117D01*
X108120000Y-77005883D01*
X108186675Y-77341081D01*
X108317463Y-77656831D01*
X108507337Y-77940998D01*
X108749002Y-78182663D01*
X109033169Y-78372537D01*
X109348919Y-78503325D01*
X109684117Y-78570000D01*
X110025883Y-78570000D01*
X110361081Y-78503325D01*
X110676831Y-78372537D01*
X110960998Y-78182663D01*
X111202663Y-77940998D01*
X111253443Y-77865000D01*
X113771928Y-77865000D01*
X113784188Y-77989482D01*
X113820498Y-78109180D01*
X113879463Y-78219494D01*
X113958815Y-78316185D01*
X114055506Y-78395537D01*
X114165820Y-78454502D01*
X114285518Y-78490812D01*
X114410000Y-78503072D01*
X114999250Y-78500000D01*
X115158000Y-78341250D01*
X115158000Y-75892000D01*
X115412000Y-75892000D01*
X115412000Y-78341250D01*
X115570750Y-78500000D01*
X116160000Y-78503072D01*
X116284482Y-78490812D01*
X116404180Y-78454502D01*
X116514494Y-78395537D01*
X116611185Y-78316185D01*
X116690537Y-78219494D01*
X116749502Y-78109180D01*
X116785812Y-77989482D01*
X116798072Y-77865000D01*
X119421928Y-77865000D01*
X119434188Y-77989482D01*
X119470498Y-78109180D01*
X119529463Y-78219494D01*
X119608815Y-78316185D01*
X119705506Y-78395537D01*
X119815820Y-78454502D01*
X119935518Y-78490812D01*
X120060000Y-78503072D01*
X120649250Y-78500000D01*
X120808000Y-78341250D01*
X120808000Y-75892000D01*
X121062000Y-75892000D01*
X121062000Y-78341250D01*
X121220750Y-78500000D01*
X121810000Y-78503072D01*
X121934482Y-78490812D01*
X122054180Y-78454502D01*
X122164494Y-78395537D01*
X122261185Y-78316185D01*
X122340537Y-78219494D01*
X122399502Y-78109180D01*
X122435812Y-77989482D01*
X122448072Y-77865000D01*
X122446039Y-76664117D01*
X127170000Y-76664117D01*
X127170000Y-77005883D01*
X127236675Y-77341081D01*
X127367463Y-77656831D01*
X127557337Y-77940998D01*
X127799002Y-78182663D01*
X128083169Y-78372537D01*
X128398919Y-78503325D01*
X128734117Y-78570000D01*
X129075883Y-78570000D01*
X129411081Y-78503325D01*
X129726831Y-78372537D01*
X130010998Y-78182663D01*
X130252663Y-77940998D01*
X130442537Y-77656831D01*
X130573325Y-77341081D01*
X130640000Y-77005883D01*
X130640000Y-76664117D01*
X130573325Y-76328919D01*
X130442537Y-76013169D01*
X130252663Y-75729002D01*
X130010998Y-75487337D01*
X129726831Y-75297463D01*
X129411081Y-75166675D01*
X129075883Y-75100000D01*
X128734117Y-75100000D01*
X128398919Y-75166675D01*
X128083169Y-75297463D01*
X127799002Y-75487337D01*
X127557337Y-75729002D01*
X127367463Y-76013169D01*
X127236675Y-76328919D01*
X127170000Y-76664117D01*
X122446039Y-76664117D01*
X122445000Y-76050750D01*
X122286250Y-75892000D01*
X121062000Y-75892000D01*
X120808000Y-75892000D01*
X119583750Y-75892000D01*
X119425000Y-76050750D01*
X119421928Y-77865000D01*
X116798072Y-77865000D01*
X116795000Y-76050750D01*
X116636250Y-75892000D01*
X115412000Y-75892000D01*
X115158000Y-75892000D01*
X113933750Y-75892000D01*
X113775000Y-76050750D01*
X113771928Y-77865000D01*
X111253443Y-77865000D01*
X111392537Y-77656831D01*
X111523325Y-77341081D01*
X111590000Y-77005883D01*
X111590000Y-76664117D01*
X111523325Y-76328919D01*
X111392537Y-76013169D01*
X111202663Y-75729002D01*
X110960998Y-75487337D01*
X110676831Y-75297463D01*
X110361081Y-75166675D01*
X110025883Y-75100000D01*
X109684117Y-75100000D01*
X109348919Y-75166675D01*
X109033169Y-75297463D01*
X108749002Y-75487337D01*
X108507337Y-75729002D01*
X108317463Y-76013169D01*
X108186675Y-76328919D01*
X108120000Y-76664117D01*
X107340000Y-76664117D01*
X107340000Y-74320000D01*
X113773037Y-74320000D01*
X113775000Y-75479250D01*
%TA.AperFunction,Conductor*%
D17*
G36*
X113775000Y-75479250D02*
G01*
X113933750Y-75638000D01*
X115158000Y-75638000D01*
X115158000Y-75618000D01*
X115412000Y-75618000D01*
X115412000Y-75638000D01*
X116636250Y-75638000D01*
X116795000Y-75479250D01*
X116796963Y-74320000D01*
X119423037Y-74320000D01*
X119425000Y-75479250D01*
X119583750Y-75638000D01*
X120808000Y-75638000D01*
X120808000Y-75618000D01*
X121062000Y-75618000D01*
X121062000Y-75638000D01*
X122286250Y-75638000D01*
X122445000Y-75479250D01*
X122446963Y-74320000D01*
X131420001Y-74320000D01*
X131420000Y-111735000D01*
X107340000Y-111735000D01*
X107340000Y-106509117D01*
X108120000Y-106509117D01*
X108120000Y-106850883D01*
X108186675Y-107186081D01*
X108317463Y-107501831D01*
X108507337Y-107785998D01*
X108749002Y-108027663D01*
X109033169Y-108217537D01*
X109348919Y-108348325D01*
X109684117Y-108415000D01*
X110025883Y-108415000D01*
X110361081Y-108348325D01*
X110676831Y-108217537D01*
X110960998Y-108027663D01*
X111202663Y-107785998D01*
X111392537Y-107501831D01*
X111523325Y-107186081D01*
X111590000Y-106850883D01*
X111590000Y-106509117D01*
X111523325Y-106173919D01*
X111392537Y-105858169D01*
X111202663Y-105574002D01*
X110960998Y-105332337D01*
X110676831Y-105142463D01*
X110361081Y-105011675D01*
X110025883Y-104945000D01*
X109684117Y-104945000D01*
X109348919Y-105011675D01*
X109033169Y-105142463D01*
X108749002Y-105332337D01*
X108507337Y-105574002D01*
X108317463Y-105858169D01*
X108186675Y-106173919D01*
X108120000Y-106509117D01*
X107340000Y-106509117D01*
X107340000Y-92563740D01*
X109513000Y-92563740D01*
X109513000Y-92856260D01*
X109570068Y-93143158D01*
X109682010Y-93413411D01*
X109844525Y-93656632D01*
X110051368Y-93863475D01*
X110294589Y-94025990D01*
X110564842Y-94137932D01*
X110851740Y-94195000D01*
X111144260Y-94195000D01*
X111431158Y-94137932D01*
X111701411Y-94025990D01*
X111944632Y-93863475D01*
X111963107Y-93845000D01*
X113829869Y-93845000D01*
X116758868Y-96774000D01*
X115822860Y-97710009D01*
X115779552Y-97745551D01*
X115637717Y-97918377D01*
X115581384Y-98023770D01*
X115532324Y-98115554D01*
X115467423Y-98329502D01*
X115445509Y-98552000D01*
X115451001Y-98607761D01*
X115451000Y-106989751D01*
X115467423Y-107156498D01*
X115532324Y-107370446D01*
X115637716Y-107567623D01*
X115779551Y-107740449D01*
X115952377Y-107882284D01*
X116149553Y-107987676D01*
X116363501Y-108052577D01*
X116586000Y-108074491D01*
X116808498Y-108052577D01*
X117022446Y-107987676D01*
X117219623Y-107882284D01*
X117392449Y-107740449D01*
X117534284Y-107567623D01*
X117639676Y-107370447D01*
X117704577Y-107156499D01*
X117721000Y-106989752D01*
X117721000Y-106001117D01*
X127297000Y-106001117D01*
X127297000Y-106342883D01*
X127363675Y-106678081D01*
X127494463Y-106993831D01*
X127684337Y-107277998D01*
X127926002Y-107519663D01*
X128210169Y-107709537D01*
X128525919Y-107840325D01*
X128861117Y-107907000D01*
X129202883Y-107907000D01*
X129538081Y-107840325D01*
X129853831Y-107709537D01*
X130137998Y-107519663D01*
X130379663Y-107277998D01*
X130569537Y-106993831D01*
X130700325Y-106678081D01*
X130767000Y-106342883D01*
X130767000Y-106001117D01*
X130700325Y-105665919D01*
X130569537Y-105350169D01*
X130379663Y-105066002D01*
X130137998Y-104824337D01*
X129853831Y-104634463D01*
X129538081Y-104503675D01*
X129202883Y-104437000D01*
X128861117Y-104437000D01*
X128525919Y-104503675D01*
X128210169Y-104634463D01*
X127926002Y-104824337D01*
X127684337Y-105066002D01*
X127494463Y-105350169D01*
X127363675Y-105665919D01*
X127297000Y-106001117D01*
X117721000Y-106001117D01*
X117721000Y-99022131D01*
X118533132Y-98210000D01*
X126146928Y-98210000D01*
X126146928Y-99910000D01*
X126159188Y-100034482D01*
X126195498Y-100154180D01*
X126254463Y-100264494D01*
X126333815Y-100361185D01*
X126430506Y-100440537D01*
X126540820Y-100499502D01*
X126660518Y-100535812D01*
X126785000Y-100548072D01*
X128485000Y-100548072D01*
X128609482Y-100535812D01*
X128729180Y-100499502D01*
X128839494Y-100440537D01*
X128936185Y-100361185D01*
X129015537Y-100264494D01*
X129074502Y-100154180D01*
X129110812Y-100034482D01*
X129123072Y-99910000D01*
X129123072Y-98210000D01*
X129110812Y-98085518D01*
X129074502Y-97965820D01*
X129015537Y-97855506D01*
X128936185Y-97758815D01*
X128839494Y-97679463D01*
X128729180Y-97620498D01*
X128648534Y-97596034D01*
X128732588Y-97520269D01*
X128906641Y-97286920D01*
X129031825Y-97024099D01*
X129076476Y-96876890D01*
X128955155Y-96647000D01*
X127762000Y-96647000D01*
X127762000Y-96667000D01*
X127508000Y-96667000D01*
X127508000Y-96647000D01*
X126314845Y-96647000D01*
X126193524Y-96876890D01*
X126238175Y-97024099D01*
X126363359Y-97286920D01*
X126537412Y-97520269D01*
X126621466Y-97596034D01*
X126540820Y-97620498D01*
X126430506Y-97679463D01*
X126333815Y-97758815D01*
X126254463Y-97855506D01*
X126195498Y-97965820D01*
X126159188Y-98085518D01*
X126146928Y-98210000D01*
X118533132Y-98210000D01*
X119127156Y-97615977D01*
X119170448Y-97580448D01*
X119205977Y-97537156D01*
X119205989Y-97537144D01*
X119312284Y-97407623D01*
X119417676Y-97210447D01*
X119482577Y-96996499D01*
X119504491Y-96774000D01*
X119482577Y-96551501D01*
X119417676Y-96337553D01*
X119324435Y-96163110D01*
X126193524Y-96163110D01*
X126314845Y-96393000D01*
X127508000Y-96393000D01*
X127508000Y-95199186D01*
X127762000Y-95199186D01*
X127762000Y-96393000D01*
X128955155Y-96393000D01*
X129076476Y-96163110D01*
X129031825Y-96015901D01*
X128906641Y-95753080D01*
X128732588Y-95519731D01*
X128516355Y-95324822D01*
X128266252Y-95175843D01*
X127991891Y-95078519D01*
X127762000Y-95199186D01*
X127508000Y-95199186D01*
X127278109Y-95078519D01*
X127003748Y-95175843D01*
X126753645Y-95324822D01*
X126537412Y-95519731D01*
X126363359Y-95753080D01*
X126238175Y-96015901D01*
X126193524Y-96163110D01*
X119324435Y-96163110D01*
X119312284Y-96140377D01*
X119170449Y-95967551D01*
X119127141Y-95932009D01*
X115141996Y-91946865D01*
X115106449Y-91903551D01*
X114933623Y-91761716D01*
X114736447Y-91656324D01*
X114522499Y-91591423D01*
X114355752Y-91575000D01*
X114355751Y-91575000D01*
X114300000Y-91569509D01*
X114244249Y-91575000D01*
X111963107Y-91575000D01*
X111944632Y-91556525D01*
X111762466Y-91434805D01*
X111879355Y-91365178D01*
X112095588Y-91170269D01*
X112269641Y-90936920D01*
X112394825Y-90674099D01*
X112439476Y-90526890D01*
X112318155Y-90297000D01*
X111125000Y-90297000D01*
X111125000Y-90317000D01*
X110871000Y-90317000D01*
X110871000Y-90297000D01*
X109677845Y-90297000D01*
X109556524Y-90526890D01*
X109601175Y-90674099D01*
X109726359Y-90936920D01*
X109900412Y-91170269D01*
X110116645Y-91365178D01*
X110233534Y-91434805D01*
X110051368Y-91556525D01*
X109844525Y-91763368D01*
X109682010Y-92006589D01*
X109570068Y-92276842D01*
X109513000Y-92563740D01*
X107340000Y-92563740D01*
X107340000Y-86780000D01*
X109509928Y-86780000D01*
X109509928Y-88480000D01*
X109522188Y-88604482D01*
X109558498Y-88724180D01*
X109617463Y-88834494D01*
X109696815Y-88931185D01*
X109793506Y-89010537D01*
X109903820Y-89069502D01*
X109984466Y-89093966D01*
X109900412Y-89169731D01*
X109726359Y-89403080D01*
X109601175Y-89665901D01*
X109556524Y-89813110D01*
X109677845Y-90043000D01*
X110871000Y-90043000D01*
X110871000Y-90023000D01*
X111125000Y-90023000D01*
X111125000Y-90043000D01*
X112318155Y-90043000D01*
X112439476Y-89813110D01*
X112394825Y-89665901D01*
X112269641Y-89403080D01*
X112095588Y-89169731D01*
X112011534Y-89093966D01*
X112092180Y-89069502D01*
X112202494Y-89010537D01*
X112299185Y-88931185D01*
X112378537Y-88834494D01*
X112437502Y-88724180D01*
X112473812Y-88604482D01*
X112486072Y-88480000D01*
X112486072Y-86780000D01*
X112473812Y-86655518D01*
X112437502Y-86535820D01*
X112378537Y-86425506D01*
X112299185Y-86328815D01*
X112202494Y-86249463D01*
X112092180Y-86190498D01*
X111972482Y-86154188D01*
X111848000Y-86141928D01*
X110148000Y-86141928D01*
X110023518Y-86154188D01*
X109903820Y-86190498D01*
X109793506Y-86249463D01*
X109696815Y-86328815D01*
X109617463Y-86425506D01*
X109558498Y-86535820D01*
X109522188Y-86655518D01*
X109509928Y-86780000D01*
X107340000Y-86780000D01*
X107340000Y-76664117D01*
X108120000Y-76664117D01*
X108120000Y-77005883D01*
X108186675Y-77341081D01*
X108317463Y-77656831D01*
X108507337Y-77940998D01*
X108749002Y-78182663D01*
X109033169Y-78372537D01*
X109348919Y-78503325D01*
X109684117Y-78570000D01*
X110025883Y-78570000D01*
X110361081Y-78503325D01*
X110676831Y-78372537D01*
X110960998Y-78182663D01*
X111202663Y-77940998D01*
X111253443Y-77865000D01*
X113771928Y-77865000D01*
X113784188Y-77989482D01*
X113820498Y-78109180D01*
X113879463Y-78219494D01*
X113958815Y-78316185D01*
X114055506Y-78395537D01*
X114165820Y-78454502D01*
X114285518Y-78490812D01*
X114410000Y-78503072D01*
X114999250Y-78500000D01*
X115158000Y-78341250D01*
X115158000Y-75892000D01*
X115412000Y-75892000D01*
X115412000Y-78341250D01*
X115570750Y-78500000D01*
X116160000Y-78503072D01*
X116284482Y-78490812D01*
X116404180Y-78454502D01*
X116514494Y-78395537D01*
X116611185Y-78316185D01*
X116690537Y-78219494D01*
X116749502Y-78109180D01*
X116785812Y-77989482D01*
X116798072Y-77865000D01*
X119421928Y-77865000D01*
X119434188Y-77989482D01*
X119470498Y-78109180D01*
X119529463Y-78219494D01*
X119608815Y-78316185D01*
X119705506Y-78395537D01*
X119815820Y-78454502D01*
X119935518Y-78490812D01*
X120060000Y-78503072D01*
X120649250Y-78500000D01*
X120808000Y-78341250D01*
X120808000Y-75892000D01*
X121062000Y-75892000D01*
X121062000Y-78341250D01*
X121220750Y-78500000D01*
X121810000Y-78503072D01*
X121934482Y-78490812D01*
X122054180Y-78454502D01*
X122164494Y-78395537D01*
X122261185Y-78316185D01*
X122340537Y-78219494D01*
X122399502Y-78109180D01*
X122435812Y-77989482D01*
X122448072Y-77865000D01*
X122446039Y-76664117D01*
X127170000Y-76664117D01*
X127170000Y-77005883D01*
X127236675Y-77341081D01*
X127367463Y-77656831D01*
X127557337Y-77940998D01*
X127799002Y-78182663D01*
X128083169Y-78372537D01*
X128398919Y-78503325D01*
X128734117Y-78570000D01*
X129075883Y-78570000D01*
X129411081Y-78503325D01*
X129726831Y-78372537D01*
X130010998Y-78182663D01*
X130252663Y-77940998D01*
X130442537Y-77656831D01*
X130573325Y-77341081D01*
X130640000Y-77005883D01*
X130640000Y-76664117D01*
X130573325Y-76328919D01*
X130442537Y-76013169D01*
X130252663Y-75729002D01*
X130010998Y-75487337D01*
X129726831Y-75297463D01*
X129411081Y-75166675D01*
X129075883Y-75100000D01*
X128734117Y-75100000D01*
X128398919Y-75166675D01*
X128083169Y-75297463D01*
X127799002Y-75487337D01*
X127557337Y-75729002D01*
X127367463Y-76013169D01*
X127236675Y-76328919D01*
X127170000Y-76664117D01*
X122446039Y-76664117D01*
X122445000Y-76050750D01*
X122286250Y-75892000D01*
X121062000Y-75892000D01*
X120808000Y-75892000D01*
X119583750Y-75892000D01*
X119425000Y-76050750D01*
X119421928Y-77865000D01*
X116798072Y-77865000D01*
X116795000Y-76050750D01*
X116636250Y-75892000D01*
X115412000Y-75892000D01*
X115158000Y-75892000D01*
X113933750Y-75892000D01*
X113775000Y-76050750D01*
X113771928Y-77865000D01*
X111253443Y-77865000D01*
X111392537Y-77656831D01*
X111523325Y-77341081D01*
X111590000Y-77005883D01*
X111590000Y-76664117D01*
X111523325Y-76328919D01*
X111392537Y-76013169D01*
X111202663Y-75729002D01*
X110960998Y-75487337D01*
X110676831Y-75297463D01*
X110361081Y-75166675D01*
X110025883Y-75100000D01*
X109684117Y-75100000D01*
X109348919Y-75166675D01*
X109033169Y-75297463D01*
X108749002Y-75487337D01*
X108507337Y-75729002D01*
X108317463Y-76013169D01*
X108186675Y-76328919D01*
X108120000Y-76664117D01*
X107340000Y-76664117D01*
X107340000Y-74320000D01*
X113773037Y-74320000D01*
X113775000Y-75479250D01*
G37*
%TD.AperFunction*%
%TD*%
M02*
