%TF.GenerationSoftware,KiCad,Pcbnew,(5.1.9)-1*%
%TF.CreationDate,2021-03-18T19:40:28-04:00*%
%TF.ProjectId,PowerDetector,506f7765-7244-4657-9465-63746f722e6b,rev?*%
%TF.SameCoordinates,Original*%
%TF.FileFunction,Copper,L1,Top*%
%TF.FilePolarity,Positive*%
%FSLAX46Y46*%
G04 Gerber Fmt 4.6, Leading zero omitted, Abs format (unit mm)*
G04 Created by KiCad (PCBNEW (5.1.9)-1) date 2021-03-18 19:40:28*
%MOMM*%
%LPD*%
G01*
G04 APERTURE LIST*
%TA.AperFunction,SMDPad,CuDef*%
%ADD10R,0.590000X1.210000*%
%TD*%
%TA.AperFunction,SMDPad,CuDef*%
%ADD11R,1.750000X4.200000*%
%TD*%
%TA.AperFunction,SMDPad,CuDef*%
%ADD12R,1.270000X3.600000*%
%TD*%
%TA.AperFunction,SMDPad,CuDef*%
%ADD13R,1.060000X0.650000*%
%TD*%
%TA.AperFunction,ComponentPad*%
%ADD14O,1.700000X1.700000*%
%TD*%
%TA.AperFunction,ComponentPad*%
%ADD15R,1.700000X1.700000*%
%TD*%
%TA.AperFunction,ViaPad*%
%ADD16C,0.800000*%
%TD*%
%TA.AperFunction,Conductor*%
%ADD17C,0.500000*%
%TD*%
%TA.AperFunction,Conductor*%
%ADD18C,1.000000*%
%TD*%
%TA.AperFunction,Conductor*%
%ADD19C,0.750000*%
%TD*%
%TA.AperFunction,Conductor*%
%ADD20C,0.250000*%
%TD*%
%TA.AperFunction,Conductor*%
%ADD21C,0.254000*%
%TD*%
%TA.AperFunction,Conductor*%
%ADD22C,0.100000*%
%TD*%
G04 APERTURE END LIST*
D10*
%TO.P,U3,5*%
%TO.N,VCC*%
X116398000Y-102885000D03*
%TO.P,U3,4*%
%TO.N,Net-(RFB3-Pad1)*%
X118298000Y-102885000D03*
%TO.P,U3,3*%
%TO.N,Net-(Rin1-Pad2)*%
X118298000Y-105395000D03*
%TO.P,U3,2*%
%TO.N,VEE*%
X117348000Y-105395000D03*
%TO.P,U3,1*%
%TO.N,Net-(J4-Pad1)*%
X116398000Y-105395000D03*
%TD*%
%TO.P,U2,5*%
%TO.N,VCC*%
X116520000Y-100315000D03*
%TO.P,U2,4*%
%TO.N,Net-(RFB1-Pad1)*%
X114620000Y-100315000D03*
%TO.P,U2,3*%
%TO.N,Net-(C5-Pad1)*%
X114620000Y-97805000D03*
%TO.P,U2,2*%
%TO.N,VEE*%
X115570000Y-97805000D03*
%TO.P,U2,1*%
%TO.N,Net-(RFB1-Pad2)*%
X116520000Y-97805000D03*
%TD*%
D11*
%TO.P,J1,3_1*%
%TO.N,GND*%
X115285000Y-75765000D03*
%TO.P,J1,2_1*%
X120935000Y-75765000D03*
D12*
%TO.P,J1,1*%
%TO.N,Net-(J1-Pad1)*%
X118110000Y-75565000D03*
%TD*%
%TO.P,.47u1,2*%
%TO.N,Net-(.47u1-Pad2)*%
%TA.AperFunction,SMDPad,CuDef*%
G36*
G01*
X119830000Y-86835000D02*
X119830000Y-85885000D01*
G75*
G02*
X120080000Y-85635000I250000J0D01*
G01*
X120580000Y-85635000D01*
G75*
G02*
X120830000Y-85885000I0J-250000D01*
G01*
X120830000Y-86835000D01*
G75*
G02*
X120580000Y-87085000I-250000J0D01*
G01*
X120080000Y-87085000D01*
G75*
G02*
X119830000Y-86835000I0J250000D01*
G01*
G37*
%TD.AperFunction*%
%TO.P,.47u1,1*%
%TO.N,Net-(.47u1-Pad1)*%
%TA.AperFunction,SMDPad,CuDef*%
G36*
G01*
X117930000Y-86835000D02*
X117930000Y-85885000D01*
G75*
G02*
X118180000Y-85635000I250000J0D01*
G01*
X118680000Y-85635000D01*
G75*
G02*
X118930000Y-85885000I0J-250000D01*
G01*
X118930000Y-86835000D01*
G75*
G02*
X118680000Y-87085000I-250000J0D01*
G01*
X118180000Y-87085000D01*
G75*
G02*
X117930000Y-86835000I0J250000D01*
G01*
G37*
%TD.AperFunction*%
%TD*%
D13*
%TO.P,U1,5*%
%TO.N,Net-(C2-Pad1)*%
X120480000Y-90170000D03*
%TO.P,U1,6*%
%TO.N,Net-(.47u1-Pad2)*%
X120480000Y-89220000D03*
%TO.P,U1,4*%
%TO.N,VCC*%
X120480000Y-91120000D03*
%TO.P,U1,3*%
%TO.N,Net-(R2-Pad2)*%
X118280000Y-91120000D03*
%TO.P,U1,2*%
%TO.N,GND*%
X118280000Y-90170000D03*
%TO.P,U1,1*%
%TO.N,VCC*%
X118280000Y-89220000D03*
%TD*%
%TO.P,Rsh2,2*%
%TO.N,Net-(Rin1-Pad2)*%
%TA.AperFunction,SMDPad,CuDef*%
G36*
G01*
X121012000Y-106991998D02*
X121012000Y-107892002D01*
G75*
G02*
X120762002Y-108142000I-249998J0D01*
G01*
X120236998Y-108142000D01*
G75*
G02*
X119987000Y-107892002I0J249998D01*
G01*
X119987000Y-106991998D01*
G75*
G02*
X120236998Y-106742000I249998J0D01*
G01*
X120762002Y-106742000D01*
G75*
G02*
X121012000Y-106991998I0J-249998D01*
G01*
G37*
%TD.AperFunction*%
%TO.P,Rsh2,1*%
%TO.N,GND*%
%TA.AperFunction,SMDPad,CuDef*%
G36*
G01*
X122837000Y-106991998D02*
X122837000Y-107892002D01*
G75*
G02*
X122587002Y-108142000I-249998J0D01*
G01*
X122061998Y-108142000D01*
G75*
G02*
X121812000Y-107892002I0J249998D01*
G01*
X121812000Y-106991998D01*
G75*
G02*
X122061998Y-106742000I249998J0D01*
G01*
X122587002Y-106742000D01*
G75*
G02*
X122837000Y-106991998I0J-249998D01*
G01*
G37*
%TD.AperFunction*%
%TD*%
%TO.P,Rsh1,2*%
%TO.N,GND*%
%TA.AperFunction,SMDPad,CuDef*%
G36*
G01*
X110178002Y-99168000D02*
X109277998Y-99168000D01*
G75*
G02*
X109028000Y-98918002I0J249998D01*
G01*
X109028000Y-98392998D01*
G75*
G02*
X109277998Y-98143000I249998J0D01*
G01*
X110178002Y-98143000D01*
G75*
G02*
X110428000Y-98392998I0J-249998D01*
G01*
X110428000Y-98918002D01*
G75*
G02*
X110178002Y-99168000I-249998J0D01*
G01*
G37*
%TD.AperFunction*%
%TO.P,Rsh1,1*%
%TO.N,Net-(RFB1-Pad1)*%
%TA.AperFunction,SMDPad,CuDef*%
G36*
G01*
X110178002Y-100993000D02*
X109277998Y-100993000D01*
G75*
G02*
X109028000Y-100743002I0J249998D01*
G01*
X109028000Y-100217998D01*
G75*
G02*
X109277998Y-99968000I249998J0D01*
G01*
X110178002Y-99968000D01*
G75*
G02*
X110428000Y-100217998I0J-249998D01*
G01*
X110428000Y-100743002D01*
G75*
G02*
X110178002Y-100993000I-249998J0D01*
G01*
G37*
%TD.AperFunction*%
%TD*%
%TO.P,Rin1,2*%
%TO.N,Net-(Rin1-Pad2)*%
%TA.AperFunction,SMDPad,CuDef*%
G36*
G01*
X113595998Y-105452500D02*
X114496002Y-105452500D01*
G75*
G02*
X114746000Y-105702498I0J-249998D01*
G01*
X114746000Y-106227502D01*
G75*
G02*
X114496002Y-106477500I-249998J0D01*
G01*
X113595998Y-106477500D01*
G75*
G02*
X113346000Y-106227502I0J249998D01*
G01*
X113346000Y-105702498D01*
G75*
G02*
X113595998Y-105452500I249998J0D01*
G01*
G37*
%TD.AperFunction*%
%TO.P,Rin1,1*%
%TO.N,Net-(RFB1-Pad2)*%
%TA.AperFunction,SMDPad,CuDef*%
G36*
G01*
X113595998Y-103627500D02*
X114496002Y-103627500D01*
G75*
G02*
X114746000Y-103877498I0J-249998D01*
G01*
X114746000Y-104402502D01*
G75*
G02*
X114496002Y-104652500I-249998J0D01*
G01*
X113595998Y-104652500D01*
G75*
G02*
X113346000Y-104402502I0J249998D01*
G01*
X113346000Y-103877498D01*
G75*
G02*
X113595998Y-103627500I249998J0D01*
G01*
G37*
%TD.AperFunction*%
%TD*%
%TO.P,RFB4,2*%
%TO.N,Net-(RFB3-Pad1)*%
%TA.AperFunction,SMDPad,CuDef*%
G36*
G01*
X121354002Y-103232000D02*
X120453998Y-103232000D01*
G75*
G02*
X120204000Y-102982002I0J249998D01*
G01*
X120204000Y-102456998D01*
G75*
G02*
X120453998Y-102207000I249998J0D01*
G01*
X121354002Y-102207000D01*
G75*
G02*
X121604000Y-102456998I0J-249998D01*
G01*
X121604000Y-102982002D01*
G75*
G02*
X121354002Y-103232000I-249998J0D01*
G01*
G37*
%TD.AperFunction*%
%TO.P,RFB4,1*%
%TO.N,Net-(J4-Pad1)*%
%TA.AperFunction,SMDPad,CuDef*%
G36*
G01*
X121354002Y-105057000D02*
X120453998Y-105057000D01*
G75*
G02*
X120204000Y-104807002I0J249998D01*
G01*
X120204000Y-104281998D01*
G75*
G02*
X120453998Y-104032000I249998J0D01*
G01*
X121354002Y-104032000D01*
G75*
G02*
X121604000Y-104281998I0J-249998D01*
G01*
X121604000Y-104807002D01*
G75*
G02*
X121354002Y-105057000I-249998J0D01*
G01*
G37*
%TD.AperFunction*%
%TD*%
%TO.P,RFB3,2*%
%TO.N,VCC*%
%TA.AperFunction,SMDPad,CuDef*%
G36*
G01*
X121354002Y-99271500D02*
X120453998Y-99271500D01*
G75*
G02*
X120204000Y-99021502I0J249998D01*
G01*
X120204000Y-98496498D01*
G75*
G02*
X120453998Y-98246500I249998J0D01*
G01*
X121354002Y-98246500D01*
G75*
G02*
X121604000Y-98496498I0J-249998D01*
G01*
X121604000Y-99021502D01*
G75*
G02*
X121354002Y-99271500I-249998J0D01*
G01*
G37*
%TD.AperFunction*%
%TO.P,RFB3,1*%
%TO.N,Net-(RFB3-Pad1)*%
%TA.AperFunction,SMDPad,CuDef*%
G36*
G01*
X121354002Y-101096500D02*
X120453998Y-101096500D01*
G75*
G02*
X120204000Y-100846502I0J249998D01*
G01*
X120204000Y-100321498D01*
G75*
G02*
X120453998Y-100071500I249998J0D01*
G01*
X121354002Y-100071500D01*
G75*
G02*
X121604000Y-100321498I0J-249998D01*
G01*
X121604000Y-100846502D01*
G75*
G02*
X121354002Y-101096500I-249998J0D01*
G01*
G37*
%TD.AperFunction*%
%TD*%
%TO.P,RFB1,2*%
%TO.N,Net-(RFB1-Pad2)*%
%TA.AperFunction,SMDPad,CuDef*%
G36*
G01*
X111309998Y-101722500D02*
X112210002Y-101722500D01*
G75*
G02*
X112460000Y-101972498I0J-249998D01*
G01*
X112460000Y-102497502D01*
G75*
G02*
X112210002Y-102747500I-249998J0D01*
G01*
X111309998Y-102747500D01*
G75*
G02*
X111060000Y-102497502I0J249998D01*
G01*
X111060000Y-101972498D01*
G75*
G02*
X111309998Y-101722500I249998J0D01*
G01*
G37*
%TD.AperFunction*%
%TO.P,RFB1,1*%
%TO.N,Net-(RFB1-Pad1)*%
%TA.AperFunction,SMDPad,CuDef*%
G36*
G01*
X111309998Y-99897500D02*
X112210002Y-99897500D01*
G75*
G02*
X112460000Y-100147498I0J-249998D01*
G01*
X112460000Y-100672502D01*
G75*
G02*
X112210002Y-100922500I-249998J0D01*
G01*
X111309998Y-100922500D01*
G75*
G02*
X111060000Y-100672502I0J249998D01*
G01*
X111060000Y-100147498D01*
G75*
G02*
X111309998Y-99897500I249998J0D01*
G01*
G37*
%TD.AperFunction*%
%TD*%
%TO.P,R4,2*%
%TO.N,Net-(J1-Pad1)*%
%TA.AperFunction,SMDPad,CuDef*%
G36*
G01*
X118560002Y-82150000D02*
X117659998Y-82150000D01*
G75*
G02*
X117410000Y-81900002I0J249998D01*
G01*
X117410000Y-81374998D01*
G75*
G02*
X117659998Y-81125000I249998J0D01*
G01*
X118560002Y-81125000D01*
G75*
G02*
X118810000Y-81374998I0J-249998D01*
G01*
X118810000Y-81900002D01*
G75*
G02*
X118560002Y-82150000I-249998J0D01*
G01*
G37*
%TD.AperFunction*%
%TO.P,R4,1*%
%TO.N,Net-(.47u1-Pad1)*%
%TA.AperFunction,SMDPad,CuDef*%
G36*
G01*
X118560002Y-83975000D02*
X117659998Y-83975000D01*
G75*
G02*
X117410000Y-83725002I0J249998D01*
G01*
X117410000Y-83199998D01*
G75*
G02*
X117659998Y-82950000I249998J0D01*
G01*
X118560002Y-82950000D01*
G75*
G02*
X118810000Y-83199998I0J-249998D01*
G01*
X118810000Y-83725002D01*
G75*
G02*
X118560002Y-83975000I-249998J0D01*
G01*
G37*
%TD.AperFunction*%
%TD*%
%TO.P,R2,2*%
%TO.N,Net-(R2-Pad2)*%
%TA.AperFunction,SMDPad,CuDef*%
G36*
G01*
X115970000Y-93160002D02*
X115970000Y-92259998D01*
G75*
G02*
X116219998Y-92010000I249998J0D01*
G01*
X116745002Y-92010000D01*
G75*
G02*
X116995000Y-92259998I0J-249998D01*
G01*
X116995000Y-93160002D01*
G75*
G02*
X116745002Y-93410000I-249998J0D01*
G01*
X116219998Y-93410000D01*
G75*
G02*
X115970000Y-93160002I0J249998D01*
G01*
G37*
%TD.AperFunction*%
%TO.P,R2,1*%
%TO.N,Net-(C5-Pad1)*%
%TA.AperFunction,SMDPad,CuDef*%
G36*
G01*
X114145000Y-93160002D02*
X114145000Y-92259998D01*
G75*
G02*
X114394998Y-92010000I249998J0D01*
G01*
X114920002Y-92010000D01*
G75*
G02*
X115170000Y-92259998I0J-249998D01*
G01*
X115170000Y-93160002D01*
G75*
G02*
X114920002Y-93410000I-249998J0D01*
G01*
X114394998Y-93410000D01*
G75*
G02*
X114145000Y-93160002I0J249998D01*
G01*
G37*
%TD.AperFunction*%
%TD*%
D14*
%TO.P,J4,2*%
%TO.N,GND*%
X127635000Y-96520000D03*
D15*
%TO.P,J4,1*%
%TO.N,Net-(J4-Pad1)*%
X127635000Y-99060000D03*
%TD*%
D14*
%TO.P,J2,3*%
%TO.N,VEE*%
X110998000Y-92710000D03*
%TO.P,J2,2*%
%TO.N,GND*%
X110998000Y-90170000D03*
D15*
%TO.P,J2,1*%
%TO.N,VCC*%
X110998000Y-87630000D03*
%TD*%
%TO.P,C5,2*%
%TO.N,GND*%
%TA.AperFunction,SMDPad,CuDef*%
G36*
G01*
X116020000Y-95725000D02*
X116020000Y-94775000D01*
G75*
G02*
X116270000Y-94525000I250000J0D01*
G01*
X116770000Y-94525000D01*
G75*
G02*
X117020000Y-94775000I0J-250000D01*
G01*
X117020000Y-95725000D01*
G75*
G02*
X116770000Y-95975000I-250000J0D01*
G01*
X116270000Y-95975000D01*
G75*
G02*
X116020000Y-95725000I0J250000D01*
G01*
G37*
%TD.AperFunction*%
%TO.P,C5,1*%
%TO.N,Net-(C5-Pad1)*%
%TA.AperFunction,SMDPad,CuDef*%
G36*
G01*
X114120000Y-95725000D02*
X114120000Y-94775000D01*
G75*
G02*
X114370000Y-94525000I250000J0D01*
G01*
X114870000Y-94525000D01*
G75*
G02*
X115120000Y-94775000I0J-250000D01*
G01*
X115120000Y-95725000D01*
G75*
G02*
X114870000Y-95975000I-250000J0D01*
G01*
X114370000Y-95975000D01*
G75*
G02*
X114120000Y-95725000I0J250000D01*
G01*
G37*
%TD.AperFunction*%
%TD*%
%TO.P,C4,2*%
%TO.N,GND*%
%TA.AperFunction,SMDPad,CuDef*%
G36*
G01*
X122715000Y-92840000D02*
X123665000Y-92840000D01*
G75*
G02*
X123915000Y-93090000I0J-250000D01*
G01*
X123915000Y-93590000D01*
G75*
G02*
X123665000Y-93840000I-250000J0D01*
G01*
X122715000Y-93840000D01*
G75*
G02*
X122465000Y-93590000I0J250000D01*
G01*
X122465000Y-93090000D01*
G75*
G02*
X122715000Y-92840000I250000J0D01*
G01*
G37*
%TD.AperFunction*%
%TO.P,C4,1*%
%TO.N,VCC*%
%TA.AperFunction,SMDPad,CuDef*%
G36*
G01*
X122715000Y-90940000D02*
X123665000Y-90940000D01*
G75*
G02*
X123915000Y-91190000I0J-250000D01*
G01*
X123915000Y-91690000D01*
G75*
G02*
X123665000Y-91940000I-250000J0D01*
G01*
X122715000Y-91940000D01*
G75*
G02*
X122465000Y-91690000I0J250000D01*
G01*
X122465000Y-91190000D01*
G75*
G02*
X122715000Y-90940000I250000J0D01*
G01*
G37*
%TD.AperFunction*%
%TD*%
%TO.P,C3,2*%
%TO.N,GND*%
%TA.AperFunction,SMDPad,CuDef*%
G36*
G01*
X125255000Y-92840000D02*
X126205000Y-92840000D01*
G75*
G02*
X126455000Y-93090000I0J-250000D01*
G01*
X126455000Y-93590000D01*
G75*
G02*
X126205000Y-93840000I-250000J0D01*
G01*
X125255000Y-93840000D01*
G75*
G02*
X125005000Y-93590000I0J250000D01*
G01*
X125005000Y-93090000D01*
G75*
G02*
X125255000Y-92840000I250000J0D01*
G01*
G37*
%TD.AperFunction*%
%TO.P,C3,1*%
%TO.N,VCC*%
%TA.AperFunction,SMDPad,CuDef*%
G36*
G01*
X125255000Y-90940000D02*
X126205000Y-90940000D01*
G75*
G02*
X126455000Y-91190000I0J-250000D01*
G01*
X126455000Y-91690000D01*
G75*
G02*
X126205000Y-91940000I-250000J0D01*
G01*
X125255000Y-91940000D01*
G75*
G02*
X125005000Y-91690000I0J250000D01*
G01*
X125005000Y-91190000D01*
G75*
G02*
X125255000Y-90940000I250000J0D01*
G01*
G37*
%TD.AperFunction*%
%TD*%
%TO.P,C2,2*%
%TO.N,VCC*%
%TA.AperFunction,SMDPad,CuDef*%
G36*
G01*
X124910000Y-89375000D02*
X124910000Y-88425000D01*
G75*
G02*
X125160000Y-88175000I250000J0D01*
G01*
X125660000Y-88175000D01*
G75*
G02*
X125910000Y-88425000I0J-250000D01*
G01*
X125910000Y-89375000D01*
G75*
G02*
X125660000Y-89625000I-250000J0D01*
G01*
X125160000Y-89625000D01*
G75*
G02*
X124910000Y-89375000I0J250000D01*
G01*
G37*
%TD.AperFunction*%
%TO.P,C2,1*%
%TO.N,Net-(C2-Pad1)*%
%TA.AperFunction,SMDPad,CuDef*%
G36*
G01*
X123010000Y-89375000D02*
X123010000Y-88425000D01*
G75*
G02*
X123260000Y-88175000I250000J0D01*
G01*
X123760000Y-88175000D01*
G75*
G02*
X124010000Y-88425000I0J-250000D01*
G01*
X124010000Y-89375000D01*
G75*
G02*
X123760000Y-89625000I-250000J0D01*
G01*
X123260000Y-89625000D01*
G75*
G02*
X123010000Y-89375000I0J250000D01*
G01*
G37*
%TD.AperFunction*%
%TD*%
D16*
%TO.N,GND*%
X118237000Y-93472000D03*
X108564877Y-79473550D03*
X108564877Y-83473550D03*
X108564877Y-87473550D03*
X108564877Y-91473550D03*
X108564877Y-95473550D03*
X108564877Y-102473550D03*
X108564877Y-109473550D03*
X110564877Y-81473550D03*
X111564877Y-84473550D03*
X111564877Y-96473550D03*
X111564877Y-110473550D03*
X112564877Y-75473550D03*
X112564877Y-79473550D03*
X112564877Y-107473550D03*
X113564877Y-82473550D03*
X113564877Y-89473550D03*
X114564877Y-85473550D03*
X114564877Y-109473550D03*
X115564877Y-80473550D03*
X117564877Y-110473550D03*
X119564877Y-79473550D03*
X120564877Y-82473550D03*
X120564877Y-109473550D03*
X121564877Y-95473550D03*
X122564877Y-80473550D03*
X122564877Y-84473550D03*
X123564877Y-75473550D03*
X123564877Y-105473550D03*
X123564877Y-110473550D03*
X124564877Y-78473550D03*
X124564877Y-82473550D03*
X124564877Y-86473550D03*
X124564877Y-96473550D03*
X125564877Y-103473550D03*
X125564877Y-107473550D03*
X126564877Y-80473550D03*
X126564877Y-84473550D03*
X127564877Y-87473550D03*
X127564877Y-91473550D03*
X127564877Y-101473550D03*
X127564877Y-109473550D03*
X128564877Y-82473550D03*
X128564877Y-94473550D03*
X129564877Y-79473550D03*
X129564877Y-85473550D03*
X129564877Y-89473550D03*
X129564877Y-103473550D03*
%TO.N,VEE*%
X116586000Y-106934000D03*
X118364000Y-96774000D03*
%TD*%
D17*
%TO.N,VCC*%
X125410000Y-88900000D02*
X125410000Y-91120000D01*
X125410000Y-91120000D02*
X125090000Y-91440000D01*
X125090000Y-91440000D02*
X120650000Y-91440000D01*
X120480000Y-91270000D02*
X120650000Y-91440000D01*
X120480000Y-91120000D02*
X120480000Y-91270000D01*
X116520000Y-100315000D02*
X116520000Y-102804000D01*
X119830998Y-91186000D02*
X119830998Y-96831002D01*
X119830998Y-96831002D02*
X116586000Y-100076000D01*
X119896998Y-91120000D02*
X119830998Y-91186000D01*
X120480000Y-91120000D02*
X119896998Y-91120000D01*
D18*
X110998000Y-87630000D02*
X116595001Y-87630000D01*
D19*
X116595001Y-87630000D02*
X116840000Y-87630000D01*
X116840000Y-87630000D02*
X118364000Y-89154000D01*
D17*
X119830998Y-96831002D02*
X120251002Y-96831002D01*
X120251002Y-96831002D02*
X120890000Y-97470000D01*
X120890000Y-97470000D02*
X120890000Y-98790000D01*
X119420000Y-91180000D02*
X119830998Y-91186000D01*
X119420000Y-89230000D02*
X119420000Y-91180000D01*
X118995002Y-89220000D02*
X119420000Y-89230000D01*
X118280000Y-89220000D02*
X118995002Y-89220000D01*
%TO.N,Net-(C2-Pad1)*%
X121510000Y-90170000D02*
X122780000Y-88900000D01*
X120480000Y-90170000D02*
X121510000Y-90170000D01*
X122780000Y-88900000D02*
X123190000Y-88900000D01*
%TO.N,GND*%
X118280000Y-90170000D02*
X116205000Y-90170000D01*
%TO.N,Net-(C5-Pad1)*%
X114657500Y-92710000D02*
X114657500Y-95527500D01*
X114620000Y-95250000D02*
X114620000Y-97470000D01*
D18*
%TO.N,Net-(J1-Pad1)*%
X118110000Y-76200000D02*
X118110000Y-81280000D01*
D17*
%TO.N,VEE*%
X117348000Y-106172000D02*
X116586000Y-106934000D01*
X117348000Y-105395000D02*
X117348000Y-106172000D01*
X115864999Y-96749999D02*
X115570000Y-97044998D01*
X118339999Y-96749999D02*
X115864999Y-96749999D01*
X118364000Y-96774000D02*
X118339999Y-96749999D01*
X115570000Y-97044998D02*
X115570000Y-97790000D01*
%TO.N,Net-(J4-Pad1)*%
X116398000Y-104595002D02*
X116853002Y-104140000D01*
X116398000Y-105395000D02*
X116398000Y-104595002D01*
X116853002Y-104140000D02*
X120396000Y-104140000D01*
X120396000Y-104140000D02*
X120904000Y-104648000D01*
X120904000Y-104544500D02*
X122150500Y-104544500D01*
X122150500Y-104544500D02*
X127635000Y-99060000D01*
%TO.N,Net-(R2-Pad2)*%
X118280000Y-91120000D02*
X118280000Y-91270000D01*
X118280000Y-91270000D02*
X116840000Y-92710000D01*
X116840000Y-92710000D02*
X116205000Y-92710000D01*
%TO.N,Net-(RFB1-Pad2)*%
X115570000Y-99515002D02*
X116586000Y-98499002D01*
X115570000Y-101075002D02*
X115570000Y-99515002D01*
X114410002Y-102235000D02*
X115570000Y-101075002D01*
X116586000Y-98499002D02*
X116586000Y-97536000D01*
X113665000Y-102235000D02*
X113665000Y-103505000D01*
X111760000Y-102235000D02*
X113665000Y-102235000D01*
X113665000Y-102235000D02*
X114410002Y-102235000D01*
X113665000Y-103505000D02*
X114300000Y-104140000D01*
%TO.N,Net-(RFB1-Pad1)*%
X109497500Y-100330000D02*
X114300000Y-100330000D01*
D20*
X114300000Y-100330000D02*
X114570000Y-100330000D01*
X114570000Y-100330000D02*
X114640000Y-100260000D01*
D17*
%TO.N,Net-(RFB3-Pad1)*%
X120904000Y-102719500D02*
X118514500Y-102719500D01*
X118514500Y-102719500D02*
X118364000Y-102870000D01*
X120904000Y-102719500D02*
X120904000Y-100584000D01*
%TO.N,Net-(Rin1-Pad2)*%
X118364000Y-106680000D02*
X118364000Y-105156000D01*
X118364000Y-106680000D02*
X119380000Y-107696000D01*
X119380000Y-107696000D02*
X120650000Y-107696000D01*
X114046000Y-105965000D02*
X114046000Y-107734549D01*
X114046000Y-107734549D02*
X114769451Y-108458000D01*
X118618000Y-108458000D02*
X119380000Y-107696000D01*
X114769451Y-108458000D02*
X118618000Y-108458000D01*
D18*
%TO.N,Net-(.47u1-Pad2)*%
X120330000Y-86360000D02*
X120330000Y-88580000D01*
D17*
X120330000Y-88580000D02*
X120650000Y-88900000D01*
D18*
%TO.N,Net-(.47u1-Pad1)*%
X118110000Y-83462500D02*
X118110000Y-86360000D01*
%TD*%
D21*
%TO.N,GND*%
X113775000Y-75479250D02*
X113933750Y-75638000D01*
X115158000Y-75638000D01*
X115158000Y-75618000D01*
X115412000Y-75618000D01*
X115412000Y-75638000D01*
X116636250Y-75638000D01*
X116795000Y-75479250D01*
X116796963Y-74320000D01*
X116836928Y-74320000D01*
X116836928Y-77365000D01*
X116849188Y-77489482D01*
X116885498Y-77609180D01*
X116944463Y-77719494D01*
X116975000Y-77756704D01*
X116975001Y-80816538D01*
X116921595Y-80881613D01*
X116839528Y-81035148D01*
X116788992Y-81201744D01*
X116771928Y-81374998D01*
X116771928Y-81900002D01*
X116788992Y-82073256D01*
X116839528Y-82239852D01*
X116921595Y-82393387D01*
X117032038Y-82527962D01*
X117058891Y-82550000D01*
X117032038Y-82572038D01*
X116921595Y-82706613D01*
X116839528Y-82860148D01*
X116788992Y-83026744D01*
X116771928Y-83199998D01*
X116771928Y-83725002D01*
X116788992Y-83898256D01*
X116839528Y-84064852D01*
X116921595Y-84218387D01*
X116975000Y-84283461D01*
X116975001Y-86415752D01*
X116989564Y-86563619D01*
X116817500Y-86511423D01*
X116650753Y-86495000D01*
X112415683Y-86495000D01*
X112378537Y-86425506D01*
X112299185Y-86328815D01*
X112202494Y-86249463D01*
X112092180Y-86190498D01*
X111972482Y-86154188D01*
X111848000Y-86141928D01*
X110148000Y-86141928D01*
X110023518Y-86154188D01*
X109903820Y-86190498D01*
X109793506Y-86249463D01*
X109696815Y-86328815D01*
X109617463Y-86425506D01*
X109558498Y-86535820D01*
X109522188Y-86655518D01*
X109509928Y-86780000D01*
X109509928Y-88480000D01*
X109522188Y-88604482D01*
X109558498Y-88724180D01*
X109617463Y-88834494D01*
X109696815Y-88931185D01*
X109793506Y-89010537D01*
X109903820Y-89069502D01*
X109984466Y-89093966D01*
X109900412Y-89169731D01*
X109726359Y-89403080D01*
X109601175Y-89665901D01*
X109556524Y-89813110D01*
X109677845Y-90043000D01*
X110871000Y-90043000D01*
X110871000Y-90023000D01*
X111125000Y-90023000D01*
X111125000Y-90043000D01*
X112318155Y-90043000D01*
X112439476Y-89813110D01*
X112394825Y-89665901D01*
X112269641Y-89403080D01*
X112095588Y-89169731D01*
X112011534Y-89093966D01*
X112092180Y-89069502D01*
X112202494Y-89010537D01*
X112299185Y-88931185D01*
X112378537Y-88834494D01*
X112415683Y-88765000D01*
X116546645Y-88765000D01*
X117111928Y-89330284D01*
X117111928Y-89545000D01*
X117124188Y-89669482D01*
X117131929Y-89695000D01*
X117124188Y-89720518D01*
X117111928Y-89845000D01*
X117115000Y-89884250D01*
X117273750Y-90043000D01*
X117355859Y-90043000D01*
X117395506Y-90075537D01*
X117505820Y-90134502D01*
X117622841Y-90170000D01*
X117505820Y-90205498D01*
X117395506Y-90264463D01*
X117355859Y-90297000D01*
X117273750Y-90297000D01*
X117115000Y-90455750D01*
X117111928Y-90495000D01*
X117124188Y-90619482D01*
X117131929Y-90645000D01*
X117124188Y-90670518D01*
X117111928Y-90795000D01*
X117111928Y-91186493D01*
X116910221Y-91388201D01*
X116745002Y-91371928D01*
X116219998Y-91371928D01*
X116046744Y-91388992D01*
X115880148Y-91439528D01*
X115726613Y-91521595D01*
X115592038Y-91632038D01*
X115570000Y-91658891D01*
X115547962Y-91632038D01*
X115413387Y-91521595D01*
X115259852Y-91439528D01*
X115093256Y-91388992D01*
X114920002Y-91371928D01*
X114394998Y-91371928D01*
X114221744Y-91388992D01*
X114055148Y-91439528D01*
X113901613Y-91521595D01*
X113767038Y-91632038D01*
X113656595Y-91766613D01*
X113574528Y-91920148D01*
X113523992Y-92086744D01*
X113506928Y-92259998D01*
X113506928Y-93160002D01*
X113523992Y-93333256D01*
X113574528Y-93499852D01*
X113656595Y-93653387D01*
X113767038Y-93787962D01*
X113772500Y-93792445D01*
X113772501Y-94122038D01*
X113742038Y-94147038D01*
X113631595Y-94281614D01*
X113549528Y-94435150D01*
X113498992Y-94601746D01*
X113481928Y-94775000D01*
X113481928Y-95725000D01*
X113498992Y-95898254D01*
X113549528Y-96064850D01*
X113631595Y-96218386D01*
X113735000Y-96344387D01*
X113735001Y-96957459D01*
X113699188Y-97075518D01*
X113686928Y-97200000D01*
X113686928Y-98410000D01*
X113699188Y-98534482D01*
X113735498Y-98654180D01*
X113794463Y-98764494D01*
X113873815Y-98861185D01*
X113970506Y-98940537D01*
X114080820Y-98999502D01*
X114200518Y-99035812D01*
X114325000Y-99048072D01*
X114816089Y-99048072D01*
X114803338Y-99071928D01*
X114325000Y-99071928D01*
X114200518Y-99084188D01*
X114080820Y-99120498D01*
X113970506Y-99179463D01*
X113873815Y-99258815D01*
X113794463Y-99355506D01*
X113746627Y-99445000D01*
X112747137Y-99445000D01*
X112703387Y-99409095D01*
X112549852Y-99327028D01*
X112383256Y-99276492D01*
X112210002Y-99259428D01*
X111309998Y-99259428D01*
X111136744Y-99276492D01*
X111050749Y-99302578D01*
X111053812Y-99292482D01*
X111066072Y-99168000D01*
X111063000Y-98941250D01*
X110904250Y-98782500D01*
X109855000Y-98782500D01*
X109855000Y-98802500D01*
X109601000Y-98802500D01*
X109601000Y-98782500D01*
X108551750Y-98782500D01*
X108393000Y-98941250D01*
X108389928Y-99168000D01*
X108402188Y-99292482D01*
X108438498Y-99412180D01*
X108497463Y-99522494D01*
X108576815Y-99619185D01*
X108606276Y-99643363D01*
X108539595Y-99724613D01*
X108457528Y-99878148D01*
X108406992Y-100044744D01*
X108389928Y-100217998D01*
X108389928Y-100743002D01*
X108406992Y-100916256D01*
X108457528Y-101082852D01*
X108539595Y-101236387D01*
X108650038Y-101370962D01*
X108784613Y-101481405D01*
X108938148Y-101563472D01*
X109104744Y-101614008D01*
X109277998Y-101631072D01*
X110178002Y-101631072D01*
X110351256Y-101614008D01*
X110517852Y-101563472D01*
X110529964Y-101556998D01*
X110489528Y-101632648D01*
X110438992Y-101799244D01*
X110421928Y-101972498D01*
X110421928Y-102497502D01*
X110438992Y-102670756D01*
X110489528Y-102837352D01*
X110571595Y-102990887D01*
X110682038Y-103125462D01*
X110816613Y-103235905D01*
X110970148Y-103317972D01*
X111136744Y-103368508D01*
X111309998Y-103385572D01*
X112210002Y-103385572D01*
X112383256Y-103368508D01*
X112549852Y-103317972D01*
X112703387Y-103235905D01*
X112780001Y-103173030D01*
X112780001Y-103461522D01*
X112775719Y-103505000D01*
X112778404Y-103532267D01*
X112775528Y-103537648D01*
X112724992Y-103704244D01*
X112707928Y-103877498D01*
X112707928Y-104402502D01*
X112724992Y-104575756D01*
X112775528Y-104742352D01*
X112857595Y-104895887D01*
X112968038Y-105030462D01*
X112994891Y-105052500D01*
X112968038Y-105074538D01*
X112857595Y-105209113D01*
X112775528Y-105362648D01*
X112724992Y-105529244D01*
X112707928Y-105702498D01*
X112707928Y-106227502D01*
X112724992Y-106400756D01*
X112775528Y-106567352D01*
X112857595Y-106720887D01*
X112968038Y-106855462D01*
X113102613Y-106965905D01*
X113161001Y-106997114D01*
X113161001Y-107691070D01*
X113156719Y-107734549D01*
X113173805Y-107908039D01*
X113224412Y-108074862D01*
X113306590Y-108228608D01*
X113389468Y-108329595D01*
X113389471Y-108329598D01*
X113417184Y-108363366D01*
X113450951Y-108391078D01*
X114112921Y-109053049D01*
X114140634Y-109086817D01*
X114174402Y-109114530D01*
X114174404Y-109114532D01*
X114245903Y-109173210D01*
X114275392Y-109197411D01*
X114429138Y-109279589D01*
X114595961Y-109330195D01*
X114725974Y-109343000D01*
X114725984Y-109343000D01*
X114769450Y-109347281D01*
X114812916Y-109343000D01*
X118574531Y-109343000D01*
X118618000Y-109347281D01*
X118661469Y-109343000D01*
X118661477Y-109343000D01*
X118791490Y-109330195D01*
X118958313Y-109279589D01*
X119112059Y-109197411D01*
X119246817Y-109086817D01*
X119274534Y-109053044D01*
X119718106Y-108609472D01*
X119743613Y-108630405D01*
X119897148Y-108712472D01*
X120063744Y-108763008D01*
X120236998Y-108780072D01*
X120762002Y-108780072D01*
X120935256Y-108763008D01*
X121101852Y-108712472D01*
X121255387Y-108630405D01*
X121336637Y-108563724D01*
X121360815Y-108593185D01*
X121457506Y-108672537D01*
X121567820Y-108731502D01*
X121687518Y-108767812D01*
X121812000Y-108780072D01*
X122038750Y-108777000D01*
X122197500Y-108618250D01*
X122197500Y-107569000D01*
X122451500Y-107569000D01*
X122451500Y-108618250D01*
X122610250Y-108777000D01*
X122837000Y-108780072D01*
X122961482Y-108767812D01*
X123081180Y-108731502D01*
X123191494Y-108672537D01*
X123288185Y-108593185D01*
X123367537Y-108496494D01*
X123426502Y-108386180D01*
X123462812Y-108266482D01*
X123475072Y-108142000D01*
X123472000Y-107727750D01*
X123313250Y-107569000D01*
X122451500Y-107569000D01*
X122197500Y-107569000D01*
X122177500Y-107569000D01*
X122177500Y-107315000D01*
X122197500Y-107315000D01*
X122197500Y-106265750D01*
X122451500Y-106265750D01*
X122451500Y-107315000D01*
X123313250Y-107315000D01*
X123472000Y-107156250D01*
X123475072Y-106742000D01*
X123462812Y-106617518D01*
X123426502Y-106497820D01*
X123367537Y-106387506D01*
X123288185Y-106290815D01*
X123191494Y-106211463D01*
X123081180Y-106152498D01*
X122961482Y-106116188D01*
X122837000Y-106103928D01*
X122610250Y-106107000D01*
X122451500Y-106265750D01*
X122197500Y-106265750D01*
X122038750Y-106107000D01*
X121812000Y-106103928D01*
X121687518Y-106116188D01*
X121567820Y-106152498D01*
X121457506Y-106211463D01*
X121360815Y-106290815D01*
X121336637Y-106320276D01*
X121255387Y-106253595D01*
X121101852Y-106171528D01*
X120935256Y-106120992D01*
X120762002Y-106103928D01*
X120236998Y-106103928D01*
X120063744Y-106120992D01*
X119897148Y-106171528D01*
X119743613Y-106253595D01*
X119609038Y-106364038D01*
X119498595Y-106498613D01*
X119476161Y-106540583D01*
X119249000Y-106313422D01*
X119249000Y-106001117D01*
X127297000Y-106001117D01*
X127297000Y-106342883D01*
X127363675Y-106678081D01*
X127494463Y-106993831D01*
X127684337Y-107277998D01*
X127926002Y-107519663D01*
X128210169Y-107709537D01*
X128525919Y-107840325D01*
X128861117Y-107907000D01*
X129202883Y-107907000D01*
X129538081Y-107840325D01*
X129853831Y-107709537D01*
X130137998Y-107519663D01*
X130379663Y-107277998D01*
X130569537Y-106993831D01*
X130700325Y-106678081D01*
X130767000Y-106342883D01*
X130767000Y-106001117D01*
X130700325Y-105665919D01*
X130569537Y-105350169D01*
X130379663Y-105066002D01*
X130137998Y-104824337D01*
X129853831Y-104634463D01*
X129538081Y-104503675D01*
X129202883Y-104437000D01*
X128861117Y-104437000D01*
X128525919Y-104503675D01*
X128210169Y-104634463D01*
X127926002Y-104824337D01*
X127684337Y-105066002D01*
X127494463Y-105350169D01*
X127363675Y-105665919D01*
X127297000Y-106001117D01*
X119249000Y-106001117D01*
X119249000Y-105112523D01*
X119240380Y-105025000D01*
X119596565Y-105025000D01*
X119633528Y-105146852D01*
X119715595Y-105300387D01*
X119826038Y-105434962D01*
X119960613Y-105545405D01*
X120114148Y-105627472D01*
X120280744Y-105678008D01*
X120453998Y-105695072D01*
X121354002Y-105695072D01*
X121527256Y-105678008D01*
X121693852Y-105627472D01*
X121847387Y-105545405D01*
X121981962Y-105434962D01*
X121986445Y-105429500D01*
X122107031Y-105429500D01*
X122150500Y-105433781D01*
X122193969Y-105429500D01*
X122193977Y-105429500D01*
X122323990Y-105416695D01*
X122490813Y-105366089D01*
X122644559Y-105283911D01*
X122779317Y-105173317D01*
X122807034Y-105139544D01*
X127398507Y-100548072D01*
X128485000Y-100548072D01*
X128609482Y-100535812D01*
X128729180Y-100499502D01*
X128839494Y-100440537D01*
X128936185Y-100361185D01*
X129015537Y-100264494D01*
X129074502Y-100154180D01*
X129110812Y-100034482D01*
X129123072Y-99910000D01*
X129123072Y-98210000D01*
X129110812Y-98085518D01*
X129074502Y-97965820D01*
X129015537Y-97855506D01*
X128936185Y-97758815D01*
X128839494Y-97679463D01*
X128729180Y-97620498D01*
X128648534Y-97596034D01*
X128732588Y-97520269D01*
X128906641Y-97286920D01*
X129031825Y-97024099D01*
X129076476Y-96876890D01*
X128955155Y-96647000D01*
X127762000Y-96647000D01*
X127762000Y-96667000D01*
X127508000Y-96667000D01*
X127508000Y-96647000D01*
X126314845Y-96647000D01*
X126193524Y-96876890D01*
X126238175Y-97024099D01*
X126363359Y-97286920D01*
X126537412Y-97520269D01*
X126621466Y-97596034D01*
X126540820Y-97620498D01*
X126430506Y-97679463D01*
X126333815Y-97758815D01*
X126254463Y-97855506D01*
X126195498Y-97965820D01*
X126159188Y-98085518D01*
X126146928Y-98210000D01*
X126146928Y-99296493D01*
X122197507Y-103245915D01*
X122225008Y-103155256D01*
X122242072Y-102982002D01*
X122242072Y-102456998D01*
X122225008Y-102283744D01*
X122174472Y-102117148D01*
X122092405Y-101963613D01*
X121981962Y-101829038D01*
X121847387Y-101718595D01*
X121789000Y-101687386D01*
X121789000Y-101616114D01*
X121847387Y-101584905D01*
X121981962Y-101474462D01*
X122092405Y-101339887D01*
X122174472Y-101186352D01*
X122225008Y-101019756D01*
X122242072Y-100846502D01*
X122242072Y-100321498D01*
X122225008Y-100148244D01*
X122174472Y-99981648D01*
X122092405Y-99828113D01*
X121981962Y-99693538D01*
X121955109Y-99671500D01*
X121981962Y-99649462D01*
X122092405Y-99514887D01*
X122174472Y-99361352D01*
X122225008Y-99194756D01*
X122242072Y-99021502D01*
X122242072Y-98496498D01*
X122225008Y-98323244D01*
X122174472Y-98156648D01*
X122092405Y-98003113D01*
X121981962Y-97868538D01*
X121847387Y-97758095D01*
X121775000Y-97719403D01*
X121775000Y-97513469D01*
X121779281Y-97470000D01*
X121775000Y-97426531D01*
X121775000Y-97426523D01*
X121762195Y-97296510D01*
X121724217Y-97171315D01*
X121711589Y-97129686D01*
X121629411Y-96975941D01*
X121546532Y-96874953D01*
X121546530Y-96874951D01*
X121518817Y-96841183D01*
X121485050Y-96813471D01*
X120907536Y-96235958D01*
X120879819Y-96202185D01*
X120832207Y-96163110D01*
X126193524Y-96163110D01*
X126314845Y-96393000D01*
X127508000Y-96393000D01*
X127508000Y-95199186D01*
X127762000Y-95199186D01*
X127762000Y-96393000D01*
X128955155Y-96393000D01*
X129076476Y-96163110D01*
X129031825Y-96015901D01*
X128906641Y-95753080D01*
X128732588Y-95519731D01*
X128516355Y-95324822D01*
X128266252Y-95175843D01*
X127991891Y-95078519D01*
X127762000Y-95199186D01*
X127508000Y-95199186D01*
X127278109Y-95078519D01*
X127003748Y-95175843D01*
X126753645Y-95324822D01*
X126537412Y-95519731D01*
X126363359Y-95753080D01*
X126238175Y-96015901D01*
X126193524Y-96163110D01*
X120832207Y-96163110D01*
X120745061Y-96091591D01*
X120715998Y-96076057D01*
X120715998Y-93840000D01*
X121826928Y-93840000D01*
X121839188Y-93964482D01*
X121875498Y-94084180D01*
X121934463Y-94194494D01*
X122013815Y-94291185D01*
X122110506Y-94370537D01*
X122220820Y-94429502D01*
X122340518Y-94465812D01*
X122465000Y-94478072D01*
X122904250Y-94475000D01*
X123063000Y-94316250D01*
X123063000Y-93467000D01*
X123317000Y-93467000D01*
X123317000Y-94316250D01*
X123475750Y-94475000D01*
X123915000Y-94478072D01*
X124039482Y-94465812D01*
X124159180Y-94429502D01*
X124269494Y-94370537D01*
X124366185Y-94291185D01*
X124445537Y-94194494D01*
X124460000Y-94167436D01*
X124474463Y-94194494D01*
X124553815Y-94291185D01*
X124650506Y-94370537D01*
X124760820Y-94429502D01*
X124880518Y-94465812D01*
X125005000Y-94478072D01*
X125444250Y-94475000D01*
X125603000Y-94316250D01*
X125603000Y-93467000D01*
X125857000Y-93467000D01*
X125857000Y-94316250D01*
X126015750Y-94475000D01*
X126455000Y-94478072D01*
X126579482Y-94465812D01*
X126699180Y-94429502D01*
X126809494Y-94370537D01*
X126906185Y-94291185D01*
X126985537Y-94194494D01*
X127044502Y-94084180D01*
X127080812Y-93964482D01*
X127093072Y-93840000D01*
X127090000Y-93625750D01*
X126931250Y-93467000D01*
X125857000Y-93467000D01*
X125603000Y-93467000D01*
X124528750Y-93467000D01*
X124460000Y-93535750D01*
X124391250Y-93467000D01*
X123317000Y-93467000D01*
X123063000Y-93467000D01*
X121988750Y-93467000D01*
X121830000Y-93625750D01*
X121826928Y-93840000D01*
X120715998Y-93840000D01*
X120715998Y-92325000D01*
X122091574Y-92325000D01*
X122013815Y-92388815D01*
X121934463Y-92485506D01*
X121875498Y-92595820D01*
X121839188Y-92715518D01*
X121826928Y-92840000D01*
X121830000Y-93054250D01*
X121988750Y-93213000D01*
X123063000Y-93213000D01*
X123063000Y-93193000D01*
X123317000Y-93193000D01*
X123317000Y-93213000D01*
X124391250Y-93213000D01*
X124460000Y-93144250D01*
X124528750Y-93213000D01*
X125603000Y-93213000D01*
X125603000Y-93193000D01*
X125857000Y-93193000D01*
X125857000Y-93213000D01*
X126931250Y-93213000D01*
X127090000Y-93054250D01*
X127093072Y-92840000D01*
X127080812Y-92715518D01*
X127044502Y-92595820D01*
X126985537Y-92485506D01*
X126906185Y-92388815D01*
X126826406Y-92323342D01*
X126832962Y-92317962D01*
X126943405Y-92183386D01*
X127025472Y-92029850D01*
X127076008Y-91863254D01*
X127093072Y-91690000D01*
X127093072Y-91190000D01*
X127076008Y-91016746D01*
X127025472Y-90850150D01*
X126943405Y-90696614D01*
X126832962Y-90562038D01*
X126698386Y-90451595D01*
X126544850Y-90369528D01*
X126378254Y-90318992D01*
X126295000Y-90310792D01*
X126295000Y-89994386D01*
X126398405Y-89868386D01*
X126480472Y-89714850D01*
X126531008Y-89548254D01*
X126548072Y-89375000D01*
X126548072Y-88425000D01*
X126531008Y-88251746D01*
X126480472Y-88085150D01*
X126398405Y-87931614D01*
X126287962Y-87797038D01*
X126153386Y-87686595D01*
X125999850Y-87604528D01*
X125833254Y-87553992D01*
X125660000Y-87536928D01*
X125160000Y-87536928D01*
X124986746Y-87553992D01*
X124820150Y-87604528D01*
X124666614Y-87686595D01*
X124532038Y-87797038D01*
X124460000Y-87884817D01*
X124387962Y-87797038D01*
X124253386Y-87686595D01*
X124099850Y-87604528D01*
X123933254Y-87553992D01*
X123760000Y-87536928D01*
X123260000Y-87536928D01*
X123086746Y-87553992D01*
X122920150Y-87604528D01*
X122766614Y-87686595D01*
X122632038Y-87797038D01*
X122521595Y-87931614D01*
X122443796Y-88077164D01*
X122439687Y-88078411D01*
X122285941Y-88160589D01*
X122285939Y-88160590D01*
X122285940Y-88160590D01*
X122184953Y-88243468D01*
X122184951Y-88243470D01*
X122151183Y-88271183D01*
X122123470Y-88304951D01*
X121637793Y-88790629D01*
X121635812Y-88770518D01*
X121599502Y-88650820D01*
X121540537Y-88540506D01*
X121465000Y-88448464D01*
X121465000Y-86866191D01*
X121468072Y-86835000D01*
X121468072Y-85885000D01*
X121451008Y-85711746D01*
X121400472Y-85545150D01*
X121318405Y-85391614D01*
X121207962Y-85257038D01*
X121073386Y-85146595D01*
X120919850Y-85064528D01*
X120753254Y-85013992D01*
X120580000Y-84996928D01*
X120080000Y-84996928D01*
X119906746Y-85013992D01*
X119740150Y-85064528D01*
X119586614Y-85146595D01*
X119452038Y-85257038D01*
X119380000Y-85344817D01*
X119307962Y-85257038D01*
X119245000Y-85205367D01*
X119245000Y-84283461D01*
X119298405Y-84218387D01*
X119380472Y-84064852D01*
X119431008Y-83898256D01*
X119448072Y-83725002D01*
X119448072Y-83199998D01*
X119431008Y-83026744D01*
X119380472Y-82860148D01*
X119298405Y-82706613D01*
X119187962Y-82572038D01*
X119161109Y-82550000D01*
X119187962Y-82527962D01*
X119298405Y-82393387D01*
X119380472Y-82239852D01*
X119431008Y-82073256D01*
X119448072Y-81900002D01*
X119448072Y-81374998D01*
X119431008Y-81201744D01*
X119380472Y-81035148D01*
X119298405Y-80881613D01*
X119245000Y-80816539D01*
X119245000Y-77865000D01*
X119421928Y-77865000D01*
X119434188Y-77989482D01*
X119470498Y-78109180D01*
X119529463Y-78219494D01*
X119608815Y-78316185D01*
X119705506Y-78395537D01*
X119815820Y-78454502D01*
X119935518Y-78490812D01*
X120060000Y-78503072D01*
X120649250Y-78500000D01*
X120808000Y-78341250D01*
X120808000Y-75892000D01*
X121062000Y-75892000D01*
X121062000Y-78341250D01*
X121220750Y-78500000D01*
X121810000Y-78503072D01*
X121934482Y-78490812D01*
X122054180Y-78454502D01*
X122164494Y-78395537D01*
X122261185Y-78316185D01*
X122340537Y-78219494D01*
X122399502Y-78109180D01*
X122435812Y-77989482D01*
X122448072Y-77865000D01*
X122446039Y-76664117D01*
X127170000Y-76664117D01*
X127170000Y-77005883D01*
X127236675Y-77341081D01*
X127367463Y-77656831D01*
X127557337Y-77940998D01*
X127799002Y-78182663D01*
X128083169Y-78372537D01*
X128398919Y-78503325D01*
X128734117Y-78570000D01*
X129075883Y-78570000D01*
X129411081Y-78503325D01*
X129726831Y-78372537D01*
X130010998Y-78182663D01*
X130252663Y-77940998D01*
X130442537Y-77656831D01*
X130573325Y-77341081D01*
X130640000Y-77005883D01*
X130640000Y-76664117D01*
X130573325Y-76328919D01*
X130442537Y-76013169D01*
X130252663Y-75729002D01*
X130010998Y-75487337D01*
X129726831Y-75297463D01*
X129411081Y-75166675D01*
X129075883Y-75100000D01*
X128734117Y-75100000D01*
X128398919Y-75166675D01*
X128083169Y-75297463D01*
X127799002Y-75487337D01*
X127557337Y-75729002D01*
X127367463Y-76013169D01*
X127236675Y-76328919D01*
X127170000Y-76664117D01*
X122446039Y-76664117D01*
X122445000Y-76050750D01*
X122286250Y-75892000D01*
X121062000Y-75892000D01*
X120808000Y-75892000D01*
X119583750Y-75892000D01*
X119425000Y-76050750D01*
X119421928Y-77865000D01*
X119245000Y-77865000D01*
X119245000Y-77756704D01*
X119275537Y-77719494D01*
X119334502Y-77609180D01*
X119370812Y-77489482D01*
X119383072Y-77365000D01*
X119383072Y-74320000D01*
X119423037Y-74320000D01*
X119425000Y-75479250D01*
X119583750Y-75638000D01*
X120808000Y-75638000D01*
X120808000Y-75618000D01*
X121062000Y-75618000D01*
X121062000Y-75638000D01*
X122286250Y-75638000D01*
X122445000Y-75479250D01*
X122446963Y-74320000D01*
X131420001Y-74320000D01*
X131420000Y-111735000D01*
X107340000Y-111735000D01*
X107340000Y-106509117D01*
X108120000Y-106509117D01*
X108120000Y-106850883D01*
X108186675Y-107186081D01*
X108317463Y-107501831D01*
X108507337Y-107785998D01*
X108749002Y-108027663D01*
X109033169Y-108217537D01*
X109348919Y-108348325D01*
X109684117Y-108415000D01*
X110025883Y-108415000D01*
X110361081Y-108348325D01*
X110676831Y-108217537D01*
X110960998Y-108027663D01*
X111202663Y-107785998D01*
X111392537Y-107501831D01*
X111523325Y-107186081D01*
X111590000Y-106850883D01*
X111590000Y-106509117D01*
X111523325Y-106173919D01*
X111392537Y-105858169D01*
X111202663Y-105574002D01*
X110960998Y-105332337D01*
X110676831Y-105142463D01*
X110361081Y-105011675D01*
X110025883Y-104945000D01*
X109684117Y-104945000D01*
X109348919Y-105011675D01*
X109033169Y-105142463D01*
X108749002Y-105332337D01*
X108507337Y-105574002D01*
X108317463Y-105858169D01*
X108186675Y-106173919D01*
X108120000Y-106509117D01*
X107340000Y-106509117D01*
X107340000Y-98143000D01*
X108389928Y-98143000D01*
X108393000Y-98369750D01*
X108551750Y-98528500D01*
X109601000Y-98528500D01*
X109601000Y-97666750D01*
X109855000Y-97666750D01*
X109855000Y-98528500D01*
X110904250Y-98528500D01*
X111063000Y-98369750D01*
X111066072Y-98143000D01*
X111053812Y-98018518D01*
X111017502Y-97898820D01*
X110958537Y-97788506D01*
X110879185Y-97691815D01*
X110782494Y-97612463D01*
X110672180Y-97553498D01*
X110552482Y-97517188D01*
X110428000Y-97504928D01*
X110013750Y-97508000D01*
X109855000Y-97666750D01*
X109601000Y-97666750D01*
X109442250Y-97508000D01*
X109028000Y-97504928D01*
X108903518Y-97517188D01*
X108783820Y-97553498D01*
X108673506Y-97612463D01*
X108576815Y-97691815D01*
X108497463Y-97788506D01*
X108438498Y-97898820D01*
X108402188Y-98018518D01*
X108389928Y-98143000D01*
X107340000Y-98143000D01*
X107340000Y-92563740D01*
X109513000Y-92563740D01*
X109513000Y-92856260D01*
X109570068Y-93143158D01*
X109682010Y-93413411D01*
X109844525Y-93656632D01*
X110051368Y-93863475D01*
X110294589Y-94025990D01*
X110564842Y-94137932D01*
X110851740Y-94195000D01*
X111144260Y-94195000D01*
X111431158Y-94137932D01*
X111701411Y-94025990D01*
X111944632Y-93863475D01*
X112151475Y-93656632D01*
X112313990Y-93413411D01*
X112425932Y-93143158D01*
X112483000Y-92856260D01*
X112483000Y-92563740D01*
X112425932Y-92276842D01*
X112313990Y-92006589D01*
X112151475Y-91763368D01*
X111944632Y-91556525D01*
X111762466Y-91434805D01*
X111879355Y-91365178D01*
X112095588Y-91170269D01*
X112269641Y-90936920D01*
X112394825Y-90674099D01*
X112439476Y-90526890D01*
X112318155Y-90297000D01*
X111125000Y-90297000D01*
X111125000Y-90317000D01*
X110871000Y-90317000D01*
X110871000Y-90297000D01*
X109677845Y-90297000D01*
X109556524Y-90526890D01*
X109601175Y-90674099D01*
X109726359Y-90936920D01*
X109900412Y-91170269D01*
X110116645Y-91365178D01*
X110233534Y-91434805D01*
X110051368Y-91556525D01*
X109844525Y-91763368D01*
X109682010Y-92006589D01*
X109570068Y-92276842D01*
X109513000Y-92563740D01*
X107340000Y-92563740D01*
X107340000Y-76664117D01*
X108120000Y-76664117D01*
X108120000Y-77005883D01*
X108186675Y-77341081D01*
X108317463Y-77656831D01*
X108507337Y-77940998D01*
X108749002Y-78182663D01*
X109033169Y-78372537D01*
X109348919Y-78503325D01*
X109684117Y-78570000D01*
X110025883Y-78570000D01*
X110361081Y-78503325D01*
X110676831Y-78372537D01*
X110960998Y-78182663D01*
X111202663Y-77940998D01*
X111253443Y-77865000D01*
X113771928Y-77865000D01*
X113784188Y-77989482D01*
X113820498Y-78109180D01*
X113879463Y-78219494D01*
X113958815Y-78316185D01*
X114055506Y-78395537D01*
X114165820Y-78454502D01*
X114285518Y-78490812D01*
X114410000Y-78503072D01*
X114999250Y-78500000D01*
X115158000Y-78341250D01*
X115158000Y-75892000D01*
X115412000Y-75892000D01*
X115412000Y-78341250D01*
X115570750Y-78500000D01*
X116160000Y-78503072D01*
X116284482Y-78490812D01*
X116404180Y-78454502D01*
X116514494Y-78395537D01*
X116611185Y-78316185D01*
X116690537Y-78219494D01*
X116749502Y-78109180D01*
X116785812Y-77989482D01*
X116798072Y-77865000D01*
X116795000Y-76050750D01*
X116636250Y-75892000D01*
X115412000Y-75892000D01*
X115158000Y-75892000D01*
X113933750Y-75892000D01*
X113775000Y-76050750D01*
X113771928Y-77865000D01*
X111253443Y-77865000D01*
X111392537Y-77656831D01*
X111523325Y-77341081D01*
X111590000Y-77005883D01*
X111590000Y-76664117D01*
X111523325Y-76328919D01*
X111392537Y-76013169D01*
X111202663Y-75729002D01*
X110960998Y-75487337D01*
X110676831Y-75297463D01*
X110361081Y-75166675D01*
X110025883Y-75100000D01*
X109684117Y-75100000D01*
X109348919Y-75166675D01*
X109033169Y-75297463D01*
X108749002Y-75487337D01*
X108507337Y-75729002D01*
X108317463Y-76013169D01*
X108186675Y-76328919D01*
X108120000Y-76664117D01*
X107340000Y-76664117D01*
X107340000Y-74320000D01*
X113773037Y-74320000D01*
X113775000Y-75479250D01*
%TA.AperFunction,Conductor*%
D22*
G36*
X113775000Y-75479250D02*
G01*
X113933750Y-75638000D01*
X115158000Y-75638000D01*
X115158000Y-75618000D01*
X115412000Y-75618000D01*
X115412000Y-75638000D01*
X116636250Y-75638000D01*
X116795000Y-75479250D01*
X116796963Y-74320000D01*
X116836928Y-74320000D01*
X116836928Y-77365000D01*
X116849188Y-77489482D01*
X116885498Y-77609180D01*
X116944463Y-77719494D01*
X116975000Y-77756704D01*
X116975001Y-80816538D01*
X116921595Y-80881613D01*
X116839528Y-81035148D01*
X116788992Y-81201744D01*
X116771928Y-81374998D01*
X116771928Y-81900002D01*
X116788992Y-82073256D01*
X116839528Y-82239852D01*
X116921595Y-82393387D01*
X117032038Y-82527962D01*
X117058891Y-82550000D01*
X117032038Y-82572038D01*
X116921595Y-82706613D01*
X116839528Y-82860148D01*
X116788992Y-83026744D01*
X116771928Y-83199998D01*
X116771928Y-83725002D01*
X116788992Y-83898256D01*
X116839528Y-84064852D01*
X116921595Y-84218387D01*
X116975000Y-84283461D01*
X116975001Y-86415752D01*
X116989564Y-86563619D01*
X116817500Y-86511423D01*
X116650753Y-86495000D01*
X112415683Y-86495000D01*
X112378537Y-86425506D01*
X112299185Y-86328815D01*
X112202494Y-86249463D01*
X112092180Y-86190498D01*
X111972482Y-86154188D01*
X111848000Y-86141928D01*
X110148000Y-86141928D01*
X110023518Y-86154188D01*
X109903820Y-86190498D01*
X109793506Y-86249463D01*
X109696815Y-86328815D01*
X109617463Y-86425506D01*
X109558498Y-86535820D01*
X109522188Y-86655518D01*
X109509928Y-86780000D01*
X109509928Y-88480000D01*
X109522188Y-88604482D01*
X109558498Y-88724180D01*
X109617463Y-88834494D01*
X109696815Y-88931185D01*
X109793506Y-89010537D01*
X109903820Y-89069502D01*
X109984466Y-89093966D01*
X109900412Y-89169731D01*
X109726359Y-89403080D01*
X109601175Y-89665901D01*
X109556524Y-89813110D01*
X109677845Y-90043000D01*
X110871000Y-90043000D01*
X110871000Y-90023000D01*
X111125000Y-90023000D01*
X111125000Y-90043000D01*
X112318155Y-90043000D01*
X112439476Y-89813110D01*
X112394825Y-89665901D01*
X112269641Y-89403080D01*
X112095588Y-89169731D01*
X112011534Y-89093966D01*
X112092180Y-89069502D01*
X112202494Y-89010537D01*
X112299185Y-88931185D01*
X112378537Y-88834494D01*
X112415683Y-88765000D01*
X116546645Y-88765000D01*
X117111928Y-89330284D01*
X117111928Y-89545000D01*
X117124188Y-89669482D01*
X117131929Y-89695000D01*
X117124188Y-89720518D01*
X117111928Y-89845000D01*
X117115000Y-89884250D01*
X117273750Y-90043000D01*
X117355859Y-90043000D01*
X117395506Y-90075537D01*
X117505820Y-90134502D01*
X117622841Y-90170000D01*
X117505820Y-90205498D01*
X117395506Y-90264463D01*
X117355859Y-90297000D01*
X117273750Y-90297000D01*
X117115000Y-90455750D01*
X117111928Y-90495000D01*
X117124188Y-90619482D01*
X117131929Y-90645000D01*
X117124188Y-90670518D01*
X117111928Y-90795000D01*
X117111928Y-91186493D01*
X116910221Y-91388201D01*
X116745002Y-91371928D01*
X116219998Y-91371928D01*
X116046744Y-91388992D01*
X115880148Y-91439528D01*
X115726613Y-91521595D01*
X115592038Y-91632038D01*
X115570000Y-91658891D01*
X115547962Y-91632038D01*
X115413387Y-91521595D01*
X115259852Y-91439528D01*
X115093256Y-91388992D01*
X114920002Y-91371928D01*
X114394998Y-91371928D01*
X114221744Y-91388992D01*
X114055148Y-91439528D01*
X113901613Y-91521595D01*
X113767038Y-91632038D01*
X113656595Y-91766613D01*
X113574528Y-91920148D01*
X113523992Y-92086744D01*
X113506928Y-92259998D01*
X113506928Y-93160002D01*
X113523992Y-93333256D01*
X113574528Y-93499852D01*
X113656595Y-93653387D01*
X113767038Y-93787962D01*
X113772500Y-93792445D01*
X113772501Y-94122038D01*
X113742038Y-94147038D01*
X113631595Y-94281614D01*
X113549528Y-94435150D01*
X113498992Y-94601746D01*
X113481928Y-94775000D01*
X113481928Y-95725000D01*
X113498992Y-95898254D01*
X113549528Y-96064850D01*
X113631595Y-96218386D01*
X113735000Y-96344387D01*
X113735001Y-96957459D01*
X113699188Y-97075518D01*
X113686928Y-97200000D01*
X113686928Y-98410000D01*
X113699188Y-98534482D01*
X113735498Y-98654180D01*
X113794463Y-98764494D01*
X113873815Y-98861185D01*
X113970506Y-98940537D01*
X114080820Y-98999502D01*
X114200518Y-99035812D01*
X114325000Y-99048072D01*
X114816089Y-99048072D01*
X114803338Y-99071928D01*
X114325000Y-99071928D01*
X114200518Y-99084188D01*
X114080820Y-99120498D01*
X113970506Y-99179463D01*
X113873815Y-99258815D01*
X113794463Y-99355506D01*
X113746627Y-99445000D01*
X112747137Y-99445000D01*
X112703387Y-99409095D01*
X112549852Y-99327028D01*
X112383256Y-99276492D01*
X112210002Y-99259428D01*
X111309998Y-99259428D01*
X111136744Y-99276492D01*
X111050749Y-99302578D01*
X111053812Y-99292482D01*
X111066072Y-99168000D01*
X111063000Y-98941250D01*
X110904250Y-98782500D01*
X109855000Y-98782500D01*
X109855000Y-98802500D01*
X109601000Y-98802500D01*
X109601000Y-98782500D01*
X108551750Y-98782500D01*
X108393000Y-98941250D01*
X108389928Y-99168000D01*
X108402188Y-99292482D01*
X108438498Y-99412180D01*
X108497463Y-99522494D01*
X108576815Y-99619185D01*
X108606276Y-99643363D01*
X108539595Y-99724613D01*
X108457528Y-99878148D01*
X108406992Y-100044744D01*
X108389928Y-100217998D01*
X108389928Y-100743002D01*
X108406992Y-100916256D01*
X108457528Y-101082852D01*
X108539595Y-101236387D01*
X108650038Y-101370962D01*
X108784613Y-101481405D01*
X108938148Y-101563472D01*
X109104744Y-101614008D01*
X109277998Y-101631072D01*
X110178002Y-101631072D01*
X110351256Y-101614008D01*
X110517852Y-101563472D01*
X110529964Y-101556998D01*
X110489528Y-101632648D01*
X110438992Y-101799244D01*
X110421928Y-101972498D01*
X110421928Y-102497502D01*
X110438992Y-102670756D01*
X110489528Y-102837352D01*
X110571595Y-102990887D01*
X110682038Y-103125462D01*
X110816613Y-103235905D01*
X110970148Y-103317972D01*
X111136744Y-103368508D01*
X111309998Y-103385572D01*
X112210002Y-103385572D01*
X112383256Y-103368508D01*
X112549852Y-103317972D01*
X112703387Y-103235905D01*
X112780001Y-103173030D01*
X112780001Y-103461522D01*
X112775719Y-103505000D01*
X112778404Y-103532267D01*
X112775528Y-103537648D01*
X112724992Y-103704244D01*
X112707928Y-103877498D01*
X112707928Y-104402502D01*
X112724992Y-104575756D01*
X112775528Y-104742352D01*
X112857595Y-104895887D01*
X112968038Y-105030462D01*
X112994891Y-105052500D01*
X112968038Y-105074538D01*
X112857595Y-105209113D01*
X112775528Y-105362648D01*
X112724992Y-105529244D01*
X112707928Y-105702498D01*
X112707928Y-106227502D01*
X112724992Y-106400756D01*
X112775528Y-106567352D01*
X112857595Y-106720887D01*
X112968038Y-106855462D01*
X113102613Y-106965905D01*
X113161001Y-106997114D01*
X113161001Y-107691070D01*
X113156719Y-107734549D01*
X113173805Y-107908039D01*
X113224412Y-108074862D01*
X113306590Y-108228608D01*
X113389468Y-108329595D01*
X113389471Y-108329598D01*
X113417184Y-108363366D01*
X113450951Y-108391078D01*
X114112921Y-109053049D01*
X114140634Y-109086817D01*
X114174402Y-109114530D01*
X114174404Y-109114532D01*
X114245903Y-109173210D01*
X114275392Y-109197411D01*
X114429138Y-109279589D01*
X114595961Y-109330195D01*
X114725974Y-109343000D01*
X114725984Y-109343000D01*
X114769450Y-109347281D01*
X114812916Y-109343000D01*
X118574531Y-109343000D01*
X118618000Y-109347281D01*
X118661469Y-109343000D01*
X118661477Y-109343000D01*
X118791490Y-109330195D01*
X118958313Y-109279589D01*
X119112059Y-109197411D01*
X119246817Y-109086817D01*
X119274534Y-109053044D01*
X119718106Y-108609472D01*
X119743613Y-108630405D01*
X119897148Y-108712472D01*
X120063744Y-108763008D01*
X120236998Y-108780072D01*
X120762002Y-108780072D01*
X120935256Y-108763008D01*
X121101852Y-108712472D01*
X121255387Y-108630405D01*
X121336637Y-108563724D01*
X121360815Y-108593185D01*
X121457506Y-108672537D01*
X121567820Y-108731502D01*
X121687518Y-108767812D01*
X121812000Y-108780072D01*
X122038750Y-108777000D01*
X122197500Y-108618250D01*
X122197500Y-107569000D01*
X122451500Y-107569000D01*
X122451500Y-108618250D01*
X122610250Y-108777000D01*
X122837000Y-108780072D01*
X122961482Y-108767812D01*
X123081180Y-108731502D01*
X123191494Y-108672537D01*
X123288185Y-108593185D01*
X123367537Y-108496494D01*
X123426502Y-108386180D01*
X123462812Y-108266482D01*
X123475072Y-108142000D01*
X123472000Y-107727750D01*
X123313250Y-107569000D01*
X122451500Y-107569000D01*
X122197500Y-107569000D01*
X122177500Y-107569000D01*
X122177500Y-107315000D01*
X122197500Y-107315000D01*
X122197500Y-106265750D01*
X122451500Y-106265750D01*
X122451500Y-107315000D01*
X123313250Y-107315000D01*
X123472000Y-107156250D01*
X123475072Y-106742000D01*
X123462812Y-106617518D01*
X123426502Y-106497820D01*
X123367537Y-106387506D01*
X123288185Y-106290815D01*
X123191494Y-106211463D01*
X123081180Y-106152498D01*
X122961482Y-106116188D01*
X122837000Y-106103928D01*
X122610250Y-106107000D01*
X122451500Y-106265750D01*
X122197500Y-106265750D01*
X122038750Y-106107000D01*
X121812000Y-106103928D01*
X121687518Y-106116188D01*
X121567820Y-106152498D01*
X121457506Y-106211463D01*
X121360815Y-106290815D01*
X121336637Y-106320276D01*
X121255387Y-106253595D01*
X121101852Y-106171528D01*
X120935256Y-106120992D01*
X120762002Y-106103928D01*
X120236998Y-106103928D01*
X120063744Y-106120992D01*
X119897148Y-106171528D01*
X119743613Y-106253595D01*
X119609038Y-106364038D01*
X119498595Y-106498613D01*
X119476161Y-106540583D01*
X119249000Y-106313422D01*
X119249000Y-106001117D01*
X127297000Y-106001117D01*
X127297000Y-106342883D01*
X127363675Y-106678081D01*
X127494463Y-106993831D01*
X127684337Y-107277998D01*
X127926002Y-107519663D01*
X128210169Y-107709537D01*
X128525919Y-107840325D01*
X128861117Y-107907000D01*
X129202883Y-107907000D01*
X129538081Y-107840325D01*
X129853831Y-107709537D01*
X130137998Y-107519663D01*
X130379663Y-107277998D01*
X130569537Y-106993831D01*
X130700325Y-106678081D01*
X130767000Y-106342883D01*
X130767000Y-106001117D01*
X130700325Y-105665919D01*
X130569537Y-105350169D01*
X130379663Y-105066002D01*
X130137998Y-104824337D01*
X129853831Y-104634463D01*
X129538081Y-104503675D01*
X129202883Y-104437000D01*
X128861117Y-104437000D01*
X128525919Y-104503675D01*
X128210169Y-104634463D01*
X127926002Y-104824337D01*
X127684337Y-105066002D01*
X127494463Y-105350169D01*
X127363675Y-105665919D01*
X127297000Y-106001117D01*
X119249000Y-106001117D01*
X119249000Y-105112523D01*
X119240380Y-105025000D01*
X119596565Y-105025000D01*
X119633528Y-105146852D01*
X119715595Y-105300387D01*
X119826038Y-105434962D01*
X119960613Y-105545405D01*
X120114148Y-105627472D01*
X120280744Y-105678008D01*
X120453998Y-105695072D01*
X121354002Y-105695072D01*
X121527256Y-105678008D01*
X121693852Y-105627472D01*
X121847387Y-105545405D01*
X121981962Y-105434962D01*
X121986445Y-105429500D01*
X122107031Y-105429500D01*
X122150500Y-105433781D01*
X122193969Y-105429500D01*
X122193977Y-105429500D01*
X122323990Y-105416695D01*
X122490813Y-105366089D01*
X122644559Y-105283911D01*
X122779317Y-105173317D01*
X122807034Y-105139544D01*
X127398507Y-100548072D01*
X128485000Y-100548072D01*
X128609482Y-100535812D01*
X128729180Y-100499502D01*
X128839494Y-100440537D01*
X128936185Y-100361185D01*
X129015537Y-100264494D01*
X129074502Y-100154180D01*
X129110812Y-100034482D01*
X129123072Y-99910000D01*
X129123072Y-98210000D01*
X129110812Y-98085518D01*
X129074502Y-97965820D01*
X129015537Y-97855506D01*
X128936185Y-97758815D01*
X128839494Y-97679463D01*
X128729180Y-97620498D01*
X128648534Y-97596034D01*
X128732588Y-97520269D01*
X128906641Y-97286920D01*
X129031825Y-97024099D01*
X129076476Y-96876890D01*
X128955155Y-96647000D01*
X127762000Y-96647000D01*
X127762000Y-96667000D01*
X127508000Y-96667000D01*
X127508000Y-96647000D01*
X126314845Y-96647000D01*
X126193524Y-96876890D01*
X126238175Y-97024099D01*
X126363359Y-97286920D01*
X126537412Y-97520269D01*
X126621466Y-97596034D01*
X126540820Y-97620498D01*
X126430506Y-97679463D01*
X126333815Y-97758815D01*
X126254463Y-97855506D01*
X126195498Y-97965820D01*
X126159188Y-98085518D01*
X126146928Y-98210000D01*
X126146928Y-99296493D01*
X122197507Y-103245915D01*
X122225008Y-103155256D01*
X122242072Y-102982002D01*
X122242072Y-102456998D01*
X122225008Y-102283744D01*
X122174472Y-102117148D01*
X122092405Y-101963613D01*
X121981962Y-101829038D01*
X121847387Y-101718595D01*
X121789000Y-101687386D01*
X121789000Y-101616114D01*
X121847387Y-101584905D01*
X121981962Y-101474462D01*
X122092405Y-101339887D01*
X122174472Y-101186352D01*
X122225008Y-101019756D01*
X122242072Y-100846502D01*
X122242072Y-100321498D01*
X122225008Y-100148244D01*
X122174472Y-99981648D01*
X122092405Y-99828113D01*
X121981962Y-99693538D01*
X121955109Y-99671500D01*
X121981962Y-99649462D01*
X122092405Y-99514887D01*
X122174472Y-99361352D01*
X122225008Y-99194756D01*
X122242072Y-99021502D01*
X122242072Y-98496498D01*
X122225008Y-98323244D01*
X122174472Y-98156648D01*
X122092405Y-98003113D01*
X121981962Y-97868538D01*
X121847387Y-97758095D01*
X121775000Y-97719403D01*
X121775000Y-97513469D01*
X121779281Y-97470000D01*
X121775000Y-97426531D01*
X121775000Y-97426523D01*
X121762195Y-97296510D01*
X121724217Y-97171315D01*
X121711589Y-97129686D01*
X121629411Y-96975941D01*
X121546532Y-96874953D01*
X121546530Y-96874951D01*
X121518817Y-96841183D01*
X121485050Y-96813471D01*
X120907536Y-96235958D01*
X120879819Y-96202185D01*
X120832207Y-96163110D01*
X126193524Y-96163110D01*
X126314845Y-96393000D01*
X127508000Y-96393000D01*
X127508000Y-95199186D01*
X127762000Y-95199186D01*
X127762000Y-96393000D01*
X128955155Y-96393000D01*
X129076476Y-96163110D01*
X129031825Y-96015901D01*
X128906641Y-95753080D01*
X128732588Y-95519731D01*
X128516355Y-95324822D01*
X128266252Y-95175843D01*
X127991891Y-95078519D01*
X127762000Y-95199186D01*
X127508000Y-95199186D01*
X127278109Y-95078519D01*
X127003748Y-95175843D01*
X126753645Y-95324822D01*
X126537412Y-95519731D01*
X126363359Y-95753080D01*
X126238175Y-96015901D01*
X126193524Y-96163110D01*
X120832207Y-96163110D01*
X120745061Y-96091591D01*
X120715998Y-96076057D01*
X120715998Y-93840000D01*
X121826928Y-93840000D01*
X121839188Y-93964482D01*
X121875498Y-94084180D01*
X121934463Y-94194494D01*
X122013815Y-94291185D01*
X122110506Y-94370537D01*
X122220820Y-94429502D01*
X122340518Y-94465812D01*
X122465000Y-94478072D01*
X122904250Y-94475000D01*
X123063000Y-94316250D01*
X123063000Y-93467000D01*
X123317000Y-93467000D01*
X123317000Y-94316250D01*
X123475750Y-94475000D01*
X123915000Y-94478072D01*
X124039482Y-94465812D01*
X124159180Y-94429502D01*
X124269494Y-94370537D01*
X124366185Y-94291185D01*
X124445537Y-94194494D01*
X124460000Y-94167436D01*
X124474463Y-94194494D01*
X124553815Y-94291185D01*
X124650506Y-94370537D01*
X124760820Y-94429502D01*
X124880518Y-94465812D01*
X125005000Y-94478072D01*
X125444250Y-94475000D01*
X125603000Y-94316250D01*
X125603000Y-93467000D01*
X125857000Y-93467000D01*
X125857000Y-94316250D01*
X126015750Y-94475000D01*
X126455000Y-94478072D01*
X126579482Y-94465812D01*
X126699180Y-94429502D01*
X126809494Y-94370537D01*
X126906185Y-94291185D01*
X126985537Y-94194494D01*
X127044502Y-94084180D01*
X127080812Y-93964482D01*
X127093072Y-93840000D01*
X127090000Y-93625750D01*
X126931250Y-93467000D01*
X125857000Y-93467000D01*
X125603000Y-93467000D01*
X124528750Y-93467000D01*
X124460000Y-93535750D01*
X124391250Y-93467000D01*
X123317000Y-93467000D01*
X123063000Y-93467000D01*
X121988750Y-93467000D01*
X121830000Y-93625750D01*
X121826928Y-93840000D01*
X120715998Y-93840000D01*
X120715998Y-92325000D01*
X122091574Y-92325000D01*
X122013815Y-92388815D01*
X121934463Y-92485506D01*
X121875498Y-92595820D01*
X121839188Y-92715518D01*
X121826928Y-92840000D01*
X121830000Y-93054250D01*
X121988750Y-93213000D01*
X123063000Y-93213000D01*
X123063000Y-93193000D01*
X123317000Y-93193000D01*
X123317000Y-93213000D01*
X124391250Y-93213000D01*
X124460000Y-93144250D01*
X124528750Y-93213000D01*
X125603000Y-93213000D01*
X125603000Y-93193000D01*
X125857000Y-93193000D01*
X125857000Y-93213000D01*
X126931250Y-93213000D01*
X127090000Y-93054250D01*
X127093072Y-92840000D01*
X127080812Y-92715518D01*
X127044502Y-92595820D01*
X126985537Y-92485506D01*
X126906185Y-92388815D01*
X126826406Y-92323342D01*
X126832962Y-92317962D01*
X126943405Y-92183386D01*
X127025472Y-92029850D01*
X127076008Y-91863254D01*
X127093072Y-91690000D01*
X127093072Y-91190000D01*
X127076008Y-91016746D01*
X127025472Y-90850150D01*
X126943405Y-90696614D01*
X126832962Y-90562038D01*
X126698386Y-90451595D01*
X126544850Y-90369528D01*
X126378254Y-90318992D01*
X126295000Y-90310792D01*
X126295000Y-89994386D01*
X126398405Y-89868386D01*
X126480472Y-89714850D01*
X126531008Y-89548254D01*
X126548072Y-89375000D01*
X126548072Y-88425000D01*
X126531008Y-88251746D01*
X126480472Y-88085150D01*
X126398405Y-87931614D01*
X126287962Y-87797038D01*
X126153386Y-87686595D01*
X125999850Y-87604528D01*
X125833254Y-87553992D01*
X125660000Y-87536928D01*
X125160000Y-87536928D01*
X124986746Y-87553992D01*
X124820150Y-87604528D01*
X124666614Y-87686595D01*
X124532038Y-87797038D01*
X124460000Y-87884817D01*
X124387962Y-87797038D01*
X124253386Y-87686595D01*
X124099850Y-87604528D01*
X123933254Y-87553992D01*
X123760000Y-87536928D01*
X123260000Y-87536928D01*
X123086746Y-87553992D01*
X122920150Y-87604528D01*
X122766614Y-87686595D01*
X122632038Y-87797038D01*
X122521595Y-87931614D01*
X122443796Y-88077164D01*
X122439687Y-88078411D01*
X122285941Y-88160589D01*
X122285939Y-88160590D01*
X122285940Y-88160590D01*
X122184953Y-88243468D01*
X122184951Y-88243470D01*
X122151183Y-88271183D01*
X122123470Y-88304951D01*
X121637793Y-88790629D01*
X121635812Y-88770518D01*
X121599502Y-88650820D01*
X121540537Y-88540506D01*
X121465000Y-88448464D01*
X121465000Y-86866191D01*
X121468072Y-86835000D01*
X121468072Y-85885000D01*
X121451008Y-85711746D01*
X121400472Y-85545150D01*
X121318405Y-85391614D01*
X121207962Y-85257038D01*
X121073386Y-85146595D01*
X120919850Y-85064528D01*
X120753254Y-85013992D01*
X120580000Y-84996928D01*
X120080000Y-84996928D01*
X119906746Y-85013992D01*
X119740150Y-85064528D01*
X119586614Y-85146595D01*
X119452038Y-85257038D01*
X119380000Y-85344817D01*
X119307962Y-85257038D01*
X119245000Y-85205367D01*
X119245000Y-84283461D01*
X119298405Y-84218387D01*
X119380472Y-84064852D01*
X119431008Y-83898256D01*
X119448072Y-83725002D01*
X119448072Y-83199998D01*
X119431008Y-83026744D01*
X119380472Y-82860148D01*
X119298405Y-82706613D01*
X119187962Y-82572038D01*
X119161109Y-82550000D01*
X119187962Y-82527962D01*
X119298405Y-82393387D01*
X119380472Y-82239852D01*
X119431008Y-82073256D01*
X119448072Y-81900002D01*
X119448072Y-81374998D01*
X119431008Y-81201744D01*
X119380472Y-81035148D01*
X119298405Y-80881613D01*
X119245000Y-80816539D01*
X119245000Y-77865000D01*
X119421928Y-77865000D01*
X119434188Y-77989482D01*
X119470498Y-78109180D01*
X119529463Y-78219494D01*
X119608815Y-78316185D01*
X119705506Y-78395537D01*
X119815820Y-78454502D01*
X119935518Y-78490812D01*
X120060000Y-78503072D01*
X120649250Y-78500000D01*
X120808000Y-78341250D01*
X120808000Y-75892000D01*
X121062000Y-75892000D01*
X121062000Y-78341250D01*
X121220750Y-78500000D01*
X121810000Y-78503072D01*
X121934482Y-78490812D01*
X122054180Y-78454502D01*
X122164494Y-78395537D01*
X122261185Y-78316185D01*
X122340537Y-78219494D01*
X122399502Y-78109180D01*
X122435812Y-77989482D01*
X122448072Y-77865000D01*
X122446039Y-76664117D01*
X127170000Y-76664117D01*
X127170000Y-77005883D01*
X127236675Y-77341081D01*
X127367463Y-77656831D01*
X127557337Y-77940998D01*
X127799002Y-78182663D01*
X128083169Y-78372537D01*
X128398919Y-78503325D01*
X128734117Y-78570000D01*
X129075883Y-78570000D01*
X129411081Y-78503325D01*
X129726831Y-78372537D01*
X130010998Y-78182663D01*
X130252663Y-77940998D01*
X130442537Y-77656831D01*
X130573325Y-77341081D01*
X130640000Y-77005883D01*
X130640000Y-76664117D01*
X130573325Y-76328919D01*
X130442537Y-76013169D01*
X130252663Y-75729002D01*
X130010998Y-75487337D01*
X129726831Y-75297463D01*
X129411081Y-75166675D01*
X129075883Y-75100000D01*
X128734117Y-75100000D01*
X128398919Y-75166675D01*
X128083169Y-75297463D01*
X127799002Y-75487337D01*
X127557337Y-75729002D01*
X127367463Y-76013169D01*
X127236675Y-76328919D01*
X127170000Y-76664117D01*
X122446039Y-76664117D01*
X122445000Y-76050750D01*
X122286250Y-75892000D01*
X121062000Y-75892000D01*
X120808000Y-75892000D01*
X119583750Y-75892000D01*
X119425000Y-76050750D01*
X119421928Y-77865000D01*
X119245000Y-77865000D01*
X119245000Y-77756704D01*
X119275537Y-77719494D01*
X119334502Y-77609180D01*
X119370812Y-77489482D01*
X119383072Y-77365000D01*
X119383072Y-74320000D01*
X119423037Y-74320000D01*
X119425000Y-75479250D01*
X119583750Y-75638000D01*
X120808000Y-75638000D01*
X120808000Y-75618000D01*
X121062000Y-75618000D01*
X121062000Y-75638000D01*
X122286250Y-75638000D01*
X122445000Y-75479250D01*
X122446963Y-74320000D01*
X131420001Y-74320000D01*
X131420000Y-111735000D01*
X107340000Y-111735000D01*
X107340000Y-106509117D01*
X108120000Y-106509117D01*
X108120000Y-106850883D01*
X108186675Y-107186081D01*
X108317463Y-107501831D01*
X108507337Y-107785998D01*
X108749002Y-108027663D01*
X109033169Y-108217537D01*
X109348919Y-108348325D01*
X109684117Y-108415000D01*
X110025883Y-108415000D01*
X110361081Y-108348325D01*
X110676831Y-108217537D01*
X110960998Y-108027663D01*
X111202663Y-107785998D01*
X111392537Y-107501831D01*
X111523325Y-107186081D01*
X111590000Y-106850883D01*
X111590000Y-106509117D01*
X111523325Y-106173919D01*
X111392537Y-105858169D01*
X111202663Y-105574002D01*
X110960998Y-105332337D01*
X110676831Y-105142463D01*
X110361081Y-105011675D01*
X110025883Y-104945000D01*
X109684117Y-104945000D01*
X109348919Y-105011675D01*
X109033169Y-105142463D01*
X108749002Y-105332337D01*
X108507337Y-105574002D01*
X108317463Y-105858169D01*
X108186675Y-106173919D01*
X108120000Y-106509117D01*
X107340000Y-106509117D01*
X107340000Y-98143000D01*
X108389928Y-98143000D01*
X108393000Y-98369750D01*
X108551750Y-98528500D01*
X109601000Y-98528500D01*
X109601000Y-97666750D01*
X109855000Y-97666750D01*
X109855000Y-98528500D01*
X110904250Y-98528500D01*
X111063000Y-98369750D01*
X111066072Y-98143000D01*
X111053812Y-98018518D01*
X111017502Y-97898820D01*
X110958537Y-97788506D01*
X110879185Y-97691815D01*
X110782494Y-97612463D01*
X110672180Y-97553498D01*
X110552482Y-97517188D01*
X110428000Y-97504928D01*
X110013750Y-97508000D01*
X109855000Y-97666750D01*
X109601000Y-97666750D01*
X109442250Y-97508000D01*
X109028000Y-97504928D01*
X108903518Y-97517188D01*
X108783820Y-97553498D01*
X108673506Y-97612463D01*
X108576815Y-97691815D01*
X108497463Y-97788506D01*
X108438498Y-97898820D01*
X108402188Y-98018518D01*
X108389928Y-98143000D01*
X107340000Y-98143000D01*
X107340000Y-92563740D01*
X109513000Y-92563740D01*
X109513000Y-92856260D01*
X109570068Y-93143158D01*
X109682010Y-93413411D01*
X109844525Y-93656632D01*
X110051368Y-93863475D01*
X110294589Y-94025990D01*
X110564842Y-94137932D01*
X110851740Y-94195000D01*
X111144260Y-94195000D01*
X111431158Y-94137932D01*
X111701411Y-94025990D01*
X111944632Y-93863475D01*
X112151475Y-93656632D01*
X112313990Y-93413411D01*
X112425932Y-93143158D01*
X112483000Y-92856260D01*
X112483000Y-92563740D01*
X112425932Y-92276842D01*
X112313990Y-92006589D01*
X112151475Y-91763368D01*
X111944632Y-91556525D01*
X111762466Y-91434805D01*
X111879355Y-91365178D01*
X112095588Y-91170269D01*
X112269641Y-90936920D01*
X112394825Y-90674099D01*
X112439476Y-90526890D01*
X112318155Y-90297000D01*
X111125000Y-90297000D01*
X111125000Y-90317000D01*
X110871000Y-90317000D01*
X110871000Y-90297000D01*
X109677845Y-90297000D01*
X109556524Y-90526890D01*
X109601175Y-90674099D01*
X109726359Y-90936920D01*
X109900412Y-91170269D01*
X110116645Y-91365178D01*
X110233534Y-91434805D01*
X110051368Y-91556525D01*
X109844525Y-91763368D01*
X109682010Y-92006589D01*
X109570068Y-92276842D01*
X109513000Y-92563740D01*
X107340000Y-92563740D01*
X107340000Y-76664117D01*
X108120000Y-76664117D01*
X108120000Y-77005883D01*
X108186675Y-77341081D01*
X108317463Y-77656831D01*
X108507337Y-77940998D01*
X108749002Y-78182663D01*
X109033169Y-78372537D01*
X109348919Y-78503325D01*
X109684117Y-78570000D01*
X110025883Y-78570000D01*
X110361081Y-78503325D01*
X110676831Y-78372537D01*
X110960998Y-78182663D01*
X111202663Y-77940998D01*
X111253443Y-77865000D01*
X113771928Y-77865000D01*
X113784188Y-77989482D01*
X113820498Y-78109180D01*
X113879463Y-78219494D01*
X113958815Y-78316185D01*
X114055506Y-78395537D01*
X114165820Y-78454502D01*
X114285518Y-78490812D01*
X114410000Y-78503072D01*
X114999250Y-78500000D01*
X115158000Y-78341250D01*
X115158000Y-75892000D01*
X115412000Y-75892000D01*
X115412000Y-78341250D01*
X115570750Y-78500000D01*
X116160000Y-78503072D01*
X116284482Y-78490812D01*
X116404180Y-78454502D01*
X116514494Y-78395537D01*
X116611185Y-78316185D01*
X116690537Y-78219494D01*
X116749502Y-78109180D01*
X116785812Y-77989482D01*
X116798072Y-77865000D01*
X116795000Y-76050750D01*
X116636250Y-75892000D01*
X115412000Y-75892000D01*
X115158000Y-75892000D01*
X113933750Y-75892000D01*
X113775000Y-76050750D01*
X113771928Y-77865000D01*
X111253443Y-77865000D01*
X111392537Y-77656831D01*
X111523325Y-77341081D01*
X111590000Y-77005883D01*
X111590000Y-76664117D01*
X111523325Y-76328919D01*
X111392537Y-76013169D01*
X111202663Y-75729002D01*
X110960998Y-75487337D01*
X110676831Y-75297463D01*
X110361081Y-75166675D01*
X110025883Y-75100000D01*
X109684117Y-75100000D01*
X109348919Y-75166675D01*
X109033169Y-75297463D01*
X108749002Y-75487337D01*
X108507337Y-75729002D01*
X108317463Y-76013169D01*
X108186675Y-76328919D01*
X108120000Y-76664117D01*
X107340000Y-76664117D01*
X107340000Y-74320000D01*
X113773037Y-74320000D01*
X113775000Y-75479250D01*
G37*
%TD.AperFunction*%
D21*
X118945999Y-95918095D02*
X118854256Y-95856795D01*
X118665898Y-95778774D01*
X118465939Y-95739000D01*
X118262061Y-95739000D01*
X118062102Y-95778774D01*
X117873744Y-95856795D01*
X117861466Y-95864999D01*
X117657303Y-95864999D01*
X117655000Y-95535750D01*
X117496250Y-95377000D01*
X116647000Y-95377000D01*
X116647000Y-95397000D01*
X116393000Y-95397000D01*
X116393000Y-95377000D01*
X116373000Y-95377000D01*
X116373000Y-95123000D01*
X116393000Y-95123000D01*
X116393000Y-95103000D01*
X116647000Y-95103000D01*
X116647000Y-95123000D01*
X117496250Y-95123000D01*
X117655000Y-94964250D01*
X117658072Y-94525000D01*
X117645812Y-94400518D01*
X117609502Y-94280820D01*
X117550537Y-94170506D01*
X117471185Y-94073815D01*
X117374494Y-93994463D01*
X117264180Y-93935498D01*
X117203454Y-93917077D01*
X117238387Y-93898405D01*
X117372962Y-93787962D01*
X117483405Y-93653387D01*
X117565472Y-93499852D01*
X117616008Y-93333256D01*
X117632143Y-93169435D01*
X118718507Y-92083072D01*
X118810000Y-92083072D01*
X118934482Y-92070812D01*
X118945998Y-92067319D01*
X118945999Y-95918095D01*
%TA.AperFunction,Conductor*%
D22*
G36*
X118945999Y-95918095D02*
G01*
X118854256Y-95856795D01*
X118665898Y-95778774D01*
X118465939Y-95739000D01*
X118262061Y-95739000D01*
X118062102Y-95778774D01*
X117873744Y-95856795D01*
X117861466Y-95864999D01*
X117657303Y-95864999D01*
X117655000Y-95535750D01*
X117496250Y-95377000D01*
X116647000Y-95377000D01*
X116647000Y-95397000D01*
X116393000Y-95397000D01*
X116393000Y-95377000D01*
X116373000Y-95377000D01*
X116373000Y-95123000D01*
X116393000Y-95123000D01*
X116393000Y-95103000D01*
X116647000Y-95103000D01*
X116647000Y-95123000D01*
X117496250Y-95123000D01*
X117655000Y-94964250D01*
X117658072Y-94525000D01*
X117645812Y-94400518D01*
X117609502Y-94280820D01*
X117550537Y-94170506D01*
X117471185Y-94073815D01*
X117374494Y-93994463D01*
X117264180Y-93935498D01*
X117203454Y-93917077D01*
X117238387Y-93898405D01*
X117372962Y-93787962D01*
X117483405Y-93653387D01*
X117565472Y-93499852D01*
X117616008Y-93333256D01*
X117632143Y-93169435D01*
X118718507Y-92083072D01*
X118810000Y-92083072D01*
X118934482Y-92070812D01*
X118945998Y-92067319D01*
X118945999Y-95918095D01*
G37*
%TD.AperFunction*%
%TD*%
M02*
