M48
; DRILL file {KiCad (5.1.9)-1} date 03/18/21 19:40:30
; FORMAT={-:-/ absolute / inch / decimal}
; #@! TF.CreationDate,2021-03-18T19:40:30-04:00
; #@! TF.GenerationSoftware,Kicad,Pcbnew,(5.1.9)-1
; #@! TF.FileFunction,Plated,1,2,PTH
FMAT,2
INCH
T1C0.0157
T2C0.0394
%
G90
G05
T1
X4.2742Y-3.1289
X4.2742Y-3.2864
X4.2742Y-3.4438
X4.2742Y-3.6013
X4.2742Y-3.7588
X4.2742Y-4.0344
X4.2742Y-4.31
X4.3529Y-3.2076
X4.3923Y-3.3257
X4.3923Y-3.7982
X4.3923Y-4.3494
X4.4317Y-2.9714
X4.4317Y-3.1289
X4.4317Y-4.2312
X4.4711Y-3.247
X4.4711Y-3.5226
X4.5104Y-3.3651
X4.5104Y-4.31
X4.5498Y-3.1683
X4.59Y-4.21
X4.6285Y-4.3494
X4.655Y-3.68
X4.66Y-3.81
X4.7073Y-3.1289
X4.7466Y-3.247
X4.7466Y-4.31
X4.786Y-3.7588
X4.8254Y-3.1683
X4.8254Y-3.3257
X4.8648Y-2.9714
X4.8648Y-4.1525
X4.8648Y-4.3494
X4.9041Y-3.0895
X4.9041Y-3.247
X4.9041Y-3.4045
X4.9041Y-3.7982
X4.9435Y-4.0738
X4.9435Y-4.2312
X4.9829Y-3.1683
X4.9829Y-3.3257
X5.0222Y-3.4438
X5.0222Y-3.6013
X5.0222Y-3.995
X5.0222Y-4.31
X5.0616Y-3.247
X5.0616Y-3.7194
X5.101Y-3.1289
X5.101Y-3.3651
X5.101Y-3.5226
X5.101Y-4.0738
T2
X4.37Y-3.45
X4.37Y-3.55
X4.37Y-3.65
X5.025Y-3.8
X5.025Y-3.9
T0
M30
