M48
; DRILL file {KiCad (5.1.9)-1} date 03/17/21 18:43:57
; FORMAT={-:-/ absolute / inch / decimal}
; #@! TF.CreationDate,2021-03-17T18:43:57-04:00
; #@! TF.GenerationSoftware,Kicad,Pcbnew,(5.1.9)-1
; #@! TF.FileFunction,Plated,1,2,PTH
FMAT,2
INCH
T1C0.0157
T2C0.0394
%
G90
G05
T1
X2.7964Y-2.6533
X2.7964Y-2.9289
X2.7964Y-3.2045
X2.9539Y-2.7715
X2.9539Y-3.047
X2.9539Y-3.3226
X2.9539Y-3.9132
X3.0326Y-4.11
X3.1114Y-2.3778
X3.1114Y-2.6533
X3.1114Y-2.9289
X3.1114Y-3.2045
X3.1114Y-3.7557
X3.1901Y-3.9526
X3.1901Y-4.2281
X3.2295Y-3.362
X3.2688Y-2.4959
X3.2688Y-2.7715
X3.2688Y-3.047
X3.2688Y-3.6376
X3.3476Y-3.8344
X3.3476Y-4.11
X3.387Y-3.2045
X3.387Y-3.4801
X3.4263Y-2.3778
X3.4263Y-2.6533
X3.4263Y-2.9289
X3.5051Y-3.7163
X3.5051Y-3.9919
X3.5444Y-3.0864
X3.5444Y-3.362
X3.5444Y-4.2281
X3.5838Y-2.4959
X3.5838Y-2.7715
X3.6625Y-3.8344
X3.7019Y-2.9289
X3.7019Y-3.2045
X3.7019Y-3.4801
X3.7019Y-4.0707
X3.7413Y-2.3778
X3.7413Y-2.6533
X3.82Y-4.2281
X3.8594Y-2.8108
X3.8594Y-3.0864
X3.8594Y-3.362
X3.8594Y-3.7557
X3.8988Y-2.4959
X3.8988Y-3.9919
X4.0169Y-2.6533
X4.0169Y-2.9289
X4.0169Y-3.2045
X4.0169Y-3.6376
X4.0169Y-4.1494
X4.0562Y-2.3778
X4.0562Y-3.8738
X4.0956Y-3.4014
X4.1744Y-2.5352
X4.1744Y-2.8108
X4.1744Y-3.0864
X4.1744Y-4.0313
X4.2531Y-3.2833
X4.2531Y-4.2281
X4.2925Y-3.8344
X4.3318Y-2.3778
X4.3318Y-2.6533
X4.3318Y-2.9289
X4.4106Y-3.1258
X4.4106Y-3.4014
X4.4499Y-3.6376
X4.4499Y-3.9526
X4.4893Y-4.1888
X4.5681Y-2.4171
X4.5681Y-2.9683
X4.5681Y-3.2833
X4.6074Y-2.6533
X4.6074Y-3.7557
X4.64Y-3.49
X4.6468Y-4.0313
X4.6862Y-3.1258
X4.7255Y-2.8108
X4.7255Y-4.2281
X4.7649Y-2.4959
X4.7649Y-3.8738
X4.8436Y-2.9683
X4.8436Y-3.4014
X4.8436Y-3.677
X4.85Y-3.48
X4.883Y-2.6533
X4.883Y-4.0707
X4.9224Y-2.3778
X4.9224Y-3.1652
X5.0011Y-2.8108
X5.0011Y-3.5589
X5.0011Y-3.8344
X5.0011Y-4.2281
X5.0405Y-2.5352
X5.0405Y-3.3226
X5.0799Y-3.0077
X5.1192Y-3.9919
X5.1586Y-2.6927
X5.1586Y-3.677
X5.198Y-2.3778
X5.198Y-3.1652
X5.2373Y-2.8896
X5.2373Y-3.4014
X5.2373Y-4.1494
X5.2767Y-3.8344
X5.3161Y-2.5352
X5.3555Y-3.047
X5.3948Y-2.7321
X5.3948Y-3.9919
X5.4342Y-3.3226
X5.4342Y-3.7163
X5.4342Y-4.2281
X5.4736Y-2.3778
X5.5129Y-2.8896
X5.5523Y-2.5746
X5.5523Y-3.1258
X5.5523Y-3.8738
X5.58Y-3.56
X5.5917Y-4.11
X5.631Y-3.4014
X5.6704Y-2.7321
X5.7098Y-2.4171
X5.7098Y-2.9683
X5.7098Y-3.7557
X5.7492Y-3.2045
X5.7492Y-3.9919
X5.7885Y-4.2281
X5.8279Y-2.5746
X5.8673Y-2.8108
X5.8673Y-3.362
X5.8673Y-3.6376
X5.9066Y-3.047
X5.9066Y-3.8738
X5.946Y-2.3778
X5.946Y-4.11
X6.0247Y-2.6533
X6.0247Y-3.2045
X6.0247Y-3.4801
X6.0641Y-2.8896
X6.0641Y-3.7163
X6.1035Y-3.9526
X6.1822Y-3.047
X6.1822Y-3.3226
X6.2216Y-2.7321
X6.261Y-3.7951
X6.3003Y-3.4801
T2
X4.436Y-4.052
X4.536Y-4.052
X4.5386Y-2.5208
X4.6386Y-2.5208
X6.1795Y-3.4575
X6.1795Y-3.5575
T0
M30
