%TF.GenerationSoftware,KiCad,Pcbnew,(5.1.9)-1*%
%TF.CreationDate,2021-03-17T18:43:56-04:00*%
%TF.ProjectId,NJR_New_Demod,4e4a525f-4e65-4775-9f44-656d6f642e6b,rev?*%
%TF.SameCoordinates,Original*%
%TF.FileFunction,Copper,L1,Top*%
%TF.FilePolarity,Positive*%
%FSLAX46Y46*%
G04 Gerber Fmt 4.6, Leading zero omitted, Abs format (unit mm)*
G04 Created by KiCad (PCBNEW (5.1.9)-1) date 2021-03-17 18:43:56*
%MOMM*%
%LPD*%
G01*
G04 APERTURE LIST*
%TA.AperFunction,SMDPad,CuDef*%
%ADD10R,1.050000X0.800000*%
%TD*%
%TA.AperFunction,SMDPad,CuDef*%
%ADD11R,4.200000X1.750000*%
%TD*%
%TA.AperFunction,SMDPad,CuDef*%
%ADD12R,3.600000X1.270000*%
%TD*%
%TA.AperFunction,ComponentPad*%
%ADD13O,1.700000X1.700000*%
%TD*%
%TA.AperFunction,ComponentPad*%
%ADD14R,1.700000X1.700000*%
%TD*%
%TA.AperFunction,SMDPad,CuDef*%
%ADD15R,1.400000X0.300000*%
%TD*%
%TA.AperFunction,SMDPad,CuDef*%
%ADD16R,1.060000X0.650000*%
%TD*%
%TA.AperFunction,ViaPad*%
%ADD17C,0.800000*%
%TD*%
%TA.AperFunction,Conductor*%
%ADD18C,0.250000*%
%TD*%
%TA.AperFunction,Conductor*%
%ADD19C,1.000000*%
%TD*%
%TA.AperFunction,Conductor*%
%ADD20C,0.500000*%
%TD*%
%TA.AperFunction,Conductor*%
%ADD21C,0.254000*%
%TD*%
%TA.AperFunction,Conductor*%
%ADD22C,0.100000*%
%TD*%
G04 APERTURE END LIST*
D10*
%TO.P,U1,6*%
%TO.N,/IF_In*%
X96625000Y-90548000D03*
%TO.P,U1,5*%
%TO.N,GND*%
X96625000Y-91948000D03*
%TO.P,U1,4*%
%TO.N,Net-(U1-Pad4)*%
X96625000Y-93348000D03*
%TO.P,U1,3*%
%TO.N,Net-(U1-Pad3)*%
X94175000Y-93348000D03*
%TO.P,U1,2*%
%TO.N,GND*%
X94175000Y-91948000D03*
%TO.P,U1,1*%
%TO.N,Net-(CMatch1-Pad1)*%
X94175000Y-90548000D03*
%TD*%
D11*
%TO.P,J1,3_1*%
%TO.N,GND*%
X71320000Y-92893400D03*
%TO.P,J1,2_1*%
X71320000Y-87243400D03*
D12*
%TO.P,J1,1*%
%TO.N,Net-(CDC1-Pad2)*%
X71120000Y-90068400D03*
%TD*%
%TO.P,CDC1,2*%
%TO.N,Net-(CDC1-Pad2)*%
%TA.AperFunction,SMDPad,CuDef*%
G36*
G01*
X78290000Y-89644200D02*
X78290000Y-90594200D01*
G75*
G02*
X78040000Y-90844200I-250000J0D01*
G01*
X77540000Y-90844200D01*
G75*
G02*
X77290000Y-90594200I0J250000D01*
G01*
X77290000Y-89644200D01*
G75*
G02*
X77540000Y-89394200I250000J0D01*
G01*
X78040000Y-89394200D01*
G75*
G02*
X78290000Y-89644200I0J-250000D01*
G01*
G37*
%TD.AperFunction*%
%TO.P,CDC1,1*%
%TO.N,Net-(CDC1-Pad1)*%
%TA.AperFunction,SMDPad,CuDef*%
G36*
G01*
X80190000Y-89644200D02*
X80190000Y-90594200D01*
G75*
G02*
X79940000Y-90844200I-250000J0D01*
G01*
X79440000Y-90844200D01*
G75*
G02*
X79190000Y-90594200I0J250000D01*
G01*
X79190000Y-89644200D01*
G75*
G02*
X79440000Y-89394200I250000J0D01*
G01*
X79940000Y-89394200D01*
G75*
G02*
X80190000Y-89644200I0J-250000D01*
G01*
G37*
%TD.AperFunction*%
%TD*%
D13*
%TO.P,J_RSSI1,2*%
%TO.N,GND*%
X112674400Y-102920800D03*
D14*
%TO.P,J_RSSI1,1*%
%TO.N,/RSSI_Out*%
X115214400Y-102920800D03*
%TD*%
D13*
%TO.P,J_Power1,2*%
%TO.N,GND*%
X117820440Y-64028320D03*
D14*
%TO.P,J_Power1,1*%
%TO.N,+5V*%
X115280440Y-64028320D03*
%TD*%
D13*
%TO.P,J_Audio1,2*%
%TO.N,GND*%
X156959300Y-87820500D03*
D14*
%TO.P,J_Audio1,1*%
%TO.N,/Audio_Out*%
X156959300Y-90360500D03*
%TD*%
D15*
%TO.P,U2,10*%
%TO.N,/AF_Out*%
X115230000Y-90440000D03*
%TO.P,U2,9*%
%TO.N,Net-(C5-Pad1)*%
X115230000Y-90940000D03*
%TO.P,U2,8*%
%TO.N,Net-(C5-Pad2)*%
X115230000Y-91440000D03*
%TO.P,U2,7*%
%TO.N,Net-(U2-Pad7)*%
X115230000Y-91940000D03*
%TO.P,U2,6*%
%TO.N,/RSSI_Out*%
X115230000Y-92440000D03*
%TO.P,U2,5*%
%TO.N,GND*%
X110830000Y-92440000D03*
%TO.P,U2,4*%
%TO.N,Net-(C3-Pad1)*%
X110830000Y-91940000D03*
%TO.P,U2,3*%
%TO.N,Net-(C2-Pad1)*%
X110830000Y-91440000D03*
%TO.P,U2,2*%
%TO.N,Net-(C1-Pad1)*%
X110830000Y-90940000D03*
%TO.P,U2,1*%
%TO.N,+5V*%
X110830000Y-90440000D03*
%TD*%
%TO.P,C1,2*%
%TO.N,/IF_In*%
%TA.AperFunction,SMDPad,CuDef*%
G36*
G01*
X103690000Y-89949000D02*
X103690000Y-90899000D01*
G75*
G02*
X103440000Y-91149000I-250000J0D01*
G01*
X102940000Y-91149000D01*
G75*
G02*
X102690000Y-90899000I0J250000D01*
G01*
X102690000Y-89949000D01*
G75*
G02*
X102940000Y-89699000I250000J0D01*
G01*
X103440000Y-89699000D01*
G75*
G02*
X103690000Y-89949000I0J-250000D01*
G01*
G37*
%TD.AperFunction*%
%TO.P,C1,1*%
%TO.N,Net-(C1-Pad1)*%
%TA.AperFunction,SMDPad,CuDef*%
G36*
G01*
X105590000Y-89949000D02*
X105590000Y-90899000D01*
G75*
G02*
X105340000Y-91149000I-250000J0D01*
G01*
X104840000Y-91149000D01*
G75*
G02*
X104590000Y-90899000I0J250000D01*
G01*
X104590000Y-89949000D01*
G75*
G02*
X104840000Y-89699000I250000J0D01*
G01*
X105340000Y-89699000D01*
G75*
G02*
X105590000Y-89949000I0J-250000D01*
G01*
G37*
%TD.AperFunction*%
%TD*%
D16*
%TO.P,U3,5*%
%TO.N,+5V*%
X147404000Y-88458000D03*
%TO.P,U3,4*%
%TO.N,/Audio_Out*%
X147404000Y-90358000D03*
%TO.P,U3,3*%
%TO.N,Net-(Ca1-Pad1)*%
X145204000Y-90358000D03*
%TO.P,U3,2*%
%TO.N,GND*%
X145204000Y-89408000D03*
%TO.P,U3,1*%
%TO.N,Net-(Cb1-Pad1)*%
X145204000Y-88458000D03*
%TD*%
%TO.P,Rc1,2*%
%TO.N,/AF_Out*%
%TA.AperFunction,SMDPad,CuDef*%
G36*
G01*
X126092000Y-87941998D02*
X126092000Y-88842002D01*
G75*
G02*
X125842002Y-89092000I-249998J0D01*
G01*
X125316998Y-89092000D01*
G75*
G02*
X125067000Y-88842002I0J249998D01*
G01*
X125067000Y-87941998D01*
G75*
G02*
X125316998Y-87692000I249998J0D01*
G01*
X125842002Y-87692000D01*
G75*
G02*
X126092000Y-87941998I0J-249998D01*
G01*
G37*
%TD.AperFunction*%
%TO.P,Rc1,1*%
%TO.N,Net-(Cc1-Pad1)*%
%TA.AperFunction,SMDPad,CuDef*%
G36*
G01*
X127917000Y-87941998D02*
X127917000Y-88842002D01*
G75*
G02*
X127667002Y-89092000I-249998J0D01*
G01*
X127141998Y-89092000D01*
G75*
G02*
X126892000Y-88842002I0J249998D01*
G01*
X126892000Y-87941998D01*
G75*
G02*
X127141998Y-87692000I249998J0D01*
G01*
X127667002Y-87692000D01*
G75*
G02*
X127917000Y-87941998I0J-249998D01*
G01*
G37*
%TD.AperFunction*%
%TD*%
%TO.P,Rb1,2*%
%TO.N,Net-(Cc1-Pad1)*%
%TA.AperFunction,SMDPad,CuDef*%
G36*
G01*
X133458000Y-87941998D02*
X133458000Y-88842002D01*
G75*
G02*
X133208002Y-89092000I-249998J0D01*
G01*
X132682998Y-89092000D01*
G75*
G02*
X132433000Y-88842002I0J249998D01*
G01*
X132433000Y-87941998D01*
G75*
G02*
X132682998Y-87692000I249998J0D01*
G01*
X133208002Y-87692000D01*
G75*
G02*
X133458000Y-87941998I0J-249998D01*
G01*
G37*
%TD.AperFunction*%
%TO.P,Rb1,1*%
%TO.N,Net-(Ca1-Pad1)*%
%TA.AperFunction,SMDPad,CuDef*%
G36*
G01*
X135283000Y-87941998D02*
X135283000Y-88842002D01*
G75*
G02*
X135033002Y-89092000I-249998J0D01*
G01*
X134507998Y-89092000D01*
G75*
G02*
X134258000Y-88842002I0J249998D01*
G01*
X134258000Y-87941998D01*
G75*
G02*
X134507998Y-87692000I249998J0D01*
G01*
X135033002Y-87692000D01*
G75*
G02*
X135283000Y-87941998I0J-249998D01*
G01*
G37*
%TD.AperFunction*%
%TD*%
%TO.P,Ra1,2*%
%TO.N,Net-(Ca1-Pad1)*%
%TA.AperFunction,SMDPad,CuDef*%
G36*
G01*
X137522000Y-87941998D02*
X137522000Y-88842002D01*
G75*
G02*
X137272002Y-89092000I-249998J0D01*
G01*
X136746998Y-89092000D01*
G75*
G02*
X136497000Y-88842002I0J249998D01*
G01*
X136497000Y-87941998D01*
G75*
G02*
X136746998Y-87692000I249998J0D01*
G01*
X137272002Y-87692000D01*
G75*
G02*
X137522000Y-87941998I0J-249998D01*
G01*
G37*
%TD.AperFunction*%
%TO.P,Ra1,1*%
%TO.N,Net-(Cb1-Pad1)*%
%TA.AperFunction,SMDPad,CuDef*%
G36*
G01*
X139347000Y-87941998D02*
X139347000Y-88842002D01*
G75*
G02*
X139097002Y-89092000I-249998J0D01*
G01*
X138571998Y-89092000D01*
G75*
G02*
X138322000Y-88842002I0J249998D01*
G01*
X138322000Y-87941998D01*
G75*
G02*
X138571998Y-87692000I249998J0D01*
G01*
X139097002Y-87692000D01*
G75*
G02*
X139347000Y-87941998I0J-249998D01*
G01*
G37*
%TD.AperFunction*%
%TD*%
%TO.P,R2,2*%
%TO.N,Net-(C5-Pad1)*%
%TA.AperFunction,SMDPad,CuDef*%
G36*
G01*
X125787998Y-83458000D02*
X126688002Y-83458000D01*
G75*
G02*
X126938000Y-83707998I0J-249998D01*
G01*
X126938000Y-84233002D01*
G75*
G02*
X126688002Y-84483000I-249998J0D01*
G01*
X125787998Y-84483000D01*
G75*
G02*
X125538000Y-84233002I0J249998D01*
G01*
X125538000Y-83707998D01*
G75*
G02*
X125787998Y-83458000I249998J0D01*
G01*
G37*
%TD.AperFunction*%
%TO.P,R2,1*%
%TO.N,+5V*%
%TA.AperFunction,SMDPad,CuDef*%
G36*
G01*
X125787998Y-81633000D02*
X126688002Y-81633000D01*
G75*
G02*
X126938000Y-81882998I0J-249998D01*
G01*
X126938000Y-82408002D01*
G75*
G02*
X126688002Y-82658000I-249998J0D01*
G01*
X125787998Y-82658000D01*
G75*
G02*
X125538000Y-82408002I0J249998D01*
G01*
X125538000Y-81882998D01*
G75*
G02*
X125787998Y-81633000I249998J0D01*
G01*
G37*
%TD.AperFunction*%
%TD*%
%TO.P,R1,2*%
%TO.N,GND*%
%TA.AperFunction,SMDPad,CuDef*%
G36*
G01*
X101288002Y-89158500D02*
X100387998Y-89158500D01*
G75*
G02*
X100138000Y-88908502I0J249998D01*
G01*
X100138000Y-88383498D01*
G75*
G02*
X100387998Y-88133500I249998J0D01*
G01*
X101288002Y-88133500D01*
G75*
G02*
X101538000Y-88383498I0J-249998D01*
G01*
X101538000Y-88908502D01*
G75*
G02*
X101288002Y-89158500I-249998J0D01*
G01*
G37*
%TD.AperFunction*%
%TO.P,R1,1*%
%TO.N,/IF_In*%
%TA.AperFunction,SMDPad,CuDef*%
G36*
G01*
X101288002Y-90983500D02*
X100387998Y-90983500D01*
G75*
G02*
X100138000Y-90733502I0J249998D01*
G01*
X100138000Y-90208498D01*
G75*
G02*
X100387998Y-89958500I249998J0D01*
G01*
X101288002Y-89958500D01*
G75*
G02*
X101538000Y-90208498I0J-249998D01*
G01*
X101538000Y-90733502D01*
G75*
G02*
X101288002Y-90983500I-249998J0D01*
G01*
G37*
%TD.AperFunction*%
%TD*%
%TO.P,LQ1_T1,2*%
%TO.N,Net-(C5-Pad1)*%
%TA.AperFunction,SMDPad,CuDef*%
G36*
G01*
X113484997Y-84760000D02*
X116385003Y-84760000D01*
G75*
G02*
X116635000Y-85009997I0J-249997D01*
G01*
X116635000Y-85635003D01*
G75*
G02*
X116385003Y-85885000I-249997J0D01*
G01*
X113484997Y-85885000D01*
G75*
G02*
X113235000Y-85635003I0J249997D01*
G01*
X113235000Y-85009997D01*
G75*
G02*
X113484997Y-84760000I249997J0D01*
G01*
G37*
%TD.AperFunction*%
%TO.P,LQ1_T1,1*%
%TO.N,+5V*%
%TA.AperFunction,SMDPad,CuDef*%
G36*
G01*
X113484997Y-80485000D02*
X116385003Y-80485000D01*
G75*
G02*
X116635000Y-80734997I0J-249997D01*
G01*
X116635000Y-81360003D01*
G75*
G02*
X116385003Y-81610000I-249997J0D01*
G01*
X113484997Y-81610000D01*
G75*
G02*
X113235000Y-81360003I0J249997D01*
G01*
X113235000Y-80734997D01*
G75*
G02*
X113484997Y-80485000I249997J0D01*
G01*
G37*
%TD.AperFunction*%
%TD*%
%TO.P,LMatch1,2*%
%TO.N,Net-(CMatch1-Pad1)*%
%TA.AperFunction,SMDPad,CuDef*%
G36*
G01*
X86985000Y-90602050D02*
X86985000Y-89839550D01*
G75*
G02*
X87203750Y-89620800I218750J0D01*
G01*
X87641250Y-89620800D01*
G75*
G02*
X87860000Y-89839550I0J-218750D01*
G01*
X87860000Y-90602050D01*
G75*
G02*
X87641250Y-90820800I-218750J0D01*
G01*
X87203750Y-90820800D01*
G75*
G02*
X86985000Y-90602050I0J218750D01*
G01*
G37*
%TD.AperFunction*%
%TO.P,LMatch1,1*%
%TO.N,Net-(CDC1-Pad1)*%
%TA.AperFunction,SMDPad,CuDef*%
G36*
G01*
X84860000Y-90602050D02*
X84860000Y-89839550D01*
G75*
G02*
X85078750Y-89620800I218750J0D01*
G01*
X85516250Y-89620800D01*
G75*
G02*
X85735000Y-89839550I0J-218750D01*
G01*
X85735000Y-90602050D01*
G75*
G02*
X85516250Y-90820800I-218750J0D01*
G01*
X85078750Y-90820800D01*
G75*
G02*
X84860000Y-90602050I0J218750D01*
G01*
G37*
%TD.AperFunction*%
%TD*%
%TO.P,CQ1,2*%
%TO.N,Net-(C5-Pad1)*%
%TA.AperFunction,SMDPad,CuDef*%
G36*
G01*
X120810000Y-83635000D02*
X121760000Y-83635000D01*
G75*
G02*
X122010000Y-83885000I0J-250000D01*
G01*
X122010000Y-84385000D01*
G75*
G02*
X121760000Y-84635000I-250000J0D01*
G01*
X120810000Y-84635000D01*
G75*
G02*
X120560000Y-84385000I0J250000D01*
G01*
X120560000Y-83885000D01*
G75*
G02*
X120810000Y-83635000I250000J0D01*
G01*
G37*
%TD.AperFunction*%
%TO.P,CQ1,1*%
%TO.N,+5V*%
%TA.AperFunction,SMDPad,CuDef*%
G36*
G01*
X120810000Y-81735000D02*
X121760000Y-81735000D01*
G75*
G02*
X122010000Y-81985000I0J-250000D01*
G01*
X122010000Y-82485000D01*
G75*
G02*
X121760000Y-82735000I-250000J0D01*
G01*
X120810000Y-82735000D01*
G75*
G02*
X120560000Y-82485000I0J250000D01*
G01*
X120560000Y-81985000D01*
G75*
G02*
X120810000Y-81735000I250000J0D01*
G01*
G37*
%TD.AperFunction*%
%TD*%
%TO.P,CMatch1,2*%
%TO.N,GND*%
%TA.AperFunction,SMDPad,CuDef*%
G36*
G01*
X89695000Y-91890000D02*
X90645000Y-91890000D01*
G75*
G02*
X90895000Y-92140000I0J-250000D01*
G01*
X90895000Y-92640000D01*
G75*
G02*
X90645000Y-92890000I-250000J0D01*
G01*
X89695000Y-92890000D01*
G75*
G02*
X89445000Y-92640000I0J250000D01*
G01*
X89445000Y-92140000D01*
G75*
G02*
X89695000Y-91890000I250000J0D01*
G01*
G37*
%TD.AperFunction*%
%TO.P,CMatch1,1*%
%TO.N,Net-(CMatch1-Pad1)*%
%TA.AperFunction,SMDPad,CuDef*%
G36*
G01*
X89695000Y-89990000D02*
X90645000Y-89990000D01*
G75*
G02*
X90895000Y-90240000I0J-250000D01*
G01*
X90895000Y-90740000D01*
G75*
G02*
X90645000Y-90990000I-250000J0D01*
G01*
X89695000Y-90990000D01*
G75*
G02*
X89445000Y-90740000I0J250000D01*
G01*
X89445000Y-90240000D01*
G75*
G02*
X89695000Y-89990000I250000J0D01*
G01*
G37*
%TD.AperFunction*%
%TD*%
%TO.P,Cc1,2*%
%TO.N,GND*%
%TA.AperFunction,SMDPad,CuDef*%
G36*
G01*
X130081000Y-89858000D02*
X131031000Y-89858000D01*
G75*
G02*
X131281000Y-90108000I0J-250000D01*
G01*
X131281000Y-90608000D01*
G75*
G02*
X131031000Y-90858000I-250000J0D01*
G01*
X130081000Y-90858000D01*
G75*
G02*
X129831000Y-90608000I0J250000D01*
G01*
X129831000Y-90108000D01*
G75*
G02*
X130081000Y-89858000I250000J0D01*
G01*
G37*
%TD.AperFunction*%
%TO.P,Cc1,1*%
%TO.N,Net-(Cc1-Pad1)*%
%TA.AperFunction,SMDPad,CuDef*%
G36*
G01*
X130081000Y-87958000D02*
X131031000Y-87958000D01*
G75*
G02*
X131281000Y-88208000I0J-250000D01*
G01*
X131281000Y-88708000D01*
G75*
G02*
X131031000Y-88958000I-250000J0D01*
G01*
X130081000Y-88958000D01*
G75*
G02*
X129831000Y-88708000I0J250000D01*
G01*
X129831000Y-88208000D01*
G75*
G02*
X130081000Y-87958000I250000J0D01*
G01*
G37*
%TD.AperFunction*%
%TD*%
%TO.P,Cb1,2*%
%TO.N,GND*%
%TA.AperFunction,SMDPad,CuDef*%
G36*
G01*
X141699000Y-86926000D02*
X140749000Y-86926000D01*
G75*
G02*
X140499000Y-86676000I0J250000D01*
G01*
X140499000Y-86176000D01*
G75*
G02*
X140749000Y-85926000I250000J0D01*
G01*
X141699000Y-85926000D01*
G75*
G02*
X141949000Y-86176000I0J-250000D01*
G01*
X141949000Y-86676000D01*
G75*
G02*
X141699000Y-86926000I-250000J0D01*
G01*
G37*
%TD.AperFunction*%
%TO.P,Cb1,1*%
%TO.N,Net-(Cb1-Pad1)*%
%TA.AperFunction,SMDPad,CuDef*%
G36*
G01*
X141699000Y-88826000D02*
X140749000Y-88826000D01*
G75*
G02*
X140499000Y-88576000I0J250000D01*
G01*
X140499000Y-88076000D01*
G75*
G02*
X140749000Y-87826000I250000J0D01*
G01*
X141699000Y-87826000D01*
G75*
G02*
X141949000Y-88076000I0J-250000D01*
G01*
X141949000Y-88576000D01*
G75*
G02*
X141699000Y-88826000I-250000J0D01*
G01*
G37*
%TD.AperFunction*%
%TD*%
%TO.P,Ca1,2*%
%TO.N,/Audio_Out*%
%TA.AperFunction,SMDPad,CuDef*%
G36*
G01*
X147008000Y-93947000D02*
X147008000Y-92997000D01*
G75*
G02*
X147258000Y-92747000I250000J0D01*
G01*
X147758000Y-92747000D01*
G75*
G02*
X148008000Y-92997000I0J-250000D01*
G01*
X148008000Y-93947000D01*
G75*
G02*
X147758000Y-94197000I-250000J0D01*
G01*
X147258000Y-94197000D01*
G75*
G02*
X147008000Y-93947000I0J250000D01*
G01*
G37*
%TD.AperFunction*%
%TO.P,Ca1,1*%
%TO.N,Net-(Ca1-Pad1)*%
%TA.AperFunction,SMDPad,CuDef*%
G36*
G01*
X145108000Y-93947000D02*
X145108000Y-92997000D01*
G75*
G02*
X145358000Y-92747000I250000J0D01*
G01*
X145858000Y-92747000D01*
G75*
G02*
X146108000Y-92997000I0J-250000D01*
G01*
X146108000Y-93947000D01*
G75*
G02*
X145858000Y-94197000I-250000J0D01*
G01*
X145358000Y-94197000D01*
G75*
G02*
X145108000Y-93947000I0J250000D01*
G01*
G37*
%TD.AperFunction*%
%TD*%
%TO.P,C9,2*%
%TO.N,GND*%
%TA.AperFunction,SMDPad,CuDef*%
G36*
G01*
X111351000Y-70830000D02*
X111351000Y-72680000D01*
G75*
G02*
X111101000Y-72930000I-250000J0D01*
G01*
X109526000Y-72930000D01*
G75*
G02*
X109276000Y-72680000I0J250000D01*
G01*
X109276000Y-70830000D01*
G75*
G02*
X109526000Y-70580000I250000J0D01*
G01*
X111101000Y-70580000D01*
G75*
G02*
X111351000Y-70830000I0J-250000D01*
G01*
G37*
%TD.AperFunction*%
%TO.P,C9,1*%
%TO.N,+5V*%
%TA.AperFunction,SMDPad,CuDef*%
G36*
G01*
X116276000Y-70830000D02*
X116276000Y-72680000D01*
G75*
G02*
X116026000Y-72930000I-250000J0D01*
G01*
X114451000Y-72930000D01*
G75*
G02*
X114201000Y-72680000I0J250000D01*
G01*
X114201000Y-70830000D01*
G75*
G02*
X114451000Y-70580000I250000J0D01*
G01*
X116026000Y-70580000D01*
G75*
G02*
X116276000Y-70830000I0J-250000D01*
G01*
G37*
%TD.AperFunction*%
%TD*%
%TO.P,C8,2*%
%TO.N,GND*%
%TA.AperFunction,SMDPad,CuDef*%
G36*
G01*
X112961000Y-76995000D02*
X112961000Y-77945000D01*
G75*
G02*
X112711000Y-78195000I-250000J0D01*
G01*
X112211000Y-78195000D01*
G75*
G02*
X111961000Y-77945000I0J250000D01*
G01*
X111961000Y-76995000D01*
G75*
G02*
X112211000Y-76745000I250000J0D01*
G01*
X112711000Y-76745000D01*
G75*
G02*
X112961000Y-76995000I0J-250000D01*
G01*
G37*
%TD.AperFunction*%
%TO.P,C8,1*%
%TO.N,+5V*%
%TA.AperFunction,SMDPad,CuDef*%
G36*
G01*
X114861000Y-76995000D02*
X114861000Y-77945000D01*
G75*
G02*
X114611000Y-78195000I-250000J0D01*
G01*
X114111000Y-78195000D01*
G75*
G02*
X113861000Y-77945000I0J250000D01*
G01*
X113861000Y-76995000D01*
G75*
G02*
X114111000Y-76745000I250000J0D01*
G01*
X114611000Y-76745000D01*
G75*
G02*
X114861000Y-76995000I0J-250000D01*
G01*
G37*
%TD.AperFunction*%
%TD*%
%TO.P,C7,2*%
%TO.N,GND*%
%TA.AperFunction,SMDPad,CuDef*%
G36*
G01*
X108770000Y-87663000D02*
X108770000Y-88613000D01*
G75*
G02*
X108520000Y-88863000I-250000J0D01*
G01*
X108020000Y-88863000D01*
G75*
G02*
X107770000Y-88613000I0J250000D01*
G01*
X107770000Y-87663000D01*
G75*
G02*
X108020000Y-87413000I250000J0D01*
G01*
X108520000Y-87413000D01*
G75*
G02*
X108770000Y-87663000I0J-250000D01*
G01*
G37*
%TD.AperFunction*%
%TO.P,C7,1*%
%TO.N,+5V*%
%TA.AperFunction,SMDPad,CuDef*%
G36*
G01*
X110670000Y-87663000D02*
X110670000Y-88613000D01*
G75*
G02*
X110420000Y-88863000I-250000J0D01*
G01*
X109920000Y-88863000D01*
G75*
G02*
X109670000Y-88613000I0J250000D01*
G01*
X109670000Y-87663000D01*
G75*
G02*
X109920000Y-87413000I250000J0D01*
G01*
X110420000Y-87413000D01*
G75*
G02*
X110670000Y-87663000I0J-250000D01*
G01*
G37*
%TD.AperFunction*%
%TD*%
%TO.P,C5,2*%
%TO.N,Net-(C5-Pad2)*%
%TA.AperFunction,SMDPad,CuDef*%
G36*
G01*
X118864000Y-90965000D02*
X118864000Y-91915000D01*
G75*
G02*
X118614000Y-92165000I-250000J0D01*
G01*
X118114000Y-92165000D01*
G75*
G02*
X117864000Y-91915000I0J250000D01*
G01*
X117864000Y-90965000D01*
G75*
G02*
X118114000Y-90715000I250000J0D01*
G01*
X118614000Y-90715000D01*
G75*
G02*
X118864000Y-90965000I0J-250000D01*
G01*
G37*
%TD.AperFunction*%
%TO.P,C5,1*%
%TO.N,Net-(C5-Pad1)*%
%TA.AperFunction,SMDPad,CuDef*%
G36*
G01*
X120764000Y-90965000D02*
X120764000Y-91915000D01*
G75*
G02*
X120514000Y-92165000I-250000J0D01*
G01*
X120014000Y-92165000D01*
G75*
G02*
X119764000Y-91915000I0J250000D01*
G01*
X119764000Y-90965000D01*
G75*
G02*
X120014000Y-90715000I250000J0D01*
G01*
X120514000Y-90715000D01*
G75*
G02*
X120764000Y-90965000I0J-250000D01*
G01*
G37*
%TD.AperFunction*%
%TD*%
%TO.P,C4,2*%
%TO.N,/RSSI_Out*%
%TA.AperFunction,SMDPad,CuDef*%
G36*
G01*
X114755000Y-96995000D02*
X114755000Y-96045000D01*
G75*
G02*
X115005000Y-95795000I250000J0D01*
G01*
X115505000Y-95795000D01*
G75*
G02*
X115755000Y-96045000I0J-250000D01*
G01*
X115755000Y-96995000D01*
G75*
G02*
X115505000Y-97245000I-250000J0D01*
G01*
X115005000Y-97245000D01*
G75*
G02*
X114755000Y-96995000I0J250000D01*
G01*
G37*
%TD.AperFunction*%
%TO.P,C4,1*%
%TO.N,GND*%
%TA.AperFunction,SMDPad,CuDef*%
G36*
G01*
X112855000Y-96995000D02*
X112855000Y-96045000D01*
G75*
G02*
X113105000Y-95795000I250000J0D01*
G01*
X113605000Y-95795000D01*
G75*
G02*
X113855000Y-96045000I0J-250000D01*
G01*
X113855000Y-96995000D01*
G75*
G02*
X113605000Y-97245000I-250000J0D01*
G01*
X113105000Y-97245000D01*
G75*
G02*
X112855000Y-96995000I0J250000D01*
G01*
G37*
%TD.AperFunction*%
%TD*%
%TO.P,C3,2*%
%TO.N,GND*%
%TA.AperFunction,SMDPad,CuDef*%
G36*
G01*
X107983000Y-94938000D02*
X108933000Y-94938000D01*
G75*
G02*
X109183000Y-95188000I0J-250000D01*
G01*
X109183000Y-95688000D01*
G75*
G02*
X108933000Y-95938000I-250000J0D01*
G01*
X107983000Y-95938000D01*
G75*
G02*
X107733000Y-95688000I0J250000D01*
G01*
X107733000Y-95188000D01*
G75*
G02*
X107983000Y-94938000I250000J0D01*
G01*
G37*
%TD.AperFunction*%
%TO.P,C3,1*%
%TO.N,Net-(C3-Pad1)*%
%TA.AperFunction,SMDPad,CuDef*%
G36*
G01*
X107983000Y-93038000D02*
X108933000Y-93038000D01*
G75*
G02*
X109183000Y-93288000I0J-250000D01*
G01*
X109183000Y-93788000D01*
G75*
G02*
X108933000Y-94038000I-250000J0D01*
G01*
X107983000Y-94038000D01*
G75*
G02*
X107733000Y-93788000I0J250000D01*
G01*
X107733000Y-93288000D01*
G75*
G02*
X107983000Y-93038000I250000J0D01*
G01*
G37*
%TD.AperFunction*%
%TD*%
%TO.P,C2,2*%
%TO.N,GND*%
%TA.AperFunction,SMDPad,CuDef*%
G36*
G01*
X105189000Y-93922000D02*
X106139000Y-93922000D01*
G75*
G02*
X106389000Y-94172000I0J-250000D01*
G01*
X106389000Y-94672000D01*
G75*
G02*
X106139000Y-94922000I-250000J0D01*
G01*
X105189000Y-94922000D01*
G75*
G02*
X104939000Y-94672000I0J250000D01*
G01*
X104939000Y-94172000D01*
G75*
G02*
X105189000Y-93922000I250000J0D01*
G01*
G37*
%TD.AperFunction*%
%TO.P,C2,1*%
%TO.N,Net-(C2-Pad1)*%
%TA.AperFunction,SMDPad,CuDef*%
G36*
G01*
X105189000Y-92022000D02*
X106139000Y-92022000D01*
G75*
G02*
X106389000Y-92272000I0J-250000D01*
G01*
X106389000Y-92772000D01*
G75*
G02*
X106139000Y-93022000I-250000J0D01*
G01*
X105189000Y-93022000D01*
G75*
G02*
X104939000Y-92772000I0J250000D01*
G01*
X104939000Y-92272000D01*
G75*
G02*
X105189000Y-92022000I250000J0D01*
G01*
G37*
%TD.AperFunction*%
%TD*%
D17*
%TO.N,GND*%
X141732000Y-90424000D03*
X71028550Y-67394999D03*
X71028550Y-74394999D03*
X71028550Y-81394999D03*
X75028550Y-70394999D03*
X75028550Y-77394999D03*
X75028550Y-84394999D03*
X75028550Y-99394999D03*
X77028550Y-104394999D03*
X79028550Y-60394999D03*
X79028550Y-67394999D03*
X79028550Y-74394999D03*
X79028550Y-81394999D03*
X79028550Y-95394999D03*
X81028550Y-100394999D03*
X81028550Y-107394999D03*
X82028550Y-85394999D03*
X83028550Y-63394999D03*
X83028550Y-70394999D03*
X83028550Y-77394999D03*
X83028550Y-92394999D03*
X85028550Y-97394999D03*
X85028550Y-104394999D03*
X86028550Y-81394999D03*
X86028550Y-88394999D03*
X87028550Y-60394999D03*
X87028550Y-67394999D03*
X87028550Y-74394999D03*
X89028550Y-94394999D03*
X89028550Y-101394999D03*
X90028550Y-78394999D03*
X90028550Y-85394999D03*
X90028550Y-107394999D03*
X91028550Y-63394999D03*
X91028550Y-70394999D03*
X93028550Y-97394999D03*
X94028550Y-74394999D03*
X94028550Y-81394999D03*
X94028550Y-88394999D03*
X94028550Y-103394999D03*
X95028550Y-60394999D03*
X95028550Y-67394999D03*
X97028550Y-107394999D03*
X98028550Y-71394999D03*
X98028550Y-78394999D03*
X98028550Y-85394999D03*
X98028550Y-95394999D03*
X99028550Y-63394999D03*
X99028550Y-101394999D03*
X102028550Y-67394999D03*
X102028550Y-74394999D03*
X102028550Y-81394999D03*
X102028550Y-92394999D03*
X102028550Y-105394999D03*
X103028550Y-60394999D03*
X103028550Y-98394999D03*
X104028550Y-86394999D03*
X106028550Y-64394999D03*
X106028550Y-71394999D03*
X106028550Y-78394999D03*
X106028550Y-102394999D03*
X108028550Y-83394999D03*
X108028550Y-107394999D03*
X109028550Y-97394999D03*
X110028550Y-60394999D03*
X110028550Y-67394999D03*
X110028550Y-74394999D03*
X112028550Y-79394999D03*
X112028550Y-86394999D03*
X113028550Y-92394999D03*
X113028550Y-100394999D03*
X114028550Y-106394999D03*
X116028550Y-61394999D03*
X116028550Y-75394999D03*
X116028550Y-83394999D03*
X117028550Y-67394999D03*
X117028550Y-95394999D03*
X118028550Y-102394999D03*
X119028550Y-79394999D03*
X120028550Y-71394999D03*
X120028550Y-107394999D03*
X121028550Y-63394999D03*
X121028550Y-98394999D03*
X123028550Y-75394999D03*
X123028550Y-86394999D03*
X123028550Y-93394999D03*
X124028550Y-67394999D03*
X124028550Y-103394999D03*
X125028550Y-60394999D03*
X125028550Y-80394999D03*
X127028550Y-71394999D03*
X127028550Y-90394999D03*
X127028550Y-97394999D03*
X127028550Y-107394999D03*
X128028550Y-64394999D03*
X128028550Y-84394999D03*
X129028550Y-76394999D03*
X130028550Y-101394999D03*
X131028550Y-68394999D03*
X131028550Y-93394999D03*
X132028550Y-60394999D03*
X132028550Y-80394999D03*
X133028550Y-73394999D03*
X133028550Y-86394999D03*
X133028550Y-105394999D03*
X134028550Y-97394999D03*
X135028550Y-64394999D03*
X136028550Y-77394999D03*
X137028550Y-69394999D03*
X137028550Y-101394999D03*
X138028550Y-84394999D03*
X138028550Y-94394999D03*
X138028550Y-107394999D03*
X139028550Y-60394999D03*
X140028550Y-73394999D03*
X141028550Y-65394999D03*
X141028550Y-79394999D03*
X141028550Y-98394999D03*
X142028550Y-104394999D03*
X143028550Y-86394999D03*
X144028550Y-69394999D03*
X145028550Y-61394999D03*
X145028550Y-75394999D03*
X145028550Y-95394999D03*
X146028550Y-81394999D03*
X146028550Y-101394999D03*
X147028550Y-107394999D03*
X148028550Y-65394999D03*
X149028550Y-71394999D03*
X149028550Y-85394999D03*
X149028550Y-92394999D03*
X150028550Y-77394999D03*
X150028550Y-98394999D03*
X151028550Y-60394999D03*
X151028550Y-104394999D03*
X153028550Y-67394999D03*
X153028550Y-81394999D03*
X153028550Y-88394999D03*
X154028550Y-73394999D03*
X154028550Y-94394999D03*
X155028550Y-100394999D03*
X157028550Y-77394999D03*
X157028550Y-84394999D03*
X158028550Y-69394999D03*
X159028550Y-96394999D03*
X160028550Y-88394999D03*
%TO.N,/AF_Out*%
X123190000Y-88392000D03*
X117856000Y-88646000D03*
%TD*%
D18*
%TO.N,GND*%
X110830000Y-92440000D02*
X110830000Y-92796000D01*
X145204000Y-89408000D02*
X143637000Y-89408000D01*
X145984000Y-89408000D02*
X146304000Y-89088000D01*
X145204000Y-89408000D02*
X145984000Y-89408000D01*
X146304000Y-89088000D02*
X146304000Y-87884000D01*
X146304000Y-87884000D02*
X145796000Y-87376000D01*
X145796000Y-87376000D02*
X145542000Y-87376000D01*
%TO.N,Net-(C2-Pad1)*%
X105664000Y-92522000D02*
X106746000Y-91440000D01*
X106746000Y-91440000D02*
X111252000Y-91440000D01*
%TO.N,Net-(C3-Pad1)*%
X108458000Y-93038000D02*
X109548000Y-91948000D01*
X108458000Y-93538000D02*
X108458000Y-93038000D01*
X109548000Y-91948000D02*
X110998000Y-91948000D01*
D19*
%TO.N,/RSSI_Out*%
X115316000Y-96266000D02*
X115316000Y-94234000D01*
D20*
X115316000Y-94234000D02*
X115316000Y-93472000D01*
D18*
X115316000Y-93472000D02*
X115316000Y-92456000D01*
D19*
X115255000Y-96520000D02*
X115255000Y-102550000D01*
X115255000Y-102550000D02*
X114935000Y-102870000D01*
D18*
%TO.N,Net-(C5-Pad2)*%
X115230000Y-91440000D02*
X118364000Y-91440000D01*
D19*
%TO.N,Net-(C5-Pad1)*%
X120264000Y-91440000D02*
X120904000Y-91440000D01*
X120904000Y-91440000D02*
X121920000Y-90424000D01*
X121920000Y-90424000D02*
X121920000Y-89154000D01*
D18*
X115230000Y-90940000D02*
X114054000Y-90940000D01*
X114054000Y-90940000D02*
X113538000Y-90424000D01*
X113538000Y-90424000D02*
X113538000Y-88646000D01*
D19*
X113538000Y-88646000D02*
X113538000Y-88138000D01*
X113538000Y-88138000D02*
X114808000Y-86868000D01*
X114808000Y-86868000D02*
X114808000Y-85598000D01*
X114808000Y-85598000D02*
X115062000Y-85344000D01*
X115062000Y-85344000D02*
X120396000Y-85344000D01*
X120396000Y-85344000D02*
X121158000Y-84582000D01*
X121158000Y-84582000D02*
X125730000Y-84582000D01*
X125730000Y-84582000D02*
X126238000Y-84074000D01*
X120396000Y-87630000D02*
X121920000Y-89154000D01*
X120396000Y-85344000D02*
X120396000Y-87630000D01*
D18*
%TO.N,+5V*%
X110830000Y-90440000D02*
X110830000Y-90002000D01*
X110830000Y-90002000D02*
X110236000Y-89408000D01*
X110236000Y-89408000D02*
X110236000Y-88138000D01*
D19*
X115316000Y-71882000D02*
X114300000Y-72898000D01*
X114300000Y-72898000D02*
X114300000Y-80518000D01*
X114300000Y-80518000D02*
X114808000Y-81026000D01*
X114808000Y-81026000D02*
X120396000Y-81026000D01*
X120396000Y-81026000D02*
X121412000Y-82042000D01*
X121412000Y-82042000D02*
X126492000Y-82042000D01*
X114935000Y-81047500D02*
X111992500Y-81047500D01*
X111992500Y-81047500D02*
X110236000Y-82804000D01*
X110236000Y-82804000D02*
X110236000Y-88138000D01*
X126388500Y-82145500D02*
X126492000Y-82042000D01*
X126238000Y-82145500D02*
X126388500Y-82145500D01*
X115238500Y-71755000D02*
X115238500Y-64085500D01*
X115238500Y-64085500D02*
X115316000Y-64163000D01*
X126238000Y-82145500D02*
X142216500Y-82145500D01*
X142216500Y-82145500D02*
X147447000Y-87376000D01*
X147447000Y-87376000D02*
X147447000Y-88265000D01*
D20*
%TO.N,/Audio_Out*%
X148082000Y-90424000D02*
X147320000Y-90424000D01*
X147404000Y-90358000D02*
X150556000Y-90358000D01*
D19*
X150556000Y-90358000D02*
X157160000Y-90358000D01*
D20*
X147508000Y-93472000D02*
X147508000Y-90612000D01*
X147508000Y-90612000D02*
X147320000Y-90424000D01*
D19*
%TO.N,Net-(Ca1-Pad1)*%
X144272000Y-92710000D02*
X137922000Y-92710000D01*
X137922000Y-92710000D02*
X135890000Y-90678000D01*
X135890000Y-90678000D02*
X135890000Y-88392000D01*
X135890000Y-88392000D02*
X136906000Y-88392000D01*
X136906000Y-88392000D02*
X134747000Y-88392000D01*
X144272000Y-92710000D02*
X144780000Y-92710000D01*
X144780000Y-92710000D02*
X145542000Y-93472000D01*
D20*
X144780000Y-92710000D02*
X144780000Y-90678000D01*
X144780000Y-90678000D02*
X145034000Y-90424000D01*
%TO.N,Net-(Cb1-Pad1)*%
X141224000Y-88458000D02*
X145113001Y-88458000D01*
D19*
X138834500Y-88392000D02*
X141224000Y-88392000D01*
%TO.N,Net-(Cc1-Pad1)*%
X127404500Y-88392000D02*
X130556000Y-88392000D01*
X130556000Y-88458000D02*
X132776000Y-88458000D01*
%TO.N,Net-(CMatch1-Pad1)*%
X87422500Y-90220800D02*
X89966800Y-90220800D01*
X89966800Y-90220800D02*
X90170000Y-90424000D01*
X90170000Y-90424000D02*
X94234000Y-90424000D01*
%TO.N,/IF_In*%
X96625000Y-90548000D02*
X103000000Y-90548000D01*
X103000000Y-90548000D02*
X103124000Y-90424000D01*
D18*
%TO.N,/AF_Out*%
X115230000Y-90440000D02*
X115230000Y-89748000D01*
D19*
X116332000Y-88646000D02*
X117856000Y-88646000D01*
D20*
X115230000Y-89748000D02*
X116332000Y-88646000D01*
D19*
X123190000Y-88392000D02*
X125476000Y-88392000D01*
D18*
%TO.N,Net-(C1-Pad1)*%
X105090000Y-90424000D02*
X108204000Y-90424000D01*
X108204000Y-90424000D02*
X108712000Y-90932000D01*
X108712000Y-90932000D02*
X111252000Y-90932000D01*
D19*
%TO.N,Net-(CDC1-Pad2)*%
X71120000Y-90068400D02*
X77368400Y-90068400D01*
%TO.N,Net-(CDC1-Pad1)*%
X79690000Y-90119200D02*
X85090000Y-90170000D01*
%TD*%
D21*
%TO.N,GND*%
X161900000Y-108560000D02*
X69240000Y-108560000D01*
X69240000Y-105239117D01*
X70655000Y-105239117D01*
X70655000Y-105580883D01*
X70721675Y-105916081D01*
X70852463Y-106231831D01*
X71042337Y-106515998D01*
X71284002Y-106757663D01*
X71568169Y-106947537D01*
X71883919Y-107078325D01*
X72219117Y-107145000D01*
X72560883Y-107145000D01*
X72896081Y-107078325D01*
X73211831Y-106947537D01*
X73495998Y-106757663D01*
X73737663Y-106515998D01*
X73927537Y-106231831D01*
X74058325Y-105916081D01*
X74125000Y-105580883D01*
X74125000Y-105239117D01*
X157015000Y-105239117D01*
X157015000Y-105580883D01*
X157081675Y-105916081D01*
X157212463Y-106231831D01*
X157402337Y-106515998D01*
X157644002Y-106757663D01*
X157928169Y-106947537D01*
X158243919Y-107078325D01*
X158579117Y-107145000D01*
X158920883Y-107145000D01*
X159256081Y-107078325D01*
X159571831Y-106947537D01*
X159855998Y-106757663D01*
X160097663Y-106515998D01*
X160287537Y-106231831D01*
X160418325Y-105916081D01*
X160485000Y-105580883D01*
X160485000Y-105239117D01*
X160418325Y-104903919D01*
X160287537Y-104588169D01*
X160097663Y-104304002D01*
X159855998Y-104062337D01*
X159571831Y-103872463D01*
X159256081Y-103741675D01*
X158920883Y-103675000D01*
X158579117Y-103675000D01*
X158243919Y-103741675D01*
X157928169Y-103872463D01*
X157644002Y-104062337D01*
X157402337Y-104304002D01*
X157212463Y-104588169D01*
X157081675Y-104903919D01*
X157015000Y-105239117D01*
X74125000Y-105239117D01*
X74058325Y-104903919D01*
X73927537Y-104588169D01*
X73737663Y-104304002D01*
X73495998Y-104062337D01*
X73211831Y-103872463D01*
X72896081Y-103741675D01*
X72560883Y-103675000D01*
X72219117Y-103675000D01*
X71883919Y-103741675D01*
X71568169Y-103872463D01*
X71284002Y-104062337D01*
X71042337Y-104304002D01*
X70852463Y-104588169D01*
X70721675Y-104903919D01*
X70655000Y-105239117D01*
X69240000Y-105239117D01*
X69240000Y-103277691D01*
X111232919Y-103277691D01*
X111330243Y-103552052D01*
X111479222Y-103802155D01*
X111674131Y-104018388D01*
X111907480Y-104192441D01*
X112170301Y-104317625D01*
X112317510Y-104362276D01*
X112547400Y-104240955D01*
X112547400Y-103047800D01*
X111353586Y-103047800D01*
X111232919Y-103277691D01*
X69240000Y-103277691D01*
X69240000Y-102563909D01*
X111232919Y-102563909D01*
X111353586Y-102793800D01*
X112547400Y-102793800D01*
X112547400Y-101600645D01*
X112317510Y-101479324D01*
X112170301Y-101523975D01*
X111907480Y-101649159D01*
X111674131Y-101823212D01*
X111479222Y-102039445D01*
X111330243Y-102289548D01*
X111232919Y-102563909D01*
X69240000Y-102563909D01*
X69240000Y-97245000D01*
X112216928Y-97245000D01*
X112229188Y-97369482D01*
X112265498Y-97489180D01*
X112324463Y-97599494D01*
X112403815Y-97696185D01*
X112500506Y-97775537D01*
X112610820Y-97834502D01*
X112730518Y-97870812D01*
X112855000Y-97883072D01*
X113069250Y-97880000D01*
X113228000Y-97721250D01*
X113228000Y-96647000D01*
X112378750Y-96647000D01*
X112220000Y-96805750D01*
X112216928Y-97245000D01*
X69240000Y-97245000D01*
X69240000Y-95938000D01*
X107094928Y-95938000D01*
X107107188Y-96062482D01*
X107143498Y-96182180D01*
X107202463Y-96292494D01*
X107281815Y-96389185D01*
X107378506Y-96468537D01*
X107488820Y-96527502D01*
X107608518Y-96563812D01*
X107733000Y-96576072D01*
X108172250Y-96573000D01*
X108331000Y-96414250D01*
X108331000Y-95565000D01*
X108585000Y-95565000D01*
X108585000Y-96414250D01*
X108743750Y-96573000D01*
X109183000Y-96576072D01*
X109307482Y-96563812D01*
X109427180Y-96527502D01*
X109537494Y-96468537D01*
X109634185Y-96389185D01*
X109713537Y-96292494D01*
X109772502Y-96182180D01*
X109808812Y-96062482D01*
X109821072Y-95938000D01*
X109819022Y-95795000D01*
X112216928Y-95795000D01*
X112220000Y-96234250D01*
X112378750Y-96393000D01*
X113228000Y-96393000D01*
X113228000Y-95318750D01*
X113069250Y-95160000D01*
X112855000Y-95156928D01*
X112730518Y-95169188D01*
X112610820Y-95205498D01*
X112500506Y-95264463D01*
X112403815Y-95343815D01*
X112324463Y-95440506D01*
X112265498Y-95550820D01*
X112229188Y-95670518D01*
X112216928Y-95795000D01*
X109819022Y-95795000D01*
X109818000Y-95723750D01*
X109659250Y-95565000D01*
X108585000Y-95565000D01*
X108331000Y-95565000D01*
X107256750Y-95565000D01*
X107098000Y-95723750D01*
X107094928Y-95938000D01*
X69240000Y-95938000D01*
X69240000Y-94922000D01*
X104300928Y-94922000D01*
X104313188Y-95046482D01*
X104349498Y-95166180D01*
X104408463Y-95276494D01*
X104487815Y-95373185D01*
X104584506Y-95452537D01*
X104694820Y-95511502D01*
X104814518Y-95547812D01*
X104939000Y-95560072D01*
X105378250Y-95557000D01*
X105537000Y-95398250D01*
X105537000Y-94549000D01*
X105791000Y-94549000D01*
X105791000Y-95398250D01*
X105949750Y-95557000D01*
X106389000Y-95560072D01*
X106513482Y-95547812D01*
X106633180Y-95511502D01*
X106743494Y-95452537D01*
X106840185Y-95373185D01*
X106919537Y-95276494D01*
X106978502Y-95166180D01*
X107014812Y-95046482D01*
X107027072Y-94922000D01*
X107024000Y-94707750D01*
X106865250Y-94549000D01*
X105791000Y-94549000D01*
X105537000Y-94549000D01*
X104462750Y-94549000D01*
X104304000Y-94707750D01*
X104300928Y-94922000D01*
X69240000Y-94922000D01*
X69240000Y-94406438D01*
X71034250Y-94403400D01*
X71193000Y-94244650D01*
X71193000Y-93020400D01*
X71447000Y-93020400D01*
X71447000Y-94244650D01*
X71605750Y-94403400D01*
X73420000Y-94406472D01*
X73544482Y-94394212D01*
X73664180Y-94357902D01*
X73774494Y-94298937D01*
X73871185Y-94219585D01*
X73950537Y-94122894D01*
X74009502Y-94012580D01*
X74045812Y-93892882D01*
X74058072Y-93768400D01*
X74055000Y-93179150D01*
X73896250Y-93020400D01*
X71447000Y-93020400D01*
X71193000Y-93020400D01*
X71173000Y-93020400D01*
X71173000Y-92890000D01*
X88806928Y-92890000D01*
X88819188Y-93014482D01*
X88855498Y-93134180D01*
X88914463Y-93244494D01*
X88993815Y-93341185D01*
X89090506Y-93420537D01*
X89200820Y-93479502D01*
X89320518Y-93515812D01*
X89445000Y-93528072D01*
X89884250Y-93525000D01*
X90043000Y-93366250D01*
X90043000Y-92517000D01*
X90297000Y-92517000D01*
X90297000Y-93366250D01*
X90455750Y-93525000D01*
X90895000Y-93528072D01*
X91019482Y-93515812D01*
X91139180Y-93479502D01*
X91249494Y-93420537D01*
X91346185Y-93341185D01*
X91425537Y-93244494D01*
X91484502Y-93134180D01*
X91520812Y-93014482D01*
X91533072Y-92890000D01*
X91530000Y-92675750D01*
X91371250Y-92517000D01*
X90297000Y-92517000D01*
X90043000Y-92517000D01*
X88968750Y-92517000D01*
X88810000Y-92675750D01*
X88806928Y-92890000D01*
X71173000Y-92890000D01*
X71173000Y-92766400D01*
X71193000Y-92766400D01*
X71193000Y-91542150D01*
X71447000Y-91542150D01*
X71447000Y-92766400D01*
X73896250Y-92766400D01*
X74055000Y-92607650D01*
X74056353Y-92348000D01*
X93011928Y-92348000D01*
X93024188Y-92472482D01*
X93060498Y-92592180D01*
X93090335Y-92648000D01*
X93060498Y-92703820D01*
X93024188Y-92823518D01*
X93011928Y-92948000D01*
X93011928Y-93748000D01*
X93024188Y-93872482D01*
X93060498Y-93992180D01*
X93119463Y-94102494D01*
X93198815Y-94199185D01*
X93295506Y-94278537D01*
X93405820Y-94337502D01*
X93525518Y-94373812D01*
X93650000Y-94386072D01*
X94700000Y-94386072D01*
X94824482Y-94373812D01*
X94944180Y-94337502D01*
X95054494Y-94278537D01*
X95151185Y-94199185D01*
X95230537Y-94102494D01*
X95289502Y-93992180D01*
X95325812Y-93872482D01*
X95338072Y-93748000D01*
X95338072Y-92948000D01*
X95325812Y-92823518D01*
X95289502Y-92703820D01*
X95259665Y-92648000D01*
X95289502Y-92592180D01*
X95325812Y-92472482D01*
X95338072Y-92348000D01*
X95461928Y-92348000D01*
X95474188Y-92472482D01*
X95510498Y-92592180D01*
X95540335Y-92648000D01*
X95510498Y-92703820D01*
X95474188Y-92823518D01*
X95461928Y-92948000D01*
X95461928Y-93748000D01*
X95474188Y-93872482D01*
X95510498Y-93992180D01*
X95569463Y-94102494D01*
X95648815Y-94199185D01*
X95745506Y-94278537D01*
X95855820Y-94337502D01*
X95975518Y-94373812D01*
X96100000Y-94386072D01*
X97150000Y-94386072D01*
X97274482Y-94373812D01*
X97394180Y-94337502D01*
X97504494Y-94278537D01*
X97601185Y-94199185D01*
X97680537Y-94102494D01*
X97739502Y-93992180D01*
X97775812Y-93872482D01*
X97788072Y-93748000D01*
X97788072Y-92948000D01*
X97775812Y-92823518D01*
X97739502Y-92703820D01*
X97709665Y-92648000D01*
X97739502Y-92592180D01*
X97775812Y-92472482D01*
X97788072Y-92348000D01*
X97785000Y-92233750D01*
X97626250Y-92075000D01*
X96752000Y-92075000D01*
X96752000Y-92095000D01*
X96498000Y-92095000D01*
X96498000Y-92075000D01*
X95623750Y-92075000D01*
X95465000Y-92233750D01*
X95461928Y-92348000D01*
X95338072Y-92348000D01*
X95335000Y-92233750D01*
X95176250Y-92075000D01*
X94302000Y-92075000D01*
X94302000Y-92095000D01*
X94048000Y-92095000D01*
X94048000Y-92075000D01*
X93173750Y-92075000D01*
X93015000Y-92233750D01*
X93011928Y-92348000D01*
X74056353Y-92348000D01*
X74058072Y-92018400D01*
X74045812Y-91893918D01*
X74009502Y-91774220D01*
X73950537Y-91663906D01*
X73871185Y-91567215D01*
X73774494Y-91487863D01*
X73664180Y-91428898D01*
X73544482Y-91392588D01*
X73420000Y-91380328D01*
X71605750Y-91383400D01*
X71447000Y-91542150D01*
X71193000Y-91542150D01*
X71034250Y-91383400D01*
X69240000Y-91380362D01*
X69240000Y-91333593D01*
X69320000Y-91341472D01*
X72920000Y-91341472D01*
X73044482Y-91329212D01*
X73164180Y-91292902D01*
X73274494Y-91233937D01*
X73311704Y-91203400D01*
X76896641Y-91203400D01*
X76912038Y-91222162D01*
X77046614Y-91332605D01*
X77200150Y-91414672D01*
X77366746Y-91465208D01*
X77540000Y-91482272D01*
X78040000Y-91482272D01*
X78213254Y-91465208D01*
X78379850Y-91414672D01*
X78533386Y-91332605D01*
X78667962Y-91222162D01*
X78740000Y-91134383D01*
X78812038Y-91222162D01*
X78946614Y-91332605D01*
X79100150Y-91414672D01*
X79266746Y-91465208D01*
X79440000Y-91482272D01*
X79940000Y-91482272D01*
X80113254Y-91465208D01*
X80279850Y-91414672D01*
X80433386Y-91332605D01*
X80519356Y-91262052D01*
X84585462Y-91300304D01*
X84602725Y-91314471D01*
X84750858Y-91393650D01*
X84911592Y-91442408D01*
X85078750Y-91458872D01*
X85516250Y-91458872D01*
X85683408Y-91442408D01*
X85844142Y-91393650D01*
X85992275Y-91314471D01*
X86122115Y-91207915D01*
X86228671Y-91078075D01*
X86307850Y-90929942D01*
X86356608Y-90769208D01*
X86360000Y-90734769D01*
X86363392Y-90769208D01*
X86412150Y-90929942D01*
X86491329Y-91078075D01*
X86597885Y-91207915D01*
X86727725Y-91314471D01*
X86875858Y-91393650D01*
X87036592Y-91442408D01*
X87203750Y-91458872D01*
X87641250Y-91458872D01*
X87808408Y-91442408D01*
X87969142Y-91393650D01*
X88039954Y-91355800D01*
X89057057Y-91355800D01*
X89067038Y-91367962D01*
X89073594Y-91373342D01*
X88993815Y-91438815D01*
X88914463Y-91535506D01*
X88855498Y-91645820D01*
X88819188Y-91765518D01*
X88806928Y-91890000D01*
X88810000Y-92104250D01*
X88968750Y-92263000D01*
X90043000Y-92263000D01*
X90043000Y-92243000D01*
X90297000Y-92243000D01*
X90297000Y-92263000D01*
X91371250Y-92263000D01*
X91530000Y-92104250D01*
X91533072Y-91890000D01*
X91520812Y-91765518D01*
X91484502Y-91645820D01*
X91438095Y-91559000D01*
X93012224Y-91559000D01*
X93015000Y-91662250D01*
X93173750Y-91821000D01*
X94048000Y-91821000D01*
X94048000Y-91801000D01*
X94302000Y-91801000D01*
X94302000Y-91821000D01*
X95176250Y-91821000D01*
X95335000Y-91662250D01*
X95338072Y-91548000D01*
X95325812Y-91423518D01*
X95289502Y-91303820D01*
X95259665Y-91248000D01*
X95289502Y-91192180D01*
X95325812Y-91072482D01*
X95338072Y-90948000D01*
X95338072Y-90694315D01*
X95352577Y-90646499D01*
X95374491Y-90424000D01*
X95352577Y-90201501D01*
X95338072Y-90153685D01*
X95338072Y-90148000D01*
X95461928Y-90148000D01*
X95461928Y-90948000D01*
X95474188Y-91072482D01*
X95510498Y-91192180D01*
X95540335Y-91248000D01*
X95510498Y-91303820D01*
X95474188Y-91423518D01*
X95461928Y-91548000D01*
X95465000Y-91662250D01*
X95623750Y-91821000D01*
X96498000Y-91821000D01*
X96498000Y-91801000D01*
X96752000Y-91801000D01*
X96752000Y-91821000D01*
X97626250Y-91821000D01*
X97764250Y-91683000D01*
X102531916Y-91683000D01*
X102600150Y-91719472D01*
X102766746Y-91770008D01*
X102940000Y-91787072D01*
X103440000Y-91787072D01*
X103613254Y-91770008D01*
X103779850Y-91719472D01*
X103933386Y-91637405D01*
X104067962Y-91526962D01*
X104140000Y-91439183D01*
X104212038Y-91526962D01*
X104346614Y-91637405D01*
X104499442Y-91719094D01*
X104450595Y-91778614D01*
X104368528Y-91932150D01*
X104317992Y-92098746D01*
X104300928Y-92272000D01*
X104300928Y-92772000D01*
X104317992Y-92945254D01*
X104368528Y-93111850D01*
X104450595Y-93265386D01*
X104561038Y-93399962D01*
X104567594Y-93405342D01*
X104487815Y-93470815D01*
X104408463Y-93567506D01*
X104349498Y-93677820D01*
X104313188Y-93797518D01*
X104300928Y-93922000D01*
X104304000Y-94136250D01*
X104462750Y-94295000D01*
X105537000Y-94295000D01*
X105537000Y-94275000D01*
X105791000Y-94275000D01*
X105791000Y-94295000D01*
X106865250Y-94295000D01*
X107024000Y-94136250D01*
X107027072Y-93922000D01*
X107014812Y-93797518D01*
X106978502Y-93677820D01*
X106919537Y-93567506D01*
X106840185Y-93470815D01*
X106760406Y-93405342D01*
X106766962Y-93399962D01*
X106877405Y-93265386D01*
X106959472Y-93111850D01*
X107010008Y-92945254D01*
X107027072Y-92772000D01*
X107027072Y-92272000D01*
X107023641Y-92237161D01*
X107060802Y-92200000D01*
X108221199Y-92200000D01*
X108021271Y-92399928D01*
X107983000Y-92399928D01*
X107809746Y-92416992D01*
X107643150Y-92467528D01*
X107489614Y-92549595D01*
X107355038Y-92660038D01*
X107244595Y-92794614D01*
X107162528Y-92948150D01*
X107111992Y-93114746D01*
X107094928Y-93288000D01*
X107094928Y-93788000D01*
X107111992Y-93961254D01*
X107162528Y-94127850D01*
X107244595Y-94281386D01*
X107355038Y-94415962D01*
X107361594Y-94421342D01*
X107281815Y-94486815D01*
X107202463Y-94583506D01*
X107143498Y-94693820D01*
X107107188Y-94813518D01*
X107094928Y-94938000D01*
X107098000Y-95152250D01*
X107256750Y-95311000D01*
X108331000Y-95311000D01*
X108331000Y-95291000D01*
X108585000Y-95291000D01*
X108585000Y-95311000D01*
X109659250Y-95311000D01*
X109818000Y-95152250D01*
X109821072Y-94938000D01*
X109808812Y-94813518D01*
X109772502Y-94693820D01*
X109713537Y-94583506D01*
X109634185Y-94486815D01*
X109554406Y-94421342D01*
X109560962Y-94415962D01*
X109671405Y-94281386D01*
X109753472Y-94127850D01*
X109804008Y-93961254D01*
X109821072Y-93788000D01*
X109821072Y-93288000D01*
X109806253Y-93137545D01*
X109895046Y-93183239D01*
X110015296Y-93217677D01*
X110139954Y-93227994D01*
X110544250Y-93225000D01*
X110703000Y-93066250D01*
X110703000Y-92728072D01*
X110957000Y-92728072D01*
X110957000Y-93066250D01*
X111115750Y-93225000D01*
X111520046Y-93227994D01*
X111644704Y-93217677D01*
X111764954Y-93183239D01*
X111876174Y-93126003D01*
X111974092Y-93048169D01*
X112054943Y-92952727D01*
X112115621Y-92843346D01*
X112153794Y-92724229D01*
X112165000Y-92621750D01*
X112027725Y-92484475D01*
X112060537Y-92444494D01*
X112119502Y-92334180D01*
X112132753Y-92290497D01*
X112165000Y-92258250D01*
X112157898Y-92193302D01*
X112168072Y-92090000D01*
X112168072Y-91790000D01*
X112158223Y-91690000D01*
X112168072Y-91590000D01*
X112168072Y-91290000D01*
X112158223Y-91190000D01*
X112168072Y-91090000D01*
X112168072Y-90790000D01*
X112158223Y-90690000D01*
X112168072Y-90590000D01*
X112168072Y-90290000D01*
X112155812Y-90165518D01*
X112119502Y-90045820D01*
X112060537Y-89935506D01*
X111981185Y-89838815D01*
X111884494Y-89759463D01*
X111774180Y-89700498D01*
X111654482Y-89664188D01*
X111530000Y-89651928D01*
X111504637Y-89651928D01*
X111464974Y-89577724D01*
X111370001Y-89461999D01*
X111341002Y-89438200D01*
X111091145Y-89188343D01*
X111158405Y-89106386D01*
X111240472Y-88952850D01*
X111291008Y-88786254D01*
X111308072Y-88613000D01*
X111308072Y-88513804D01*
X111354577Y-88360499D01*
X111371000Y-88193752D01*
X111371000Y-83274131D01*
X112462632Y-82182500D01*
X113151833Y-82182500D01*
X113311743Y-82231008D01*
X113484997Y-82248072D01*
X116385003Y-82248072D01*
X116558257Y-82231008D01*
X116724852Y-82180472D01*
X116761281Y-82161000D01*
X119921928Y-82161000D01*
X119921928Y-82485000D01*
X119938992Y-82658254D01*
X119989528Y-82824850D01*
X120071595Y-82978386D01*
X120182038Y-83112962D01*
X120269817Y-83185000D01*
X120182038Y-83257038D01*
X120071595Y-83391614D01*
X119989528Y-83545150D01*
X119938992Y-83711746D01*
X119921928Y-83885000D01*
X119921928Y-84209000D01*
X116761281Y-84209000D01*
X116724852Y-84189528D01*
X116558257Y-84138992D01*
X116385003Y-84121928D01*
X113484997Y-84121928D01*
X113311743Y-84138992D01*
X113145148Y-84189528D01*
X112991612Y-84271595D01*
X112857037Y-84382037D01*
X112746595Y-84516612D01*
X112664528Y-84670148D01*
X112613992Y-84836743D01*
X112596928Y-85009997D01*
X112596928Y-85635003D01*
X112613992Y-85808257D01*
X112664528Y-85974852D01*
X112746595Y-86128388D01*
X112857037Y-86262963D01*
X112991612Y-86373405D01*
X113145148Y-86455472D01*
X113311743Y-86506008D01*
X113484997Y-86523072D01*
X113547796Y-86523072D01*
X112774860Y-87296009D01*
X112731552Y-87331551D01*
X112589717Y-87504377D01*
X112484324Y-87701553D01*
X112419423Y-87915501D01*
X112407612Y-88035423D01*
X112397509Y-88138000D01*
X112403000Y-88193751D01*
X112403000Y-88701751D01*
X112419423Y-88868498D01*
X112484324Y-89082446D01*
X112589716Y-89279623D01*
X112731551Y-89452449D01*
X112778001Y-89490569D01*
X112778000Y-90386677D01*
X112774324Y-90424000D01*
X112778000Y-90461322D01*
X112778000Y-90461332D01*
X112788997Y-90572985D01*
X112821459Y-90680000D01*
X112832454Y-90716246D01*
X112903026Y-90848276D01*
X112925944Y-90876201D01*
X112997999Y-90964001D01*
X113027002Y-90987803D01*
X113490200Y-91451002D01*
X113513999Y-91480001D01*
X113629724Y-91574974D01*
X113761753Y-91645546D01*
X113901576Y-91687960D01*
X113901777Y-91690000D01*
X113891928Y-91790000D01*
X113891928Y-92090000D01*
X113901777Y-92190000D01*
X113891928Y-92290000D01*
X113891928Y-92590000D01*
X113904188Y-92714482D01*
X113940498Y-92834180D01*
X113999463Y-92944494D01*
X114078815Y-93041185D01*
X114175506Y-93120537D01*
X114285820Y-93179502D01*
X114405518Y-93215812D01*
X114467054Y-93221873D01*
X114443805Y-93298510D01*
X114431000Y-93428523D01*
X114431000Y-93523267D01*
X114367717Y-93600377D01*
X114262325Y-93797553D01*
X114197424Y-94011501D01*
X114181001Y-94178248D01*
X114181001Y-95249233D01*
X114099180Y-95205498D01*
X113979482Y-95169188D01*
X113855000Y-95156928D01*
X113640750Y-95160000D01*
X113482000Y-95318750D01*
X113482000Y-96393000D01*
X113502000Y-96393000D01*
X113502000Y-96647000D01*
X113482000Y-96647000D01*
X113482000Y-97721250D01*
X113640750Y-97880000D01*
X113855000Y-97883072D01*
X113979482Y-97870812D01*
X114099180Y-97834502D01*
X114120000Y-97823373D01*
X114120001Y-101481415D01*
X114009906Y-101540263D01*
X113913215Y-101619615D01*
X113833863Y-101716306D01*
X113774898Y-101826620D01*
X113750434Y-101907266D01*
X113674669Y-101823212D01*
X113441320Y-101649159D01*
X113178499Y-101523975D01*
X113031290Y-101479324D01*
X112801400Y-101600645D01*
X112801400Y-102793800D01*
X112821400Y-102793800D01*
X112821400Y-103047800D01*
X112801400Y-103047800D01*
X112801400Y-104240955D01*
X113031290Y-104362276D01*
X113178499Y-104317625D01*
X113441320Y-104192441D01*
X113674669Y-104018388D01*
X113750434Y-103934334D01*
X113774898Y-104014980D01*
X113833863Y-104125294D01*
X113913215Y-104221985D01*
X114009906Y-104301337D01*
X114120220Y-104360302D01*
X114239918Y-104396612D01*
X114364400Y-104408872D01*
X116064400Y-104408872D01*
X116188882Y-104396612D01*
X116308580Y-104360302D01*
X116418894Y-104301337D01*
X116515585Y-104221985D01*
X116594937Y-104125294D01*
X116653902Y-104014980D01*
X116690212Y-103895282D01*
X116702472Y-103770800D01*
X116702472Y-102070800D01*
X116690212Y-101946318D01*
X116653902Y-101826620D01*
X116594937Y-101716306D01*
X116515585Y-101619615D01*
X116418894Y-101540263D01*
X116390000Y-101524819D01*
X116390000Y-97026191D01*
X116393072Y-96995000D01*
X116393072Y-96625321D01*
X116434577Y-96488499D01*
X116451000Y-96321752D01*
X116451000Y-94178248D01*
X116434577Y-94011501D01*
X116369676Y-93797553D01*
X116264284Y-93600377D01*
X116201000Y-93523265D01*
X116201000Y-93428523D01*
X116188195Y-93298510D01*
X116153955Y-93185637D01*
X116174180Y-93179502D01*
X116284494Y-93120537D01*
X116381185Y-93041185D01*
X116460537Y-92944494D01*
X116519502Y-92834180D01*
X116555812Y-92714482D01*
X116568072Y-92590000D01*
X116568072Y-92290000D01*
X116559208Y-92200000D01*
X117276890Y-92200000D01*
X117293528Y-92254850D01*
X117375595Y-92408386D01*
X117486038Y-92542962D01*
X117620614Y-92653405D01*
X117774150Y-92735472D01*
X117940746Y-92786008D01*
X118114000Y-92803072D01*
X118614000Y-92803072D01*
X118787254Y-92786008D01*
X118953850Y-92735472D01*
X119107386Y-92653405D01*
X119241962Y-92542962D01*
X119314000Y-92455183D01*
X119386038Y-92542962D01*
X119520614Y-92653405D01*
X119674150Y-92735472D01*
X119840746Y-92786008D01*
X120014000Y-92803072D01*
X120514000Y-92803072D01*
X120687254Y-92786008D01*
X120853850Y-92735472D01*
X121007386Y-92653405D01*
X121122449Y-92558976D01*
X121126499Y-92558577D01*
X121340447Y-92493676D01*
X121537623Y-92388284D01*
X121710449Y-92246449D01*
X121745996Y-92203136D01*
X122683140Y-91265992D01*
X122726449Y-91230449D01*
X122868284Y-91057623D01*
X122973676Y-90860447D01*
X122974418Y-90858000D01*
X129192928Y-90858000D01*
X129205188Y-90982482D01*
X129241498Y-91102180D01*
X129300463Y-91212494D01*
X129379815Y-91309185D01*
X129476506Y-91388537D01*
X129586820Y-91447502D01*
X129706518Y-91483812D01*
X129831000Y-91496072D01*
X130270250Y-91493000D01*
X130429000Y-91334250D01*
X130429000Y-90485000D01*
X130683000Y-90485000D01*
X130683000Y-91334250D01*
X130841750Y-91493000D01*
X131281000Y-91496072D01*
X131405482Y-91483812D01*
X131525180Y-91447502D01*
X131635494Y-91388537D01*
X131732185Y-91309185D01*
X131811537Y-91212494D01*
X131870502Y-91102180D01*
X131906812Y-90982482D01*
X131919072Y-90858000D01*
X131916000Y-90643750D01*
X131757250Y-90485000D01*
X130683000Y-90485000D01*
X130429000Y-90485000D01*
X129354750Y-90485000D01*
X129196000Y-90643750D01*
X129192928Y-90858000D01*
X122974418Y-90858000D01*
X123038577Y-90646499D01*
X123055000Y-90479752D01*
X123055000Y-90479751D01*
X123060491Y-90424000D01*
X123055000Y-90368249D01*
X123055000Y-89519195D01*
X123134248Y-89527000D01*
X124758539Y-89527000D01*
X124823613Y-89580405D01*
X124977148Y-89662472D01*
X125143744Y-89713008D01*
X125316998Y-89730072D01*
X125842002Y-89730072D01*
X126015256Y-89713008D01*
X126181852Y-89662472D01*
X126335387Y-89580405D01*
X126469962Y-89469962D01*
X126492000Y-89443109D01*
X126514038Y-89469962D01*
X126648613Y-89580405D01*
X126802148Y-89662472D01*
X126968744Y-89713008D01*
X127141998Y-89730072D01*
X127667002Y-89730072D01*
X127840256Y-89713008D01*
X128006852Y-89662472D01*
X128160387Y-89580405D01*
X128225461Y-89527000D01*
X129287905Y-89527000D01*
X129241498Y-89613820D01*
X129205188Y-89733518D01*
X129192928Y-89858000D01*
X129196000Y-90072250D01*
X129354750Y-90231000D01*
X130429000Y-90231000D01*
X130429000Y-90211000D01*
X130683000Y-90211000D01*
X130683000Y-90231000D01*
X131757250Y-90231000D01*
X131916000Y-90072250D01*
X131919072Y-89858000D01*
X131906812Y-89733518D01*
X131870502Y-89613820D01*
X131859373Y-89593000D01*
X132213176Y-89593000D01*
X132343148Y-89662472D01*
X132509744Y-89713008D01*
X132682998Y-89730072D01*
X133208002Y-89730072D01*
X133381256Y-89713008D01*
X133547852Y-89662472D01*
X133701387Y-89580405D01*
X133835962Y-89469962D01*
X133858000Y-89443109D01*
X133880038Y-89469962D01*
X134014613Y-89580405D01*
X134168148Y-89662472D01*
X134334744Y-89713008D01*
X134507998Y-89730072D01*
X134755000Y-89730072D01*
X134755000Y-90622248D01*
X134749509Y-90678000D01*
X134764271Y-90827882D01*
X134771423Y-90900498D01*
X134836324Y-91114446D01*
X134941716Y-91311623D01*
X135083551Y-91484449D01*
X135126865Y-91519996D01*
X137080009Y-93473141D01*
X137115551Y-93516449D01*
X137288377Y-93658284D01*
X137456225Y-93748000D01*
X137485553Y-93763676D01*
X137699501Y-93828577D01*
X137922000Y-93850491D01*
X137977751Y-93845000D01*
X144309869Y-93845000D01*
X144476271Y-94011403D01*
X144486992Y-94120254D01*
X144537528Y-94286850D01*
X144619595Y-94440386D01*
X144730038Y-94574962D01*
X144864614Y-94685405D01*
X145018150Y-94767472D01*
X145184746Y-94818008D01*
X145358000Y-94835072D01*
X145858000Y-94835072D01*
X146031254Y-94818008D01*
X146197850Y-94767472D01*
X146351386Y-94685405D01*
X146485962Y-94574962D01*
X146558000Y-94487183D01*
X146630038Y-94574962D01*
X146764614Y-94685405D01*
X146918150Y-94767472D01*
X147084746Y-94818008D01*
X147258000Y-94835072D01*
X147758000Y-94835072D01*
X147931254Y-94818008D01*
X148097850Y-94767472D01*
X148251386Y-94685405D01*
X148385962Y-94574962D01*
X148496405Y-94440386D01*
X148578472Y-94286850D01*
X148629008Y-94120254D01*
X148646072Y-93947000D01*
X148646072Y-92997000D01*
X148629008Y-92823746D01*
X148578472Y-92657150D01*
X148496405Y-92503614D01*
X148393000Y-92377614D01*
X148393000Y-91254481D01*
X148422313Y-91245589D01*
X148427157Y-91243000D01*
X149845265Y-91243000D01*
X149922377Y-91306284D01*
X150119553Y-91411676D01*
X150333501Y-91476577D01*
X150500248Y-91493000D01*
X155540281Y-91493000D01*
X155578763Y-91564994D01*
X155658115Y-91661685D01*
X155754806Y-91741037D01*
X155865120Y-91800002D01*
X155984818Y-91836312D01*
X156109300Y-91848572D01*
X157809300Y-91848572D01*
X157933782Y-91836312D01*
X158053480Y-91800002D01*
X158163794Y-91741037D01*
X158260485Y-91661685D01*
X158339837Y-91564994D01*
X158398802Y-91454680D01*
X158435112Y-91334982D01*
X158447372Y-91210500D01*
X158447372Y-89510500D01*
X158435112Y-89386018D01*
X158398802Y-89266320D01*
X158339837Y-89156006D01*
X158260485Y-89059315D01*
X158163794Y-88979963D01*
X158053480Y-88920998D01*
X157972834Y-88896534D01*
X158056888Y-88820769D01*
X158230941Y-88587420D01*
X158356125Y-88324599D01*
X158400776Y-88177390D01*
X158279455Y-87947500D01*
X157086300Y-87947500D01*
X157086300Y-87967500D01*
X156832300Y-87967500D01*
X156832300Y-87947500D01*
X155639145Y-87947500D01*
X155517824Y-88177390D01*
X155562475Y-88324599D01*
X155687659Y-88587420D01*
X155861712Y-88820769D01*
X155945766Y-88896534D01*
X155865120Y-88920998D01*
X155754806Y-88979963D01*
X155658115Y-89059315D01*
X155578763Y-89156006D01*
X155542953Y-89223000D01*
X150500248Y-89223000D01*
X150333501Y-89239423D01*
X150119553Y-89304324D01*
X149922377Y-89409716D01*
X149845265Y-89473000D01*
X148233373Y-89473000D01*
X148178180Y-89443498D01*
X148061159Y-89408000D01*
X148178180Y-89372502D01*
X148288494Y-89313537D01*
X148385185Y-89234185D01*
X148464537Y-89137494D01*
X148523502Y-89027180D01*
X148559812Y-88907482D01*
X148572072Y-88783000D01*
X148572072Y-88421553D01*
X148582000Y-88320751D01*
X148582000Y-87463610D01*
X155517824Y-87463610D01*
X155639145Y-87693500D01*
X156832300Y-87693500D01*
X156832300Y-86499686D01*
X157086300Y-86499686D01*
X157086300Y-87693500D01*
X158279455Y-87693500D01*
X158400776Y-87463610D01*
X158356125Y-87316401D01*
X158230941Y-87053580D01*
X158056888Y-86820231D01*
X157840655Y-86625322D01*
X157590552Y-86476343D01*
X157316191Y-86379019D01*
X157086300Y-86499686D01*
X156832300Y-86499686D01*
X156602409Y-86379019D01*
X156328048Y-86476343D01*
X156077945Y-86625322D01*
X155861712Y-86820231D01*
X155687659Y-87053580D01*
X155562475Y-87316401D01*
X155517824Y-87463610D01*
X148582000Y-87463610D01*
X148582000Y-87431751D01*
X148587491Y-87375999D01*
X148565577Y-87153501D01*
X148500676Y-86939553D01*
X148448815Y-86842528D01*
X148395284Y-86742377D01*
X148253449Y-86569551D01*
X148210141Y-86534009D01*
X143058496Y-81382365D01*
X143022949Y-81339051D01*
X142850123Y-81197216D01*
X142652947Y-81091824D01*
X142438999Y-81026923D01*
X142272252Y-81010500D01*
X142272251Y-81010500D01*
X142216500Y-81005009D01*
X142160749Y-81010500D01*
X126969936Y-81010500D01*
X126928447Y-80988324D01*
X126714499Y-80923423D01*
X126547752Y-80907000D01*
X126547751Y-80907000D01*
X126491999Y-80901509D01*
X126436248Y-80907000D01*
X121882132Y-80907000D01*
X121237996Y-80262864D01*
X121202449Y-80219551D01*
X121029623Y-80077716D01*
X120832447Y-79972324D01*
X120618499Y-79907423D01*
X120451752Y-79891000D01*
X120451751Y-79891000D01*
X120396000Y-79885509D01*
X120340249Y-79891000D01*
X116647291Y-79891000D01*
X116558257Y-79863992D01*
X116385003Y-79846928D01*
X115435000Y-79846928D01*
X115435000Y-78273220D01*
X115482008Y-78118254D01*
X115499072Y-77945000D01*
X115499072Y-76995000D01*
X115482008Y-76821746D01*
X115435000Y-76666780D01*
X115435000Y-73568072D01*
X116026000Y-73568072D01*
X116199254Y-73551008D01*
X116365850Y-73500472D01*
X116519386Y-73418405D01*
X116653962Y-73307962D01*
X116764405Y-73173386D01*
X116846472Y-73019850D01*
X116897008Y-72853254D01*
X116914072Y-72680000D01*
X116914072Y-70830000D01*
X116897008Y-70656746D01*
X116846472Y-70490150D01*
X116764405Y-70336614D01*
X116653962Y-70202038D01*
X116519386Y-70091595D01*
X116373500Y-70013617D01*
X116373500Y-65468162D01*
X116374620Y-65467822D01*
X116484934Y-65408857D01*
X116581625Y-65329505D01*
X116660977Y-65232814D01*
X116719942Y-65122500D01*
X116744406Y-65041854D01*
X116820171Y-65125908D01*
X117053520Y-65299961D01*
X117316341Y-65425145D01*
X117463550Y-65469796D01*
X117693440Y-65348475D01*
X117693440Y-64155320D01*
X117947440Y-64155320D01*
X117947440Y-65348475D01*
X118177330Y-65469796D01*
X118324539Y-65425145D01*
X118587360Y-65299961D01*
X118820709Y-65125908D01*
X119015618Y-64909675D01*
X119164597Y-64659572D01*
X119261921Y-64385211D01*
X119141254Y-64155320D01*
X117947440Y-64155320D01*
X117693440Y-64155320D01*
X117673440Y-64155320D01*
X117673440Y-63901320D01*
X117693440Y-63901320D01*
X117693440Y-62708165D01*
X117947440Y-62708165D01*
X117947440Y-63901320D01*
X119141254Y-63901320D01*
X119261921Y-63671429D01*
X119164597Y-63397068D01*
X119015618Y-63146965D01*
X118820709Y-62930732D01*
X118587360Y-62756679D01*
X118324539Y-62631495D01*
X118177330Y-62586844D01*
X117947440Y-62708165D01*
X117693440Y-62708165D01*
X117463550Y-62586844D01*
X117316341Y-62631495D01*
X117053520Y-62756679D01*
X116820171Y-62930732D01*
X116744406Y-63014786D01*
X116719942Y-62934140D01*
X116660977Y-62823826D01*
X116581625Y-62727135D01*
X116484934Y-62647783D01*
X116374620Y-62588818D01*
X116254922Y-62552508D01*
X116130440Y-62540248D01*
X114430440Y-62540248D01*
X114305958Y-62552508D01*
X114186260Y-62588818D01*
X114075946Y-62647783D01*
X113979255Y-62727135D01*
X113899903Y-62823826D01*
X113840938Y-62934140D01*
X113804628Y-63053838D01*
X113792368Y-63178320D01*
X113792368Y-64878320D01*
X113804628Y-65002802D01*
X113840938Y-65122500D01*
X113899903Y-65232814D01*
X113979255Y-65329505D01*
X114075946Y-65408857D01*
X114103501Y-65423586D01*
X114103500Y-70013617D01*
X113957614Y-70091595D01*
X113823038Y-70202038D01*
X113712595Y-70336614D01*
X113630528Y-70490150D01*
X113579992Y-70656746D01*
X113562928Y-70830000D01*
X113562928Y-72029941D01*
X113536864Y-72056004D01*
X113493551Y-72091551D01*
X113351716Y-72264377D01*
X113246325Y-72461553D01*
X113246324Y-72461554D01*
X113181423Y-72675502D01*
X113159509Y-72898000D01*
X113165000Y-72953752D01*
X113165000Y-76143310D01*
X113085482Y-76119188D01*
X112961000Y-76106928D01*
X112746750Y-76110000D01*
X112588000Y-76268750D01*
X112588000Y-77343000D01*
X112608000Y-77343000D01*
X112608000Y-77597000D01*
X112588000Y-77597000D01*
X112588000Y-78671250D01*
X112746750Y-78830000D01*
X112961000Y-78833072D01*
X113085482Y-78820812D01*
X113165001Y-78796690D01*
X113165001Y-79908506D01*
X113151833Y-79912500D01*
X112048251Y-79912500D01*
X111992499Y-79907009D01*
X111770000Y-79928923D01*
X111720205Y-79944029D01*
X111556053Y-79993824D01*
X111358877Y-80099216D01*
X111186051Y-80241051D01*
X111150509Y-80284360D01*
X109472865Y-81962004D01*
X109429551Y-81997551D01*
X109287716Y-82170377D01*
X109182325Y-82367553D01*
X109182324Y-82367554D01*
X109117423Y-82581502D01*
X109095509Y-82804000D01*
X109101000Y-82859752D01*
X109101001Y-86869905D01*
X109014180Y-86823498D01*
X108894482Y-86787188D01*
X108770000Y-86774928D01*
X108555750Y-86778000D01*
X108397000Y-86936750D01*
X108397000Y-88011000D01*
X108417000Y-88011000D01*
X108417000Y-88265000D01*
X108397000Y-88265000D01*
X108397000Y-89339250D01*
X108555750Y-89498000D01*
X108770000Y-89501072D01*
X108894482Y-89488812D01*
X109014180Y-89452502D01*
X109124494Y-89393537D01*
X109221185Y-89314185D01*
X109286658Y-89234406D01*
X109292038Y-89240962D01*
X109426614Y-89351405D01*
X109475333Y-89377446D01*
X109472324Y-89408000D01*
X109476000Y-89445322D01*
X109476000Y-89445332D01*
X109486997Y-89556985D01*
X109529413Y-89696815D01*
X109530454Y-89700246D01*
X109601026Y-89832276D01*
X109640871Y-89880826D01*
X109642604Y-89882938D01*
X109599463Y-89935506D01*
X109540498Y-90045820D01*
X109504188Y-90165518D01*
X109503550Y-90172000D01*
X109026802Y-90172000D01*
X108767803Y-89913002D01*
X108744001Y-89883999D01*
X108628276Y-89789026D01*
X108496247Y-89718454D01*
X108352986Y-89674997D01*
X108241333Y-89664000D01*
X108241322Y-89664000D01*
X108204000Y-89660324D01*
X108166678Y-89664000D01*
X106177110Y-89664000D01*
X106160472Y-89609150D01*
X106078405Y-89455614D01*
X105967962Y-89321038D01*
X105833386Y-89210595D01*
X105679850Y-89128528D01*
X105513254Y-89077992D01*
X105340000Y-89060928D01*
X104840000Y-89060928D01*
X104666746Y-89077992D01*
X104500150Y-89128528D01*
X104346614Y-89210595D01*
X104212038Y-89321038D01*
X104140000Y-89408817D01*
X104067962Y-89321038D01*
X103933386Y-89210595D01*
X103779850Y-89128528D01*
X103613254Y-89077992D01*
X103440000Y-89060928D01*
X102940000Y-89060928D01*
X102766746Y-89077992D01*
X102600150Y-89128528D01*
X102446614Y-89210595D01*
X102312038Y-89321038D01*
X102236567Y-89413000D01*
X102121986Y-89413000D01*
X102127502Y-89402680D01*
X102163812Y-89282982D01*
X102176072Y-89158500D01*
X102173000Y-88931750D01*
X102104250Y-88863000D01*
X107131928Y-88863000D01*
X107144188Y-88987482D01*
X107180498Y-89107180D01*
X107239463Y-89217494D01*
X107318815Y-89314185D01*
X107415506Y-89393537D01*
X107525820Y-89452502D01*
X107645518Y-89488812D01*
X107770000Y-89501072D01*
X107984250Y-89498000D01*
X108143000Y-89339250D01*
X108143000Y-88265000D01*
X107293750Y-88265000D01*
X107135000Y-88423750D01*
X107131928Y-88863000D01*
X102104250Y-88863000D01*
X102014250Y-88773000D01*
X100965000Y-88773000D01*
X100965000Y-88793000D01*
X100711000Y-88793000D01*
X100711000Y-88773000D01*
X99661750Y-88773000D01*
X99503000Y-88931750D01*
X99499928Y-89158500D01*
X99512188Y-89282982D01*
X99548498Y-89402680D01*
X99554014Y-89413000D01*
X96569248Y-89413000D01*
X96402501Y-89429423D01*
X96188553Y-89494324D01*
X96159360Y-89509928D01*
X96100000Y-89509928D01*
X95975518Y-89522188D01*
X95855820Y-89558498D01*
X95745506Y-89617463D01*
X95648815Y-89696815D01*
X95569463Y-89793506D01*
X95510498Y-89903820D01*
X95474188Y-90023518D01*
X95461928Y-90148000D01*
X95338072Y-90148000D01*
X95325812Y-90023518D01*
X95289502Y-89903820D01*
X95230537Y-89793506D01*
X95151185Y-89696815D01*
X95054494Y-89617463D01*
X95013907Y-89595768D01*
X94867623Y-89475716D01*
X94670447Y-89370324D01*
X94456499Y-89305423D01*
X94289752Y-89289000D01*
X90620509Y-89289000D01*
X90600423Y-89272516D01*
X90403247Y-89167124D01*
X90189299Y-89102223D01*
X90022552Y-89085800D01*
X90022551Y-89085800D01*
X89966800Y-89080309D01*
X89911049Y-89085800D01*
X88039954Y-89085800D01*
X87969142Y-89047950D01*
X87808408Y-88999192D01*
X87641250Y-88982728D01*
X87203750Y-88982728D01*
X87036592Y-88999192D01*
X86875858Y-89047950D01*
X86727725Y-89127129D01*
X86597885Y-89233685D01*
X86491329Y-89363525D01*
X86412150Y-89511658D01*
X86363392Y-89672392D01*
X86360000Y-89706831D01*
X86356608Y-89672392D01*
X86307850Y-89511658D01*
X86228671Y-89363525D01*
X86122115Y-89233685D01*
X85992275Y-89127129D01*
X85844142Y-89047950D01*
X85683408Y-88999192D01*
X85516250Y-88982728D01*
X85078750Y-88982728D01*
X84911592Y-88999192D01*
X84802625Y-89032247D01*
X80538590Y-88992133D01*
X80433386Y-88905795D01*
X80279850Y-88823728D01*
X80113254Y-88773192D01*
X79940000Y-88756128D01*
X79440000Y-88756128D01*
X79266746Y-88773192D01*
X79100150Y-88823728D01*
X78946614Y-88905795D01*
X78812038Y-89016238D01*
X78740000Y-89104017D01*
X78667962Y-89016238D01*
X78533386Y-88905795D01*
X78379850Y-88823728D01*
X78213254Y-88773192D01*
X78040000Y-88756128D01*
X77540000Y-88756128D01*
X77366746Y-88773192D01*
X77200150Y-88823728D01*
X77046614Y-88905795D01*
X77012977Y-88933400D01*
X73311704Y-88933400D01*
X73274494Y-88902863D01*
X73164180Y-88843898D01*
X73044482Y-88807588D01*
X72920000Y-88795328D01*
X69320000Y-88795328D01*
X69240000Y-88803207D01*
X69240000Y-88756438D01*
X71034250Y-88753400D01*
X71193000Y-88594650D01*
X71193000Y-87370400D01*
X71447000Y-87370400D01*
X71447000Y-88594650D01*
X71605750Y-88753400D01*
X73420000Y-88756472D01*
X73544482Y-88744212D01*
X73664180Y-88707902D01*
X73774494Y-88648937D01*
X73871185Y-88569585D01*
X73950537Y-88472894D01*
X74009502Y-88362580D01*
X74045812Y-88242882D01*
X74056584Y-88133500D01*
X99499928Y-88133500D01*
X99503000Y-88360250D01*
X99661750Y-88519000D01*
X100711000Y-88519000D01*
X100711000Y-87657250D01*
X100965000Y-87657250D01*
X100965000Y-88519000D01*
X102014250Y-88519000D01*
X102173000Y-88360250D01*
X102176072Y-88133500D01*
X102163812Y-88009018D01*
X102127502Y-87889320D01*
X102068537Y-87779006D01*
X101989185Y-87682315D01*
X101892494Y-87602963D01*
X101782180Y-87543998D01*
X101662482Y-87507688D01*
X101538000Y-87495428D01*
X101123750Y-87498500D01*
X100965000Y-87657250D01*
X100711000Y-87657250D01*
X100552250Y-87498500D01*
X100138000Y-87495428D01*
X100013518Y-87507688D01*
X99893820Y-87543998D01*
X99783506Y-87602963D01*
X99686815Y-87682315D01*
X99607463Y-87779006D01*
X99548498Y-87889320D01*
X99512188Y-88009018D01*
X99499928Y-88133500D01*
X74056584Y-88133500D01*
X74058072Y-88118400D01*
X74055000Y-87529150D01*
X73938850Y-87413000D01*
X107131928Y-87413000D01*
X107135000Y-87852250D01*
X107293750Y-88011000D01*
X108143000Y-88011000D01*
X108143000Y-86936750D01*
X107984250Y-86778000D01*
X107770000Y-86774928D01*
X107645518Y-86787188D01*
X107525820Y-86823498D01*
X107415506Y-86882463D01*
X107318815Y-86961815D01*
X107239463Y-87058506D01*
X107180498Y-87168820D01*
X107144188Y-87288518D01*
X107131928Y-87413000D01*
X73938850Y-87413000D01*
X73896250Y-87370400D01*
X71447000Y-87370400D01*
X71193000Y-87370400D01*
X71173000Y-87370400D01*
X71173000Y-87116400D01*
X71193000Y-87116400D01*
X71193000Y-85892150D01*
X71447000Y-85892150D01*
X71447000Y-87116400D01*
X73896250Y-87116400D01*
X74055000Y-86957650D01*
X74058072Y-86368400D01*
X74045812Y-86243918D01*
X74009502Y-86124220D01*
X73950537Y-86013906D01*
X73871185Y-85917215D01*
X73774494Y-85837863D01*
X73664180Y-85778898D01*
X73544482Y-85742588D01*
X73420000Y-85730328D01*
X71605750Y-85733400D01*
X71447000Y-85892150D01*
X71193000Y-85892150D01*
X71034250Y-85733400D01*
X69240000Y-85730362D01*
X69240000Y-78195000D01*
X111322928Y-78195000D01*
X111335188Y-78319482D01*
X111371498Y-78439180D01*
X111430463Y-78549494D01*
X111509815Y-78646185D01*
X111606506Y-78725537D01*
X111716820Y-78784502D01*
X111836518Y-78820812D01*
X111961000Y-78833072D01*
X112175250Y-78830000D01*
X112334000Y-78671250D01*
X112334000Y-77597000D01*
X111484750Y-77597000D01*
X111326000Y-77755750D01*
X111322928Y-78195000D01*
X69240000Y-78195000D01*
X69240000Y-76745000D01*
X111322928Y-76745000D01*
X111326000Y-77184250D01*
X111484750Y-77343000D01*
X112334000Y-77343000D01*
X112334000Y-76268750D01*
X112175250Y-76110000D01*
X111961000Y-76106928D01*
X111836518Y-76119188D01*
X111716820Y-76155498D01*
X111606506Y-76214463D01*
X111509815Y-76293815D01*
X111430463Y-76390506D01*
X111371498Y-76500820D01*
X111335188Y-76620518D01*
X111322928Y-76745000D01*
X69240000Y-76745000D01*
X69240000Y-72930000D01*
X108637928Y-72930000D01*
X108650188Y-73054482D01*
X108686498Y-73174180D01*
X108745463Y-73284494D01*
X108824815Y-73381185D01*
X108921506Y-73460537D01*
X109031820Y-73519502D01*
X109151518Y-73555812D01*
X109276000Y-73568072D01*
X110027750Y-73565000D01*
X110186500Y-73406250D01*
X110186500Y-71882000D01*
X110440500Y-71882000D01*
X110440500Y-73406250D01*
X110599250Y-73565000D01*
X111351000Y-73568072D01*
X111475482Y-73555812D01*
X111595180Y-73519502D01*
X111705494Y-73460537D01*
X111802185Y-73381185D01*
X111881537Y-73284494D01*
X111940502Y-73174180D01*
X111976812Y-73054482D01*
X111989072Y-72930000D01*
X111986000Y-72040750D01*
X111827250Y-71882000D01*
X110440500Y-71882000D01*
X110186500Y-71882000D01*
X108799750Y-71882000D01*
X108641000Y-72040750D01*
X108637928Y-72930000D01*
X69240000Y-72930000D01*
X69240000Y-70580000D01*
X108637928Y-70580000D01*
X108641000Y-71469250D01*
X108799750Y-71628000D01*
X110186500Y-71628000D01*
X110186500Y-70103750D01*
X110440500Y-70103750D01*
X110440500Y-71628000D01*
X111827250Y-71628000D01*
X111986000Y-71469250D01*
X111989072Y-70580000D01*
X111976812Y-70455518D01*
X111940502Y-70335820D01*
X111881537Y-70225506D01*
X111802185Y-70128815D01*
X111705494Y-70049463D01*
X111595180Y-69990498D01*
X111475482Y-69954188D01*
X111351000Y-69941928D01*
X110599250Y-69945000D01*
X110440500Y-70103750D01*
X110186500Y-70103750D01*
X110027750Y-69945000D01*
X109276000Y-69941928D01*
X109151518Y-69954188D01*
X109031820Y-69990498D01*
X108921506Y-70049463D01*
X108824815Y-70128815D01*
X108745463Y-70225506D01*
X108686498Y-70335820D01*
X108650188Y-70455518D01*
X108637928Y-70580000D01*
X69240000Y-70580000D01*
X69240000Y-62059117D01*
X70655000Y-62059117D01*
X70655000Y-62400883D01*
X70721675Y-62736081D01*
X70852463Y-63051831D01*
X71042337Y-63335998D01*
X71284002Y-63577663D01*
X71568169Y-63767537D01*
X71883919Y-63898325D01*
X72219117Y-63965000D01*
X72560883Y-63965000D01*
X72896081Y-63898325D01*
X73211831Y-63767537D01*
X73495998Y-63577663D01*
X73737663Y-63335998D01*
X73927537Y-63051831D01*
X74058325Y-62736081D01*
X74125000Y-62400883D01*
X74125000Y-62059117D01*
X157015000Y-62059117D01*
X157015000Y-62400883D01*
X157081675Y-62736081D01*
X157212463Y-63051831D01*
X157402337Y-63335998D01*
X157644002Y-63577663D01*
X157928169Y-63767537D01*
X158243919Y-63898325D01*
X158579117Y-63965000D01*
X158920883Y-63965000D01*
X159256081Y-63898325D01*
X159571831Y-63767537D01*
X159855998Y-63577663D01*
X160097663Y-63335998D01*
X160287537Y-63051831D01*
X160418325Y-62736081D01*
X160485000Y-62400883D01*
X160485000Y-62059117D01*
X160418325Y-61723919D01*
X160287537Y-61408169D01*
X160097663Y-61124002D01*
X159855998Y-60882337D01*
X159571831Y-60692463D01*
X159256081Y-60561675D01*
X158920883Y-60495000D01*
X158579117Y-60495000D01*
X158243919Y-60561675D01*
X157928169Y-60692463D01*
X157644002Y-60882337D01*
X157402337Y-61124002D01*
X157212463Y-61408169D01*
X157081675Y-61723919D01*
X157015000Y-62059117D01*
X74125000Y-62059117D01*
X74058325Y-61723919D01*
X73927537Y-61408169D01*
X73737663Y-61124002D01*
X73495998Y-60882337D01*
X73211831Y-60692463D01*
X72896081Y-60561675D01*
X72560883Y-60495000D01*
X72219117Y-60495000D01*
X71883919Y-60561675D01*
X71568169Y-60692463D01*
X71284002Y-60882337D01*
X71042337Y-61124002D01*
X70852463Y-61408169D01*
X70721675Y-61723919D01*
X70655000Y-62059117D01*
X69240000Y-62059117D01*
X69240000Y-59080000D01*
X161900001Y-59080000D01*
X161900000Y-108560000D01*
%TA.AperFunction,Conductor*%
D22*
G36*
X161900000Y-108560000D02*
G01*
X69240000Y-108560000D01*
X69240000Y-105239117D01*
X70655000Y-105239117D01*
X70655000Y-105580883D01*
X70721675Y-105916081D01*
X70852463Y-106231831D01*
X71042337Y-106515998D01*
X71284002Y-106757663D01*
X71568169Y-106947537D01*
X71883919Y-107078325D01*
X72219117Y-107145000D01*
X72560883Y-107145000D01*
X72896081Y-107078325D01*
X73211831Y-106947537D01*
X73495998Y-106757663D01*
X73737663Y-106515998D01*
X73927537Y-106231831D01*
X74058325Y-105916081D01*
X74125000Y-105580883D01*
X74125000Y-105239117D01*
X157015000Y-105239117D01*
X157015000Y-105580883D01*
X157081675Y-105916081D01*
X157212463Y-106231831D01*
X157402337Y-106515998D01*
X157644002Y-106757663D01*
X157928169Y-106947537D01*
X158243919Y-107078325D01*
X158579117Y-107145000D01*
X158920883Y-107145000D01*
X159256081Y-107078325D01*
X159571831Y-106947537D01*
X159855998Y-106757663D01*
X160097663Y-106515998D01*
X160287537Y-106231831D01*
X160418325Y-105916081D01*
X160485000Y-105580883D01*
X160485000Y-105239117D01*
X160418325Y-104903919D01*
X160287537Y-104588169D01*
X160097663Y-104304002D01*
X159855998Y-104062337D01*
X159571831Y-103872463D01*
X159256081Y-103741675D01*
X158920883Y-103675000D01*
X158579117Y-103675000D01*
X158243919Y-103741675D01*
X157928169Y-103872463D01*
X157644002Y-104062337D01*
X157402337Y-104304002D01*
X157212463Y-104588169D01*
X157081675Y-104903919D01*
X157015000Y-105239117D01*
X74125000Y-105239117D01*
X74058325Y-104903919D01*
X73927537Y-104588169D01*
X73737663Y-104304002D01*
X73495998Y-104062337D01*
X73211831Y-103872463D01*
X72896081Y-103741675D01*
X72560883Y-103675000D01*
X72219117Y-103675000D01*
X71883919Y-103741675D01*
X71568169Y-103872463D01*
X71284002Y-104062337D01*
X71042337Y-104304002D01*
X70852463Y-104588169D01*
X70721675Y-104903919D01*
X70655000Y-105239117D01*
X69240000Y-105239117D01*
X69240000Y-103277691D01*
X111232919Y-103277691D01*
X111330243Y-103552052D01*
X111479222Y-103802155D01*
X111674131Y-104018388D01*
X111907480Y-104192441D01*
X112170301Y-104317625D01*
X112317510Y-104362276D01*
X112547400Y-104240955D01*
X112547400Y-103047800D01*
X111353586Y-103047800D01*
X111232919Y-103277691D01*
X69240000Y-103277691D01*
X69240000Y-102563909D01*
X111232919Y-102563909D01*
X111353586Y-102793800D01*
X112547400Y-102793800D01*
X112547400Y-101600645D01*
X112317510Y-101479324D01*
X112170301Y-101523975D01*
X111907480Y-101649159D01*
X111674131Y-101823212D01*
X111479222Y-102039445D01*
X111330243Y-102289548D01*
X111232919Y-102563909D01*
X69240000Y-102563909D01*
X69240000Y-97245000D01*
X112216928Y-97245000D01*
X112229188Y-97369482D01*
X112265498Y-97489180D01*
X112324463Y-97599494D01*
X112403815Y-97696185D01*
X112500506Y-97775537D01*
X112610820Y-97834502D01*
X112730518Y-97870812D01*
X112855000Y-97883072D01*
X113069250Y-97880000D01*
X113228000Y-97721250D01*
X113228000Y-96647000D01*
X112378750Y-96647000D01*
X112220000Y-96805750D01*
X112216928Y-97245000D01*
X69240000Y-97245000D01*
X69240000Y-95938000D01*
X107094928Y-95938000D01*
X107107188Y-96062482D01*
X107143498Y-96182180D01*
X107202463Y-96292494D01*
X107281815Y-96389185D01*
X107378506Y-96468537D01*
X107488820Y-96527502D01*
X107608518Y-96563812D01*
X107733000Y-96576072D01*
X108172250Y-96573000D01*
X108331000Y-96414250D01*
X108331000Y-95565000D01*
X108585000Y-95565000D01*
X108585000Y-96414250D01*
X108743750Y-96573000D01*
X109183000Y-96576072D01*
X109307482Y-96563812D01*
X109427180Y-96527502D01*
X109537494Y-96468537D01*
X109634185Y-96389185D01*
X109713537Y-96292494D01*
X109772502Y-96182180D01*
X109808812Y-96062482D01*
X109821072Y-95938000D01*
X109819022Y-95795000D01*
X112216928Y-95795000D01*
X112220000Y-96234250D01*
X112378750Y-96393000D01*
X113228000Y-96393000D01*
X113228000Y-95318750D01*
X113069250Y-95160000D01*
X112855000Y-95156928D01*
X112730518Y-95169188D01*
X112610820Y-95205498D01*
X112500506Y-95264463D01*
X112403815Y-95343815D01*
X112324463Y-95440506D01*
X112265498Y-95550820D01*
X112229188Y-95670518D01*
X112216928Y-95795000D01*
X109819022Y-95795000D01*
X109818000Y-95723750D01*
X109659250Y-95565000D01*
X108585000Y-95565000D01*
X108331000Y-95565000D01*
X107256750Y-95565000D01*
X107098000Y-95723750D01*
X107094928Y-95938000D01*
X69240000Y-95938000D01*
X69240000Y-94922000D01*
X104300928Y-94922000D01*
X104313188Y-95046482D01*
X104349498Y-95166180D01*
X104408463Y-95276494D01*
X104487815Y-95373185D01*
X104584506Y-95452537D01*
X104694820Y-95511502D01*
X104814518Y-95547812D01*
X104939000Y-95560072D01*
X105378250Y-95557000D01*
X105537000Y-95398250D01*
X105537000Y-94549000D01*
X105791000Y-94549000D01*
X105791000Y-95398250D01*
X105949750Y-95557000D01*
X106389000Y-95560072D01*
X106513482Y-95547812D01*
X106633180Y-95511502D01*
X106743494Y-95452537D01*
X106840185Y-95373185D01*
X106919537Y-95276494D01*
X106978502Y-95166180D01*
X107014812Y-95046482D01*
X107027072Y-94922000D01*
X107024000Y-94707750D01*
X106865250Y-94549000D01*
X105791000Y-94549000D01*
X105537000Y-94549000D01*
X104462750Y-94549000D01*
X104304000Y-94707750D01*
X104300928Y-94922000D01*
X69240000Y-94922000D01*
X69240000Y-94406438D01*
X71034250Y-94403400D01*
X71193000Y-94244650D01*
X71193000Y-93020400D01*
X71447000Y-93020400D01*
X71447000Y-94244650D01*
X71605750Y-94403400D01*
X73420000Y-94406472D01*
X73544482Y-94394212D01*
X73664180Y-94357902D01*
X73774494Y-94298937D01*
X73871185Y-94219585D01*
X73950537Y-94122894D01*
X74009502Y-94012580D01*
X74045812Y-93892882D01*
X74058072Y-93768400D01*
X74055000Y-93179150D01*
X73896250Y-93020400D01*
X71447000Y-93020400D01*
X71193000Y-93020400D01*
X71173000Y-93020400D01*
X71173000Y-92890000D01*
X88806928Y-92890000D01*
X88819188Y-93014482D01*
X88855498Y-93134180D01*
X88914463Y-93244494D01*
X88993815Y-93341185D01*
X89090506Y-93420537D01*
X89200820Y-93479502D01*
X89320518Y-93515812D01*
X89445000Y-93528072D01*
X89884250Y-93525000D01*
X90043000Y-93366250D01*
X90043000Y-92517000D01*
X90297000Y-92517000D01*
X90297000Y-93366250D01*
X90455750Y-93525000D01*
X90895000Y-93528072D01*
X91019482Y-93515812D01*
X91139180Y-93479502D01*
X91249494Y-93420537D01*
X91346185Y-93341185D01*
X91425537Y-93244494D01*
X91484502Y-93134180D01*
X91520812Y-93014482D01*
X91533072Y-92890000D01*
X91530000Y-92675750D01*
X91371250Y-92517000D01*
X90297000Y-92517000D01*
X90043000Y-92517000D01*
X88968750Y-92517000D01*
X88810000Y-92675750D01*
X88806928Y-92890000D01*
X71173000Y-92890000D01*
X71173000Y-92766400D01*
X71193000Y-92766400D01*
X71193000Y-91542150D01*
X71447000Y-91542150D01*
X71447000Y-92766400D01*
X73896250Y-92766400D01*
X74055000Y-92607650D01*
X74056353Y-92348000D01*
X93011928Y-92348000D01*
X93024188Y-92472482D01*
X93060498Y-92592180D01*
X93090335Y-92648000D01*
X93060498Y-92703820D01*
X93024188Y-92823518D01*
X93011928Y-92948000D01*
X93011928Y-93748000D01*
X93024188Y-93872482D01*
X93060498Y-93992180D01*
X93119463Y-94102494D01*
X93198815Y-94199185D01*
X93295506Y-94278537D01*
X93405820Y-94337502D01*
X93525518Y-94373812D01*
X93650000Y-94386072D01*
X94700000Y-94386072D01*
X94824482Y-94373812D01*
X94944180Y-94337502D01*
X95054494Y-94278537D01*
X95151185Y-94199185D01*
X95230537Y-94102494D01*
X95289502Y-93992180D01*
X95325812Y-93872482D01*
X95338072Y-93748000D01*
X95338072Y-92948000D01*
X95325812Y-92823518D01*
X95289502Y-92703820D01*
X95259665Y-92648000D01*
X95289502Y-92592180D01*
X95325812Y-92472482D01*
X95338072Y-92348000D01*
X95461928Y-92348000D01*
X95474188Y-92472482D01*
X95510498Y-92592180D01*
X95540335Y-92648000D01*
X95510498Y-92703820D01*
X95474188Y-92823518D01*
X95461928Y-92948000D01*
X95461928Y-93748000D01*
X95474188Y-93872482D01*
X95510498Y-93992180D01*
X95569463Y-94102494D01*
X95648815Y-94199185D01*
X95745506Y-94278537D01*
X95855820Y-94337502D01*
X95975518Y-94373812D01*
X96100000Y-94386072D01*
X97150000Y-94386072D01*
X97274482Y-94373812D01*
X97394180Y-94337502D01*
X97504494Y-94278537D01*
X97601185Y-94199185D01*
X97680537Y-94102494D01*
X97739502Y-93992180D01*
X97775812Y-93872482D01*
X97788072Y-93748000D01*
X97788072Y-92948000D01*
X97775812Y-92823518D01*
X97739502Y-92703820D01*
X97709665Y-92648000D01*
X97739502Y-92592180D01*
X97775812Y-92472482D01*
X97788072Y-92348000D01*
X97785000Y-92233750D01*
X97626250Y-92075000D01*
X96752000Y-92075000D01*
X96752000Y-92095000D01*
X96498000Y-92095000D01*
X96498000Y-92075000D01*
X95623750Y-92075000D01*
X95465000Y-92233750D01*
X95461928Y-92348000D01*
X95338072Y-92348000D01*
X95335000Y-92233750D01*
X95176250Y-92075000D01*
X94302000Y-92075000D01*
X94302000Y-92095000D01*
X94048000Y-92095000D01*
X94048000Y-92075000D01*
X93173750Y-92075000D01*
X93015000Y-92233750D01*
X93011928Y-92348000D01*
X74056353Y-92348000D01*
X74058072Y-92018400D01*
X74045812Y-91893918D01*
X74009502Y-91774220D01*
X73950537Y-91663906D01*
X73871185Y-91567215D01*
X73774494Y-91487863D01*
X73664180Y-91428898D01*
X73544482Y-91392588D01*
X73420000Y-91380328D01*
X71605750Y-91383400D01*
X71447000Y-91542150D01*
X71193000Y-91542150D01*
X71034250Y-91383400D01*
X69240000Y-91380362D01*
X69240000Y-91333593D01*
X69320000Y-91341472D01*
X72920000Y-91341472D01*
X73044482Y-91329212D01*
X73164180Y-91292902D01*
X73274494Y-91233937D01*
X73311704Y-91203400D01*
X76896641Y-91203400D01*
X76912038Y-91222162D01*
X77046614Y-91332605D01*
X77200150Y-91414672D01*
X77366746Y-91465208D01*
X77540000Y-91482272D01*
X78040000Y-91482272D01*
X78213254Y-91465208D01*
X78379850Y-91414672D01*
X78533386Y-91332605D01*
X78667962Y-91222162D01*
X78740000Y-91134383D01*
X78812038Y-91222162D01*
X78946614Y-91332605D01*
X79100150Y-91414672D01*
X79266746Y-91465208D01*
X79440000Y-91482272D01*
X79940000Y-91482272D01*
X80113254Y-91465208D01*
X80279850Y-91414672D01*
X80433386Y-91332605D01*
X80519356Y-91262052D01*
X84585462Y-91300304D01*
X84602725Y-91314471D01*
X84750858Y-91393650D01*
X84911592Y-91442408D01*
X85078750Y-91458872D01*
X85516250Y-91458872D01*
X85683408Y-91442408D01*
X85844142Y-91393650D01*
X85992275Y-91314471D01*
X86122115Y-91207915D01*
X86228671Y-91078075D01*
X86307850Y-90929942D01*
X86356608Y-90769208D01*
X86360000Y-90734769D01*
X86363392Y-90769208D01*
X86412150Y-90929942D01*
X86491329Y-91078075D01*
X86597885Y-91207915D01*
X86727725Y-91314471D01*
X86875858Y-91393650D01*
X87036592Y-91442408D01*
X87203750Y-91458872D01*
X87641250Y-91458872D01*
X87808408Y-91442408D01*
X87969142Y-91393650D01*
X88039954Y-91355800D01*
X89057057Y-91355800D01*
X89067038Y-91367962D01*
X89073594Y-91373342D01*
X88993815Y-91438815D01*
X88914463Y-91535506D01*
X88855498Y-91645820D01*
X88819188Y-91765518D01*
X88806928Y-91890000D01*
X88810000Y-92104250D01*
X88968750Y-92263000D01*
X90043000Y-92263000D01*
X90043000Y-92243000D01*
X90297000Y-92243000D01*
X90297000Y-92263000D01*
X91371250Y-92263000D01*
X91530000Y-92104250D01*
X91533072Y-91890000D01*
X91520812Y-91765518D01*
X91484502Y-91645820D01*
X91438095Y-91559000D01*
X93012224Y-91559000D01*
X93015000Y-91662250D01*
X93173750Y-91821000D01*
X94048000Y-91821000D01*
X94048000Y-91801000D01*
X94302000Y-91801000D01*
X94302000Y-91821000D01*
X95176250Y-91821000D01*
X95335000Y-91662250D01*
X95338072Y-91548000D01*
X95325812Y-91423518D01*
X95289502Y-91303820D01*
X95259665Y-91248000D01*
X95289502Y-91192180D01*
X95325812Y-91072482D01*
X95338072Y-90948000D01*
X95338072Y-90694315D01*
X95352577Y-90646499D01*
X95374491Y-90424000D01*
X95352577Y-90201501D01*
X95338072Y-90153685D01*
X95338072Y-90148000D01*
X95461928Y-90148000D01*
X95461928Y-90948000D01*
X95474188Y-91072482D01*
X95510498Y-91192180D01*
X95540335Y-91248000D01*
X95510498Y-91303820D01*
X95474188Y-91423518D01*
X95461928Y-91548000D01*
X95465000Y-91662250D01*
X95623750Y-91821000D01*
X96498000Y-91821000D01*
X96498000Y-91801000D01*
X96752000Y-91801000D01*
X96752000Y-91821000D01*
X97626250Y-91821000D01*
X97764250Y-91683000D01*
X102531916Y-91683000D01*
X102600150Y-91719472D01*
X102766746Y-91770008D01*
X102940000Y-91787072D01*
X103440000Y-91787072D01*
X103613254Y-91770008D01*
X103779850Y-91719472D01*
X103933386Y-91637405D01*
X104067962Y-91526962D01*
X104140000Y-91439183D01*
X104212038Y-91526962D01*
X104346614Y-91637405D01*
X104499442Y-91719094D01*
X104450595Y-91778614D01*
X104368528Y-91932150D01*
X104317992Y-92098746D01*
X104300928Y-92272000D01*
X104300928Y-92772000D01*
X104317992Y-92945254D01*
X104368528Y-93111850D01*
X104450595Y-93265386D01*
X104561038Y-93399962D01*
X104567594Y-93405342D01*
X104487815Y-93470815D01*
X104408463Y-93567506D01*
X104349498Y-93677820D01*
X104313188Y-93797518D01*
X104300928Y-93922000D01*
X104304000Y-94136250D01*
X104462750Y-94295000D01*
X105537000Y-94295000D01*
X105537000Y-94275000D01*
X105791000Y-94275000D01*
X105791000Y-94295000D01*
X106865250Y-94295000D01*
X107024000Y-94136250D01*
X107027072Y-93922000D01*
X107014812Y-93797518D01*
X106978502Y-93677820D01*
X106919537Y-93567506D01*
X106840185Y-93470815D01*
X106760406Y-93405342D01*
X106766962Y-93399962D01*
X106877405Y-93265386D01*
X106959472Y-93111850D01*
X107010008Y-92945254D01*
X107027072Y-92772000D01*
X107027072Y-92272000D01*
X107023641Y-92237161D01*
X107060802Y-92200000D01*
X108221199Y-92200000D01*
X108021271Y-92399928D01*
X107983000Y-92399928D01*
X107809746Y-92416992D01*
X107643150Y-92467528D01*
X107489614Y-92549595D01*
X107355038Y-92660038D01*
X107244595Y-92794614D01*
X107162528Y-92948150D01*
X107111992Y-93114746D01*
X107094928Y-93288000D01*
X107094928Y-93788000D01*
X107111992Y-93961254D01*
X107162528Y-94127850D01*
X107244595Y-94281386D01*
X107355038Y-94415962D01*
X107361594Y-94421342D01*
X107281815Y-94486815D01*
X107202463Y-94583506D01*
X107143498Y-94693820D01*
X107107188Y-94813518D01*
X107094928Y-94938000D01*
X107098000Y-95152250D01*
X107256750Y-95311000D01*
X108331000Y-95311000D01*
X108331000Y-95291000D01*
X108585000Y-95291000D01*
X108585000Y-95311000D01*
X109659250Y-95311000D01*
X109818000Y-95152250D01*
X109821072Y-94938000D01*
X109808812Y-94813518D01*
X109772502Y-94693820D01*
X109713537Y-94583506D01*
X109634185Y-94486815D01*
X109554406Y-94421342D01*
X109560962Y-94415962D01*
X109671405Y-94281386D01*
X109753472Y-94127850D01*
X109804008Y-93961254D01*
X109821072Y-93788000D01*
X109821072Y-93288000D01*
X109806253Y-93137545D01*
X109895046Y-93183239D01*
X110015296Y-93217677D01*
X110139954Y-93227994D01*
X110544250Y-93225000D01*
X110703000Y-93066250D01*
X110703000Y-92728072D01*
X110957000Y-92728072D01*
X110957000Y-93066250D01*
X111115750Y-93225000D01*
X111520046Y-93227994D01*
X111644704Y-93217677D01*
X111764954Y-93183239D01*
X111876174Y-93126003D01*
X111974092Y-93048169D01*
X112054943Y-92952727D01*
X112115621Y-92843346D01*
X112153794Y-92724229D01*
X112165000Y-92621750D01*
X112027725Y-92484475D01*
X112060537Y-92444494D01*
X112119502Y-92334180D01*
X112132753Y-92290497D01*
X112165000Y-92258250D01*
X112157898Y-92193302D01*
X112168072Y-92090000D01*
X112168072Y-91790000D01*
X112158223Y-91690000D01*
X112168072Y-91590000D01*
X112168072Y-91290000D01*
X112158223Y-91190000D01*
X112168072Y-91090000D01*
X112168072Y-90790000D01*
X112158223Y-90690000D01*
X112168072Y-90590000D01*
X112168072Y-90290000D01*
X112155812Y-90165518D01*
X112119502Y-90045820D01*
X112060537Y-89935506D01*
X111981185Y-89838815D01*
X111884494Y-89759463D01*
X111774180Y-89700498D01*
X111654482Y-89664188D01*
X111530000Y-89651928D01*
X111504637Y-89651928D01*
X111464974Y-89577724D01*
X111370001Y-89461999D01*
X111341002Y-89438200D01*
X111091145Y-89188343D01*
X111158405Y-89106386D01*
X111240472Y-88952850D01*
X111291008Y-88786254D01*
X111308072Y-88613000D01*
X111308072Y-88513804D01*
X111354577Y-88360499D01*
X111371000Y-88193752D01*
X111371000Y-83274131D01*
X112462632Y-82182500D01*
X113151833Y-82182500D01*
X113311743Y-82231008D01*
X113484997Y-82248072D01*
X116385003Y-82248072D01*
X116558257Y-82231008D01*
X116724852Y-82180472D01*
X116761281Y-82161000D01*
X119921928Y-82161000D01*
X119921928Y-82485000D01*
X119938992Y-82658254D01*
X119989528Y-82824850D01*
X120071595Y-82978386D01*
X120182038Y-83112962D01*
X120269817Y-83185000D01*
X120182038Y-83257038D01*
X120071595Y-83391614D01*
X119989528Y-83545150D01*
X119938992Y-83711746D01*
X119921928Y-83885000D01*
X119921928Y-84209000D01*
X116761281Y-84209000D01*
X116724852Y-84189528D01*
X116558257Y-84138992D01*
X116385003Y-84121928D01*
X113484997Y-84121928D01*
X113311743Y-84138992D01*
X113145148Y-84189528D01*
X112991612Y-84271595D01*
X112857037Y-84382037D01*
X112746595Y-84516612D01*
X112664528Y-84670148D01*
X112613992Y-84836743D01*
X112596928Y-85009997D01*
X112596928Y-85635003D01*
X112613992Y-85808257D01*
X112664528Y-85974852D01*
X112746595Y-86128388D01*
X112857037Y-86262963D01*
X112991612Y-86373405D01*
X113145148Y-86455472D01*
X113311743Y-86506008D01*
X113484997Y-86523072D01*
X113547796Y-86523072D01*
X112774860Y-87296009D01*
X112731552Y-87331551D01*
X112589717Y-87504377D01*
X112484324Y-87701553D01*
X112419423Y-87915501D01*
X112407612Y-88035423D01*
X112397509Y-88138000D01*
X112403000Y-88193751D01*
X112403000Y-88701751D01*
X112419423Y-88868498D01*
X112484324Y-89082446D01*
X112589716Y-89279623D01*
X112731551Y-89452449D01*
X112778001Y-89490569D01*
X112778000Y-90386677D01*
X112774324Y-90424000D01*
X112778000Y-90461322D01*
X112778000Y-90461332D01*
X112788997Y-90572985D01*
X112821459Y-90680000D01*
X112832454Y-90716246D01*
X112903026Y-90848276D01*
X112925944Y-90876201D01*
X112997999Y-90964001D01*
X113027002Y-90987803D01*
X113490200Y-91451002D01*
X113513999Y-91480001D01*
X113629724Y-91574974D01*
X113761753Y-91645546D01*
X113901576Y-91687960D01*
X113901777Y-91690000D01*
X113891928Y-91790000D01*
X113891928Y-92090000D01*
X113901777Y-92190000D01*
X113891928Y-92290000D01*
X113891928Y-92590000D01*
X113904188Y-92714482D01*
X113940498Y-92834180D01*
X113999463Y-92944494D01*
X114078815Y-93041185D01*
X114175506Y-93120537D01*
X114285820Y-93179502D01*
X114405518Y-93215812D01*
X114467054Y-93221873D01*
X114443805Y-93298510D01*
X114431000Y-93428523D01*
X114431000Y-93523267D01*
X114367717Y-93600377D01*
X114262325Y-93797553D01*
X114197424Y-94011501D01*
X114181001Y-94178248D01*
X114181001Y-95249233D01*
X114099180Y-95205498D01*
X113979482Y-95169188D01*
X113855000Y-95156928D01*
X113640750Y-95160000D01*
X113482000Y-95318750D01*
X113482000Y-96393000D01*
X113502000Y-96393000D01*
X113502000Y-96647000D01*
X113482000Y-96647000D01*
X113482000Y-97721250D01*
X113640750Y-97880000D01*
X113855000Y-97883072D01*
X113979482Y-97870812D01*
X114099180Y-97834502D01*
X114120000Y-97823373D01*
X114120001Y-101481415D01*
X114009906Y-101540263D01*
X113913215Y-101619615D01*
X113833863Y-101716306D01*
X113774898Y-101826620D01*
X113750434Y-101907266D01*
X113674669Y-101823212D01*
X113441320Y-101649159D01*
X113178499Y-101523975D01*
X113031290Y-101479324D01*
X112801400Y-101600645D01*
X112801400Y-102793800D01*
X112821400Y-102793800D01*
X112821400Y-103047800D01*
X112801400Y-103047800D01*
X112801400Y-104240955D01*
X113031290Y-104362276D01*
X113178499Y-104317625D01*
X113441320Y-104192441D01*
X113674669Y-104018388D01*
X113750434Y-103934334D01*
X113774898Y-104014980D01*
X113833863Y-104125294D01*
X113913215Y-104221985D01*
X114009906Y-104301337D01*
X114120220Y-104360302D01*
X114239918Y-104396612D01*
X114364400Y-104408872D01*
X116064400Y-104408872D01*
X116188882Y-104396612D01*
X116308580Y-104360302D01*
X116418894Y-104301337D01*
X116515585Y-104221985D01*
X116594937Y-104125294D01*
X116653902Y-104014980D01*
X116690212Y-103895282D01*
X116702472Y-103770800D01*
X116702472Y-102070800D01*
X116690212Y-101946318D01*
X116653902Y-101826620D01*
X116594937Y-101716306D01*
X116515585Y-101619615D01*
X116418894Y-101540263D01*
X116390000Y-101524819D01*
X116390000Y-97026191D01*
X116393072Y-96995000D01*
X116393072Y-96625321D01*
X116434577Y-96488499D01*
X116451000Y-96321752D01*
X116451000Y-94178248D01*
X116434577Y-94011501D01*
X116369676Y-93797553D01*
X116264284Y-93600377D01*
X116201000Y-93523265D01*
X116201000Y-93428523D01*
X116188195Y-93298510D01*
X116153955Y-93185637D01*
X116174180Y-93179502D01*
X116284494Y-93120537D01*
X116381185Y-93041185D01*
X116460537Y-92944494D01*
X116519502Y-92834180D01*
X116555812Y-92714482D01*
X116568072Y-92590000D01*
X116568072Y-92290000D01*
X116559208Y-92200000D01*
X117276890Y-92200000D01*
X117293528Y-92254850D01*
X117375595Y-92408386D01*
X117486038Y-92542962D01*
X117620614Y-92653405D01*
X117774150Y-92735472D01*
X117940746Y-92786008D01*
X118114000Y-92803072D01*
X118614000Y-92803072D01*
X118787254Y-92786008D01*
X118953850Y-92735472D01*
X119107386Y-92653405D01*
X119241962Y-92542962D01*
X119314000Y-92455183D01*
X119386038Y-92542962D01*
X119520614Y-92653405D01*
X119674150Y-92735472D01*
X119840746Y-92786008D01*
X120014000Y-92803072D01*
X120514000Y-92803072D01*
X120687254Y-92786008D01*
X120853850Y-92735472D01*
X121007386Y-92653405D01*
X121122449Y-92558976D01*
X121126499Y-92558577D01*
X121340447Y-92493676D01*
X121537623Y-92388284D01*
X121710449Y-92246449D01*
X121745996Y-92203136D01*
X122683140Y-91265992D01*
X122726449Y-91230449D01*
X122868284Y-91057623D01*
X122973676Y-90860447D01*
X122974418Y-90858000D01*
X129192928Y-90858000D01*
X129205188Y-90982482D01*
X129241498Y-91102180D01*
X129300463Y-91212494D01*
X129379815Y-91309185D01*
X129476506Y-91388537D01*
X129586820Y-91447502D01*
X129706518Y-91483812D01*
X129831000Y-91496072D01*
X130270250Y-91493000D01*
X130429000Y-91334250D01*
X130429000Y-90485000D01*
X130683000Y-90485000D01*
X130683000Y-91334250D01*
X130841750Y-91493000D01*
X131281000Y-91496072D01*
X131405482Y-91483812D01*
X131525180Y-91447502D01*
X131635494Y-91388537D01*
X131732185Y-91309185D01*
X131811537Y-91212494D01*
X131870502Y-91102180D01*
X131906812Y-90982482D01*
X131919072Y-90858000D01*
X131916000Y-90643750D01*
X131757250Y-90485000D01*
X130683000Y-90485000D01*
X130429000Y-90485000D01*
X129354750Y-90485000D01*
X129196000Y-90643750D01*
X129192928Y-90858000D01*
X122974418Y-90858000D01*
X123038577Y-90646499D01*
X123055000Y-90479752D01*
X123055000Y-90479751D01*
X123060491Y-90424000D01*
X123055000Y-90368249D01*
X123055000Y-89519195D01*
X123134248Y-89527000D01*
X124758539Y-89527000D01*
X124823613Y-89580405D01*
X124977148Y-89662472D01*
X125143744Y-89713008D01*
X125316998Y-89730072D01*
X125842002Y-89730072D01*
X126015256Y-89713008D01*
X126181852Y-89662472D01*
X126335387Y-89580405D01*
X126469962Y-89469962D01*
X126492000Y-89443109D01*
X126514038Y-89469962D01*
X126648613Y-89580405D01*
X126802148Y-89662472D01*
X126968744Y-89713008D01*
X127141998Y-89730072D01*
X127667002Y-89730072D01*
X127840256Y-89713008D01*
X128006852Y-89662472D01*
X128160387Y-89580405D01*
X128225461Y-89527000D01*
X129287905Y-89527000D01*
X129241498Y-89613820D01*
X129205188Y-89733518D01*
X129192928Y-89858000D01*
X129196000Y-90072250D01*
X129354750Y-90231000D01*
X130429000Y-90231000D01*
X130429000Y-90211000D01*
X130683000Y-90211000D01*
X130683000Y-90231000D01*
X131757250Y-90231000D01*
X131916000Y-90072250D01*
X131919072Y-89858000D01*
X131906812Y-89733518D01*
X131870502Y-89613820D01*
X131859373Y-89593000D01*
X132213176Y-89593000D01*
X132343148Y-89662472D01*
X132509744Y-89713008D01*
X132682998Y-89730072D01*
X133208002Y-89730072D01*
X133381256Y-89713008D01*
X133547852Y-89662472D01*
X133701387Y-89580405D01*
X133835962Y-89469962D01*
X133858000Y-89443109D01*
X133880038Y-89469962D01*
X134014613Y-89580405D01*
X134168148Y-89662472D01*
X134334744Y-89713008D01*
X134507998Y-89730072D01*
X134755000Y-89730072D01*
X134755000Y-90622248D01*
X134749509Y-90678000D01*
X134764271Y-90827882D01*
X134771423Y-90900498D01*
X134836324Y-91114446D01*
X134941716Y-91311623D01*
X135083551Y-91484449D01*
X135126865Y-91519996D01*
X137080009Y-93473141D01*
X137115551Y-93516449D01*
X137288377Y-93658284D01*
X137456225Y-93748000D01*
X137485553Y-93763676D01*
X137699501Y-93828577D01*
X137922000Y-93850491D01*
X137977751Y-93845000D01*
X144309869Y-93845000D01*
X144476271Y-94011403D01*
X144486992Y-94120254D01*
X144537528Y-94286850D01*
X144619595Y-94440386D01*
X144730038Y-94574962D01*
X144864614Y-94685405D01*
X145018150Y-94767472D01*
X145184746Y-94818008D01*
X145358000Y-94835072D01*
X145858000Y-94835072D01*
X146031254Y-94818008D01*
X146197850Y-94767472D01*
X146351386Y-94685405D01*
X146485962Y-94574962D01*
X146558000Y-94487183D01*
X146630038Y-94574962D01*
X146764614Y-94685405D01*
X146918150Y-94767472D01*
X147084746Y-94818008D01*
X147258000Y-94835072D01*
X147758000Y-94835072D01*
X147931254Y-94818008D01*
X148097850Y-94767472D01*
X148251386Y-94685405D01*
X148385962Y-94574962D01*
X148496405Y-94440386D01*
X148578472Y-94286850D01*
X148629008Y-94120254D01*
X148646072Y-93947000D01*
X148646072Y-92997000D01*
X148629008Y-92823746D01*
X148578472Y-92657150D01*
X148496405Y-92503614D01*
X148393000Y-92377614D01*
X148393000Y-91254481D01*
X148422313Y-91245589D01*
X148427157Y-91243000D01*
X149845265Y-91243000D01*
X149922377Y-91306284D01*
X150119553Y-91411676D01*
X150333501Y-91476577D01*
X150500248Y-91493000D01*
X155540281Y-91493000D01*
X155578763Y-91564994D01*
X155658115Y-91661685D01*
X155754806Y-91741037D01*
X155865120Y-91800002D01*
X155984818Y-91836312D01*
X156109300Y-91848572D01*
X157809300Y-91848572D01*
X157933782Y-91836312D01*
X158053480Y-91800002D01*
X158163794Y-91741037D01*
X158260485Y-91661685D01*
X158339837Y-91564994D01*
X158398802Y-91454680D01*
X158435112Y-91334982D01*
X158447372Y-91210500D01*
X158447372Y-89510500D01*
X158435112Y-89386018D01*
X158398802Y-89266320D01*
X158339837Y-89156006D01*
X158260485Y-89059315D01*
X158163794Y-88979963D01*
X158053480Y-88920998D01*
X157972834Y-88896534D01*
X158056888Y-88820769D01*
X158230941Y-88587420D01*
X158356125Y-88324599D01*
X158400776Y-88177390D01*
X158279455Y-87947500D01*
X157086300Y-87947500D01*
X157086300Y-87967500D01*
X156832300Y-87967500D01*
X156832300Y-87947500D01*
X155639145Y-87947500D01*
X155517824Y-88177390D01*
X155562475Y-88324599D01*
X155687659Y-88587420D01*
X155861712Y-88820769D01*
X155945766Y-88896534D01*
X155865120Y-88920998D01*
X155754806Y-88979963D01*
X155658115Y-89059315D01*
X155578763Y-89156006D01*
X155542953Y-89223000D01*
X150500248Y-89223000D01*
X150333501Y-89239423D01*
X150119553Y-89304324D01*
X149922377Y-89409716D01*
X149845265Y-89473000D01*
X148233373Y-89473000D01*
X148178180Y-89443498D01*
X148061159Y-89408000D01*
X148178180Y-89372502D01*
X148288494Y-89313537D01*
X148385185Y-89234185D01*
X148464537Y-89137494D01*
X148523502Y-89027180D01*
X148559812Y-88907482D01*
X148572072Y-88783000D01*
X148572072Y-88421553D01*
X148582000Y-88320751D01*
X148582000Y-87463610D01*
X155517824Y-87463610D01*
X155639145Y-87693500D01*
X156832300Y-87693500D01*
X156832300Y-86499686D01*
X157086300Y-86499686D01*
X157086300Y-87693500D01*
X158279455Y-87693500D01*
X158400776Y-87463610D01*
X158356125Y-87316401D01*
X158230941Y-87053580D01*
X158056888Y-86820231D01*
X157840655Y-86625322D01*
X157590552Y-86476343D01*
X157316191Y-86379019D01*
X157086300Y-86499686D01*
X156832300Y-86499686D01*
X156602409Y-86379019D01*
X156328048Y-86476343D01*
X156077945Y-86625322D01*
X155861712Y-86820231D01*
X155687659Y-87053580D01*
X155562475Y-87316401D01*
X155517824Y-87463610D01*
X148582000Y-87463610D01*
X148582000Y-87431751D01*
X148587491Y-87375999D01*
X148565577Y-87153501D01*
X148500676Y-86939553D01*
X148448815Y-86842528D01*
X148395284Y-86742377D01*
X148253449Y-86569551D01*
X148210141Y-86534009D01*
X143058496Y-81382365D01*
X143022949Y-81339051D01*
X142850123Y-81197216D01*
X142652947Y-81091824D01*
X142438999Y-81026923D01*
X142272252Y-81010500D01*
X142272251Y-81010500D01*
X142216500Y-81005009D01*
X142160749Y-81010500D01*
X126969936Y-81010500D01*
X126928447Y-80988324D01*
X126714499Y-80923423D01*
X126547752Y-80907000D01*
X126547751Y-80907000D01*
X126491999Y-80901509D01*
X126436248Y-80907000D01*
X121882132Y-80907000D01*
X121237996Y-80262864D01*
X121202449Y-80219551D01*
X121029623Y-80077716D01*
X120832447Y-79972324D01*
X120618499Y-79907423D01*
X120451752Y-79891000D01*
X120451751Y-79891000D01*
X120396000Y-79885509D01*
X120340249Y-79891000D01*
X116647291Y-79891000D01*
X116558257Y-79863992D01*
X116385003Y-79846928D01*
X115435000Y-79846928D01*
X115435000Y-78273220D01*
X115482008Y-78118254D01*
X115499072Y-77945000D01*
X115499072Y-76995000D01*
X115482008Y-76821746D01*
X115435000Y-76666780D01*
X115435000Y-73568072D01*
X116026000Y-73568072D01*
X116199254Y-73551008D01*
X116365850Y-73500472D01*
X116519386Y-73418405D01*
X116653962Y-73307962D01*
X116764405Y-73173386D01*
X116846472Y-73019850D01*
X116897008Y-72853254D01*
X116914072Y-72680000D01*
X116914072Y-70830000D01*
X116897008Y-70656746D01*
X116846472Y-70490150D01*
X116764405Y-70336614D01*
X116653962Y-70202038D01*
X116519386Y-70091595D01*
X116373500Y-70013617D01*
X116373500Y-65468162D01*
X116374620Y-65467822D01*
X116484934Y-65408857D01*
X116581625Y-65329505D01*
X116660977Y-65232814D01*
X116719942Y-65122500D01*
X116744406Y-65041854D01*
X116820171Y-65125908D01*
X117053520Y-65299961D01*
X117316341Y-65425145D01*
X117463550Y-65469796D01*
X117693440Y-65348475D01*
X117693440Y-64155320D01*
X117947440Y-64155320D01*
X117947440Y-65348475D01*
X118177330Y-65469796D01*
X118324539Y-65425145D01*
X118587360Y-65299961D01*
X118820709Y-65125908D01*
X119015618Y-64909675D01*
X119164597Y-64659572D01*
X119261921Y-64385211D01*
X119141254Y-64155320D01*
X117947440Y-64155320D01*
X117693440Y-64155320D01*
X117673440Y-64155320D01*
X117673440Y-63901320D01*
X117693440Y-63901320D01*
X117693440Y-62708165D01*
X117947440Y-62708165D01*
X117947440Y-63901320D01*
X119141254Y-63901320D01*
X119261921Y-63671429D01*
X119164597Y-63397068D01*
X119015618Y-63146965D01*
X118820709Y-62930732D01*
X118587360Y-62756679D01*
X118324539Y-62631495D01*
X118177330Y-62586844D01*
X117947440Y-62708165D01*
X117693440Y-62708165D01*
X117463550Y-62586844D01*
X117316341Y-62631495D01*
X117053520Y-62756679D01*
X116820171Y-62930732D01*
X116744406Y-63014786D01*
X116719942Y-62934140D01*
X116660977Y-62823826D01*
X116581625Y-62727135D01*
X116484934Y-62647783D01*
X116374620Y-62588818D01*
X116254922Y-62552508D01*
X116130440Y-62540248D01*
X114430440Y-62540248D01*
X114305958Y-62552508D01*
X114186260Y-62588818D01*
X114075946Y-62647783D01*
X113979255Y-62727135D01*
X113899903Y-62823826D01*
X113840938Y-62934140D01*
X113804628Y-63053838D01*
X113792368Y-63178320D01*
X113792368Y-64878320D01*
X113804628Y-65002802D01*
X113840938Y-65122500D01*
X113899903Y-65232814D01*
X113979255Y-65329505D01*
X114075946Y-65408857D01*
X114103501Y-65423586D01*
X114103500Y-70013617D01*
X113957614Y-70091595D01*
X113823038Y-70202038D01*
X113712595Y-70336614D01*
X113630528Y-70490150D01*
X113579992Y-70656746D01*
X113562928Y-70830000D01*
X113562928Y-72029941D01*
X113536864Y-72056004D01*
X113493551Y-72091551D01*
X113351716Y-72264377D01*
X113246325Y-72461553D01*
X113246324Y-72461554D01*
X113181423Y-72675502D01*
X113159509Y-72898000D01*
X113165000Y-72953752D01*
X113165000Y-76143310D01*
X113085482Y-76119188D01*
X112961000Y-76106928D01*
X112746750Y-76110000D01*
X112588000Y-76268750D01*
X112588000Y-77343000D01*
X112608000Y-77343000D01*
X112608000Y-77597000D01*
X112588000Y-77597000D01*
X112588000Y-78671250D01*
X112746750Y-78830000D01*
X112961000Y-78833072D01*
X113085482Y-78820812D01*
X113165001Y-78796690D01*
X113165001Y-79908506D01*
X113151833Y-79912500D01*
X112048251Y-79912500D01*
X111992499Y-79907009D01*
X111770000Y-79928923D01*
X111720205Y-79944029D01*
X111556053Y-79993824D01*
X111358877Y-80099216D01*
X111186051Y-80241051D01*
X111150509Y-80284360D01*
X109472865Y-81962004D01*
X109429551Y-81997551D01*
X109287716Y-82170377D01*
X109182325Y-82367553D01*
X109182324Y-82367554D01*
X109117423Y-82581502D01*
X109095509Y-82804000D01*
X109101000Y-82859752D01*
X109101001Y-86869905D01*
X109014180Y-86823498D01*
X108894482Y-86787188D01*
X108770000Y-86774928D01*
X108555750Y-86778000D01*
X108397000Y-86936750D01*
X108397000Y-88011000D01*
X108417000Y-88011000D01*
X108417000Y-88265000D01*
X108397000Y-88265000D01*
X108397000Y-89339250D01*
X108555750Y-89498000D01*
X108770000Y-89501072D01*
X108894482Y-89488812D01*
X109014180Y-89452502D01*
X109124494Y-89393537D01*
X109221185Y-89314185D01*
X109286658Y-89234406D01*
X109292038Y-89240962D01*
X109426614Y-89351405D01*
X109475333Y-89377446D01*
X109472324Y-89408000D01*
X109476000Y-89445322D01*
X109476000Y-89445332D01*
X109486997Y-89556985D01*
X109529413Y-89696815D01*
X109530454Y-89700246D01*
X109601026Y-89832276D01*
X109640871Y-89880826D01*
X109642604Y-89882938D01*
X109599463Y-89935506D01*
X109540498Y-90045820D01*
X109504188Y-90165518D01*
X109503550Y-90172000D01*
X109026802Y-90172000D01*
X108767803Y-89913002D01*
X108744001Y-89883999D01*
X108628276Y-89789026D01*
X108496247Y-89718454D01*
X108352986Y-89674997D01*
X108241333Y-89664000D01*
X108241322Y-89664000D01*
X108204000Y-89660324D01*
X108166678Y-89664000D01*
X106177110Y-89664000D01*
X106160472Y-89609150D01*
X106078405Y-89455614D01*
X105967962Y-89321038D01*
X105833386Y-89210595D01*
X105679850Y-89128528D01*
X105513254Y-89077992D01*
X105340000Y-89060928D01*
X104840000Y-89060928D01*
X104666746Y-89077992D01*
X104500150Y-89128528D01*
X104346614Y-89210595D01*
X104212038Y-89321038D01*
X104140000Y-89408817D01*
X104067962Y-89321038D01*
X103933386Y-89210595D01*
X103779850Y-89128528D01*
X103613254Y-89077992D01*
X103440000Y-89060928D01*
X102940000Y-89060928D01*
X102766746Y-89077992D01*
X102600150Y-89128528D01*
X102446614Y-89210595D01*
X102312038Y-89321038D01*
X102236567Y-89413000D01*
X102121986Y-89413000D01*
X102127502Y-89402680D01*
X102163812Y-89282982D01*
X102176072Y-89158500D01*
X102173000Y-88931750D01*
X102104250Y-88863000D01*
X107131928Y-88863000D01*
X107144188Y-88987482D01*
X107180498Y-89107180D01*
X107239463Y-89217494D01*
X107318815Y-89314185D01*
X107415506Y-89393537D01*
X107525820Y-89452502D01*
X107645518Y-89488812D01*
X107770000Y-89501072D01*
X107984250Y-89498000D01*
X108143000Y-89339250D01*
X108143000Y-88265000D01*
X107293750Y-88265000D01*
X107135000Y-88423750D01*
X107131928Y-88863000D01*
X102104250Y-88863000D01*
X102014250Y-88773000D01*
X100965000Y-88773000D01*
X100965000Y-88793000D01*
X100711000Y-88793000D01*
X100711000Y-88773000D01*
X99661750Y-88773000D01*
X99503000Y-88931750D01*
X99499928Y-89158500D01*
X99512188Y-89282982D01*
X99548498Y-89402680D01*
X99554014Y-89413000D01*
X96569248Y-89413000D01*
X96402501Y-89429423D01*
X96188553Y-89494324D01*
X96159360Y-89509928D01*
X96100000Y-89509928D01*
X95975518Y-89522188D01*
X95855820Y-89558498D01*
X95745506Y-89617463D01*
X95648815Y-89696815D01*
X95569463Y-89793506D01*
X95510498Y-89903820D01*
X95474188Y-90023518D01*
X95461928Y-90148000D01*
X95338072Y-90148000D01*
X95325812Y-90023518D01*
X95289502Y-89903820D01*
X95230537Y-89793506D01*
X95151185Y-89696815D01*
X95054494Y-89617463D01*
X95013907Y-89595768D01*
X94867623Y-89475716D01*
X94670447Y-89370324D01*
X94456499Y-89305423D01*
X94289752Y-89289000D01*
X90620509Y-89289000D01*
X90600423Y-89272516D01*
X90403247Y-89167124D01*
X90189299Y-89102223D01*
X90022552Y-89085800D01*
X90022551Y-89085800D01*
X89966800Y-89080309D01*
X89911049Y-89085800D01*
X88039954Y-89085800D01*
X87969142Y-89047950D01*
X87808408Y-88999192D01*
X87641250Y-88982728D01*
X87203750Y-88982728D01*
X87036592Y-88999192D01*
X86875858Y-89047950D01*
X86727725Y-89127129D01*
X86597885Y-89233685D01*
X86491329Y-89363525D01*
X86412150Y-89511658D01*
X86363392Y-89672392D01*
X86360000Y-89706831D01*
X86356608Y-89672392D01*
X86307850Y-89511658D01*
X86228671Y-89363525D01*
X86122115Y-89233685D01*
X85992275Y-89127129D01*
X85844142Y-89047950D01*
X85683408Y-88999192D01*
X85516250Y-88982728D01*
X85078750Y-88982728D01*
X84911592Y-88999192D01*
X84802625Y-89032247D01*
X80538590Y-88992133D01*
X80433386Y-88905795D01*
X80279850Y-88823728D01*
X80113254Y-88773192D01*
X79940000Y-88756128D01*
X79440000Y-88756128D01*
X79266746Y-88773192D01*
X79100150Y-88823728D01*
X78946614Y-88905795D01*
X78812038Y-89016238D01*
X78740000Y-89104017D01*
X78667962Y-89016238D01*
X78533386Y-88905795D01*
X78379850Y-88823728D01*
X78213254Y-88773192D01*
X78040000Y-88756128D01*
X77540000Y-88756128D01*
X77366746Y-88773192D01*
X77200150Y-88823728D01*
X77046614Y-88905795D01*
X77012977Y-88933400D01*
X73311704Y-88933400D01*
X73274494Y-88902863D01*
X73164180Y-88843898D01*
X73044482Y-88807588D01*
X72920000Y-88795328D01*
X69320000Y-88795328D01*
X69240000Y-88803207D01*
X69240000Y-88756438D01*
X71034250Y-88753400D01*
X71193000Y-88594650D01*
X71193000Y-87370400D01*
X71447000Y-87370400D01*
X71447000Y-88594650D01*
X71605750Y-88753400D01*
X73420000Y-88756472D01*
X73544482Y-88744212D01*
X73664180Y-88707902D01*
X73774494Y-88648937D01*
X73871185Y-88569585D01*
X73950537Y-88472894D01*
X74009502Y-88362580D01*
X74045812Y-88242882D01*
X74056584Y-88133500D01*
X99499928Y-88133500D01*
X99503000Y-88360250D01*
X99661750Y-88519000D01*
X100711000Y-88519000D01*
X100711000Y-87657250D01*
X100965000Y-87657250D01*
X100965000Y-88519000D01*
X102014250Y-88519000D01*
X102173000Y-88360250D01*
X102176072Y-88133500D01*
X102163812Y-88009018D01*
X102127502Y-87889320D01*
X102068537Y-87779006D01*
X101989185Y-87682315D01*
X101892494Y-87602963D01*
X101782180Y-87543998D01*
X101662482Y-87507688D01*
X101538000Y-87495428D01*
X101123750Y-87498500D01*
X100965000Y-87657250D01*
X100711000Y-87657250D01*
X100552250Y-87498500D01*
X100138000Y-87495428D01*
X100013518Y-87507688D01*
X99893820Y-87543998D01*
X99783506Y-87602963D01*
X99686815Y-87682315D01*
X99607463Y-87779006D01*
X99548498Y-87889320D01*
X99512188Y-88009018D01*
X99499928Y-88133500D01*
X74056584Y-88133500D01*
X74058072Y-88118400D01*
X74055000Y-87529150D01*
X73938850Y-87413000D01*
X107131928Y-87413000D01*
X107135000Y-87852250D01*
X107293750Y-88011000D01*
X108143000Y-88011000D01*
X108143000Y-86936750D01*
X107984250Y-86778000D01*
X107770000Y-86774928D01*
X107645518Y-86787188D01*
X107525820Y-86823498D01*
X107415506Y-86882463D01*
X107318815Y-86961815D01*
X107239463Y-87058506D01*
X107180498Y-87168820D01*
X107144188Y-87288518D01*
X107131928Y-87413000D01*
X73938850Y-87413000D01*
X73896250Y-87370400D01*
X71447000Y-87370400D01*
X71193000Y-87370400D01*
X71173000Y-87370400D01*
X71173000Y-87116400D01*
X71193000Y-87116400D01*
X71193000Y-85892150D01*
X71447000Y-85892150D01*
X71447000Y-87116400D01*
X73896250Y-87116400D01*
X74055000Y-86957650D01*
X74058072Y-86368400D01*
X74045812Y-86243918D01*
X74009502Y-86124220D01*
X73950537Y-86013906D01*
X73871185Y-85917215D01*
X73774494Y-85837863D01*
X73664180Y-85778898D01*
X73544482Y-85742588D01*
X73420000Y-85730328D01*
X71605750Y-85733400D01*
X71447000Y-85892150D01*
X71193000Y-85892150D01*
X71034250Y-85733400D01*
X69240000Y-85730362D01*
X69240000Y-78195000D01*
X111322928Y-78195000D01*
X111335188Y-78319482D01*
X111371498Y-78439180D01*
X111430463Y-78549494D01*
X111509815Y-78646185D01*
X111606506Y-78725537D01*
X111716820Y-78784502D01*
X111836518Y-78820812D01*
X111961000Y-78833072D01*
X112175250Y-78830000D01*
X112334000Y-78671250D01*
X112334000Y-77597000D01*
X111484750Y-77597000D01*
X111326000Y-77755750D01*
X111322928Y-78195000D01*
X69240000Y-78195000D01*
X69240000Y-76745000D01*
X111322928Y-76745000D01*
X111326000Y-77184250D01*
X111484750Y-77343000D01*
X112334000Y-77343000D01*
X112334000Y-76268750D01*
X112175250Y-76110000D01*
X111961000Y-76106928D01*
X111836518Y-76119188D01*
X111716820Y-76155498D01*
X111606506Y-76214463D01*
X111509815Y-76293815D01*
X111430463Y-76390506D01*
X111371498Y-76500820D01*
X111335188Y-76620518D01*
X111322928Y-76745000D01*
X69240000Y-76745000D01*
X69240000Y-72930000D01*
X108637928Y-72930000D01*
X108650188Y-73054482D01*
X108686498Y-73174180D01*
X108745463Y-73284494D01*
X108824815Y-73381185D01*
X108921506Y-73460537D01*
X109031820Y-73519502D01*
X109151518Y-73555812D01*
X109276000Y-73568072D01*
X110027750Y-73565000D01*
X110186500Y-73406250D01*
X110186500Y-71882000D01*
X110440500Y-71882000D01*
X110440500Y-73406250D01*
X110599250Y-73565000D01*
X111351000Y-73568072D01*
X111475482Y-73555812D01*
X111595180Y-73519502D01*
X111705494Y-73460537D01*
X111802185Y-73381185D01*
X111881537Y-73284494D01*
X111940502Y-73174180D01*
X111976812Y-73054482D01*
X111989072Y-72930000D01*
X111986000Y-72040750D01*
X111827250Y-71882000D01*
X110440500Y-71882000D01*
X110186500Y-71882000D01*
X108799750Y-71882000D01*
X108641000Y-72040750D01*
X108637928Y-72930000D01*
X69240000Y-72930000D01*
X69240000Y-70580000D01*
X108637928Y-70580000D01*
X108641000Y-71469250D01*
X108799750Y-71628000D01*
X110186500Y-71628000D01*
X110186500Y-70103750D01*
X110440500Y-70103750D01*
X110440500Y-71628000D01*
X111827250Y-71628000D01*
X111986000Y-71469250D01*
X111989072Y-70580000D01*
X111976812Y-70455518D01*
X111940502Y-70335820D01*
X111881537Y-70225506D01*
X111802185Y-70128815D01*
X111705494Y-70049463D01*
X111595180Y-69990498D01*
X111475482Y-69954188D01*
X111351000Y-69941928D01*
X110599250Y-69945000D01*
X110440500Y-70103750D01*
X110186500Y-70103750D01*
X110027750Y-69945000D01*
X109276000Y-69941928D01*
X109151518Y-69954188D01*
X109031820Y-69990498D01*
X108921506Y-70049463D01*
X108824815Y-70128815D01*
X108745463Y-70225506D01*
X108686498Y-70335820D01*
X108650188Y-70455518D01*
X108637928Y-70580000D01*
X69240000Y-70580000D01*
X69240000Y-62059117D01*
X70655000Y-62059117D01*
X70655000Y-62400883D01*
X70721675Y-62736081D01*
X70852463Y-63051831D01*
X71042337Y-63335998D01*
X71284002Y-63577663D01*
X71568169Y-63767537D01*
X71883919Y-63898325D01*
X72219117Y-63965000D01*
X72560883Y-63965000D01*
X72896081Y-63898325D01*
X73211831Y-63767537D01*
X73495998Y-63577663D01*
X73737663Y-63335998D01*
X73927537Y-63051831D01*
X74058325Y-62736081D01*
X74125000Y-62400883D01*
X74125000Y-62059117D01*
X157015000Y-62059117D01*
X157015000Y-62400883D01*
X157081675Y-62736081D01*
X157212463Y-63051831D01*
X157402337Y-63335998D01*
X157644002Y-63577663D01*
X157928169Y-63767537D01*
X158243919Y-63898325D01*
X158579117Y-63965000D01*
X158920883Y-63965000D01*
X159256081Y-63898325D01*
X159571831Y-63767537D01*
X159855998Y-63577663D01*
X160097663Y-63335998D01*
X160287537Y-63051831D01*
X160418325Y-62736081D01*
X160485000Y-62400883D01*
X160485000Y-62059117D01*
X160418325Y-61723919D01*
X160287537Y-61408169D01*
X160097663Y-61124002D01*
X159855998Y-60882337D01*
X159571831Y-60692463D01*
X159256081Y-60561675D01*
X158920883Y-60495000D01*
X158579117Y-60495000D01*
X158243919Y-60561675D01*
X157928169Y-60692463D01*
X157644002Y-60882337D01*
X157402337Y-61124002D01*
X157212463Y-61408169D01*
X157081675Y-61723919D01*
X157015000Y-62059117D01*
X74125000Y-62059117D01*
X74058325Y-61723919D01*
X73927537Y-61408169D01*
X73737663Y-61124002D01*
X73495998Y-60882337D01*
X73211831Y-60692463D01*
X72896081Y-60561675D01*
X72560883Y-60495000D01*
X72219117Y-60495000D01*
X71883919Y-60561675D01*
X71568169Y-60692463D01*
X71284002Y-60882337D01*
X71042337Y-61124002D01*
X70852463Y-61408169D01*
X70721675Y-61723919D01*
X70655000Y-62059117D01*
X69240000Y-62059117D01*
X69240000Y-59080000D01*
X161900001Y-59080000D01*
X161900000Y-108560000D01*
G37*
%TD.AperFunction*%
D21*
X144429820Y-89372502D02*
X144546841Y-89408000D01*
X144429820Y-89443498D01*
X144319506Y-89502463D01*
X144279859Y-89535000D01*
X144197750Y-89535000D01*
X144039000Y-89693750D01*
X144035928Y-89733000D01*
X144048188Y-89857482D01*
X144055929Y-89883000D01*
X144048188Y-89908518D01*
X144035928Y-90033000D01*
X144035928Y-90192663D01*
X143958412Y-90337687D01*
X143907805Y-90504510D01*
X143890719Y-90678000D01*
X143895001Y-90721479D01*
X143895001Y-91575000D01*
X138392132Y-91575000D01*
X137025000Y-90207869D01*
X137025000Y-89730072D01*
X137272002Y-89730072D01*
X137445256Y-89713008D01*
X137611852Y-89662472D01*
X137765387Y-89580405D01*
X137899962Y-89469962D01*
X137922000Y-89443109D01*
X137944038Y-89469962D01*
X138078613Y-89580405D01*
X138232148Y-89662472D01*
X138398744Y-89713008D01*
X138571998Y-89730072D01*
X139097002Y-89730072D01*
X139270256Y-89713008D01*
X139436852Y-89662472D01*
X139590387Y-89580405D01*
X139655461Y-89527000D01*
X141279752Y-89527000D01*
X141446499Y-89510577D01*
X141599804Y-89464072D01*
X141699000Y-89464072D01*
X141872254Y-89447008D01*
X142038850Y-89396472D01*
X142138889Y-89343000D01*
X144374627Y-89343000D01*
X144429820Y-89372502D01*
%TA.AperFunction,Conductor*%
D22*
G36*
X144429820Y-89372502D02*
G01*
X144546841Y-89408000D01*
X144429820Y-89443498D01*
X144319506Y-89502463D01*
X144279859Y-89535000D01*
X144197750Y-89535000D01*
X144039000Y-89693750D01*
X144035928Y-89733000D01*
X144048188Y-89857482D01*
X144055929Y-89883000D01*
X144048188Y-89908518D01*
X144035928Y-90033000D01*
X144035928Y-90192663D01*
X143958412Y-90337687D01*
X143907805Y-90504510D01*
X143890719Y-90678000D01*
X143895001Y-90721479D01*
X143895001Y-91575000D01*
X138392132Y-91575000D01*
X137025000Y-90207869D01*
X137025000Y-89730072D01*
X137272002Y-89730072D01*
X137445256Y-89713008D01*
X137611852Y-89662472D01*
X137765387Y-89580405D01*
X137899962Y-89469962D01*
X137922000Y-89443109D01*
X137944038Y-89469962D01*
X138078613Y-89580405D01*
X138232148Y-89662472D01*
X138398744Y-89713008D01*
X138571998Y-89730072D01*
X139097002Y-89730072D01*
X139270256Y-89713008D01*
X139436852Y-89662472D01*
X139590387Y-89580405D01*
X139655461Y-89527000D01*
X141279752Y-89527000D01*
X141446499Y-89510577D01*
X141599804Y-89464072D01*
X141699000Y-89464072D01*
X141872254Y-89447008D01*
X142038850Y-89396472D01*
X142138889Y-89343000D01*
X144374627Y-89343000D01*
X144429820Y-89372502D01*
G37*
%TD.AperFunction*%
D21*
X146422815Y-89234185D02*
X146519506Y-89313537D01*
X146629820Y-89372502D01*
X146746841Y-89408000D01*
X146629820Y-89443498D01*
X146519506Y-89502463D01*
X146422815Y-89581815D01*
X146348103Y-89672853D01*
X146210250Y-89535000D01*
X146128141Y-89535000D01*
X146088494Y-89502463D01*
X145978180Y-89443498D01*
X145861159Y-89408000D01*
X145978180Y-89372502D01*
X146088494Y-89313537D01*
X146128141Y-89281000D01*
X146210250Y-89281000D01*
X146348103Y-89143147D01*
X146422815Y-89234185D01*
%TA.AperFunction,Conductor*%
D22*
G36*
X146422815Y-89234185D02*
G01*
X146519506Y-89313537D01*
X146629820Y-89372502D01*
X146746841Y-89408000D01*
X146629820Y-89443498D01*
X146519506Y-89502463D01*
X146422815Y-89581815D01*
X146348103Y-89672853D01*
X146210250Y-89535000D01*
X146128141Y-89535000D01*
X146088494Y-89502463D01*
X145978180Y-89443498D01*
X145861159Y-89408000D01*
X145978180Y-89372502D01*
X146088494Y-89313537D01*
X146128141Y-89281000D01*
X146210250Y-89281000D01*
X146348103Y-89143147D01*
X146422815Y-89234185D01*
G37*
%TD.AperFunction*%
D21*
X146308947Y-87843079D02*
X146304000Y-87852335D01*
X146287690Y-87821822D01*
X146308947Y-87843079D01*
%TA.AperFunction,Conductor*%
D22*
G36*
X146308947Y-87843079D02*
G01*
X146304000Y-87852335D01*
X146287690Y-87821822D01*
X146308947Y-87843079D01*
G37*
%TD.AperFunction*%
D21*
X146045178Y-87579310D02*
X145978180Y-87543498D01*
X145858482Y-87507188D01*
X145734000Y-87494928D01*
X144674000Y-87494928D01*
X144549518Y-87507188D01*
X144429820Y-87543498D01*
X144374627Y-87573000D01*
X142429515Y-87573000D01*
X142326962Y-87448038D01*
X142320406Y-87442658D01*
X142400185Y-87377185D01*
X142479537Y-87280494D01*
X142538502Y-87170180D01*
X142574812Y-87050482D01*
X142587072Y-86926000D01*
X142584000Y-86711750D01*
X142425250Y-86553000D01*
X141351000Y-86553000D01*
X141351000Y-86573000D01*
X141097000Y-86573000D01*
X141097000Y-86553000D01*
X140022750Y-86553000D01*
X139864000Y-86711750D01*
X139860928Y-86926000D01*
X139873188Y-87050482D01*
X139909498Y-87170180D01*
X139955905Y-87257000D01*
X139655461Y-87257000D01*
X139590387Y-87203595D01*
X139436852Y-87121528D01*
X139270256Y-87070992D01*
X139097002Y-87053928D01*
X138571998Y-87053928D01*
X138398744Y-87070992D01*
X138232148Y-87121528D01*
X138078613Y-87203595D01*
X137944038Y-87314038D01*
X137922000Y-87340891D01*
X137899962Y-87314038D01*
X137765387Y-87203595D01*
X137611852Y-87121528D01*
X137445256Y-87070992D01*
X137272002Y-87053928D01*
X136746998Y-87053928D01*
X136573744Y-87070992D01*
X136407148Y-87121528D01*
X136253613Y-87203595D01*
X136188539Y-87257000D01*
X135945752Y-87257000D01*
X135890000Y-87251509D01*
X135834249Y-87257000D01*
X135591461Y-87257000D01*
X135526387Y-87203595D01*
X135372852Y-87121528D01*
X135206256Y-87070992D01*
X135033002Y-87053928D01*
X134507998Y-87053928D01*
X134334744Y-87070992D01*
X134168148Y-87121528D01*
X134014613Y-87203595D01*
X133880038Y-87314038D01*
X133858000Y-87340891D01*
X133835962Y-87314038D01*
X133701387Y-87203595D01*
X133547852Y-87121528D01*
X133381256Y-87070992D01*
X133208002Y-87053928D01*
X132682998Y-87053928D01*
X132509744Y-87070992D01*
X132343148Y-87121528D01*
X132189613Y-87203595D01*
X132055038Y-87314038D01*
X132047683Y-87323000D01*
X131062191Y-87323000D01*
X131031000Y-87319928D01*
X130931804Y-87319928D01*
X130778499Y-87273423D01*
X130611752Y-87257000D01*
X128225461Y-87257000D01*
X128160387Y-87203595D01*
X128006852Y-87121528D01*
X127840256Y-87070992D01*
X127667002Y-87053928D01*
X127141998Y-87053928D01*
X126968744Y-87070992D01*
X126802148Y-87121528D01*
X126648613Y-87203595D01*
X126514038Y-87314038D01*
X126492000Y-87340891D01*
X126469962Y-87314038D01*
X126335387Y-87203595D01*
X126181852Y-87121528D01*
X126015256Y-87070992D01*
X125842002Y-87053928D01*
X125316998Y-87053928D01*
X125143744Y-87070992D01*
X124977148Y-87121528D01*
X124823613Y-87203595D01*
X124758539Y-87257000D01*
X123134248Y-87257000D01*
X122967501Y-87273423D01*
X122753553Y-87338324D01*
X122556377Y-87443716D01*
X122383551Y-87585551D01*
X122241716Y-87758377D01*
X122202631Y-87831500D01*
X121531000Y-87159869D01*
X121531000Y-85926000D01*
X139860928Y-85926000D01*
X139864000Y-86140250D01*
X140022750Y-86299000D01*
X141097000Y-86299000D01*
X141097000Y-85449750D01*
X141351000Y-85449750D01*
X141351000Y-86299000D01*
X142425250Y-86299000D01*
X142584000Y-86140250D01*
X142587072Y-85926000D01*
X142574812Y-85801518D01*
X142538502Y-85681820D01*
X142479537Y-85571506D01*
X142400185Y-85474815D01*
X142303494Y-85395463D01*
X142193180Y-85336498D01*
X142073482Y-85300188D01*
X141949000Y-85287928D01*
X141509750Y-85291000D01*
X141351000Y-85449750D01*
X141097000Y-85449750D01*
X140938250Y-85291000D01*
X140499000Y-85287928D01*
X140374518Y-85300188D01*
X140254820Y-85336498D01*
X140144506Y-85395463D01*
X140047815Y-85474815D01*
X139968463Y-85571506D01*
X139909498Y-85681820D01*
X139873188Y-85801518D01*
X139860928Y-85926000D01*
X121531000Y-85926000D01*
X121531000Y-85814131D01*
X121628132Y-85717000D01*
X125674249Y-85717000D01*
X125730000Y-85722491D01*
X125785751Y-85717000D01*
X125785752Y-85717000D01*
X125952499Y-85700577D01*
X126166447Y-85635676D01*
X126363623Y-85530284D01*
X126536449Y-85388449D01*
X126571996Y-85345135D01*
X126807864Y-85109267D01*
X126861256Y-85104008D01*
X127027852Y-85053472D01*
X127181387Y-84971405D01*
X127315962Y-84860962D01*
X127426405Y-84726387D01*
X127508472Y-84572852D01*
X127559008Y-84406256D01*
X127576072Y-84233002D01*
X127576072Y-83707998D01*
X127559008Y-83534744D01*
X127508472Y-83368148D01*
X127461623Y-83280500D01*
X141746369Y-83280500D01*
X146045178Y-87579310D01*
%TA.AperFunction,Conductor*%
D22*
G36*
X146045178Y-87579310D02*
G01*
X145978180Y-87543498D01*
X145858482Y-87507188D01*
X145734000Y-87494928D01*
X144674000Y-87494928D01*
X144549518Y-87507188D01*
X144429820Y-87543498D01*
X144374627Y-87573000D01*
X142429515Y-87573000D01*
X142326962Y-87448038D01*
X142320406Y-87442658D01*
X142400185Y-87377185D01*
X142479537Y-87280494D01*
X142538502Y-87170180D01*
X142574812Y-87050482D01*
X142587072Y-86926000D01*
X142584000Y-86711750D01*
X142425250Y-86553000D01*
X141351000Y-86553000D01*
X141351000Y-86573000D01*
X141097000Y-86573000D01*
X141097000Y-86553000D01*
X140022750Y-86553000D01*
X139864000Y-86711750D01*
X139860928Y-86926000D01*
X139873188Y-87050482D01*
X139909498Y-87170180D01*
X139955905Y-87257000D01*
X139655461Y-87257000D01*
X139590387Y-87203595D01*
X139436852Y-87121528D01*
X139270256Y-87070992D01*
X139097002Y-87053928D01*
X138571998Y-87053928D01*
X138398744Y-87070992D01*
X138232148Y-87121528D01*
X138078613Y-87203595D01*
X137944038Y-87314038D01*
X137922000Y-87340891D01*
X137899962Y-87314038D01*
X137765387Y-87203595D01*
X137611852Y-87121528D01*
X137445256Y-87070992D01*
X137272002Y-87053928D01*
X136746998Y-87053928D01*
X136573744Y-87070992D01*
X136407148Y-87121528D01*
X136253613Y-87203595D01*
X136188539Y-87257000D01*
X135945752Y-87257000D01*
X135890000Y-87251509D01*
X135834249Y-87257000D01*
X135591461Y-87257000D01*
X135526387Y-87203595D01*
X135372852Y-87121528D01*
X135206256Y-87070992D01*
X135033002Y-87053928D01*
X134507998Y-87053928D01*
X134334744Y-87070992D01*
X134168148Y-87121528D01*
X134014613Y-87203595D01*
X133880038Y-87314038D01*
X133858000Y-87340891D01*
X133835962Y-87314038D01*
X133701387Y-87203595D01*
X133547852Y-87121528D01*
X133381256Y-87070992D01*
X133208002Y-87053928D01*
X132682998Y-87053928D01*
X132509744Y-87070992D01*
X132343148Y-87121528D01*
X132189613Y-87203595D01*
X132055038Y-87314038D01*
X132047683Y-87323000D01*
X131062191Y-87323000D01*
X131031000Y-87319928D01*
X130931804Y-87319928D01*
X130778499Y-87273423D01*
X130611752Y-87257000D01*
X128225461Y-87257000D01*
X128160387Y-87203595D01*
X128006852Y-87121528D01*
X127840256Y-87070992D01*
X127667002Y-87053928D01*
X127141998Y-87053928D01*
X126968744Y-87070992D01*
X126802148Y-87121528D01*
X126648613Y-87203595D01*
X126514038Y-87314038D01*
X126492000Y-87340891D01*
X126469962Y-87314038D01*
X126335387Y-87203595D01*
X126181852Y-87121528D01*
X126015256Y-87070992D01*
X125842002Y-87053928D01*
X125316998Y-87053928D01*
X125143744Y-87070992D01*
X124977148Y-87121528D01*
X124823613Y-87203595D01*
X124758539Y-87257000D01*
X123134248Y-87257000D01*
X122967501Y-87273423D01*
X122753553Y-87338324D01*
X122556377Y-87443716D01*
X122383551Y-87585551D01*
X122241716Y-87758377D01*
X122202631Y-87831500D01*
X121531000Y-87159869D01*
X121531000Y-85926000D01*
X139860928Y-85926000D01*
X139864000Y-86140250D01*
X140022750Y-86299000D01*
X141097000Y-86299000D01*
X141097000Y-85449750D01*
X141351000Y-85449750D01*
X141351000Y-86299000D01*
X142425250Y-86299000D01*
X142584000Y-86140250D01*
X142587072Y-85926000D01*
X142574812Y-85801518D01*
X142538502Y-85681820D01*
X142479537Y-85571506D01*
X142400185Y-85474815D01*
X142303494Y-85395463D01*
X142193180Y-85336498D01*
X142073482Y-85300188D01*
X141949000Y-85287928D01*
X141509750Y-85291000D01*
X141351000Y-85449750D01*
X141097000Y-85449750D01*
X140938250Y-85291000D01*
X140499000Y-85287928D01*
X140374518Y-85300188D01*
X140254820Y-85336498D01*
X140144506Y-85395463D01*
X140047815Y-85474815D01*
X139968463Y-85571506D01*
X139909498Y-85681820D01*
X139873188Y-85801518D01*
X139860928Y-85926000D01*
X121531000Y-85926000D01*
X121531000Y-85814131D01*
X121628132Y-85717000D01*
X125674249Y-85717000D01*
X125730000Y-85722491D01*
X125785751Y-85717000D01*
X125785752Y-85717000D01*
X125952499Y-85700577D01*
X126166447Y-85635676D01*
X126363623Y-85530284D01*
X126536449Y-85388449D01*
X126571996Y-85345135D01*
X126807864Y-85109267D01*
X126861256Y-85104008D01*
X127027852Y-85053472D01*
X127181387Y-84971405D01*
X127315962Y-84860962D01*
X127426405Y-84726387D01*
X127508472Y-84572852D01*
X127559008Y-84406256D01*
X127576072Y-84233002D01*
X127576072Y-83707998D01*
X127559008Y-83534744D01*
X127508472Y-83368148D01*
X127461623Y-83280500D01*
X141746369Y-83280500D01*
X146045178Y-87579310D01*
G37*
%TD.AperFunction*%
%TD*%
M02*
