M48
; DRILL file {KiCad (5.1.9)-1} date 03/09/21 18:30:14
; FORMAT={-:-/ absolute / inch / decimal}
; #@! TF.CreationDate,2021-03-09T18:30:14-05:00
; #@! TF.GenerationSoftware,Kicad,Pcbnew,(5.1.9)-1
; #@! TF.FileFunction,Plated,1,2,PTH
FMAT,2
INCH
T1C0.0157
T2C0.0472
%
G90
G05
T1
X3.057Y-2.3604
X3.057Y-2.636
X3.057Y-2.9116
X3.057Y-3.1872
X3.057Y-3.7777
X3.057Y-4.0533
X3.1751Y-4.2108
X3.2145Y-2.4785
X3.2145Y-2.7541
X3.2145Y-3.0297
X3.2145Y-3.3053
X3.2145Y-3.8958
X3.2539Y-3.6203
X3.3326Y-4.0533
X3.372Y-2.3604
X3.372Y-2.636
X3.372Y-2.9116
X3.372Y-3.1872
X3.372Y-3.4628
X3.372Y-3.7777
X3.4507Y-4.2108
X3.4901Y-3.9352
X3.5295Y-2.4785
X3.5295Y-2.7541
X3.5295Y-3.0297
X3.5295Y-3.3053
X3.5688Y-3.699
X3.6082Y-4.0927
X3.6476Y-3.4628
X3.687Y-2.3604
X3.687Y-2.636
X3.687Y-2.9116
X3.687Y-3.1872
X3.687Y-3.8565
X3.7657Y-4.2108
X3.8051Y-3.3447
X3.8444Y-2.4785
X3.8444Y-2.7541
X3.8444Y-3.0297
X3.8444Y-3.7384
X3.8444Y-4.014
X3.9625Y-3.1872
X4.0019Y-2.3604
X4.0019Y-2.636
X4.0019Y-2.9116
X4.0019Y-3.4234
X4.0019Y-3.8565
X4.0019Y-4.1321
X4.0807Y-3.6596
X4.12Y-3.0691
X4.1594Y-2.4785
X4.1594Y-2.7541
X4.1594Y-3.3053
X4.1594Y-3.9746
X4.1988Y-4.2108
X4.2775Y-2.9116
X4.2775Y-3.8171
X4.3169Y-2.3604
X4.3169Y-2.636
X4.3169Y-3.1478
X4.3956Y-3.3447
X4.435Y-2.7935
X4.435Y-3.9352
X4.4744Y-4.2108
X4.5925Y-2.3604
X4.5925Y-2.6754
X4.5925Y-2.951
X4.5925Y-3.2659
X4.6318Y-3.699
X4.6318Y-4.014
X4.64Y-3.49
X4.7106Y-3.1084
X4.7499Y-2.7935
X4.7499Y-4.1714
X4.8287Y-2.3998
X4.85Y-3.48
X4.8681Y-2.636
X4.8681Y-2.951
X4.8681Y-3.5809
X4.9074Y-3.9746
X4.9468Y-3.1478
X4.9862Y-3.7384
X4.9862Y-4.2108
X5.0255Y-2.4785
X5.0255Y-2.7541
X5.0255Y-3.384
X5.1043Y-2.9903
X5.1043Y-3.8958
X5.1436Y-3.6203
X5.183Y-2.3604
X5.183Y-2.636
X5.183Y-4.0927
X5.2224Y-3.1478
X5.2618Y-2.8329
X5.2618Y-3.7777
X5.3011Y-3.3447
X5.3405Y-2.4785
X5.3405Y-3.9746
X5.3799Y-2.9903
X5.3799Y-4.2108
X5.4192Y-2.6754
X5.498Y-2.3604
X5.498Y-3.1478
X5.498Y-3.7384
X5.5373Y-2.8329
X5.5373Y-4.0533
X5.5767Y-2.5573
X5.58Y-3.56
X5.6555Y-2.9903
X5.6555Y-3.8565
X5.6555Y-4.2108
X5.6948Y-2.7147
X5.7342Y-2.3998
X5.7342Y-3.1872
X5.7736Y-4.014
X5.8129Y-2.8722
X5.8523Y-2.5573
X5.8523Y-3.3447
X5.8523Y-3.7777
X5.8917Y-3.0691
X5.8917Y-4.1714
X5.9704Y-2.3604
X5.9704Y-2.7147
X5.9704Y-3.6203
X5.9704Y-3.9352
X6.0098Y-3.2266
X6.0492Y-2.9116
X6.0885Y-2.5179
X6.0885Y-3.4234
X6.0885Y-4.0927
X6.1673Y-3.0691
X6.1673Y-3.8565
X6.2066Y-2.6754
X6.246Y-2.3604
X6.246Y-3.2659
X6.246Y-3.6596
X6.246Y-4.2108
X6.2854Y-2.8722
X6.3247Y-3.4628
X6.3247Y-3.9746
T2
X4.33Y-4.05
X4.53Y-4.05
X4.55Y-2.53
X4.75Y-2.53
X6.17Y-3.56
X6.17Y-3.76
T0
M30
