%TF.GenerationSoftware,KiCad,Pcbnew,(5.1.9)-1*%
%TF.CreationDate,2021-03-09T18:30:12-05:00*%
%TF.ProjectId,NJR_New_Demod,4e4a525f-4e65-4775-9f44-656d6f642e6b,rev?*%
%TF.SameCoordinates,Original*%
%TF.FileFunction,Soldermask,Top*%
%TF.FilePolarity,Negative*%
%FSLAX46Y46*%
G04 Gerber Fmt 4.6, Leading zero omitted, Abs format (unit mm)*
G04 Created by KiCad (PCBNEW (5.1.9)-1) date 2021-03-09 18:30:12*
%MOMM*%
%LPD*%
G01*
G04 APERTURE LIST*
%ADD10R,1.400000X0.300000*%
%ADD11R,1.050000X0.800000*%
%ADD12R,4.200000X1.750000*%
%ADD13R,3.600000X1.270000*%
%ADD14R,1.060000X0.650000*%
%ADD15O,1.800000X3.600000*%
%ADD16O,3.600000X1.800000*%
G04 APERTURE END LIST*
D10*
%TO.C,U2*%
X115230000Y-90440000D03*
X115230000Y-90940000D03*
X115230000Y-91440000D03*
X115230000Y-91940000D03*
X115230000Y-92440000D03*
X110830000Y-92440000D03*
X110830000Y-91940000D03*
X110830000Y-91440000D03*
X110830000Y-90940000D03*
X110830000Y-90440000D03*
%TD*%
D11*
%TO.C,U1*%
X96625000Y-90548000D03*
X96625000Y-91948000D03*
X96625000Y-93348000D03*
X94175000Y-93348000D03*
X94175000Y-91948000D03*
X94175000Y-90548000D03*
%TD*%
D12*
%TO.C,J1*%
X79194000Y-92995000D03*
X79194000Y-87345000D03*
D13*
X78994000Y-90170000D03*
%TD*%
%TO.C,C1*%
G36*
G01*
X103690000Y-89949000D02*
X103690000Y-90899000D01*
G75*
G02*
X103440000Y-91149000I-250000J0D01*
G01*
X102940000Y-91149000D01*
G75*
G02*
X102690000Y-90899000I0J250000D01*
G01*
X102690000Y-89949000D01*
G75*
G02*
X102940000Y-89699000I250000J0D01*
G01*
X103440000Y-89699000D01*
G75*
G02*
X103690000Y-89949000I0J-250000D01*
G01*
G37*
G36*
G01*
X105590000Y-89949000D02*
X105590000Y-90899000D01*
G75*
G02*
X105340000Y-91149000I-250000J0D01*
G01*
X104840000Y-91149000D01*
G75*
G02*
X104590000Y-90899000I0J250000D01*
G01*
X104590000Y-89949000D01*
G75*
G02*
X104840000Y-89699000I250000J0D01*
G01*
X105340000Y-89699000D01*
G75*
G02*
X105590000Y-89949000I0J-250000D01*
G01*
G37*
%TD*%
D14*
%TO.C,U3*%
X147404000Y-88458000D03*
X147404000Y-90358000D03*
X145204000Y-90358000D03*
X145204000Y-89408000D03*
X145204000Y-88458000D03*
%TD*%
%TO.C,Rc1*%
G36*
G01*
X126092000Y-87941998D02*
X126092000Y-88842002D01*
G75*
G02*
X125842002Y-89092000I-249998J0D01*
G01*
X125316998Y-89092000D01*
G75*
G02*
X125067000Y-88842002I0J249998D01*
G01*
X125067000Y-87941998D01*
G75*
G02*
X125316998Y-87692000I249998J0D01*
G01*
X125842002Y-87692000D01*
G75*
G02*
X126092000Y-87941998I0J-249998D01*
G01*
G37*
G36*
G01*
X127917000Y-87941998D02*
X127917000Y-88842002D01*
G75*
G02*
X127667002Y-89092000I-249998J0D01*
G01*
X127141998Y-89092000D01*
G75*
G02*
X126892000Y-88842002I0J249998D01*
G01*
X126892000Y-87941998D01*
G75*
G02*
X127141998Y-87692000I249998J0D01*
G01*
X127667002Y-87692000D01*
G75*
G02*
X127917000Y-87941998I0J-249998D01*
G01*
G37*
%TD*%
%TO.C,Rb1*%
G36*
G01*
X133458000Y-87941998D02*
X133458000Y-88842002D01*
G75*
G02*
X133208002Y-89092000I-249998J0D01*
G01*
X132682998Y-89092000D01*
G75*
G02*
X132433000Y-88842002I0J249998D01*
G01*
X132433000Y-87941998D01*
G75*
G02*
X132682998Y-87692000I249998J0D01*
G01*
X133208002Y-87692000D01*
G75*
G02*
X133458000Y-87941998I0J-249998D01*
G01*
G37*
G36*
G01*
X135283000Y-87941998D02*
X135283000Y-88842002D01*
G75*
G02*
X135033002Y-89092000I-249998J0D01*
G01*
X134507998Y-89092000D01*
G75*
G02*
X134258000Y-88842002I0J249998D01*
G01*
X134258000Y-87941998D01*
G75*
G02*
X134507998Y-87692000I249998J0D01*
G01*
X135033002Y-87692000D01*
G75*
G02*
X135283000Y-87941998I0J-249998D01*
G01*
G37*
%TD*%
%TO.C,Ra1*%
G36*
G01*
X137522000Y-87941998D02*
X137522000Y-88842002D01*
G75*
G02*
X137272002Y-89092000I-249998J0D01*
G01*
X136746998Y-89092000D01*
G75*
G02*
X136497000Y-88842002I0J249998D01*
G01*
X136497000Y-87941998D01*
G75*
G02*
X136746998Y-87692000I249998J0D01*
G01*
X137272002Y-87692000D01*
G75*
G02*
X137522000Y-87941998I0J-249998D01*
G01*
G37*
G36*
G01*
X139347000Y-87941998D02*
X139347000Y-88842002D01*
G75*
G02*
X139097002Y-89092000I-249998J0D01*
G01*
X138571998Y-89092000D01*
G75*
G02*
X138322000Y-88842002I0J249998D01*
G01*
X138322000Y-87941998D01*
G75*
G02*
X138571998Y-87692000I249998J0D01*
G01*
X139097002Y-87692000D01*
G75*
G02*
X139347000Y-87941998I0J-249998D01*
G01*
G37*
%TD*%
%TO.C,R2*%
G36*
G01*
X125787998Y-83458000D02*
X126688002Y-83458000D01*
G75*
G02*
X126938000Y-83707998I0J-249998D01*
G01*
X126938000Y-84233002D01*
G75*
G02*
X126688002Y-84483000I-249998J0D01*
G01*
X125787998Y-84483000D01*
G75*
G02*
X125538000Y-84233002I0J249998D01*
G01*
X125538000Y-83707998D01*
G75*
G02*
X125787998Y-83458000I249998J0D01*
G01*
G37*
G36*
G01*
X125787998Y-81633000D02*
X126688002Y-81633000D01*
G75*
G02*
X126938000Y-81882998I0J-249998D01*
G01*
X126938000Y-82408002D01*
G75*
G02*
X126688002Y-82658000I-249998J0D01*
G01*
X125787998Y-82658000D01*
G75*
G02*
X125538000Y-82408002I0J249998D01*
G01*
X125538000Y-81882998D01*
G75*
G02*
X125787998Y-81633000I249998J0D01*
G01*
G37*
%TD*%
%TO.C,R1*%
G36*
G01*
X101288002Y-89158500D02*
X100387998Y-89158500D01*
G75*
G02*
X100138000Y-88908502I0J249998D01*
G01*
X100138000Y-88383498D01*
G75*
G02*
X100387998Y-88133500I249998J0D01*
G01*
X101288002Y-88133500D01*
G75*
G02*
X101538000Y-88383498I0J-249998D01*
G01*
X101538000Y-88908502D01*
G75*
G02*
X101288002Y-89158500I-249998J0D01*
G01*
G37*
G36*
G01*
X101288002Y-90983500D02*
X100387998Y-90983500D01*
G75*
G02*
X100138000Y-90733502I0J249998D01*
G01*
X100138000Y-90208498D01*
G75*
G02*
X100387998Y-89958500I249998J0D01*
G01*
X101288002Y-89958500D01*
G75*
G02*
X101538000Y-90208498I0J-249998D01*
G01*
X101538000Y-90733502D01*
G75*
G02*
X101288002Y-90983500I-249998J0D01*
G01*
G37*
%TD*%
%TO.C,LQ1_T1*%
G36*
G01*
X113484998Y-84760000D02*
X116385002Y-84760000D01*
G75*
G02*
X116635000Y-85009998I0J-249998D01*
G01*
X116635000Y-85635002D01*
G75*
G02*
X116385002Y-85885000I-249998J0D01*
G01*
X113484998Y-85885000D01*
G75*
G02*
X113235000Y-85635002I0J249998D01*
G01*
X113235000Y-85009998D01*
G75*
G02*
X113484998Y-84760000I249998J0D01*
G01*
G37*
G36*
G01*
X113484998Y-80485000D02*
X116385002Y-80485000D01*
G75*
G02*
X116635000Y-80734998I0J-249998D01*
G01*
X116635000Y-81360002D01*
G75*
G02*
X116385002Y-81610000I-249998J0D01*
G01*
X113484998Y-81610000D01*
G75*
G02*
X113235000Y-81360002I0J249998D01*
G01*
X113235000Y-80734998D01*
G75*
G02*
X113484998Y-80485000I249998J0D01*
G01*
G37*
%TD*%
%TO.C,LMatch1*%
G36*
G01*
X86985000Y-90602050D02*
X86985000Y-89839550D01*
G75*
G02*
X87203750Y-89620800I218750J0D01*
G01*
X87641250Y-89620800D01*
G75*
G02*
X87860000Y-89839550I0J-218750D01*
G01*
X87860000Y-90602050D01*
G75*
G02*
X87641250Y-90820800I-218750J0D01*
G01*
X87203750Y-90820800D01*
G75*
G02*
X86985000Y-90602050I0J218750D01*
G01*
G37*
G36*
G01*
X84860000Y-90602050D02*
X84860000Y-89839550D01*
G75*
G02*
X85078750Y-89620800I218750J0D01*
G01*
X85516250Y-89620800D01*
G75*
G02*
X85735000Y-89839550I0J-218750D01*
G01*
X85735000Y-90602050D01*
G75*
G02*
X85516250Y-90820800I-218750J0D01*
G01*
X85078750Y-90820800D01*
G75*
G02*
X84860000Y-90602050I0J218750D01*
G01*
G37*
%TD*%
D15*
%TO.C,J_RSSI1*%
X109982000Y-102870000D03*
G36*
G01*
X115962000Y-101320000D02*
X115962000Y-104420000D01*
G75*
G02*
X115712000Y-104670000I-250000J0D01*
G01*
X114412000Y-104670000D01*
G75*
G02*
X114162000Y-104420000I0J250000D01*
G01*
X114162000Y-101320000D01*
G75*
G02*
X114412000Y-101070000I250000J0D01*
G01*
X115712000Y-101070000D01*
G75*
G02*
X115962000Y-101320000I0J-250000D01*
G01*
G37*
%TD*%
%TO.C,J_Power1*%
X120650000Y-64262000D03*
G36*
G01*
X114670000Y-65812000D02*
X114670000Y-62712000D01*
G75*
G02*
X114920000Y-62462000I250000J0D01*
G01*
X116220000Y-62462000D01*
G75*
G02*
X116470000Y-62712000I0J-250000D01*
G01*
X116470000Y-65812000D01*
G75*
G02*
X116220000Y-66062000I-250000J0D01*
G01*
X114920000Y-66062000D01*
G75*
G02*
X114670000Y-65812000I0J250000D01*
G01*
G37*
%TD*%
D16*
%TO.C,J_Audio1*%
X156718000Y-95504000D03*
G36*
G01*
X155168000Y-89524000D02*
X158268000Y-89524000D01*
G75*
G02*
X158518000Y-89774000I0J-250000D01*
G01*
X158518000Y-91074000D01*
G75*
G02*
X158268000Y-91324000I-250000J0D01*
G01*
X155168000Y-91324000D01*
G75*
G02*
X154918000Y-91074000I0J250000D01*
G01*
X154918000Y-89774000D01*
G75*
G02*
X155168000Y-89524000I250000J0D01*
G01*
G37*
%TD*%
%TO.C,CQ1*%
G36*
G01*
X120810000Y-83635000D02*
X121760000Y-83635000D01*
G75*
G02*
X122010000Y-83885000I0J-250000D01*
G01*
X122010000Y-84385000D01*
G75*
G02*
X121760000Y-84635000I-250000J0D01*
G01*
X120810000Y-84635000D01*
G75*
G02*
X120560000Y-84385000I0J250000D01*
G01*
X120560000Y-83885000D01*
G75*
G02*
X120810000Y-83635000I250000J0D01*
G01*
G37*
G36*
G01*
X120810000Y-81735000D02*
X121760000Y-81735000D01*
G75*
G02*
X122010000Y-81985000I0J-250000D01*
G01*
X122010000Y-82485000D01*
G75*
G02*
X121760000Y-82735000I-250000J0D01*
G01*
X120810000Y-82735000D01*
G75*
G02*
X120560000Y-82485000I0J250000D01*
G01*
X120560000Y-81985000D01*
G75*
G02*
X120810000Y-81735000I250000J0D01*
G01*
G37*
%TD*%
%TO.C,CMatch1*%
G36*
G01*
X89695000Y-91890000D02*
X90645000Y-91890000D01*
G75*
G02*
X90895000Y-92140000I0J-250000D01*
G01*
X90895000Y-92640000D01*
G75*
G02*
X90645000Y-92890000I-250000J0D01*
G01*
X89695000Y-92890000D01*
G75*
G02*
X89445000Y-92640000I0J250000D01*
G01*
X89445000Y-92140000D01*
G75*
G02*
X89695000Y-91890000I250000J0D01*
G01*
G37*
G36*
G01*
X89695000Y-89990000D02*
X90645000Y-89990000D01*
G75*
G02*
X90895000Y-90240000I0J-250000D01*
G01*
X90895000Y-90740000D01*
G75*
G02*
X90645000Y-90990000I-250000J0D01*
G01*
X89695000Y-90990000D01*
G75*
G02*
X89445000Y-90740000I0J250000D01*
G01*
X89445000Y-90240000D01*
G75*
G02*
X89695000Y-89990000I250000J0D01*
G01*
G37*
%TD*%
%TO.C,Cc1*%
G36*
G01*
X130081000Y-89858000D02*
X131031000Y-89858000D01*
G75*
G02*
X131281000Y-90108000I0J-250000D01*
G01*
X131281000Y-90608000D01*
G75*
G02*
X131031000Y-90858000I-250000J0D01*
G01*
X130081000Y-90858000D01*
G75*
G02*
X129831000Y-90608000I0J250000D01*
G01*
X129831000Y-90108000D01*
G75*
G02*
X130081000Y-89858000I250000J0D01*
G01*
G37*
G36*
G01*
X130081000Y-87958000D02*
X131031000Y-87958000D01*
G75*
G02*
X131281000Y-88208000I0J-250000D01*
G01*
X131281000Y-88708000D01*
G75*
G02*
X131031000Y-88958000I-250000J0D01*
G01*
X130081000Y-88958000D01*
G75*
G02*
X129831000Y-88708000I0J250000D01*
G01*
X129831000Y-88208000D01*
G75*
G02*
X130081000Y-87958000I250000J0D01*
G01*
G37*
%TD*%
%TO.C,Cb1*%
G36*
G01*
X141699000Y-86926000D02*
X140749000Y-86926000D01*
G75*
G02*
X140499000Y-86676000I0J250000D01*
G01*
X140499000Y-86176000D01*
G75*
G02*
X140749000Y-85926000I250000J0D01*
G01*
X141699000Y-85926000D01*
G75*
G02*
X141949000Y-86176000I0J-250000D01*
G01*
X141949000Y-86676000D01*
G75*
G02*
X141699000Y-86926000I-250000J0D01*
G01*
G37*
G36*
G01*
X141699000Y-88826000D02*
X140749000Y-88826000D01*
G75*
G02*
X140499000Y-88576000I0J250000D01*
G01*
X140499000Y-88076000D01*
G75*
G02*
X140749000Y-87826000I250000J0D01*
G01*
X141699000Y-87826000D01*
G75*
G02*
X141949000Y-88076000I0J-250000D01*
G01*
X141949000Y-88576000D01*
G75*
G02*
X141699000Y-88826000I-250000J0D01*
G01*
G37*
%TD*%
%TO.C,Ca1*%
G36*
G01*
X147008000Y-93947000D02*
X147008000Y-92997000D01*
G75*
G02*
X147258000Y-92747000I250000J0D01*
G01*
X147758000Y-92747000D01*
G75*
G02*
X148008000Y-92997000I0J-250000D01*
G01*
X148008000Y-93947000D01*
G75*
G02*
X147758000Y-94197000I-250000J0D01*
G01*
X147258000Y-94197000D01*
G75*
G02*
X147008000Y-93947000I0J250000D01*
G01*
G37*
G36*
G01*
X145108000Y-93947000D02*
X145108000Y-92997000D01*
G75*
G02*
X145358000Y-92747000I250000J0D01*
G01*
X145858000Y-92747000D01*
G75*
G02*
X146108000Y-92997000I0J-250000D01*
G01*
X146108000Y-93947000D01*
G75*
G02*
X145858000Y-94197000I-250000J0D01*
G01*
X145358000Y-94197000D01*
G75*
G02*
X145108000Y-93947000I0J250000D01*
G01*
G37*
%TD*%
%TO.C,C9*%
G36*
G01*
X111351000Y-70830000D02*
X111351000Y-72680000D01*
G75*
G02*
X111101000Y-72930000I-250000J0D01*
G01*
X109526000Y-72930000D01*
G75*
G02*
X109276000Y-72680000I0J250000D01*
G01*
X109276000Y-70830000D01*
G75*
G02*
X109526000Y-70580000I250000J0D01*
G01*
X111101000Y-70580000D01*
G75*
G02*
X111351000Y-70830000I0J-250000D01*
G01*
G37*
G36*
G01*
X116276000Y-70830000D02*
X116276000Y-72680000D01*
G75*
G02*
X116026000Y-72930000I-250000J0D01*
G01*
X114451000Y-72930000D01*
G75*
G02*
X114201000Y-72680000I0J250000D01*
G01*
X114201000Y-70830000D01*
G75*
G02*
X114451000Y-70580000I250000J0D01*
G01*
X116026000Y-70580000D01*
G75*
G02*
X116276000Y-70830000I0J-250000D01*
G01*
G37*
%TD*%
%TO.C,C8*%
G36*
G01*
X112961000Y-76995000D02*
X112961000Y-77945000D01*
G75*
G02*
X112711000Y-78195000I-250000J0D01*
G01*
X112211000Y-78195000D01*
G75*
G02*
X111961000Y-77945000I0J250000D01*
G01*
X111961000Y-76995000D01*
G75*
G02*
X112211000Y-76745000I250000J0D01*
G01*
X112711000Y-76745000D01*
G75*
G02*
X112961000Y-76995000I0J-250000D01*
G01*
G37*
G36*
G01*
X114861000Y-76995000D02*
X114861000Y-77945000D01*
G75*
G02*
X114611000Y-78195000I-250000J0D01*
G01*
X114111000Y-78195000D01*
G75*
G02*
X113861000Y-77945000I0J250000D01*
G01*
X113861000Y-76995000D01*
G75*
G02*
X114111000Y-76745000I250000J0D01*
G01*
X114611000Y-76745000D01*
G75*
G02*
X114861000Y-76995000I0J-250000D01*
G01*
G37*
%TD*%
%TO.C,C7*%
G36*
G01*
X108770000Y-87663000D02*
X108770000Y-88613000D01*
G75*
G02*
X108520000Y-88863000I-250000J0D01*
G01*
X108020000Y-88863000D01*
G75*
G02*
X107770000Y-88613000I0J250000D01*
G01*
X107770000Y-87663000D01*
G75*
G02*
X108020000Y-87413000I250000J0D01*
G01*
X108520000Y-87413000D01*
G75*
G02*
X108770000Y-87663000I0J-250000D01*
G01*
G37*
G36*
G01*
X110670000Y-87663000D02*
X110670000Y-88613000D01*
G75*
G02*
X110420000Y-88863000I-250000J0D01*
G01*
X109920000Y-88863000D01*
G75*
G02*
X109670000Y-88613000I0J250000D01*
G01*
X109670000Y-87663000D01*
G75*
G02*
X109920000Y-87413000I250000J0D01*
G01*
X110420000Y-87413000D01*
G75*
G02*
X110670000Y-87663000I0J-250000D01*
G01*
G37*
%TD*%
%TO.C,C5*%
G36*
G01*
X118864000Y-90965000D02*
X118864000Y-91915000D01*
G75*
G02*
X118614000Y-92165000I-250000J0D01*
G01*
X118114000Y-92165000D01*
G75*
G02*
X117864000Y-91915000I0J250000D01*
G01*
X117864000Y-90965000D01*
G75*
G02*
X118114000Y-90715000I250000J0D01*
G01*
X118614000Y-90715000D01*
G75*
G02*
X118864000Y-90965000I0J-250000D01*
G01*
G37*
G36*
G01*
X120764000Y-90965000D02*
X120764000Y-91915000D01*
G75*
G02*
X120514000Y-92165000I-250000J0D01*
G01*
X120014000Y-92165000D01*
G75*
G02*
X119764000Y-91915000I0J250000D01*
G01*
X119764000Y-90965000D01*
G75*
G02*
X120014000Y-90715000I250000J0D01*
G01*
X120514000Y-90715000D01*
G75*
G02*
X120764000Y-90965000I0J-250000D01*
G01*
G37*
%TD*%
%TO.C,C4*%
G36*
G01*
X114755000Y-96995000D02*
X114755000Y-96045000D01*
G75*
G02*
X115005000Y-95795000I250000J0D01*
G01*
X115505000Y-95795000D01*
G75*
G02*
X115755000Y-96045000I0J-250000D01*
G01*
X115755000Y-96995000D01*
G75*
G02*
X115505000Y-97245000I-250000J0D01*
G01*
X115005000Y-97245000D01*
G75*
G02*
X114755000Y-96995000I0J250000D01*
G01*
G37*
G36*
G01*
X112855000Y-96995000D02*
X112855000Y-96045000D01*
G75*
G02*
X113105000Y-95795000I250000J0D01*
G01*
X113605000Y-95795000D01*
G75*
G02*
X113855000Y-96045000I0J-250000D01*
G01*
X113855000Y-96995000D01*
G75*
G02*
X113605000Y-97245000I-250000J0D01*
G01*
X113105000Y-97245000D01*
G75*
G02*
X112855000Y-96995000I0J250000D01*
G01*
G37*
%TD*%
%TO.C,C3*%
G36*
G01*
X107983000Y-94938000D02*
X108933000Y-94938000D01*
G75*
G02*
X109183000Y-95188000I0J-250000D01*
G01*
X109183000Y-95688000D01*
G75*
G02*
X108933000Y-95938000I-250000J0D01*
G01*
X107983000Y-95938000D01*
G75*
G02*
X107733000Y-95688000I0J250000D01*
G01*
X107733000Y-95188000D01*
G75*
G02*
X107983000Y-94938000I250000J0D01*
G01*
G37*
G36*
G01*
X107983000Y-93038000D02*
X108933000Y-93038000D01*
G75*
G02*
X109183000Y-93288000I0J-250000D01*
G01*
X109183000Y-93788000D01*
G75*
G02*
X108933000Y-94038000I-250000J0D01*
G01*
X107983000Y-94038000D01*
G75*
G02*
X107733000Y-93788000I0J250000D01*
G01*
X107733000Y-93288000D01*
G75*
G02*
X107983000Y-93038000I250000J0D01*
G01*
G37*
%TD*%
%TO.C,C2*%
G36*
G01*
X105189000Y-93922000D02*
X106139000Y-93922000D01*
G75*
G02*
X106389000Y-94172000I0J-250000D01*
G01*
X106389000Y-94672000D01*
G75*
G02*
X106139000Y-94922000I-250000J0D01*
G01*
X105189000Y-94922000D01*
G75*
G02*
X104939000Y-94672000I0J250000D01*
G01*
X104939000Y-94172000D01*
G75*
G02*
X105189000Y-93922000I250000J0D01*
G01*
G37*
G36*
G01*
X105189000Y-92022000D02*
X106139000Y-92022000D01*
G75*
G02*
X106389000Y-92272000I0J-250000D01*
G01*
X106389000Y-92772000D01*
G75*
G02*
X106139000Y-93022000I-250000J0D01*
G01*
X105189000Y-93022000D01*
G75*
G02*
X104939000Y-92772000I0J250000D01*
G01*
X104939000Y-92272000D01*
G75*
G02*
X105189000Y-92022000I250000J0D01*
G01*
G37*
%TD*%
M02*
