%TF.GenerationSoftware,KiCad,Pcbnew,(5.1.9)-1*%
%TF.CreationDate,2021-02-06T18:12:04-05:00*%
%TF.ProjectId,DemodulatorCircuit,44656d6f-6475-46c6-9174-6f7243697263,rev?*%
%TF.SameCoordinates,Original*%
%TF.FileFunction,Paste,Top*%
%TF.FilePolarity,Positive*%
%FSLAX46Y46*%
G04 Gerber Fmt 4.6, Leading zero omitted, Abs format (unit mm)*
G04 Created by KiCad (PCBNEW (5.1.9)-1) date 2021-02-06 18:12:04*
%MOMM*%
%LPD*%
G01*
G04 APERTURE LIST*
%ADD10R,0.600000X1.970000*%
%ADD11R,1.050000X0.800000*%
%ADD12R,1.970000X0.600000*%
%ADD13R,4.200000X1.350000*%
%ADD14R,3.600000X1.270000*%
G04 APERTURE END LIST*
D10*
%TO.C,U4*%
X90678000Y-40832000D03*
X91948000Y-40832000D03*
X93218000Y-40832000D03*
X94488000Y-40832000D03*
X95758000Y-40832000D03*
X97028000Y-40832000D03*
X98298000Y-40832000D03*
X98298000Y-45782000D03*
X97028000Y-45782000D03*
X95758000Y-45782000D03*
X94488000Y-45782000D03*
X93218000Y-45782000D03*
X91948000Y-45782000D03*
X90678000Y-45782000D03*
%TD*%
D11*
%TO.C,U3*%
X69574000Y-34414000D03*
X69574000Y-35814000D03*
X69574000Y-37214000D03*
X67124000Y-37214000D03*
X67124000Y-35814000D03*
X67124000Y-34414000D03*
%TD*%
D12*
%TO.C,U2*%
X85279000Y-20955000D03*
X85279000Y-22225000D03*
X85279000Y-23495000D03*
X85279000Y-24765000D03*
X85279000Y-26035000D03*
X85279000Y-27305000D03*
X85279000Y-28575000D03*
X80329000Y-28575000D03*
X80329000Y-27305000D03*
X80329000Y-26035000D03*
X80329000Y-24765000D03*
X80329000Y-23495000D03*
X80329000Y-22225000D03*
X80329000Y-20955000D03*
%TD*%
%TO.C,U1*%
X86290000Y-35179000D03*
X86290000Y-36449000D03*
X86290000Y-37719000D03*
X86290000Y-38989000D03*
X81350000Y-38989000D03*
X81350000Y-37719000D03*
X81350000Y-36449000D03*
X81350000Y-35179000D03*
%TD*%
D13*
%TO.C,J3*%
X105210000Y-32481000D03*
X105210000Y-38131000D03*
D14*
X105410000Y-35306000D03*
%TD*%
D13*
%TO.C,J1*%
X52270000Y-40671000D03*
X52270000Y-35021000D03*
D14*
X52070000Y-37846000D03*
%TD*%
D10*
%TO.C,IC2*%
X90424000Y-25084000D03*
X91694000Y-25084000D03*
X92964000Y-25084000D03*
X94234000Y-25084000D03*
X95504000Y-25084000D03*
X96774000Y-25084000D03*
X98044000Y-25084000D03*
X98044000Y-30034000D03*
X96774000Y-30034000D03*
X95504000Y-30034000D03*
X94234000Y-30034000D03*
X92964000Y-30034000D03*
X91694000Y-30034000D03*
X90424000Y-30034000D03*
%TD*%
%TO.C,Rout1*%
G36*
G01*
X94684001Y-33890000D02*
X93783999Y-33890000D01*
G75*
G02*
X93534000Y-33640001I0J249999D01*
G01*
X93534000Y-33114999D01*
G75*
G02*
X93783999Y-32865000I249999J0D01*
G01*
X94684001Y-32865000D01*
G75*
G02*
X94934000Y-33114999I0J-249999D01*
G01*
X94934000Y-33640001D01*
G75*
G02*
X94684001Y-33890000I-249999J0D01*
G01*
G37*
G36*
G01*
X94684001Y-35715000D02*
X93783999Y-35715000D01*
G75*
G02*
X93534000Y-35465001I0J249999D01*
G01*
X93534000Y-34939999D01*
G75*
G02*
X93783999Y-34690000I249999J0D01*
G01*
X94684001Y-34690000D01*
G75*
G02*
X94934000Y-34939999I0J-249999D01*
G01*
X94934000Y-35465001D01*
G75*
G02*
X94684001Y-35715000I-249999J0D01*
G01*
G37*
%TD*%
%TO.C,RJumper1*%
G36*
G01*
X67775500Y-41332999D02*
X67775500Y-42233001D01*
G75*
G02*
X67525501Y-42483000I-249999J0D01*
G01*
X67000499Y-42483000D01*
G75*
G02*
X66750500Y-42233001I0J249999D01*
G01*
X66750500Y-41332999D01*
G75*
G02*
X67000499Y-41083000I249999J0D01*
G01*
X67525501Y-41083000D01*
G75*
G02*
X67775500Y-41332999I0J-249999D01*
G01*
G37*
G36*
G01*
X69600500Y-41332999D02*
X69600500Y-42233001D01*
G75*
G02*
X69350501Y-42483000I-249999J0D01*
G01*
X68825499Y-42483000D01*
G75*
G02*
X68575500Y-42233001I0J249999D01*
G01*
X68575500Y-41332999D01*
G75*
G02*
X68825499Y-41083000I249999J0D01*
G01*
X69350501Y-41083000D01*
G75*
G02*
X69600500Y-41332999I0J-249999D01*
G01*
G37*
%TD*%
%TO.C,RFB2*%
G36*
G01*
X74098999Y-20085000D02*
X74999001Y-20085000D01*
G75*
G02*
X75249000Y-20334999I0J-249999D01*
G01*
X75249000Y-20860001D01*
G75*
G02*
X74999001Y-21110000I-249999J0D01*
G01*
X74098999Y-21110000D01*
G75*
G02*
X73849000Y-20860001I0J249999D01*
G01*
X73849000Y-20334999D01*
G75*
G02*
X74098999Y-20085000I249999J0D01*
G01*
G37*
G36*
G01*
X74098999Y-18260000D02*
X74999001Y-18260000D01*
G75*
G02*
X75249000Y-18509999I0J-249999D01*
G01*
X75249000Y-19035001D01*
G75*
G02*
X74999001Y-19285000I-249999J0D01*
G01*
X74098999Y-19285000D01*
G75*
G02*
X73849000Y-19035001I0J249999D01*
G01*
X73849000Y-18509999D01*
G75*
G02*
X74098999Y-18260000I249999J0D01*
G01*
G37*
%TD*%
%TO.C,R_CMG1*%
G36*
G01*
X79940999Y-18053000D02*
X80841001Y-18053000D01*
G75*
G02*
X81091000Y-18302999I0J-249999D01*
G01*
X81091000Y-18828001D01*
G75*
G02*
X80841001Y-19078000I-249999J0D01*
G01*
X79940999Y-19078000D01*
G75*
G02*
X79691000Y-18828001I0J249999D01*
G01*
X79691000Y-18302999D01*
G75*
G02*
X79940999Y-18053000I249999J0D01*
G01*
G37*
G36*
G01*
X79940999Y-16228000D02*
X80841001Y-16228000D01*
G75*
G02*
X81091000Y-16477999I0J-249999D01*
G01*
X81091000Y-17003001D01*
G75*
G02*
X80841001Y-17253000I-249999J0D01*
G01*
X79940999Y-17253000D01*
G75*
G02*
X79691000Y-17003001I0J249999D01*
G01*
X79691000Y-16477999D01*
G75*
G02*
X79940999Y-16228000I249999J0D01*
G01*
G37*
%TD*%
%TO.C,R4*%
G36*
G01*
X76765999Y-40786000D02*
X77666001Y-40786000D01*
G75*
G02*
X77916000Y-41035999I0J-249999D01*
G01*
X77916000Y-41561001D01*
G75*
G02*
X77666001Y-41811000I-249999J0D01*
G01*
X76765999Y-41811000D01*
G75*
G02*
X76516000Y-41561001I0J249999D01*
G01*
X76516000Y-41035999D01*
G75*
G02*
X76765999Y-40786000I249999J0D01*
G01*
G37*
G36*
G01*
X76765999Y-38961000D02*
X77666001Y-38961000D01*
G75*
G02*
X77916000Y-39210999I0J-249999D01*
G01*
X77916000Y-39736001D01*
G75*
G02*
X77666001Y-39986000I-249999J0D01*
G01*
X76765999Y-39986000D01*
G75*
G02*
X76516000Y-39736001I0J249999D01*
G01*
X76516000Y-39210999D01*
G75*
G02*
X76765999Y-38961000I249999J0D01*
G01*
G37*
%TD*%
%TO.C,R3*%
G36*
G01*
X76765999Y-35579000D02*
X77666001Y-35579000D01*
G75*
G02*
X77916000Y-35828999I0J-249999D01*
G01*
X77916000Y-36354001D01*
G75*
G02*
X77666001Y-36604000I-249999J0D01*
G01*
X76765999Y-36604000D01*
G75*
G02*
X76516000Y-36354001I0J249999D01*
G01*
X76516000Y-35828999D01*
G75*
G02*
X76765999Y-35579000I249999J0D01*
G01*
G37*
G36*
G01*
X76765999Y-33754000D02*
X77666001Y-33754000D01*
G75*
G02*
X77916000Y-34003999I0J-249999D01*
G01*
X77916000Y-34529001D01*
G75*
G02*
X77666001Y-34779000I-249999J0D01*
G01*
X76765999Y-34779000D01*
G75*
G02*
X76516000Y-34529001I0J249999D01*
G01*
X76516000Y-34003999D01*
G75*
G02*
X76765999Y-33754000I249999J0D01*
G01*
G37*
%TD*%
%TO.C,R2*%
G36*
G01*
X68129999Y-26562000D02*
X69030001Y-26562000D01*
G75*
G02*
X69280000Y-26811999I0J-249999D01*
G01*
X69280000Y-27337001D01*
G75*
G02*
X69030001Y-27587000I-249999J0D01*
G01*
X68129999Y-27587000D01*
G75*
G02*
X67880000Y-27337001I0J249999D01*
G01*
X67880000Y-26811999D01*
G75*
G02*
X68129999Y-26562000I249999J0D01*
G01*
G37*
G36*
G01*
X68129999Y-24737000D02*
X69030001Y-24737000D01*
G75*
G02*
X69280000Y-24986999I0J-249999D01*
G01*
X69280000Y-25512001D01*
G75*
G02*
X69030001Y-25762000I-249999J0D01*
G01*
X68129999Y-25762000D01*
G75*
G02*
X67880000Y-25512001I0J249999D01*
G01*
X67880000Y-24986999D01*
G75*
G02*
X68129999Y-24737000I249999J0D01*
G01*
G37*
%TD*%
%TO.C,R1*%
G36*
G01*
X68129999Y-21101000D02*
X69030001Y-21101000D01*
G75*
G02*
X69280000Y-21350999I0J-249999D01*
G01*
X69280000Y-21876001D01*
G75*
G02*
X69030001Y-22126000I-249999J0D01*
G01*
X68129999Y-22126000D01*
G75*
G02*
X67880000Y-21876001I0J249999D01*
G01*
X67880000Y-21350999D01*
G75*
G02*
X68129999Y-21101000I249999J0D01*
G01*
G37*
G36*
G01*
X68129999Y-19276000D02*
X69030001Y-19276000D01*
G75*
G02*
X69280000Y-19525999I0J-249999D01*
G01*
X69280000Y-20051001D01*
G75*
G02*
X69030001Y-20301000I-249999J0D01*
G01*
X68129999Y-20301000D01*
G75*
G02*
X67880000Y-20051001I0J249999D01*
G01*
X67880000Y-19525999D01*
G75*
G02*
X68129999Y-19276000I249999J0D01*
G01*
G37*
%TD*%
%TO.C,Cout1*%
G36*
G01*
X98519000Y-33840000D02*
X97569000Y-33840000D01*
G75*
G02*
X97319000Y-33590000I0J250000D01*
G01*
X97319000Y-33090000D01*
G75*
G02*
X97569000Y-32840000I250000J0D01*
G01*
X98519000Y-32840000D01*
G75*
G02*
X98769000Y-33090000I0J-250000D01*
G01*
X98769000Y-33590000D01*
G75*
G02*
X98519000Y-33840000I-250000J0D01*
G01*
G37*
G36*
G01*
X98519000Y-35740000D02*
X97569000Y-35740000D01*
G75*
G02*
X97319000Y-35490000I0J250000D01*
G01*
X97319000Y-34990000D01*
G75*
G02*
X97569000Y-34740000I250000J0D01*
G01*
X98519000Y-34740000D01*
G75*
G02*
X98769000Y-34990000I0J-250000D01*
G01*
X98769000Y-35490000D01*
G75*
G02*
X98519000Y-35740000I-250000J0D01*
G01*
G37*
%TD*%
%TO.C,Cin1*%
G36*
G01*
X74201000Y-24834000D02*
X75151000Y-24834000D01*
G75*
G02*
X75401000Y-25084000I0J-250000D01*
G01*
X75401000Y-25584000D01*
G75*
G02*
X75151000Y-25834000I-250000J0D01*
G01*
X74201000Y-25834000D01*
G75*
G02*
X73951000Y-25584000I0J250000D01*
G01*
X73951000Y-25084000D01*
G75*
G02*
X74201000Y-24834000I250000J0D01*
G01*
G37*
G36*
G01*
X74201000Y-22934000D02*
X75151000Y-22934000D01*
G75*
G02*
X75401000Y-23184000I0J-250000D01*
G01*
X75401000Y-23684000D01*
G75*
G02*
X75151000Y-23934000I-250000J0D01*
G01*
X74201000Y-23934000D01*
G75*
G02*
X73951000Y-23684000I0J250000D01*
G01*
X73951000Y-23184000D01*
G75*
G02*
X74201000Y-22934000I250000J0D01*
G01*
G37*
%TD*%
%TO.C,CC1*%
G36*
G01*
X64295000Y-16960000D02*
X65245000Y-16960000D01*
G75*
G02*
X65495000Y-17210000I0J-250000D01*
G01*
X65495000Y-17710000D01*
G75*
G02*
X65245000Y-17960000I-250000J0D01*
G01*
X64295000Y-17960000D01*
G75*
G02*
X64045000Y-17710000I0J250000D01*
G01*
X64045000Y-17210000D01*
G75*
G02*
X64295000Y-16960000I250000J0D01*
G01*
G37*
G36*
G01*
X64295000Y-15060000D02*
X65245000Y-15060000D01*
G75*
G02*
X65495000Y-15310000I0J-250000D01*
G01*
X65495000Y-15810000D01*
G75*
G02*
X65245000Y-16060000I-250000J0D01*
G01*
X64295000Y-16060000D01*
G75*
G02*
X64045000Y-15810000I0J250000D01*
G01*
X64045000Y-15310000D01*
G75*
G02*
X64295000Y-15060000I250000J0D01*
G01*
G37*
%TD*%
%TO.C,C_CMG1*%
G36*
G01*
X84615000Y-18103000D02*
X85565000Y-18103000D01*
G75*
G02*
X85815000Y-18353000I0J-250000D01*
G01*
X85815000Y-18853000D01*
G75*
G02*
X85565000Y-19103000I-250000J0D01*
G01*
X84615000Y-19103000D01*
G75*
G02*
X84365000Y-18853000I0J250000D01*
G01*
X84365000Y-18353000D01*
G75*
G02*
X84615000Y-18103000I250000J0D01*
G01*
G37*
G36*
G01*
X84615000Y-16203000D02*
X85565000Y-16203000D01*
G75*
G02*
X85815000Y-16453000I0J-250000D01*
G01*
X85815000Y-16953000D01*
G75*
G02*
X85565000Y-17203000I-250000J0D01*
G01*
X84615000Y-17203000D01*
G75*
G02*
X84365000Y-16953000I0J250000D01*
G01*
X84365000Y-16453000D01*
G75*
G02*
X84615000Y-16203000I250000J0D01*
G01*
G37*
%TD*%
%TO.C,C2*%
G36*
G01*
X88679000Y-18103000D02*
X89629000Y-18103000D01*
G75*
G02*
X89879000Y-18353000I0J-250000D01*
G01*
X89879000Y-18853000D01*
G75*
G02*
X89629000Y-19103000I-250000J0D01*
G01*
X88679000Y-19103000D01*
G75*
G02*
X88429000Y-18853000I0J250000D01*
G01*
X88429000Y-18353000D01*
G75*
G02*
X88679000Y-18103000I250000J0D01*
G01*
G37*
G36*
G01*
X88679000Y-16203000D02*
X89629000Y-16203000D01*
G75*
G02*
X89879000Y-16453000I0J-250000D01*
G01*
X89879000Y-16953000D01*
G75*
G02*
X89629000Y-17203000I-250000J0D01*
G01*
X88679000Y-17203000D01*
G75*
G02*
X88429000Y-16953000I0J250000D01*
G01*
X88429000Y-16453000D01*
G75*
G02*
X88679000Y-16203000I250000J0D01*
G01*
G37*
%TD*%
M02*
