%TF.GenerationSoftware,KiCad,Pcbnew,(5.1.9)-1*%
%TF.CreationDate,2021-02-11T15:57:48-05:00*%
%TF.ProjectId,DemodulatorCircuit,44656d6f-6475-46c6-9174-6f7243697263,rev?*%
%TF.SameCoordinates,Original*%
%TF.FileFunction,Soldermask,Top*%
%TF.FilePolarity,Negative*%
%FSLAX46Y46*%
G04 Gerber Fmt 4.6, Leading zero omitted, Abs format (unit mm)*
G04 Created by KiCad (PCBNEW (5.1.9)-1) date 2021-02-11 15:57:48*
%MOMM*%
%LPD*%
G01*
G04 APERTURE LIST*
%ADD10R,0.600000X1.970000*%
%ADD11R,1.050000X0.800000*%
%ADD12R,1.970000X0.600000*%
%ADD13R,4.200000X1.750000*%
%ADD14R,3.600000X1.270000*%
%ADD15O,1.700000X1.700000*%
%ADD16R,1.700000X1.700000*%
G04 APERTURE END LIST*
D10*
%TO.C,U4*%
X74041000Y-56516500D03*
X75311000Y-56516500D03*
X76581000Y-56516500D03*
X77851000Y-56516500D03*
X79121000Y-56516500D03*
X80391000Y-56516500D03*
X81661000Y-56516500D03*
X81661000Y-61466500D03*
X80391000Y-61466500D03*
X79121000Y-61466500D03*
X77851000Y-61466500D03*
X76581000Y-61466500D03*
X75311000Y-61466500D03*
X74041000Y-61466500D03*
%TD*%
D11*
%TO.C,U3*%
X53064000Y-47114000D03*
X53064000Y-48514000D03*
X53064000Y-49914000D03*
X50614000Y-49914000D03*
X50614000Y-48514000D03*
X50614000Y-47114000D03*
%TD*%
D12*
%TO.C,U2*%
X68769000Y-33655000D03*
X68769000Y-34925000D03*
X68769000Y-36195000D03*
X68769000Y-37465000D03*
X68769000Y-38735000D03*
X68769000Y-40005000D03*
X68769000Y-41275000D03*
X63819000Y-41275000D03*
X63819000Y-40005000D03*
X63819000Y-38735000D03*
X63819000Y-37465000D03*
X63819000Y-36195000D03*
X63819000Y-34925000D03*
X63819000Y-33655000D03*
%TD*%
%TO.C,U1*%
X69780000Y-47879000D03*
X69780000Y-49149000D03*
X69780000Y-50419000D03*
X69780000Y-51689000D03*
X64840000Y-51689000D03*
X64840000Y-50419000D03*
X64840000Y-49149000D03*
X64840000Y-47879000D03*
%TD*%
D13*
%TO.C,J3*%
X88700000Y-45181000D03*
X88700000Y-50831000D03*
D14*
X88900000Y-48006000D03*
%TD*%
D13*
%TO.C,J1*%
X35760000Y-53371000D03*
X35760000Y-47721000D03*
D14*
X35560000Y-50546000D03*
%TD*%
D10*
%TO.C,IC2*%
X73914000Y-37784000D03*
X75184000Y-37784000D03*
X76454000Y-37784000D03*
X77724000Y-37784000D03*
X78994000Y-37784000D03*
X80264000Y-37784000D03*
X81534000Y-37784000D03*
X81534000Y-42734000D03*
X80264000Y-42734000D03*
X78994000Y-42734000D03*
X77724000Y-42734000D03*
X76454000Y-42734000D03*
X75184000Y-42734000D03*
X73914000Y-42734000D03*
%TD*%
%TO.C,R_Inv_1*%
G36*
G01*
X74720000Y-66124500D02*
X74720000Y-65574500D01*
G75*
G02*
X74920000Y-65374500I200000J0D01*
G01*
X75320000Y-65374500D01*
G75*
G02*
X75520000Y-65574500I0J-200000D01*
G01*
X75520000Y-66124500D01*
G75*
G02*
X75320000Y-66324500I-200000J0D01*
G01*
X74920000Y-66324500D01*
G75*
G02*
X74720000Y-66124500I0J200000D01*
G01*
G37*
G36*
G01*
X73070000Y-66124500D02*
X73070000Y-65574500D01*
G75*
G02*
X73270000Y-65374500I200000J0D01*
G01*
X73670000Y-65374500D01*
G75*
G02*
X73870000Y-65574500I0J-200000D01*
G01*
X73870000Y-66124500D01*
G75*
G02*
X73670000Y-66324500I-200000J0D01*
G01*
X73270000Y-66324500D01*
G75*
G02*
X73070000Y-66124500I0J200000D01*
G01*
G37*
%TD*%
%TO.C,C_Inv_5*%
G36*
G01*
X84078000Y-60523000D02*
X84578000Y-60523000D01*
G75*
G02*
X84803000Y-60748000I0J-225000D01*
G01*
X84803000Y-61198000D01*
G75*
G02*
X84578000Y-61423000I-225000J0D01*
G01*
X84078000Y-61423000D01*
G75*
G02*
X83853000Y-61198000I0J225000D01*
G01*
X83853000Y-60748000D01*
G75*
G02*
X84078000Y-60523000I225000J0D01*
G01*
G37*
G36*
G01*
X84078000Y-58973000D02*
X84578000Y-58973000D01*
G75*
G02*
X84803000Y-59198000I0J-225000D01*
G01*
X84803000Y-59648000D01*
G75*
G02*
X84578000Y-59873000I-225000J0D01*
G01*
X84078000Y-59873000D01*
G75*
G02*
X83853000Y-59648000I0J225000D01*
G01*
X83853000Y-59198000D01*
G75*
G02*
X84078000Y-58973000I225000J0D01*
G01*
G37*
%TD*%
%TO.C,C_Inv_4*%
G36*
G01*
X74605000Y-53534500D02*
X74605000Y-54034500D01*
G75*
G02*
X74380000Y-54259500I-225000J0D01*
G01*
X73930000Y-54259500D01*
G75*
G02*
X73705000Y-54034500I0J225000D01*
G01*
X73705000Y-53534500D01*
G75*
G02*
X73930000Y-53309500I225000J0D01*
G01*
X74380000Y-53309500D01*
G75*
G02*
X74605000Y-53534500I0J-225000D01*
G01*
G37*
G36*
G01*
X76155000Y-53534500D02*
X76155000Y-54034500D01*
G75*
G02*
X75930000Y-54259500I-225000J0D01*
G01*
X75480000Y-54259500D01*
G75*
G02*
X75255000Y-54034500I0J225000D01*
G01*
X75255000Y-53534500D01*
G75*
G02*
X75480000Y-53309500I225000J0D01*
G01*
X75930000Y-53309500D01*
G75*
G02*
X76155000Y-53534500I0J-225000D01*
G01*
G37*
%TD*%
%TO.C,C_Inv_3*%
G36*
G01*
X79304000Y-53407500D02*
X79304000Y-53907500D01*
G75*
G02*
X79079000Y-54132500I-225000J0D01*
G01*
X78629000Y-54132500D01*
G75*
G02*
X78404000Y-53907500I0J225000D01*
G01*
X78404000Y-53407500D01*
G75*
G02*
X78629000Y-53182500I225000J0D01*
G01*
X79079000Y-53182500D01*
G75*
G02*
X79304000Y-53407500I0J-225000D01*
G01*
G37*
G36*
G01*
X80854000Y-53407500D02*
X80854000Y-53907500D01*
G75*
G02*
X80629000Y-54132500I-225000J0D01*
G01*
X80179000Y-54132500D01*
G75*
G02*
X79954000Y-53907500I0J225000D01*
G01*
X79954000Y-53407500D01*
G75*
G02*
X80179000Y-53182500I225000J0D01*
G01*
X80629000Y-53182500D01*
G75*
G02*
X80854000Y-53407500I0J-225000D01*
G01*
G37*
%TD*%
%TO.C,C_Inv_2*%
G36*
G01*
X77526000Y-63948500D02*
X77526000Y-64448500D01*
G75*
G02*
X77301000Y-64673500I-225000J0D01*
G01*
X76851000Y-64673500D01*
G75*
G02*
X76626000Y-64448500I0J225000D01*
G01*
X76626000Y-63948500D01*
G75*
G02*
X76851000Y-63723500I225000J0D01*
G01*
X77301000Y-63723500D01*
G75*
G02*
X77526000Y-63948500I0J-225000D01*
G01*
G37*
G36*
G01*
X79076000Y-63948500D02*
X79076000Y-64448500D01*
G75*
G02*
X78851000Y-64673500I-225000J0D01*
G01*
X78401000Y-64673500D01*
G75*
G02*
X78176000Y-64448500I0J225000D01*
G01*
X78176000Y-63948500D01*
G75*
G02*
X78401000Y-63723500I225000J0D01*
G01*
X78851000Y-63723500D01*
G75*
G02*
X79076000Y-63948500I0J-225000D01*
G01*
G37*
%TD*%
%TO.C,C_Inv_1*%
G36*
G01*
X72446000Y-63948500D02*
X72446000Y-64448500D01*
G75*
G02*
X72221000Y-64673500I-225000J0D01*
G01*
X71771000Y-64673500D01*
G75*
G02*
X71546000Y-64448500I0J225000D01*
G01*
X71546000Y-63948500D01*
G75*
G02*
X71771000Y-63723500I225000J0D01*
G01*
X72221000Y-63723500D01*
G75*
G02*
X72446000Y-63948500I0J-225000D01*
G01*
G37*
G36*
G01*
X73996000Y-63948500D02*
X73996000Y-64448500D01*
G75*
G02*
X73771000Y-64673500I-225000J0D01*
G01*
X73321000Y-64673500D01*
G75*
G02*
X73096000Y-64448500I0J225000D01*
G01*
X73096000Y-63948500D01*
G75*
G02*
X73321000Y-63723500I225000J0D01*
G01*
X73771000Y-63723500D01*
G75*
G02*
X73996000Y-63948500I0J-225000D01*
G01*
G37*
%TD*%
%TO.C,R_Inv_5*%
G36*
G01*
X86635000Y-58185500D02*
X86085000Y-58185500D01*
G75*
G02*
X85885000Y-57985500I0J200000D01*
G01*
X85885000Y-57585500D01*
G75*
G02*
X86085000Y-57385500I200000J0D01*
G01*
X86635000Y-57385500D01*
G75*
G02*
X86835000Y-57585500I0J-200000D01*
G01*
X86835000Y-57985500D01*
G75*
G02*
X86635000Y-58185500I-200000J0D01*
G01*
G37*
G36*
G01*
X86635000Y-59835500D02*
X86085000Y-59835500D01*
G75*
G02*
X85885000Y-59635500I0J200000D01*
G01*
X85885000Y-59235500D01*
G75*
G02*
X86085000Y-59035500I200000J0D01*
G01*
X86635000Y-59035500D01*
G75*
G02*
X86835000Y-59235500I0J-200000D01*
G01*
X86835000Y-59635500D01*
G75*
G02*
X86635000Y-59835500I-200000J0D01*
G01*
G37*
%TD*%
%TO.C,R_Inv_4*%
G36*
G01*
X77133000Y-52027500D02*
X77133000Y-51477500D01*
G75*
G02*
X77333000Y-51277500I200000J0D01*
G01*
X77733000Y-51277500D01*
G75*
G02*
X77933000Y-51477500I0J-200000D01*
G01*
X77933000Y-52027500D01*
G75*
G02*
X77733000Y-52227500I-200000J0D01*
G01*
X77333000Y-52227500D01*
G75*
G02*
X77133000Y-52027500I0J200000D01*
G01*
G37*
G36*
G01*
X75483000Y-52027500D02*
X75483000Y-51477500D01*
G75*
G02*
X75683000Y-51277500I200000J0D01*
G01*
X76083000Y-51277500D01*
G75*
G02*
X76283000Y-51477500I0J-200000D01*
G01*
X76283000Y-52027500D01*
G75*
G02*
X76083000Y-52227500I-200000J0D01*
G01*
X75683000Y-52227500D01*
G75*
G02*
X75483000Y-52027500I0J200000D01*
G01*
G37*
%TD*%
%TO.C,R_Inv_3*%
G36*
G01*
X81768500Y-52027500D02*
X81768500Y-51477500D01*
G75*
G02*
X81968500Y-51277500I200000J0D01*
G01*
X82368500Y-51277500D01*
G75*
G02*
X82568500Y-51477500I0J-200000D01*
G01*
X82568500Y-52027500D01*
G75*
G02*
X82368500Y-52227500I-200000J0D01*
G01*
X81968500Y-52227500D01*
G75*
G02*
X81768500Y-52027500I0J200000D01*
G01*
G37*
G36*
G01*
X80118500Y-52027500D02*
X80118500Y-51477500D01*
G75*
G02*
X80318500Y-51277500I200000J0D01*
G01*
X80718500Y-51277500D01*
G75*
G02*
X80918500Y-51477500I0J-200000D01*
G01*
X80918500Y-52027500D01*
G75*
G02*
X80718500Y-52227500I-200000J0D01*
G01*
X80318500Y-52227500D01*
G75*
G02*
X80118500Y-52027500I0J200000D01*
G01*
G37*
%TD*%
%TO.C,R_Inv_2*%
G36*
G01*
X79927000Y-66378500D02*
X79927000Y-65828500D01*
G75*
G02*
X80127000Y-65628500I200000J0D01*
G01*
X80527000Y-65628500D01*
G75*
G02*
X80727000Y-65828500I0J-200000D01*
G01*
X80727000Y-66378500D01*
G75*
G02*
X80527000Y-66578500I-200000J0D01*
G01*
X80127000Y-66578500D01*
G75*
G02*
X79927000Y-66378500I0J200000D01*
G01*
G37*
G36*
G01*
X78277000Y-66378500D02*
X78277000Y-65828500D01*
G75*
G02*
X78477000Y-65628500I200000J0D01*
G01*
X78877000Y-65628500D01*
G75*
G02*
X79077000Y-65828500I0J-200000D01*
G01*
X79077000Y-66378500D01*
G75*
G02*
X78877000Y-66578500I-200000J0D01*
G01*
X78477000Y-66578500D01*
G75*
G02*
X78277000Y-66378500I0J200000D01*
G01*
G37*
%TD*%
D15*
%TO.C,Jout1*%
X86106000Y-38608000D03*
D16*
X86106000Y-41148000D03*
%TD*%
D15*
%TO.C,J2*%
X42672000Y-35052000D03*
D16*
X42672000Y-32512000D03*
%TD*%
%TO.C,Rout1*%
G36*
G01*
X78174002Y-46590000D02*
X77273998Y-46590000D01*
G75*
G02*
X77024000Y-46340002I0J249998D01*
G01*
X77024000Y-45814998D01*
G75*
G02*
X77273998Y-45565000I249998J0D01*
G01*
X78174002Y-45565000D01*
G75*
G02*
X78424000Y-45814998I0J-249998D01*
G01*
X78424000Y-46340002D01*
G75*
G02*
X78174002Y-46590000I-249998J0D01*
G01*
G37*
G36*
G01*
X78174002Y-48415000D02*
X77273998Y-48415000D01*
G75*
G02*
X77024000Y-48165002I0J249998D01*
G01*
X77024000Y-47639998D01*
G75*
G02*
X77273998Y-47390000I249998J0D01*
G01*
X78174002Y-47390000D01*
G75*
G02*
X78424000Y-47639998I0J-249998D01*
G01*
X78424000Y-48165002D01*
G75*
G02*
X78174002Y-48415000I-249998J0D01*
G01*
G37*
%TD*%
%TO.C,RJumper1*%
G36*
G01*
X51265500Y-54032998D02*
X51265500Y-54933002D01*
G75*
G02*
X51015502Y-55183000I-249998J0D01*
G01*
X50490498Y-55183000D01*
G75*
G02*
X50240500Y-54933002I0J249998D01*
G01*
X50240500Y-54032998D01*
G75*
G02*
X50490498Y-53783000I249998J0D01*
G01*
X51015502Y-53783000D01*
G75*
G02*
X51265500Y-54032998I0J-249998D01*
G01*
G37*
G36*
G01*
X53090500Y-54032998D02*
X53090500Y-54933002D01*
G75*
G02*
X52840502Y-55183000I-249998J0D01*
G01*
X52315498Y-55183000D01*
G75*
G02*
X52065500Y-54933002I0J249998D01*
G01*
X52065500Y-54032998D01*
G75*
G02*
X52315498Y-53783000I249998J0D01*
G01*
X52840502Y-53783000D01*
G75*
G02*
X53090500Y-54032998I0J-249998D01*
G01*
G37*
%TD*%
%TO.C,RFB2*%
G36*
G01*
X57588998Y-32785000D02*
X58489002Y-32785000D01*
G75*
G02*
X58739000Y-33034998I0J-249998D01*
G01*
X58739000Y-33560002D01*
G75*
G02*
X58489002Y-33810000I-249998J0D01*
G01*
X57588998Y-33810000D01*
G75*
G02*
X57339000Y-33560002I0J249998D01*
G01*
X57339000Y-33034998D01*
G75*
G02*
X57588998Y-32785000I249998J0D01*
G01*
G37*
G36*
G01*
X57588998Y-30960000D02*
X58489002Y-30960000D01*
G75*
G02*
X58739000Y-31209998I0J-249998D01*
G01*
X58739000Y-31735002D01*
G75*
G02*
X58489002Y-31985000I-249998J0D01*
G01*
X57588998Y-31985000D01*
G75*
G02*
X57339000Y-31735002I0J249998D01*
G01*
X57339000Y-31209998D01*
G75*
G02*
X57588998Y-30960000I249998J0D01*
G01*
G37*
%TD*%
%TO.C,R_CMG1*%
G36*
G01*
X63430998Y-30753000D02*
X64331002Y-30753000D01*
G75*
G02*
X64581000Y-31002998I0J-249998D01*
G01*
X64581000Y-31528002D01*
G75*
G02*
X64331002Y-31778000I-249998J0D01*
G01*
X63430998Y-31778000D01*
G75*
G02*
X63181000Y-31528002I0J249998D01*
G01*
X63181000Y-31002998D01*
G75*
G02*
X63430998Y-30753000I249998J0D01*
G01*
G37*
G36*
G01*
X63430998Y-28928000D02*
X64331002Y-28928000D01*
G75*
G02*
X64581000Y-29177998I0J-249998D01*
G01*
X64581000Y-29703002D01*
G75*
G02*
X64331002Y-29953000I-249998J0D01*
G01*
X63430998Y-29953000D01*
G75*
G02*
X63181000Y-29703002I0J249998D01*
G01*
X63181000Y-29177998D01*
G75*
G02*
X63430998Y-28928000I249998J0D01*
G01*
G37*
%TD*%
%TO.C,R4*%
G36*
G01*
X60255998Y-53486000D02*
X61156002Y-53486000D01*
G75*
G02*
X61406000Y-53735998I0J-249998D01*
G01*
X61406000Y-54261002D01*
G75*
G02*
X61156002Y-54511000I-249998J0D01*
G01*
X60255998Y-54511000D01*
G75*
G02*
X60006000Y-54261002I0J249998D01*
G01*
X60006000Y-53735998D01*
G75*
G02*
X60255998Y-53486000I249998J0D01*
G01*
G37*
G36*
G01*
X60255998Y-51661000D02*
X61156002Y-51661000D01*
G75*
G02*
X61406000Y-51910998I0J-249998D01*
G01*
X61406000Y-52436002D01*
G75*
G02*
X61156002Y-52686000I-249998J0D01*
G01*
X60255998Y-52686000D01*
G75*
G02*
X60006000Y-52436002I0J249998D01*
G01*
X60006000Y-51910998D01*
G75*
G02*
X60255998Y-51661000I249998J0D01*
G01*
G37*
%TD*%
%TO.C,R3*%
G36*
G01*
X60255998Y-48279000D02*
X61156002Y-48279000D01*
G75*
G02*
X61406000Y-48528998I0J-249998D01*
G01*
X61406000Y-49054002D01*
G75*
G02*
X61156002Y-49304000I-249998J0D01*
G01*
X60255998Y-49304000D01*
G75*
G02*
X60006000Y-49054002I0J249998D01*
G01*
X60006000Y-48528998D01*
G75*
G02*
X60255998Y-48279000I249998J0D01*
G01*
G37*
G36*
G01*
X60255998Y-46454000D02*
X61156002Y-46454000D01*
G75*
G02*
X61406000Y-46703998I0J-249998D01*
G01*
X61406000Y-47229002D01*
G75*
G02*
X61156002Y-47479000I-249998J0D01*
G01*
X60255998Y-47479000D01*
G75*
G02*
X60006000Y-47229002I0J249998D01*
G01*
X60006000Y-46703998D01*
G75*
G02*
X60255998Y-46454000I249998J0D01*
G01*
G37*
%TD*%
%TO.C,R2*%
G36*
G01*
X51619998Y-39262000D02*
X52520002Y-39262000D01*
G75*
G02*
X52770000Y-39511998I0J-249998D01*
G01*
X52770000Y-40037002D01*
G75*
G02*
X52520002Y-40287000I-249998J0D01*
G01*
X51619998Y-40287000D01*
G75*
G02*
X51370000Y-40037002I0J249998D01*
G01*
X51370000Y-39511998D01*
G75*
G02*
X51619998Y-39262000I249998J0D01*
G01*
G37*
G36*
G01*
X51619998Y-37437000D02*
X52520002Y-37437000D01*
G75*
G02*
X52770000Y-37686998I0J-249998D01*
G01*
X52770000Y-38212002D01*
G75*
G02*
X52520002Y-38462000I-249998J0D01*
G01*
X51619998Y-38462000D01*
G75*
G02*
X51370000Y-38212002I0J249998D01*
G01*
X51370000Y-37686998D01*
G75*
G02*
X51619998Y-37437000I249998J0D01*
G01*
G37*
%TD*%
%TO.C,R1*%
G36*
G01*
X51619998Y-33801000D02*
X52520002Y-33801000D01*
G75*
G02*
X52770000Y-34050998I0J-249998D01*
G01*
X52770000Y-34576002D01*
G75*
G02*
X52520002Y-34826000I-249998J0D01*
G01*
X51619998Y-34826000D01*
G75*
G02*
X51370000Y-34576002I0J249998D01*
G01*
X51370000Y-34050998D01*
G75*
G02*
X51619998Y-33801000I249998J0D01*
G01*
G37*
G36*
G01*
X51619998Y-31976000D02*
X52520002Y-31976000D01*
G75*
G02*
X52770000Y-32225998I0J-249998D01*
G01*
X52770000Y-32751002D01*
G75*
G02*
X52520002Y-33001000I-249998J0D01*
G01*
X51619998Y-33001000D01*
G75*
G02*
X51370000Y-32751002I0J249998D01*
G01*
X51370000Y-32225998D01*
G75*
G02*
X51619998Y-31976000I249998J0D01*
G01*
G37*
%TD*%
%TO.C,Cout1*%
G36*
G01*
X82009000Y-46540000D02*
X81059000Y-46540000D01*
G75*
G02*
X80809000Y-46290000I0J250000D01*
G01*
X80809000Y-45790000D01*
G75*
G02*
X81059000Y-45540000I250000J0D01*
G01*
X82009000Y-45540000D01*
G75*
G02*
X82259000Y-45790000I0J-250000D01*
G01*
X82259000Y-46290000D01*
G75*
G02*
X82009000Y-46540000I-250000J0D01*
G01*
G37*
G36*
G01*
X82009000Y-48440000D02*
X81059000Y-48440000D01*
G75*
G02*
X80809000Y-48190000I0J250000D01*
G01*
X80809000Y-47690000D01*
G75*
G02*
X81059000Y-47440000I250000J0D01*
G01*
X82009000Y-47440000D01*
G75*
G02*
X82259000Y-47690000I0J-250000D01*
G01*
X82259000Y-48190000D01*
G75*
G02*
X82009000Y-48440000I-250000J0D01*
G01*
G37*
%TD*%
%TO.C,Cin1*%
G36*
G01*
X57691000Y-37534000D02*
X58641000Y-37534000D01*
G75*
G02*
X58891000Y-37784000I0J-250000D01*
G01*
X58891000Y-38284000D01*
G75*
G02*
X58641000Y-38534000I-250000J0D01*
G01*
X57691000Y-38534000D01*
G75*
G02*
X57441000Y-38284000I0J250000D01*
G01*
X57441000Y-37784000D01*
G75*
G02*
X57691000Y-37534000I250000J0D01*
G01*
G37*
G36*
G01*
X57691000Y-35634000D02*
X58641000Y-35634000D01*
G75*
G02*
X58891000Y-35884000I0J-250000D01*
G01*
X58891000Y-36384000D01*
G75*
G02*
X58641000Y-36634000I-250000J0D01*
G01*
X57691000Y-36634000D01*
G75*
G02*
X57441000Y-36384000I0J250000D01*
G01*
X57441000Y-35884000D01*
G75*
G02*
X57691000Y-35634000I250000J0D01*
G01*
G37*
%TD*%
%TO.C,CC1*%
G36*
G01*
X47785000Y-29660000D02*
X48735000Y-29660000D01*
G75*
G02*
X48985000Y-29910000I0J-250000D01*
G01*
X48985000Y-30410000D01*
G75*
G02*
X48735000Y-30660000I-250000J0D01*
G01*
X47785000Y-30660000D01*
G75*
G02*
X47535000Y-30410000I0J250000D01*
G01*
X47535000Y-29910000D01*
G75*
G02*
X47785000Y-29660000I250000J0D01*
G01*
G37*
G36*
G01*
X47785000Y-27760000D02*
X48735000Y-27760000D01*
G75*
G02*
X48985000Y-28010000I0J-250000D01*
G01*
X48985000Y-28510000D01*
G75*
G02*
X48735000Y-28760000I-250000J0D01*
G01*
X47785000Y-28760000D01*
G75*
G02*
X47535000Y-28510000I0J250000D01*
G01*
X47535000Y-28010000D01*
G75*
G02*
X47785000Y-27760000I250000J0D01*
G01*
G37*
%TD*%
%TO.C,C_CMG1*%
G36*
G01*
X68105000Y-30803000D02*
X69055000Y-30803000D01*
G75*
G02*
X69305000Y-31053000I0J-250000D01*
G01*
X69305000Y-31553000D01*
G75*
G02*
X69055000Y-31803000I-250000J0D01*
G01*
X68105000Y-31803000D01*
G75*
G02*
X67855000Y-31553000I0J250000D01*
G01*
X67855000Y-31053000D01*
G75*
G02*
X68105000Y-30803000I250000J0D01*
G01*
G37*
G36*
G01*
X68105000Y-28903000D02*
X69055000Y-28903000D01*
G75*
G02*
X69305000Y-29153000I0J-250000D01*
G01*
X69305000Y-29653000D01*
G75*
G02*
X69055000Y-29903000I-250000J0D01*
G01*
X68105000Y-29903000D01*
G75*
G02*
X67855000Y-29653000I0J250000D01*
G01*
X67855000Y-29153000D01*
G75*
G02*
X68105000Y-28903000I250000J0D01*
G01*
G37*
%TD*%
%TO.C,C2*%
G36*
G01*
X72169000Y-30803000D02*
X73119000Y-30803000D01*
G75*
G02*
X73369000Y-31053000I0J-250000D01*
G01*
X73369000Y-31553000D01*
G75*
G02*
X73119000Y-31803000I-250000J0D01*
G01*
X72169000Y-31803000D01*
G75*
G02*
X71919000Y-31553000I0J250000D01*
G01*
X71919000Y-31053000D01*
G75*
G02*
X72169000Y-30803000I250000J0D01*
G01*
G37*
G36*
G01*
X72169000Y-28903000D02*
X73119000Y-28903000D01*
G75*
G02*
X73369000Y-29153000I0J-250000D01*
G01*
X73369000Y-29653000D01*
G75*
G02*
X73119000Y-29903000I-250000J0D01*
G01*
X72169000Y-29903000D01*
G75*
G02*
X71919000Y-29653000I0J250000D01*
G01*
X71919000Y-29153000D01*
G75*
G02*
X72169000Y-28903000I250000J0D01*
G01*
G37*
%TD*%
M02*
