%TF.GenerationSoftware,KiCad,Pcbnew,(5.1.9)-1*%
%TF.CreationDate,2021-02-11T15:57:47-05:00*%
%TF.ProjectId,DemodulatorCircuit,44656d6f-6475-46c6-9174-6f7243697263,rev?*%
%TF.SameCoordinates,Original*%
%TF.FileFunction,Copper,L1,Top*%
%TF.FilePolarity,Positive*%
%FSLAX46Y46*%
G04 Gerber Fmt 4.6, Leading zero omitted, Abs format (unit mm)*
G04 Created by KiCad (PCBNEW (5.1.9)-1) date 2021-02-11 15:57:47*
%MOMM*%
%LPD*%
G01*
G04 APERTURE LIST*
%TA.AperFunction,SMDPad,CuDef*%
%ADD10R,0.600000X1.970000*%
%TD*%
%TA.AperFunction,SMDPad,CuDef*%
%ADD11R,1.050000X0.800000*%
%TD*%
%TA.AperFunction,SMDPad,CuDef*%
%ADD12R,1.970000X0.600000*%
%TD*%
%TA.AperFunction,SMDPad,CuDef*%
%ADD13R,4.200000X1.750000*%
%TD*%
%TA.AperFunction,SMDPad,CuDef*%
%ADD14R,3.600000X1.270000*%
%TD*%
%TA.AperFunction,ComponentPad*%
%ADD15O,1.700000X1.700000*%
%TD*%
%TA.AperFunction,ComponentPad*%
%ADD16R,1.700000X1.700000*%
%TD*%
%TA.AperFunction,ViaPad*%
%ADD17C,0.800000*%
%TD*%
%TA.AperFunction,Conductor*%
%ADD18C,1.000000*%
%TD*%
%TA.AperFunction,Conductor*%
%ADD19C,0.250000*%
%TD*%
%TA.AperFunction,Conductor*%
%ADD20C,0.500000*%
%TD*%
%TA.AperFunction,Conductor*%
%ADD21C,0.750000*%
%TD*%
%TA.AperFunction,Conductor*%
%ADD22C,0.254000*%
%TD*%
%TA.AperFunction,Conductor*%
%ADD23C,0.100000*%
%TD*%
G04 APERTURE END LIST*
D10*
%TO.P,U4,14*%
%TO.N,+5V*%
X74041000Y-56516500D03*
%TO.P,U4,13*%
%TO.N,Net-(R_Inv_5-Pad2)*%
X75311000Y-56516500D03*
%TO.P,U4,12*%
%TO.N,/6Y*%
X76581000Y-56516500D03*
%TO.P,U4,11*%
%TO.N,Net-(R_Inv_4-Pad2)*%
X77851000Y-56516500D03*
%TO.P,U4,10*%
%TO.N,/5Y*%
X79121000Y-56516500D03*
%TO.P,U4,9*%
%TO.N,Net-(R_Inv_3-Pad2)*%
X80391000Y-56516500D03*
%TO.P,U4,8*%
%TO.N,/4Y*%
X81661000Y-56516500D03*
%TO.P,U4,7*%
%TO.N,GND*%
X81661000Y-61466500D03*
%TO.P,U4,6*%
%TO.N,/3Y*%
X80391000Y-61466500D03*
%TO.P,U4,5*%
%TO.N,Net-(R_Inv_2-Pad2)*%
X79121000Y-61466500D03*
%TO.P,U4,4*%
%TO.N,/2Y*%
X77851000Y-61466500D03*
%TO.P,U4,3*%
%TO.N,Net-(R_Inv_1-Pad2)*%
X76581000Y-61466500D03*
%TO.P,U4,2*%
%TO.N,/1Y*%
X75311000Y-61466500D03*
%TO.P,U4,1*%
%TO.N,/IF_Lim*%
X74041000Y-61466500D03*
%TD*%
D11*
%TO.P,U3,6*%
%TO.N,/FilteredIF*%
X53064000Y-47114000D03*
%TO.P,U3,5*%
%TO.N,GND*%
X53064000Y-48514000D03*
%TO.P,U3,4*%
%TO.N,Net-(U3-Pad4)*%
X53064000Y-49914000D03*
%TO.P,U3,3*%
%TO.N,Net-(U3-Pad3)*%
X50614000Y-49914000D03*
%TO.P,U3,2*%
%TO.N,GND*%
X50614000Y-48514000D03*
%TO.P,U3,1*%
%TO.N,Net-(J1-Pad1)*%
X50614000Y-47114000D03*
%TD*%
D12*
%TO.P,U2,14*%
%TO.N,Net-(U2-Pad14)*%
X68769000Y-33655000D03*
%TO.P,U2,13*%
%TO.N,Net-(U2-Pad13)*%
X68769000Y-34925000D03*
%TO.P,U2,12*%
%TO.N,Net-(U2-Pad12)*%
X68769000Y-36195000D03*
%TO.P,U2,11*%
%TO.N,GND*%
X68769000Y-37465000D03*
%TO.P,U2,10*%
%TO.N,Net-(U2-Pad10)*%
X68769000Y-38735000D03*
%TO.P,U2,9*%
%TO.N,Net-(U2-Pad9)*%
X68769000Y-40005000D03*
%TO.P,U2,8*%
%TO.N,Net-(U2-Pad8)*%
X68769000Y-41275000D03*
%TO.P,U2,7*%
%TO.N,Net-(U2-Pad7)*%
X63819000Y-41275000D03*
%TO.P,U2,6*%
%TO.N,Net-(U2-Pad6)*%
X63819000Y-40005000D03*
%TO.P,U2,5*%
%TO.N,Net-(U2-Pad5)*%
X63819000Y-38735000D03*
%TO.P,U2,4*%
%TO.N,+5V*%
X63819000Y-37465000D03*
%TO.P,U2,3*%
%TO.N,Net-(Cin1-Pad1)*%
X63819000Y-36195000D03*
%TO.P,U2,2*%
%TO.N,Net-(RFB2-Pad2)*%
X63819000Y-34925000D03*
%TO.P,U2,1*%
%TO.N,/CMGOUT*%
X63819000Y-33655000D03*
%TD*%
%TO.P,U1,8*%
%TO.N,GND*%
X69780000Y-47879000D03*
%TO.P,U1,7*%
%TO.N,+5V*%
X69780000Y-49149000D03*
%TO.P,U1,6*%
%TO.N,/IF_Lim*%
X69780000Y-50419000D03*
%TO.P,U1,5*%
%TO.N,N/C*%
X69780000Y-51689000D03*
%TO.P,U1,4*%
%TO.N,GND*%
X64840000Y-51689000D03*
%TO.P,U1,3*%
%TO.N,/FilteredIF*%
X64840000Y-50419000D03*
%TO.P,U1,2*%
%TO.N,/CMG*%
X64840000Y-49149000D03*
%TO.P,U1,1*%
%TO.N,N/C*%
X64840000Y-47879000D03*
%TD*%
D13*
%TO.P,J3,3_1*%
%TO.N,GND*%
X88700000Y-45181000D03*
%TO.P,J3,2_1*%
X88700000Y-50831000D03*
D14*
%TO.P,J3,1*%
%TO.N,/AudioSignalOut*%
X88900000Y-48006000D03*
%TD*%
D13*
%TO.P,J1,3_1*%
%TO.N,GND*%
X35760000Y-53371000D03*
%TO.P,J1,2_1*%
X35760000Y-47721000D03*
D14*
%TO.P,J1,1*%
%TO.N,Net-(J1-Pad1)*%
X35560000Y-50546000D03*
%TD*%
D10*
%TO.P,IC2,14*%
%TO.N,+5V*%
X73914000Y-37784000D03*
%TO.P,IC2,13*%
%TO.N,Net-(IC2-Pad13)*%
X75184000Y-37784000D03*
%TO.P,IC2,12*%
%TO.N,Net-(IC2-Pad12)*%
X76454000Y-37784000D03*
%TO.P,IC2,11*%
%TO.N,Net-(IC2-Pad11)*%
X77724000Y-37784000D03*
%TO.P,IC2,10*%
%TO.N,Net-(IC2-Pad10)*%
X78994000Y-37784000D03*
%TO.P,IC2,9*%
%TO.N,Net-(IC2-Pad9)*%
X80264000Y-37784000D03*
%TO.P,IC2,8*%
%TO.N,Net-(IC2-Pad8)*%
X81534000Y-37784000D03*
%TO.P,IC2,7*%
%TO.N,GND*%
X81534000Y-42734000D03*
%TO.P,IC2,6*%
%TO.N,Net-(IC2-Pad6)*%
X80264000Y-42734000D03*
%TO.P,IC2,5*%
%TO.N,Net-(IC2-Pad5)*%
X78994000Y-42734000D03*
%TO.P,IC2,4*%
%TO.N,Net-(IC2-Pad4)*%
X77724000Y-42734000D03*
%TO.P,IC2,3*%
%TO.N,Net-(IC2-Pad3)*%
X76454000Y-42734000D03*
%TO.P,IC2,2*%
%TO.N,/4Y*%
X75184000Y-42734000D03*
%TO.P,IC2,1*%
%TO.N,/IF_Lim*%
X73914000Y-42734000D03*
%TD*%
%TO.P,R_Inv_1,2*%
%TO.N,Net-(R_Inv_1-Pad2)*%
%TA.AperFunction,SMDPad,CuDef*%
G36*
G01*
X74720000Y-66124500D02*
X74720000Y-65574500D01*
G75*
G02*
X74920000Y-65374500I200000J0D01*
G01*
X75320000Y-65374500D01*
G75*
G02*
X75520000Y-65574500I0J-200000D01*
G01*
X75520000Y-66124500D01*
G75*
G02*
X75320000Y-66324500I-200000J0D01*
G01*
X74920000Y-66324500D01*
G75*
G02*
X74720000Y-66124500I0J200000D01*
G01*
G37*
%TD.AperFunction*%
%TO.P,R_Inv_1,1*%
%TO.N,/1Y*%
%TA.AperFunction,SMDPad,CuDef*%
G36*
G01*
X73070000Y-66124500D02*
X73070000Y-65574500D01*
G75*
G02*
X73270000Y-65374500I200000J0D01*
G01*
X73670000Y-65374500D01*
G75*
G02*
X73870000Y-65574500I0J-200000D01*
G01*
X73870000Y-66124500D01*
G75*
G02*
X73670000Y-66324500I-200000J0D01*
G01*
X73270000Y-66324500D01*
G75*
G02*
X73070000Y-66124500I0J200000D01*
G01*
G37*
%TD.AperFunction*%
%TD*%
%TO.P,C_Inv_5,2*%
%TO.N,GND*%
%TA.AperFunction,SMDPad,CuDef*%
G36*
G01*
X84078000Y-60523000D02*
X84578000Y-60523000D01*
G75*
G02*
X84803000Y-60748000I0J-225000D01*
G01*
X84803000Y-61198000D01*
G75*
G02*
X84578000Y-61423000I-225000J0D01*
G01*
X84078000Y-61423000D01*
G75*
G02*
X83853000Y-61198000I0J225000D01*
G01*
X83853000Y-60748000D01*
G75*
G02*
X84078000Y-60523000I225000J0D01*
G01*
G37*
%TD.AperFunction*%
%TO.P,C_Inv_5,1*%
%TO.N,/3Y*%
%TA.AperFunction,SMDPad,CuDef*%
G36*
G01*
X84078000Y-58973000D02*
X84578000Y-58973000D01*
G75*
G02*
X84803000Y-59198000I0J-225000D01*
G01*
X84803000Y-59648000D01*
G75*
G02*
X84578000Y-59873000I-225000J0D01*
G01*
X84078000Y-59873000D01*
G75*
G02*
X83853000Y-59648000I0J225000D01*
G01*
X83853000Y-59198000D01*
G75*
G02*
X84078000Y-58973000I225000J0D01*
G01*
G37*
%TD.AperFunction*%
%TD*%
%TO.P,C_Inv_4,2*%
%TO.N,GND*%
%TA.AperFunction,SMDPad,CuDef*%
G36*
G01*
X74605000Y-53534500D02*
X74605000Y-54034500D01*
G75*
G02*
X74380000Y-54259500I-225000J0D01*
G01*
X73930000Y-54259500D01*
G75*
G02*
X73705000Y-54034500I0J225000D01*
G01*
X73705000Y-53534500D01*
G75*
G02*
X73930000Y-53309500I225000J0D01*
G01*
X74380000Y-53309500D01*
G75*
G02*
X74605000Y-53534500I0J-225000D01*
G01*
G37*
%TD.AperFunction*%
%TO.P,C_Inv_4,1*%
%TO.N,/6Y*%
%TA.AperFunction,SMDPad,CuDef*%
G36*
G01*
X76155000Y-53534500D02*
X76155000Y-54034500D01*
G75*
G02*
X75930000Y-54259500I-225000J0D01*
G01*
X75480000Y-54259500D01*
G75*
G02*
X75255000Y-54034500I0J225000D01*
G01*
X75255000Y-53534500D01*
G75*
G02*
X75480000Y-53309500I225000J0D01*
G01*
X75930000Y-53309500D01*
G75*
G02*
X76155000Y-53534500I0J-225000D01*
G01*
G37*
%TD.AperFunction*%
%TD*%
%TO.P,C_Inv_3,2*%
%TO.N,GND*%
%TA.AperFunction,SMDPad,CuDef*%
G36*
G01*
X79304000Y-53407500D02*
X79304000Y-53907500D01*
G75*
G02*
X79079000Y-54132500I-225000J0D01*
G01*
X78629000Y-54132500D01*
G75*
G02*
X78404000Y-53907500I0J225000D01*
G01*
X78404000Y-53407500D01*
G75*
G02*
X78629000Y-53182500I225000J0D01*
G01*
X79079000Y-53182500D01*
G75*
G02*
X79304000Y-53407500I0J-225000D01*
G01*
G37*
%TD.AperFunction*%
%TO.P,C_Inv_3,1*%
%TO.N,/5Y*%
%TA.AperFunction,SMDPad,CuDef*%
G36*
G01*
X80854000Y-53407500D02*
X80854000Y-53907500D01*
G75*
G02*
X80629000Y-54132500I-225000J0D01*
G01*
X80179000Y-54132500D01*
G75*
G02*
X79954000Y-53907500I0J225000D01*
G01*
X79954000Y-53407500D01*
G75*
G02*
X80179000Y-53182500I225000J0D01*
G01*
X80629000Y-53182500D01*
G75*
G02*
X80854000Y-53407500I0J-225000D01*
G01*
G37*
%TD.AperFunction*%
%TD*%
%TO.P,C_Inv_2,2*%
%TO.N,GND*%
%TA.AperFunction,SMDPad,CuDef*%
G36*
G01*
X77526000Y-63948500D02*
X77526000Y-64448500D01*
G75*
G02*
X77301000Y-64673500I-225000J0D01*
G01*
X76851000Y-64673500D01*
G75*
G02*
X76626000Y-64448500I0J225000D01*
G01*
X76626000Y-63948500D01*
G75*
G02*
X76851000Y-63723500I225000J0D01*
G01*
X77301000Y-63723500D01*
G75*
G02*
X77526000Y-63948500I0J-225000D01*
G01*
G37*
%TD.AperFunction*%
%TO.P,C_Inv_2,1*%
%TO.N,/2Y*%
%TA.AperFunction,SMDPad,CuDef*%
G36*
G01*
X79076000Y-63948500D02*
X79076000Y-64448500D01*
G75*
G02*
X78851000Y-64673500I-225000J0D01*
G01*
X78401000Y-64673500D01*
G75*
G02*
X78176000Y-64448500I0J225000D01*
G01*
X78176000Y-63948500D01*
G75*
G02*
X78401000Y-63723500I225000J0D01*
G01*
X78851000Y-63723500D01*
G75*
G02*
X79076000Y-63948500I0J-225000D01*
G01*
G37*
%TD.AperFunction*%
%TD*%
%TO.P,C_Inv_1,2*%
%TO.N,GND*%
%TA.AperFunction,SMDPad,CuDef*%
G36*
G01*
X72446000Y-63948500D02*
X72446000Y-64448500D01*
G75*
G02*
X72221000Y-64673500I-225000J0D01*
G01*
X71771000Y-64673500D01*
G75*
G02*
X71546000Y-64448500I0J225000D01*
G01*
X71546000Y-63948500D01*
G75*
G02*
X71771000Y-63723500I225000J0D01*
G01*
X72221000Y-63723500D01*
G75*
G02*
X72446000Y-63948500I0J-225000D01*
G01*
G37*
%TD.AperFunction*%
%TO.P,C_Inv_1,1*%
%TO.N,/1Y*%
%TA.AperFunction,SMDPad,CuDef*%
G36*
G01*
X73996000Y-63948500D02*
X73996000Y-64448500D01*
G75*
G02*
X73771000Y-64673500I-225000J0D01*
G01*
X73321000Y-64673500D01*
G75*
G02*
X73096000Y-64448500I0J225000D01*
G01*
X73096000Y-63948500D01*
G75*
G02*
X73321000Y-63723500I225000J0D01*
G01*
X73771000Y-63723500D01*
G75*
G02*
X73996000Y-63948500I0J-225000D01*
G01*
G37*
%TD.AperFunction*%
%TD*%
%TO.P,R_Inv_5,2*%
%TO.N,Net-(R_Inv_5-Pad2)*%
%TA.AperFunction,SMDPad,CuDef*%
G36*
G01*
X86635000Y-58185500D02*
X86085000Y-58185500D01*
G75*
G02*
X85885000Y-57985500I0J200000D01*
G01*
X85885000Y-57585500D01*
G75*
G02*
X86085000Y-57385500I200000J0D01*
G01*
X86635000Y-57385500D01*
G75*
G02*
X86835000Y-57585500I0J-200000D01*
G01*
X86835000Y-57985500D01*
G75*
G02*
X86635000Y-58185500I-200000J0D01*
G01*
G37*
%TD.AperFunction*%
%TO.P,R_Inv_5,1*%
%TO.N,/3Y*%
%TA.AperFunction,SMDPad,CuDef*%
G36*
G01*
X86635000Y-59835500D02*
X86085000Y-59835500D01*
G75*
G02*
X85885000Y-59635500I0J200000D01*
G01*
X85885000Y-59235500D01*
G75*
G02*
X86085000Y-59035500I200000J0D01*
G01*
X86635000Y-59035500D01*
G75*
G02*
X86835000Y-59235500I0J-200000D01*
G01*
X86835000Y-59635500D01*
G75*
G02*
X86635000Y-59835500I-200000J0D01*
G01*
G37*
%TD.AperFunction*%
%TD*%
%TO.P,R_Inv_4,2*%
%TO.N,Net-(R_Inv_4-Pad2)*%
%TA.AperFunction,SMDPad,CuDef*%
G36*
G01*
X77133000Y-52027500D02*
X77133000Y-51477500D01*
G75*
G02*
X77333000Y-51277500I200000J0D01*
G01*
X77733000Y-51277500D01*
G75*
G02*
X77933000Y-51477500I0J-200000D01*
G01*
X77933000Y-52027500D01*
G75*
G02*
X77733000Y-52227500I-200000J0D01*
G01*
X77333000Y-52227500D01*
G75*
G02*
X77133000Y-52027500I0J200000D01*
G01*
G37*
%TD.AperFunction*%
%TO.P,R_Inv_4,1*%
%TO.N,/6Y*%
%TA.AperFunction,SMDPad,CuDef*%
G36*
G01*
X75483000Y-52027500D02*
X75483000Y-51477500D01*
G75*
G02*
X75683000Y-51277500I200000J0D01*
G01*
X76083000Y-51277500D01*
G75*
G02*
X76283000Y-51477500I0J-200000D01*
G01*
X76283000Y-52027500D01*
G75*
G02*
X76083000Y-52227500I-200000J0D01*
G01*
X75683000Y-52227500D01*
G75*
G02*
X75483000Y-52027500I0J200000D01*
G01*
G37*
%TD.AperFunction*%
%TD*%
%TO.P,R_Inv_3,2*%
%TO.N,Net-(R_Inv_3-Pad2)*%
%TA.AperFunction,SMDPad,CuDef*%
G36*
G01*
X81768500Y-52027500D02*
X81768500Y-51477500D01*
G75*
G02*
X81968500Y-51277500I200000J0D01*
G01*
X82368500Y-51277500D01*
G75*
G02*
X82568500Y-51477500I0J-200000D01*
G01*
X82568500Y-52027500D01*
G75*
G02*
X82368500Y-52227500I-200000J0D01*
G01*
X81968500Y-52227500D01*
G75*
G02*
X81768500Y-52027500I0J200000D01*
G01*
G37*
%TD.AperFunction*%
%TO.P,R_Inv_3,1*%
%TO.N,/5Y*%
%TA.AperFunction,SMDPad,CuDef*%
G36*
G01*
X80118500Y-52027500D02*
X80118500Y-51477500D01*
G75*
G02*
X80318500Y-51277500I200000J0D01*
G01*
X80718500Y-51277500D01*
G75*
G02*
X80918500Y-51477500I0J-200000D01*
G01*
X80918500Y-52027500D01*
G75*
G02*
X80718500Y-52227500I-200000J0D01*
G01*
X80318500Y-52227500D01*
G75*
G02*
X80118500Y-52027500I0J200000D01*
G01*
G37*
%TD.AperFunction*%
%TD*%
%TO.P,R_Inv_2,2*%
%TO.N,Net-(R_Inv_2-Pad2)*%
%TA.AperFunction,SMDPad,CuDef*%
G36*
G01*
X79927000Y-66378500D02*
X79927000Y-65828500D01*
G75*
G02*
X80127000Y-65628500I200000J0D01*
G01*
X80527000Y-65628500D01*
G75*
G02*
X80727000Y-65828500I0J-200000D01*
G01*
X80727000Y-66378500D01*
G75*
G02*
X80527000Y-66578500I-200000J0D01*
G01*
X80127000Y-66578500D01*
G75*
G02*
X79927000Y-66378500I0J200000D01*
G01*
G37*
%TD.AperFunction*%
%TO.P,R_Inv_2,1*%
%TO.N,/2Y*%
%TA.AperFunction,SMDPad,CuDef*%
G36*
G01*
X78277000Y-66378500D02*
X78277000Y-65828500D01*
G75*
G02*
X78477000Y-65628500I200000J0D01*
G01*
X78877000Y-65628500D01*
G75*
G02*
X79077000Y-65828500I0J-200000D01*
G01*
X79077000Y-66378500D01*
G75*
G02*
X78877000Y-66578500I-200000J0D01*
G01*
X78477000Y-66578500D01*
G75*
G02*
X78277000Y-66378500I0J200000D01*
G01*
G37*
%TD.AperFunction*%
%TD*%
D15*
%TO.P,Jout1,2*%
%TO.N,GND*%
X86106000Y-38608000D03*
D16*
%TO.P,Jout1,1*%
%TO.N,/AudioSignalOut*%
X86106000Y-41148000D03*
%TD*%
D15*
%TO.P,J2,2*%
%TO.N,GND*%
X42672000Y-35052000D03*
D16*
%TO.P,J2,1*%
%TO.N,+5V*%
X42672000Y-32512000D03*
%TD*%
%TO.P,Rout1,2*%
%TO.N,Net-(IC2-Pad3)*%
%TA.AperFunction,SMDPad,CuDef*%
G36*
G01*
X78174002Y-46590000D02*
X77273998Y-46590000D01*
G75*
G02*
X77024000Y-46340002I0J249998D01*
G01*
X77024000Y-45814998D01*
G75*
G02*
X77273998Y-45565000I249998J0D01*
G01*
X78174002Y-45565000D01*
G75*
G02*
X78424000Y-45814998I0J-249998D01*
G01*
X78424000Y-46340002D01*
G75*
G02*
X78174002Y-46590000I-249998J0D01*
G01*
G37*
%TD.AperFunction*%
%TO.P,Rout1,1*%
%TO.N,/AudioSignalOut*%
%TA.AperFunction,SMDPad,CuDef*%
G36*
G01*
X78174002Y-48415000D02*
X77273998Y-48415000D01*
G75*
G02*
X77024000Y-48165002I0J249998D01*
G01*
X77024000Y-47639998D01*
G75*
G02*
X77273998Y-47390000I249998J0D01*
G01*
X78174002Y-47390000D01*
G75*
G02*
X78424000Y-47639998I0J-249998D01*
G01*
X78424000Y-48165002D01*
G75*
G02*
X78174002Y-48415000I-249998J0D01*
G01*
G37*
%TD.AperFunction*%
%TD*%
%TO.P,RJumper1,2*%
%TO.N,Net-(J1-Pad1)*%
%TA.AperFunction,SMDPad,CuDef*%
G36*
G01*
X51265500Y-54032998D02*
X51265500Y-54933002D01*
G75*
G02*
X51015502Y-55183000I-249998J0D01*
G01*
X50490498Y-55183000D01*
G75*
G02*
X50240500Y-54933002I0J249998D01*
G01*
X50240500Y-54032998D01*
G75*
G02*
X50490498Y-53783000I249998J0D01*
G01*
X51015502Y-53783000D01*
G75*
G02*
X51265500Y-54032998I0J-249998D01*
G01*
G37*
%TD.AperFunction*%
%TO.P,RJumper1,1*%
%TO.N,/FilteredIF*%
%TA.AperFunction,SMDPad,CuDef*%
G36*
G01*
X53090500Y-54032998D02*
X53090500Y-54933002D01*
G75*
G02*
X52840502Y-55183000I-249998J0D01*
G01*
X52315498Y-55183000D01*
G75*
G02*
X52065500Y-54933002I0J249998D01*
G01*
X52065500Y-54032998D01*
G75*
G02*
X52315498Y-53783000I249998J0D01*
G01*
X52840502Y-53783000D01*
G75*
G02*
X53090500Y-54032998I0J-249998D01*
G01*
G37*
%TD.AperFunction*%
%TD*%
%TO.P,RFB2,2*%
%TO.N,Net-(RFB2-Pad2)*%
%TA.AperFunction,SMDPad,CuDef*%
G36*
G01*
X57588998Y-32785000D02*
X58489002Y-32785000D01*
G75*
G02*
X58739000Y-33034998I0J-249998D01*
G01*
X58739000Y-33560002D01*
G75*
G02*
X58489002Y-33810000I-249998J0D01*
G01*
X57588998Y-33810000D01*
G75*
G02*
X57339000Y-33560002I0J249998D01*
G01*
X57339000Y-33034998D01*
G75*
G02*
X57588998Y-32785000I249998J0D01*
G01*
G37*
%TD.AperFunction*%
%TO.P,RFB2,1*%
%TO.N,/CMGOUT*%
%TA.AperFunction,SMDPad,CuDef*%
G36*
G01*
X57588998Y-30960000D02*
X58489002Y-30960000D01*
G75*
G02*
X58739000Y-31209998I0J-249998D01*
G01*
X58739000Y-31735002D01*
G75*
G02*
X58489002Y-31985000I-249998J0D01*
G01*
X57588998Y-31985000D01*
G75*
G02*
X57339000Y-31735002I0J249998D01*
G01*
X57339000Y-31209998D01*
G75*
G02*
X57588998Y-30960000I249998J0D01*
G01*
G37*
%TD.AperFunction*%
%TD*%
%TO.P,R_CMG1,2*%
%TO.N,/CMGOUT*%
%TA.AperFunction,SMDPad,CuDef*%
G36*
G01*
X63430998Y-30753000D02*
X64331002Y-30753000D01*
G75*
G02*
X64581000Y-31002998I0J-249998D01*
G01*
X64581000Y-31528002D01*
G75*
G02*
X64331002Y-31778000I-249998J0D01*
G01*
X63430998Y-31778000D01*
G75*
G02*
X63181000Y-31528002I0J249998D01*
G01*
X63181000Y-31002998D01*
G75*
G02*
X63430998Y-30753000I249998J0D01*
G01*
G37*
%TD.AperFunction*%
%TO.P,R_CMG1,1*%
%TO.N,/CMG*%
%TA.AperFunction,SMDPad,CuDef*%
G36*
G01*
X63430998Y-28928000D02*
X64331002Y-28928000D01*
G75*
G02*
X64581000Y-29177998I0J-249998D01*
G01*
X64581000Y-29703002D01*
G75*
G02*
X64331002Y-29953000I-249998J0D01*
G01*
X63430998Y-29953000D01*
G75*
G02*
X63181000Y-29703002I0J249998D01*
G01*
X63181000Y-29177998D01*
G75*
G02*
X63430998Y-28928000I249998J0D01*
G01*
G37*
%TD.AperFunction*%
%TD*%
%TO.P,R4,2*%
%TO.N,GND*%
%TA.AperFunction,SMDPad,CuDef*%
G36*
G01*
X60255998Y-53486000D02*
X61156002Y-53486000D01*
G75*
G02*
X61406000Y-53735998I0J-249998D01*
G01*
X61406000Y-54261002D01*
G75*
G02*
X61156002Y-54511000I-249998J0D01*
G01*
X60255998Y-54511000D01*
G75*
G02*
X60006000Y-54261002I0J249998D01*
G01*
X60006000Y-53735998D01*
G75*
G02*
X60255998Y-53486000I249998J0D01*
G01*
G37*
%TD.AperFunction*%
%TO.P,R4,1*%
%TO.N,/FilteredIF*%
%TA.AperFunction,SMDPad,CuDef*%
G36*
G01*
X60255998Y-51661000D02*
X61156002Y-51661000D01*
G75*
G02*
X61406000Y-51910998I0J-249998D01*
G01*
X61406000Y-52436002D01*
G75*
G02*
X61156002Y-52686000I-249998J0D01*
G01*
X60255998Y-52686000D01*
G75*
G02*
X60006000Y-52436002I0J249998D01*
G01*
X60006000Y-51910998D01*
G75*
G02*
X60255998Y-51661000I249998J0D01*
G01*
G37*
%TD.AperFunction*%
%TD*%
%TO.P,R3,2*%
%TO.N,/FilteredIF*%
%TA.AperFunction,SMDPad,CuDef*%
G36*
G01*
X60255998Y-48279000D02*
X61156002Y-48279000D01*
G75*
G02*
X61406000Y-48528998I0J-249998D01*
G01*
X61406000Y-49054002D01*
G75*
G02*
X61156002Y-49304000I-249998J0D01*
G01*
X60255998Y-49304000D01*
G75*
G02*
X60006000Y-49054002I0J249998D01*
G01*
X60006000Y-48528998D01*
G75*
G02*
X60255998Y-48279000I249998J0D01*
G01*
G37*
%TD.AperFunction*%
%TO.P,R3,1*%
%TO.N,+5V*%
%TA.AperFunction,SMDPad,CuDef*%
G36*
G01*
X60255998Y-46454000D02*
X61156002Y-46454000D01*
G75*
G02*
X61406000Y-46703998I0J-249998D01*
G01*
X61406000Y-47229002D01*
G75*
G02*
X61156002Y-47479000I-249998J0D01*
G01*
X60255998Y-47479000D01*
G75*
G02*
X60006000Y-47229002I0J249998D01*
G01*
X60006000Y-46703998D01*
G75*
G02*
X60255998Y-46454000I249998J0D01*
G01*
G37*
%TD.AperFunction*%
%TD*%
%TO.P,R2,2*%
%TO.N,GND*%
%TA.AperFunction,SMDPad,CuDef*%
G36*
G01*
X51619998Y-39262000D02*
X52520002Y-39262000D01*
G75*
G02*
X52770000Y-39511998I0J-249998D01*
G01*
X52770000Y-40037002D01*
G75*
G02*
X52520002Y-40287000I-249998J0D01*
G01*
X51619998Y-40287000D01*
G75*
G02*
X51370000Y-40037002I0J249998D01*
G01*
X51370000Y-39511998D01*
G75*
G02*
X51619998Y-39262000I249998J0D01*
G01*
G37*
%TD.AperFunction*%
%TO.P,R2,1*%
%TO.N,Net-(Cin1-Pad1)*%
%TA.AperFunction,SMDPad,CuDef*%
G36*
G01*
X51619998Y-37437000D02*
X52520002Y-37437000D01*
G75*
G02*
X52770000Y-37686998I0J-249998D01*
G01*
X52770000Y-38212002D01*
G75*
G02*
X52520002Y-38462000I-249998J0D01*
G01*
X51619998Y-38462000D01*
G75*
G02*
X51370000Y-38212002I0J249998D01*
G01*
X51370000Y-37686998D01*
G75*
G02*
X51619998Y-37437000I249998J0D01*
G01*
G37*
%TD.AperFunction*%
%TD*%
%TO.P,R1,2*%
%TO.N,Net-(Cin1-Pad1)*%
%TA.AperFunction,SMDPad,CuDef*%
G36*
G01*
X51619998Y-33801000D02*
X52520002Y-33801000D01*
G75*
G02*
X52770000Y-34050998I0J-249998D01*
G01*
X52770000Y-34576002D01*
G75*
G02*
X52520002Y-34826000I-249998J0D01*
G01*
X51619998Y-34826000D01*
G75*
G02*
X51370000Y-34576002I0J249998D01*
G01*
X51370000Y-34050998D01*
G75*
G02*
X51619998Y-33801000I249998J0D01*
G01*
G37*
%TD.AperFunction*%
%TO.P,R1,1*%
%TO.N,+5V*%
%TA.AperFunction,SMDPad,CuDef*%
G36*
G01*
X51619998Y-31976000D02*
X52520002Y-31976000D01*
G75*
G02*
X52770000Y-32225998I0J-249998D01*
G01*
X52770000Y-32751002D01*
G75*
G02*
X52520002Y-33001000I-249998J0D01*
G01*
X51619998Y-33001000D01*
G75*
G02*
X51370000Y-32751002I0J249998D01*
G01*
X51370000Y-32225998D01*
G75*
G02*
X51619998Y-31976000I249998J0D01*
G01*
G37*
%TD.AperFunction*%
%TD*%
%TO.P,Cout1,2*%
%TO.N,GND*%
%TA.AperFunction,SMDPad,CuDef*%
G36*
G01*
X82009000Y-46540000D02*
X81059000Y-46540000D01*
G75*
G02*
X80809000Y-46290000I0J250000D01*
G01*
X80809000Y-45790000D01*
G75*
G02*
X81059000Y-45540000I250000J0D01*
G01*
X82009000Y-45540000D01*
G75*
G02*
X82259000Y-45790000I0J-250000D01*
G01*
X82259000Y-46290000D01*
G75*
G02*
X82009000Y-46540000I-250000J0D01*
G01*
G37*
%TD.AperFunction*%
%TO.P,Cout1,1*%
%TO.N,/AudioSignalOut*%
%TA.AperFunction,SMDPad,CuDef*%
G36*
G01*
X82009000Y-48440000D02*
X81059000Y-48440000D01*
G75*
G02*
X80809000Y-48190000I0J250000D01*
G01*
X80809000Y-47690000D01*
G75*
G02*
X81059000Y-47440000I250000J0D01*
G01*
X82009000Y-47440000D01*
G75*
G02*
X82259000Y-47690000I0J-250000D01*
G01*
X82259000Y-48190000D01*
G75*
G02*
X82009000Y-48440000I-250000J0D01*
G01*
G37*
%TD.AperFunction*%
%TD*%
%TO.P,Cin1,2*%
%TO.N,GND*%
%TA.AperFunction,SMDPad,CuDef*%
G36*
G01*
X57691000Y-37534000D02*
X58641000Y-37534000D01*
G75*
G02*
X58891000Y-37784000I0J-250000D01*
G01*
X58891000Y-38284000D01*
G75*
G02*
X58641000Y-38534000I-250000J0D01*
G01*
X57691000Y-38534000D01*
G75*
G02*
X57441000Y-38284000I0J250000D01*
G01*
X57441000Y-37784000D01*
G75*
G02*
X57691000Y-37534000I250000J0D01*
G01*
G37*
%TD.AperFunction*%
%TO.P,Cin1,1*%
%TO.N,Net-(Cin1-Pad1)*%
%TA.AperFunction,SMDPad,CuDef*%
G36*
G01*
X57691000Y-35634000D02*
X58641000Y-35634000D01*
G75*
G02*
X58891000Y-35884000I0J-250000D01*
G01*
X58891000Y-36384000D01*
G75*
G02*
X58641000Y-36634000I-250000J0D01*
G01*
X57691000Y-36634000D01*
G75*
G02*
X57441000Y-36384000I0J250000D01*
G01*
X57441000Y-35884000D01*
G75*
G02*
X57691000Y-35634000I250000J0D01*
G01*
G37*
%TD.AperFunction*%
%TD*%
%TO.P,CC1,2*%
%TO.N,+5V*%
%TA.AperFunction,SMDPad,CuDef*%
G36*
G01*
X47785000Y-29660000D02*
X48735000Y-29660000D01*
G75*
G02*
X48985000Y-29910000I0J-250000D01*
G01*
X48985000Y-30410000D01*
G75*
G02*
X48735000Y-30660000I-250000J0D01*
G01*
X47785000Y-30660000D01*
G75*
G02*
X47535000Y-30410000I0J250000D01*
G01*
X47535000Y-29910000D01*
G75*
G02*
X47785000Y-29660000I250000J0D01*
G01*
G37*
%TD.AperFunction*%
%TO.P,CC1,1*%
%TO.N,GND*%
%TA.AperFunction,SMDPad,CuDef*%
G36*
G01*
X47785000Y-27760000D02*
X48735000Y-27760000D01*
G75*
G02*
X48985000Y-28010000I0J-250000D01*
G01*
X48985000Y-28510000D01*
G75*
G02*
X48735000Y-28760000I-250000J0D01*
G01*
X47785000Y-28760000D01*
G75*
G02*
X47535000Y-28510000I0J250000D01*
G01*
X47535000Y-28010000D01*
G75*
G02*
X47785000Y-27760000I250000J0D01*
G01*
G37*
%TD.AperFunction*%
%TD*%
%TO.P,C_CMG1,2*%
%TO.N,GND*%
%TA.AperFunction,SMDPad,CuDef*%
G36*
G01*
X68105000Y-30803000D02*
X69055000Y-30803000D01*
G75*
G02*
X69305000Y-31053000I0J-250000D01*
G01*
X69305000Y-31553000D01*
G75*
G02*
X69055000Y-31803000I-250000J0D01*
G01*
X68105000Y-31803000D01*
G75*
G02*
X67855000Y-31553000I0J250000D01*
G01*
X67855000Y-31053000D01*
G75*
G02*
X68105000Y-30803000I250000J0D01*
G01*
G37*
%TD.AperFunction*%
%TO.P,C_CMG1,1*%
%TO.N,/CMG*%
%TA.AperFunction,SMDPad,CuDef*%
G36*
G01*
X68105000Y-28903000D02*
X69055000Y-28903000D01*
G75*
G02*
X69305000Y-29153000I0J-250000D01*
G01*
X69305000Y-29653000D01*
G75*
G02*
X69055000Y-29903000I-250000J0D01*
G01*
X68105000Y-29903000D01*
G75*
G02*
X67855000Y-29653000I0J250000D01*
G01*
X67855000Y-29153000D01*
G75*
G02*
X68105000Y-28903000I250000J0D01*
G01*
G37*
%TD.AperFunction*%
%TD*%
%TO.P,C2,2*%
%TO.N,GND*%
%TA.AperFunction,SMDPad,CuDef*%
G36*
G01*
X72169000Y-30803000D02*
X73119000Y-30803000D01*
G75*
G02*
X73369000Y-31053000I0J-250000D01*
G01*
X73369000Y-31553000D01*
G75*
G02*
X73119000Y-31803000I-250000J0D01*
G01*
X72169000Y-31803000D01*
G75*
G02*
X71919000Y-31553000I0J250000D01*
G01*
X71919000Y-31053000D01*
G75*
G02*
X72169000Y-30803000I250000J0D01*
G01*
G37*
%TD.AperFunction*%
%TO.P,C2,1*%
%TO.N,/CMG*%
%TA.AperFunction,SMDPad,CuDef*%
G36*
G01*
X72169000Y-28903000D02*
X73119000Y-28903000D01*
G75*
G02*
X73369000Y-29153000I0J-250000D01*
G01*
X73369000Y-29653000D01*
G75*
G02*
X73119000Y-29903000I-250000J0D01*
G01*
X72169000Y-29903000D01*
G75*
G02*
X71919000Y-29653000I0J250000D01*
G01*
X71919000Y-29153000D01*
G75*
G02*
X72169000Y-28903000I250000J0D01*
G01*
G37*
%TD.AperFunction*%
%TD*%
D17*
%TO.N,GND*%
X71374000Y-46228000D03*
X68834000Y-43180000D03*
X66802000Y-43180000D03*
X64262000Y-43180000D03*
X45593000Y-45656500D03*
X44513500Y-46672500D03*
X43053000Y-48387000D03*
X65786000Y-45021500D03*
X79502000Y-40195500D03*
X82042000Y-40322500D03*
X58737500Y-40703500D03*
X79057500Y-51816000D03*
X74295000Y-51689000D03*
X73787000Y-50165000D03*
X35468550Y-28374999D03*
X35468550Y-32374999D03*
X35468550Y-36374999D03*
X35468550Y-40374999D03*
X35468550Y-44374999D03*
X35468550Y-56374999D03*
X35468550Y-60374999D03*
X35468550Y-64374999D03*
X35468550Y-68374999D03*
X37468550Y-30374999D03*
X37468550Y-34374999D03*
X37468550Y-38374999D03*
X37468550Y-42374999D03*
X37468550Y-58374999D03*
X37468550Y-62374999D03*
X37468550Y-66374999D03*
X38468550Y-69374999D03*
X39468550Y-28374999D03*
X39468550Y-32374999D03*
X39468550Y-36374999D03*
X39468550Y-40374999D03*
X39468550Y-44374999D03*
X39468550Y-48374999D03*
X39468550Y-52374999D03*
X39468550Y-56374999D03*
X39468550Y-60374999D03*
X39468550Y-64374999D03*
X40468550Y-67374999D03*
X41468550Y-38374999D03*
X41468550Y-42374999D03*
X41468550Y-46374999D03*
X41468550Y-54374999D03*
X41468550Y-58374999D03*
X41468550Y-62374999D03*
X42468550Y-29374999D03*
X42468550Y-65374999D03*
X42468550Y-69374999D03*
X43468550Y-40374999D03*
X43468550Y-44374999D03*
X43468550Y-56374999D03*
X43468550Y-60374999D03*
X44468550Y-37374999D03*
X44468550Y-63374999D03*
X44468550Y-67374999D03*
X45468550Y-28374999D03*
X45468550Y-42374999D03*
X45468550Y-58374999D03*
X46468550Y-39374999D03*
X46468550Y-61374999D03*
X46468550Y-65374999D03*
X46468550Y-69374999D03*
X47468550Y-44374999D03*
X47468550Y-50374999D03*
X47468550Y-56374999D03*
X48468550Y-41374999D03*
X48468550Y-59374999D03*
X48468550Y-63374999D03*
X48468550Y-67374999D03*
X49468550Y-52374999D03*
X50468550Y-28374999D03*
X50468550Y-43374999D03*
X50468550Y-57374999D03*
X50468550Y-61374999D03*
X50468550Y-65374999D03*
X50468550Y-69374999D03*
X52468550Y-30374999D03*
X52468550Y-41374999D03*
X52468550Y-45374999D03*
X52468550Y-51374999D03*
X52468550Y-59374999D03*
X52468550Y-63374999D03*
X52468550Y-67374999D03*
X53468550Y-56374999D03*
X54468550Y-28374999D03*
X54468550Y-32374999D03*
X54468550Y-43374999D03*
X54468550Y-61374999D03*
X54468550Y-65374999D03*
X54468550Y-69374999D03*
X55468550Y-40374999D03*
X55468550Y-58374999D03*
X56468550Y-45374999D03*
X56468550Y-55374999D03*
X56468550Y-63374999D03*
X56468550Y-67374999D03*
X57468550Y-29374999D03*
X57468550Y-60374999D03*
X58468550Y-43374999D03*
X58468550Y-47374999D03*
X58468550Y-53374999D03*
X58468550Y-57374999D03*
X58468550Y-65374999D03*
X58468550Y-69374999D03*
X59468550Y-62374999D03*
X60468550Y-28374999D03*
X60468550Y-59374999D03*
X60468550Y-67374999D03*
X61468550Y-31374999D03*
X61468550Y-56374999D03*
X61468550Y-64374999D03*
X62468550Y-52374999D03*
X62468550Y-61374999D03*
X62468550Y-69374999D03*
X63468550Y-45374999D03*
X63468550Y-58374999D03*
X63468550Y-66374999D03*
X64468550Y-54374999D03*
X64468550Y-63374999D03*
X65468550Y-60374999D03*
X65468550Y-68374999D03*
X66468550Y-31374999D03*
X66468550Y-35374999D03*
X66468550Y-40374999D03*
X66468550Y-56374999D03*
X66468550Y-65374999D03*
X67468550Y-51374999D03*
X67468550Y-62374999D03*
X68468550Y-54374999D03*
X68468550Y-58374999D03*
X68468550Y-67374999D03*
X69468550Y-64374999D03*
X70468550Y-31374999D03*
X70468550Y-56374999D03*
X70468550Y-60374999D03*
X70468550Y-69374999D03*
X71468550Y-34374999D03*
X71468550Y-66374999D03*
X73468550Y-40374999D03*
X73468550Y-68374999D03*
X76468550Y-28374999D03*
X76468550Y-66374999D03*
X77468550Y-31374999D03*
X77468550Y-40374999D03*
X77468550Y-69374999D03*
X79468550Y-29374999D03*
X79468550Y-33374999D03*
X79468550Y-45374999D03*
X80468550Y-68374999D03*
X81468550Y-31374999D03*
X82468550Y-28374999D03*
X82468550Y-34374999D03*
X82468550Y-63374999D03*
X83468550Y-66374999D03*
X84468550Y-30374999D03*
X84468550Y-36374999D03*
X84468550Y-69374999D03*
X85468550Y-33374999D03*
X85468550Y-62374999D03*
X86468550Y-28374999D03*
X86468550Y-53374999D03*
X86468550Y-65374999D03*
X87468550Y-31374999D03*
X87468550Y-35374999D03*
X87468550Y-56374999D03*
X87468550Y-68374999D03*
X88468550Y-38374999D03*
X88468550Y-59374999D03*
X88468550Y-63374999D03*
X89468550Y-29374999D03*
X89468550Y-33374999D03*
X89468550Y-41374999D03*
X89468550Y-54374999D03*
X89468550Y-66374999D03*
%TO.N,+5V*%
X75946000Y-35560000D03*
X60960000Y-38100000D03*
X74041000Y-59118500D03*
X72390000Y-47244000D03*
%TD*%
D18*
%TO.N,/CMG*%
X63881000Y-29440500D02*
X72794500Y-29440500D01*
X72644000Y-29403000D02*
X74361000Y-29403000D01*
X74361000Y-29403000D02*
X75184000Y-30226000D01*
X75184000Y-30226000D02*
X75184000Y-33528000D01*
X75184000Y-33528000D02*
X71374000Y-37338000D01*
X71374000Y-37338000D02*
X71374000Y-43307000D01*
X71374000Y-43307000D02*
X67564000Y-47117000D01*
X67564000Y-47117000D02*
X67564000Y-47752000D01*
X67564000Y-47752000D02*
X66167000Y-49149000D01*
X66167000Y-49149000D02*
X64262000Y-49149000D01*
%TO.N,+5V*%
X52070000Y-32512000D02*
X52197000Y-32385000D01*
X48260000Y-30160000D02*
X48260000Y-32004000D01*
X47752000Y-32512000D02*
X52070000Y-32512000D01*
X48260000Y-32004000D02*
X47752000Y-32512000D01*
X42672000Y-32512000D02*
X47752000Y-32512000D01*
X60960000Y-38100000D02*
X61595000Y-37465000D01*
X61595000Y-37465000D02*
X64135000Y-37465000D01*
X60960000Y-38100000D02*
X60960000Y-46482000D01*
X60960000Y-46482000D02*
X60706000Y-46736000D01*
D19*
X75380315Y-35560000D02*
X73914000Y-37026315D01*
X75946000Y-35560000D02*
X75380315Y-35560000D01*
X73914000Y-37026315D02*
X73914000Y-38100000D01*
D20*
X69780000Y-49149000D02*
X70485000Y-49149000D01*
X70485000Y-49149000D02*
X72390000Y-47244000D01*
D18*
X74041000Y-59118500D02*
X74041000Y-56451500D01*
D21*
%TO.N,Net-(Cin1-Pad1)*%
X52070000Y-36195000D02*
X58293000Y-36195000D01*
X52070000Y-34313500D02*
X52070000Y-36195000D01*
X52070000Y-36195000D02*
X52070000Y-37973000D01*
X58293000Y-36195000D02*
X64135000Y-36195000D01*
D18*
%TO.N,/AudioSignalOut*%
X77724000Y-47902500D02*
X81430500Y-47902500D01*
X81430500Y-47902500D02*
X81534000Y-48006000D01*
X84328000Y-48006000D02*
X84582000Y-48006000D01*
X84328000Y-48006000D02*
X89154000Y-48006000D01*
X83312000Y-48006000D02*
X83820000Y-48006000D01*
X81534000Y-48006000D02*
X83312000Y-48006000D01*
X83312000Y-48006000D02*
X84328000Y-48006000D01*
X83820000Y-48006000D02*
X84582000Y-47244000D01*
X84582000Y-47244000D02*
X84582000Y-42672000D01*
X84582000Y-42672000D02*
X86106000Y-41148000D01*
%TO.N,Net-(IC2-Pad3)*%
X76454000Y-42734000D02*
X76454000Y-44704000D01*
X76454000Y-44704000D02*
X77724000Y-45974000D01*
D21*
%TO.N,/IF_Lim*%
X70993000Y-50419000D02*
X73892000Y-47520000D01*
X73914000Y-43307000D02*
X73914000Y-43180000D01*
X73892000Y-47520000D02*
X73892000Y-42567000D01*
X73892000Y-42567000D02*
X73914000Y-42545000D01*
X72644000Y-59944000D02*
X73914000Y-61468000D01*
X71447001Y-50619001D02*
X72644000Y-51816000D01*
X71215001Y-50619001D02*
X71447001Y-50619001D01*
X71015000Y-50419000D02*
X71215001Y-50619001D01*
X72644000Y-51816000D02*
X72644000Y-59944000D01*
X69780000Y-50419000D02*
X71015000Y-50419000D01*
D18*
%TO.N,Net-(J1-Pad1)*%
X37592000Y-50546000D02*
X43815000Y-50546000D01*
X43815000Y-50546000D02*
X47244000Y-47117000D01*
X47244000Y-47117000D02*
X50673000Y-47117000D01*
X43815000Y-50546000D02*
X43942000Y-50546000D01*
X43942000Y-50546000D02*
X47879000Y-54483000D01*
X47879000Y-54483000D02*
X50800000Y-54483000D01*
X37592000Y-50546000D02*
X35814000Y-50546000D01*
%TO.N,/FilteredIF*%
X60706000Y-52197000D02*
X60706000Y-52324000D01*
X60706000Y-50419000D02*
X65405000Y-50419000D01*
X60706000Y-48791500D02*
X60706000Y-50419000D01*
X60706000Y-50419000D02*
X60706000Y-52197000D01*
X53064000Y-47114000D02*
X54734000Y-47114000D01*
X58039000Y-50419000D02*
X60706000Y-50419000D01*
X54734000Y-47114000D02*
X58039000Y-50419000D01*
X53975000Y-54483000D02*
X58039000Y-50419000D01*
X52578000Y-54483000D02*
X53975000Y-54483000D01*
D20*
%TO.N,Net-(RFB2-Pad2)*%
X63819000Y-34925000D02*
X59563000Y-34925000D01*
X59563000Y-34925000D02*
X58039000Y-33401000D01*
%TO.N,/5Y*%
X79121000Y-56516500D02*
X79121000Y-55753000D01*
X79121000Y-55753000D02*
X80391000Y-54483000D01*
X80391000Y-54483000D02*
X80391000Y-53657500D01*
X80391000Y-53657500D02*
X80518000Y-53530500D01*
X80518000Y-53530500D02*
X80518000Y-51689000D01*
D21*
%TO.N,/4Y*%
X81661000Y-56516500D02*
X82421500Y-56516500D01*
X82421500Y-56516500D02*
X84074000Y-54864000D01*
X84074000Y-54864000D02*
X84074000Y-50800000D01*
X84074000Y-50800000D02*
X83058000Y-49784000D01*
X83058000Y-49784000D02*
X76200000Y-49784000D01*
X76200000Y-49784000D02*
X75819000Y-49784000D01*
X75819000Y-49784000D02*
X75184000Y-49149000D01*
X75184000Y-49149000D02*
X75184000Y-42418000D01*
D20*
%TO.N,/3Y*%
X80391000Y-61466500D02*
X80391000Y-59880500D01*
X80391000Y-59880500D02*
X80899000Y-59372500D01*
X85851500Y-59435500D02*
X85788500Y-59372500D01*
X86360000Y-59435500D02*
X85851500Y-59435500D01*
X85788500Y-59372500D02*
X86106000Y-59372500D01*
X80899000Y-59372500D02*
X85788500Y-59372500D01*
%TO.N,/2Y*%
X77851000Y-61466500D02*
X77851000Y-62293500D01*
X77851000Y-62293500D02*
X78613000Y-63055500D01*
X78613000Y-63055500D02*
X78613000Y-66103500D01*
X78613000Y-66103500D02*
X78676500Y-66167000D01*
%TO.N,/1Y*%
X75311000Y-61466500D02*
X75311000Y-61785500D01*
X75311000Y-61785500D02*
X75311000Y-62420500D01*
X75311000Y-62420500D02*
X73533000Y-64198500D01*
X73533000Y-64198500D02*
X73533000Y-65976500D01*
%TO.N,/CMGOUT*%
X58039000Y-31472500D02*
X59412500Y-31472500D01*
X59412500Y-31472500D02*
X61595000Y-33655000D01*
X61595000Y-33655000D02*
X64262000Y-33655000D01*
X63819000Y-33655000D02*
X63819000Y-31304000D01*
X63819000Y-31304000D02*
X63881000Y-31242000D01*
%TO.N,Net-(R_Inv_1-Pad2)*%
X76581000Y-62066502D02*
X76581000Y-61404500D01*
X75120000Y-65849500D02*
X75120000Y-63754500D01*
X75120000Y-63754500D02*
X76581000Y-62293500D01*
X76581000Y-62293500D02*
X76581000Y-61404500D01*
%TO.N,Net-(R_Inv_2-Pad2)*%
X80327000Y-66103500D02*
X80327000Y-63563000D01*
X80327000Y-63563000D02*
X79184500Y-62420500D01*
X79184500Y-62420500D02*
X79184500Y-61023500D01*
%TO.N,Net-(R_Inv_3-Pad2)*%
X82168500Y-53913998D02*
X80391000Y-55691498D01*
X82168500Y-51752500D02*
X82168500Y-53913998D01*
X80391000Y-55691498D02*
X80391000Y-56705500D01*
%TO.N,Net-(R_Inv_4-Pad2)*%
X77851000Y-54927500D02*
X77851000Y-56832500D01*
X77533000Y-54609500D02*
X77851000Y-54927500D01*
X77533000Y-51752500D02*
X77533000Y-54609500D01*
%TO.N,Net-(R_Inv_5-Pad2)*%
X75247500Y-57278002D02*
X75247500Y-56388000D01*
X76641988Y-58672490D02*
X75247500Y-57278002D01*
X83629500Y-57785000D02*
X82742010Y-58672490D01*
X82742010Y-58672490D02*
X76641988Y-58672490D01*
X86360000Y-57785500D02*
X85598500Y-57785500D01*
X85598500Y-57785500D02*
X85598000Y-57785000D01*
X85598000Y-57785000D02*
X83629500Y-57785000D01*
X86169500Y-57785000D02*
X85598000Y-57785000D01*
%TO.N,/6Y*%
X76581000Y-56516500D02*
X76581000Y-55181500D01*
X76581000Y-55181500D02*
X75692000Y-54292500D01*
X75692000Y-54292500D02*
X75692000Y-52133500D01*
X75692000Y-52133500D02*
X75946000Y-51879500D01*
%TD*%
D22*
%TO.N,GND*%
X68156928Y-48849000D02*
X68156928Y-49449000D01*
X68169188Y-49573482D01*
X68205498Y-49693180D01*
X68254043Y-49784000D01*
X68205498Y-49874820D01*
X68169188Y-49994518D01*
X68156928Y-50119000D01*
X68156928Y-50719000D01*
X68169188Y-50843482D01*
X68205498Y-50963180D01*
X68254043Y-51054000D01*
X68205498Y-51144820D01*
X68169188Y-51264518D01*
X68156928Y-51389000D01*
X68156928Y-51989000D01*
X68169188Y-52113482D01*
X68205498Y-52233180D01*
X68264463Y-52343494D01*
X68343815Y-52440185D01*
X68440506Y-52519537D01*
X68550820Y-52578502D01*
X68670518Y-52614812D01*
X68795000Y-52627072D01*
X70765000Y-52627072D01*
X70889482Y-52614812D01*
X71009180Y-52578502D01*
X71119494Y-52519537D01*
X71216185Y-52440185D01*
X71295537Y-52343494D01*
X71354502Y-52233180D01*
X71390812Y-52113482D01*
X71401779Y-52002134D01*
X71634000Y-52234355D01*
X71634001Y-59848355D01*
X71633282Y-59852117D01*
X71634001Y-59947733D01*
X71634001Y-59993608D01*
X71634374Y-59997400D01*
X71634778Y-60051063D01*
X71644102Y-60096164D01*
X71648616Y-60141994D01*
X71664193Y-60193343D01*
X71675057Y-60245895D01*
X71693001Y-60288310D01*
X71706369Y-60332380D01*
X71731665Y-60379705D01*
X71752572Y-60429126D01*
X71778444Y-60467224D01*
X71800154Y-60507840D01*
X71834197Y-60549321D01*
X71836339Y-60552476D01*
X71865742Y-60587760D01*
X71926368Y-60661633D01*
X71929326Y-60664061D01*
X73102928Y-62072384D01*
X73102928Y-62451500D01*
X73115188Y-62575982D01*
X73151498Y-62695680D01*
X73210463Y-62805994D01*
X73289815Y-62902685D01*
X73386506Y-62982037D01*
X73459088Y-63020834D01*
X73394494Y-63085428D01*
X73321000Y-63085428D01*
X73152623Y-63102012D01*
X72990717Y-63151125D01*
X72844649Y-63229200D01*
X72800494Y-63192963D01*
X72690180Y-63133998D01*
X72570482Y-63097688D01*
X72446000Y-63085428D01*
X72281750Y-63088500D01*
X72123000Y-63247250D01*
X72123000Y-64071500D01*
X72143000Y-64071500D01*
X72143000Y-64325500D01*
X72123000Y-64325500D01*
X72123000Y-65149750D01*
X72281750Y-65308500D01*
X72446000Y-65311572D01*
X72479184Y-65308304D01*
X72448031Y-65411000D01*
X72431928Y-65574500D01*
X72431928Y-66124500D01*
X72448031Y-66288000D01*
X72495722Y-66445216D01*
X72573169Y-66590108D01*
X72677394Y-66717106D01*
X72804392Y-66821331D01*
X72949284Y-66898778D01*
X73106500Y-66946469D01*
X73270000Y-66962572D01*
X73670000Y-66962572D01*
X73833500Y-66946469D01*
X73990716Y-66898778D01*
X74135608Y-66821331D01*
X74262606Y-66717106D01*
X74295000Y-66677634D01*
X74327394Y-66717106D01*
X74454392Y-66821331D01*
X74599284Y-66898778D01*
X74756500Y-66946469D01*
X74920000Y-66962572D01*
X75320000Y-66962572D01*
X75483500Y-66946469D01*
X75640716Y-66898778D01*
X75785608Y-66821331D01*
X75912606Y-66717106D01*
X76016831Y-66590108D01*
X76094278Y-66445216D01*
X76141969Y-66288000D01*
X76158072Y-66124500D01*
X76158072Y-65574500D01*
X76141969Y-65411000D01*
X76094278Y-65253784D01*
X76016831Y-65108892D01*
X76005000Y-65094476D01*
X76005000Y-64813845D01*
X76036498Y-64917680D01*
X76095463Y-65027994D01*
X76174815Y-65124685D01*
X76271506Y-65204037D01*
X76381820Y-65263002D01*
X76501518Y-65299312D01*
X76626000Y-65311572D01*
X76790250Y-65308500D01*
X76949000Y-65149750D01*
X76949000Y-64325500D01*
X76929000Y-64325500D01*
X76929000Y-64071500D01*
X76949000Y-64071500D01*
X76949000Y-63247250D01*
X76913914Y-63212164D01*
X77067615Y-63058464D01*
X77125180Y-63041002D01*
X77216000Y-62992457D01*
X77306820Y-63041002D01*
X77364386Y-63058465D01*
X77393822Y-63087900D01*
X77361750Y-63088500D01*
X77203000Y-63247250D01*
X77203000Y-64071500D01*
X77223000Y-64071500D01*
X77223000Y-64325500D01*
X77203000Y-64325500D01*
X77203000Y-65149750D01*
X77361750Y-65308500D01*
X77526000Y-65311572D01*
X77650482Y-65299312D01*
X77728001Y-65275797D01*
X77728001Y-65460491D01*
X77702722Y-65507784D01*
X77655031Y-65665000D01*
X77638928Y-65828500D01*
X77638928Y-66378500D01*
X77655031Y-66542000D01*
X77702722Y-66699216D01*
X77780169Y-66844108D01*
X77884394Y-66971106D01*
X78011392Y-67075331D01*
X78156284Y-67152778D01*
X78313500Y-67200469D01*
X78477000Y-67216572D01*
X78877000Y-67216572D01*
X79040500Y-67200469D01*
X79197716Y-67152778D01*
X79342608Y-67075331D01*
X79469606Y-66971106D01*
X79502000Y-66931634D01*
X79534394Y-66971106D01*
X79661392Y-67075331D01*
X79806284Y-67152778D01*
X79963500Y-67200469D01*
X80127000Y-67216572D01*
X80527000Y-67216572D01*
X80690500Y-67200469D01*
X80847716Y-67152778D01*
X80992608Y-67075331D01*
X81119606Y-66971106D01*
X81223831Y-66844108D01*
X81301278Y-66699216D01*
X81348969Y-66542000D01*
X81365072Y-66378500D01*
X81365072Y-65828500D01*
X81348969Y-65665000D01*
X81301278Y-65507784D01*
X81223831Y-65362892D01*
X81212000Y-65348476D01*
X81212000Y-63606469D01*
X81216281Y-63563000D01*
X81212000Y-63519531D01*
X81212000Y-63519523D01*
X81199195Y-63389510D01*
X81148589Y-63222687D01*
X81066411Y-63068941D01*
X81022591Y-63015547D01*
X81010459Y-63000764D01*
X81026000Y-62992457D01*
X81116820Y-63041002D01*
X81236518Y-63077312D01*
X81361000Y-63089572D01*
X81375250Y-63086500D01*
X81534000Y-62927750D01*
X81534000Y-61593500D01*
X81788000Y-61593500D01*
X81788000Y-62927750D01*
X81946750Y-63086500D01*
X81961000Y-63089572D01*
X82085482Y-63077312D01*
X82205180Y-63041002D01*
X82315494Y-62982037D01*
X82412185Y-62902685D01*
X82491537Y-62805994D01*
X82550502Y-62695680D01*
X82586812Y-62575982D01*
X82599072Y-62451500D01*
X82596000Y-61752250D01*
X82437250Y-61593500D01*
X81788000Y-61593500D01*
X81534000Y-61593500D01*
X81514000Y-61593500D01*
X81514000Y-61423000D01*
X83214928Y-61423000D01*
X83227188Y-61547482D01*
X83263498Y-61667180D01*
X83322463Y-61777494D01*
X83401815Y-61874185D01*
X83498506Y-61953537D01*
X83608820Y-62012502D01*
X83728518Y-62048812D01*
X83853000Y-62061072D01*
X84042250Y-62058000D01*
X84201000Y-61899250D01*
X84201000Y-61100000D01*
X84455000Y-61100000D01*
X84455000Y-61899250D01*
X84613750Y-62058000D01*
X84803000Y-62061072D01*
X84927482Y-62048812D01*
X85047180Y-62012502D01*
X85157494Y-61953537D01*
X85254185Y-61874185D01*
X85333537Y-61777494D01*
X85392502Y-61667180D01*
X85428812Y-61547482D01*
X85441072Y-61423000D01*
X85438000Y-61258750D01*
X85279250Y-61100000D01*
X84455000Y-61100000D01*
X84201000Y-61100000D01*
X83376750Y-61100000D01*
X83218000Y-61258750D01*
X83214928Y-61423000D01*
X81514000Y-61423000D01*
X81514000Y-61339500D01*
X81534000Y-61339500D01*
X81534000Y-61319500D01*
X81788000Y-61319500D01*
X81788000Y-61339500D01*
X82437250Y-61339500D01*
X82596000Y-61180750D01*
X82599072Y-60481500D01*
X82586812Y-60357018D01*
X82556624Y-60257500D01*
X83274894Y-60257500D01*
X83263498Y-60278820D01*
X83227188Y-60398518D01*
X83214928Y-60523000D01*
X83218000Y-60687250D01*
X83376750Y-60846000D01*
X84201000Y-60846000D01*
X84201000Y-60826000D01*
X84455000Y-60826000D01*
X84455000Y-60846000D01*
X85279250Y-60846000D01*
X85438000Y-60687250D01*
X85441072Y-60523000D01*
X85428812Y-60398518D01*
X85392502Y-60278820D01*
X85381106Y-60257500D01*
X85512542Y-60257500D01*
X85537398Y-60265040D01*
X85619392Y-60332331D01*
X85764284Y-60409778D01*
X85921500Y-60457469D01*
X86085000Y-60473572D01*
X86635000Y-60473572D01*
X86798500Y-60457469D01*
X86955716Y-60409778D01*
X87100608Y-60332331D01*
X87227606Y-60228106D01*
X87331831Y-60101108D01*
X87409278Y-59956216D01*
X87456969Y-59799000D01*
X87473072Y-59635500D01*
X87473072Y-59235500D01*
X87456969Y-59072000D01*
X87409278Y-58914784D01*
X87331831Y-58769892D01*
X87227606Y-58642894D01*
X87188134Y-58610500D01*
X87227606Y-58578106D01*
X87331831Y-58451108D01*
X87409278Y-58306216D01*
X87456969Y-58149000D01*
X87473072Y-57985500D01*
X87473072Y-57585500D01*
X87456969Y-57422000D01*
X87409278Y-57264784D01*
X87331831Y-57119892D01*
X87227606Y-56992894D01*
X87100608Y-56888669D01*
X86955716Y-56811222D01*
X86798500Y-56763531D01*
X86635000Y-56747428D01*
X86085000Y-56747428D01*
X85921500Y-56763531D01*
X85764284Y-56811222D01*
X85619392Y-56888669D01*
X85609430Y-56896845D01*
X85598000Y-56895719D01*
X85554531Y-56900000D01*
X83672965Y-56900000D01*
X83629499Y-56895719D01*
X83586033Y-56900000D01*
X83586023Y-56900000D01*
X83456010Y-56912805D01*
X83452479Y-56913876D01*
X84753099Y-55613256D01*
X84791633Y-55581633D01*
X84917847Y-55427840D01*
X85011632Y-55252380D01*
X85033133Y-55181500D01*
X85069385Y-55061995D01*
X85088886Y-54864000D01*
X85084000Y-54814392D01*
X85084000Y-51706000D01*
X85961928Y-51706000D01*
X85974188Y-51830482D01*
X86010498Y-51950180D01*
X86069463Y-52060494D01*
X86148815Y-52157185D01*
X86245506Y-52236537D01*
X86355820Y-52295502D01*
X86475518Y-52331812D01*
X86600000Y-52344072D01*
X88414250Y-52341000D01*
X88573000Y-52182250D01*
X88573000Y-50958000D01*
X86123750Y-50958000D01*
X85965000Y-51116750D01*
X85961928Y-51706000D01*
X85084000Y-51706000D01*
X85084000Y-50849608D01*
X85088886Y-50800000D01*
X85069385Y-50602005D01*
X85011632Y-50411620D01*
X84964532Y-50323502D01*
X84917847Y-50236160D01*
X84791633Y-50082367D01*
X84753099Y-50050743D01*
X84658356Y-49956000D01*
X85961928Y-49956000D01*
X85965000Y-50545250D01*
X86123750Y-50704000D01*
X88573000Y-50704000D01*
X88573000Y-49479750D01*
X88414250Y-49321000D01*
X86600000Y-49317928D01*
X86475518Y-49330188D01*
X86355820Y-49366498D01*
X86245506Y-49425463D01*
X86148815Y-49504815D01*
X86069463Y-49601506D01*
X86010498Y-49711820D01*
X85974188Y-49831518D01*
X85961928Y-49956000D01*
X84658356Y-49956000D01*
X83846260Y-49143905D01*
X83875751Y-49141000D01*
X86708296Y-49141000D01*
X86745506Y-49171537D01*
X86855820Y-49230502D01*
X86975518Y-49266812D01*
X87100000Y-49279072D01*
X90700000Y-49279072D01*
X90824482Y-49266812D01*
X90879759Y-49250044D01*
X90880093Y-49325816D01*
X90800000Y-49317928D01*
X88985750Y-49321000D01*
X88827000Y-49479750D01*
X88827000Y-50704000D01*
X88847000Y-50704000D01*
X88847000Y-50958000D01*
X88827000Y-50958000D01*
X88827000Y-52182250D01*
X88985750Y-52341000D01*
X90800000Y-52344072D01*
X90893388Y-52334874D01*
X90970358Y-69755673D01*
X90955778Y-69904369D01*
X90921547Y-70017746D01*
X90865946Y-70122317D01*
X90791094Y-70214095D01*
X90699835Y-70289591D01*
X90595660Y-70345919D01*
X90482524Y-70380940D01*
X90334479Y-70396500D01*
X34322279Y-70396500D01*
X34172131Y-70381778D01*
X34058754Y-70347547D01*
X33954183Y-70291946D01*
X33862405Y-70217094D01*
X33786909Y-70125835D01*
X33730581Y-70021660D01*
X33695560Y-69908524D01*
X33680000Y-69760479D01*
X33680000Y-64673500D01*
X70907928Y-64673500D01*
X70920188Y-64797982D01*
X70956498Y-64917680D01*
X71015463Y-65027994D01*
X71094815Y-65124685D01*
X71191506Y-65204037D01*
X71301820Y-65263002D01*
X71421518Y-65299312D01*
X71546000Y-65311572D01*
X71710250Y-65308500D01*
X71869000Y-65149750D01*
X71869000Y-64325500D01*
X71069750Y-64325500D01*
X70911000Y-64484250D01*
X70907928Y-64673500D01*
X33680000Y-64673500D01*
X33680000Y-63723500D01*
X70907928Y-63723500D01*
X70911000Y-63912750D01*
X71069750Y-64071500D01*
X71869000Y-64071500D01*
X71869000Y-63247250D01*
X71710250Y-63088500D01*
X71546000Y-63085428D01*
X71421518Y-63097688D01*
X71301820Y-63133998D01*
X71191506Y-63192963D01*
X71094815Y-63272315D01*
X71015463Y-63369006D01*
X70956498Y-63479320D01*
X70920188Y-63599018D01*
X70907928Y-63723500D01*
X33680000Y-63723500D01*
X33680000Y-54884038D01*
X35474250Y-54881000D01*
X35633000Y-54722250D01*
X35633000Y-53498000D01*
X35887000Y-53498000D01*
X35887000Y-54722250D01*
X36045750Y-54881000D01*
X37860000Y-54884072D01*
X37984482Y-54871812D01*
X38104180Y-54835502D01*
X38214494Y-54776537D01*
X38311185Y-54697185D01*
X38390537Y-54600494D01*
X38449502Y-54490180D01*
X38485812Y-54370482D01*
X38498072Y-54246000D01*
X38495000Y-53656750D01*
X38336250Y-53498000D01*
X35887000Y-53498000D01*
X35633000Y-53498000D01*
X35613000Y-53498000D01*
X35613000Y-53244000D01*
X35633000Y-53244000D01*
X35633000Y-52019750D01*
X35887000Y-52019750D01*
X35887000Y-53244000D01*
X38336250Y-53244000D01*
X38495000Y-53085250D01*
X38498072Y-52496000D01*
X38485812Y-52371518D01*
X38449502Y-52251820D01*
X38390537Y-52141506D01*
X38311185Y-52044815D01*
X38214494Y-51965463D01*
X38104180Y-51906498D01*
X37984482Y-51870188D01*
X37860000Y-51857928D01*
X36045750Y-51861000D01*
X35887000Y-52019750D01*
X35633000Y-52019750D01*
X35474250Y-51861000D01*
X33680000Y-51857962D01*
X33680000Y-51811193D01*
X33760000Y-51819072D01*
X37360000Y-51819072D01*
X37484482Y-51806812D01*
X37604180Y-51770502D01*
X37714494Y-51711537D01*
X37751704Y-51681000D01*
X43471869Y-51681000D01*
X47037009Y-55246141D01*
X47072551Y-55289449D01*
X47241182Y-55427841D01*
X47245377Y-55431284D01*
X47442553Y-55536676D01*
X47656501Y-55601577D01*
X47879000Y-55623491D01*
X47934752Y-55618000D01*
X49932039Y-55618000D01*
X49997113Y-55671405D01*
X50150648Y-55753472D01*
X50317244Y-55804008D01*
X50490498Y-55821072D01*
X51015502Y-55821072D01*
X51188756Y-55804008D01*
X51355352Y-55753472D01*
X51508887Y-55671405D01*
X51643462Y-55560962D01*
X51665500Y-55534109D01*
X51687538Y-55560962D01*
X51822113Y-55671405D01*
X51975648Y-55753472D01*
X52142244Y-55804008D01*
X52315498Y-55821072D01*
X52840502Y-55821072D01*
X53013756Y-55804008D01*
X53180352Y-55753472D01*
X53333887Y-55671405D01*
X53398961Y-55618000D01*
X53919249Y-55618000D01*
X53975000Y-55623491D01*
X54030751Y-55618000D01*
X54030752Y-55618000D01*
X54197499Y-55601577D01*
X54411447Y-55536676D01*
X54608623Y-55431284D01*
X54781449Y-55289449D01*
X54816996Y-55246135D01*
X55552131Y-54511000D01*
X59367928Y-54511000D01*
X59380188Y-54635482D01*
X59416498Y-54755180D01*
X59475463Y-54865494D01*
X59554815Y-54962185D01*
X59651506Y-55041537D01*
X59761820Y-55100502D01*
X59881518Y-55136812D01*
X60006000Y-55149072D01*
X60420250Y-55146000D01*
X60579000Y-54987250D01*
X60579000Y-54125500D01*
X60833000Y-54125500D01*
X60833000Y-54987250D01*
X60991750Y-55146000D01*
X61406000Y-55149072D01*
X61530482Y-55136812D01*
X61650180Y-55100502D01*
X61760494Y-55041537D01*
X61857185Y-54962185D01*
X61936537Y-54865494D01*
X61995502Y-54755180D01*
X62031812Y-54635482D01*
X62044072Y-54511000D01*
X62041000Y-54284250D01*
X61882250Y-54125500D01*
X60833000Y-54125500D01*
X60579000Y-54125500D01*
X59529750Y-54125500D01*
X59371000Y-54284250D01*
X59367928Y-54511000D01*
X55552131Y-54511000D01*
X58509132Y-51554000D01*
X59444694Y-51554000D01*
X59435528Y-51571148D01*
X59384992Y-51737744D01*
X59367928Y-51910998D01*
X59367928Y-52436002D01*
X59384992Y-52609256D01*
X59435528Y-52775852D01*
X59517595Y-52929387D01*
X59584276Y-53010637D01*
X59554815Y-53034815D01*
X59475463Y-53131506D01*
X59416498Y-53241820D01*
X59380188Y-53361518D01*
X59367928Y-53486000D01*
X59371000Y-53712750D01*
X59529750Y-53871500D01*
X60579000Y-53871500D01*
X60579000Y-53851500D01*
X60833000Y-53851500D01*
X60833000Y-53871500D01*
X61882250Y-53871500D01*
X62041000Y-53712750D01*
X62044072Y-53486000D01*
X62031812Y-53361518D01*
X61995502Y-53241820D01*
X61936537Y-53131506D01*
X61857185Y-53034815D01*
X61827724Y-53010637D01*
X61894405Y-52929387D01*
X61976472Y-52775852D01*
X62027008Y-52609256D01*
X62044072Y-52436002D01*
X62044072Y-51989000D01*
X63216928Y-51989000D01*
X63229188Y-52113482D01*
X63265498Y-52233180D01*
X63324463Y-52343494D01*
X63403815Y-52440185D01*
X63500506Y-52519537D01*
X63610820Y-52578502D01*
X63730518Y-52614812D01*
X63855000Y-52627072D01*
X64554250Y-52624000D01*
X64713000Y-52465250D01*
X64713000Y-51816000D01*
X64967000Y-51816000D01*
X64967000Y-52465250D01*
X65125750Y-52624000D01*
X65825000Y-52627072D01*
X65949482Y-52614812D01*
X66069180Y-52578502D01*
X66179494Y-52519537D01*
X66276185Y-52440185D01*
X66355537Y-52343494D01*
X66414502Y-52233180D01*
X66450812Y-52113482D01*
X66463072Y-51989000D01*
X66460000Y-51974750D01*
X66301250Y-51816000D01*
X64967000Y-51816000D01*
X64713000Y-51816000D01*
X63378750Y-51816000D01*
X63220000Y-51974750D01*
X63216928Y-51989000D01*
X62044072Y-51989000D01*
X62044072Y-51910998D01*
X62027008Y-51737744D01*
X61976472Y-51571148D01*
X61967306Y-51554000D01*
X63370750Y-51554000D01*
X63378750Y-51562000D01*
X64713000Y-51562000D01*
X64713000Y-51554000D01*
X64967000Y-51554000D01*
X64967000Y-51562000D01*
X66301250Y-51562000D01*
X66460000Y-51403250D01*
X66463072Y-51389000D01*
X66450812Y-51264518D01*
X66414502Y-51144820D01*
X66365957Y-51054000D01*
X66414502Y-50963180D01*
X66432100Y-50905168D01*
X66458676Y-50855447D01*
X66523577Y-50641499D01*
X66545491Y-50419000D01*
X66526485Y-50226023D01*
X66603447Y-50202676D01*
X66800623Y-50097284D01*
X66973449Y-49955449D01*
X67008996Y-49912135D01*
X68166192Y-48754940D01*
X68156928Y-48849000D01*
%TA.AperFunction,Conductor*%
D23*
G36*
X68156928Y-48849000D02*
G01*
X68156928Y-49449000D01*
X68169188Y-49573482D01*
X68205498Y-49693180D01*
X68254043Y-49784000D01*
X68205498Y-49874820D01*
X68169188Y-49994518D01*
X68156928Y-50119000D01*
X68156928Y-50719000D01*
X68169188Y-50843482D01*
X68205498Y-50963180D01*
X68254043Y-51054000D01*
X68205498Y-51144820D01*
X68169188Y-51264518D01*
X68156928Y-51389000D01*
X68156928Y-51989000D01*
X68169188Y-52113482D01*
X68205498Y-52233180D01*
X68264463Y-52343494D01*
X68343815Y-52440185D01*
X68440506Y-52519537D01*
X68550820Y-52578502D01*
X68670518Y-52614812D01*
X68795000Y-52627072D01*
X70765000Y-52627072D01*
X70889482Y-52614812D01*
X71009180Y-52578502D01*
X71119494Y-52519537D01*
X71216185Y-52440185D01*
X71295537Y-52343494D01*
X71354502Y-52233180D01*
X71390812Y-52113482D01*
X71401779Y-52002134D01*
X71634000Y-52234355D01*
X71634001Y-59848355D01*
X71633282Y-59852117D01*
X71634001Y-59947733D01*
X71634001Y-59993608D01*
X71634374Y-59997400D01*
X71634778Y-60051063D01*
X71644102Y-60096164D01*
X71648616Y-60141994D01*
X71664193Y-60193343D01*
X71675057Y-60245895D01*
X71693001Y-60288310D01*
X71706369Y-60332380D01*
X71731665Y-60379705D01*
X71752572Y-60429126D01*
X71778444Y-60467224D01*
X71800154Y-60507840D01*
X71834197Y-60549321D01*
X71836339Y-60552476D01*
X71865742Y-60587760D01*
X71926368Y-60661633D01*
X71929326Y-60664061D01*
X73102928Y-62072384D01*
X73102928Y-62451500D01*
X73115188Y-62575982D01*
X73151498Y-62695680D01*
X73210463Y-62805994D01*
X73289815Y-62902685D01*
X73386506Y-62982037D01*
X73459088Y-63020834D01*
X73394494Y-63085428D01*
X73321000Y-63085428D01*
X73152623Y-63102012D01*
X72990717Y-63151125D01*
X72844649Y-63229200D01*
X72800494Y-63192963D01*
X72690180Y-63133998D01*
X72570482Y-63097688D01*
X72446000Y-63085428D01*
X72281750Y-63088500D01*
X72123000Y-63247250D01*
X72123000Y-64071500D01*
X72143000Y-64071500D01*
X72143000Y-64325500D01*
X72123000Y-64325500D01*
X72123000Y-65149750D01*
X72281750Y-65308500D01*
X72446000Y-65311572D01*
X72479184Y-65308304D01*
X72448031Y-65411000D01*
X72431928Y-65574500D01*
X72431928Y-66124500D01*
X72448031Y-66288000D01*
X72495722Y-66445216D01*
X72573169Y-66590108D01*
X72677394Y-66717106D01*
X72804392Y-66821331D01*
X72949284Y-66898778D01*
X73106500Y-66946469D01*
X73270000Y-66962572D01*
X73670000Y-66962572D01*
X73833500Y-66946469D01*
X73990716Y-66898778D01*
X74135608Y-66821331D01*
X74262606Y-66717106D01*
X74295000Y-66677634D01*
X74327394Y-66717106D01*
X74454392Y-66821331D01*
X74599284Y-66898778D01*
X74756500Y-66946469D01*
X74920000Y-66962572D01*
X75320000Y-66962572D01*
X75483500Y-66946469D01*
X75640716Y-66898778D01*
X75785608Y-66821331D01*
X75912606Y-66717106D01*
X76016831Y-66590108D01*
X76094278Y-66445216D01*
X76141969Y-66288000D01*
X76158072Y-66124500D01*
X76158072Y-65574500D01*
X76141969Y-65411000D01*
X76094278Y-65253784D01*
X76016831Y-65108892D01*
X76005000Y-65094476D01*
X76005000Y-64813845D01*
X76036498Y-64917680D01*
X76095463Y-65027994D01*
X76174815Y-65124685D01*
X76271506Y-65204037D01*
X76381820Y-65263002D01*
X76501518Y-65299312D01*
X76626000Y-65311572D01*
X76790250Y-65308500D01*
X76949000Y-65149750D01*
X76949000Y-64325500D01*
X76929000Y-64325500D01*
X76929000Y-64071500D01*
X76949000Y-64071500D01*
X76949000Y-63247250D01*
X76913914Y-63212164D01*
X77067615Y-63058464D01*
X77125180Y-63041002D01*
X77216000Y-62992457D01*
X77306820Y-63041002D01*
X77364386Y-63058465D01*
X77393822Y-63087900D01*
X77361750Y-63088500D01*
X77203000Y-63247250D01*
X77203000Y-64071500D01*
X77223000Y-64071500D01*
X77223000Y-64325500D01*
X77203000Y-64325500D01*
X77203000Y-65149750D01*
X77361750Y-65308500D01*
X77526000Y-65311572D01*
X77650482Y-65299312D01*
X77728001Y-65275797D01*
X77728001Y-65460491D01*
X77702722Y-65507784D01*
X77655031Y-65665000D01*
X77638928Y-65828500D01*
X77638928Y-66378500D01*
X77655031Y-66542000D01*
X77702722Y-66699216D01*
X77780169Y-66844108D01*
X77884394Y-66971106D01*
X78011392Y-67075331D01*
X78156284Y-67152778D01*
X78313500Y-67200469D01*
X78477000Y-67216572D01*
X78877000Y-67216572D01*
X79040500Y-67200469D01*
X79197716Y-67152778D01*
X79342608Y-67075331D01*
X79469606Y-66971106D01*
X79502000Y-66931634D01*
X79534394Y-66971106D01*
X79661392Y-67075331D01*
X79806284Y-67152778D01*
X79963500Y-67200469D01*
X80127000Y-67216572D01*
X80527000Y-67216572D01*
X80690500Y-67200469D01*
X80847716Y-67152778D01*
X80992608Y-67075331D01*
X81119606Y-66971106D01*
X81223831Y-66844108D01*
X81301278Y-66699216D01*
X81348969Y-66542000D01*
X81365072Y-66378500D01*
X81365072Y-65828500D01*
X81348969Y-65665000D01*
X81301278Y-65507784D01*
X81223831Y-65362892D01*
X81212000Y-65348476D01*
X81212000Y-63606469D01*
X81216281Y-63563000D01*
X81212000Y-63519531D01*
X81212000Y-63519523D01*
X81199195Y-63389510D01*
X81148589Y-63222687D01*
X81066411Y-63068941D01*
X81022591Y-63015547D01*
X81010459Y-63000764D01*
X81026000Y-62992457D01*
X81116820Y-63041002D01*
X81236518Y-63077312D01*
X81361000Y-63089572D01*
X81375250Y-63086500D01*
X81534000Y-62927750D01*
X81534000Y-61593500D01*
X81788000Y-61593500D01*
X81788000Y-62927750D01*
X81946750Y-63086500D01*
X81961000Y-63089572D01*
X82085482Y-63077312D01*
X82205180Y-63041002D01*
X82315494Y-62982037D01*
X82412185Y-62902685D01*
X82491537Y-62805994D01*
X82550502Y-62695680D01*
X82586812Y-62575982D01*
X82599072Y-62451500D01*
X82596000Y-61752250D01*
X82437250Y-61593500D01*
X81788000Y-61593500D01*
X81534000Y-61593500D01*
X81514000Y-61593500D01*
X81514000Y-61423000D01*
X83214928Y-61423000D01*
X83227188Y-61547482D01*
X83263498Y-61667180D01*
X83322463Y-61777494D01*
X83401815Y-61874185D01*
X83498506Y-61953537D01*
X83608820Y-62012502D01*
X83728518Y-62048812D01*
X83853000Y-62061072D01*
X84042250Y-62058000D01*
X84201000Y-61899250D01*
X84201000Y-61100000D01*
X84455000Y-61100000D01*
X84455000Y-61899250D01*
X84613750Y-62058000D01*
X84803000Y-62061072D01*
X84927482Y-62048812D01*
X85047180Y-62012502D01*
X85157494Y-61953537D01*
X85254185Y-61874185D01*
X85333537Y-61777494D01*
X85392502Y-61667180D01*
X85428812Y-61547482D01*
X85441072Y-61423000D01*
X85438000Y-61258750D01*
X85279250Y-61100000D01*
X84455000Y-61100000D01*
X84201000Y-61100000D01*
X83376750Y-61100000D01*
X83218000Y-61258750D01*
X83214928Y-61423000D01*
X81514000Y-61423000D01*
X81514000Y-61339500D01*
X81534000Y-61339500D01*
X81534000Y-61319500D01*
X81788000Y-61319500D01*
X81788000Y-61339500D01*
X82437250Y-61339500D01*
X82596000Y-61180750D01*
X82599072Y-60481500D01*
X82586812Y-60357018D01*
X82556624Y-60257500D01*
X83274894Y-60257500D01*
X83263498Y-60278820D01*
X83227188Y-60398518D01*
X83214928Y-60523000D01*
X83218000Y-60687250D01*
X83376750Y-60846000D01*
X84201000Y-60846000D01*
X84201000Y-60826000D01*
X84455000Y-60826000D01*
X84455000Y-60846000D01*
X85279250Y-60846000D01*
X85438000Y-60687250D01*
X85441072Y-60523000D01*
X85428812Y-60398518D01*
X85392502Y-60278820D01*
X85381106Y-60257500D01*
X85512542Y-60257500D01*
X85537398Y-60265040D01*
X85619392Y-60332331D01*
X85764284Y-60409778D01*
X85921500Y-60457469D01*
X86085000Y-60473572D01*
X86635000Y-60473572D01*
X86798500Y-60457469D01*
X86955716Y-60409778D01*
X87100608Y-60332331D01*
X87227606Y-60228106D01*
X87331831Y-60101108D01*
X87409278Y-59956216D01*
X87456969Y-59799000D01*
X87473072Y-59635500D01*
X87473072Y-59235500D01*
X87456969Y-59072000D01*
X87409278Y-58914784D01*
X87331831Y-58769892D01*
X87227606Y-58642894D01*
X87188134Y-58610500D01*
X87227606Y-58578106D01*
X87331831Y-58451108D01*
X87409278Y-58306216D01*
X87456969Y-58149000D01*
X87473072Y-57985500D01*
X87473072Y-57585500D01*
X87456969Y-57422000D01*
X87409278Y-57264784D01*
X87331831Y-57119892D01*
X87227606Y-56992894D01*
X87100608Y-56888669D01*
X86955716Y-56811222D01*
X86798500Y-56763531D01*
X86635000Y-56747428D01*
X86085000Y-56747428D01*
X85921500Y-56763531D01*
X85764284Y-56811222D01*
X85619392Y-56888669D01*
X85609430Y-56896845D01*
X85598000Y-56895719D01*
X85554531Y-56900000D01*
X83672965Y-56900000D01*
X83629499Y-56895719D01*
X83586033Y-56900000D01*
X83586023Y-56900000D01*
X83456010Y-56912805D01*
X83452479Y-56913876D01*
X84753099Y-55613256D01*
X84791633Y-55581633D01*
X84917847Y-55427840D01*
X85011632Y-55252380D01*
X85033133Y-55181500D01*
X85069385Y-55061995D01*
X85088886Y-54864000D01*
X85084000Y-54814392D01*
X85084000Y-51706000D01*
X85961928Y-51706000D01*
X85974188Y-51830482D01*
X86010498Y-51950180D01*
X86069463Y-52060494D01*
X86148815Y-52157185D01*
X86245506Y-52236537D01*
X86355820Y-52295502D01*
X86475518Y-52331812D01*
X86600000Y-52344072D01*
X88414250Y-52341000D01*
X88573000Y-52182250D01*
X88573000Y-50958000D01*
X86123750Y-50958000D01*
X85965000Y-51116750D01*
X85961928Y-51706000D01*
X85084000Y-51706000D01*
X85084000Y-50849608D01*
X85088886Y-50800000D01*
X85069385Y-50602005D01*
X85011632Y-50411620D01*
X84964532Y-50323502D01*
X84917847Y-50236160D01*
X84791633Y-50082367D01*
X84753099Y-50050743D01*
X84658356Y-49956000D01*
X85961928Y-49956000D01*
X85965000Y-50545250D01*
X86123750Y-50704000D01*
X88573000Y-50704000D01*
X88573000Y-49479750D01*
X88414250Y-49321000D01*
X86600000Y-49317928D01*
X86475518Y-49330188D01*
X86355820Y-49366498D01*
X86245506Y-49425463D01*
X86148815Y-49504815D01*
X86069463Y-49601506D01*
X86010498Y-49711820D01*
X85974188Y-49831518D01*
X85961928Y-49956000D01*
X84658356Y-49956000D01*
X83846260Y-49143905D01*
X83875751Y-49141000D01*
X86708296Y-49141000D01*
X86745506Y-49171537D01*
X86855820Y-49230502D01*
X86975518Y-49266812D01*
X87100000Y-49279072D01*
X90700000Y-49279072D01*
X90824482Y-49266812D01*
X90879759Y-49250044D01*
X90880093Y-49325816D01*
X90800000Y-49317928D01*
X88985750Y-49321000D01*
X88827000Y-49479750D01*
X88827000Y-50704000D01*
X88847000Y-50704000D01*
X88847000Y-50958000D01*
X88827000Y-50958000D01*
X88827000Y-52182250D01*
X88985750Y-52341000D01*
X90800000Y-52344072D01*
X90893388Y-52334874D01*
X90970358Y-69755673D01*
X90955778Y-69904369D01*
X90921547Y-70017746D01*
X90865946Y-70122317D01*
X90791094Y-70214095D01*
X90699835Y-70289591D01*
X90595660Y-70345919D01*
X90482524Y-70380940D01*
X90334479Y-70396500D01*
X34322279Y-70396500D01*
X34172131Y-70381778D01*
X34058754Y-70347547D01*
X33954183Y-70291946D01*
X33862405Y-70217094D01*
X33786909Y-70125835D01*
X33730581Y-70021660D01*
X33695560Y-69908524D01*
X33680000Y-69760479D01*
X33680000Y-64673500D01*
X70907928Y-64673500D01*
X70920188Y-64797982D01*
X70956498Y-64917680D01*
X71015463Y-65027994D01*
X71094815Y-65124685D01*
X71191506Y-65204037D01*
X71301820Y-65263002D01*
X71421518Y-65299312D01*
X71546000Y-65311572D01*
X71710250Y-65308500D01*
X71869000Y-65149750D01*
X71869000Y-64325500D01*
X71069750Y-64325500D01*
X70911000Y-64484250D01*
X70907928Y-64673500D01*
X33680000Y-64673500D01*
X33680000Y-63723500D01*
X70907928Y-63723500D01*
X70911000Y-63912750D01*
X71069750Y-64071500D01*
X71869000Y-64071500D01*
X71869000Y-63247250D01*
X71710250Y-63088500D01*
X71546000Y-63085428D01*
X71421518Y-63097688D01*
X71301820Y-63133998D01*
X71191506Y-63192963D01*
X71094815Y-63272315D01*
X71015463Y-63369006D01*
X70956498Y-63479320D01*
X70920188Y-63599018D01*
X70907928Y-63723500D01*
X33680000Y-63723500D01*
X33680000Y-54884038D01*
X35474250Y-54881000D01*
X35633000Y-54722250D01*
X35633000Y-53498000D01*
X35887000Y-53498000D01*
X35887000Y-54722250D01*
X36045750Y-54881000D01*
X37860000Y-54884072D01*
X37984482Y-54871812D01*
X38104180Y-54835502D01*
X38214494Y-54776537D01*
X38311185Y-54697185D01*
X38390537Y-54600494D01*
X38449502Y-54490180D01*
X38485812Y-54370482D01*
X38498072Y-54246000D01*
X38495000Y-53656750D01*
X38336250Y-53498000D01*
X35887000Y-53498000D01*
X35633000Y-53498000D01*
X35613000Y-53498000D01*
X35613000Y-53244000D01*
X35633000Y-53244000D01*
X35633000Y-52019750D01*
X35887000Y-52019750D01*
X35887000Y-53244000D01*
X38336250Y-53244000D01*
X38495000Y-53085250D01*
X38498072Y-52496000D01*
X38485812Y-52371518D01*
X38449502Y-52251820D01*
X38390537Y-52141506D01*
X38311185Y-52044815D01*
X38214494Y-51965463D01*
X38104180Y-51906498D01*
X37984482Y-51870188D01*
X37860000Y-51857928D01*
X36045750Y-51861000D01*
X35887000Y-52019750D01*
X35633000Y-52019750D01*
X35474250Y-51861000D01*
X33680000Y-51857962D01*
X33680000Y-51811193D01*
X33760000Y-51819072D01*
X37360000Y-51819072D01*
X37484482Y-51806812D01*
X37604180Y-51770502D01*
X37714494Y-51711537D01*
X37751704Y-51681000D01*
X43471869Y-51681000D01*
X47037009Y-55246141D01*
X47072551Y-55289449D01*
X47241182Y-55427841D01*
X47245377Y-55431284D01*
X47442553Y-55536676D01*
X47656501Y-55601577D01*
X47879000Y-55623491D01*
X47934752Y-55618000D01*
X49932039Y-55618000D01*
X49997113Y-55671405D01*
X50150648Y-55753472D01*
X50317244Y-55804008D01*
X50490498Y-55821072D01*
X51015502Y-55821072D01*
X51188756Y-55804008D01*
X51355352Y-55753472D01*
X51508887Y-55671405D01*
X51643462Y-55560962D01*
X51665500Y-55534109D01*
X51687538Y-55560962D01*
X51822113Y-55671405D01*
X51975648Y-55753472D01*
X52142244Y-55804008D01*
X52315498Y-55821072D01*
X52840502Y-55821072D01*
X53013756Y-55804008D01*
X53180352Y-55753472D01*
X53333887Y-55671405D01*
X53398961Y-55618000D01*
X53919249Y-55618000D01*
X53975000Y-55623491D01*
X54030751Y-55618000D01*
X54030752Y-55618000D01*
X54197499Y-55601577D01*
X54411447Y-55536676D01*
X54608623Y-55431284D01*
X54781449Y-55289449D01*
X54816996Y-55246135D01*
X55552131Y-54511000D01*
X59367928Y-54511000D01*
X59380188Y-54635482D01*
X59416498Y-54755180D01*
X59475463Y-54865494D01*
X59554815Y-54962185D01*
X59651506Y-55041537D01*
X59761820Y-55100502D01*
X59881518Y-55136812D01*
X60006000Y-55149072D01*
X60420250Y-55146000D01*
X60579000Y-54987250D01*
X60579000Y-54125500D01*
X60833000Y-54125500D01*
X60833000Y-54987250D01*
X60991750Y-55146000D01*
X61406000Y-55149072D01*
X61530482Y-55136812D01*
X61650180Y-55100502D01*
X61760494Y-55041537D01*
X61857185Y-54962185D01*
X61936537Y-54865494D01*
X61995502Y-54755180D01*
X62031812Y-54635482D01*
X62044072Y-54511000D01*
X62041000Y-54284250D01*
X61882250Y-54125500D01*
X60833000Y-54125500D01*
X60579000Y-54125500D01*
X59529750Y-54125500D01*
X59371000Y-54284250D01*
X59367928Y-54511000D01*
X55552131Y-54511000D01*
X58509132Y-51554000D01*
X59444694Y-51554000D01*
X59435528Y-51571148D01*
X59384992Y-51737744D01*
X59367928Y-51910998D01*
X59367928Y-52436002D01*
X59384992Y-52609256D01*
X59435528Y-52775852D01*
X59517595Y-52929387D01*
X59584276Y-53010637D01*
X59554815Y-53034815D01*
X59475463Y-53131506D01*
X59416498Y-53241820D01*
X59380188Y-53361518D01*
X59367928Y-53486000D01*
X59371000Y-53712750D01*
X59529750Y-53871500D01*
X60579000Y-53871500D01*
X60579000Y-53851500D01*
X60833000Y-53851500D01*
X60833000Y-53871500D01*
X61882250Y-53871500D01*
X62041000Y-53712750D01*
X62044072Y-53486000D01*
X62031812Y-53361518D01*
X61995502Y-53241820D01*
X61936537Y-53131506D01*
X61857185Y-53034815D01*
X61827724Y-53010637D01*
X61894405Y-52929387D01*
X61976472Y-52775852D01*
X62027008Y-52609256D01*
X62044072Y-52436002D01*
X62044072Y-51989000D01*
X63216928Y-51989000D01*
X63229188Y-52113482D01*
X63265498Y-52233180D01*
X63324463Y-52343494D01*
X63403815Y-52440185D01*
X63500506Y-52519537D01*
X63610820Y-52578502D01*
X63730518Y-52614812D01*
X63855000Y-52627072D01*
X64554250Y-52624000D01*
X64713000Y-52465250D01*
X64713000Y-51816000D01*
X64967000Y-51816000D01*
X64967000Y-52465250D01*
X65125750Y-52624000D01*
X65825000Y-52627072D01*
X65949482Y-52614812D01*
X66069180Y-52578502D01*
X66179494Y-52519537D01*
X66276185Y-52440185D01*
X66355537Y-52343494D01*
X66414502Y-52233180D01*
X66450812Y-52113482D01*
X66463072Y-51989000D01*
X66460000Y-51974750D01*
X66301250Y-51816000D01*
X64967000Y-51816000D01*
X64713000Y-51816000D01*
X63378750Y-51816000D01*
X63220000Y-51974750D01*
X63216928Y-51989000D01*
X62044072Y-51989000D01*
X62044072Y-51910998D01*
X62027008Y-51737744D01*
X61976472Y-51571148D01*
X61967306Y-51554000D01*
X63370750Y-51554000D01*
X63378750Y-51562000D01*
X64713000Y-51562000D01*
X64713000Y-51554000D01*
X64967000Y-51554000D01*
X64967000Y-51562000D01*
X66301250Y-51562000D01*
X66460000Y-51403250D01*
X66463072Y-51389000D01*
X66450812Y-51264518D01*
X66414502Y-51144820D01*
X66365957Y-51054000D01*
X66414502Y-50963180D01*
X66432100Y-50905168D01*
X66458676Y-50855447D01*
X66523577Y-50641499D01*
X66545491Y-50419000D01*
X66526485Y-50226023D01*
X66603447Y-50202676D01*
X66800623Y-50097284D01*
X66973449Y-49955449D01*
X67008996Y-49912135D01*
X68166192Y-48754940D01*
X68156928Y-48849000D01*
G37*
%TD.AperFunction*%
D22*
X79725894Y-50884894D02*
X79621669Y-51011892D01*
X79544222Y-51156784D01*
X79496531Y-51314000D01*
X79480428Y-51477500D01*
X79480428Y-52027500D01*
X79496531Y-52191000D01*
X79544222Y-52348216D01*
X79621669Y-52493108D01*
X79633001Y-52506915D01*
X79633000Y-52638336D01*
X79548180Y-52592998D01*
X79428482Y-52556688D01*
X79304000Y-52544428D01*
X79139750Y-52547500D01*
X78981000Y-52706250D01*
X78981000Y-53530500D01*
X79001000Y-53530500D01*
X79001000Y-53784500D01*
X78981000Y-53784500D01*
X78981000Y-54608750D01*
X78997336Y-54625086D01*
X78736214Y-54886207D01*
X78736000Y-54884031D01*
X78736000Y-54884023D01*
X78723195Y-54754010D01*
X78723189Y-54753988D01*
X78703001Y-54687441D01*
X78690272Y-54645478D01*
X78727000Y-54608750D01*
X78727000Y-53784500D01*
X78707000Y-53784500D01*
X78707000Y-53530500D01*
X78727000Y-53530500D01*
X78727000Y-52706250D01*
X78568250Y-52547500D01*
X78418000Y-52544690D01*
X78418000Y-52507524D01*
X78429831Y-52493108D01*
X78507278Y-52348216D01*
X78554969Y-52191000D01*
X78571072Y-52027500D01*
X78571072Y-51477500D01*
X78554969Y-51314000D01*
X78507278Y-51156784D01*
X78429831Y-51011892D01*
X78325606Y-50884894D01*
X78214852Y-50794000D01*
X79836648Y-50794000D01*
X79725894Y-50884894D01*
%TA.AperFunction,Conductor*%
D23*
G36*
X79725894Y-50884894D02*
G01*
X79621669Y-51011892D01*
X79544222Y-51156784D01*
X79496531Y-51314000D01*
X79480428Y-51477500D01*
X79480428Y-52027500D01*
X79496531Y-52191000D01*
X79544222Y-52348216D01*
X79621669Y-52493108D01*
X79633001Y-52506915D01*
X79633000Y-52638336D01*
X79548180Y-52592998D01*
X79428482Y-52556688D01*
X79304000Y-52544428D01*
X79139750Y-52547500D01*
X78981000Y-52706250D01*
X78981000Y-53530500D01*
X79001000Y-53530500D01*
X79001000Y-53784500D01*
X78981000Y-53784500D01*
X78981000Y-54608750D01*
X78997336Y-54625086D01*
X78736214Y-54886207D01*
X78736000Y-54884031D01*
X78736000Y-54884023D01*
X78723195Y-54754010D01*
X78723189Y-54753988D01*
X78703001Y-54687441D01*
X78690272Y-54645478D01*
X78727000Y-54608750D01*
X78727000Y-53784500D01*
X78707000Y-53784500D01*
X78707000Y-53530500D01*
X78727000Y-53530500D01*
X78727000Y-52706250D01*
X78568250Y-52547500D01*
X78418000Y-52544690D01*
X78418000Y-52507524D01*
X78429831Y-52493108D01*
X78507278Y-52348216D01*
X78554969Y-52191000D01*
X78571072Y-52027500D01*
X78571072Y-51477500D01*
X78554969Y-51314000D01*
X78507278Y-51156784D01*
X78429831Y-51011892D01*
X78325606Y-50884894D01*
X78214852Y-50794000D01*
X79836648Y-50794000D01*
X79725894Y-50884894D01*
G37*
%TD.AperFunction*%
D22*
X74174000Y-49099392D02*
X74169114Y-49149000D01*
X74188615Y-49346994D01*
X74236490Y-49504815D01*
X74246368Y-49537379D01*
X74340153Y-49712840D01*
X74466367Y-49866633D01*
X74504906Y-49898261D01*
X75069739Y-50463094D01*
X75101367Y-50501633D01*
X75255160Y-50627847D01*
X75383906Y-50696663D01*
X75362284Y-50703222D01*
X75217392Y-50780669D01*
X75090394Y-50884894D01*
X74986169Y-51011892D01*
X74908722Y-51156784D01*
X74861031Y-51314000D01*
X74844928Y-51477500D01*
X74844928Y-51877194D01*
X74819805Y-51960010D01*
X74802719Y-52133500D01*
X74807001Y-52176979D01*
X74807001Y-52707203D01*
X74729482Y-52683688D01*
X74605000Y-52671428D01*
X74440750Y-52674500D01*
X74282000Y-52833250D01*
X74282000Y-53657500D01*
X74302000Y-53657500D01*
X74302000Y-53911500D01*
X74282000Y-53911500D01*
X74282000Y-53931500D01*
X74028000Y-53931500D01*
X74028000Y-53911500D01*
X74008000Y-53911500D01*
X74008000Y-53657500D01*
X74028000Y-53657500D01*
X74028000Y-52833250D01*
X73869250Y-52674500D01*
X73705000Y-52671428D01*
X73654000Y-52676451D01*
X73654000Y-51865604D01*
X73658886Y-51815999D01*
X73648597Y-51711537D01*
X73639385Y-51618006D01*
X73581632Y-51427620D01*
X73487847Y-51252160D01*
X73361633Y-51098367D01*
X73323094Y-51066739D01*
X72548355Y-50292000D01*
X74174000Y-48666355D01*
X74174000Y-49099392D01*
%TA.AperFunction,Conductor*%
D23*
G36*
X74174000Y-49099392D02*
G01*
X74169114Y-49149000D01*
X74188615Y-49346994D01*
X74236490Y-49504815D01*
X74246368Y-49537379D01*
X74340153Y-49712840D01*
X74466367Y-49866633D01*
X74504906Y-49898261D01*
X75069739Y-50463094D01*
X75101367Y-50501633D01*
X75255160Y-50627847D01*
X75383906Y-50696663D01*
X75362284Y-50703222D01*
X75217392Y-50780669D01*
X75090394Y-50884894D01*
X74986169Y-51011892D01*
X74908722Y-51156784D01*
X74861031Y-51314000D01*
X74844928Y-51477500D01*
X74844928Y-51877194D01*
X74819805Y-51960010D01*
X74802719Y-52133500D01*
X74807001Y-52176979D01*
X74807001Y-52707203D01*
X74729482Y-52683688D01*
X74605000Y-52671428D01*
X74440750Y-52674500D01*
X74282000Y-52833250D01*
X74282000Y-53657500D01*
X74302000Y-53657500D01*
X74302000Y-53911500D01*
X74282000Y-53911500D01*
X74282000Y-53931500D01*
X74028000Y-53931500D01*
X74028000Y-53911500D01*
X74008000Y-53911500D01*
X74008000Y-53657500D01*
X74028000Y-53657500D01*
X74028000Y-52833250D01*
X73869250Y-52674500D01*
X73705000Y-52671428D01*
X73654000Y-52676451D01*
X73654000Y-51865604D01*
X73658886Y-51815999D01*
X73648597Y-51711537D01*
X73639385Y-51618006D01*
X73581632Y-51427620D01*
X73487847Y-51252160D01*
X73361633Y-51098367D01*
X73323094Y-51066739D01*
X72548355Y-50292000D01*
X74174000Y-48666355D01*
X74174000Y-49099392D01*
G37*
%TD.AperFunction*%
D22*
X90287869Y-26074722D02*
X90401246Y-26108953D01*
X90505819Y-26164555D01*
X90597596Y-26239407D01*
X90673091Y-26330664D01*
X90729419Y-26434844D01*
X90764440Y-26547976D01*
X90780114Y-26697107D01*
X90855119Y-43673357D01*
X90800000Y-43667928D01*
X88985750Y-43671000D01*
X88827000Y-43829750D01*
X88827000Y-45054000D01*
X88847000Y-45054000D01*
X88847000Y-45308000D01*
X88827000Y-45308000D01*
X88827000Y-46532250D01*
X88985750Y-46691000D01*
X90800000Y-46694072D01*
X90868436Y-46687332D01*
X90868751Y-46758617D01*
X90824482Y-46745188D01*
X90700000Y-46732928D01*
X87100000Y-46732928D01*
X86975518Y-46745188D01*
X86855820Y-46781498D01*
X86745506Y-46840463D01*
X86708296Y-46871000D01*
X85717000Y-46871000D01*
X85717000Y-46056000D01*
X85961928Y-46056000D01*
X85974188Y-46180482D01*
X86010498Y-46300180D01*
X86069463Y-46410494D01*
X86148815Y-46507185D01*
X86245506Y-46586537D01*
X86355820Y-46645502D01*
X86475518Y-46681812D01*
X86600000Y-46694072D01*
X88414250Y-46691000D01*
X88573000Y-46532250D01*
X88573000Y-45308000D01*
X86123750Y-45308000D01*
X85965000Y-45466750D01*
X85961928Y-46056000D01*
X85717000Y-46056000D01*
X85717000Y-44306000D01*
X85961928Y-44306000D01*
X85965000Y-44895250D01*
X86123750Y-45054000D01*
X88573000Y-45054000D01*
X88573000Y-43829750D01*
X88414250Y-43671000D01*
X86600000Y-43667928D01*
X86475518Y-43680188D01*
X86355820Y-43716498D01*
X86245506Y-43775463D01*
X86148815Y-43854815D01*
X86069463Y-43951506D01*
X86010498Y-44061820D01*
X85974188Y-44181518D01*
X85961928Y-44306000D01*
X85717000Y-44306000D01*
X85717000Y-43142131D01*
X86223060Y-42636072D01*
X86956000Y-42636072D01*
X87080482Y-42623812D01*
X87200180Y-42587502D01*
X87310494Y-42528537D01*
X87407185Y-42449185D01*
X87486537Y-42352494D01*
X87545502Y-42242180D01*
X87581812Y-42122482D01*
X87594072Y-41998000D01*
X87594072Y-40298000D01*
X87581812Y-40173518D01*
X87545502Y-40053820D01*
X87486537Y-39943506D01*
X87407185Y-39846815D01*
X87310494Y-39767463D01*
X87200180Y-39708498D01*
X87119534Y-39684034D01*
X87203588Y-39608269D01*
X87377641Y-39374920D01*
X87502825Y-39112099D01*
X87547476Y-38964890D01*
X87426155Y-38735000D01*
X86233000Y-38735000D01*
X86233000Y-38755000D01*
X85979000Y-38755000D01*
X85979000Y-38735000D01*
X84785845Y-38735000D01*
X84664524Y-38964890D01*
X84709175Y-39112099D01*
X84834359Y-39374920D01*
X85008412Y-39608269D01*
X85092466Y-39684034D01*
X85011820Y-39708498D01*
X84901506Y-39767463D01*
X84804815Y-39846815D01*
X84725463Y-39943506D01*
X84666498Y-40053820D01*
X84630188Y-40173518D01*
X84617928Y-40298000D01*
X84617928Y-41030940D01*
X83818860Y-41830009D01*
X83775552Y-41865551D01*
X83633717Y-42038377D01*
X83588762Y-42122482D01*
X83528324Y-42235554D01*
X83463423Y-42449502D01*
X83441509Y-42672000D01*
X83447001Y-42727761D01*
X83447000Y-46773868D01*
X83349869Y-46871000D01*
X82802095Y-46871000D01*
X82848502Y-46784180D01*
X82884812Y-46664482D01*
X82897072Y-46540000D01*
X82894000Y-46325750D01*
X82735250Y-46167000D01*
X81661000Y-46167000D01*
X81661000Y-46187000D01*
X81407000Y-46187000D01*
X81407000Y-46167000D01*
X80332750Y-46167000D01*
X80174000Y-46325750D01*
X80170928Y-46540000D01*
X80183188Y-46664482D01*
X80214438Y-46767500D01*
X78947623Y-46767500D01*
X78994472Y-46679852D01*
X79045008Y-46513256D01*
X79062072Y-46340002D01*
X79062072Y-45814998D01*
X79045008Y-45641744D01*
X79014145Y-45540000D01*
X80170928Y-45540000D01*
X80174000Y-45754250D01*
X80332750Y-45913000D01*
X81407000Y-45913000D01*
X81407000Y-45063750D01*
X81661000Y-45063750D01*
X81661000Y-45913000D01*
X82735250Y-45913000D01*
X82894000Y-45754250D01*
X82897072Y-45540000D01*
X82884812Y-45415518D01*
X82848502Y-45295820D01*
X82789537Y-45185506D01*
X82710185Y-45088815D01*
X82613494Y-45009463D01*
X82503180Y-44950498D01*
X82383482Y-44914188D01*
X82259000Y-44901928D01*
X81819750Y-44905000D01*
X81661000Y-45063750D01*
X81407000Y-45063750D01*
X81248250Y-44905000D01*
X80809000Y-44901928D01*
X80684518Y-44914188D01*
X80564820Y-44950498D01*
X80454506Y-45009463D01*
X80357815Y-45088815D01*
X80278463Y-45185506D01*
X80219498Y-45295820D01*
X80183188Y-45415518D01*
X80170928Y-45540000D01*
X79014145Y-45540000D01*
X78994472Y-45475148D01*
X78912405Y-45321613D01*
X78801962Y-45187038D01*
X78667387Y-45076595D01*
X78513852Y-44994528D01*
X78347256Y-44943992D01*
X78293865Y-44938733D01*
X77712203Y-44357072D01*
X78024000Y-44357072D01*
X78148482Y-44344812D01*
X78268180Y-44308502D01*
X78359000Y-44259957D01*
X78449820Y-44308502D01*
X78569518Y-44344812D01*
X78694000Y-44357072D01*
X79294000Y-44357072D01*
X79418482Y-44344812D01*
X79538180Y-44308502D01*
X79629000Y-44259957D01*
X79719820Y-44308502D01*
X79839518Y-44344812D01*
X79964000Y-44357072D01*
X80564000Y-44357072D01*
X80688482Y-44344812D01*
X80808180Y-44308502D01*
X80899000Y-44259957D01*
X80989820Y-44308502D01*
X81109518Y-44344812D01*
X81234000Y-44357072D01*
X81248250Y-44354000D01*
X81407000Y-44195250D01*
X81407000Y-42861000D01*
X81661000Y-42861000D01*
X81661000Y-44195250D01*
X81819750Y-44354000D01*
X81834000Y-44357072D01*
X81958482Y-44344812D01*
X82078180Y-44308502D01*
X82188494Y-44249537D01*
X82285185Y-44170185D01*
X82364537Y-44073494D01*
X82423502Y-43963180D01*
X82459812Y-43843482D01*
X82472072Y-43719000D01*
X82469000Y-43019750D01*
X82310250Y-42861000D01*
X81661000Y-42861000D01*
X81407000Y-42861000D01*
X81387000Y-42861000D01*
X81387000Y-42607000D01*
X81407000Y-42607000D01*
X81407000Y-41272750D01*
X81661000Y-41272750D01*
X81661000Y-42607000D01*
X82310250Y-42607000D01*
X82469000Y-42448250D01*
X82472072Y-41749000D01*
X82459812Y-41624518D01*
X82423502Y-41504820D01*
X82364537Y-41394506D01*
X82285185Y-41297815D01*
X82188494Y-41218463D01*
X82078180Y-41159498D01*
X81958482Y-41123188D01*
X81834000Y-41110928D01*
X81819750Y-41114000D01*
X81661000Y-41272750D01*
X81407000Y-41272750D01*
X81248250Y-41114000D01*
X81234000Y-41110928D01*
X81109518Y-41123188D01*
X80989820Y-41159498D01*
X80899000Y-41208043D01*
X80808180Y-41159498D01*
X80688482Y-41123188D01*
X80564000Y-41110928D01*
X79964000Y-41110928D01*
X79839518Y-41123188D01*
X79719820Y-41159498D01*
X79629000Y-41208043D01*
X79538180Y-41159498D01*
X79418482Y-41123188D01*
X79294000Y-41110928D01*
X78694000Y-41110928D01*
X78569518Y-41123188D01*
X78449820Y-41159498D01*
X78359000Y-41208043D01*
X78268180Y-41159498D01*
X78148482Y-41123188D01*
X78024000Y-41110928D01*
X77424000Y-41110928D01*
X77299518Y-41123188D01*
X77179820Y-41159498D01*
X77089000Y-41208043D01*
X76998180Y-41159498D01*
X76878482Y-41123188D01*
X76754000Y-41110928D01*
X76154000Y-41110928D01*
X76029518Y-41123188D01*
X75909820Y-41159498D01*
X75819000Y-41208043D01*
X75728180Y-41159498D01*
X75608482Y-41123188D01*
X75484000Y-41110928D01*
X74884000Y-41110928D01*
X74759518Y-41123188D01*
X74639820Y-41159498D01*
X74549000Y-41208043D01*
X74458180Y-41159498D01*
X74338482Y-41123188D01*
X74214000Y-41110928D01*
X73614000Y-41110928D01*
X73489518Y-41123188D01*
X73369820Y-41159498D01*
X73259506Y-41218463D01*
X73162815Y-41297815D01*
X73083463Y-41394506D01*
X73024498Y-41504820D01*
X72988188Y-41624518D01*
X72975928Y-41749000D01*
X72975928Y-42138285D01*
X72954368Y-42178621D01*
X72896615Y-42369006D01*
X72877114Y-42567000D01*
X72882001Y-42616618D01*
X72882000Y-46327960D01*
X72880256Y-46326795D01*
X72691898Y-46248774D01*
X72491939Y-46209000D01*
X72288061Y-46209000D01*
X72088102Y-46248774D01*
X71899744Y-46326795D01*
X71730226Y-46440063D01*
X71586063Y-46584226D01*
X71472795Y-46753744D01*
X71394774Y-46942102D01*
X71383465Y-46998956D01*
X71233504Y-47148918D01*
X71216185Y-47127815D01*
X71119494Y-47048463D01*
X71009180Y-46989498D01*
X70889482Y-46953188D01*
X70765000Y-46940928D01*
X70065750Y-46944000D01*
X69907000Y-47102750D01*
X69907000Y-47752000D01*
X69927000Y-47752000D01*
X69927000Y-48006000D01*
X69907000Y-48006000D01*
X69907000Y-48026000D01*
X69653000Y-48026000D01*
X69653000Y-48006000D01*
X69633000Y-48006000D01*
X69633000Y-47752000D01*
X69653000Y-47752000D01*
X69653000Y-47102750D01*
X69494250Y-46944000D01*
X69342797Y-46943335D01*
X72137146Y-44148987D01*
X72180449Y-44113449D01*
X72322284Y-43940623D01*
X72427676Y-43743447D01*
X72492577Y-43529499D01*
X72509000Y-43362752D01*
X72514491Y-43307000D01*
X72509000Y-43251248D01*
X72509000Y-37808131D01*
X72975928Y-37341203D01*
X72975928Y-38769000D01*
X72988188Y-38893482D01*
X73024498Y-39013180D01*
X73083463Y-39123494D01*
X73162815Y-39220185D01*
X73259506Y-39299537D01*
X73369820Y-39358502D01*
X73489518Y-39394812D01*
X73614000Y-39407072D01*
X74214000Y-39407072D01*
X74338482Y-39394812D01*
X74458180Y-39358502D01*
X74549000Y-39309957D01*
X74639820Y-39358502D01*
X74759518Y-39394812D01*
X74884000Y-39407072D01*
X75484000Y-39407072D01*
X75608482Y-39394812D01*
X75728180Y-39358502D01*
X75819000Y-39309957D01*
X75909820Y-39358502D01*
X76029518Y-39394812D01*
X76154000Y-39407072D01*
X76754000Y-39407072D01*
X76878482Y-39394812D01*
X76998180Y-39358502D01*
X77089000Y-39309957D01*
X77179820Y-39358502D01*
X77299518Y-39394812D01*
X77424000Y-39407072D01*
X78024000Y-39407072D01*
X78148482Y-39394812D01*
X78268180Y-39358502D01*
X78359000Y-39309957D01*
X78449820Y-39358502D01*
X78569518Y-39394812D01*
X78694000Y-39407072D01*
X79294000Y-39407072D01*
X79418482Y-39394812D01*
X79538180Y-39358502D01*
X79629000Y-39309957D01*
X79719820Y-39358502D01*
X79839518Y-39394812D01*
X79964000Y-39407072D01*
X80564000Y-39407072D01*
X80688482Y-39394812D01*
X80808180Y-39358502D01*
X80899000Y-39309957D01*
X80989820Y-39358502D01*
X81109518Y-39394812D01*
X81234000Y-39407072D01*
X81834000Y-39407072D01*
X81958482Y-39394812D01*
X82078180Y-39358502D01*
X82188494Y-39299537D01*
X82285185Y-39220185D01*
X82364537Y-39123494D01*
X82423502Y-39013180D01*
X82459812Y-38893482D01*
X82472072Y-38769000D01*
X82472072Y-38251110D01*
X84664524Y-38251110D01*
X84785845Y-38481000D01*
X85979000Y-38481000D01*
X85979000Y-37287186D01*
X86233000Y-37287186D01*
X86233000Y-38481000D01*
X87426155Y-38481000D01*
X87547476Y-38251110D01*
X87502825Y-38103901D01*
X87377641Y-37841080D01*
X87203588Y-37607731D01*
X86987355Y-37412822D01*
X86737252Y-37263843D01*
X86462891Y-37166519D01*
X86233000Y-37287186D01*
X85979000Y-37287186D01*
X85749109Y-37166519D01*
X85474748Y-37263843D01*
X85224645Y-37412822D01*
X85008412Y-37607731D01*
X84834359Y-37841080D01*
X84709175Y-38103901D01*
X84664524Y-38251110D01*
X82472072Y-38251110D01*
X82472072Y-36799000D01*
X82459812Y-36674518D01*
X82423502Y-36554820D01*
X82364537Y-36444506D01*
X82285185Y-36347815D01*
X82188494Y-36268463D01*
X82078180Y-36209498D01*
X81958482Y-36173188D01*
X81834000Y-36160928D01*
X81234000Y-36160928D01*
X81109518Y-36173188D01*
X80989820Y-36209498D01*
X80899000Y-36258043D01*
X80808180Y-36209498D01*
X80688482Y-36173188D01*
X80564000Y-36160928D01*
X79964000Y-36160928D01*
X79839518Y-36173188D01*
X79719820Y-36209498D01*
X79629000Y-36258043D01*
X79538180Y-36209498D01*
X79418482Y-36173188D01*
X79294000Y-36160928D01*
X78694000Y-36160928D01*
X78569518Y-36173188D01*
X78449820Y-36209498D01*
X78359000Y-36258043D01*
X78268180Y-36209498D01*
X78148482Y-36173188D01*
X78024000Y-36160928D01*
X77424000Y-36160928D01*
X77299518Y-36173188D01*
X77179820Y-36209498D01*
X77089000Y-36258043D01*
X76998180Y-36209498D01*
X76878482Y-36173188D01*
X76787080Y-36164186D01*
X76863205Y-36050256D01*
X76941226Y-35861898D01*
X76981000Y-35661939D01*
X76981000Y-35458061D01*
X76941226Y-35258102D01*
X76863205Y-35069744D01*
X76749937Y-34900226D01*
X76605774Y-34756063D01*
X76436256Y-34642795D01*
X76247898Y-34564774D01*
X76047939Y-34525000D01*
X75844061Y-34525000D01*
X75779239Y-34537894D01*
X75947146Y-34369987D01*
X75990449Y-34334449D01*
X76030966Y-34285080D01*
X76132284Y-34161623D01*
X76237676Y-33964447D01*
X76302577Y-33750499D01*
X76312771Y-33647000D01*
X76319000Y-33583752D01*
X76324491Y-33528000D01*
X76319000Y-33472248D01*
X76319000Y-30281752D01*
X76324491Y-30226000D01*
X76313552Y-30114928D01*
X76302577Y-30003501D01*
X76237676Y-29789553D01*
X76132284Y-29592377D01*
X75990449Y-29419551D01*
X75947140Y-29384008D01*
X75202995Y-28639864D01*
X75167449Y-28596551D01*
X74994623Y-28454716D01*
X74797447Y-28349324D01*
X74583499Y-28284423D01*
X74416752Y-28268000D01*
X74416751Y-28268000D01*
X74361000Y-28262509D01*
X74305249Y-28268000D01*
X73150191Y-28268000D01*
X73119000Y-28264928D01*
X72169000Y-28264928D01*
X71995746Y-28281992D01*
X71918250Y-28305500D01*
X69305750Y-28305500D01*
X69228254Y-28281992D01*
X69055000Y-28264928D01*
X68105000Y-28264928D01*
X67931746Y-28281992D01*
X67854250Y-28305500D01*
X64489107Y-28305500D01*
X64331002Y-28289928D01*
X63430998Y-28289928D01*
X63257744Y-28306992D01*
X63091148Y-28357528D01*
X62937613Y-28439595D01*
X62803038Y-28550038D01*
X62692595Y-28684613D01*
X62610528Y-28838148D01*
X62559992Y-29004744D01*
X62542928Y-29177998D01*
X62542928Y-29703002D01*
X62559992Y-29876256D01*
X62610528Y-30042852D01*
X62692595Y-30196387D01*
X62803038Y-30330962D01*
X62829891Y-30353000D01*
X62803038Y-30375038D01*
X62692595Y-30509613D01*
X62610528Y-30663148D01*
X62559992Y-30829744D01*
X62542928Y-31002998D01*
X62542928Y-31528002D01*
X62559992Y-31701256D01*
X62610528Y-31867852D01*
X62692595Y-32021387D01*
X62803038Y-32155962D01*
X62934001Y-32263440D01*
X62934000Y-32716928D01*
X62834000Y-32716928D01*
X62709518Y-32729188D01*
X62589820Y-32765498D01*
X62581397Y-32770000D01*
X61961579Y-32770000D01*
X60069034Y-30877456D01*
X60041317Y-30843683D01*
X59906559Y-30733089D01*
X59752813Y-30650911D01*
X59585990Y-30600305D01*
X59455977Y-30587500D01*
X59455969Y-30587500D01*
X59412500Y-30583219D01*
X59369031Y-30587500D01*
X59121445Y-30587500D01*
X59116962Y-30582038D01*
X58982387Y-30471595D01*
X58828852Y-30389528D01*
X58662256Y-30338992D01*
X58489002Y-30321928D01*
X57588998Y-30321928D01*
X57415744Y-30338992D01*
X57249148Y-30389528D01*
X57095613Y-30471595D01*
X56961038Y-30582038D01*
X56850595Y-30716613D01*
X56768528Y-30870148D01*
X56717992Y-31036744D01*
X56700928Y-31209998D01*
X56700928Y-31735002D01*
X56717992Y-31908256D01*
X56768528Y-32074852D01*
X56850595Y-32228387D01*
X56961038Y-32362962D01*
X56987891Y-32385000D01*
X56961038Y-32407038D01*
X56850595Y-32541613D01*
X56768528Y-32695148D01*
X56717992Y-32861744D01*
X56700928Y-33034998D01*
X56700928Y-33560002D01*
X56717992Y-33733256D01*
X56768528Y-33899852D01*
X56850595Y-34053387D01*
X56961038Y-34187962D01*
X57095613Y-34298405D01*
X57249148Y-34380472D01*
X57415744Y-34431008D01*
X57588998Y-34448072D01*
X57834494Y-34448072D01*
X58382349Y-34995928D01*
X57691000Y-34995928D01*
X57517746Y-35012992D01*
X57351150Y-35063528D01*
X57197614Y-35145595D01*
X57149599Y-35185000D01*
X53163524Y-35185000D01*
X53258405Y-35069387D01*
X53340472Y-34915852D01*
X53391008Y-34749256D01*
X53408072Y-34576002D01*
X53408072Y-34050998D01*
X53391008Y-33877744D01*
X53340472Y-33711148D01*
X53258405Y-33557613D01*
X53147962Y-33423038D01*
X53121109Y-33401000D01*
X53147962Y-33378962D01*
X53258405Y-33244387D01*
X53340472Y-33090852D01*
X53391008Y-32924256D01*
X53408072Y-32751002D01*
X53408072Y-32225998D01*
X53391008Y-32052744D01*
X53340472Y-31886148D01*
X53258405Y-31732613D01*
X53147962Y-31598038D01*
X53013387Y-31487595D01*
X52859852Y-31405528D01*
X52693256Y-31354992D01*
X52674216Y-31353117D01*
X52633446Y-31331325D01*
X52419498Y-31266423D01*
X52196999Y-31244509D01*
X51974501Y-31266423D01*
X51760554Y-31331325D01*
X51748201Y-31337928D01*
X51619998Y-31337928D01*
X51446744Y-31354992D01*
X51374193Y-31377000D01*
X49395000Y-31377000D01*
X49395000Y-30998923D01*
X49473405Y-30903386D01*
X49555472Y-30749850D01*
X49606008Y-30583254D01*
X49623072Y-30410000D01*
X49623072Y-29910000D01*
X49606008Y-29736746D01*
X49555472Y-29570150D01*
X49473405Y-29416614D01*
X49362962Y-29282038D01*
X49356406Y-29276658D01*
X49436185Y-29211185D01*
X49515537Y-29114494D01*
X49574502Y-29004180D01*
X49610812Y-28884482D01*
X49623072Y-28760000D01*
X49620000Y-28545750D01*
X49461250Y-28387000D01*
X48387000Y-28387000D01*
X48387000Y-28407000D01*
X48133000Y-28407000D01*
X48133000Y-28387000D01*
X47058750Y-28387000D01*
X46900000Y-28545750D01*
X46896928Y-28760000D01*
X46909188Y-28884482D01*
X46945498Y-29004180D01*
X47004463Y-29114494D01*
X47083815Y-29211185D01*
X47163594Y-29276658D01*
X47157038Y-29282038D01*
X47046595Y-29416614D01*
X46964528Y-29570150D01*
X46913992Y-29736746D01*
X46896928Y-29910000D01*
X46896928Y-30410000D01*
X46913992Y-30583254D01*
X46964528Y-30749850D01*
X47046595Y-30903386D01*
X47125000Y-30998923D01*
X47125000Y-31377000D01*
X44089683Y-31377000D01*
X44052537Y-31307506D01*
X43973185Y-31210815D01*
X43876494Y-31131463D01*
X43766180Y-31072498D01*
X43646482Y-31036188D01*
X43522000Y-31023928D01*
X41822000Y-31023928D01*
X41697518Y-31036188D01*
X41577820Y-31072498D01*
X41467506Y-31131463D01*
X41370815Y-31210815D01*
X41291463Y-31307506D01*
X41232498Y-31417820D01*
X41196188Y-31537518D01*
X41183928Y-31662000D01*
X41183928Y-33362000D01*
X41196188Y-33486482D01*
X41232498Y-33606180D01*
X41291463Y-33716494D01*
X41370815Y-33813185D01*
X41467506Y-33892537D01*
X41577820Y-33951502D01*
X41658466Y-33975966D01*
X41574412Y-34051731D01*
X41400359Y-34285080D01*
X41275175Y-34547901D01*
X41230524Y-34695110D01*
X41351845Y-34925000D01*
X42545000Y-34925000D01*
X42545000Y-34905000D01*
X42799000Y-34905000D01*
X42799000Y-34925000D01*
X43992155Y-34925000D01*
X44113476Y-34695110D01*
X44068825Y-34547901D01*
X43943641Y-34285080D01*
X43769588Y-34051731D01*
X43685534Y-33975966D01*
X43766180Y-33951502D01*
X43876494Y-33892537D01*
X43973185Y-33813185D01*
X44052537Y-33716494D01*
X44089683Y-33647000D01*
X47696249Y-33647000D01*
X47752000Y-33652491D01*
X47807751Y-33647000D01*
X50833816Y-33647000D01*
X50799528Y-33711148D01*
X50748992Y-33877744D01*
X50731928Y-34050998D01*
X50731928Y-34576002D01*
X50748992Y-34749256D01*
X50799528Y-34915852D01*
X50881595Y-35069387D01*
X50992038Y-35203962D01*
X51060001Y-35259737D01*
X51060001Y-36145383D01*
X51055114Y-36195000D01*
X51060000Y-36244608D01*
X51060000Y-37003263D01*
X50992038Y-37059038D01*
X50881595Y-37193613D01*
X50799528Y-37347148D01*
X50748992Y-37513744D01*
X50731928Y-37686998D01*
X50731928Y-38212002D01*
X50748992Y-38385256D01*
X50799528Y-38551852D01*
X50881595Y-38705387D01*
X50948276Y-38786637D01*
X50918815Y-38810815D01*
X50839463Y-38907506D01*
X50780498Y-39017820D01*
X50744188Y-39137518D01*
X50731928Y-39262000D01*
X50735000Y-39488750D01*
X50893750Y-39647500D01*
X51943000Y-39647500D01*
X51943000Y-39627500D01*
X52197000Y-39627500D01*
X52197000Y-39647500D01*
X53246250Y-39647500D01*
X53405000Y-39488750D01*
X53408072Y-39262000D01*
X53395812Y-39137518D01*
X53359502Y-39017820D01*
X53300537Y-38907506D01*
X53221185Y-38810815D01*
X53191724Y-38786637D01*
X53258405Y-38705387D01*
X53340472Y-38551852D01*
X53345887Y-38534000D01*
X56802928Y-38534000D01*
X56815188Y-38658482D01*
X56851498Y-38778180D01*
X56910463Y-38888494D01*
X56989815Y-38985185D01*
X57086506Y-39064537D01*
X57196820Y-39123502D01*
X57316518Y-39159812D01*
X57441000Y-39172072D01*
X57880250Y-39169000D01*
X58039000Y-39010250D01*
X58039000Y-38161000D01*
X58293000Y-38161000D01*
X58293000Y-39010250D01*
X58451750Y-39169000D01*
X58891000Y-39172072D01*
X59015482Y-39159812D01*
X59135180Y-39123502D01*
X59245494Y-39064537D01*
X59342185Y-38985185D01*
X59421537Y-38888494D01*
X59480502Y-38778180D01*
X59516812Y-38658482D01*
X59529072Y-38534000D01*
X59526000Y-38319750D01*
X59367250Y-38161000D01*
X58293000Y-38161000D01*
X58039000Y-38161000D01*
X56964750Y-38161000D01*
X56806000Y-38319750D01*
X56802928Y-38534000D01*
X53345887Y-38534000D01*
X53391008Y-38385256D01*
X53408072Y-38212002D01*
X53408072Y-37686998D01*
X53391008Y-37513744D01*
X53340472Y-37347148D01*
X53264492Y-37205000D01*
X56896836Y-37205000D01*
X56851498Y-37289820D01*
X56815188Y-37409518D01*
X56802928Y-37534000D01*
X56806000Y-37748250D01*
X56964750Y-37907000D01*
X58039000Y-37907000D01*
X58039000Y-37887000D01*
X58293000Y-37887000D01*
X58293000Y-37907000D01*
X59367250Y-37907000D01*
X59526000Y-37748250D01*
X59529072Y-37534000D01*
X59516812Y-37409518D01*
X59480502Y-37289820D01*
X59435164Y-37205000D01*
X60249869Y-37205000D01*
X60196864Y-37258005D01*
X60153551Y-37293551D01*
X60011716Y-37466377D01*
X59944570Y-37592000D01*
X59906324Y-37663554D01*
X59841423Y-37877502D01*
X59819509Y-38100000D01*
X59825000Y-38155752D01*
X59825001Y-45932248D01*
X59762613Y-45965595D01*
X59628038Y-46076038D01*
X59517595Y-46210613D01*
X59435528Y-46364148D01*
X59384992Y-46530744D01*
X59367928Y-46703998D01*
X59367928Y-47229002D01*
X59384992Y-47402256D01*
X59435528Y-47568852D01*
X59517595Y-47722387D01*
X59628038Y-47856962D01*
X59654891Y-47879000D01*
X59628038Y-47901038D01*
X59517595Y-48035613D01*
X59435528Y-48189148D01*
X59384992Y-48355744D01*
X59367928Y-48528998D01*
X59367928Y-49054002D01*
X59384992Y-49227256D01*
X59402205Y-49284000D01*
X58509132Y-49284000D01*
X55575996Y-46350865D01*
X55540449Y-46307551D01*
X55367623Y-46165716D01*
X55170447Y-46060324D01*
X54956499Y-45995423D01*
X54789752Y-45979000D01*
X54789751Y-45979000D01*
X54734000Y-45973509D01*
X54678249Y-45979000D01*
X53008248Y-45979000D01*
X52841501Y-45995423D01*
X52627553Y-46060324D01*
X52598360Y-46075928D01*
X52539000Y-46075928D01*
X52414518Y-46088188D01*
X52294820Y-46124498D01*
X52184506Y-46183463D01*
X52087815Y-46262815D01*
X52008463Y-46359506D01*
X51949498Y-46469820D01*
X51913188Y-46589518D01*
X51900928Y-46714000D01*
X51900928Y-47514000D01*
X51913188Y-47638482D01*
X51949498Y-47758180D01*
X51979335Y-47814000D01*
X51949498Y-47869820D01*
X51913188Y-47989518D01*
X51900928Y-48114000D01*
X51904000Y-48228250D01*
X52062750Y-48387000D01*
X52937000Y-48387000D01*
X52937000Y-48367000D01*
X53191000Y-48367000D01*
X53191000Y-48387000D01*
X54065250Y-48387000D01*
X54203250Y-48249000D01*
X54263869Y-48249000D01*
X56433868Y-50419000D01*
X53504869Y-53348000D01*
X53398961Y-53348000D01*
X53333887Y-53294595D01*
X53180352Y-53212528D01*
X53013756Y-53161992D01*
X52840502Y-53144928D01*
X52315498Y-53144928D01*
X52142244Y-53161992D01*
X51975648Y-53212528D01*
X51822113Y-53294595D01*
X51687538Y-53405038D01*
X51665500Y-53431891D01*
X51643462Y-53405038D01*
X51508887Y-53294595D01*
X51355352Y-53212528D01*
X51188756Y-53161992D01*
X51015502Y-53144928D01*
X50490498Y-53144928D01*
X50317244Y-53161992D01*
X50150648Y-53212528D01*
X49997113Y-53294595D01*
X49932039Y-53348000D01*
X48349132Y-53348000D01*
X45483631Y-50482500D01*
X47052131Y-48914000D01*
X49450928Y-48914000D01*
X49463188Y-49038482D01*
X49499498Y-49158180D01*
X49529335Y-49214000D01*
X49499498Y-49269820D01*
X49463188Y-49389518D01*
X49450928Y-49514000D01*
X49450928Y-50314000D01*
X49463188Y-50438482D01*
X49499498Y-50558180D01*
X49558463Y-50668494D01*
X49637815Y-50765185D01*
X49734506Y-50844537D01*
X49844820Y-50903502D01*
X49964518Y-50939812D01*
X50089000Y-50952072D01*
X51139000Y-50952072D01*
X51263482Y-50939812D01*
X51383180Y-50903502D01*
X51493494Y-50844537D01*
X51590185Y-50765185D01*
X51669537Y-50668494D01*
X51728502Y-50558180D01*
X51764812Y-50438482D01*
X51777072Y-50314000D01*
X51777072Y-49514000D01*
X51764812Y-49389518D01*
X51728502Y-49269820D01*
X51698665Y-49214000D01*
X51728502Y-49158180D01*
X51764812Y-49038482D01*
X51777072Y-48914000D01*
X51900928Y-48914000D01*
X51913188Y-49038482D01*
X51949498Y-49158180D01*
X51979335Y-49214000D01*
X51949498Y-49269820D01*
X51913188Y-49389518D01*
X51900928Y-49514000D01*
X51900928Y-50314000D01*
X51913188Y-50438482D01*
X51949498Y-50558180D01*
X52008463Y-50668494D01*
X52087815Y-50765185D01*
X52184506Y-50844537D01*
X52294820Y-50903502D01*
X52414518Y-50939812D01*
X52539000Y-50952072D01*
X53589000Y-50952072D01*
X53713482Y-50939812D01*
X53833180Y-50903502D01*
X53943494Y-50844537D01*
X54040185Y-50765185D01*
X54119537Y-50668494D01*
X54178502Y-50558180D01*
X54214812Y-50438482D01*
X54227072Y-50314000D01*
X54227072Y-49514000D01*
X54214812Y-49389518D01*
X54178502Y-49269820D01*
X54148665Y-49214000D01*
X54178502Y-49158180D01*
X54214812Y-49038482D01*
X54227072Y-48914000D01*
X54224000Y-48799750D01*
X54065250Y-48641000D01*
X53191000Y-48641000D01*
X53191000Y-48661000D01*
X52937000Y-48661000D01*
X52937000Y-48641000D01*
X52062750Y-48641000D01*
X51904000Y-48799750D01*
X51900928Y-48914000D01*
X51777072Y-48914000D01*
X51774000Y-48799750D01*
X51615250Y-48641000D01*
X50741000Y-48641000D01*
X50741000Y-48661000D01*
X50487000Y-48661000D01*
X50487000Y-48641000D01*
X49612750Y-48641000D01*
X49454000Y-48799750D01*
X49450928Y-48914000D01*
X47052131Y-48914000D01*
X47714132Y-48252000D01*
X49477750Y-48252000D01*
X49612750Y-48387000D01*
X50487000Y-48387000D01*
X50487000Y-48367000D01*
X50741000Y-48367000D01*
X50741000Y-48387000D01*
X51615250Y-48387000D01*
X51774000Y-48228250D01*
X51777072Y-48114000D01*
X51764812Y-47989518D01*
X51728502Y-47869820D01*
X51698665Y-47814000D01*
X51728502Y-47758180D01*
X51764812Y-47638482D01*
X51777072Y-47514000D01*
X51777072Y-47387315D01*
X51791577Y-47339499D01*
X51813491Y-47117000D01*
X51791577Y-46894501D01*
X51777072Y-46846685D01*
X51777072Y-46714000D01*
X51764812Y-46589518D01*
X51728502Y-46469820D01*
X51669537Y-46359506D01*
X51590185Y-46262815D01*
X51493494Y-46183463D01*
X51383180Y-46124498D01*
X51263482Y-46088188D01*
X51139000Y-46075928D01*
X51133028Y-46075928D01*
X51109447Y-46063324D01*
X50895499Y-45998423D01*
X50728752Y-45982000D01*
X47299741Y-45982000D01*
X47243999Y-45976510D01*
X47188257Y-45982000D01*
X47188248Y-45982000D01*
X47021501Y-45998423D01*
X46807553Y-46063324D01*
X46610377Y-46168716D01*
X46437551Y-46310551D01*
X46402011Y-46353857D01*
X43344869Y-49411000D01*
X37751704Y-49411000D01*
X37714494Y-49380463D01*
X37604180Y-49321498D01*
X37484482Y-49285188D01*
X37360000Y-49272928D01*
X33760000Y-49272928D01*
X33680000Y-49280807D01*
X33680000Y-49234038D01*
X35474250Y-49231000D01*
X35633000Y-49072250D01*
X35633000Y-47848000D01*
X35887000Y-47848000D01*
X35887000Y-49072250D01*
X36045750Y-49231000D01*
X37860000Y-49234072D01*
X37984482Y-49221812D01*
X38104180Y-49185502D01*
X38214494Y-49126537D01*
X38311185Y-49047185D01*
X38390537Y-48950494D01*
X38449502Y-48840180D01*
X38485812Y-48720482D01*
X38498072Y-48596000D01*
X38495000Y-48006750D01*
X38336250Y-47848000D01*
X35887000Y-47848000D01*
X35633000Y-47848000D01*
X35613000Y-47848000D01*
X35613000Y-47594000D01*
X35633000Y-47594000D01*
X35633000Y-46369750D01*
X35887000Y-46369750D01*
X35887000Y-47594000D01*
X38336250Y-47594000D01*
X38495000Y-47435250D01*
X38498072Y-46846000D01*
X38485812Y-46721518D01*
X38449502Y-46601820D01*
X38390537Y-46491506D01*
X38311185Y-46394815D01*
X38214494Y-46315463D01*
X38104180Y-46256498D01*
X37984482Y-46220188D01*
X37860000Y-46207928D01*
X36045750Y-46211000D01*
X35887000Y-46369750D01*
X35633000Y-46369750D01*
X35474250Y-46211000D01*
X33680000Y-46207962D01*
X33680000Y-40287000D01*
X50731928Y-40287000D01*
X50744188Y-40411482D01*
X50780498Y-40531180D01*
X50839463Y-40641494D01*
X50918815Y-40738185D01*
X51015506Y-40817537D01*
X51125820Y-40876502D01*
X51245518Y-40912812D01*
X51370000Y-40925072D01*
X51784250Y-40922000D01*
X51943000Y-40763250D01*
X51943000Y-39901500D01*
X52197000Y-39901500D01*
X52197000Y-40763250D01*
X52355750Y-40922000D01*
X52770000Y-40925072D01*
X52894482Y-40912812D01*
X53014180Y-40876502D01*
X53124494Y-40817537D01*
X53221185Y-40738185D01*
X53300537Y-40641494D01*
X53359502Y-40531180D01*
X53395812Y-40411482D01*
X53408072Y-40287000D01*
X53405000Y-40060250D01*
X53246250Y-39901500D01*
X52197000Y-39901500D01*
X51943000Y-39901500D01*
X50893750Y-39901500D01*
X50735000Y-40060250D01*
X50731928Y-40287000D01*
X33680000Y-40287000D01*
X33680000Y-35408890D01*
X41230524Y-35408890D01*
X41275175Y-35556099D01*
X41400359Y-35818920D01*
X41574412Y-36052269D01*
X41790645Y-36247178D01*
X42040748Y-36396157D01*
X42315109Y-36493481D01*
X42545000Y-36372814D01*
X42545000Y-35179000D01*
X42799000Y-35179000D01*
X42799000Y-36372814D01*
X43028891Y-36493481D01*
X43303252Y-36396157D01*
X43553355Y-36247178D01*
X43769588Y-36052269D01*
X43943641Y-35818920D01*
X44068825Y-35556099D01*
X44113476Y-35408890D01*
X43992155Y-35179000D01*
X42799000Y-35179000D01*
X42545000Y-35179000D01*
X41351845Y-35179000D01*
X41230524Y-35408890D01*
X33680000Y-35408890D01*
X33680000Y-27760000D01*
X46896928Y-27760000D01*
X46900000Y-27974250D01*
X47058750Y-28133000D01*
X48133000Y-28133000D01*
X48133000Y-27283750D01*
X48387000Y-27283750D01*
X48387000Y-28133000D01*
X49461250Y-28133000D01*
X49620000Y-27974250D01*
X49623072Y-27760000D01*
X49610812Y-27635518D01*
X49574502Y-27515820D01*
X49515537Y-27405506D01*
X49436185Y-27308815D01*
X49339494Y-27229463D01*
X49229180Y-27170498D01*
X49109482Y-27134188D01*
X48985000Y-27121928D01*
X48545750Y-27125000D01*
X48387000Y-27283750D01*
X48133000Y-27283750D01*
X47974250Y-27125000D01*
X47535000Y-27121928D01*
X47410518Y-27134188D01*
X47290820Y-27170498D01*
X47180506Y-27229463D01*
X47083815Y-27308815D01*
X47004463Y-27405506D01*
X46945498Y-27515820D01*
X46909188Y-27635518D01*
X46896928Y-27760000D01*
X33680000Y-27760000D01*
X33680000Y-26702279D01*
X33694722Y-26552131D01*
X33728953Y-26438754D01*
X33784555Y-26334181D01*
X33859407Y-26242404D01*
X33950664Y-26166909D01*
X34054844Y-26110581D01*
X34167976Y-26075560D01*
X34316022Y-26060000D01*
X90137721Y-26060000D01*
X90287869Y-26074722D01*
%TA.AperFunction,Conductor*%
D23*
G36*
X90287869Y-26074722D02*
G01*
X90401246Y-26108953D01*
X90505819Y-26164555D01*
X90597596Y-26239407D01*
X90673091Y-26330664D01*
X90729419Y-26434844D01*
X90764440Y-26547976D01*
X90780114Y-26697107D01*
X90855119Y-43673357D01*
X90800000Y-43667928D01*
X88985750Y-43671000D01*
X88827000Y-43829750D01*
X88827000Y-45054000D01*
X88847000Y-45054000D01*
X88847000Y-45308000D01*
X88827000Y-45308000D01*
X88827000Y-46532250D01*
X88985750Y-46691000D01*
X90800000Y-46694072D01*
X90868436Y-46687332D01*
X90868751Y-46758617D01*
X90824482Y-46745188D01*
X90700000Y-46732928D01*
X87100000Y-46732928D01*
X86975518Y-46745188D01*
X86855820Y-46781498D01*
X86745506Y-46840463D01*
X86708296Y-46871000D01*
X85717000Y-46871000D01*
X85717000Y-46056000D01*
X85961928Y-46056000D01*
X85974188Y-46180482D01*
X86010498Y-46300180D01*
X86069463Y-46410494D01*
X86148815Y-46507185D01*
X86245506Y-46586537D01*
X86355820Y-46645502D01*
X86475518Y-46681812D01*
X86600000Y-46694072D01*
X88414250Y-46691000D01*
X88573000Y-46532250D01*
X88573000Y-45308000D01*
X86123750Y-45308000D01*
X85965000Y-45466750D01*
X85961928Y-46056000D01*
X85717000Y-46056000D01*
X85717000Y-44306000D01*
X85961928Y-44306000D01*
X85965000Y-44895250D01*
X86123750Y-45054000D01*
X88573000Y-45054000D01*
X88573000Y-43829750D01*
X88414250Y-43671000D01*
X86600000Y-43667928D01*
X86475518Y-43680188D01*
X86355820Y-43716498D01*
X86245506Y-43775463D01*
X86148815Y-43854815D01*
X86069463Y-43951506D01*
X86010498Y-44061820D01*
X85974188Y-44181518D01*
X85961928Y-44306000D01*
X85717000Y-44306000D01*
X85717000Y-43142131D01*
X86223060Y-42636072D01*
X86956000Y-42636072D01*
X87080482Y-42623812D01*
X87200180Y-42587502D01*
X87310494Y-42528537D01*
X87407185Y-42449185D01*
X87486537Y-42352494D01*
X87545502Y-42242180D01*
X87581812Y-42122482D01*
X87594072Y-41998000D01*
X87594072Y-40298000D01*
X87581812Y-40173518D01*
X87545502Y-40053820D01*
X87486537Y-39943506D01*
X87407185Y-39846815D01*
X87310494Y-39767463D01*
X87200180Y-39708498D01*
X87119534Y-39684034D01*
X87203588Y-39608269D01*
X87377641Y-39374920D01*
X87502825Y-39112099D01*
X87547476Y-38964890D01*
X87426155Y-38735000D01*
X86233000Y-38735000D01*
X86233000Y-38755000D01*
X85979000Y-38755000D01*
X85979000Y-38735000D01*
X84785845Y-38735000D01*
X84664524Y-38964890D01*
X84709175Y-39112099D01*
X84834359Y-39374920D01*
X85008412Y-39608269D01*
X85092466Y-39684034D01*
X85011820Y-39708498D01*
X84901506Y-39767463D01*
X84804815Y-39846815D01*
X84725463Y-39943506D01*
X84666498Y-40053820D01*
X84630188Y-40173518D01*
X84617928Y-40298000D01*
X84617928Y-41030940D01*
X83818860Y-41830009D01*
X83775552Y-41865551D01*
X83633717Y-42038377D01*
X83588762Y-42122482D01*
X83528324Y-42235554D01*
X83463423Y-42449502D01*
X83441509Y-42672000D01*
X83447001Y-42727761D01*
X83447000Y-46773868D01*
X83349869Y-46871000D01*
X82802095Y-46871000D01*
X82848502Y-46784180D01*
X82884812Y-46664482D01*
X82897072Y-46540000D01*
X82894000Y-46325750D01*
X82735250Y-46167000D01*
X81661000Y-46167000D01*
X81661000Y-46187000D01*
X81407000Y-46187000D01*
X81407000Y-46167000D01*
X80332750Y-46167000D01*
X80174000Y-46325750D01*
X80170928Y-46540000D01*
X80183188Y-46664482D01*
X80214438Y-46767500D01*
X78947623Y-46767500D01*
X78994472Y-46679852D01*
X79045008Y-46513256D01*
X79062072Y-46340002D01*
X79062072Y-45814998D01*
X79045008Y-45641744D01*
X79014145Y-45540000D01*
X80170928Y-45540000D01*
X80174000Y-45754250D01*
X80332750Y-45913000D01*
X81407000Y-45913000D01*
X81407000Y-45063750D01*
X81661000Y-45063750D01*
X81661000Y-45913000D01*
X82735250Y-45913000D01*
X82894000Y-45754250D01*
X82897072Y-45540000D01*
X82884812Y-45415518D01*
X82848502Y-45295820D01*
X82789537Y-45185506D01*
X82710185Y-45088815D01*
X82613494Y-45009463D01*
X82503180Y-44950498D01*
X82383482Y-44914188D01*
X82259000Y-44901928D01*
X81819750Y-44905000D01*
X81661000Y-45063750D01*
X81407000Y-45063750D01*
X81248250Y-44905000D01*
X80809000Y-44901928D01*
X80684518Y-44914188D01*
X80564820Y-44950498D01*
X80454506Y-45009463D01*
X80357815Y-45088815D01*
X80278463Y-45185506D01*
X80219498Y-45295820D01*
X80183188Y-45415518D01*
X80170928Y-45540000D01*
X79014145Y-45540000D01*
X78994472Y-45475148D01*
X78912405Y-45321613D01*
X78801962Y-45187038D01*
X78667387Y-45076595D01*
X78513852Y-44994528D01*
X78347256Y-44943992D01*
X78293865Y-44938733D01*
X77712203Y-44357072D01*
X78024000Y-44357072D01*
X78148482Y-44344812D01*
X78268180Y-44308502D01*
X78359000Y-44259957D01*
X78449820Y-44308502D01*
X78569518Y-44344812D01*
X78694000Y-44357072D01*
X79294000Y-44357072D01*
X79418482Y-44344812D01*
X79538180Y-44308502D01*
X79629000Y-44259957D01*
X79719820Y-44308502D01*
X79839518Y-44344812D01*
X79964000Y-44357072D01*
X80564000Y-44357072D01*
X80688482Y-44344812D01*
X80808180Y-44308502D01*
X80899000Y-44259957D01*
X80989820Y-44308502D01*
X81109518Y-44344812D01*
X81234000Y-44357072D01*
X81248250Y-44354000D01*
X81407000Y-44195250D01*
X81407000Y-42861000D01*
X81661000Y-42861000D01*
X81661000Y-44195250D01*
X81819750Y-44354000D01*
X81834000Y-44357072D01*
X81958482Y-44344812D01*
X82078180Y-44308502D01*
X82188494Y-44249537D01*
X82285185Y-44170185D01*
X82364537Y-44073494D01*
X82423502Y-43963180D01*
X82459812Y-43843482D01*
X82472072Y-43719000D01*
X82469000Y-43019750D01*
X82310250Y-42861000D01*
X81661000Y-42861000D01*
X81407000Y-42861000D01*
X81387000Y-42861000D01*
X81387000Y-42607000D01*
X81407000Y-42607000D01*
X81407000Y-41272750D01*
X81661000Y-41272750D01*
X81661000Y-42607000D01*
X82310250Y-42607000D01*
X82469000Y-42448250D01*
X82472072Y-41749000D01*
X82459812Y-41624518D01*
X82423502Y-41504820D01*
X82364537Y-41394506D01*
X82285185Y-41297815D01*
X82188494Y-41218463D01*
X82078180Y-41159498D01*
X81958482Y-41123188D01*
X81834000Y-41110928D01*
X81819750Y-41114000D01*
X81661000Y-41272750D01*
X81407000Y-41272750D01*
X81248250Y-41114000D01*
X81234000Y-41110928D01*
X81109518Y-41123188D01*
X80989820Y-41159498D01*
X80899000Y-41208043D01*
X80808180Y-41159498D01*
X80688482Y-41123188D01*
X80564000Y-41110928D01*
X79964000Y-41110928D01*
X79839518Y-41123188D01*
X79719820Y-41159498D01*
X79629000Y-41208043D01*
X79538180Y-41159498D01*
X79418482Y-41123188D01*
X79294000Y-41110928D01*
X78694000Y-41110928D01*
X78569518Y-41123188D01*
X78449820Y-41159498D01*
X78359000Y-41208043D01*
X78268180Y-41159498D01*
X78148482Y-41123188D01*
X78024000Y-41110928D01*
X77424000Y-41110928D01*
X77299518Y-41123188D01*
X77179820Y-41159498D01*
X77089000Y-41208043D01*
X76998180Y-41159498D01*
X76878482Y-41123188D01*
X76754000Y-41110928D01*
X76154000Y-41110928D01*
X76029518Y-41123188D01*
X75909820Y-41159498D01*
X75819000Y-41208043D01*
X75728180Y-41159498D01*
X75608482Y-41123188D01*
X75484000Y-41110928D01*
X74884000Y-41110928D01*
X74759518Y-41123188D01*
X74639820Y-41159498D01*
X74549000Y-41208043D01*
X74458180Y-41159498D01*
X74338482Y-41123188D01*
X74214000Y-41110928D01*
X73614000Y-41110928D01*
X73489518Y-41123188D01*
X73369820Y-41159498D01*
X73259506Y-41218463D01*
X73162815Y-41297815D01*
X73083463Y-41394506D01*
X73024498Y-41504820D01*
X72988188Y-41624518D01*
X72975928Y-41749000D01*
X72975928Y-42138285D01*
X72954368Y-42178621D01*
X72896615Y-42369006D01*
X72877114Y-42567000D01*
X72882001Y-42616618D01*
X72882000Y-46327960D01*
X72880256Y-46326795D01*
X72691898Y-46248774D01*
X72491939Y-46209000D01*
X72288061Y-46209000D01*
X72088102Y-46248774D01*
X71899744Y-46326795D01*
X71730226Y-46440063D01*
X71586063Y-46584226D01*
X71472795Y-46753744D01*
X71394774Y-46942102D01*
X71383465Y-46998956D01*
X71233504Y-47148918D01*
X71216185Y-47127815D01*
X71119494Y-47048463D01*
X71009180Y-46989498D01*
X70889482Y-46953188D01*
X70765000Y-46940928D01*
X70065750Y-46944000D01*
X69907000Y-47102750D01*
X69907000Y-47752000D01*
X69927000Y-47752000D01*
X69927000Y-48006000D01*
X69907000Y-48006000D01*
X69907000Y-48026000D01*
X69653000Y-48026000D01*
X69653000Y-48006000D01*
X69633000Y-48006000D01*
X69633000Y-47752000D01*
X69653000Y-47752000D01*
X69653000Y-47102750D01*
X69494250Y-46944000D01*
X69342797Y-46943335D01*
X72137146Y-44148987D01*
X72180449Y-44113449D01*
X72322284Y-43940623D01*
X72427676Y-43743447D01*
X72492577Y-43529499D01*
X72509000Y-43362752D01*
X72514491Y-43307000D01*
X72509000Y-43251248D01*
X72509000Y-37808131D01*
X72975928Y-37341203D01*
X72975928Y-38769000D01*
X72988188Y-38893482D01*
X73024498Y-39013180D01*
X73083463Y-39123494D01*
X73162815Y-39220185D01*
X73259506Y-39299537D01*
X73369820Y-39358502D01*
X73489518Y-39394812D01*
X73614000Y-39407072D01*
X74214000Y-39407072D01*
X74338482Y-39394812D01*
X74458180Y-39358502D01*
X74549000Y-39309957D01*
X74639820Y-39358502D01*
X74759518Y-39394812D01*
X74884000Y-39407072D01*
X75484000Y-39407072D01*
X75608482Y-39394812D01*
X75728180Y-39358502D01*
X75819000Y-39309957D01*
X75909820Y-39358502D01*
X76029518Y-39394812D01*
X76154000Y-39407072D01*
X76754000Y-39407072D01*
X76878482Y-39394812D01*
X76998180Y-39358502D01*
X77089000Y-39309957D01*
X77179820Y-39358502D01*
X77299518Y-39394812D01*
X77424000Y-39407072D01*
X78024000Y-39407072D01*
X78148482Y-39394812D01*
X78268180Y-39358502D01*
X78359000Y-39309957D01*
X78449820Y-39358502D01*
X78569518Y-39394812D01*
X78694000Y-39407072D01*
X79294000Y-39407072D01*
X79418482Y-39394812D01*
X79538180Y-39358502D01*
X79629000Y-39309957D01*
X79719820Y-39358502D01*
X79839518Y-39394812D01*
X79964000Y-39407072D01*
X80564000Y-39407072D01*
X80688482Y-39394812D01*
X80808180Y-39358502D01*
X80899000Y-39309957D01*
X80989820Y-39358502D01*
X81109518Y-39394812D01*
X81234000Y-39407072D01*
X81834000Y-39407072D01*
X81958482Y-39394812D01*
X82078180Y-39358502D01*
X82188494Y-39299537D01*
X82285185Y-39220185D01*
X82364537Y-39123494D01*
X82423502Y-39013180D01*
X82459812Y-38893482D01*
X82472072Y-38769000D01*
X82472072Y-38251110D01*
X84664524Y-38251110D01*
X84785845Y-38481000D01*
X85979000Y-38481000D01*
X85979000Y-37287186D01*
X86233000Y-37287186D01*
X86233000Y-38481000D01*
X87426155Y-38481000D01*
X87547476Y-38251110D01*
X87502825Y-38103901D01*
X87377641Y-37841080D01*
X87203588Y-37607731D01*
X86987355Y-37412822D01*
X86737252Y-37263843D01*
X86462891Y-37166519D01*
X86233000Y-37287186D01*
X85979000Y-37287186D01*
X85749109Y-37166519D01*
X85474748Y-37263843D01*
X85224645Y-37412822D01*
X85008412Y-37607731D01*
X84834359Y-37841080D01*
X84709175Y-38103901D01*
X84664524Y-38251110D01*
X82472072Y-38251110D01*
X82472072Y-36799000D01*
X82459812Y-36674518D01*
X82423502Y-36554820D01*
X82364537Y-36444506D01*
X82285185Y-36347815D01*
X82188494Y-36268463D01*
X82078180Y-36209498D01*
X81958482Y-36173188D01*
X81834000Y-36160928D01*
X81234000Y-36160928D01*
X81109518Y-36173188D01*
X80989820Y-36209498D01*
X80899000Y-36258043D01*
X80808180Y-36209498D01*
X80688482Y-36173188D01*
X80564000Y-36160928D01*
X79964000Y-36160928D01*
X79839518Y-36173188D01*
X79719820Y-36209498D01*
X79629000Y-36258043D01*
X79538180Y-36209498D01*
X79418482Y-36173188D01*
X79294000Y-36160928D01*
X78694000Y-36160928D01*
X78569518Y-36173188D01*
X78449820Y-36209498D01*
X78359000Y-36258043D01*
X78268180Y-36209498D01*
X78148482Y-36173188D01*
X78024000Y-36160928D01*
X77424000Y-36160928D01*
X77299518Y-36173188D01*
X77179820Y-36209498D01*
X77089000Y-36258043D01*
X76998180Y-36209498D01*
X76878482Y-36173188D01*
X76787080Y-36164186D01*
X76863205Y-36050256D01*
X76941226Y-35861898D01*
X76981000Y-35661939D01*
X76981000Y-35458061D01*
X76941226Y-35258102D01*
X76863205Y-35069744D01*
X76749937Y-34900226D01*
X76605774Y-34756063D01*
X76436256Y-34642795D01*
X76247898Y-34564774D01*
X76047939Y-34525000D01*
X75844061Y-34525000D01*
X75779239Y-34537894D01*
X75947146Y-34369987D01*
X75990449Y-34334449D01*
X76030966Y-34285080D01*
X76132284Y-34161623D01*
X76237676Y-33964447D01*
X76302577Y-33750499D01*
X76312771Y-33647000D01*
X76319000Y-33583752D01*
X76324491Y-33528000D01*
X76319000Y-33472248D01*
X76319000Y-30281752D01*
X76324491Y-30226000D01*
X76313552Y-30114928D01*
X76302577Y-30003501D01*
X76237676Y-29789553D01*
X76132284Y-29592377D01*
X75990449Y-29419551D01*
X75947140Y-29384008D01*
X75202995Y-28639864D01*
X75167449Y-28596551D01*
X74994623Y-28454716D01*
X74797447Y-28349324D01*
X74583499Y-28284423D01*
X74416752Y-28268000D01*
X74416751Y-28268000D01*
X74361000Y-28262509D01*
X74305249Y-28268000D01*
X73150191Y-28268000D01*
X73119000Y-28264928D01*
X72169000Y-28264928D01*
X71995746Y-28281992D01*
X71918250Y-28305500D01*
X69305750Y-28305500D01*
X69228254Y-28281992D01*
X69055000Y-28264928D01*
X68105000Y-28264928D01*
X67931746Y-28281992D01*
X67854250Y-28305500D01*
X64489107Y-28305500D01*
X64331002Y-28289928D01*
X63430998Y-28289928D01*
X63257744Y-28306992D01*
X63091148Y-28357528D01*
X62937613Y-28439595D01*
X62803038Y-28550038D01*
X62692595Y-28684613D01*
X62610528Y-28838148D01*
X62559992Y-29004744D01*
X62542928Y-29177998D01*
X62542928Y-29703002D01*
X62559992Y-29876256D01*
X62610528Y-30042852D01*
X62692595Y-30196387D01*
X62803038Y-30330962D01*
X62829891Y-30353000D01*
X62803038Y-30375038D01*
X62692595Y-30509613D01*
X62610528Y-30663148D01*
X62559992Y-30829744D01*
X62542928Y-31002998D01*
X62542928Y-31528002D01*
X62559992Y-31701256D01*
X62610528Y-31867852D01*
X62692595Y-32021387D01*
X62803038Y-32155962D01*
X62934001Y-32263440D01*
X62934000Y-32716928D01*
X62834000Y-32716928D01*
X62709518Y-32729188D01*
X62589820Y-32765498D01*
X62581397Y-32770000D01*
X61961579Y-32770000D01*
X60069034Y-30877456D01*
X60041317Y-30843683D01*
X59906559Y-30733089D01*
X59752813Y-30650911D01*
X59585990Y-30600305D01*
X59455977Y-30587500D01*
X59455969Y-30587500D01*
X59412500Y-30583219D01*
X59369031Y-30587500D01*
X59121445Y-30587500D01*
X59116962Y-30582038D01*
X58982387Y-30471595D01*
X58828852Y-30389528D01*
X58662256Y-30338992D01*
X58489002Y-30321928D01*
X57588998Y-30321928D01*
X57415744Y-30338992D01*
X57249148Y-30389528D01*
X57095613Y-30471595D01*
X56961038Y-30582038D01*
X56850595Y-30716613D01*
X56768528Y-30870148D01*
X56717992Y-31036744D01*
X56700928Y-31209998D01*
X56700928Y-31735002D01*
X56717992Y-31908256D01*
X56768528Y-32074852D01*
X56850595Y-32228387D01*
X56961038Y-32362962D01*
X56987891Y-32385000D01*
X56961038Y-32407038D01*
X56850595Y-32541613D01*
X56768528Y-32695148D01*
X56717992Y-32861744D01*
X56700928Y-33034998D01*
X56700928Y-33560002D01*
X56717992Y-33733256D01*
X56768528Y-33899852D01*
X56850595Y-34053387D01*
X56961038Y-34187962D01*
X57095613Y-34298405D01*
X57249148Y-34380472D01*
X57415744Y-34431008D01*
X57588998Y-34448072D01*
X57834494Y-34448072D01*
X58382349Y-34995928D01*
X57691000Y-34995928D01*
X57517746Y-35012992D01*
X57351150Y-35063528D01*
X57197614Y-35145595D01*
X57149599Y-35185000D01*
X53163524Y-35185000D01*
X53258405Y-35069387D01*
X53340472Y-34915852D01*
X53391008Y-34749256D01*
X53408072Y-34576002D01*
X53408072Y-34050998D01*
X53391008Y-33877744D01*
X53340472Y-33711148D01*
X53258405Y-33557613D01*
X53147962Y-33423038D01*
X53121109Y-33401000D01*
X53147962Y-33378962D01*
X53258405Y-33244387D01*
X53340472Y-33090852D01*
X53391008Y-32924256D01*
X53408072Y-32751002D01*
X53408072Y-32225998D01*
X53391008Y-32052744D01*
X53340472Y-31886148D01*
X53258405Y-31732613D01*
X53147962Y-31598038D01*
X53013387Y-31487595D01*
X52859852Y-31405528D01*
X52693256Y-31354992D01*
X52674216Y-31353117D01*
X52633446Y-31331325D01*
X52419498Y-31266423D01*
X52196999Y-31244509D01*
X51974501Y-31266423D01*
X51760554Y-31331325D01*
X51748201Y-31337928D01*
X51619998Y-31337928D01*
X51446744Y-31354992D01*
X51374193Y-31377000D01*
X49395000Y-31377000D01*
X49395000Y-30998923D01*
X49473405Y-30903386D01*
X49555472Y-30749850D01*
X49606008Y-30583254D01*
X49623072Y-30410000D01*
X49623072Y-29910000D01*
X49606008Y-29736746D01*
X49555472Y-29570150D01*
X49473405Y-29416614D01*
X49362962Y-29282038D01*
X49356406Y-29276658D01*
X49436185Y-29211185D01*
X49515537Y-29114494D01*
X49574502Y-29004180D01*
X49610812Y-28884482D01*
X49623072Y-28760000D01*
X49620000Y-28545750D01*
X49461250Y-28387000D01*
X48387000Y-28387000D01*
X48387000Y-28407000D01*
X48133000Y-28407000D01*
X48133000Y-28387000D01*
X47058750Y-28387000D01*
X46900000Y-28545750D01*
X46896928Y-28760000D01*
X46909188Y-28884482D01*
X46945498Y-29004180D01*
X47004463Y-29114494D01*
X47083815Y-29211185D01*
X47163594Y-29276658D01*
X47157038Y-29282038D01*
X47046595Y-29416614D01*
X46964528Y-29570150D01*
X46913992Y-29736746D01*
X46896928Y-29910000D01*
X46896928Y-30410000D01*
X46913992Y-30583254D01*
X46964528Y-30749850D01*
X47046595Y-30903386D01*
X47125000Y-30998923D01*
X47125000Y-31377000D01*
X44089683Y-31377000D01*
X44052537Y-31307506D01*
X43973185Y-31210815D01*
X43876494Y-31131463D01*
X43766180Y-31072498D01*
X43646482Y-31036188D01*
X43522000Y-31023928D01*
X41822000Y-31023928D01*
X41697518Y-31036188D01*
X41577820Y-31072498D01*
X41467506Y-31131463D01*
X41370815Y-31210815D01*
X41291463Y-31307506D01*
X41232498Y-31417820D01*
X41196188Y-31537518D01*
X41183928Y-31662000D01*
X41183928Y-33362000D01*
X41196188Y-33486482D01*
X41232498Y-33606180D01*
X41291463Y-33716494D01*
X41370815Y-33813185D01*
X41467506Y-33892537D01*
X41577820Y-33951502D01*
X41658466Y-33975966D01*
X41574412Y-34051731D01*
X41400359Y-34285080D01*
X41275175Y-34547901D01*
X41230524Y-34695110D01*
X41351845Y-34925000D01*
X42545000Y-34925000D01*
X42545000Y-34905000D01*
X42799000Y-34905000D01*
X42799000Y-34925000D01*
X43992155Y-34925000D01*
X44113476Y-34695110D01*
X44068825Y-34547901D01*
X43943641Y-34285080D01*
X43769588Y-34051731D01*
X43685534Y-33975966D01*
X43766180Y-33951502D01*
X43876494Y-33892537D01*
X43973185Y-33813185D01*
X44052537Y-33716494D01*
X44089683Y-33647000D01*
X47696249Y-33647000D01*
X47752000Y-33652491D01*
X47807751Y-33647000D01*
X50833816Y-33647000D01*
X50799528Y-33711148D01*
X50748992Y-33877744D01*
X50731928Y-34050998D01*
X50731928Y-34576002D01*
X50748992Y-34749256D01*
X50799528Y-34915852D01*
X50881595Y-35069387D01*
X50992038Y-35203962D01*
X51060001Y-35259737D01*
X51060001Y-36145383D01*
X51055114Y-36195000D01*
X51060000Y-36244608D01*
X51060000Y-37003263D01*
X50992038Y-37059038D01*
X50881595Y-37193613D01*
X50799528Y-37347148D01*
X50748992Y-37513744D01*
X50731928Y-37686998D01*
X50731928Y-38212002D01*
X50748992Y-38385256D01*
X50799528Y-38551852D01*
X50881595Y-38705387D01*
X50948276Y-38786637D01*
X50918815Y-38810815D01*
X50839463Y-38907506D01*
X50780498Y-39017820D01*
X50744188Y-39137518D01*
X50731928Y-39262000D01*
X50735000Y-39488750D01*
X50893750Y-39647500D01*
X51943000Y-39647500D01*
X51943000Y-39627500D01*
X52197000Y-39627500D01*
X52197000Y-39647500D01*
X53246250Y-39647500D01*
X53405000Y-39488750D01*
X53408072Y-39262000D01*
X53395812Y-39137518D01*
X53359502Y-39017820D01*
X53300537Y-38907506D01*
X53221185Y-38810815D01*
X53191724Y-38786637D01*
X53258405Y-38705387D01*
X53340472Y-38551852D01*
X53345887Y-38534000D01*
X56802928Y-38534000D01*
X56815188Y-38658482D01*
X56851498Y-38778180D01*
X56910463Y-38888494D01*
X56989815Y-38985185D01*
X57086506Y-39064537D01*
X57196820Y-39123502D01*
X57316518Y-39159812D01*
X57441000Y-39172072D01*
X57880250Y-39169000D01*
X58039000Y-39010250D01*
X58039000Y-38161000D01*
X58293000Y-38161000D01*
X58293000Y-39010250D01*
X58451750Y-39169000D01*
X58891000Y-39172072D01*
X59015482Y-39159812D01*
X59135180Y-39123502D01*
X59245494Y-39064537D01*
X59342185Y-38985185D01*
X59421537Y-38888494D01*
X59480502Y-38778180D01*
X59516812Y-38658482D01*
X59529072Y-38534000D01*
X59526000Y-38319750D01*
X59367250Y-38161000D01*
X58293000Y-38161000D01*
X58039000Y-38161000D01*
X56964750Y-38161000D01*
X56806000Y-38319750D01*
X56802928Y-38534000D01*
X53345887Y-38534000D01*
X53391008Y-38385256D01*
X53408072Y-38212002D01*
X53408072Y-37686998D01*
X53391008Y-37513744D01*
X53340472Y-37347148D01*
X53264492Y-37205000D01*
X56896836Y-37205000D01*
X56851498Y-37289820D01*
X56815188Y-37409518D01*
X56802928Y-37534000D01*
X56806000Y-37748250D01*
X56964750Y-37907000D01*
X58039000Y-37907000D01*
X58039000Y-37887000D01*
X58293000Y-37887000D01*
X58293000Y-37907000D01*
X59367250Y-37907000D01*
X59526000Y-37748250D01*
X59529072Y-37534000D01*
X59516812Y-37409518D01*
X59480502Y-37289820D01*
X59435164Y-37205000D01*
X60249869Y-37205000D01*
X60196864Y-37258005D01*
X60153551Y-37293551D01*
X60011716Y-37466377D01*
X59944570Y-37592000D01*
X59906324Y-37663554D01*
X59841423Y-37877502D01*
X59819509Y-38100000D01*
X59825000Y-38155752D01*
X59825001Y-45932248D01*
X59762613Y-45965595D01*
X59628038Y-46076038D01*
X59517595Y-46210613D01*
X59435528Y-46364148D01*
X59384992Y-46530744D01*
X59367928Y-46703998D01*
X59367928Y-47229002D01*
X59384992Y-47402256D01*
X59435528Y-47568852D01*
X59517595Y-47722387D01*
X59628038Y-47856962D01*
X59654891Y-47879000D01*
X59628038Y-47901038D01*
X59517595Y-48035613D01*
X59435528Y-48189148D01*
X59384992Y-48355744D01*
X59367928Y-48528998D01*
X59367928Y-49054002D01*
X59384992Y-49227256D01*
X59402205Y-49284000D01*
X58509132Y-49284000D01*
X55575996Y-46350865D01*
X55540449Y-46307551D01*
X55367623Y-46165716D01*
X55170447Y-46060324D01*
X54956499Y-45995423D01*
X54789752Y-45979000D01*
X54789751Y-45979000D01*
X54734000Y-45973509D01*
X54678249Y-45979000D01*
X53008248Y-45979000D01*
X52841501Y-45995423D01*
X52627553Y-46060324D01*
X52598360Y-46075928D01*
X52539000Y-46075928D01*
X52414518Y-46088188D01*
X52294820Y-46124498D01*
X52184506Y-46183463D01*
X52087815Y-46262815D01*
X52008463Y-46359506D01*
X51949498Y-46469820D01*
X51913188Y-46589518D01*
X51900928Y-46714000D01*
X51900928Y-47514000D01*
X51913188Y-47638482D01*
X51949498Y-47758180D01*
X51979335Y-47814000D01*
X51949498Y-47869820D01*
X51913188Y-47989518D01*
X51900928Y-48114000D01*
X51904000Y-48228250D01*
X52062750Y-48387000D01*
X52937000Y-48387000D01*
X52937000Y-48367000D01*
X53191000Y-48367000D01*
X53191000Y-48387000D01*
X54065250Y-48387000D01*
X54203250Y-48249000D01*
X54263869Y-48249000D01*
X56433868Y-50419000D01*
X53504869Y-53348000D01*
X53398961Y-53348000D01*
X53333887Y-53294595D01*
X53180352Y-53212528D01*
X53013756Y-53161992D01*
X52840502Y-53144928D01*
X52315498Y-53144928D01*
X52142244Y-53161992D01*
X51975648Y-53212528D01*
X51822113Y-53294595D01*
X51687538Y-53405038D01*
X51665500Y-53431891D01*
X51643462Y-53405038D01*
X51508887Y-53294595D01*
X51355352Y-53212528D01*
X51188756Y-53161992D01*
X51015502Y-53144928D01*
X50490498Y-53144928D01*
X50317244Y-53161992D01*
X50150648Y-53212528D01*
X49997113Y-53294595D01*
X49932039Y-53348000D01*
X48349132Y-53348000D01*
X45483631Y-50482500D01*
X47052131Y-48914000D01*
X49450928Y-48914000D01*
X49463188Y-49038482D01*
X49499498Y-49158180D01*
X49529335Y-49214000D01*
X49499498Y-49269820D01*
X49463188Y-49389518D01*
X49450928Y-49514000D01*
X49450928Y-50314000D01*
X49463188Y-50438482D01*
X49499498Y-50558180D01*
X49558463Y-50668494D01*
X49637815Y-50765185D01*
X49734506Y-50844537D01*
X49844820Y-50903502D01*
X49964518Y-50939812D01*
X50089000Y-50952072D01*
X51139000Y-50952072D01*
X51263482Y-50939812D01*
X51383180Y-50903502D01*
X51493494Y-50844537D01*
X51590185Y-50765185D01*
X51669537Y-50668494D01*
X51728502Y-50558180D01*
X51764812Y-50438482D01*
X51777072Y-50314000D01*
X51777072Y-49514000D01*
X51764812Y-49389518D01*
X51728502Y-49269820D01*
X51698665Y-49214000D01*
X51728502Y-49158180D01*
X51764812Y-49038482D01*
X51777072Y-48914000D01*
X51900928Y-48914000D01*
X51913188Y-49038482D01*
X51949498Y-49158180D01*
X51979335Y-49214000D01*
X51949498Y-49269820D01*
X51913188Y-49389518D01*
X51900928Y-49514000D01*
X51900928Y-50314000D01*
X51913188Y-50438482D01*
X51949498Y-50558180D01*
X52008463Y-50668494D01*
X52087815Y-50765185D01*
X52184506Y-50844537D01*
X52294820Y-50903502D01*
X52414518Y-50939812D01*
X52539000Y-50952072D01*
X53589000Y-50952072D01*
X53713482Y-50939812D01*
X53833180Y-50903502D01*
X53943494Y-50844537D01*
X54040185Y-50765185D01*
X54119537Y-50668494D01*
X54178502Y-50558180D01*
X54214812Y-50438482D01*
X54227072Y-50314000D01*
X54227072Y-49514000D01*
X54214812Y-49389518D01*
X54178502Y-49269820D01*
X54148665Y-49214000D01*
X54178502Y-49158180D01*
X54214812Y-49038482D01*
X54227072Y-48914000D01*
X54224000Y-48799750D01*
X54065250Y-48641000D01*
X53191000Y-48641000D01*
X53191000Y-48661000D01*
X52937000Y-48661000D01*
X52937000Y-48641000D01*
X52062750Y-48641000D01*
X51904000Y-48799750D01*
X51900928Y-48914000D01*
X51777072Y-48914000D01*
X51774000Y-48799750D01*
X51615250Y-48641000D01*
X50741000Y-48641000D01*
X50741000Y-48661000D01*
X50487000Y-48661000D01*
X50487000Y-48641000D01*
X49612750Y-48641000D01*
X49454000Y-48799750D01*
X49450928Y-48914000D01*
X47052131Y-48914000D01*
X47714132Y-48252000D01*
X49477750Y-48252000D01*
X49612750Y-48387000D01*
X50487000Y-48387000D01*
X50487000Y-48367000D01*
X50741000Y-48367000D01*
X50741000Y-48387000D01*
X51615250Y-48387000D01*
X51774000Y-48228250D01*
X51777072Y-48114000D01*
X51764812Y-47989518D01*
X51728502Y-47869820D01*
X51698665Y-47814000D01*
X51728502Y-47758180D01*
X51764812Y-47638482D01*
X51777072Y-47514000D01*
X51777072Y-47387315D01*
X51791577Y-47339499D01*
X51813491Y-47117000D01*
X51791577Y-46894501D01*
X51777072Y-46846685D01*
X51777072Y-46714000D01*
X51764812Y-46589518D01*
X51728502Y-46469820D01*
X51669537Y-46359506D01*
X51590185Y-46262815D01*
X51493494Y-46183463D01*
X51383180Y-46124498D01*
X51263482Y-46088188D01*
X51139000Y-46075928D01*
X51133028Y-46075928D01*
X51109447Y-46063324D01*
X50895499Y-45998423D01*
X50728752Y-45982000D01*
X47299741Y-45982000D01*
X47243999Y-45976510D01*
X47188257Y-45982000D01*
X47188248Y-45982000D01*
X47021501Y-45998423D01*
X46807553Y-46063324D01*
X46610377Y-46168716D01*
X46437551Y-46310551D01*
X46402011Y-46353857D01*
X43344869Y-49411000D01*
X37751704Y-49411000D01*
X37714494Y-49380463D01*
X37604180Y-49321498D01*
X37484482Y-49285188D01*
X37360000Y-49272928D01*
X33760000Y-49272928D01*
X33680000Y-49280807D01*
X33680000Y-49234038D01*
X35474250Y-49231000D01*
X35633000Y-49072250D01*
X35633000Y-47848000D01*
X35887000Y-47848000D01*
X35887000Y-49072250D01*
X36045750Y-49231000D01*
X37860000Y-49234072D01*
X37984482Y-49221812D01*
X38104180Y-49185502D01*
X38214494Y-49126537D01*
X38311185Y-49047185D01*
X38390537Y-48950494D01*
X38449502Y-48840180D01*
X38485812Y-48720482D01*
X38498072Y-48596000D01*
X38495000Y-48006750D01*
X38336250Y-47848000D01*
X35887000Y-47848000D01*
X35633000Y-47848000D01*
X35613000Y-47848000D01*
X35613000Y-47594000D01*
X35633000Y-47594000D01*
X35633000Y-46369750D01*
X35887000Y-46369750D01*
X35887000Y-47594000D01*
X38336250Y-47594000D01*
X38495000Y-47435250D01*
X38498072Y-46846000D01*
X38485812Y-46721518D01*
X38449502Y-46601820D01*
X38390537Y-46491506D01*
X38311185Y-46394815D01*
X38214494Y-46315463D01*
X38104180Y-46256498D01*
X37984482Y-46220188D01*
X37860000Y-46207928D01*
X36045750Y-46211000D01*
X35887000Y-46369750D01*
X35633000Y-46369750D01*
X35474250Y-46211000D01*
X33680000Y-46207962D01*
X33680000Y-40287000D01*
X50731928Y-40287000D01*
X50744188Y-40411482D01*
X50780498Y-40531180D01*
X50839463Y-40641494D01*
X50918815Y-40738185D01*
X51015506Y-40817537D01*
X51125820Y-40876502D01*
X51245518Y-40912812D01*
X51370000Y-40925072D01*
X51784250Y-40922000D01*
X51943000Y-40763250D01*
X51943000Y-39901500D01*
X52197000Y-39901500D01*
X52197000Y-40763250D01*
X52355750Y-40922000D01*
X52770000Y-40925072D01*
X52894482Y-40912812D01*
X53014180Y-40876502D01*
X53124494Y-40817537D01*
X53221185Y-40738185D01*
X53300537Y-40641494D01*
X53359502Y-40531180D01*
X53395812Y-40411482D01*
X53408072Y-40287000D01*
X53405000Y-40060250D01*
X53246250Y-39901500D01*
X52197000Y-39901500D01*
X51943000Y-39901500D01*
X50893750Y-39901500D01*
X50735000Y-40060250D01*
X50731928Y-40287000D01*
X33680000Y-40287000D01*
X33680000Y-35408890D01*
X41230524Y-35408890D01*
X41275175Y-35556099D01*
X41400359Y-35818920D01*
X41574412Y-36052269D01*
X41790645Y-36247178D01*
X42040748Y-36396157D01*
X42315109Y-36493481D01*
X42545000Y-36372814D01*
X42545000Y-35179000D01*
X42799000Y-35179000D01*
X42799000Y-36372814D01*
X43028891Y-36493481D01*
X43303252Y-36396157D01*
X43553355Y-36247178D01*
X43769588Y-36052269D01*
X43943641Y-35818920D01*
X44068825Y-35556099D01*
X44113476Y-35408890D01*
X43992155Y-35179000D01*
X42799000Y-35179000D01*
X42545000Y-35179000D01*
X41351845Y-35179000D01*
X41230524Y-35408890D01*
X33680000Y-35408890D01*
X33680000Y-27760000D01*
X46896928Y-27760000D01*
X46900000Y-27974250D01*
X47058750Y-28133000D01*
X48133000Y-28133000D01*
X48133000Y-27283750D01*
X48387000Y-27283750D01*
X48387000Y-28133000D01*
X49461250Y-28133000D01*
X49620000Y-27974250D01*
X49623072Y-27760000D01*
X49610812Y-27635518D01*
X49574502Y-27515820D01*
X49515537Y-27405506D01*
X49436185Y-27308815D01*
X49339494Y-27229463D01*
X49229180Y-27170498D01*
X49109482Y-27134188D01*
X48985000Y-27121928D01*
X48545750Y-27125000D01*
X48387000Y-27283750D01*
X48133000Y-27283750D01*
X47974250Y-27125000D01*
X47535000Y-27121928D01*
X47410518Y-27134188D01*
X47290820Y-27170498D01*
X47180506Y-27229463D01*
X47083815Y-27308815D01*
X47004463Y-27405506D01*
X46945498Y-27515820D01*
X46909188Y-27635518D01*
X46896928Y-27760000D01*
X33680000Y-27760000D01*
X33680000Y-26702279D01*
X33694722Y-26552131D01*
X33728953Y-26438754D01*
X33784555Y-26334181D01*
X33859407Y-26242404D01*
X33950664Y-26166909D01*
X34054844Y-26110581D01*
X34167976Y-26075560D01*
X34316022Y-26060000D01*
X90137721Y-26060000D01*
X90287869Y-26074722D01*
G37*
%TD.AperFunction*%
D22*
X67229188Y-30678518D02*
X67216928Y-30803000D01*
X67220000Y-31017250D01*
X67378750Y-31176000D01*
X68453000Y-31176000D01*
X68453000Y-31156000D01*
X68707000Y-31156000D01*
X68707000Y-31176000D01*
X69781250Y-31176000D01*
X69940000Y-31017250D01*
X69943072Y-30803000D01*
X69930812Y-30678518D01*
X69899562Y-30575500D01*
X71324438Y-30575500D01*
X71293188Y-30678518D01*
X71280928Y-30803000D01*
X71284000Y-31017250D01*
X71442750Y-31176000D01*
X72517000Y-31176000D01*
X72517000Y-31156000D01*
X72771000Y-31156000D01*
X72771000Y-31176000D01*
X73845250Y-31176000D01*
X74004000Y-31017250D01*
X74007072Y-30803000D01*
X73994812Y-30678518D01*
X73978886Y-30626018D01*
X74049000Y-30696132D01*
X74049001Y-33057866D01*
X70610865Y-36496004D01*
X70567551Y-36531551D01*
X70425716Y-36704377D01*
X70333272Y-36877330D01*
X70326764Y-36889506D01*
X70294957Y-36830000D01*
X70343502Y-36739180D01*
X70379812Y-36619482D01*
X70392072Y-36495000D01*
X70392072Y-35895000D01*
X70379812Y-35770518D01*
X70343502Y-35650820D01*
X70294957Y-35560000D01*
X70343502Y-35469180D01*
X70379812Y-35349482D01*
X70392072Y-35225000D01*
X70392072Y-34625000D01*
X70379812Y-34500518D01*
X70343502Y-34380820D01*
X70294957Y-34290000D01*
X70343502Y-34199180D01*
X70379812Y-34079482D01*
X70392072Y-33955000D01*
X70392072Y-33355000D01*
X70379812Y-33230518D01*
X70343502Y-33110820D01*
X70284537Y-33000506D01*
X70205185Y-32903815D01*
X70108494Y-32824463D01*
X69998180Y-32765498D01*
X69878482Y-32729188D01*
X69754000Y-32716928D01*
X67784000Y-32716928D01*
X67659518Y-32729188D01*
X67539820Y-32765498D01*
X67429506Y-32824463D01*
X67332815Y-32903815D01*
X67253463Y-33000506D01*
X67194498Y-33110820D01*
X67158188Y-33230518D01*
X67145928Y-33355000D01*
X67145928Y-33955000D01*
X67158188Y-34079482D01*
X67194498Y-34199180D01*
X67243043Y-34290000D01*
X67194498Y-34380820D01*
X67158188Y-34500518D01*
X67145928Y-34625000D01*
X67145928Y-35225000D01*
X67158188Y-35349482D01*
X67194498Y-35469180D01*
X67243043Y-35560000D01*
X67194498Y-35650820D01*
X67158188Y-35770518D01*
X67145928Y-35895000D01*
X67145928Y-36495000D01*
X67158188Y-36619482D01*
X67194498Y-36739180D01*
X67243043Y-36830000D01*
X67194498Y-36920820D01*
X67158188Y-37040518D01*
X67145928Y-37165000D01*
X67149000Y-37179250D01*
X67307750Y-37338000D01*
X68642000Y-37338000D01*
X68642000Y-37318000D01*
X68896000Y-37318000D01*
X68896000Y-37338000D01*
X68916000Y-37338000D01*
X68916000Y-37592000D01*
X68896000Y-37592000D01*
X68896000Y-37612000D01*
X68642000Y-37612000D01*
X68642000Y-37592000D01*
X67307750Y-37592000D01*
X67149000Y-37750750D01*
X67145928Y-37765000D01*
X67158188Y-37889482D01*
X67194498Y-38009180D01*
X67243043Y-38100000D01*
X67194498Y-38190820D01*
X67158188Y-38310518D01*
X67145928Y-38435000D01*
X67145928Y-39035000D01*
X67158188Y-39159482D01*
X67194498Y-39279180D01*
X67243043Y-39370000D01*
X67194498Y-39460820D01*
X67158188Y-39580518D01*
X67145928Y-39705000D01*
X67145928Y-40305000D01*
X67158188Y-40429482D01*
X67194498Y-40549180D01*
X67243043Y-40640000D01*
X67194498Y-40730820D01*
X67158188Y-40850518D01*
X67145928Y-40975000D01*
X67145928Y-41575000D01*
X67158188Y-41699482D01*
X67194498Y-41819180D01*
X67253463Y-41929494D01*
X67332815Y-42026185D01*
X67429506Y-42105537D01*
X67539820Y-42164502D01*
X67659518Y-42200812D01*
X67784000Y-42213072D01*
X69754000Y-42213072D01*
X69878482Y-42200812D01*
X69998180Y-42164502D01*
X70108494Y-42105537D01*
X70205185Y-42026185D01*
X70239001Y-41984980D01*
X70239001Y-42836866D01*
X66800865Y-46275004D01*
X66757551Y-46310551D01*
X66615716Y-46483377D01*
X66518915Y-46664482D01*
X66510324Y-46680554D01*
X66445423Y-46894502D01*
X66423509Y-47117000D01*
X66429000Y-47172751D01*
X66429000Y-47281868D01*
X66401107Y-47309761D01*
X66355537Y-47224506D01*
X66276185Y-47127815D01*
X66179494Y-47048463D01*
X66069180Y-46989498D01*
X65949482Y-46953188D01*
X65825000Y-46940928D01*
X63855000Y-46940928D01*
X63730518Y-46953188D01*
X63610820Y-46989498D01*
X63500506Y-47048463D01*
X63403815Y-47127815D01*
X63324463Y-47224506D01*
X63265498Y-47334820D01*
X63229188Y-47454518D01*
X63216928Y-47579000D01*
X63216928Y-48179000D01*
X63229188Y-48303482D01*
X63265498Y-48423180D01*
X63314043Y-48514000D01*
X63265498Y-48604820D01*
X63264960Y-48606594D01*
X63208324Y-48712553D01*
X63143423Y-48926501D01*
X63121509Y-49149000D01*
X63134805Y-49284000D01*
X62009795Y-49284000D01*
X62027008Y-49227256D01*
X62044072Y-49054002D01*
X62044072Y-48528998D01*
X62027008Y-48355744D01*
X61976472Y-48189148D01*
X61894405Y-48035613D01*
X61783962Y-47901038D01*
X61757109Y-47879000D01*
X61783962Y-47856962D01*
X61894405Y-47722387D01*
X61976472Y-47568852D01*
X62027008Y-47402256D01*
X62044072Y-47229002D01*
X62044072Y-46818246D01*
X62078577Y-46704499D01*
X62095000Y-46537752D01*
X62095000Y-46537743D01*
X62100490Y-46482001D01*
X62095000Y-46426259D01*
X62095000Y-38600000D01*
X62195928Y-38600000D01*
X62195928Y-39035000D01*
X62208188Y-39159482D01*
X62244498Y-39279180D01*
X62293043Y-39370000D01*
X62244498Y-39460820D01*
X62208188Y-39580518D01*
X62195928Y-39705000D01*
X62195928Y-40305000D01*
X62208188Y-40429482D01*
X62244498Y-40549180D01*
X62293043Y-40640000D01*
X62244498Y-40730820D01*
X62208188Y-40850518D01*
X62195928Y-40975000D01*
X62195928Y-41575000D01*
X62208188Y-41699482D01*
X62244498Y-41819180D01*
X62303463Y-41929494D01*
X62382815Y-42026185D01*
X62479506Y-42105537D01*
X62589820Y-42164502D01*
X62709518Y-42200812D01*
X62834000Y-42213072D01*
X64804000Y-42213072D01*
X64928482Y-42200812D01*
X65048180Y-42164502D01*
X65158494Y-42105537D01*
X65255185Y-42026185D01*
X65334537Y-41929494D01*
X65393502Y-41819180D01*
X65429812Y-41699482D01*
X65442072Y-41575000D01*
X65442072Y-40975000D01*
X65429812Y-40850518D01*
X65393502Y-40730820D01*
X65344957Y-40640000D01*
X65393502Y-40549180D01*
X65429812Y-40429482D01*
X65442072Y-40305000D01*
X65442072Y-39705000D01*
X65429812Y-39580518D01*
X65393502Y-39460820D01*
X65344957Y-39370000D01*
X65393502Y-39279180D01*
X65429812Y-39159482D01*
X65442072Y-39035000D01*
X65442072Y-38435000D01*
X65429812Y-38310518D01*
X65393502Y-38190820D01*
X65344957Y-38100000D01*
X65393502Y-38009180D01*
X65429812Y-37889482D01*
X65442072Y-37765000D01*
X65442072Y-37165000D01*
X65429812Y-37040518D01*
X65393502Y-36920820D01*
X65344957Y-36830000D01*
X65393502Y-36739180D01*
X65429812Y-36619482D01*
X65442072Y-36495000D01*
X65442072Y-35895000D01*
X65429812Y-35770518D01*
X65393502Y-35650820D01*
X65344957Y-35560000D01*
X65393502Y-35469180D01*
X65429812Y-35349482D01*
X65442072Y-35225000D01*
X65442072Y-34625000D01*
X65429812Y-34500518D01*
X65393502Y-34380820D01*
X65344957Y-34290000D01*
X65393502Y-34199180D01*
X65429812Y-34079482D01*
X65442072Y-33955000D01*
X65442072Y-33355000D01*
X65429812Y-33230518D01*
X65393502Y-33110820D01*
X65334537Y-33000506D01*
X65255185Y-32903815D01*
X65158494Y-32824463D01*
X65048180Y-32765498D01*
X64928482Y-32729188D01*
X64804000Y-32716928D01*
X64704000Y-32716928D01*
X64704000Y-32330754D01*
X64824387Y-32266405D01*
X64958962Y-32155962D01*
X65069405Y-32021387D01*
X65151472Y-31867852D01*
X65171144Y-31803000D01*
X67216928Y-31803000D01*
X67229188Y-31927482D01*
X67265498Y-32047180D01*
X67324463Y-32157494D01*
X67403815Y-32254185D01*
X67500506Y-32333537D01*
X67610820Y-32392502D01*
X67730518Y-32428812D01*
X67855000Y-32441072D01*
X68294250Y-32438000D01*
X68453000Y-32279250D01*
X68453000Y-31430000D01*
X68707000Y-31430000D01*
X68707000Y-32279250D01*
X68865750Y-32438000D01*
X69305000Y-32441072D01*
X69429482Y-32428812D01*
X69549180Y-32392502D01*
X69659494Y-32333537D01*
X69756185Y-32254185D01*
X69835537Y-32157494D01*
X69894502Y-32047180D01*
X69930812Y-31927482D01*
X69943072Y-31803000D01*
X71280928Y-31803000D01*
X71293188Y-31927482D01*
X71329498Y-32047180D01*
X71388463Y-32157494D01*
X71467815Y-32254185D01*
X71564506Y-32333537D01*
X71674820Y-32392502D01*
X71794518Y-32428812D01*
X71919000Y-32441072D01*
X72358250Y-32438000D01*
X72517000Y-32279250D01*
X72517000Y-31430000D01*
X72771000Y-31430000D01*
X72771000Y-32279250D01*
X72929750Y-32438000D01*
X73369000Y-32441072D01*
X73493482Y-32428812D01*
X73613180Y-32392502D01*
X73723494Y-32333537D01*
X73820185Y-32254185D01*
X73899537Y-32157494D01*
X73958502Y-32047180D01*
X73994812Y-31927482D01*
X74007072Y-31803000D01*
X74004000Y-31588750D01*
X73845250Y-31430000D01*
X72771000Y-31430000D01*
X72517000Y-31430000D01*
X71442750Y-31430000D01*
X71284000Y-31588750D01*
X71280928Y-31803000D01*
X69943072Y-31803000D01*
X69940000Y-31588750D01*
X69781250Y-31430000D01*
X68707000Y-31430000D01*
X68453000Y-31430000D01*
X67378750Y-31430000D01*
X67220000Y-31588750D01*
X67216928Y-31803000D01*
X65171144Y-31803000D01*
X65202008Y-31701256D01*
X65219072Y-31528002D01*
X65219072Y-31002998D01*
X65202008Y-30829744D01*
X65151472Y-30663148D01*
X65104623Y-30575500D01*
X67260438Y-30575500D01*
X67229188Y-30678518D01*
%TA.AperFunction,Conductor*%
D23*
G36*
X67229188Y-30678518D02*
G01*
X67216928Y-30803000D01*
X67220000Y-31017250D01*
X67378750Y-31176000D01*
X68453000Y-31176000D01*
X68453000Y-31156000D01*
X68707000Y-31156000D01*
X68707000Y-31176000D01*
X69781250Y-31176000D01*
X69940000Y-31017250D01*
X69943072Y-30803000D01*
X69930812Y-30678518D01*
X69899562Y-30575500D01*
X71324438Y-30575500D01*
X71293188Y-30678518D01*
X71280928Y-30803000D01*
X71284000Y-31017250D01*
X71442750Y-31176000D01*
X72517000Y-31176000D01*
X72517000Y-31156000D01*
X72771000Y-31156000D01*
X72771000Y-31176000D01*
X73845250Y-31176000D01*
X74004000Y-31017250D01*
X74007072Y-30803000D01*
X73994812Y-30678518D01*
X73978886Y-30626018D01*
X74049000Y-30696132D01*
X74049001Y-33057866D01*
X70610865Y-36496004D01*
X70567551Y-36531551D01*
X70425716Y-36704377D01*
X70333272Y-36877330D01*
X70326764Y-36889506D01*
X70294957Y-36830000D01*
X70343502Y-36739180D01*
X70379812Y-36619482D01*
X70392072Y-36495000D01*
X70392072Y-35895000D01*
X70379812Y-35770518D01*
X70343502Y-35650820D01*
X70294957Y-35560000D01*
X70343502Y-35469180D01*
X70379812Y-35349482D01*
X70392072Y-35225000D01*
X70392072Y-34625000D01*
X70379812Y-34500518D01*
X70343502Y-34380820D01*
X70294957Y-34290000D01*
X70343502Y-34199180D01*
X70379812Y-34079482D01*
X70392072Y-33955000D01*
X70392072Y-33355000D01*
X70379812Y-33230518D01*
X70343502Y-33110820D01*
X70284537Y-33000506D01*
X70205185Y-32903815D01*
X70108494Y-32824463D01*
X69998180Y-32765498D01*
X69878482Y-32729188D01*
X69754000Y-32716928D01*
X67784000Y-32716928D01*
X67659518Y-32729188D01*
X67539820Y-32765498D01*
X67429506Y-32824463D01*
X67332815Y-32903815D01*
X67253463Y-33000506D01*
X67194498Y-33110820D01*
X67158188Y-33230518D01*
X67145928Y-33355000D01*
X67145928Y-33955000D01*
X67158188Y-34079482D01*
X67194498Y-34199180D01*
X67243043Y-34290000D01*
X67194498Y-34380820D01*
X67158188Y-34500518D01*
X67145928Y-34625000D01*
X67145928Y-35225000D01*
X67158188Y-35349482D01*
X67194498Y-35469180D01*
X67243043Y-35560000D01*
X67194498Y-35650820D01*
X67158188Y-35770518D01*
X67145928Y-35895000D01*
X67145928Y-36495000D01*
X67158188Y-36619482D01*
X67194498Y-36739180D01*
X67243043Y-36830000D01*
X67194498Y-36920820D01*
X67158188Y-37040518D01*
X67145928Y-37165000D01*
X67149000Y-37179250D01*
X67307750Y-37338000D01*
X68642000Y-37338000D01*
X68642000Y-37318000D01*
X68896000Y-37318000D01*
X68896000Y-37338000D01*
X68916000Y-37338000D01*
X68916000Y-37592000D01*
X68896000Y-37592000D01*
X68896000Y-37612000D01*
X68642000Y-37612000D01*
X68642000Y-37592000D01*
X67307750Y-37592000D01*
X67149000Y-37750750D01*
X67145928Y-37765000D01*
X67158188Y-37889482D01*
X67194498Y-38009180D01*
X67243043Y-38100000D01*
X67194498Y-38190820D01*
X67158188Y-38310518D01*
X67145928Y-38435000D01*
X67145928Y-39035000D01*
X67158188Y-39159482D01*
X67194498Y-39279180D01*
X67243043Y-39370000D01*
X67194498Y-39460820D01*
X67158188Y-39580518D01*
X67145928Y-39705000D01*
X67145928Y-40305000D01*
X67158188Y-40429482D01*
X67194498Y-40549180D01*
X67243043Y-40640000D01*
X67194498Y-40730820D01*
X67158188Y-40850518D01*
X67145928Y-40975000D01*
X67145928Y-41575000D01*
X67158188Y-41699482D01*
X67194498Y-41819180D01*
X67253463Y-41929494D01*
X67332815Y-42026185D01*
X67429506Y-42105537D01*
X67539820Y-42164502D01*
X67659518Y-42200812D01*
X67784000Y-42213072D01*
X69754000Y-42213072D01*
X69878482Y-42200812D01*
X69998180Y-42164502D01*
X70108494Y-42105537D01*
X70205185Y-42026185D01*
X70239001Y-41984980D01*
X70239001Y-42836866D01*
X66800865Y-46275004D01*
X66757551Y-46310551D01*
X66615716Y-46483377D01*
X66518915Y-46664482D01*
X66510324Y-46680554D01*
X66445423Y-46894502D01*
X66423509Y-47117000D01*
X66429000Y-47172751D01*
X66429000Y-47281868D01*
X66401107Y-47309761D01*
X66355537Y-47224506D01*
X66276185Y-47127815D01*
X66179494Y-47048463D01*
X66069180Y-46989498D01*
X65949482Y-46953188D01*
X65825000Y-46940928D01*
X63855000Y-46940928D01*
X63730518Y-46953188D01*
X63610820Y-46989498D01*
X63500506Y-47048463D01*
X63403815Y-47127815D01*
X63324463Y-47224506D01*
X63265498Y-47334820D01*
X63229188Y-47454518D01*
X63216928Y-47579000D01*
X63216928Y-48179000D01*
X63229188Y-48303482D01*
X63265498Y-48423180D01*
X63314043Y-48514000D01*
X63265498Y-48604820D01*
X63264960Y-48606594D01*
X63208324Y-48712553D01*
X63143423Y-48926501D01*
X63121509Y-49149000D01*
X63134805Y-49284000D01*
X62009795Y-49284000D01*
X62027008Y-49227256D01*
X62044072Y-49054002D01*
X62044072Y-48528998D01*
X62027008Y-48355744D01*
X61976472Y-48189148D01*
X61894405Y-48035613D01*
X61783962Y-47901038D01*
X61757109Y-47879000D01*
X61783962Y-47856962D01*
X61894405Y-47722387D01*
X61976472Y-47568852D01*
X62027008Y-47402256D01*
X62044072Y-47229002D01*
X62044072Y-46818246D01*
X62078577Y-46704499D01*
X62095000Y-46537752D01*
X62095000Y-46537743D01*
X62100490Y-46482001D01*
X62095000Y-46426259D01*
X62095000Y-38600000D01*
X62195928Y-38600000D01*
X62195928Y-39035000D01*
X62208188Y-39159482D01*
X62244498Y-39279180D01*
X62293043Y-39370000D01*
X62244498Y-39460820D01*
X62208188Y-39580518D01*
X62195928Y-39705000D01*
X62195928Y-40305000D01*
X62208188Y-40429482D01*
X62244498Y-40549180D01*
X62293043Y-40640000D01*
X62244498Y-40730820D01*
X62208188Y-40850518D01*
X62195928Y-40975000D01*
X62195928Y-41575000D01*
X62208188Y-41699482D01*
X62244498Y-41819180D01*
X62303463Y-41929494D01*
X62382815Y-42026185D01*
X62479506Y-42105537D01*
X62589820Y-42164502D01*
X62709518Y-42200812D01*
X62834000Y-42213072D01*
X64804000Y-42213072D01*
X64928482Y-42200812D01*
X65048180Y-42164502D01*
X65158494Y-42105537D01*
X65255185Y-42026185D01*
X65334537Y-41929494D01*
X65393502Y-41819180D01*
X65429812Y-41699482D01*
X65442072Y-41575000D01*
X65442072Y-40975000D01*
X65429812Y-40850518D01*
X65393502Y-40730820D01*
X65344957Y-40640000D01*
X65393502Y-40549180D01*
X65429812Y-40429482D01*
X65442072Y-40305000D01*
X65442072Y-39705000D01*
X65429812Y-39580518D01*
X65393502Y-39460820D01*
X65344957Y-39370000D01*
X65393502Y-39279180D01*
X65429812Y-39159482D01*
X65442072Y-39035000D01*
X65442072Y-38435000D01*
X65429812Y-38310518D01*
X65393502Y-38190820D01*
X65344957Y-38100000D01*
X65393502Y-38009180D01*
X65429812Y-37889482D01*
X65442072Y-37765000D01*
X65442072Y-37165000D01*
X65429812Y-37040518D01*
X65393502Y-36920820D01*
X65344957Y-36830000D01*
X65393502Y-36739180D01*
X65429812Y-36619482D01*
X65442072Y-36495000D01*
X65442072Y-35895000D01*
X65429812Y-35770518D01*
X65393502Y-35650820D01*
X65344957Y-35560000D01*
X65393502Y-35469180D01*
X65429812Y-35349482D01*
X65442072Y-35225000D01*
X65442072Y-34625000D01*
X65429812Y-34500518D01*
X65393502Y-34380820D01*
X65344957Y-34290000D01*
X65393502Y-34199180D01*
X65429812Y-34079482D01*
X65442072Y-33955000D01*
X65442072Y-33355000D01*
X65429812Y-33230518D01*
X65393502Y-33110820D01*
X65334537Y-33000506D01*
X65255185Y-32903815D01*
X65158494Y-32824463D01*
X65048180Y-32765498D01*
X64928482Y-32729188D01*
X64804000Y-32716928D01*
X64704000Y-32716928D01*
X64704000Y-32330754D01*
X64824387Y-32266405D01*
X64958962Y-32155962D01*
X65069405Y-32021387D01*
X65151472Y-31867852D01*
X65171144Y-31803000D01*
X67216928Y-31803000D01*
X67229188Y-31927482D01*
X67265498Y-32047180D01*
X67324463Y-32157494D01*
X67403815Y-32254185D01*
X67500506Y-32333537D01*
X67610820Y-32392502D01*
X67730518Y-32428812D01*
X67855000Y-32441072D01*
X68294250Y-32438000D01*
X68453000Y-32279250D01*
X68453000Y-31430000D01*
X68707000Y-31430000D01*
X68707000Y-32279250D01*
X68865750Y-32438000D01*
X69305000Y-32441072D01*
X69429482Y-32428812D01*
X69549180Y-32392502D01*
X69659494Y-32333537D01*
X69756185Y-32254185D01*
X69835537Y-32157494D01*
X69894502Y-32047180D01*
X69930812Y-31927482D01*
X69943072Y-31803000D01*
X71280928Y-31803000D01*
X71293188Y-31927482D01*
X71329498Y-32047180D01*
X71388463Y-32157494D01*
X71467815Y-32254185D01*
X71564506Y-32333537D01*
X71674820Y-32392502D01*
X71794518Y-32428812D01*
X71919000Y-32441072D01*
X72358250Y-32438000D01*
X72517000Y-32279250D01*
X72517000Y-31430000D01*
X72771000Y-31430000D01*
X72771000Y-32279250D01*
X72929750Y-32438000D01*
X73369000Y-32441072D01*
X73493482Y-32428812D01*
X73613180Y-32392502D01*
X73723494Y-32333537D01*
X73820185Y-32254185D01*
X73899537Y-32157494D01*
X73958502Y-32047180D01*
X73994812Y-31927482D01*
X74007072Y-31803000D01*
X74004000Y-31588750D01*
X73845250Y-31430000D01*
X72771000Y-31430000D01*
X72517000Y-31430000D01*
X71442750Y-31430000D01*
X71284000Y-31588750D01*
X71280928Y-31803000D01*
X69943072Y-31803000D01*
X69940000Y-31588750D01*
X69781250Y-31430000D01*
X68707000Y-31430000D01*
X68453000Y-31430000D01*
X67378750Y-31430000D01*
X67220000Y-31588750D01*
X67216928Y-31803000D01*
X65171144Y-31803000D01*
X65202008Y-31701256D01*
X65219072Y-31528002D01*
X65219072Y-31002998D01*
X65202008Y-30829744D01*
X65151472Y-30663148D01*
X65104623Y-30575500D01*
X67260438Y-30575500D01*
X67229188Y-30678518D01*
G37*
%TD.AperFunction*%
%TD*%
M02*
