%TF.GenerationSoftware,KiCad,Pcbnew,(5.1.9)-1*%
%TF.CreationDate,2021-02-10T10:56:46-05:00*%
%TF.ProjectId,DemodulatorCircuit,44656d6f-6475-46c6-9174-6f7243697263,rev?*%
%TF.SameCoordinates,Original*%
%TF.FileFunction,Legend,Bot*%
%TF.FilePolarity,Positive*%
%FSLAX46Y46*%
G04 Gerber Fmt 4.6, Leading zero omitted, Abs format (unit mm)*
G04 Created by KiCad (PCBNEW (5.1.9)-1) date 2021-02-10 10:56:46*
%MOMM*%
%LPD*%
G01*
G04 APERTURE LIST*
%ADD10C,0.120000*%
%ADD11C,0.150000*%
G04 APERTURE END LIST*
D10*
%TO.C,C_Inv_5*%
X79246000Y-48159580D02*
X79246000Y-47878420D01*
X80266000Y-48159580D02*
X80266000Y-47878420D01*
%TO.C,R_Inv_5*%
X77072258Y-48245500D02*
X76597742Y-48245500D01*
X77072258Y-49290500D02*
X76597742Y-49290500D01*
%TO.C,C_Inv_5*%
D11*
X81543142Y-46019000D02*
X81590761Y-45971380D01*
X81638380Y-45828523D01*
X81638380Y-45733285D01*
X81590761Y-45590428D01*
X81495523Y-45495190D01*
X81400285Y-45447571D01*
X81209809Y-45399952D01*
X81066952Y-45399952D01*
X80876476Y-45447571D01*
X80781238Y-45495190D01*
X80686000Y-45590428D01*
X80638380Y-45733285D01*
X80638380Y-45828523D01*
X80686000Y-45971380D01*
X80733619Y-46019000D01*
X81733619Y-46209476D02*
X81733619Y-46971380D01*
X81638380Y-47209476D02*
X80638380Y-47209476D01*
X80971714Y-47685666D02*
X81638380Y-47685666D01*
X81066952Y-47685666D02*
X81019333Y-47733285D01*
X80971714Y-47828523D01*
X80971714Y-47971380D01*
X81019333Y-48066619D01*
X81114571Y-48114238D01*
X81638380Y-48114238D01*
X80971714Y-48495190D02*
X81638380Y-48733285D01*
X80971714Y-48971380D01*
X81733619Y-49114238D02*
X81733619Y-49876142D01*
X80638380Y-50590428D02*
X80638380Y-50114238D01*
X81114571Y-50066619D01*
X81066952Y-50114238D01*
X81019333Y-50209476D01*
X81019333Y-50447571D01*
X81066952Y-50542809D01*
X81114571Y-50590428D01*
X81209809Y-50638047D01*
X81447904Y-50638047D01*
X81543142Y-50590428D01*
X81590761Y-50542809D01*
X81638380Y-50447571D01*
X81638380Y-50209476D01*
X81590761Y-50114238D01*
X81543142Y-50066619D01*
%TO.C,R_Inv_5*%
X78835000Y-47790380D02*
X79168333Y-47314190D01*
X79406428Y-47790380D02*
X79406428Y-46790380D01*
X79025476Y-46790380D01*
X78930238Y-46838000D01*
X78882619Y-46885619D01*
X78835000Y-46980857D01*
X78835000Y-47123714D01*
X78882619Y-47218952D01*
X78930238Y-47266571D01*
X79025476Y-47314190D01*
X79406428Y-47314190D01*
X78644523Y-47885619D02*
X77882619Y-47885619D01*
X77644523Y-47790380D02*
X77644523Y-46790380D01*
X77168333Y-47123714D02*
X77168333Y-47790380D01*
X77168333Y-47218952D02*
X77120714Y-47171333D01*
X77025476Y-47123714D01*
X76882619Y-47123714D01*
X76787380Y-47171333D01*
X76739761Y-47266571D01*
X76739761Y-47790380D01*
X76358809Y-47123714D02*
X76120714Y-47790380D01*
X75882619Y-47123714D01*
X75739761Y-47885619D02*
X74977857Y-47885619D01*
X74263571Y-46790380D02*
X74739761Y-46790380D01*
X74787380Y-47266571D01*
X74739761Y-47218952D01*
X74644523Y-47171333D01*
X74406428Y-47171333D01*
X74311190Y-47218952D01*
X74263571Y-47266571D01*
X74215952Y-47361809D01*
X74215952Y-47599904D01*
X74263571Y-47695142D01*
X74311190Y-47742761D01*
X74406428Y-47790380D01*
X74644523Y-47790380D01*
X74739761Y-47742761D01*
X74787380Y-47695142D01*
%TD*%
M02*
