%TF.GenerationSoftware,KiCad,Pcbnew,(5.1.9)-1*%
%TF.CreationDate,2021-02-10T10:56:46-05:00*%
%TF.ProjectId,DemodulatorCircuit,44656d6f-6475-46c6-9174-6f7243697263,rev?*%
%TF.SameCoordinates,Original*%
%TF.FileFunction,Paste,Bot*%
%TF.FilePolarity,Positive*%
%FSLAX46Y46*%
G04 Gerber Fmt 4.6, Leading zero omitted, Abs format (unit mm)*
G04 Created by KiCad (PCBNEW (5.1.9)-1) date 2021-02-10 10:56:46*
%MOMM*%
%LPD*%
G01*
G04 APERTURE LIST*
%ADD10R,4.200000X1.350000*%
G04 APERTURE END LIST*
D10*
%TO.C,J3*%
X88700000Y-45181000D03*
X88700000Y-50831000D03*
%TD*%
%TO.C,J1*%
X35760000Y-53371000D03*
X35760000Y-47721000D03*
%TD*%
%TO.C,C_Inv_5*%
G36*
G01*
X80006000Y-47694000D02*
X79506000Y-47694000D01*
G75*
G02*
X79281000Y-47469000I0J225000D01*
G01*
X79281000Y-47019000D01*
G75*
G02*
X79506000Y-46794000I225000J0D01*
G01*
X80006000Y-46794000D01*
G75*
G02*
X80231000Y-47019000I0J-225000D01*
G01*
X80231000Y-47469000D01*
G75*
G02*
X80006000Y-47694000I-225000J0D01*
G01*
G37*
G36*
G01*
X80006000Y-49244000D02*
X79506000Y-49244000D01*
G75*
G02*
X79281000Y-49019000I0J225000D01*
G01*
X79281000Y-48569000D01*
G75*
G02*
X79506000Y-48344000I225000J0D01*
G01*
X80006000Y-48344000D01*
G75*
G02*
X80231000Y-48569000I0J-225000D01*
G01*
X80231000Y-49019000D01*
G75*
G02*
X80006000Y-49244000I-225000J0D01*
G01*
G37*
%TD*%
%TO.C,R_Inv_5*%
G36*
G01*
X76410000Y-48493000D02*
X76410000Y-49043000D01*
G75*
G02*
X76210000Y-49243000I-200000J0D01*
G01*
X75810000Y-49243000D01*
G75*
G02*
X75610000Y-49043000I0J200000D01*
G01*
X75610000Y-48493000D01*
G75*
G02*
X75810000Y-48293000I200000J0D01*
G01*
X76210000Y-48293000D01*
G75*
G02*
X76410000Y-48493000I0J-200000D01*
G01*
G37*
G36*
G01*
X78060000Y-48493000D02*
X78060000Y-49043000D01*
G75*
G02*
X77860000Y-49243000I-200000J0D01*
G01*
X77460000Y-49243000D01*
G75*
G02*
X77260000Y-49043000I0J200000D01*
G01*
X77260000Y-48493000D01*
G75*
G02*
X77460000Y-48293000I200000J0D01*
G01*
X77860000Y-48293000D01*
G75*
G02*
X78060000Y-48493000I0J-200000D01*
G01*
G37*
%TD*%
M02*
