%TF.GenerationSoftware,KiCad,Pcbnew,(5.1.9)-1*%
%TF.CreationDate,2021-02-10T10:56:46-05:00*%
%TF.ProjectId,DemodulatorCircuit,44656d6f-6475-46c6-9174-6f7243697263,rev?*%
%TF.SameCoordinates,Original*%
%TF.FileFunction,Soldermask,Top*%
%TF.FilePolarity,Negative*%
%FSLAX46Y46*%
G04 Gerber Fmt 4.6, Leading zero omitted, Abs format (unit mm)*
G04 Created by KiCad (PCBNEW (5.1.9)-1) date 2021-02-10 10:56:46*
%MOMM*%
%LPD*%
G01*
G04 APERTURE LIST*
%ADD10R,0.600000X1.970000*%
%ADD11R,1.050000X0.800000*%
%ADD12R,1.970000X0.600000*%
%ADD13R,4.200000X1.350000*%
%ADD14R,3.600000X1.270000*%
%ADD15O,1.700000X1.700000*%
%ADD16R,1.700000X1.700000*%
G04 APERTURE END LIST*
%TO.C,R_Inv_1*%
G36*
G01*
X74847000Y-63140000D02*
X74847000Y-62590000D01*
G75*
G02*
X75047000Y-62390000I200000J0D01*
G01*
X75447000Y-62390000D01*
G75*
G02*
X75647000Y-62590000I0J-200000D01*
G01*
X75647000Y-63140000D01*
G75*
G02*
X75447000Y-63340000I-200000J0D01*
G01*
X75047000Y-63340000D01*
G75*
G02*
X74847000Y-63140000I0J200000D01*
G01*
G37*
G36*
G01*
X73197000Y-63140000D02*
X73197000Y-62590000D01*
G75*
G02*
X73397000Y-62390000I200000J0D01*
G01*
X73797000Y-62390000D01*
G75*
G02*
X73997000Y-62590000I0J-200000D01*
G01*
X73997000Y-63140000D01*
G75*
G02*
X73797000Y-63340000I-200000J0D01*
G01*
X73397000Y-63340000D01*
G75*
G02*
X73197000Y-63140000I0J200000D01*
G01*
G37*
%TD*%
D10*
%TO.C,U4*%
X74168000Y-53532000D03*
X75438000Y-53532000D03*
X76708000Y-53532000D03*
X77978000Y-53532000D03*
X79248000Y-53532000D03*
X80518000Y-53532000D03*
X81788000Y-53532000D03*
X81788000Y-58482000D03*
X80518000Y-58482000D03*
X79248000Y-58482000D03*
X77978000Y-58482000D03*
X76708000Y-58482000D03*
X75438000Y-58482000D03*
X74168000Y-58482000D03*
%TD*%
D11*
%TO.C,U3*%
X53064000Y-47114000D03*
X53064000Y-48514000D03*
X53064000Y-49914000D03*
X50614000Y-49914000D03*
X50614000Y-48514000D03*
X50614000Y-47114000D03*
%TD*%
D12*
%TO.C,U2*%
X68769000Y-33655000D03*
X68769000Y-34925000D03*
X68769000Y-36195000D03*
X68769000Y-37465000D03*
X68769000Y-38735000D03*
X68769000Y-40005000D03*
X68769000Y-41275000D03*
X63819000Y-41275000D03*
X63819000Y-40005000D03*
X63819000Y-38735000D03*
X63819000Y-37465000D03*
X63819000Y-36195000D03*
X63819000Y-34925000D03*
X63819000Y-33655000D03*
%TD*%
%TO.C,U1*%
X69780000Y-47879000D03*
X69780000Y-49149000D03*
X69780000Y-50419000D03*
X69780000Y-51689000D03*
X64840000Y-51689000D03*
X64840000Y-50419000D03*
X64840000Y-49149000D03*
X64840000Y-47879000D03*
%TD*%
D13*
%TO.C,J3*%
X88700000Y-45181000D03*
X88700000Y-50831000D03*
D14*
X88900000Y-48006000D03*
%TD*%
D13*
%TO.C,J1*%
X35760000Y-53371000D03*
X35760000Y-47721000D03*
D14*
X35560000Y-50546000D03*
%TD*%
D10*
%TO.C,IC2*%
X73914000Y-37784000D03*
X75184000Y-37784000D03*
X76454000Y-37784000D03*
X77724000Y-37784000D03*
X78994000Y-37784000D03*
X80264000Y-37784000D03*
X81534000Y-37784000D03*
X81534000Y-42734000D03*
X80264000Y-42734000D03*
X78994000Y-42734000D03*
X77724000Y-42734000D03*
X76454000Y-42734000D03*
X75184000Y-42734000D03*
X73914000Y-42734000D03*
%TD*%
%TO.C,C_Inv_4*%
G36*
G01*
X82621000Y-51621500D02*
X82621000Y-51121500D01*
G75*
G02*
X82846000Y-50896500I225000J0D01*
G01*
X83296000Y-50896500D01*
G75*
G02*
X83521000Y-51121500I0J-225000D01*
G01*
X83521000Y-51621500D01*
G75*
G02*
X83296000Y-51846500I-225000J0D01*
G01*
X82846000Y-51846500D01*
G75*
G02*
X82621000Y-51621500I0J225000D01*
G01*
G37*
G36*
G01*
X81071000Y-51621500D02*
X81071000Y-51121500D01*
G75*
G02*
X81296000Y-50896500I225000J0D01*
G01*
X81746000Y-50896500D01*
G75*
G02*
X81971000Y-51121500I0J-225000D01*
G01*
X81971000Y-51621500D01*
G75*
G02*
X81746000Y-51846500I-225000J0D01*
G01*
X81296000Y-51846500D01*
G75*
G02*
X81071000Y-51621500I0J225000D01*
G01*
G37*
%TD*%
%TO.C,C_Inv_3*%
G36*
G01*
X84014500Y-57284500D02*
X84514500Y-57284500D01*
G75*
G02*
X84739500Y-57509500I0J-225000D01*
G01*
X84739500Y-57959500D01*
G75*
G02*
X84514500Y-58184500I-225000J0D01*
G01*
X84014500Y-58184500D01*
G75*
G02*
X83789500Y-57959500I0J225000D01*
G01*
X83789500Y-57509500D01*
G75*
G02*
X84014500Y-57284500I225000J0D01*
G01*
G37*
G36*
G01*
X84014500Y-55734500D02*
X84514500Y-55734500D01*
G75*
G02*
X84739500Y-55959500I0J-225000D01*
G01*
X84739500Y-56409500D01*
G75*
G02*
X84514500Y-56634500I-225000J0D01*
G01*
X84014500Y-56634500D01*
G75*
G02*
X83789500Y-56409500I0J225000D01*
G01*
X83789500Y-55959500D01*
G75*
G02*
X84014500Y-55734500I225000J0D01*
G01*
G37*
%TD*%
%TO.C,C_Inv_2*%
G36*
G01*
X77653000Y-60964000D02*
X77653000Y-61464000D01*
G75*
G02*
X77428000Y-61689000I-225000J0D01*
G01*
X76978000Y-61689000D01*
G75*
G02*
X76753000Y-61464000I0J225000D01*
G01*
X76753000Y-60964000D01*
G75*
G02*
X76978000Y-60739000I225000J0D01*
G01*
X77428000Y-60739000D01*
G75*
G02*
X77653000Y-60964000I0J-225000D01*
G01*
G37*
G36*
G01*
X79203000Y-60964000D02*
X79203000Y-61464000D01*
G75*
G02*
X78978000Y-61689000I-225000J0D01*
G01*
X78528000Y-61689000D01*
G75*
G02*
X78303000Y-61464000I0J225000D01*
G01*
X78303000Y-60964000D01*
G75*
G02*
X78528000Y-60739000I225000J0D01*
G01*
X78978000Y-60739000D01*
G75*
G02*
X79203000Y-60964000I0J-225000D01*
G01*
G37*
%TD*%
%TO.C,C_Inv_1*%
G36*
G01*
X72573000Y-60964000D02*
X72573000Y-61464000D01*
G75*
G02*
X72348000Y-61689000I-225000J0D01*
G01*
X71898000Y-61689000D01*
G75*
G02*
X71673000Y-61464000I0J225000D01*
G01*
X71673000Y-60964000D01*
G75*
G02*
X71898000Y-60739000I225000J0D01*
G01*
X72348000Y-60739000D01*
G75*
G02*
X72573000Y-60964000I0J-225000D01*
G01*
G37*
G36*
G01*
X74123000Y-60964000D02*
X74123000Y-61464000D01*
G75*
G02*
X73898000Y-61689000I-225000J0D01*
G01*
X73448000Y-61689000D01*
G75*
G02*
X73223000Y-61464000I0J225000D01*
G01*
X73223000Y-60964000D01*
G75*
G02*
X73448000Y-60739000I225000J0D01*
G01*
X73898000Y-60739000D01*
G75*
G02*
X74123000Y-60964000I0J-225000D01*
G01*
G37*
%TD*%
%TO.C,R_Inv_4*%
G36*
G01*
X78823000Y-49509000D02*
X78823000Y-50059000D01*
G75*
G02*
X78623000Y-50259000I-200000J0D01*
G01*
X78223000Y-50259000D01*
G75*
G02*
X78023000Y-50059000I0J200000D01*
G01*
X78023000Y-49509000D01*
G75*
G02*
X78223000Y-49309000I200000J0D01*
G01*
X78623000Y-49309000D01*
G75*
G02*
X78823000Y-49509000I0J-200000D01*
G01*
G37*
G36*
G01*
X80473000Y-49509000D02*
X80473000Y-50059000D01*
G75*
G02*
X80273000Y-50259000I-200000J0D01*
G01*
X79873000Y-50259000D01*
G75*
G02*
X79673000Y-50059000I0J200000D01*
G01*
X79673000Y-49509000D01*
G75*
G02*
X79873000Y-49309000I200000J0D01*
G01*
X80273000Y-49309000D01*
G75*
G02*
X80473000Y-49509000I0J-200000D01*
G01*
G37*
%TD*%
%TO.C,R_Inv_3*%
G36*
G01*
X86571500Y-54883500D02*
X86021500Y-54883500D01*
G75*
G02*
X85821500Y-54683500I0J200000D01*
G01*
X85821500Y-54283500D01*
G75*
G02*
X86021500Y-54083500I200000J0D01*
G01*
X86571500Y-54083500D01*
G75*
G02*
X86771500Y-54283500I0J-200000D01*
G01*
X86771500Y-54683500D01*
G75*
G02*
X86571500Y-54883500I-200000J0D01*
G01*
G37*
G36*
G01*
X86571500Y-56533500D02*
X86021500Y-56533500D01*
G75*
G02*
X85821500Y-56333500I0J200000D01*
G01*
X85821500Y-55933500D01*
G75*
G02*
X86021500Y-55733500I200000J0D01*
G01*
X86571500Y-55733500D01*
G75*
G02*
X86771500Y-55933500I0J-200000D01*
G01*
X86771500Y-56333500D01*
G75*
G02*
X86571500Y-56533500I-200000J0D01*
G01*
G37*
%TD*%
%TO.C,R_Inv_2*%
G36*
G01*
X80054000Y-63394000D02*
X80054000Y-62844000D01*
G75*
G02*
X80254000Y-62644000I200000J0D01*
G01*
X80654000Y-62644000D01*
G75*
G02*
X80854000Y-62844000I0J-200000D01*
G01*
X80854000Y-63394000D01*
G75*
G02*
X80654000Y-63594000I-200000J0D01*
G01*
X80254000Y-63594000D01*
G75*
G02*
X80054000Y-63394000I0J200000D01*
G01*
G37*
G36*
G01*
X78404000Y-63394000D02*
X78404000Y-62844000D01*
G75*
G02*
X78604000Y-62644000I200000J0D01*
G01*
X79004000Y-62644000D01*
G75*
G02*
X79204000Y-62844000I0J-200000D01*
G01*
X79204000Y-63394000D01*
G75*
G02*
X79004000Y-63594000I-200000J0D01*
G01*
X78604000Y-63594000D01*
G75*
G02*
X78404000Y-63394000I0J200000D01*
G01*
G37*
%TD*%
D15*
%TO.C,Jout1*%
X86106000Y-38608000D03*
D16*
X86106000Y-41148000D03*
%TD*%
D15*
%TO.C,J2*%
X42672000Y-35052000D03*
D16*
X42672000Y-32512000D03*
%TD*%
%TO.C,Rout1*%
G36*
G01*
X78174002Y-46590000D02*
X77273998Y-46590000D01*
G75*
G02*
X77024000Y-46340002I0J249998D01*
G01*
X77024000Y-45814998D01*
G75*
G02*
X77273998Y-45565000I249998J0D01*
G01*
X78174002Y-45565000D01*
G75*
G02*
X78424000Y-45814998I0J-249998D01*
G01*
X78424000Y-46340002D01*
G75*
G02*
X78174002Y-46590000I-249998J0D01*
G01*
G37*
G36*
G01*
X78174002Y-48415000D02*
X77273998Y-48415000D01*
G75*
G02*
X77024000Y-48165002I0J249998D01*
G01*
X77024000Y-47639998D01*
G75*
G02*
X77273998Y-47390000I249998J0D01*
G01*
X78174002Y-47390000D01*
G75*
G02*
X78424000Y-47639998I0J-249998D01*
G01*
X78424000Y-48165002D01*
G75*
G02*
X78174002Y-48415000I-249998J0D01*
G01*
G37*
%TD*%
%TO.C,RJumper1*%
G36*
G01*
X51265500Y-54032998D02*
X51265500Y-54933002D01*
G75*
G02*
X51015502Y-55183000I-249998J0D01*
G01*
X50490498Y-55183000D01*
G75*
G02*
X50240500Y-54933002I0J249998D01*
G01*
X50240500Y-54032998D01*
G75*
G02*
X50490498Y-53783000I249998J0D01*
G01*
X51015502Y-53783000D01*
G75*
G02*
X51265500Y-54032998I0J-249998D01*
G01*
G37*
G36*
G01*
X53090500Y-54032998D02*
X53090500Y-54933002D01*
G75*
G02*
X52840502Y-55183000I-249998J0D01*
G01*
X52315498Y-55183000D01*
G75*
G02*
X52065500Y-54933002I0J249998D01*
G01*
X52065500Y-54032998D01*
G75*
G02*
X52315498Y-53783000I249998J0D01*
G01*
X52840502Y-53783000D01*
G75*
G02*
X53090500Y-54032998I0J-249998D01*
G01*
G37*
%TD*%
%TO.C,RFB2*%
G36*
G01*
X57588998Y-32785000D02*
X58489002Y-32785000D01*
G75*
G02*
X58739000Y-33034998I0J-249998D01*
G01*
X58739000Y-33560002D01*
G75*
G02*
X58489002Y-33810000I-249998J0D01*
G01*
X57588998Y-33810000D01*
G75*
G02*
X57339000Y-33560002I0J249998D01*
G01*
X57339000Y-33034998D01*
G75*
G02*
X57588998Y-32785000I249998J0D01*
G01*
G37*
G36*
G01*
X57588998Y-30960000D02*
X58489002Y-30960000D01*
G75*
G02*
X58739000Y-31209998I0J-249998D01*
G01*
X58739000Y-31735002D01*
G75*
G02*
X58489002Y-31985000I-249998J0D01*
G01*
X57588998Y-31985000D01*
G75*
G02*
X57339000Y-31735002I0J249998D01*
G01*
X57339000Y-31209998D01*
G75*
G02*
X57588998Y-30960000I249998J0D01*
G01*
G37*
%TD*%
%TO.C,R_CMG1*%
G36*
G01*
X63430998Y-30753000D02*
X64331002Y-30753000D01*
G75*
G02*
X64581000Y-31002998I0J-249998D01*
G01*
X64581000Y-31528002D01*
G75*
G02*
X64331002Y-31778000I-249998J0D01*
G01*
X63430998Y-31778000D01*
G75*
G02*
X63181000Y-31528002I0J249998D01*
G01*
X63181000Y-31002998D01*
G75*
G02*
X63430998Y-30753000I249998J0D01*
G01*
G37*
G36*
G01*
X63430998Y-28928000D02*
X64331002Y-28928000D01*
G75*
G02*
X64581000Y-29177998I0J-249998D01*
G01*
X64581000Y-29703002D01*
G75*
G02*
X64331002Y-29953000I-249998J0D01*
G01*
X63430998Y-29953000D01*
G75*
G02*
X63181000Y-29703002I0J249998D01*
G01*
X63181000Y-29177998D01*
G75*
G02*
X63430998Y-28928000I249998J0D01*
G01*
G37*
%TD*%
%TO.C,R4*%
G36*
G01*
X60255998Y-53486000D02*
X61156002Y-53486000D01*
G75*
G02*
X61406000Y-53735998I0J-249998D01*
G01*
X61406000Y-54261002D01*
G75*
G02*
X61156002Y-54511000I-249998J0D01*
G01*
X60255998Y-54511000D01*
G75*
G02*
X60006000Y-54261002I0J249998D01*
G01*
X60006000Y-53735998D01*
G75*
G02*
X60255998Y-53486000I249998J0D01*
G01*
G37*
G36*
G01*
X60255998Y-51661000D02*
X61156002Y-51661000D01*
G75*
G02*
X61406000Y-51910998I0J-249998D01*
G01*
X61406000Y-52436002D01*
G75*
G02*
X61156002Y-52686000I-249998J0D01*
G01*
X60255998Y-52686000D01*
G75*
G02*
X60006000Y-52436002I0J249998D01*
G01*
X60006000Y-51910998D01*
G75*
G02*
X60255998Y-51661000I249998J0D01*
G01*
G37*
%TD*%
%TO.C,R3*%
G36*
G01*
X60255998Y-48279000D02*
X61156002Y-48279000D01*
G75*
G02*
X61406000Y-48528998I0J-249998D01*
G01*
X61406000Y-49054002D01*
G75*
G02*
X61156002Y-49304000I-249998J0D01*
G01*
X60255998Y-49304000D01*
G75*
G02*
X60006000Y-49054002I0J249998D01*
G01*
X60006000Y-48528998D01*
G75*
G02*
X60255998Y-48279000I249998J0D01*
G01*
G37*
G36*
G01*
X60255998Y-46454000D02*
X61156002Y-46454000D01*
G75*
G02*
X61406000Y-46703998I0J-249998D01*
G01*
X61406000Y-47229002D01*
G75*
G02*
X61156002Y-47479000I-249998J0D01*
G01*
X60255998Y-47479000D01*
G75*
G02*
X60006000Y-47229002I0J249998D01*
G01*
X60006000Y-46703998D01*
G75*
G02*
X60255998Y-46454000I249998J0D01*
G01*
G37*
%TD*%
%TO.C,R2*%
G36*
G01*
X51619998Y-39262000D02*
X52520002Y-39262000D01*
G75*
G02*
X52770000Y-39511998I0J-249998D01*
G01*
X52770000Y-40037002D01*
G75*
G02*
X52520002Y-40287000I-249998J0D01*
G01*
X51619998Y-40287000D01*
G75*
G02*
X51370000Y-40037002I0J249998D01*
G01*
X51370000Y-39511998D01*
G75*
G02*
X51619998Y-39262000I249998J0D01*
G01*
G37*
G36*
G01*
X51619998Y-37437000D02*
X52520002Y-37437000D01*
G75*
G02*
X52770000Y-37686998I0J-249998D01*
G01*
X52770000Y-38212002D01*
G75*
G02*
X52520002Y-38462000I-249998J0D01*
G01*
X51619998Y-38462000D01*
G75*
G02*
X51370000Y-38212002I0J249998D01*
G01*
X51370000Y-37686998D01*
G75*
G02*
X51619998Y-37437000I249998J0D01*
G01*
G37*
%TD*%
%TO.C,R1*%
G36*
G01*
X51619998Y-33801000D02*
X52520002Y-33801000D01*
G75*
G02*
X52770000Y-34050998I0J-249998D01*
G01*
X52770000Y-34576002D01*
G75*
G02*
X52520002Y-34826000I-249998J0D01*
G01*
X51619998Y-34826000D01*
G75*
G02*
X51370000Y-34576002I0J249998D01*
G01*
X51370000Y-34050998D01*
G75*
G02*
X51619998Y-33801000I249998J0D01*
G01*
G37*
G36*
G01*
X51619998Y-31976000D02*
X52520002Y-31976000D01*
G75*
G02*
X52770000Y-32225998I0J-249998D01*
G01*
X52770000Y-32751002D01*
G75*
G02*
X52520002Y-33001000I-249998J0D01*
G01*
X51619998Y-33001000D01*
G75*
G02*
X51370000Y-32751002I0J249998D01*
G01*
X51370000Y-32225998D01*
G75*
G02*
X51619998Y-31976000I249998J0D01*
G01*
G37*
%TD*%
%TO.C,Cout1*%
G36*
G01*
X82009000Y-46540000D02*
X81059000Y-46540000D01*
G75*
G02*
X80809000Y-46290000I0J250000D01*
G01*
X80809000Y-45790000D01*
G75*
G02*
X81059000Y-45540000I250000J0D01*
G01*
X82009000Y-45540000D01*
G75*
G02*
X82259000Y-45790000I0J-250000D01*
G01*
X82259000Y-46290000D01*
G75*
G02*
X82009000Y-46540000I-250000J0D01*
G01*
G37*
G36*
G01*
X82009000Y-48440000D02*
X81059000Y-48440000D01*
G75*
G02*
X80809000Y-48190000I0J250000D01*
G01*
X80809000Y-47690000D01*
G75*
G02*
X81059000Y-47440000I250000J0D01*
G01*
X82009000Y-47440000D01*
G75*
G02*
X82259000Y-47690000I0J-250000D01*
G01*
X82259000Y-48190000D01*
G75*
G02*
X82009000Y-48440000I-250000J0D01*
G01*
G37*
%TD*%
%TO.C,Cin1*%
G36*
G01*
X57691000Y-37534000D02*
X58641000Y-37534000D01*
G75*
G02*
X58891000Y-37784000I0J-250000D01*
G01*
X58891000Y-38284000D01*
G75*
G02*
X58641000Y-38534000I-250000J0D01*
G01*
X57691000Y-38534000D01*
G75*
G02*
X57441000Y-38284000I0J250000D01*
G01*
X57441000Y-37784000D01*
G75*
G02*
X57691000Y-37534000I250000J0D01*
G01*
G37*
G36*
G01*
X57691000Y-35634000D02*
X58641000Y-35634000D01*
G75*
G02*
X58891000Y-35884000I0J-250000D01*
G01*
X58891000Y-36384000D01*
G75*
G02*
X58641000Y-36634000I-250000J0D01*
G01*
X57691000Y-36634000D01*
G75*
G02*
X57441000Y-36384000I0J250000D01*
G01*
X57441000Y-35884000D01*
G75*
G02*
X57691000Y-35634000I250000J0D01*
G01*
G37*
%TD*%
%TO.C,CC1*%
G36*
G01*
X47785000Y-29660000D02*
X48735000Y-29660000D01*
G75*
G02*
X48985000Y-29910000I0J-250000D01*
G01*
X48985000Y-30410000D01*
G75*
G02*
X48735000Y-30660000I-250000J0D01*
G01*
X47785000Y-30660000D01*
G75*
G02*
X47535000Y-30410000I0J250000D01*
G01*
X47535000Y-29910000D01*
G75*
G02*
X47785000Y-29660000I250000J0D01*
G01*
G37*
G36*
G01*
X47785000Y-27760000D02*
X48735000Y-27760000D01*
G75*
G02*
X48985000Y-28010000I0J-250000D01*
G01*
X48985000Y-28510000D01*
G75*
G02*
X48735000Y-28760000I-250000J0D01*
G01*
X47785000Y-28760000D01*
G75*
G02*
X47535000Y-28510000I0J250000D01*
G01*
X47535000Y-28010000D01*
G75*
G02*
X47785000Y-27760000I250000J0D01*
G01*
G37*
%TD*%
%TO.C,C_CMG1*%
G36*
G01*
X68105000Y-30803000D02*
X69055000Y-30803000D01*
G75*
G02*
X69305000Y-31053000I0J-250000D01*
G01*
X69305000Y-31553000D01*
G75*
G02*
X69055000Y-31803000I-250000J0D01*
G01*
X68105000Y-31803000D01*
G75*
G02*
X67855000Y-31553000I0J250000D01*
G01*
X67855000Y-31053000D01*
G75*
G02*
X68105000Y-30803000I250000J0D01*
G01*
G37*
G36*
G01*
X68105000Y-28903000D02*
X69055000Y-28903000D01*
G75*
G02*
X69305000Y-29153000I0J-250000D01*
G01*
X69305000Y-29653000D01*
G75*
G02*
X69055000Y-29903000I-250000J0D01*
G01*
X68105000Y-29903000D01*
G75*
G02*
X67855000Y-29653000I0J250000D01*
G01*
X67855000Y-29153000D01*
G75*
G02*
X68105000Y-28903000I250000J0D01*
G01*
G37*
%TD*%
%TO.C,C2*%
G36*
G01*
X72169000Y-30803000D02*
X73119000Y-30803000D01*
G75*
G02*
X73369000Y-31053000I0J-250000D01*
G01*
X73369000Y-31553000D01*
G75*
G02*
X73119000Y-31803000I-250000J0D01*
G01*
X72169000Y-31803000D01*
G75*
G02*
X71919000Y-31553000I0J250000D01*
G01*
X71919000Y-31053000D01*
G75*
G02*
X72169000Y-30803000I250000J0D01*
G01*
G37*
G36*
G01*
X72169000Y-28903000D02*
X73119000Y-28903000D01*
G75*
G02*
X73369000Y-29153000I0J-250000D01*
G01*
X73369000Y-29653000D01*
G75*
G02*
X73119000Y-29903000I-250000J0D01*
G01*
X72169000Y-29903000D01*
G75*
G02*
X71919000Y-29653000I0J250000D01*
G01*
X71919000Y-29153000D01*
G75*
G02*
X72169000Y-28903000I250000J0D01*
G01*
G37*
%TD*%
M02*
