%TF.GenerationSoftware,KiCad,Pcbnew,(5.1.9)-1*%
%TF.CreationDate,2021-02-06T18:12:04-05:00*%
%TF.ProjectId,DemodulatorCircuit,44656d6f-6475-46c6-9174-6f7243697263,rev?*%
%TF.SameCoordinates,Original*%
%TF.FileFunction,Copper,L2,Bot*%
%TF.FilePolarity,Positive*%
%FSLAX46Y46*%
G04 Gerber Fmt 4.6, Leading zero omitted, Abs format (unit mm)*
G04 Created by KiCad (PCBNEW (5.1.9)-1) date 2021-02-06 18:12:04*
%MOMM*%
%LPD*%
G01*
G04 APERTURE LIST*
%TA.AperFunction,SMDPad,CuDef*%
%ADD10R,4.200000X1.350000*%
%TD*%
%TA.AperFunction,ComponentPad*%
%ADD11O,1.700000X1.700000*%
%TD*%
%TA.AperFunction,ComponentPad*%
%ADD12R,1.700000X1.700000*%
%TD*%
%TA.AperFunction,ViaPad*%
%ADD13C,0.800000*%
%TD*%
%TA.AperFunction,Conductor*%
%ADD14C,1.000000*%
%TD*%
%TA.AperFunction,Conductor*%
%ADD15C,0.254000*%
%TD*%
%TA.AperFunction,Conductor*%
%ADD16C,0.100000*%
%TD*%
G04 APERTURE END LIST*
D10*
%TO.P,J3,3_2*%
%TO.N,GND*%
X105210000Y-32481000D03*
%TO.P,J3,2_2*%
X105210000Y-38131000D03*
%TD*%
%TO.P,J1,3_2*%
%TO.N,GND*%
X52270000Y-40671000D03*
%TO.P,J1,2_2*%
X52270000Y-35021000D03*
%TD*%
D11*
%TO.P,Jout1,2*%
%TO.N,GND*%
X102616000Y-25908000D03*
D12*
%TO.P,Jout1,1*%
%TO.N,/AudioSignalOut*%
X102616000Y-28448000D03*
%TD*%
D11*
%TO.P,J2,2*%
%TO.N,GND*%
X59182000Y-22352000D03*
D12*
%TO.P,J2,1*%
%TO.N,+5V*%
X59182000Y-19812000D03*
%TD*%
D13*
%TO.N,GND*%
X87884000Y-33528000D03*
X85344000Y-30480000D03*
X83312000Y-30480000D03*
X80772000Y-30480000D03*
X53010550Y-15800785D03*
X53010550Y-18800785D03*
X53010550Y-21800785D03*
X53010550Y-24800785D03*
X53010550Y-27800785D03*
X53010550Y-30800785D03*
X53010550Y-43800785D03*
X53010550Y-46800785D03*
X53010550Y-49800785D03*
X54010550Y-32800785D03*
X55010550Y-16800785D03*
X55010550Y-19800785D03*
X55010550Y-22800785D03*
X55010550Y-25800785D03*
X55010550Y-28800785D03*
X55010550Y-44800785D03*
X55010550Y-47800785D03*
X56010550Y-30800785D03*
X56010550Y-49800785D03*
X57010550Y-15800785D03*
X57010550Y-24800785D03*
X57010550Y-27800785D03*
X57010550Y-43800785D03*
X57010550Y-46800785D03*
X58010550Y-29800785D03*
X58010550Y-32800785D03*
X58010550Y-35800785D03*
X58010550Y-39800785D03*
X58010550Y-48800785D03*
X59010550Y-16800785D03*
X59010550Y-25800785D03*
X59010550Y-41800785D03*
X59010550Y-44800785D03*
X60010550Y-27800785D03*
X60010550Y-30800785D03*
X60010550Y-33800785D03*
X60010550Y-46800785D03*
X60010550Y-49800785D03*
X61010550Y-15800785D03*
X61010550Y-24800785D03*
X61010550Y-42800785D03*
X62010550Y-22800785D03*
X62010550Y-26800785D03*
X62010550Y-29800785D03*
X62010550Y-32800785D03*
X62010550Y-44800785D03*
X62010550Y-47800785D03*
X63010550Y-16800785D03*
X63010550Y-49800785D03*
X64010550Y-24800785D03*
X64010550Y-27800785D03*
X64010550Y-30800785D03*
X64010550Y-37800785D03*
X64010550Y-43800785D03*
X64010550Y-46800785D03*
X65010550Y-32800785D03*
X65010550Y-48800785D03*
X66010550Y-26800785D03*
X66010550Y-29800785D03*
X66010550Y-38800785D03*
X66010550Y-44800785D03*
X67010550Y-15800785D03*
X67010550Y-31800785D03*
X67010550Y-46800785D03*
X67010550Y-49800785D03*
X68010550Y-17800785D03*
X68010550Y-28800785D03*
X68010550Y-39800785D03*
X68010550Y-43800785D03*
X69010550Y-30800785D03*
X69010550Y-45800785D03*
X69010550Y-48800785D03*
X70010550Y-15800785D03*
X70010550Y-32800785D03*
X70010550Y-38800785D03*
X71010550Y-17800785D03*
X71010550Y-20800785D03*
X71010550Y-27800785D03*
X71010550Y-43800785D03*
X71010550Y-46800785D03*
X71010550Y-49800785D03*
X72010550Y-29800785D03*
X73010550Y-15800785D03*
X73010550Y-31800785D03*
X73010550Y-42800785D03*
X73010550Y-45800785D03*
X73010550Y-48800785D03*
X74010550Y-27800785D03*
X74010550Y-33800785D03*
X75010550Y-16800785D03*
X75010550Y-29800785D03*
X75010550Y-40800785D03*
X75010550Y-43800785D03*
X75010550Y-46800785D03*
X75010550Y-49800785D03*
X77010550Y-15800785D03*
X77010550Y-42800785D03*
X77010550Y-45800785D03*
X77010550Y-48800785D03*
X78010550Y-17800785D03*
X79010550Y-39800785D03*
X79010550Y-43800785D03*
X79010550Y-46800785D03*
X79010550Y-49800785D03*
X80010550Y-32800785D03*
X80010550Y-41800785D03*
X81010550Y-44800785D03*
X81010550Y-47800785D03*
X82010550Y-18800785D03*
X82010550Y-40800785D03*
X82010550Y-49800785D03*
X83010550Y-20800785D03*
X83010550Y-27800785D03*
X83010550Y-42800785D03*
X83010550Y-45800785D03*
X84010550Y-38800785D03*
X84010550Y-47800785D03*
X85010550Y-40800785D03*
X85010550Y-43800785D03*
X85010550Y-49800785D03*
X86010550Y-45800785D03*
X87010550Y-18800785D03*
X87010550Y-41800785D03*
X87010550Y-47800785D03*
X88010550Y-20800785D03*
X88010550Y-43800785D03*
X88010550Y-49800785D03*
X90010550Y-27800785D03*
X90010550Y-47800785D03*
X91010550Y-49800785D03*
X93010550Y-15800785D03*
X93010550Y-27800785D03*
X93010550Y-47800785D03*
X94010550Y-17800785D03*
X94010550Y-20800785D03*
X94010550Y-36800785D03*
X94010550Y-49800785D03*
X96010550Y-15800785D03*
X96010550Y-18800785D03*
X96010550Y-27800785D03*
X96010550Y-32800785D03*
X96010550Y-47800785D03*
X97010550Y-20800785D03*
X97010550Y-36800785D03*
X97010550Y-49800785D03*
X98010550Y-16800785D03*
X99010550Y-18800785D03*
X99010550Y-21800785D03*
X99010550Y-47800785D03*
X100010550Y-15800785D03*
X100010550Y-23800785D03*
X100010550Y-44800785D03*
X100010550Y-49800785D03*
X101010550Y-17800785D03*
X101010550Y-20800785D03*
X101010550Y-42800785D03*
X101010550Y-46800785D03*
X102010550Y-22800785D03*
X102010550Y-40800785D03*
X102010550Y-48800785D03*
X103010550Y-15800785D03*
X103010550Y-18800785D03*
X103010550Y-43800785D03*
X104010550Y-20800785D03*
X104010550Y-41800785D03*
X104010550Y-45800785D03*
X104010550Y-49800785D03*
X105010550Y-16800785D03*
X105010550Y-22800785D03*
X105010550Y-25800785D03*
X105010550Y-47800785D03*
%TO.N,+5V*%
X92456000Y-22860000D03*
X77470000Y-25400000D03*
X90678000Y-43434000D03*
X88900000Y-34544000D03*
%TD*%
D14*
%TO.N,+5V*%
X59182000Y-19812000D02*
X62484000Y-19812000D01*
X68072000Y-25400000D02*
X77470000Y-25400000D01*
X62484000Y-19812000D02*
X68072000Y-25400000D01*
X89916000Y-25400000D02*
X92456000Y-22860000D01*
X77470000Y-25400000D02*
X89916000Y-25400000D01*
X78631999Y-34943999D02*
X88500001Y-34943999D01*
X88500001Y-34943999D02*
X88900000Y-34544000D01*
X77470000Y-33782000D02*
X78631999Y-34943999D01*
X77470000Y-33782000D02*
X77470000Y-25400000D01*
X95377000Y-22860000D02*
X100330000Y-27813000D01*
X92456000Y-22860000D02*
X95377000Y-22860000D01*
X100330000Y-40386000D02*
X97282000Y-43434000D01*
X100330000Y-27813000D02*
X100330000Y-40386000D01*
X97282000Y-43434000D02*
X90678000Y-43434000D01*
%TD*%
D15*
%TO.N,GND*%
X107290001Y-31167962D02*
X105495750Y-31171000D01*
X105337000Y-31329750D01*
X105337000Y-32354000D01*
X105357000Y-32354000D01*
X105357000Y-32608000D01*
X105337000Y-32608000D01*
X105337000Y-33632250D01*
X105495750Y-33791000D01*
X107290000Y-33794038D01*
X107290000Y-36817962D01*
X105495750Y-36821000D01*
X105337000Y-36979750D01*
X105337000Y-38004000D01*
X105357000Y-38004000D01*
X105357000Y-38258000D01*
X105337000Y-38258000D01*
X105337000Y-39282250D01*
X105495750Y-39441000D01*
X107290000Y-39444038D01*
X107290000Y-51943000D01*
X50190000Y-51943000D01*
X50190000Y-41984038D01*
X51984250Y-41981000D01*
X52143000Y-41822250D01*
X52143000Y-40798000D01*
X52397000Y-40798000D01*
X52397000Y-41822250D01*
X52555750Y-41981000D01*
X54370000Y-41984072D01*
X54494482Y-41971812D01*
X54614180Y-41935502D01*
X54724494Y-41876537D01*
X54821185Y-41797185D01*
X54900537Y-41700494D01*
X54959502Y-41590180D01*
X54995812Y-41470482D01*
X55008072Y-41346000D01*
X55005000Y-40956750D01*
X54846250Y-40798000D01*
X52397000Y-40798000D01*
X52143000Y-40798000D01*
X52123000Y-40798000D01*
X52123000Y-40544000D01*
X52143000Y-40544000D01*
X52143000Y-39519750D01*
X52397000Y-39519750D01*
X52397000Y-40544000D01*
X54846250Y-40544000D01*
X55005000Y-40385250D01*
X55008072Y-39996000D01*
X54995812Y-39871518D01*
X54959502Y-39751820D01*
X54900537Y-39641506D01*
X54821185Y-39544815D01*
X54724494Y-39465463D01*
X54614180Y-39406498D01*
X54494482Y-39370188D01*
X54370000Y-39357928D01*
X52555750Y-39361000D01*
X52397000Y-39519750D01*
X52143000Y-39519750D01*
X51984250Y-39361000D01*
X50190000Y-39357962D01*
X50190000Y-36334038D01*
X51984250Y-36331000D01*
X52143000Y-36172250D01*
X52143000Y-35148000D01*
X52397000Y-35148000D01*
X52397000Y-36172250D01*
X52555750Y-36331000D01*
X54370000Y-36334072D01*
X54494482Y-36321812D01*
X54614180Y-36285502D01*
X54724494Y-36226537D01*
X54821185Y-36147185D01*
X54900537Y-36050494D01*
X54959502Y-35940180D01*
X54995812Y-35820482D01*
X55008072Y-35696000D01*
X55005000Y-35306750D01*
X54846250Y-35148000D01*
X52397000Y-35148000D01*
X52143000Y-35148000D01*
X52123000Y-35148000D01*
X52123000Y-34894000D01*
X52143000Y-34894000D01*
X52143000Y-33869750D01*
X52397000Y-33869750D01*
X52397000Y-34894000D01*
X54846250Y-34894000D01*
X55005000Y-34735250D01*
X55008072Y-34346000D01*
X54995812Y-34221518D01*
X54959502Y-34101820D01*
X54900537Y-33991506D01*
X54821185Y-33894815D01*
X54724494Y-33815463D01*
X54614180Y-33756498D01*
X54494482Y-33720188D01*
X54370000Y-33707928D01*
X52555750Y-33711000D01*
X52397000Y-33869750D01*
X52143000Y-33869750D01*
X51984250Y-33711000D01*
X50190000Y-33707962D01*
X50190000Y-22708890D01*
X57740524Y-22708890D01*
X57785175Y-22856099D01*
X57910359Y-23118920D01*
X58084412Y-23352269D01*
X58300645Y-23547178D01*
X58550748Y-23696157D01*
X58825109Y-23793481D01*
X59055000Y-23672814D01*
X59055000Y-22479000D01*
X59309000Y-22479000D01*
X59309000Y-23672814D01*
X59538891Y-23793481D01*
X59813252Y-23696157D01*
X60063355Y-23547178D01*
X60279588Y-23352269D01*
X60453641Y-23118920D01*
X60578825Y-22856099D01*
X60623476Y-22708890D01*
X60502155Y-22479000D01*
X59309000Y-22479000D01*
X59055000Y-22479000D01*
X57861845Y-22479000D01*
X57740524Y-22708890D01*
X50190000Y-22708890D01*
X50190000Y-18962000D01*
X57693928Y-18962000D01*
X57693928Y-20662000D01*
X57706188Y-20786482D01*
X57742498Y-20906180D01*
X57801463Y-21016494D01*
X57880815Y-21113185D01*
X57977506Y-21192537D01*
X58087820Y-21251502D01*
X58168466Y-21275966D01*
X58084412Y-21351731D01*
X57910359Y-21585080D01*
X57785175Y-21847901D01*
X57740524Y-21995110D01*
X57861845Y-22225000D01*
X59055000Y-22225000D01*
X59055000Y-22205000D01*
X59309000Y-22205000D01*
X59309000Y-22225000D01*
X60502155Y-22225000D01*
X60623476Y-21995110D01*
X60578825Y-21847901D01*
X60453641Y-21585080D01*
X60279588Y-21351731D01*
X60195534Y-21275966D01*
X60276180Y-21251502D01*
X60386494Y-21192537D01*
X60483185Y-21113185D01*
X60562537Y-21016494D01*
X60599683Y-20947000D01*
X62013869Y-20947000D01*
X67230009Y-26163141D01*
X67265551Y-26206449D01*
X67438377Y-26348284D01*
X67635553Y-26453676D01*
X67849501Y-26518577D01*
X68016248Y-26535000D01*
X68016257Y-26535000D01*
X68071999Y-26540490D01*
X68127741Y-26535000D01*
X76335001Y-26535000D01*
X76335000Y-33726248D01*
X76329509Y-33782000D01*
X76335000Y-33837751D01*
X76351423Y-34004498D01*
X76416324Y-34218446D01*
X76521716Y-34415623D01*
X76663551Y-34588449D01*
X76706864Y-34623996D01*
X77790007Y-35707139D01*
X77825550Y-35750448D01*
X77998375Y-35892282D01*
X77998376Y-35892283D01*
X78195552Y-35997675D01*
X78409500Y-36062576D01*
X78631999Y-36084490D01*
X78687751Y-36078999D01*
X88444250Y-36078999D01*
X88500001Y-36084490D01*
X88555752Y-36078999D01*
X88555753Y-36078999D01*
X88722500Y-36062576D01*
X88936448Y-35997675D01*
X89133624Y-35892283D01*
X89306450Y-35750448D01*
X89341997Y-35707134D01*
X89741988Y-35307143D01*
X89848283Y-35177622D01*
X89953676Y-34980446D01*
X90018577Y-34766499D01*
X90040491Y-34544001D01*
X90018577Y-34321502D01*
X89953676Y-34107554D01*
X89848283Y-33910378D01*
X89706448Y-33737552D01*
X89533622Y-33595717D01*
X89336446Y-33490324D01*
X89122498Y-33425423D01*
X88899999Y-33403509D01*
X88677501Y-33425423D01*
X88463554Y-33490324D01*
X88266378Y-33595717D01*
X88136857Y-33702012D01*
X88029870Y-33808999D01*
X79102131Y-33808999D01*
X78605000Y-33311869D01*
X78605000Y-26535000D01*
X89860249Y-26535000D01*
X89916000Y-26540491D01*
X89971751Y-26535000D01*
X89971752Y-26535000D01*
X90138499Y-26518577D01*
X90352447Y-26453676D01*
X90549623Y-26348284D01*
X90722449Y-26206449D01*
X90757996Y-26163135D01*
X92926132Y-23995000D01*
X94906869Y-23995000D01*
X99195000Y-28283132D01*
X99195001Y-39915867D01*
X96811869Y-42299000D01*
X90622248Y-42299000D01*
X90455501Y-42315423D01*
X90241553Y-42380324D01*
X90044377Y-42485716D01*
X89871551Y-42627551D01*
X89729716Y-42800377D01*
X89624324Y-42997553D01*
X89559423Y-43211501D01*
X89537509Y-43434000D01*
X89559423Y-43656499D01*
X89624324Y-43870447D01*
X89729716Y-44067623D01*
X89871551Y-44240449D01*
X90044377Y-44382284D01*
X90241553Y-44487676D01*
X90455501Y-44552577D01*
X90622248Y-44569000D01*
X97226249Y-44569000D01*
X97282000Y-44574491D01*
X97337751Y-44569000D01*
X97337752Y-44569000D01*
X97504499Y-44552577D01*
X97718447Y-44487676D01*
X97915623Y-44382284D01*
X98088449Y-44240449D01*
X98123996Y-44197135D01*
X101093141Y-41227991D01*
X101136449Y-41192449D01*
X101278284Y-41019623D01*
X101383676Y-40822447D01*
X101448577Y-40608499D01*
X101465000Y-40441752D01*
X101470491Y-40386000D01*
X101465000Y-40330249D01*
X101465000Y-38806000D01*
X102471928Y-38806000D01*
X102484188Y-38930482D01*
X102520498Y-39050180D01*
X102579463Y-39160494D01*
X102658815Y-39257185D01*
X102755506Y-39336537D01*
X102865820Y-39395502D01*
X102985518Y-39431812D01*
X103110000Y-39444072D01*
X104924250Y-39441000D01*
X105083000Y-39282250D01*
X105083000Y-38258000D01*
X102633750Y-38258000D01*
X102475000Y-38416750D01*
X102471928Y-38806000D01*
X101465000Y-38806000D01*
X101465000Y-37456000D01*
X102471928Y-37456000D01*
X102475000Y-37845250D01*
X102633750Y-38004000D01*
X105083000Y-38004000D01*
X105083000Y-36979750D01*
X104924250Y-36821000D01*
X103110000Y-36817928D01*
X102985518Y-36830188D01*
X102865820Y-36866498D01*
X102755506Y-36925463D01*
X102658815Y-37004815D01*
X102579463Y-37101506D01*
X102520498Y-37211820D01*
X102484188Y-37331518D01*
X102471928Y-37456000D01*
X101465000Y-37456000D01*
X101465000Y-33156000D01*
X102471928Y-33156000D01*
X102484188Y-33280482D01*
X102520498Y-33400180D01*
X102579463Y-33510494D01*
X102658815Y-33607185D01*
X102755506Y-33686537D01*
X102865820Y-33745502D01*
X102985518Y-33781812D01*
X103110000Y-33794072D01*
X104924250Y-33791000D01*
X105083000Y-33632250D01*
X105083000Y-32608000D01*
X102633750Y-32608000D01*
X102475000Y-32766750D01*
X102471928Y-33156000D01*
X101465000Y-33156000D01*
X101465000Y-31806000D01*
X102471928Y-31806000D01*
X102475000Y-32195250D01*
X102633750Y-32354000D01*
X105083000Y-32354000D01*
X105083000Y-31329750D01*
X104924250Y-31171000D01*
X103110000Y-31167928D01*
X102985518Y-31180188D01*
X102865820Y-31216498D01*
X102755506Y-31275463D01*
X102658815Y-31354815D01*
X102579463Y-31451506D01*
X102520498Y-31561820D01*
X102484188Y-31681518D01*
X102471928Y-31806000D01*
X101465000Y-31806000D01*
X101465000Y-29857131D01*
X101521820Y-29887502D01*
X101641518Y-29923812D01*
X101766000Y-29936072D01*
X103466000Y-29936072D01*
X103590482Y-29923812D01*
X103710180Y-29887502D01*
X103820494Y-29828537D01*
X103917185Y-29749185D01*
X103996537Y-29652494D01*
X104055502Y-29542180D01*
X104091812Y-29422482D01*
X104104072Y-29298000D01*
X104104072Y-27598000D01*
X104091812Y-27473518D01*
X104055502Y-27353820D01*
X103996537Y-27243506D01*
X103917185Y-27146815D01*
X103820494Y-27067463D01*
X103710180Y-27008498D01*
X103629534Y-26984034D01*
X103713588Y-26908269D01*
X103887641Y-26674920D01*
X104012825Y-26412099D01*
X104057476Y-26264890D01*
X103936155Y-26035000D01*
X102743000Y-26035000D01*
X102743000Y-26055000D01*
X102489000Y-26055000D01*
X102489000Y-26035000D01*
X101295845Y-26035000D01*
X101174524Y-26264890D01*
X101219175Y-26412099D01*
X101344359Y-26674920D01*
X101518412Y-26908269D01*
X101602466Y-26984034D01*
X101521820Y-27008498D01*
X101411506Y-27067463D01*
X101314815Y-27146815D01*
X101282152Y-27186615D01*
X101278284Y-27179377D01*
X101186438Y-27067463D01*
X101136449Y-27006551D01*
X101093141Y-26971009D01*
X99673242Y-25551110D01*
X101174524Y-25551110D01*
X101295845Y-25781000D01*
X102489000Y-25781000D01*
X102489000Y-24587186D01*
X102743000Y-24587186D01*
X102743000Y-25781000D01*
X103936155Y-25781000D01*
X104057476Y-25551110D01*
X104012825Y-25403901D01*
X103887641Y-25141080D01*
X103713588Y-24907731D01*
X103497355Y-24712822D01*
X103247252Y-24563843D01*
X102972891Y-24466519D01*
X102743000Y-24587186D01*
X102489000Y-24587186D01*
X102259109Y-24466519D01*
X101984748Y-24563843D01*
X101734645Y-24712822D01*
X101518412Y-24907731D01*
X101344359Y-25141080D01*
X101219175Y-25403901D01*
X101174524Y-25551110D01*
X99673242Y-25551110D01*
X96218996Y-22096865D01*
X96183449Y-22053551D01*
X96010623Y-21911716D01*
X95813447Y-21806324D01*
X95599499Y-21741423D01*
X95432752Y-21725000D01*
X95432751Y-21725000D01*
X95377000Y-21719509D01*
X95321249Y-21725000D01*
X92511741Y-21725000D01*
X92455999Y-21719510D01*
X92400257Y-21725000D01*
X92400248Y-21725000D01*
X92233501Y-21741423D01*
X92019553Y-21806324D01*
X91822377Y-21911716D01*
X91649551Y-22053551D01*
X91614009Y-22096859D01*
X89445869Y-24265000D01*
X77525752Y-24265000D01*
X77470000Y-24259509D01*
X77414249Y-24265000D01*
X68542132Y-24265000D01*
X63325996Y-19048865D01*
X63290449Y-19005551D01*
X63117623Y-18863716D01*
X62920447Y-18758324D01*
X62706499Y-18693423D01*
X62539752Y-18677000D01*
X62539751Y-18677000D01*
X62484000Y-18671509D01*
X62428249Y-18677000D01*
X60599683Y-18677000D01*
X60562537Y-18607506D01*
X60483185Y-18510815D01*
X60386494Y-18431463D01*
X60276180Y-18372498D01*
X60156482Y-18336188D01*
X60032000Y-18323928D01*
X58332000Y-18323928D01*
X58207518Y-18336188D01*
X58087820Y-18372498D01*
X57977506Y-18431463D01*
X57880815Y-18510815D01*
X57801463Y-18607506D01*
X57742498Y-18717820D01*
X57706188Y-18837518D01*
X57693928Y-18962000D01*
X50190000Y-18962000D01*
X50190000Y-14097000D01*
X107290001Y-14097000D01*
X107290001Y-31167962D01*
%TA.AperFunction,Conductor*%
D16*
G36*
X107290001Y-31167962D02*
G01*
X105495750Y-31171000D01*
X105337000Y-31329750D01*
X105337000Y-32354000D01*
X105357000Y-32354000D01*
X105357000Y-32608000D01*
X105337000Y-32608000D01*
X105337000Y-33632250D01*
X105495750Y-33791000D01*
X107290000Y-33794038D01*
X107290000Y-36817962D01*
X105495750Y-36821000D01*
X105337000Y-36979750D01*
X105337000Y-38004000D01*
X105357000Y-38004000D01*
X105357000Y-38258000D01*
X105337000Y-38258000D01*
X105337000Y-39282250D01*
X105495750Y-39441000D01*
X107290000Y-39444038D01*
X107290000Y-51943000D01*
X50190000Y-51943000D01*
X50190000Y-41984038D01*
X51984250Y-41981000D01*
X52143000Y-41822250D01*
X52143000Y-40798000D01*
X52397000Y-40798000D01*
X52397000Y-41822250D01*
X52555750Y-41981000D01*
X54370000Y-41984072D01*
X54494482Y-41971812D01*
X54614180Y-41935502D01*
X54724494Y-41876537D01*
X54821185Y-41797185D01*
X54900537Y-41700494D01*
X54959502Y-41590180D01*
X54995812Y-41470482D01*
X55008072Y-41346000D01*
X55005000Y-40956750D01*
X54846250Y-40798000D01*
X52397000Y-40798000D01*
X52143000Y-40798000D01*
X52123000Y-40798000D01*
X52123000Y-40544000D01*
X52143000Y-40544000D01*
X52143000Y-39519750D01*
X52397000Y-39519750D01*
X52397000Y-40544000D01*
X54846250Y-40544000D01*
X55005000Y-40385250D01*
X55008072Y-39996000D01*
X54995812Y-39871518D01*
X54959502Y-39751820D01*
X54900537Y-39641506D01*
X54821185Y-39544815D01*
X54724494Y-39465463D01*
X54614180Y-39406498D01*
X54494482Y-39370188D01*
X54370000Y-39357928D01*
X52555750Y-39361000D01*
X52397000Y-39519750D01*
X52143000Y-39519750D01*
X51984250Y-39361000D01*
X50190000Y-39357962D01*
X50190000Y-36334038D01*
X51984250Y-36331000D01*
X52143000Y-36172250D01*
X52143000Y-35148000D01*
X52397000Y-35148000D01*
X52397000Y-36172250D01*
X52555750Y-36331000D01*
X54370000Y-36334072D01*
X54494482Y-36321812D01*
X54614180Y-36285502D01*
X54724494Y-36226537D01*
X54821185Y-36147185D01*
X54900537Y-36050494D01*
X54959502Y-35940180D01*
X54995812Y-35820482D01*
X55008072Y-35696000D01*
X55005000Y-35306750D01*
X54846250Y-35148000D01*
X52397000Y-35148000D01*
X52143000Y-35148000D01*
X52123000Y-35148000D01*
X52123000Y-34894000D01*
X52143000Y-34894000D01*
X52143000Y-33869750D01*
X52397000Y-33869750D01*
X52397000Y-34894000D01*
X54846250Y-34894000D01*
X55005000Y-34735250D01*
X55008072Y-34346000D01*
X54995812Y-34221518D01*
X54959502Y-34101820D01*
X54900537Y-33991506D01*
X54821185Y-33894815D01*
X54724494Y-33815463D01*
X54614180Y-33756498D01*
X54494482Y-33720188D01*
X54370000Y-33707928D01*
X52555750Y-33711000D01*
X52397000Y-33869750D01*
X52143000Y-33869750D01*
X51984250Y-33711000D01*
X50190000Y-33707962D01*
X50190000Y-22708890D01*
X57740524Y-22708890D01*
X57785175Y-22856099D01*
X57910359Y-23118920D01*
X58084412Y-23352269D01*
X58300645Y-23547178D01*
X58550748Y-23696157D01*
X58825109Y-23793481D01*
X59055000Y-23672814D01*
X59055000Y-22479000D01*
X59309000Y-22479000D01*
X59309000Y-23672814D01*
X59538891Y-23793481D01*
X59813252Y-23696157D01*
X60063355Y-23547178D01*
X60279588Y-23352269D01*
X60453641Y-23118920D01*
X60578825Y-22856099D01*
X60623476Y-22708890D01*
X60502155Y-22479000D01*
X59309000Y-22479000D01*
X59055000Y-22479000D01*
X57861845Y-22479000D01*
X57740524Y-22708890D01*
X50190000Y-22708890D01*
X50190000Y-18962000D01*
X57693928Y-18962000D01*
X57693928Y-20662000D01*
X57706188Y-20786482D01*
X57742498Y-20906180D01*
X57801463Y-21016494D01*
X57880815Y-21113185D01*
X57977506Y-21192537D01*
X58087820Y-21251502D01*
X58168466Y-21275966D01*
X58084412Y-21351731D01*
X57910359Y-21585080D01*
X57785175Y-21847901D01*
X57740524Y-21995110D01*
X57861845Y-22225000D01*
X59055000Y-22225000D01*
X59055000Y-22205000D01*
X59309000Y-22205000D01*
X59309000Y-22225000D01*
X60502155Y-22225000D01*
X60623476Y-21995110D01*
X60578825Y-21847901D01*
X60453641Y-21585080D01*
X60279588Y-21351731D01*
X60195534Y-21275966D01*
X60276180Y-21251502D01*
X60386494Y-21192537D01*
X60483185Y-21113185D01*
X60562537Y-21016494D01*
X60599683Y-20947000D01*
X62013869Y-20947000D01*
X67230009Y-26163141D01*
X67265551Y-26206449D01*
X67438377Y-26348284D01*
X67635553Y-26453676D01*
X67849501Y-26518577D01*
X68016248Y-26535000D01*
X68016257Y-26535000D01*
X68071999Y-26540490D01*
X68127741Y-26535000D01*
X76335001Y-26535000D01*
X76335000Y-33726248D01*
X76329509Y-33782000D01*
X76335000Y-33837751D01*
X76351423Y-34004498D01*
X76416324Y-34218446D01*
X76521716Y-34415623D01*
X76663551Y-34588449D01*
X76706864Y-34623996D01*
X77790007Y-35707139D01*
X77825550Y-35750448D01*
X77998375Y-35892282D01*
X77998376Y-35892283D01*
X78195552Y-35997675D01*
X78409500Y-36062576D01*
X78631999Y-36084490D01*
X78687751Y-36078999D01*
X88444250Y-36078999D01*
X88500001Y-36084490D01*
X88555752Y-36078999D01*
X88555753Y-36078999D01*
X88722500Y-36062576D01*
X88936448Y-35997675D01*
X89133624Y-35892283D01*
X89306450Y-35750448D01*
X89341997Y-35707134D01*
X89741988Y-35307143D01*
X89848283Y-35177622D01*
X89953676Y-34980446D01*
X90018577Y-34766499D01*
X90040491Y-34544001D01*
X90018577Y-34321502D01*
X89953676Y-34107554D01*
X89848283Y-33910378D01*
X89706448Y-33737552D01*
X89533622Y-33595717D01*
X89336446Y-33490324D01*
X89122498Y-33425423D01*
X88899999Y-33403509D01*
X88677501Y-33425423D01*
X88463554Y-33490324D01*
X88266378Y-33595717D01*
X88136857Y-33702012D01*
X88029870Y-33808999D01*
X79102131Y-33808999D01*
X78605000Y-33311869D01*
X78605000Y-26535000D01*
X89860249Y-26535000D01*
X89916000Y-26540491D01*
X89971751Y-26535000D01*
X89971752Y-26535000D01*
X90138499Y-26518577D01*
X90352447Y-26453676D01*
X90549623Y-26348284D01*
X90722449Y-26206449D01*
X90757996Y-26163135D01*
X92926132Y-23995000D01*
X94906869Y-23995000D01*
X99195000Y-28283132D01*
X99195001Y-39915867D01*
X96811869Y-42299000D01*
X90622248Y-42299000D01*
X90455501Y-42315423D01*
X90241553Y-42380324D01*
X90044377Y-42485716D01*
X89871551Y-42627551D01*
X89729716Y-42800377D01*
X89624324Y-42997553D01*
X89559423Y-43211501D01*
X89537509Y-43434000D01*
X89559423Y-43656499D01*
X89624324Y-43870447D01*
X89729716Y-44067623D01*
X89871551Y-44240449D01*
X90044377Y-44382284D01*
X90241553Y-44487676D01*
X90455501Y-44552577D01*
X90622248Y-44569000D01*
X97226249Y-44569000D01*
X97282000Y-44574491D01*
X97337751Y-44569000D01*
X97337752Y-44569000D01*
X97504499Y-44552577D01*
X97718447Y-44487676D01*
X97915623Y-44382284D01*
X98088449Y-44240449D01*
X98123996Y-44197135D01*
X101093141Y-41227991D01*
X101136449Y-41192449D01*
X101278284Y-41019623D01*
X101383676Y-40822447D01*
X101448577Y-40608499D01*
X101465000Y-40441752D01*
X101470491Y-40386000D01*
X101465000Y-40330249D01*
X101465000Y-38806000D01*
X102471928Y-38806000D01*
X102484188Y-38930482D01*
X102520498Y-39050180D01*
X102579463Y-39160494D01*
X102658815Y-39257185D01*
X102755506Y-39336537D01*
X102865820Y-39395502D01*
X102985518Y-39431812D01*
X103110000Y-39444072D01*
X104924250Y-39441000D01*
X105083000Y-39282250D01*
X105083000Y-38258000D01*
X102633750Y-38258000D01*
X102475000Y-38416750D01*
X102471928Y-38806000D01*
X101465000Y-38806000D01*
X101465000Y-37456000D01*
X102471928Y-37456000D01*
X102475000Y-37845250D01*
X102633750Y-38004000D01*
X105083000Y-38004000D01*
X105083000Y-36979750D01*
X104924250Y-36821000D01*
X103110000Y-36817928D01*
X102985518Y-36830188D01*
X102865820Y-36866498D01*
X102755506Y-36925463D01*
X102658815Y-37004815D01*
X102579463Y-37101506D01*
X102520498Y-37211820D01*
X102484188Y-37331518D01*
X102471928Y-37456000D01*
X101465000Y-37456000D01*
X101465000Y-33156000D01*
X102471928Y-33156000D01*
X102484188Y-33280482D01*
X102520498Y-33400180D01*
X102579463Y-33510494D01*
X102658815Y-33607185D01*
X102755506Y-33686537D01*
X102865820Y-33745502D01*
X102985518Y-33781812D01*
X103110000Y-33794072D01*
X104924250Y-33791000D01*
X105083000Y-33632250D01*
X105083000Y-32608000D01*
X102633750Y-32608000D01*
X102475000Y-32766750D01*
X102471928Y-33156000D01*
X101465000Y-33156000D01*
X101465000Y-31806000D01*
X102471928Y-31806000D01*
X102475000Y-32195250D01*
X102633750Y-32354000D01*
X105083000Y-32354000D01*
X105083000Y-31329750D01*
X104924250Y-31171000D01*
X103110000Y-31167928D01*
X102985518Y-31180188D01*
X102865820Y-31216498D01*
X102755506Y-31275463D01*
X102658815Y-31354815D01*
X102579463Y-31451506D01*
X102520498Y-31561820D01*
X102484188Y-31681518D01*
X102471928Y-31806000D01*
X101465000Y-31806000D01*
X101465000Y-29857131D01*
X101521820Y-29887502D01*
X101641518Y-29923812D01*
X101766000Y-29936072D01*
X103466000Y-29936072D01*
X103590482Y-29923812D01*
X103710180Y-29887502D01*
X103820494Y-29828537D01*
X103917185Y-29749185D01*
X103996537Y-29652494D01*
X104055502Y-29542180D01*
X104091812Y-29422482D01*
X104104072Y-29298000D01*
X104104072Y-27598000D01*
X104091812Y-27473518D01*
X104055502Y-27353820D01*
X103996537Y-27243506D01*
X103917185Y-27146815D01*
X103820494Y-27067463D01*
X103710180Y-27008498D01*
X103629534Y-26984034D01*
X103713588Y-26908269D01*
X103887641Y-26674920D01*
X104012825Y-26412099D01*
X104057476Y-26264890D01*
X103936155Y-26035000D01*
X102743000Y-26035000D01*
X102743000Y-26055000D01*
X102489000Y-26055000D01*
X102489000Y-26035000D01*
X101295845Y-26035000D01*
X101174524Y-26264890D01*
X101219175Y-26412099D01*
X101344359Y-26674920D01*
X101518412Y-26908269D01*
X101602466Y-26984034D01*
X101521820Y-27008498D01*
X101411506Y-27067463D01*
X101314815Y-27146815D01*
X101282152Y-27186615D01*
X101278284Y-27179377D01*
X101186438Y-27067463D01*
X101136449Y-27006551D01*
X101093141Y-26971009D01*
X99673242Y-25551110D01*
X101174524Y-25551110D01*
X101295845Y-25781000D01*
X102489000Y-25781000D01*
X102489000Y-24587186D01*
X102743000Y-24587186D01*
X102743000Y-25781000D01*
X103936155Y-25781000D01*
X104057476Y-25551110D01*
X104012825Y-25403901D01*
X103887641Y-25141080D01*
X103713588Y-24907731D01*
X103497355Y-24712822D01*
X103247252Y-24563843D01*
X102972891Y-24466519D01*
X102743000Y-24587186D01*
X102489000Y-24587186D01*
X102259109Y-24466519D01*
X101984748Y-24563843D01*
X101734645Y-24712822D01*
X101518412Y-24907731D01*
X101344359Y-25141080D01*
X101219175Y-25403901D01*
X101174524Y-25551110D01*
X99673242Y-25551110D01*
X96218996Y-22096865D01*
X96183449Y-22053551D01*
X96010623Y-21911716D01*
X95813447Y-21806324D01*
X95599499Y-21741423D01*
X95432752Y-21725000D01*
X95432751Y-21725000D01*
X95377000Y-21719509D01*
X95321249Y-21725000D01*
X92511741Y-21725000D01*
X92455999Y-21719510D01*
X92400257Y-21725000D01*
X92400248Y-21725000D01*
X92233501Y-21741423D01*
X92019553Y-21806324D01*
X91822377Y-21911716D01*
X91649551Y-22053551D01*
X91614009Y-22096859D01*
X89445869Y-24265000D01*
X77525752Y-24265000D01*
X77470000Y-24259509D01*
X77414249Y-24265000D01*
X68542132Y-24265000D01*
X63325996Y-19048865D01*
X63290449Y-19005551D01*
X63117623Y-18863716D01*
X62920447Y-18758324D01*
X62706499Y-18693423D01*
X62539752Y-18677000D01*
X62539751Y-18677000D01*
X62484000Y-18671509D01*
X62428249Y-18677000D01*
X60599683Y-18677000D01*
X60562537Y-18607506D01*
X60483185Y-18510815D01*
X60386494Y-18431463D01*
X60276180Y-18372498D01*
X60156482Y-18336188D01*
X60032000Y-18323928D01*
X58332000Y-18323928D01*
X58207518Y-18336188D01*
X58087820Y-18372498D01*
X57977506Y-18431463D01*
X57880815Y-18510815D01*
X57801463Y-18607506D01*
X57742498Y-18717820D01*
X57706188Y-18837518D01*
X57693928Y-18962000D01*
X50190000Y-18962000D01*
X50190000Y-14097000D01*
X107290001Y-14097000D01*
X107290001Y-31167962D01*
G37*
%TD.AperFunction*%
%TD*%
M02*
