%TF.GenerationSoftware,KiCad,Pcbnew,(5.1.9)-1*%
%TF.CreationDate,2021-02-06T18:12:04-05:00*%
%TF.ProjectId,DemodulatorCircuit,44656d6f-6475-46c6-9174-6f7243697263,rev?*%
%TF.SameCoordinates,Original*%
%TF.FileFunction,Copper,L1,Top*%
%TF.FilePolarity,Positive*%
%FSLAX46Y46*%
G04 Gerber Fmt 4.6, Leading zero omitted, Abs format (unit mm)*
G04 Created by KiCad (PCBNEW (5.1.9)-1) date 2021-02-06 18:12:04*
%MOMM*%
%LPD*%
G01*
G04 APERTURE LIST*
%TA.AperFunction,SMDPad,CuDef*%
%ADD10R,0.600000X1.970000*%
%TD*%
%TA.AperFunction,SMDPad,CuDef*%
%ADD11R,1.050000X0.800000*%
%TD*%
%TA.AperFunction,SMDPad,CuDef*%
%ADD12R,1.970000X0.600000*%
%TD*%
%TA.AperFunction,SMDPad,CuDef*%
%ADD13R,4.200000X1.350000*%
%TD*%
%TA.AperFunction,SMDPad,CuDef*%
%ADD14R,3.600000X1.270000*%
%TD*%
%TA.AperFunction,ComponentPad*%
%ADD15O,1.700000X1.700000*%
%TD*%
%TA.AperFunction,ComponentPad*%
%ADD16R,1.700000X1.700000*%
%TD*%
%TA.AperFunction,ViaPad*%
%ADD17C,0.800000*%
%TD*%
%TA.AperFunction,Conductor*%
%ADD18C,1.000000*%
%TD*%
%TA.AperFunction,Conductor*%
%ADD19C,0.250000*%
%TD*%
%TA.AperFunction,Conductor*%
%ADD20C,0.500000*%
%TD*%
%TA.AperFunction,Conductor*%
%ADD21C,0.750000*%
%TD*%
%TA.AperFunction,Conductor*%
%ADD22C,0.254000*%
%TD*%
%TA.AperFunction,Conductor*%
%ADD23C,0.100000*%
%TD*%
G04 APERTURE END LIST*
D10*
%TO.P,U4,14*%
%TO.N,+5V*%
X90678000Y-40832000D03*
%TO.P,U4,13*%
%TO.N,/5Y*%
X91948000Y-40832000D03*
%TO.P,U4,12*%
%TO.N,/IFQ_LIM*%
X93218000Y-40832000D03*
%TO.P,U4,11*%
%TO.N,/4Y*%
X94488000Y-40832000D03*
%TO.P,U4,10*%
%TO.N,/5Y*%
X95758000Y-40832000D03*
%TO.P,U4,9*%
%TO.N,/3Y*%
X97028000Y-40832000D03*
%TO.P,U4,8*%
%TO.N,/4Y*%
X98298000Y-40832000D03*
%TO.P,U4,7*%
%TO.N,GND*%
X98298000Y-45782000D03*
%TO.P,U4,6*%
%TO.N,/3Y*%
X97028000Y-45782000D03*
%TO.P,U4,5*%
%TO.N,/2Y*%
X95758000Y-45782000D03*
%TO.P,U4,4*%
X94488000Y-45782000D03*
%TO.P,U4,3*%
%TO.N,/1Y*%
X93218000Y-45782000D03*
%TO.P,U4,2*%
X91948000Y-45782000D03*
%TO.P,U4,1*%
%TO.N,/IF_Lim*%
X90678000Y-45782000D03*
%TD*%
D11*
%TO.P,U3,6*%
%TO.N,/FilteredIF*%
X69574000Y-34414000D03*
%TO.P,U3,5*%
%TO.N,GND*%
X69574000Y-35814000D03*
%TO.P,U3,4*%
%TO.N,Net-(U3-Pad4)*%
X69574000Y-37214000D03*
%TO.P,U3,3*%
%TO.N,Net-(U3-Pad3)*%
X67124000Y-37214000D03*
%TO.P,U3,2*%
%TO.N,GND*%
X67124000Y-35814000D03*
%TO.P,U3,1*%
%TO.N,Net-(J1-Pad1)*%
X67124000Y-34414000D03*
%TD*%
D12*
%TO.P,U2,14*%
%TO.N,Net-(U2-Pad14)*%
X85279000Y-20955000D03*
%TO.P,U2,13*%
%TO.N,Net-(U2-Pad13)*%
X85279000Y-22225000D03*
%TO.P,U2,12*%
%TO.N,Net-(U2-Pad12)*%
X85279000Y-23495000D03*
%TO.P,U2,11*%
%TO.N,GND*%
X85279000Y-24765000D03*
%TO.P,U2,10*%
%TO.N,Net-(U2-Pad10)*%
X85279000Y-26035000D03*
%TO.P,U2,9*%
%TO.N,Net-(U2-Pad9)*%
X85279000Y-27305000D03*
%TO.P,U2,8*%
%TO.N,Net-(U2-Pad8)*%
X85279000Y-28575000D03*
%TO.P,U2,7*%
%TO.N,Net-(U2-Pad7)*%
X80329000Y-28575000D03*
%TO.P,U2,6*%
%TO.N,Net-(U2-Pad6)*%
X80329000Y-27305000D03*
%TO.P,U2,5*%
%TO.N,Net-(U2-Pad5)*%
X80329000Y-26035000D03*
%TO.P,U2,4*%
%TO.N,+5V*%
X80329000Y-24765000D03*
%TO.P,U2,3*%
%TO.N,Net-(Cin1-Pad1)*%
X80329000Y-23495000D03*
%TO.P,U2,2*%
%TO.N,Net-(RFB2-Pad2)*%
X80329000Y-22225000D03*
%TO.P,U2,1*%
%TO.N,/CMGOUT*%
X80329000Y-20955000D03*
%TD*%
%TO.P,U1,8*%
%TO.N,GND*%
X86290000Y-35179000D03*
%TO.P,U1,7*%
%TO.N,+5V*%
X86290000Y-36449000D03*
%TO.P,U1,6*%
%TO.N,/IF_Lim*%
X86290000Y-37719000D03*
%TO.P,U1,5*%
%TO.N,N/C*%
X86290000Y-38989000D03*
%TO.P,U1,4*%
%TO.N,GND*%
X81350000Y-38989000D03*
%TO.P,U1,3*%
%TO.N,/FilteredIF*%
X81350000Y-37719000D03*
%TO.P,U1,2*%
%TO.N,/CMG*%
X81350000Y-36449000D03*
%TO.P,U1,1*%
%TO.N,N/C*%
X81350000Y-35179000D03*
%TD*%
D13*
%TO.P,J3,3_1*%
%TO.N,GND*%
X105210000Y-32481000D03*
%TO.P,J3,2_1*%
X105210000Y-38131000D03*
D14*
%TO.P,J3,1*%
%TO.N,/AudioSignalOut*%
X105410000Y-35306000D03*
%TD*%
D13*
%TO.P,J1,3_1*%
%TO.N,GND*%
X52270000Y-40671000D03*
%TO.P,J1,2_1*%
X52270000Y-35021000D03*
D14*
%TO.P,J1,1*%
%TO.N,Net-(J1-Pad1)*%
X52070000Y-37846000D03*
%TD*%
D10*
%TO.P,IC2,14*%
%TO.N,+5V*%
X90424000Y-25084000D03*
%TO.P,IC2,13*%
%TO.N,Net-(IC2-Pad13)*%
X91694000Y-25084000D03*
%TO.P,IC2,12*%
%TO.N,Net-(IC2-Pad12)*%
X92964000Y-25084000D03*
%TO.P,IC2,11*%
%TO.N,Net-(IC2-Pad11)*%
X94234000Y-25084000D03*
%TO.P,IC2,10*%
%TO.N,Net-(IC2-Pad10)*%
X95504000Y-25084000D03*
%TO.P,IC2,9*%
%TO.N,Net-(IC2-Pad9)*%
X96774000Y-25084000D03*
%TO.P,IC2,8*%
%TO.N,Net-(IC2-Pad8)*%
X98044000Y-25084000D03*
%TO.P,IC2,7*%
%TO.N,GND*%
X98044000Y-30034000D03*
%TO.P,IC2,6*%
%TO.N,Net-(IC2-Pad6)*%
X96774000Y-30034000D03*
%TO.P,IC2,5*%
%TO.N,Net-(IC2-Pad5)*%
X95504000Y-30034000D03*
%TO.P,IC2,4*%
%TO.N,Net-(IC2-Pad4)*%
X94234000Y-30034000D03*
%TO.P,IC2,3*%
%TO.N,Net-(IC2-Pad3)*%
X92964000Y-30034000D03*
%TO.P,IC2,2*%
%TO.N,/IFQ_LIM*%
X91694000Y-30034000D03*
%TO.P,IC2,1*%
%TO.N,/IF_Lim*%
X90424000Y-30034000D03*
%TD*%
D15*
%TO.P,Jout1,2*%
%TO.N,GND*%
X102616000Y-25908000D03*
D16*
%TO.P,Jout1,1*%
%TO.N,/AudioSignalOut*%
X102616000Y-28448000D03*
%TD*%
D15*
%TO.P,J2,2*%
%TO.N,GND*%
X59182000Y-22352000D03*
D16*
%TO.P,J2,1*%
%TO.N,+5V*%
X59182000Y-19812000D03*
%TD*%
%TO.P,Rout1,2*%
%TO.N,Net-(IC2-Pad3)*%
%TA.AperFunction,SMDPad,CuDef*%
G36*
G01*
X94684001Y-33890000D02*
X93783999Y-33890000D01*
G75*
G02*
X93534000Y-33640001I0J249999D01*
G01*
X93534000Y-33114999D01*
G75*
G02*
X93783999Y-32865000I249999J0D01*
G01*
X94684001Y-32865000D01*
G75*
G02*
X94934000Y-33114999I0J-249999D01*
G01*
X94934000Y-33640001D01*
G75*
G02*
X94684001Y-33890000I-249999J0D01*
G01*
G37*
%TD.AperFunction*%
%TO.P,Rout1,1*%
%TO.N,/AudioSignalOut*%
%TA.AperFunction,SMDPad,CuDef*%
G36*
G01*
X94684001Y-35715000D02*
X93783999Y-35715000D01*
G75*
G02*
X93534000Y-35465001I0J249999D01*
G01*
X93534000Y-34939999D01*
G75*
G02*
X93783999Y-34690000I249999J0D01*
G01*
X94684001Y-34690000D01*
G75*
G02*
X94934000Y-34939999I0J-249999D01*
G01*
X94934000Y-35465001D01*
G75*
G02*
X94684001Y-35715000I-249999J0D01*
G01*
G37*
%TD.AperFunction*%
%TD*%
%TO.P,RJumper1,2*%
%TO.N,Net-(J1-Pad1)*%
%TA.AperFunction,SMDPad,CuDef*%
G36*
G01*
X67775500Y-41332999D02*
X67775500Y-42233001D01*
G75*
G02*
X67525501Y-42483000I-249999J0D01*
G01*
X67000499Y-42483000D01*
G75*
G02*
X66750500Y-42233001I0J249999D01*
G01*
X66750500Y-41332999D01*
G75*
G02*
X67000499Y-41083000I249999J0D01*
G01*
X67525501Y-41083000D01*
G75*
G02*
X67775500Y-41332999I0J-249999D01*
G01*
G37*
%TD.AperFunction*%
%TO.P,RJumper1,1*%
%TO.N,/FilteredIF*%
%TA.AperFunction,SMDPad,CuDef*%
G36*
G01*
X69600500Y-41332999D02*
X69600500Y-42233001D01*
G75*
G02*
X69350501Y-42483000I-249999J0D01*
G01*
X68825499Y-42483000D01*
G75*
G02*
X68575500Y-42233001I0J249999D01*
G01*
X68575500Y-41332999D01*
G75*
G02*
X68825499Y-41083000I249999J0D01*
G01*
X69350501Y-41083000D01*
G75*
G02*
X69600500Y-41332999I0J-249999D01*
G01*
G37*
%TD.AperFunction*%
%TD*%
%TO.P,RFB2,2*%
%TO.N,Net-(RFB2-Pad2)*%
%TA.AperFunction,SMDPad,CuDef*%
G36*
G01*
X74098999Y-20085000D02*
X74999001Y-20085000D01*
G75*
G02*
X75249000Y-20334999I0J-249999D01*
G01*
X75249000Y-20860001D01*
G75*
G02*
X74999001Y-21110000I-249999J0D01*
G01*
X74098999Y-21110000D01*
G75*
G02*
X73849000Y-20860001I0J249999D01*
G01*
X73849000Y-20334999D01*
G75*
G02*
X74098999Y-20085000I249999J0D01*
G01*
G37*
%TD.AperFunction*%
%TO.P,RFB2,1*%
%TO.N,/CMGOUT*%
%TA.AperFunction,SMDPad,CuDef*%
G36*
G01*
X74098999Y-18260000D02*
X74999001Y-18260000D01*
G75*
G02*
X75249000Y-18509999I0J-249999D01*
G01*
X75249000Y-19035001D01*
G75*
G02*
X74999001Y-19285000I-249999J0D01*
G01*
X74098999Y-19285000D01*
G75*
G02*
X73849000Y-19035001I0J249999D01*
G01*
X73849000Y-18509999D01*
G75*
G02*
X74098999Y-18260000I249999J0D01*
G01*
G37*
%TD.AperFunction*%
%TD*%
%TO.P,R_CMG1,2*%
%TO.N,/CMGOUT*%
%TA.AperFunction,SMDPad,CuDef*%
G36*
G01*
X79940999Y-18053000D02*
X80841001Y-18053000D01*
G75*
G02*
X81091000Y-18302999I0J-249999D01*
G01*
X81091000Y-18828001D01*
G75*
G02*
X80841001Y-19078000I-249999J0D01*
G01*
X79940999Y-19078000D01*
G75*
G02*
X79691000Y-18828001I0J249999D01*
G01*
X79691000Y-18302999D01*
G75*
G02*
X79940999Y-18053000I249999J0D01*
G01*
G37*
%TD.AperFunction*%
%TO.P,R_CMG1,1*%
%TO.N,/CMG*%
%TA.AperFunction,SMDPad,CuDef*%
G36*
G01*
X79940999Y-16228000D02*
X80841001Y-16228000D01*
G75*
G02*
X81091000Y-16477999I0J-249999D01*
G01*
X81091000Y-17003001D01*
G75*
G02*
X80841001Y-17253000I-249999J0D01*
G01*
X79940999Y-17253000D01*
G75*
G02*
X79691000Y-17003001I0J249999D01*
G01*
X79691000Y-16477999D01*
G75*
G02*
X79940999Y-16228000I249999J0D01*
G01*
G37*
%TD.AperFunction*%
%TD*%
%TO.P,R4,2*%
%TO.N,GND*%
%TA.AperFunction,SMDPad,CuDef*%
G36*
G01*
X76765999Y-40786000D02*
X77666001Y-40786000D01*
G75*
G02*
X77916000Y-41035999I0J-249999D01*
G01*
X77916000Y-41561001D01*
G75*
G02*
X77666001Y-41811000I-249999J0D01*
G01*
X76765999Y-41811000D01*
G75*
G02*
X76516000Y-41561001I0J249999D01*
G01*
X76516000Y-41035999D01*
G75*
G02*
X76765999Y-40786000I249999J0D01*
G01*
G37*
%TD.AperFunction*%
%TO.P,R4,1*%
%TO.N,/FilteredIF*%
%TA.AperFunction,SMDPad,CuDef*%
G36*
G01*
X76765999Y-38961000D02*
X77666001Y-38961000D01*
G75*
G02*
X77916000Y-39210999I0J-249999D01*
G01*
X77916000Y-39736001D01*
G75*
G02*
X77666001Y-39986000I-249999J0D01*
G01*
X76765999Y-39986000D01*
G75*
G02*
X76516000Y-39736001I0J249999D01*
G01*
X76516000Y-39210999D01*
G75*
G02*
X76765999Y-38961000I249999J0D01*
G01*
G37*
%TD.AperFunction*%
%TD*%
%TO.P,R3,2*%
%TO.N,/FilteredIF*%
%TA.AperFunction,SMDPad,CuDef*%
G36*
G01*
X76765999Y-35579000D02*
X77666001Y-35579000D01*
G75*
G02*
X77916000Y-35828999I0J-249999D01*
G01*
X77916000Y-36354001D01*
G75*
G02*
X77666001Y-36604000I-249999J0D01*
G01*
X76765999Y-36604000D01*
G75*
G02*
X76516000Y-36354001I0J249999D01*
G01*
X76516000Y-35828999D01*
G75*
G02*
X76765999Y-35579000I249999J0D01*
G01*
G37*
%TD.AperFunction*%
%TO.P,R3,1*%
%TO.N,+5V*%
%TA.AperFunction,SMDPad,CuDef*%
G36*
G01*
X76765999Y-33754000D02*
X77666001Y-33754000D01*
G75*
G02*
X77916000Y-34003999I0J-249999D01*
G01*
X77916000Y-34529001D01*
G75*
G02*
X77666001Y-34779000I-249999J0D01*
G01*
X76765999Y-34779000D01*
G75*
G02*
X76516000Y-34529001I0J249999D01*
G01*
X76516000Y-34003999D01*
G75*
G02*
X76765999Y-33754000I249999J0D01*
G01*
G37*
%TD.AperFunction*%
%TD*%
%TO.P,R2,2*%
%TO.N,GND*%
%TA.AperFunction,SMDPad,CuDef*%
G36*
G01*
X68129999Y-26562000D02*
X69030001Y-26562000D01*
G75*
G02*
X69280000Y-26811999I0J-249999D01*
G01*
X69280000Y-27337001D01*
G75*
G02*
X69030001Y-27587000I-249999J0D01*
G01*
X68129999Y-27587000D01*
G75*
G02*
X67880000Y-27337001I0J249999D01*
G01*
X67880000Y-26811999D01*
G75*
G02*
X68129999Y-26562000I249999J0D01*
G01*
G37*
%TD.AperFunction*%
%TO.P,R2,1*%
%TO.N,Net-(Cin1-Pad1)*%
%TA.AperFunction,SMDPad,CuDef*%
G36*
G01*
X68129999Y-24737000D02*
X69030001Y-24737000D01*
G75*
G02*
X69280000Y-24986999I0J-249999D01*
G01*
X69280000Y-25512001D01*
G75*
G02*
X69030001Y-25762000I-249999J0D01*
G01*
X68129999Y-25762000D01*
G75*
G02*
X67880000Y-25512001I0J249999D01*
G01*
X67880000Y-24986999D01*
G75*
G02*
X68129999Y-24737000I249999J0D01*
G01*
G37*
%TD.AperFunction*%
%TD*%
%TO.P,R1,2*%
%TO.N,Net-(Cin1-Pad1)*%
%TA.AperFunction,SMDPad,CuDef*%
G36*
G01*
X68129999Y-21101000D02*
X69030001Y-21101000D01*
G75*
G02*
X69280000Y-21350999I0J-249999D01*
G01*
X69280000Y-21876001D01*
G75*
G02*
X69030001Y-22126000I-249999J0D01*
G01*
X68129999Y-22126000D01*
G75*
G02*
X67880000Y-21876001I0J249999D01*
G01*
X67880000Y-21350999D01*
G75*
G02*
X68129999Y-21101000I249999J0D01*
G01*
G37*
%TD.AperFunction*%
%TO.P,R1,1*%
%TO.N,+5V*%
%TA.AperFunction,SMDPad,CuDef*%
G36*
G01*
X68129999Y-19276000D02*
X69030001Y-19276000D01*
G75*
G02*
X69280000Y-19525999I0J-249999D01*
G01*
X69280000Y-20051001D01*
G75*
G02*
X69030001Y-20301000I-249999J0D01*
G01*
X68129999Y-20301000D01*
G75*
G02*
X67880000Y-20051001I0J249999D01*
G01*
X67880000Y-19525999D01*
G75*
G02*
X68129999Y-19276000I249999J0D01*
G01*
G37*
%TD.AperFunction*%
%TD*%
%TO.P,Cout1,2*%
%TO.N,GND*%
%TA.AperFunction,SMDPad,CuDef*%
G36*
G01*
X98519000Y-33840000D02*
X97569000Y-33840000D01*
G75*
G02*
X97319000Y-33590000I0J250000D01*
G01*
X97319000Y-33090000D01*
G75*
G02*
X97569000Y-32840000I250000J0D01*
G01*
X98519000Y-32840000D01*
G75*
G02*
X98769000Y-33090000I0J-250000D01*
G01*
X98769000Y-33590000D01*
G75*
G02*
X98519000Y-33840000I-250000J0D01*
G01*
G37*
%TD.AperFunction*%
%TO.P,Cout1,1*%
%TO.N,/AudioSignalOut*%
%TA.AperFunction,SMDPad,CuDef*%
G36*
G01*
X98519000Y-35740000D02*
X97569000Y-35740000D01*
G75*
G02*
X97319000Y-35490000I0J250000D01*
G01*
X97319000Y-34990000D01*
G75*
G02*
X97569000Y-34740000I250000J0D01*
G01*
X98519000Y-34740000D01*
G75*
G02*
X98769000Y-34990000I0J-250000D01*
G01*
X98769000Y-35490000D01*
G75*
G02*
X98519000Y-35740000I-250000J0D01*
G01*
G37*
%TD.AperFunction*%
%TD*%
%TO.P,Cin1,2*%
%TO.N,GND*%
%TA.AperFunction,SMDPad,CuDef*%
G36*
G01*
X74201000Y-24834000D02*
X75151000Y-24834000D01*
G75*
G02*
X75401000Y-25084000I0J-250000D01*
G01*
X75401000Y-25584000D01*
G75*
G02*
X75151000Y-25834000I-250000J0D01*
G01*
X74201000Y-25834000D01*
G75*
G02*
X73951000Y-25584000I0J250000D01*
G01*
X73951000Y-25084000D01*
G75*
G02*
X74201000Y-24834000I250000J0D01*
G01*
G37*
%TD.AperFunction*%
%TO.P,Cin1,1*%
%TO.N,Net-(Cin1-Pad1)*%
%TA.AperFunction,SMDPad,CuDef*%
G36*
G01*
X74201000Y-22934000D02*
X75151000Y-22934000D01*
G75*
G02*
X75401000Y-23184000I0J-250000D01*
G01*
X75401000Y-23684000D01*
G75*
G02*
X75151000Y-23934000I-250000J0D01*
G01*
X74201000Y-23934000D01*
G75*
G02*
X73951000Y-23684000I0J250000D01*
G01*
X73951000Y-23184000D01*
G75*
G02*
X74201000Y-22934000I250000J0D01*
G01*
G37*
%TD.AperFunction*%
%TD*%
%TO.P,CC1,2*%
%TO.N,+5V*%
%TA.AperFunction,SMDPad,CuDef*%
G36*
G01*
X64295000Y-16960000D02*
X65245000Y-16960000D01*
G75*
G02*
X65495000Y-17210000I0J-250000D01*
G01*
X65495000Y-17710000D01*
G75*
G02*
X65245000Y-17960000I-250000J0D01*
G01*
X64295000Y-17960000D01*
G75*
G02*
X64045000Y-17710000I0J250000D01*
G01*
X64045000Y-17210000D01*
G75*
G02*
X64295000Y-16960000I250000J0D01*
G01*
G37*
%TD.AperFunction*%
%TO.P,CC1,1*%
%TO.N,GND*%
%TA.AperFunction,SMDPad,CuDef*%
G36*
G01*
X64295000Y-15060000D02*
X65245000Y-15060000D01*
G75*
G02*
X65495000Y-15310000I0J-250000D01*
G01*
X65495000Y-15810000D01*
G75*
G02*
X65245000Y-16060000I-250000J0D01*
G01*
X64295000Y-16060000D01*
G75*
G02*
X64045000Y-15810000I0J250000D01*
G01*
X64045000Y-15310000D01*
G75*
G02*
X64295000Y-15060000I250000J0D01*
G01*
G37*
%TD.AperFunction*%
%TD*%
%TO.P,C_CMG1,2*%
%TO.N,GND*%
%TA.AperFunction,SMDPad,CuDef*%
G36*
G01*
X84615000Y-18103000D02*
X85565000Y-18103000D01*
G75*
G02*
X85815000Y-18353000I0J-250000D01*
G01*
X85815000Y-18853000D01*
G75*
G02*
X85565000Y-19103000I-250000J0D01*
G01*
X84615000Y-19103000D01*
G75*
G02*
X84365000Y-18853000I0J250000D01*
G01*
X84365000Y-18353000D01*
G75*
G02*
X84615000Y-18103000I250000J0D01*
G01*
G37*
%TD.AperFunction*%
%TO.P,C_CMG1,1*%
%TO.N,/CMG*%
%TA.AperFunction,SMDPad,CuDef*%
G36*
G01*
X84615000Y-16203000D02*
X85565000Y-16203000D01*
G75*
G02*
X85815000Y-16453000I0J-250000D01*
G01*
X85815000Y-16953000D01*
G75*
G02*
X85565000Y-17203000I-250000J0D01*
G01*
X84615000Y-17203000D01*
G75*
G02*
X84365000Y-16953000I0J250000D01*
G01*
X84365000Y-16453000D01*
G75*
G02*
X84615000Y-16203000I250000J0D01*
G01*
G37*
%TD.AperFunction*%
%TD*%
%TO.P,C2,2*%
%TO.N,GND*%
%TA.AperFunction,SMDPad,CuDef*%
G36*
G01*
X88679000Y-18103000D02*
X89629000Y-18103000D01*
G75*
G02*
X89879000Y-18353000I0J-250000D01*
G01*
X89879000Y-18853000D01*
G75*
G02*
X89629000Y-19103000I-250000J0D01*
G01*
X88679000Y-19103000D01*
G75*
G02*
X88429000Y-18853000I0J250000D01*
G01*
X88429000Y-18353000D01*
G75*
G02*
X88679000Y-18103000I250000J0D01*
G01*
G37*
%TD.AperFunction*%
%TO.P,C2,1*%
%TO.N,/CMG*%
%TA.AperFunction,SMDPad,CuDef*%
G36*
G01*
X88679000Y-16203000D02*
X89629000Y-16203000D01*
G75*
G02*
X89879000Y-16453000I0J-250000D01*
G01*
X89879000Y-16953000D01*
G75*
G02*
X89629000Y-17203000I-250000J0D01*
G01*
X88679000Y-17203000D01*
G75*
G02*
X88429000Y-16953000I0J250000D01*
G01*
X88429000Y-16453000D01*
G75*
G02*
X88679000Y-16203000I250000J0D01*
G01*
G37*
%TD.AperFunction*%
%TD*%
D17*
%TO.N,GND*%
X87884000Y-33528000D03*
X85344000Y-30480000D03*
X83312000Y-30480000D03*
X80772000Y-30480000D03*
X53010550Y-15800785D03*
X53010550Y-18800785D03*
X53010550Y-21800785D03*
X53010550Y-24800785D03*
X53010550Y-27800785D03*
X53010550Y-30800785D03*
X53010550Y-43800785D03*
X53010550Y-46800785D03*
X53010550Y-49800785D03*
X54010550Y-32800785D03*
X55010550Y-16800785D03*
X55010550Y-19800785D03*
X55010550Y-22800785D03*
X55010550Y-25800785D03*
X55010550Y-28800785D03*
X55010550Y-44800785D03*
X55010550Y-47800785D03*
X56010550Y-30800785D03*
X56010550Y-49800785D03*
X57010550Y-15800785D03*
X57010550Y-24800785D03*
X57010550Y-27800785D03*
X57010550Y-43800785D03*
X57010550Y-46800785D03*
X58010550Y-29800785D03*
X58010550Y-32800785D03*
X58010550Y-35800785D03*
X58010550Y-39800785D03*
X58010550Y-48800785D03*
X59010550Y-16800785D03*
X59010550Y-25800785D03*
X59010550Y-41800785D03*
X59010550Y-44800785D03*
X60010550Y-27800785D03*
X60010550Y-30800785D03*
X60010550Y-33800785D03*
X60010550Y-46800785D03*
X60010550Y-49800785D03*
X61010550Y-15800785D03*
X61010550Y-24800785D03*
X61010550Y-42800785D03*
X62010550Y-22800785D03*
X62010550Y-26800785D03*
X62010550Y-29800785D03*
X62010550Y-32800785D03*
X62010550Y-44800785D03*
X62010550Y-47800785D03*
X63010550Y-16800785D03*
X63010550Y-49800785D03*
X64010550Y-24800785D03*
X64010550Y-27800785D03*
X64010550Y-30800785D03*
X64010550Y-37800785D03*
X64010550Y-43800785D03*
X64010550Y-46800785D03*
X65010550Y-32800785D03*
X65010550Y-48800785D03*
X66010550Y-26800785D03*
X66010550Y-29800785D03*
X66010550Y-38800785D03*
X66010550Y-44800785D03*
X67010550Y-15800785D03*
X67010550Y-31800785D03*
X67010550Y-46800785D03*
X67010550Y-49800785D03*
X68010550Y-17800785D03*
X68010550Y-28800785D03*
X68010550Y-39800785D03*
X68010550Y-43800785D03*
X69010550Y-30800785D03*
X69010550Y-45800785D03*
X69010550Y-48800785D03*
X70010550Y-15800785D03*
X70010550Y-32800785D03*
X70010550Y-38800785D03*
X71010550Y-17800785D03*
X71010550Y-20800785D03*
X71010550Y-27800785D03*
X71010550Y-43800785D03*
X71010550Y-46800785D03*
X71010550Y-49800785D03*
X72010550Y-29800785D03*
X73010550Y-15800785D03*
X73010550Y-31800785D03*
X73010550Y-42800785D03*
X73010550Y-45800785D03*
X73010550Y-48800785D03*
X74010550Y-27800785D03*
X74010550Y-33800785D03*
X75010550Y-16800785D03*
X75010550Y-29800785D03*
X75010550Y-40800785D03*
X75010550Y-43800785D03*
X75010550Y-46800785D03*
X75010550Y-49800785D03*
X77010550Y-15800785D03*
X77010550Y-42800785D03*
X77010550Y-45800785D03*
X77010550Y-48800785D03*
X78010550Y-17800785D03*
X79010550Y-39800785D03*
X79010550Y-43800785D03*
X79010550Y-46800785D03*
X79010550Y-49800785D03*
X80010550Y-32800785D03*
X80010550Y-41800785D03*
X81010550Y-44800785D03*
X81010550Y-47800785D03*
X82010550Y-18800785D03*
X82010550Y-40800785D03*
X82010550Y-49800785D03*
X83010550Y-20800785D03*
X83010550Y-27800785D03*
X83010550Y-42800785D03*
X83010550Y-45800785D03*
X84010550Y-38800785D03*
X84010550Y-47800785D03*
X85010550Y-40800785D03*
X85010550Y-43800785D03*
X85010550Y-49800785D03*
X86010550Y-45800785D03*
X87010550Y-18800785D03*
X87010550Y-41800785D03*
X87010550Y-47800785D03*
X88010550Y-20800785D03*
X88010550Y-43800785D03*
X88010550Y-49800785D03*
X90010550Y-27800785D03*
X90010550Y-47800785D03*
X91010550Y-49800785D03*
X93010550Y-15800785D03*
X93010550Y-27800785D03*
X93010550Y-47800785D03*
X94010550Y-17800785D03*
X94010550Y-20800785D03*
X94010550Y-36800785D03*
X94010550Y-49800785D03*
X96010550Y-15800785D03*
X96010550Y-18800785D03*
X96010550Y-27800785D03*
X96010550Y-32800785D03*
X96010550Y-47800785D03*
X97010550Y-20800785D03*
X97010550Y-36800785D03*
X97010550Y-49800785D03*
X98010550Y-16800785D03*
X99010550Y-18800785D03*
X99010550Y-21800785D03*
X99010550Y-47800785D03*
X100010550Y-15800785D03*
X100010550Y-23800785D03*
X100010550Y-44800785D03*
X100010550Y-49800785D03*
X101010550Y-17800785D03*
X101010550Y-20800785D03*
X101010550Y-42800785D03*
X101010550Y-46800785D03*
X102010550Y-22800785D03*
X102010550Y-40800785D03*
X102010550Y-48800785D03*
X103010550Y-15800785D03*
X103010550Y-18800785D03*
X103010550Y-43800785D03*
X104010550Y-20800785D03*
X104010550Y-41800785D03*
X104010550Y-45800785D03*
X104010550Y-49800785D03*
X105010550Y-16800785D03*
X105010550Y-22800785D03*
X105010550Y-25800785D03*
X105010550Y-47800785D03*
%TO.N,+5V*%
X92456000Y-22860000D03*
X77470000Y-25400000D03*
X90678000Y-43434000D03*
X88900000Y-34544000D03*
%TD*%
D18*
%TO.N,/CMG*%
X80391000Y-16740500D02*
X89304500Y-16740500D01*
X89154000Y-16703000D02*
X90871000Y-16703000D01*
X90871000Y-16703000D02*
X91694000Y-17526000D01*
X91694000Y-17526000D02*
X91694000Y-20828000D01*
X91694000Y-20828000D02*
X87884000Y-24638000D01*
X87884000Y-24638000D02*
X87884000Y-30607000D01*
X87884000Y-30607000D02*
X84074000Y-34417000D01*
X84074000Y-34417000D02*
X84074000Y-35052000D01*
X84074000Y-35052000D02*
X82677000Y-36449000D01*
X82677000Y-36449000D02*
X80772000Y-36449000D01*
%TO.N,+5V*%
X68580000Y-19812000D02*
X68707000Y-19685000D01*
X64770000Y-17460000D02*
X64770000Y-19304000D01*
X64262000Y-19812000D02*
X68580000Y-19812000D01*
X64770000Y-19304000D02*
X64262000Y-19812000D01*
X59182000Y-19812000D02*
X64262000Y-19812000D01*
X77470000Y-25400000D02*
X78105000Y-24765000D01*
X78105000Y-24765000D02*
X80645000Y-24765000D01*
X77470000Y-25400000D02*
X77470000Y-33782000D01*
X77470000Y-33782000D02*
X77216000Y-34036000D01*
D19*
X91890315Y-22860000D02*
X90424000Y-24326315D01*
X92456000Y-22860000D02*
X91890315Y-22860000D01*
X90424000Y-24326315D02*
X90424000Y-25400000D01*
D20*
X86290000Y-36449000D02*
X86995000Y-36449000D01*
X86995000Y-36449000D02*
X88900000Y-34544000D01*
D18*
X90678000Y-43434000D02*
X90678000Y-40767000D01*
D19*
%TO.N,Net-(Cin1-Pad1)*%
X68580000Y-23495000D02*
X74803000Y-23495000D01*
X68580000Y-21613500D02*
X68580000Y-23495000D01*
X68580000Y-23495000D02*
X68580000Y-25273000D01*
X74803000Y-23495000D02*
X80645000Y-23495000D01*
D18*
%TO.N,/AudioSignalOut*%
X94234000Y-35202500D02*
X97940500Y-35202500D01*
X97940500Y-35202500D02*
X98044000Y-35306000D01*
X100838000Y-35306000D02*
X101092000Y-35306000D01*
X100838000Y-35306000D02*
X105664000Y-35306000D01*
X99822000Y-35306000D02*
X100330000Y-35306000D01*
X98044000Y-35306000D02*
X99822000Y-35306000D01*
X99822000Y-35306000D02*
X100838000Y-35306000D01*
X100330000Y-35306000D02*
X101092000Y-34544000D01*
X101092000Y-34544000D02*
X101092000Y-29972000D01*
X101092000Y-29972000D02*
X102616000Y-28448000D01*
%TO.N,Net-(IC2-Pad3)*%
X92964000Y-30034000D02*
X92964000Y-32004000D01*
X92964000Y-32004000D02*
X94234000Y-33274000D01*
D21*
%TO.N,/IFQ_LIM*%
X93218000Y-40832000D02*
X93218000Y-41432002D01*
X91567000Y-30988000D02*
X91821000Y-30734000D01*
X91567000Y-37338000D02*
X91567000Y-30988000D01*
X93218000Y-38989000D02*
X91567000Y-37338000D01*
X93218000Y-40832000D02*
X93218000Y-38989000D01*
%TO.N,/IF_Lim*%
X89408000Y-39601998D02*
X87525002Y-37719000D01*
X89408000Y-42164000D02*
X89408000Y-39601998D01*
X86890002Y-37719000D02*
X86741000Y-37719000D01*
X87503000Y-37719000D02*
X90402000Y-34820000D01*
X86290000Y-37719000D02*
X87525000Y-37719000D01*
X90424000Y-30607000D02*
X90424000Y-30480000D01*
X89408000Y-42164000D02*
X89408000Y-44704000D01*
X89408000Y-44704000D02*
X90678000Y-45974000D01*
X90402000Y-34820000D02*
X90402000Y-29867000D01*
X90402000Y-29867000D02*
X90424000Y-29845000D01*
D18*
%TO.N,Net-(J1-Pad1)*%
X54102000Y-37846000D02*
X60325000Y-37846000D01*
X60325000Y-37846000D02*
X63754000Y-34417000D01*
X63754000Y-34417000D02*
X67183000Y-34417000D01*
X60325000Y-37846000D02*
X60452000Y-37846000D01*
X60452000Y-37846000D02*
X64389000Y-41783000D01*
X64389000Y-41783000D02*
X67310000Y-41783000D01*
X54102000Y-37846000D02*
X52324000Y-37846000D01*
X52324000Y-37846000D02*
X52070000Y-38100000D01*
%TO.N,/FilteredIF*%
X77216000Y-39497000D02*
X77216000Y-39624000D01*
X77216000Y-37719000D02*
X81915000Y-37719000D01*
X77216000Y-36091500D02*
X77216000Y-37719000D01*
X77216000Y-37719000D02*
X77216000Y-39497000D01*
X69574000Y-34414000D02*
X71244000Y-34414000D01*
X74549000Y-37719000D02*
X77216000Y-37719000D01*
X71244000Y-34414000D02*
X74549000Y-37719000D01*
X70485000Y-41783000D02*
X74549000Y-37719000D01*
X69088000Y-41783000D02*
X70485000Y-41783000D01*
D19*
%TO.N,Net-(RFB2-Pad2)*%
X80329000Y-22225000D02*
X76073000Y-22225000D01*
X76073000Y-22225000D02*
X74549000Y-20701000D01*
D20*
%TO.N,/5Y*%
X95758000Y-40832000D02*
X95758000Y-42067000D01*
X91948000Y-41432002D02*
X91948000Y-40767000D01*
X95758000Y-42067000D02*
X95758000Y-42646600D01*
X95758000Y-42646600D02*
X95427800Y-42976800D01*
X95427800Y-42976800D02*
X92811600Y-42976800D01*
X92811600Y-42976800D02*
X91948000Y-42113200D01*
X91948000Y-42113200D02*
X91948000Y-40894000D01*
%TO.N,/4Y*%
X94488000Y-40231998D02*
X94488000Y-40894000D01*
X94488000Y-39597000D02*
X95604000Y-38481000D01*
X94488000Y-40832000D02*
X94488000Y-39597000D01*
X95604000Y-38481000D02*
X96547002Y-38481000D01*
X96547002Y-38481000D02*
X97663000Y-38481000D01*
X97663000Y-38481000D02*
X98298000Y-39116000D01*
X98298000Y-39116000D02*
X98298000Y-41021000D01*
%TO.N,/3Y*%
X97028000Y-45782000D02*
X97028000Y-40640000D01*
%TO.N,/2Y*%
X94488000Y-45782000D02*
X95693000Y-45782000D01*
D19*
X95693000Y-45782000D02*
X95758000Y-45847000D01*
D20*
%TO.N,/1Y*%
X91948000Y-45782000D02*
X93153000Y-45782000D01*
D19*
X93153000Y-45782000D02*
X93215000Y-45720000D01*
%TO.N,/CMGOUT*%
X74549000Y-18772500D02*
X75922500Y-18772500D01*
X75922500Y-18772500D02*
X78105000Y-20955000D01*
X78105000Y-20955000D02*
X80772000Y-20955000D01*
X80329000Y-20955000D02*
X80329000Y-18604000D01*
X80329000Y-18604000D02*
X80391000Y-18542000D01*
%TD*%
D22*
%TO.N,GND*%
X92895928Y-33541060D02*
X92895928Y-33640001D01*
X92912992Y-33813255D01*
X92963528Y-33979851D01*
X93045595Y-34133387D01*
X93156038Y-34267962D01*
X93182891Y-34290000D01*
X93156038Y-34312038D01*
X93045595Y-34446613D01*
X92963528Y-34600149D01*
X92912992Y-34766745D01*
X92895928Y-34939999D01*
X92895928Y-35465001D01*
X92912992Y-35638255D01*
X92963528Y-35804851D01*
X93045595Y-35958387D01*
X93156038Y-36092962D01*
X93290613Y-36203405D01*
X93444149Y-36285472D01*
X93610745Y-36336008D01*
X93783999Y-36353072D01*
X94684001Y-36353072D01*
X94842106Y-36337500D01*
X97318250Y-36337500D01*
X97395746Y-36361008D01*
X97569000Y-36378072D01*
X97668196Y-36378072D01*
X97821501Y-36424577D01*
X98043999Y-36446491D01*
X98099751Y-36441000D01*
X100274249Y-36441000D01*
X100330000Y-36446491D01*
X100385751Y-36441000D01*
X103218296Y-36441000D01*
X103255506Y-36471537D01*
X103365820Y-36530502D01*
X103485518Y-36566812D01*
X103610000Y-36579072D01*
X106553000Y-36579072D01*
X106553000Y-36819210D01*
X105495750Y-36821000D01*
X105337000Y-36979750D01*
X105337000Y-38004000D01*
X105357000Y-38004000D01*
X105357000Y-38258000D01*
X105337000Y-38258000D01*
X105337000Y-39282250D01*
X105495750Y-39441000D01*
X106553000Y-39442790D01*
X106553000Y-51943000D01*
X50190000Y-51943000D01*
X50190000Y-41984038D01*
X51984250Y-41981000D01*
X52143000Y-41822250D01*
X52143000Y-40798000D01*
X52397000Y-40798000D01*
X52397000Y-41822250D01*
X52555750Y-41981000D01*
X54370000Y-41984072D01*
X54494482Y-41971812D01*
X54614180Y-41935502D01*
X54724494Y-41876537D01*
X54821185Y-41797185D01*
X54900537Y-41700494D01*
X54959502Y-41590180D01*
X54995812Y-41470482D01*
X55008072Y-41346000D01*
X55005000Y-40956750D01*
X54846250Y-40798000D01*
X52397000Y-40798000D01*
X52143000Y-40798000D01*
X52123000Y-40798000D01*
X52123000Y-40544000D01*
X52143000Y-40544000D01*
X52143000Y-39519750D01*
X52397000Y-39519750D01*
X52397000Y-40544000D01*
X54846250Y-40544000D01*
X55005000Y-40385250D01*
X55008072Y-39996000D01*
X54995812Y-39871518D01*
X54959502Y-39751820D01*
X54900537Y-39641506D01*
X54821185Y-39544815D01*
X54724494Y-39465463D01*
X54614180Y-39406498D01*
X54494482Y-39370188D01*
X54370000Y-39357928D01*
X52555750Y-39361000D01*
X52397000Y-39519750D01*
X52143000Y-39519750D01*
X51984250Y-39361000D01*
X50190000Y-39357962D01*
X50190000Y-39111193D01*
X50270000Y-39119072D01*
X51568815Y-39119072D01*
X51633554Y-39153676D01*
X51847502Y-39218577D01*
X52070000Y-39240491D01*
X52292498Y-39218577D01*
X52506446Y-39153676D01*
X52571185Y-39119072D01*
X53870000Y-39119072D01*
X53994482Y-39106812D01*
X54114180Y-39070502D01*
X54224494Y-39011537D01*
X54261704Y-38981000D01*
X59981869Y-38981000D01*
X63547009Y-42546141D01*
X63582551Y-42589449D01*
X63755376Y-42731283D01*
X63755377Y-42731284D01*
X63952553Y-42836676D01*
X64166501Y-42901577D01*
X64389000Y-42923491D01*
X64444752Y-42918000D01*
X66442039Y-42918000D01*
X66507113Y-42971405D01*
X66660649Y-43053472D01*
X66827245Y-43104008D01*
X67000499Y-43121072D01*
X67525501Y-43121072D01*
X67698755Y-43104008D01*
X67865351Y-43053472D01*
X68018887Y-42971405D01*
X68153462Y-42860962D01*
X68175500Y-42834109D01*
X68197538Y-42860962D01*
X68332113Y-42971405D01*
X68485649Y-43053472D01*
X68652245Y-43104008D01*
X68825499Y-43121072D01*
X69350501Y-43121072D01*
X69523755Y-43104008D01*
X69690351Y-43053472D01*
X69843887Y-42971405D01*
X69908961Y-42918000D01*
X70429249Y-42918000D01*
X70485000Y-42923491D01*
X70540751Y-42918000D01*
X70540752Y-42918000D01*
X70707499Y-42901577D01*
X70921447Y-42836676D01*
X71118623Y-42731284D01*
X71291449Y-42589449D01*
X71326996Y-42546135D01*
X72062131Y-41811000D01*
X75877928Y-41811000D01*
X75890188Y-41935482D01*
X75926498Y-42055180D01*
X75985463Y-42165494D01*
X76064815Y-42262185D01*
X76161506Y-42341537D01*
X76271820Y-42400502D01*
X76391518Y-42436812D01*
X76516000Y-42449072D01*
X76930250Y-42446000D01*
X77089000Y-42287250D01*
X77089000Y-41425500D01*
X77343000Y-41425500D01*
X77343000Y-42287250D01*
X77501750Y-42446000D01*
X77916000Y-42449072D01*
X78040482Y-42436812D01*
X78160180Y-42400502D01*
X78270494Y-42341537D01*
X78367185Y-42262185D01*
X78446537Y-42165494D01*
X78505502Y-42055180D01*
X78541812Y-41935482D01*
X78554072Y-41811000D01*
X78551000Y-41584250D01*
X78392250Y-41425500D01*
X77343000Y-41425500D01*
X77089000Y-41425500D01*
X76039750Y-41425500D01*
X75881000Y-41584250D01*
X75877928Y-41811000D01*
X72062131Y-41811000D01*
X75019132Y-38854000D01*
X75954694Y-38854000D01*
X75945528Y-38871149D01*
X75894992Y-39037745D01*
X75877928Y-39210999D01*
X75877928Y-39736001D01*
X75894992Y-39909255D01*
X75945528Y-40075851D01*
X76027595Y-40229387D01*
X76094276Y-40310637D01*
X76064815Y-40334815D01*
X75985463Y-40431506D01*
X75926498Y-40541820D01*
X75890188Y-40661518D01*
X75877928Y-40786000D01*
X75881000Y-41012750D01*
X76039750Y-41171500D01*
X77089000Y-41171500D01*
X77089000Y-41151500D01*
X77343000Y-41151500D01*
X77343000Y-41171500D01*
X78392250Y-41171500D01*
X78551000Y-41012750D01*
X78554072Y-40786000D01*
X78541812Y-40661518D01*
X78505502Y-40541820D01*
X78446537Y-40431506D01*
X78367185Y-40334815D01*
X78337724Y-40310637D01*
X78404405Y-40229387D01*
X78486472Y-40075851D01*
X78537008Y-39909255D01*
X78554072Y-39736001D01*
X78554072Y-39289000D01*
X79726928Y-39289000D01*
X79739188Y-39413482D01*
X79775498Y-39533180D01*
X79834463Y-39643494D01*
X79913815Y-39740185D01*
X80010506Y-39819537D01*
X80120820Y-39878502D01*
X80240518Y-39914812D01*
X80365000Y-39927072D01*
X81064250Y-39924000D01*
X81223000Y-39765250D01*
X81223000Y-39116000D01*
X81477000Y-39116000D01*
X81477000Y-39765250D01*
X81635750Y-39924000D01*
X82335000Y-39927072D01*
X82459482Y-39914812D01*
X82579180Y-39878502D01*
X82689494Y-39819537D01*
X82786185Y-39740185D01*
X82865537Y-39643494D01*
X82924502Y-39533180D01*
X82960812Y-39413482D01*
X82973072Y-39289000D01*
X82970000Y-39274750D01*
X82811250Y-39116000D01*
X81477000Y-39116000D01*
X81223000Y-39116000D01*
X79888750Y-39116000D01*
X79730000Y-39274750D01*
X79726928Y-39289000D01*
X78554072Y-39289000D01*
X78554072Y-39210999D01*
X78537008Y-39037745D01*
X78486472Y-38871149D01*
X78477306Y-38854000D01*
X79880750Y-38854000D01*
X79888750Y-38862000D01*
X81223000Y-38862000D01*
X81223000Y-38854000D01*
X81477000Y-38854000D01*
X81477000Y-38862000D01*
X82811250Y-38862000D01*
X82970000Y-38703250D01*
X82973072Y-38689000D01*
X82960812Y-38564518D01*
X82924502Y-38444820D01*
X82875957Y-38354000D01*
X82924502Y-38263180D01*
X82942100Y-38205168D01*
X82968676Y-38155447D01*
X83033577Y-37941499D01*
X83055491Y-37719000D01*
X83036485Y-37526023D01*
X83113447Y-37502676D01*
X83310623Y-37397284D01*
X83483449Y-37255449D01*
X83518996Y-37212135D01*
X84676192Y-36054940D01*
X84666928Y-36149000D01*
X84666928Y-36749000D01*
X84679188Y-36873482D01*
X84715498Y-36993180D01*
X84764043Y-37084000D01*
X84715498Y-37174820D01*
X84679188Y-37294518D01*
X84666928Y-37419000D01*
X84666928Y-38019000D01*
X84679188Y-38143482D01*
X84715498Y-38263180D01*
X84764043Y-38354000D01*
X84715498Y-38444820D01*
X84679188Y-38564518D01*
X84666928Y-38689000D01*
X84666928Y-39289000D01*
X84679188Y-39413482D01*
X84715498Y-39533180D01*
X84774463Y-39643494D01*
X84853815Y-39740185D01*
X84950506Y-39819537D01*
X85060820Y-39878502D01*
X85180518Y-39914812D01*
X85305000Y-39927072D01*
X87275000Y-39927072D01*
X87399482Y-39914812D01*
X87519180Y-39878502D01*
X87629494Y-39819537D01*
X87726185Y-39740185D01*
X87805537Y-39643494D01*
X87864502Y-39533180D01*
X87875284Y-39497637D01*
X88398001Y-40020354D01*
X88398000Y-42114392D01*
X88398000Y-42114393D01*
X88398001Y-44654383D01*
X88393114Y-44704000D01*
X88412615Y-44901994D01*
X88470368Y-45092379D01*
X88564154Y-45267840D01*
X88637920Y-45357724D01*
X88690368Y-45421633D01*
X88728901Y-45453256D01*
X89739928Y-46464283D01*
X89739928Y-46767000D01*
X89752188Y-46891482D01*
X89788498Y-47011180D01*
X89847463Y-47121494D01*
X89926815Y-47218185D01*
X90023506Y-47297537D01*
X90133820Y-47356502D01*
X90253518Y-47392812D01*
X90378000Y-47405072D01*
X90978000Y-47405072D01*
X91102482Y-47392812D01*
X91222180Y-47356502D01*
X91313000Y-47307957D01*
X91403820Y-47356502D01*
X91523518Y-47392812D01*
X91648000Y-47405072D01*
X92248000Y-47405072D01*
X92372482Y-47392812D01*
X92492180Y-47356502D01*
X92583000Y-47307957D01*
X92673820Y-47356502D01*
X92793518Y-47392812D01*
X92918000Y-47405072D01*
X93518000Y-47405072D01*
X93642482Y-47392812D01*
X93762180Y-47356502D01*
X93853000Y-47307957D01*
X93943820Y-47356502D01*
X94063518Y-47392812D01*
X94188000Y-47405072D01*
X94788000Y-47405072D01*
X94912482Y-47392812D01*
X95032180Y-47356502D01*
X95123000Y-47307957D01*
X95213820Y-47356502D01*
X95333518Y-47392812D01*
X95458000Y-47405072D01*
X96058000Y-47405072D01*
X96182482Y-47392812D01*
X96302180Y-47356502D01*
X96393000Y-47307957D01*
X96483820Y-47356502D01*
X96603518Y-47392812D01*
X96728000Y-47405072D01*
X97328000Y-47405072D01*
X97452482Y-47392812D01*
X97572180Y-47356502D01*
X97663000Y-47307957D01*
X97753820Y-47356502D01*
X97873518Y-47392812D01*
X97998000Y-47405072D01*
X98012250Y-47402000D01*
X98171000Y-47243250D01*
X98171000Y-45909000D01*
X98425000Y-45909000D01*
X98425000Y-47243250D01*
X98583750Y-47402000D01*
X98598000Y-47405072D01*
X98722482Y-47392812D01*
X98842180Y-47356502D01*
X98952494Y-47297537D01*
X99049185Y-47218185D01*
X99128537Y-47121494D01*
X99187502Y-47011180D01*
X99223812Y-46891482D01*
X99236072Y-46767000D01*
X99233000Y-46067750D01*
X99074250Y-45909000D01*
X98425000Y-45909000D01*
X98171000Y-45909000D01*
X98151000Y-45909000D01*
X98151000Y-45655000D01*
X98171000Y-45655000D01*
X98171000Y-44320750D01*
X98425000Y-44320750D01*
X98425000Y-45655000D01*
X99074250Y-45655000D01*
X99233000Y-45496250D01*
X99236072Y-44797000D01*
X99223812Y-44672518D01*
X99187502Y-44552820D01*
X99128537Y-44442506D01*
X99049185Y-44345815D01*
X98952494Y-44266463D01*
X98842180Y-44207498D01*
X98722482Y-44171188D01*
X98598000Y-44158928D01*
X98583750Y-44162000D01*
X98425000Y-44320750D01*
X98171000Y-44320750D01*
X98012250Y-44162000D01*
X97998000Y-44158928D01*
X97913000Y-44167299D01*
X97913000Y-42446701D01*
X97998000Y-42455072D01*
X98598000Y-42455072D01*
X98722482Y-42442812D01*
X98842180Y-42406502D01*
X98952494Y-42347537D01*
X99049185Y-42268185D01*
X99128537Y-42171494D01*
X99187502Y-42061180D01*
X99223812Y-41941482D01*
X99236072Y-41817000D01*
X99236072Y-39847000D01*
X99223812Y-39722518D01*
X99187502Y-39602820D01*
X99183000Y-39594397D01*
X99183000Y-39159469D01*
X99187281Y-39116000D01*
X99183000Y-39072531D01*
X99183000Y-39072523D01*
X99170195Y-38942510D01*
X99144434Y-38857589D01*
X99128785Y-38806000D01*
X102471928Y-38806000D01*
X102484188Y-38930482D01*
X102520498Y-39050180D01*
X102579463Y-39160494D01*
X102658815Y-39257185D01*
X102755506Y-39336537D01*
X102865820Y-39395502D01*
X102985518Y-39431812D01*
X103110000Y-39444072D01*
X104924250Y-39441000D01*
X105083000Y-39282250D01*
X105083000Y-38258000D01*
X102633750Y-38258000D01*
X102475000Y-38416750D01*
X102471928Y-38806000D01*
X99128785Y-38806000D01*
X99119589Y-38775686D01*
X99037411Y-38621941D01*
X98954532Y-38520953D01*
X98954530Y-38520951D01*
X98926817Y-38487183D01*
X98893050Y-38459471D01*
X98319534Y-37885956D01*
X98291817Y-37852183D01*
X98157059Y-37741589D01*
X98003313Y-37659411D01*
X97836490Y-37608805D01*
X97706477Y-37596000D01*
X97706469Y-37596000D01*
X97663000Y-37591719D01*
X97619531Y-37596000D01*
X95647465Y-37596000D01*
X95603999Y-37591719D01*
X95560533Y-37596000D01*
X95560523Y-37596000D01*
X95430510Y-37608805D01*
X95263687Y-37659411D01*
X95109941Y-37741589D01*
X95109939Y-37741590D01*
X95109940Y-37741590D01*
X95008953Y-37824468D01*
X95008951Y-37824470D01*
X94975183Y-37852183D01*
X94947470Y-37885951D01*
X94173593Y-38659829D01*
X94155632Y-38600620D01*
X94092305Y-38482144D01*
X94061847Y-38425160D01*
X93935633Y-38271367D01*
X93897099Y-38239744D01*
X93113355Y-37456000D01*
X102471928Y-37456000D01*
X102475000Y-37845250D01*
X102633750Y-38004000D01*
X105083000Y-38004000D01*
X105083000Y-36979750D01*
X104924250Y-36821000D01*
X103110000Y-36817928D01*
X102985518Y-36830188D01*
X102865820Y-36866498D01*
X102755506Y-36925463D01*
X102658815Y-37004815D01*
X102579463Y-37101506D01*
X102520498Y-37211820D01*
X102484188Y-37331518D01*
X102471928Y-37456000D01*
X93113355Y-37456000D01*
X92577000Y-36919645D01*
X92577000Y-33222131D01*
X92895928Y-33541060D01*
%TA.AperFunction,Conductor*%
D23*
G36*
X92895928Y-33541060D02*
G01*
X92895928Y-33640001D01*
X92912992Y-33813255D01*
X92963528Y-33979851D01*
X93045595Y-34133387D01*
X93156038Y-34267962D01*
X93182891Y-34290000D01*
X93156038Y-34312038D01*
X93045595Y-34446613D01*
X92963528Y-34600149D01*
X92912992Y-34766745D01*
X92895928Y-34939999D01*
X92895928Y-35465001D01*
X92912992Y-35638255D01*
X92963528Y-35804851D01*
X93045595Y-35958387D01*
X93156038Y-36092962D01*
X93290613Y-36203405D01*
X93444149Y-36285472D01*
X93610745Y-36336008D01*
X93783999Y-36353072D01*
X94684001Y-36353072D01*
X94842106Y-36337500D01*
X97318250Y-36337500D01*
X97395746Y-36361008D01*
X97569000Y-36378072D01*
X97668196Y-36378072D01*
X97821501Y-36424577D01*
X98043999Y-36446491D01*
X98099751Y-36441000D01*
X100274249Y-36441000D01*
X100330000Y-36446491D01*
X100385751Y-36441000D01*
X103218296Y-36441000D01*
X103255506Y-36471537D01*
X103365820Y-36530502D01*
X103485518Y-36566812D01*
X103610000Y-36579072D01*
X106553000Y-36579072D01*
X106553000Y-36819210D01*
X105495750Y-36821000D01*
X105337000Y-36979750D01*
X105337000Y-38004000D01*
X105357000Y-38004000D01*
X105357000Y-38258000D01*
X105337000Y-38258000D01*
X105337000Y-39282250D01*
X105495750Y-39441000D01*
X106553000Y-39442790D01*
X106553000Y-51943000D01*
X50190000Y-51943000D01*
X50190000Y-41984038D01*
X51984250Y-41981000D01*
X52143000Y-41822250D01*
X52143000Y-40798000D01*
X52397000Y-40798000D01*
X52397000Y-41822250D01*
X52555750Y-41981000D01*
X54370000Y-41984072D01*
X54494482Y-41971812D01*
X54614180Y-41935502D01*
X54724494Y-41876537D01*
X54821185Y-41797185D01*
X54900537Y-41700494D01*
X54959502Y-41590180D01*
X54995812Y-41470482D01*
X55008072Y-41346000D01*
X55005000Y-40956750D01*
X54846250Y-40798000D01*
X52397000Y-40798000D01*
X52143000Y-40798000D01*
X52123000Y-40798000D01*
X52123000Y-40544000D01*
X52143000Y-40544000D01*
X52143000Y-39519750D01*
X52397000Y-39519750D01*
X52397000Y-40544000D01*
X54846250Y-40544000D01*
X55005000Y-40385250D01*
X55008072Y-39996000D01*
X54995812Y-39871518D01*
X54959502Y-39751820D01*
X54900537Y-39641506D01*
X54821185Y-39544815D01*
X54724494Y-39465463D01*
X54614180Y-39406498D01*
X54494482Y-39370188D01*
X54370000Y-39357928D01*
X52555750Y-39361000D01*
X52397000Y-39519750D01*
X52143000Y-39519750D01*
X51984250Y-39361000D01*
X50190000Y-39357962D01*
X50190000Y-39111193D01*
X50270000Y-39119072D01*
X51568815Y-39119072D01*
X51633554Y-39153676D01*
X51847502Y-39218577D01*
X52070000Y-39240491D01*
X52292498Y-39218577D01*
X52506446Y-39153676D01*
X52571185Y-39119072D01*
X53870000Y-39119072D01*
X53994482Y-39106812D01*
X54114180Y-39070502D01*
X54224494Y-39011537D01*
X54261704Y-38981000D01*
X59981869Y-38981000D01*
X63547009Y-42546141D01*
X63582551Y-42589449D01*
X63755376Y-42731283D01*
X63755377Y-42731284D01*
X63952553Y-42836676D01*
X64166501Y-42901577D01*
X64389000Y-42923491D01*
X64444752Y-42918000D01*
X66442039Y-42918000D01*
X66507113Y-42971405D01*
X66660649Y-43053472D01*
X66827245Y-43104008D01*
X67000499Y-43121072D01*
X67525501Y-43121072D01*
X67698755Y-43104008D01*
X67865351Y-43053472D01*
X68018887Y-42971405D01*
X68153462Y-42860962D01*
X68175500Y-42834109D01*
X68197538Y-42860962D01*
X68332113Y-42971405D01*
X68485649Y-43053472D01*
X68652245Y-43104008D01*
X68825499Y-43121072D01*
X69350501Y-43121072D01*
X69523755Y-43104008D01*
X69690351Y-43053472D01*
X69843887Y-42971405D01*
X69908961Y-42918000D01*
X70429249Y-42918000D01*
X70485000Y-42923491D01*
X70540751Y-42918000D01*
X70540752Y-42918000D01*
X70707499Y-42901577D01*
X70921447Y-42836676D01*
X71118623Y-42731284D01*
X71291449Y-42589449D01*
X71326996Y-42546135D01*
X72062131Y-41811000D01*
X75877928Y-41811000D01*
X75890188Y-41935482D01*
X75926498Y-42055180D01*
X75985463Y-42165494D01*
X76064815Y-42262185D01*
X76161506Y-42341537D01*
X76271820Y-42400502D01*
X76391518Y-42436812D01*
X76516000Y-42449072D01*
X76930250Y-42446000D01*
X77089000Y-42287250D01*
X77089000Y-41425500D01*
X77343000Y-41425500D01*
X77343000Y-42287250D01*
X77501750Y-42446000D01*
X77916000Y-42449072D01*
X78040482Y-42436812D01*
X78160180Y-42400502D01*
X78270494Y-42341537D01*
X78367185Y-42262185D01*
X78446537Y-42165494D01*
X78505502Y-42055180D01*
X78541812Y-41935482D01*
X78554072Y-41811000D01*
X78551000Y-41584250D01*
X78392250Y-41425500D01*
X77343000Y-41425500D01*
X77089000Y-41425500D01*
X76039750Y-41425500D01*
X75881000Y-41584250D01*
X75877928Y-41811000D01*
X72062131Y-41811000D01*
X75019132Y-38854000D01*
X75954694Y-38854000D01*
X75945528Y-38871149D01*
X75894992Y-39037745D01*
X75877928Y-39210999D01*
X75877928Y-39736001D01*
X75894992Y-39909255D01*
X75945528Y-40075851D01*
X76027595Y-40229387D01*
X76094276Y-40310637D01*
X76064815Y-40334815D01*
X75985463Y-40431506D01*
X75926498Y-40541820D01*
X75890188Y-40661518D01*
X75877928Y-40786000D01*
X75881000Y-41012750D01*
X76039750Y-41171500D01*
X77089000Y-41171500D01*
X77089000Y-41151500D01*
X77343000Y-41151500D01*
X77343000Y-41171500D01*
X78392250Y-41171500D01*
X78551000Y-41012750D01*
X78554072Y-40786000D01*
X78541812Y-40661518D01*
X78505502Y-40541820D01*
X78446537Y-40431506D01*
X78367185Y-40334815D01*
X78337724Y-40310637D01*
X78404405Y-40229387D01*
X78486472Y-40075851D01*
X78537008Y-39909255D01*
X78554072Y-39736001D01*
X78554072Y-39289000D01*
X79726928Y-39289000D01*
X79739188Y-39413482D01*
X79775498Y-39533180D01*
X79834463Y-39643494D01*
X79913815Y-39740185D01*
X80010506Y-39819537D01*
X80120820Y-39878502D01*
X80240518Y-39914812D01*
X80365000Y-39927072D01*
X81064250Y-39924000D01*
X81223000Y-39765250D01*
X81223000Y-39116000D01*
X81477000Y-39116000D01*
X81477000Y-39765250D01*
X81635750Y-39924000D01*
X82335000Y-39927072D01*
X82459482Y-39914812D01*
X82579180Y-39878502D01*
X82689494Y-39819537D01*
X82786185Y-39740185D01*
X82865537Y-39643494D01*
X82924502Y-39533180D01*
X82960812Y-39413482D01*
X82973072Y-39289000D01*
X82970000Y-39274750D01*
X82811250Y-39116000D01*
X81477000Y-39116000D01*
X81223000Y-39116000D01*
X79888750Y-39116000D01*
X79730000Y-39274750D01*
X79726928Y-39289000D01*
X78554072Y-39289000D01*
X78554072Y-39210999D01*
X78537008Y-39037745D01*
X78486472Y-38871149D01*
X78477306Y-38854000D01*
X79880750Y-38854000D01*
X79888750Y-38862000D01*
X81223000Y-38862000D01*
X81223000Y-38854000D01*
X81477000Y-38854000D01*
X81477000Y-38862000D01*
X82811250Y-38862000D01*
X82970000Y-38703250D01*
X82973072Y-38689000D01*
X82960812Y-38564518D01*
X82924502Y-38444820D01*
X82875957Y-38354000D01*
X82924502Y-38263180D01*
X82942100Y-38205168D01*
X82968676Y-38155447D01*
X83033577Y-37941499D01*
X83055491Y-37719000D01*
X83036485Y-37526023D01*
X83113447Y-37502676D01*
X83310623Y-37397284D01*
X83483449Y-37255449D01*
X83518996Y-37212135D01*
X84676192Y-36054940D01*
X84666928Y-36149000D01*
X84666928Y-36749000D01*
X84679188Y-36873482D01*
X84715498Y-36993180D01*
X84764043Y-37084000D01*
X84715498Y-37174820D01*
X84679188Y-37294518D01*
X84666928Y-37419000D01*
X84666928Y-38019000D01*
X84679188Y-38143482D01*
X84715498Y-38263180D01*
X84764043Y-38354000D01*
X84715498Y-38444820D01*
X84679188Y-38564518D01*
X84666928Y-38689000D01*
X84666928Y-39289000D01*
X84679188Y-39413482D01*
X84715498Y-39533180D01*
X84774463Y-39643494D01*
X84853815Y-39740185D01*
X84950506Y-39819537D01*
X85060820Y-39878502D01*
X85180518Y-39914812D01*
X85305000Y-39927072D01*
X87275000Y-39927072D01*
X87399482Y-39914812D01*
X87519180Y-39878502D01*
X87629494Y-39819537D01*
X87726185Y-39740185D01*
X87805537Y-39643494D01*
X87864502Y-39533180D01*
X87875284Y-39497637D01*
X88398001Y-40020354D01*
X88398000Y-42114392D01*
X88398000Y-42114393D01*
X88398001Y-44654383D01*
X88393114Y-44704000D01*
X88412615Y-44901994D01*
X88470368Y-45092379D01*
X88564154Y-45267840D01*
X88637920Y-45357724D01*
X88690368Y-45421633D01*
X88728901Y-45453256D01*
X89739928Y-46464283D01*
X89739928Y-46767000D01*
X89752188Y-46891482D01*
X89788498Y-47011180D01*
X89847463Y-47121494D01*
X89926815Y-47218185D01*
X90023506Y-47297537D01*
X90133820Y-47356502D01*
X90253518Y-47392812D01*
X90378000Y-47405072D01*
X90978000Y-47405072D01*
X91102482Y-47392812D01*
X91222180Y-47356502D01*
X91313000Y-47307957D01*
X91403820Y-47356502D01*
X91523518Y-47392812D01*
X91648000Y-47405072D01*
X92248000Y-47405072D01*
X92372482Y-47392812D01*
X92492180Y-47356502D01*
X92583000Y-47307957D01*
X92673820Y-47356502D01*
X92793518Y-47392812D01*
X92918000Y-47405072D01*
X93518000Y-47405072D01*
X93642482Y-47392812D01*
X93762180Y-47356502D01*
X93853000Y-47307957D01*
X93943820Y-47356502D01*
X94063518Y-47392812D01*
X94188000Y-47405072D01*
X94788000Y-47405072D01*
X94912482Y-47392812D01*
X95032180Y-47356502D01*
X95123000Y-47307957D01*
X95213820Y-47356502D01*
X95333518Y-47392812D01*
X95458000Y-47405072D01*
X96058000Y-47405072D01*
X96182482Y-47392812D01*
X96302180Y-47356502D01*
X96393000Y-47307957D01*
X96483820Y-47356502D01*
X96603518Y-47392812D01*
X96728000Y-47405072D01*
X97328000Y-47405072D01*
X97452482Y-47392812D01*
X97572180Y-47356502D01*
X97663000Y-47307957D01*
X97753820Y-47356502D01*
X97873518Y-47392812D01*
X97998000Y-47405072D01*
X98012250Y-47402000D01*
X98171000Y-47243250D01*
X98171000Y-45909000D01*
X98425000Y-45909000D01*
X98425000Y-47243250D01*
X98583750Y-47402000D01*
X98598000Y-47405072D01*
X98722482Y-47392812D01*
X98842180Y-47356502D01*
X98952494Y-47297537D01*
X99049185Y-47218185D01*
X99128537Y-47121494D01*
X99187502Y-47011180D01*
X99223812Y-46891482D01*
X99236072Y-46767000D01*
X99233000Y-46067750D01*
X99074250Y-45909000D01*
X98425000Y-45909000D01*
X98171000Y-45909000D01*
X98151000Y-45909000D01*
X98151000Y-45655000D01*
X98171000Y-45655000D01*
X98171000Y-44320750D01*
X98425000Y-44320750D01*
X98425000Y-45655000D01*
X99074250Y-45655000D01*
X99233000Y-45496250D01*
X99236072Y-44797000D01*
X99223812Y-44672518D01*
X99187502Y-44552820D01*
X99128537Y-44442506D01*
X99049185Y-44345815D01*
X98952494Y-44266463D01*
X98842180Y-44207498D01*
X98722482Y-44171188D01*
X98598000Y-44158928D01*
X98583750Y-44162000D01*
X98425000Y-44320750D01*
X98171000Y-44320750D01*
X98012250Y-44162000D01*
X97998000Y-44158928D01*
X97913000Y-44167299D01*
X97913000Y-42446701D01*
X97998000Y-42455072D01*
X98598000Y-42455072D01*
X98722482Y-42442812D01*
X98842180Y-42406502D01*
X98952494Y-42347537D01*
X99049185Y-42268185D01*
X99128537Y-42171494D01*
X99187502Y-42061180D01*
X99223812Y-41941482D01*
X99236072Y-41817000D01*
X99236072Y-39847000D01*
X99223812Y-39722518D01*
X99187502Y-39602820D01*
X99183000Y-39594397D01*
X99183000Y-39159469D01*
X99187281Y-39116000D01*
X99183000Y-39072531D01*
X99183000Y-39072523D01*
X99170195Y-38942510D01*
X99144434Y-38857589D01*
X99128785Y-38806000D01*
X102471928Y-38806000D01*
X102484188Y-38930482D01*
X102520498Y-39050180D01*
X102579463Y-39160494D01*
X102658815Y-39257185D01*
X102755506Y-39336537D01*
X102865820Y-39395502D01*
X102985518Y-39431812D01*
X103110000Y-39444072D01*
X104924250Y-39441000D01*
X105083000Y-39282250D01*
X105083000Y-38258000D01*
X102633750Y-38258000D01*
X102475000Y-38416750D01*
X102471928Y-38806000D01*
X99128785Y-38806000D01*
X99119589Y-38775686D01*
X99037411Y-38621941D01*
X98954532Y-38520953D01*
X98954530Y-38520951D01*
X98926817Y-38487183D01*
X98893050Y-38459471D01*
X98319534Y-37885956D01*
X98291817Y-37852183D01*
X98157059Y-37741589D01*
X98003313Y-37659411D01*
X97836490Y-37608805D01*
X97706477Y-37596000D01*
X97706469Y-37596000D01*
X97663000Y-37591719D01*
X97619531Y-37596000D01*
X95647465Y-37596000D01*
X95603999Y-37591719D01*
X95560533Y-37596000D01*
X95560523Y-37596000D01*
X95430510Y-37608805D01*
X95263687Y-37659411D01*
X95109941Y-37741589D01*
X95109939Y-37741590D01*
X95109940Y-37741590D01*
X95008953Y-37824468D01*
X95008951Y-37824470D01*
X94975183Y-37852183D01*
X94947470Y-37885951D01*
X94173593Y-38659829D01*
X94155632Y-38600620D01*
X94092305Y-38482144D01*
X94061847Y-38425160D01*
X93935633Y-38271367D01*
X93897099Y-38239744D01*
X93113355Y-37456000D01*
X102471928Y-37456000D01*
X102475000Y-37845250D01*
X102633750Y-38004000D01*
X105083000Y-38004000D01*
X105083000Y-36979750D01*
X104924250Y-36821000D01*
X103110000Y-36817928D01*
X102985518Y-36830188D01*
X102865820Y-36866498D01*
X102755506Y-36925463D01*
X102658815Y-37004815D01*
X102579463Y-37101506D01*
X102520498Y-37211820D01*
X102484188Y-37331518D01*
X102471928Y-37456000D01*
X93113355Y-37456000D01*
X92577000Y-36919645D01*
X92577000Y-33222131D01*
X92895928Y-33541060D01*
G37*
%TD.AperFunction*%
D22*
X106553000Y-31169210D02*
X105495750Y-31171000D01*
X105337000Y-31329750D01*
X105337000Y-32354000D01*
X105357000Y-32354000D01*
X105357000Y-32608000D01*
X105337000Y-32608000D01*
X105337000Y-33632250D01*
X105495750Y-33791000D01*
X106553000Y-33792790D01*
X106553000Y-34032928D01*
X103610000Y-34032928D01*
X103485518Y-34045188D01*
X103365820Y-34081498D01*
X103255506Y-34140463D01*
X103218296Y-34171000D01*
X102227000Y-34171000D01*
X102227000Y-33156000D01*
X102471928Y-33156000D01*
X102484188Y-33280482D01*
X102520498Y-33400180D01*
X102579463Y-33510494D01*
X102658815Y-33607185D01*
X102755506Y-33686537D01*
X102865820Y-33745502D01*
X102985518Y-33781812D01*
X103110000Y-33794072D01*
X104924250Y-33791000D01*
X105083000Y-33632250D01*
X105083000Y-32608000D01*
X102633750Y-32608000D01*
X102475000Y-32766750D01*
X102471928Y-33156000D01*
X102227000Y-33156000D01*
X102227000Y-31806000D01*
X102471928Y-31806000D01*
X102475000Y-32195250D01*
X102633750Y-32354000D01*
X105083000Y-32354000D01*
X105083000Y-31329750D01*
X104924250Y-31171000D01*
X103110000Y-31167928D01*
X102985518Y-31180188D01*
X102865820Y-31216498D01*
X102755506Y-31275463D01*
X102658815Y-31354815D01*
X102579463Y-31451506D01*
X102520498Y-31561820D01*
X102484188Y-31681518D01*
X102471928Y-31806000D01*
X102227000Y-31806000D01*
X102227000Y-30442131D01*
X102733060Y-29936072D01*
X103466000Y-29936072D01*
X103590482Y-29923812D01*
X103710180Y-29887502D01*
X103820494Y-29828537D01*
X103917185Y-29749185D01*
X103996537Y-29652494D01*
X104055502Y-29542180D01*
X104091812Y-29422482D01*
X104104072Y-29298000D01*
X104104072Y-27598000D01*
X104091812Y-27473518D01*
X104055502Y-27353820D01*
X103996537Y-27243506D01*
X103917185Y-27146815D01*
X103820494Y-27067463D01*
X103710180Y-27008498D01*
X103629534Y-26984034D01*
X103713588Y-26908269D01*
X103887641Y-26674920D01*
X104012825Y-26412099D01*
X104057476Y-26264890D01*
X103936155Y-26035000D01*
X102743000Y-26035000D01*
X102743000Y-26055000D01*
X102489000Y-26055000D01*
X102489000Y-26035000D01*
X101295845Y-26035000D01*
X101174524Y-26264890D01*
X101219175Y-26412099D01*
X101344359Y-26674920D01*
X101518412Y-26908269D01*
X101602466Y-26984034D01*
X101521820Y-27008498D01*
X101411506Y-27067463D01*
X101314815Y-27146815D01*
X101235463Y-27243506D01*
X101176498Y-27353820D01*
X101140188Y-27473518D01*
X101127928Y-27598000D01*
X101127928Y-28330940D01*
X100328860Y-29130009D01*
X100285552Y-29165551D01*
X100143717Y-29338377D01*
X100098762Y-29422482D01*
X100038324Y-29535554D01*
X99973423Y-29749502D01*
X99951509Y-29972000D01*
X99957001Y-30027761D01*
X99957000Y-34073868D01*
X99859869Y-34171000D01*
X99312095Y-34171000D01*
X99358502Y-34084180D01*
X99394812Y-33964482D01*
X99407072Y-33840000D01*
X99404000Y-33625750D01*
X99245250Y-33467000D01*
X98171000Y-33467000D01*
X98171000Y-33487000D01*
X97917000Y-33487000D01*
X97917000Y-33467000D01*
X96842750Y-33467000D01*
X96684000Y-33625750D01*
X96680928Y-33840000D01*
X96693188Y-33964482D01*
X96724438Y-34067500D01*
X95457622Y-34067500D01*
X95504472Y-33979851D01*
X95555008Y-33813255D01*
X95572072Y-33640001D01*
X95572072Y-33114999D01*
X95555008Y-32941745D01*
X95524145Y-32840000D01*
X96680928Y-32840000D01*
X96684000Y-33054250D01*
X96842750Y-33213000D01*
X97917000Y-33213000D01*
X97917000Y-32363750D01*
X98171000Y-32363750D01*
X98171000Y-33213000D01*
X99245250Y-33213000D01*
X99404000Y-33054250D01*
X99407072Y-32840000D01*
X99394812Y-32715518D01*
X99358502Y-32595820D01*
X99299537Y-32485506D01*
X99220185Y-32388815D01*
X99123494Y-32309463D01*
X99013180Y-32250498D01*
X98893482Y-32214188D01*
X98769000Y-32201928D01*
X98329750Y-32205000D01*
X98171000Y-32363750D01*
X97917000Y-32363750D01*
X97758250Y-32205000D01*
X97319000Y-32201928D01*
X97194518Y-32214188D01*
X97074820Y-32250498D01*
X96964506Y-32309463D01*
X96867815Y-32388815D01*
X96788463Y-32485506D01*
X96729498Y-32595820D01*
X96693188Y-32715518D01*
X96680928Y-32840000D01*
X95524145Y-32840000D01*
X95504472Y-32775149D01*
X95422405Y-32621613D01*
X95311962Y-32487038D01*
X95177387Y-32376595D01*
X95023851Y-32294528D01*
X94857255Y-32243992D01*
X94803865Y-32238734D01*
X94222203Y-31657072D01*
X94534000Y-31657072D01*
X94658482Y-31644812D01*
X94778180Y-31608502D01*
X94869000Y-31559957D01*
X94959820Y-31608502D01*
X95079518Y-31644812D01*
X95204000Y-31657072D01*
X95804000Y-31657072D01*
X95928482Y-31644812D01*
X96048180Y-31608502D01*
X96139000Y-31559957D01*
X96229820Y-31608502D01*
X96349518Y-31644812D01*
X96474000Y-31657072D01*
X97074000Y-31657072D01*
X97198482Y-31644812D01*
X97318180Y-31608502D01*
X97409000Y-31559957D01*
X97499820Y-31608502D01*
X97619518Y-31644812D01*
X97744000Y-31657072D01*
X97758250Y-31654000D01*
X97917000Y-31495250D01*
X97917000Y-30161000D01*
X98171000Y-30161000D01*
X98171000Y-31495250D01*
X98329750Y-31654000D01*
X98344000Y-31657072D01*
X98468482Y-31644812D01*
X98588180Y-31608502D01*
X98698494Y-31549537D01*
X98795185Y-31470185D01*
X98874537Y-31373494D01*
X98933502Y-31263180D01*
X98969812Y-31143482D01*
X98982072Y-31019000D01*
X98979000Y-30319750D01*
X98820250Y-30161000D01*
X98171000Y-30161000D01*
X97917000Y-30161000D01*
X97897000Y-30161000D01*
X97897000Y-29907000D01*
X97917000Y-29907000D01*
X97917000Y-28572750D01*
X98171000Y-28572750D01*
X98171000Y-29907000D01*
X98820250Y-29907000D01*
X98979000Y-29748250D01*
X98982072Y-29049000D01*
X98969812Y-28924518D01*
X98933502Y-28804820D01*
X98874537Y-28694506D01*
X98795185Y-28597815D01*
X98698494Y-28518463D01*
X98588180Y-28459498D01*
X98468482Y-28423188D01*
X98344000Y-28410928D01*
X98329750Y-28414000D01*
X98171000Y-28572750D01*
X97917000Y-28572750D01*
X97758250Y-28414000D01*
X97744000Y-28410928D01*
X97619518Y-28423188D01*
X97499820Y-28459498D01*
X97409000Y-28508043D01*
X97318180Y-28459498D01*
X97198482Y-28423188D01*
X97074000Y-28410928D01*
X96474000Y-28410928D01*
X96349518Y-28423188D01*
X96229820Y-28459498D01*
X96139000Y-28508043D01*
X96048180Y-28459498D01*
X95928482Y-28423188D01*
X95804000Y-28410928D01*
X95204000Y-28410928D01*
X95079518Y-28423188D01*
X94959820Y-28459498D01*
X94869000Y-28508043D01*
X94778180Y-28459498D01*
X94658482Y-28423188D01*
X94534000Y-28410928D01*
X93934000Y-28410928D01*
X93809518Y-28423188D01*
X93689820Y-28459498D01*
X93599000Y-28508043D01*
X93508180Y-28459498D01*
X93388482Y-28423188D01*
X93264000Y-28410928D01*
X92664000Y-28410928D01*
X92539518Y-28423188D01*
X92419820Y-28459498D01*
X92329000Y-28508043D01*
X92238180Y-28459498D01*
X92118482Y-28423188D01*
X91994000Y-28410928D01*
X91394000Y-28410928D01*
X91269518Y-28423188D01*
X91149820Y-28459498D01*
X91059000Y-28508043D01*
X90968180Y-28459498D01*
X90848482Y-28423188D01*
X90724000Y-28410928D01*
X90124000Y-28410928D01*
X89999518Y-28423188D01*
X89879820Y-28459498D01*
X89769506Y-28518463D01*
X89672815Y-28597815D01*
X89593463Y-28694506D01*
X89534498Y-28804820D01*
X89498188Y-28924518D01*
X89485928Y-29049000D01*
X89485928Y-29438285D01*
X89464368Y-29478621D01*
X89406615Y-29669006D01*
X89387114Y-29867000D01*
X89392001Y-29916618D01*
X89392000Y-33627960D01*
X89390256Y-33626795D01*
X89201898Y-33548774D01*
X89001939Y-33509000D01*
X88798061Y-33509000D01*
X88598102Y-33548774D01*
X88409744Y-33626795D01*
X88240226Y-33740063D01*
X88096063Y-33884226D01*
X87982795Y-34053744D01*
X87904774Y-34242102D01*
X87893465Y-34298956D01*
X87743504Y-34448918D01*
X87726185Y-34427815D01*
X87629494Y-34348463D01*
X87519180Y-34289498D01*
X87399482Y-34253188D01*
X87275000Y-34240928D01*
X86575750Y-34244000D01*
X86417000Y-34402750D01*
X86417000Y-35052000D01*
X86437000Y-35052000D01*
X86437000Y-35306000D01*
X86417000Y-35306000D01*
X86417000Y-35326000D01*
X86163000Y-35326000D01*
X86163000Y-35306000D01*
X86143000Y-35306000D01*
X86143000Y-35052000D01*
X86163000Y-35052000D01*
X86163000Y-34402750D01*
X86004250Y-34244000D01*
X85852797Y-34243335D01*
X88647146Y-31448987D01*
X88690449Y-31413449D01*
X88803692Y-31275463D01*
X88832284Y-31240623D01*
X88937676Y-31043447D01*
X89002577Y-30829499D01*
X89024491Y-30607000D01*
X89019000Y-30551248D01*
X89019000Y-25108131D01*
X89485928Y-24641203D01*
X89485928Y-26069000D01*
X89498188Y-26193482D01*
X89534498Y-26313180D01*
X89593463Y-26423494D01*
X89672815Y-26520185D01*
X89769506Y-26599537D01*
X89879820Y-26658502D01*
X89999518Y-26694812D01*
X90124000Y-26707072D01*
X90724000Y-26707072D01*
X90848482Y-26694812D01*
X90968180Y-26658502D01*
X91059000Y-26609957D01*
X91149820Y-26658502D01*
X91269518Y-26694812D01*
X91394000Y-26707072D01*
X91994000Y-26707072D01*
X92118482Y-26694812D01*
X92238180Y-26658502D01*
X92329000Y-26609957D01*
X92419820Y-26658502D01*
X92539518Y-26694812D01*
X92664000Y-26707072D01*
X93264000Y-26707072D01*
X93388482Y-26694812D01*
X93508180Y-26658502D01*
X93599000Y-26609957D01*
X93689820Y-26658502D01*
X93809518Y-26694812D01*
X93934000Y-26707072D01*
X94534000Y-26707072D01*
X94658482Y-26694812D01*
X94778180Y-26658502D01*
X94869000Y-26609957D01*
X94959820Y-26658502D01*
X95079518Y-26694812D01*
X95204000Y-26707072D01*
X95804000Y-26707072D01*
X95928482Y-26694812D01*
X96048180Y-26658502D01*
X96139000Y-26609957D01*
X96229820Y-26658502D01*
X96349518Y-26694812D01*
X96474000Y-26707072D01*
X97074000Y-26707072D01*
X97198482Y-26694812D01*
X97318180Y-26658502D01*
X97409000Y-26609957D01*
X97499820Y-26658502D01*
X97619518Y-26694812D01*
X97744000Y-26707072D01*
X98344000Y-26707072D01*
X98468482Y-26694812D01*
X98588180Y-26658502D01*
X98698494Y-26599537D01*
X98795185Y-26520185D01*
X98874537Y-26423494D01*
X98933502Y-26313180D01*
X98969812Y-26193482D01*
X98982072Y-26069000D01*
X98982072Y-25551110D01*
X101174524Y-25551110D01*
X101295845Y-25781000D01*
X102489000Y-25781000D01*
X102489000Y-24587186D01*
X102743000Y-24587186D01*
X102743000Y-25781000D01*
X103936155Y-25781000D01*
X104057476Y-25551110D01*
X104012825Y-25403901D01*
X103887641Y-25141080D01*
X103713588Y-24907731D01*
X103497355Y-24712822D01*
X103247252Y-24563843D01*
X102972891Y-24466519D01*
X102743000Y-24587186D01*
X102489000Y-24587186D01*
X102259109Y-24466519D01*
X101984748Y-24563843D01*
X101734645Y-24712822D01*
X101518412Y-24907731D01*
X101344359Y-25141080D01*
X101219175Y-25403901D01*
X101174524Y-25551110D01*
X98982072Y-25551110D01*
X98982072Y-24099000D01*
X98969812Y-23974518D01*
X98933502Y-23854820D01*
X98874537Y-23744506D01*
X98795185Y-23647815D01*
X98698494Y-23568463D01*
X98588180Y-23509498D01*
X98468482Y-23473188D01*
X98344000Y-23460928D01*
X97744000Y-23460928D01*
X97619518Y-23473188D01*
X97499820Y-23509498D01*
X97409000Y-23558043D01*
X97318180Y-23509498D01*
X97198482Y-23473188D01*
X97074000Y-23460928D01*
X96474000Y-23460928D01*
X96349518Y-23473188D01*
X96229820Y-23509498D01*
X96139000Y-23558043D01*
X96048180Y-23509498D01*
X95928482Y-23473188D01*
X95804000Y-23460928D01*
X95204000Y-23460928D01*
X95079518Y-23473188D01*
X94959820Y-23509498D01*
X94869000Y-23558043D01*
X94778180Y-23509498D01*
X94658482Y-23473188D01*
X94534000Y-23460928D01*
X93934000Y-23460928D01*
X93809518Y-23473188D01*
X93689820Y-23509498D01*
X93599000Y-23558043D01*
X93508180Y-23509498D01*
X93388482Y-23473188D01*
X93297080Y-23464186D01*
X93373205Y-23350256D01*
X93451226Y-23161898D01*
X93491000Y-22961939D01*
X93491000Y-22758061D01*
X93451226Y-22558102D01*
X93373205Y-22369744D01*
X93259937Y-22200226D01*
X93115774Y-22056063D01*
X92946256Y-21942795D01*
X92757898Y-21864774D01*
X92557939Y-21825000D01*
X92354061Y-21825000D01*
X92289239Y-21837894D01*
X92457146Y-21669987D01*
X92500449Y-21634449D01*
X92536907Y-21590026D01*
X92642284Y-21461623D01*
X92747676Y-21264447D01*
X92812577Y-21050499D01*
X92822771Y-20947000D01*
X92829000Y-20883752D01*
X92834491Y-20828000D01*
X92829000Y-20772248D01*
X92829000Y-17581752D01*
X92834491Y-17526000D01*
X92823552Y-17414928D01*
X92812577Y-17303501D01*
X92747676Y-17089553D01*
X92642284Y-16892377D01*
X92500449Y-16719551D01*
X92457140Y-16684008D01*
X91712995Y-15939864D01*
X91677449Y-15896551D01*
X91504623Y-15754716D01*
X91307447Y-15649324D01*
X91093499Y-15584423D01*
X90926752Y-15568000D01*
X90926751Y-15568000D01*
X90871000Y-15562509D01*
X90815249Y-15568000D01*
X89660191Y-15568000D01*
X89629000Y-15564928D01*
X88679000Y-15564928D01*
X88505746Y-15581992D01*
X88428250Y-15605500D01*
X85815750Y-15605500D01*
X85738254Y-15581992D01*
X85565000Y-15564928D01*
X84615000Y-15564928D01*
X84441746Y-15581992D01*
X84364250Y-15605500D01*
X80999106Y-15605500D01*
X80841001Y-15589928D01*
X79940999Y-15589928D01*
X79767745Y-15606992D01*
X79601149Y-15657528D01*
X79447613Y-15739595D01*
X79313038Y-15850038D01*
X79202595Y-15984613D01*
X79120528Y-16138149D01*
X79069992Y-16304745D01*
X79052928Y-16477999D01*
X79052928Y-17003001D01*
X79069992Y-17176255D01*
X79120528Y-17342851D01*
X79202595Y-17496387D01*
X79313038Y-17630962D01*
X79339891Y-17653000D01*
X79313038Y-17675038D01*
X79202595Y-17809613D01*
X79120528Y-17963149D01*
X79069992Y-18129745D01*
X79052928Y-18302999D01*
X79052928Y-18828001D01*
X79069992Y-19001255D01*
X79120528Y-19167851D01*
X79202595Y-19321387D01*
X79313038Y-19455962D01*
X79447613Y-19566405D01*
X79569001Y-19631288D01*
X79569000Y-20016928D01*
X79344000Y-20016928D01*
X79219518Y-20029188D01*
X79099820Y-20065498D01*
X78989506Y-20124463D01*
X78903556Y-20195000D01*
X78419802Y-20195000D01*
X76486304Y-18261503D01*
X76462501Y-18232499D01*
X76346776Y-18137526D01*
X76214747Y-18066954D01*
X76071486Y-18023497D01*
X75959833Y-18012500D01*
X75959822Y-18012500D01*
X75922500Y-18008824D01*
X75885178Y-18012500D01*
X75734030Y-18012500D01*
X75626962Y-17882038D01*
X75492387Y-17771595D01*
X75338851Y-17689528D01*
X75172255Y-17638992D01*
X74999001Y-17621928D01*
X74098999Y-17621928D01*
X73925745Y-17638992D01*
X73759149Y-17689528D01*
X73605613Y-17771595D01*
X73471038Y-17882038D01*
X73360595Y-18016613D01*
X73278528Y-18170149D01*
X73227992Y-18336745D01*
X73210928Y-18509999D01*
X73210928Y-19035001D01*
X73227992Y-19208255D01*
X73278528Y-19374851D01*
X73360595Y-19528387D01*
X73471038Y-19662962D01*
X73497891Y-19685000D01*
X73471038Y-19707038D01*
X73360595Y-19841613D01*
X73278528Y-19995149D01*
X73227992Y-20161745D01*
X73210928Y-20334999D01*
X73210928Y-20860001D01*
X73227992Y-21033255D01*
X73278528Y-21199851D01*
X73360595Y-21353387D01*
X73471038Y-21487962D01*
X73605613Y-21598405D01*
X73759149Y-21680472D01*
X73925745Y-21731008D01*
X74098999Y-21748072D01*
X74521270Y-21748072D01*
X75069126Y-22295928D01*
X74201000Y-22295928D01*
X74027746Y-22312992D01*
X73861150Y-22363528D01*
X73707614Y-22445595D01*
X73573038Y-22556038D01*
X73462595Y-22690614D01*
X73438870Y-22735000D01*
X69340000Y-22735000D01*
X69340000Y-22705527D01*
X69369851Y-22696472D01*
X69523387Y-22614405D01*
X69657962Y-22503962D01*
X69768405Y-22369387D01*
X69850472Y-22215851D01*
X69901008Y-22049255D01*
X69918072Y-21876001D01*
X69918072Y-21350999D01*
X69901008Y-21177745D01*
X69850472Y-21011149D01*
X69768405Y-20857613D01*
X69657962Y-20723038D01*
X69631109Y-20701000D01*
X69657962Y-20678962D01*
X69768405Y-20544387D01*
X69850472Y-20390851D01*
X69901008Y-20224255D01*
X69918072Y-20051001D01*
X69918072Y-19525999D01*
X69901008Y-19352745D01*
X69850472Y-19186149D01*
X69768405Y-19032613D01*
X69657962Y-18898038D01*
X69523387Y-18787595D01*
X69369851Y-18705528D01*
X69203255Y-18654992D01*
X69184216Y-18653117D01*
X69143446Y-18631325D01*
X68929498Y-18566423D01*
X68706999Y-18544509D01*
X68484501Y-18566423D01*
X68270554Y-18631325D01*
X68258201Y-18637928D01*
X68129999Y-18637928D01*
X67956745Y-18654992D01*
X67884194Y-18677000D01*
X65905000Y-18677000D01*
X65905000Y-18298923D01*
X65983405Y-18203386D01*
X66065472Y-18049850D01*
X66116008Y-17883254D01*
X66133072Y-17710000D01*
X66133072Y-17210000D01*
X66116008Y-17036746D01*
X66065472Y-16870150D01*
X65983405Y-16716614D01*
X65872962Y-16582038D01*
X65866406Y-16576658D01*
X65946185Y-16511185D01*
X66025537Y-16414494D01*
X66084502Y-16304180D01*
X66120812Y-16184482D01*
X66133072Y-16060000D01*
X66130000Y-15845750D01*
X65971250Y-15687000D01*
X64897000Y-15687000D01*
X64897000Y-15707000D01*
X64643000Y-15707000D01*
X64643000Y-15687000D01*
X63568750Y-15687000D01*
X63410000Y-15845750D01*
X63406928Y-16060000D01*
X63419188Y-16184482D01*
X63455498Y-16304180D01*
X63514463Y-16414494D01*
X63593815Y-16511185D01*
X63673594Y-16576658D01*
X63667038Y-16582038D01*
X63556595Y-16716614D01*
X63474528Y-16870150D01*
X63423992Y-17036746D01*
X63406928Y-17210000D01*
X63406928Y-17710000D01*
X63423992Y-17883254D01*
X63474528Y-18049850D01*
X63556595Y-18203386D01*
X63635000Y-18298923D01*
X63635000Y-18677000D01*
X60599683Y-18677000D01*
X60562537Y-18607506D01*
X60483185Y-18510815D01*
X60386494Y-18431463D01*
X60276180Y-18372498D01*
X60156482Y-18336188D01*
X60032000Y-18323928D01*
X58332000Y-18323928D01*
X58207518Y-18336188D01*
X58087820Y-18372498D01*
X57977506Y-18431463D01*
X57880815Y-18510815D01*
X57801463Y-18607506D01*
X57742498Y-18717820D01*
X57706188Y-18837518D01*
X57693928Y-18962000D01*
X57693928Y-20662000D01*
X57706188Y-20786482D01*
X57742498Y-20906180D01*
X57801463Y-21016494D01*
X57880815Y-21113185D01*
X57977506Y-21192537D01*
X58087820Y-21251502D01*
X58168466Y-21275966D01*
X58084412Y-21351731D01*
X57910359Y-21585080D01*
X57785175Y-21847901D01*
X57740524Y-21995110D01*
X57861845Y-22225000D01*
X59055000Y-22225000D01*
X59055000Y-22205000D01*
X59309000Y-22205000D01*
X59309000Y-22225000D01*
X60502155Y-22225000D01*
X60623476Y-21995110D01*
X60578825Y-21847901D01*
X60453641Y-21585080D01*
X60279588Y-21351731D01*
X60195534Y-21275966D01*
X60276180Y-21251502D01*
X60386494Y-21192537D01*
X60483185Y-21113185D01*
X60562537Y-21016494D01*
X60599683Y-20947000D01*
X64206249Y-20947000D01*
X64262000Y-20952491D01*
X64317751Y-20947000D01*
X67343816Y-20947000D01*
X67309528Y-21011149D01*
X67258992Y-21177745D01*
X67241928Y-21350999D01*
X67241928Y-21876001D01*
X67258992Y-22049255D01*
X67309528Y-22215851D01*
X67391595Y-22369387D01*
X67502038Y-22503962D01*
X67636613Y-22614405D01*
X67790149Y-22696472D01*
X67820001Y-22705527D01*
X67820001Y-23457657D01*
X67816323Y-23495000D01*
X67820000Y-23532333D01*
X67820000Y-24157473D01*
X67790149Y-24166528D01*
X67636613Y-24248595D01*
X67502038Y-24359038D01*
X67391595Y-24493613D01*
X67309528Y-24647149D01*
X67258992Y-24813745D01*
X67241928Y-24986999D01*
X67241928Y-25512001D01*
X67258992Y-25685255D01*
X67309528Y-25851851D01*
X67391595Y-26005387D01*
X67458276Y-26086637D01*
X67428815Y-26110815D01*
X67349463Y-26207506D01*
X67290498Y-26317820D01*
X67254188Y-26437518D01*
X67241928Y-26562000D01*
X67245000Y-26788750D01*
X67403750Y-26947500D01*
X68453000Y-26947500D01*
X68453000Y-26927500D01*
X68707000Y-26927500D01*
X68707000Y-26947500D01*
X69756250Y-26947500D01*
X69915000Y-26788750D01*
X69918072Y-26562000D01*
X69905812Y-26437518D01*
X69869502Y-26317820D01*
X69810537Y-26207506D01*
X69731185Y-26110815D01*
X69701724Y-26086637D01*
X69768405Y-26005387D01*
X69850472Y-25851851D01*
X69855887Y-25834000D01*
X73312928Y-25834000D01*
X73325188Y-25958482D01*
X73361498Y-26078180D01*
X73420463Y-26188494D01*
X73499815Y-26285185D01*
X73596506Y-26364537D01*
X73706820Y-26423502D01*
X73826518Y-26459812D01*
X73951000Y-26472072D01*
X74390250Y-26469000D01*
X74549000Y-26310250D01*
X74549000Y-25461000D01*
X74803000Y-25461000D01*
X74803000Y-26310250D01*
X74961750Y-26469000D01*
X75401000Y-26472072D01*
X75525482Y-26459812D01*
X75645180Y-26423502D01*
X75755494Y-26364537D01*
X75852185Y-26285185D01*
X75931537Y-26188494D01*
X75990502Y-26078180D01*
X76026812Y-25958482D01*
X76039072Y-25834000D01*
X76036000Y-25619750D01*
X75877250Y-25461000D01*
X74803000Y-25461000D01*
X74549000Y-25461000D01*
X73474750Y-25461000D01*
X73316000Y-25619750D01*
X73312928Y-25834000D01*
X69855887Y-25834000D01*
X69901008Y-25685255D01*
X69918072Y-25512001D01*
X69918072Y-24986999D01*
X69901008Y-24813745D01*
X69850472Y-24647149D01*
X69768405Y-24493613D01*
X69657962Y-24359038D01*
X69531192Y-24255000D01*
X73526291Y-24255000D01*
X73573038Y-24311962D01*
X73579594Y-24317342D01*
X73499815Y-24382815D01*
X73420463Y-24479506D01*
X73361498Y-24589820D01*
X73325188Y-24709518D01*
X73312928Y-24834000D01*
X73316000Y-25048250D01*
X73474750Y-25207000D01*
X74549000Y-25207000D01*
X74549000Y-25187000D01*
X74803000Y-25187000D01*
X74803000Y-25207000D01*
X75877250Y-25207000D01*
X76036000Y-25048250D01*
X76039072Y-24834000D01*
X76026812Y-24709518D01*
X75990502Y-24589820D01*
X75931537Y-24479506D01*
X75852185Y-24382815D01*
X75772406Y-24317342D01*
X75778962Y-24311962D01*
X75825709Y-24255000D01*
X77009868Y-24255000D01*
X76706864Y-24558005D01*
X76663551Y-24593551D01*
X76521716Y-24766377D01*
X76454570Y-24892000D01*
X76416324Y-24963554D01*
X76351423Y-25177502D01*
X76329509Y-25400000D01*
X76335000Y-25455752D01*
X76335001Y-33232248D01*
X76272613Y-33265595D01*
X76138038Y-33376038D01*
X76027595Y-33510613D01*
X75945528Y-33664149D01*
X75894992Y-33830745D01*
X75877928Y-34003999D01*
X75877928Y-34529001D01*
X75894992Y-34702255D01*
X75945528Y-34868851D01*
X76027595Y-35022387D01*
X76138038Y-35156962D01*
X76164891Y-35179000D01*
X76138038Y-35201038D01*
X76027595Y-35335613D01*
X75945528Y-35489149D01*
X75894992Y-35655745D01*
X75877928Y-35828999D01*
X75877928Y-36354001D01*
X75894992Y-36527255D01*
X75912205Y-36584000D01*
X75019132Y-36584000D01*
X72085996Y-33650865D01*
X72050449Y-33607551D01*
X71877623Y-33465716D01*
X71680447Y-33360324D01*
X71466499Y-33295423D01*
X71299752Y-33279000D01*
X71299751Y-33279000D01*
X71244000Y-33273509D01*
X71188249Y-33279000D01*
X69518248Y-33279000D01*
X69351501Y-33295423D01*
X69137553Y-33360324D01*
X69108360Y-33375928D01*
X69049000Y-33375928D01*
X68924518Y-33388188D01*
X68804820Y-33424498D01*
X68694506Y-33483463D01*
X68597815Y-33562815D01*
X68518463Y-33659506D01*
X68459498Y-33769820D01*
X68423188Y-33889518D01*
X68410928Y-34014000D01*
X68410928Y-34814000D01*
X68423188Y-34938482D01*
X68459498Y-35058180D01*
X68489335Y-35114000D01*
X68459498Y-35169820D01*
X68423188Y-35289518D01*
X68410928Y-35414000D01*
X68414000Y-35528250D01*
X68572750Y-35687000D01*
X69447000Y-35687000D01*
X69447000Y-35667000D01*
X69701000Y-35667000D01*
X69701000Y-35687000D01*
X70575250Y-35687000D01*
X70713250Y-35549000D01*
X70773869Y-35549000D01*
X72943868Y-37719000D01*
X70014869Y-40648000D01*
X69908961Y-40648000D01*
X69843887Y-40594595D01*
X69690351Y-40512528D01*
X69523755Y-40461992D01*
X69350501Y-40444928D01*
X68825499Y-40444928D01*
X68652245Y-40461992D01*
X68485649Y-40512528D01*
X68332113Y-40594595D01*
X68197538Y-40705038D01*
X68175500Y-40731891D01*
X68153462Y-40705038D01*
X68018887Y-40594595D01*
X67865351Y-40512528D01*
X67698755Y-40461992D01*
X67525501Y-40444928D01*
X67000499Y-40444928D01*
X66827245Y-40461992D01*
X66660649Y-40512528D01*
X66507113Y-40594595D01*
X66442039Y-40648000D01*
X64859132Y-40648000D01*
X61993631Y-37782500D01*
X63562131Y-36214000D01*
X65960928Y-36214000D01*
X65973188Y-36338482D01*
X66009498Y-36458180D01*
X66039335Y-36514000D01*
X66009498Y-36569820D01*
X65973188Y-36689518D01*
X65960928Y-36814000D01*
X65960928Y-37614000D01*
X65973188Y-37738482D01*
X66009498Y-37858180D01*
X66068463Y-37968494D01*
X66147815Y-38065185D01*
X66244506Y-38144537D01*
X66354820Y-38203502D01*
X66474518Y-38239812D01*
X66599000Y-38252072D01*
X67649000Y-38252072D01*
X67773482Y-38239812D01*
X67893180Y-38203502D01*
X68003494Y-38144537D01*
X68100185Y-38065185D01*
X68179537Y-37968494D01*
X68238502Y-37858180D01*
X68274812Y-37738482D01*
X68287072Y-37614000D01*
X68287072Y-36814000D01*
X68274812Y-36689518D01*
X68238502Y-36569820D01*
X68208665Y-36514000D01*
X68238502Y-36458180D01*
X68274812Y-36338482D01*
X68287072Y-36214000D01*
X68410928Y-36214000D01*
X68423188Y-36338482D01*
X68459498Y-36458180D01*
X68489335Y-36514000D01*
X68459498Y-36569820D01*
X68423188Y-36689518D01*
X68410928Y-36814000D01*
X68410928Y-37614000D01*
X68423188Y-37738482D01*
X68459498Y-37858180D01*
X68518463Y-37968494D01*
X68597815Y-38065185D01*
X68694506Y-38144537D01*
X68804820Y-38203502D01*
X68924518Y-38239812D01*
X69049000Y-38252072D01*
X70099000Y-38252072D01*
X70223482Y-38239812D01*
X70343180Y-38203502D01*
X70453494Y-38144537D01*
X70550185Y-38065185D01*
X70629537Y-37968494D01*
X70688502Y-37858180D01*
X70724812Y-37738482D01*
X70737072Y-37614000D01*
X70737072Y-36814000D01*
X70724812Y-36689518D01*
X70688502Y-36569820D01*
X70658665Y-36514000D01*
X70688502Y-36458180D01*
X70724812Y-36338482D01*
X70737072Y-36214000D01*
X70734000Y-36099750D01*
X70575250Y-35941000D01*
X69701000Y-35941000D01*
X69701000Y-35961000D01*
X69447000Y-35961000D01*
X69447000Y-35941000D01*
X68572750Y-35941000D01*
X68414000Y-36099750D01*
X68410928Y-36214000D01*
X68287072Y-36214000D01*
X68284000Y-36099750D01*
X68125250Y-35941000D01*
X67251000Y-35941000D01*
X67251000Y-35961000D01*
X66997000Y-35961000D01*
X66997000Y-35941000D01*
X66122750Y-35941000D01*
X65964000Y-36099750D01*
X65960928Y-36214000D01*
X63562131Y-36214000D01*
X64224132Y-35552000D01*
X65987750Y-35552000D01*
X66122750Y-35687000D01*
X66997000Y-35687000D01*
X66997000Y-35667000D01*
X67251000Y-35667000D01*
X67251000Y-35687000D01*
X68125250Y-35687000D01*
X68284000Y-35528250D01*
X68287072Y-35414000D01*
X68274812Y-35289518D01*
X68238502Y-35169820D01*
X68208665Y-35114000D01*
X68238502Y-35058180D01*
X68274812Y-34938482D01*
X68287072Y-34814000D01*
X68287072Y-34687315D01*
X68301577Y-34639499D01*
X68323491Y-34417000D01*
X68301577Y-34194501D01*
X68287072Y-34146685D01*
X68287072Y-34014000D01*
X68274812Y-33889518D01*
X68238502Y-33769820D01*
X68179537Y-33659506D01*
X68100185Y-33562815D01*
X68003494Y-33483463D01*
X67893180Y-33424498D01*
X67773482Y-33388188D01*
X67649000Y-33375928D01*
X67643028Y-33375928D01*
X67619447Y-33363324D01*
X67405499Y-33298423D01*
X67238752Y-33282000D01*
X63809741Y-33282000D01*
X63753999Y-33276510D01*
X63698257Y-33282000D01*
X63698248Y-33282000D01*
X63531501Y-33298423D01*
X63317553Y-33363324D01*
X63120377Y-33468716D01*
X62947551Y-33610551D01*
X62912011Y-33653857D01*
X59854869Y-36711000D01*
X54261704Y-36711000D01*
X54224494Y-36680463D01*
X54114180Y-36621498D01*
X53994482Y-36585188D01*
X53870000Y-36572928D01*
X50270000Y-36572928D01*
X50190000Y-36580807D01*
X50190000Y-36334038D01*
X51984250Y-36331000D01*
X52143000Y-36172250D01*
X52143000Y-35148000D01*
X52397000Y-35148000D01*
X52397000Y-36172250D01*
X52555750Y-36331000D01*
X54370000Y-36334072D01*
X54494482Y-36321812D01*
X54614180Y-36285502D01*
X54724494Y-36226537D01*
X54821185Y-36147185D01*
X54900537Y-36050494D01*
X54959502Y-35940180D01*
X54995812Y-35820482D01*
X55008072Y-35696000D01*
X55005000Y-35306750D01*
X54846250Y-35148000D01*
X52397000Y-35148000D01*
X52143000Y-35148000D01*
X52123000Y-35148000D01*
X52123000Y-34894000D01*
X52143000Y-34894000D01*
X52143000Y-33869750D01*
X52397000Y-33869750D01*
X52397000Y-34894000D01*
X54846250Y-34894000D01*
X55005000Y-34735250D01*
X55008072Y-34346000D01*
X54995812Y-34221518D01*
X54959502Y-34101820D01*
X54900537Y-33991506D01*
X54821185Y-33894815D01*
X54724494Y-33815463D01*
X54614180Y-33756498D01*
X54494482Y-33720188D01*
X54370000Y-33707928D01*
X52555750Y-33711000D01*
X52397000Y-33869750D01*
X52143000Y-33869750D01*
X51984250Y-33711000D01*
X50190000Y-33707962D01*
X50190000Y-27587000D01*
X67241928Y-27587000D01*
X67254188Y-27711482D01*
X67290498Y-27831180D01*
X67349463Y-27941494D01*
X67428815Y-28038185D01*
X67525506Y-28117537D01*
X67635820Y-28176502D01*
X67755518Y-28212812D01*
X67880000Y-28225072D01*
X68294250Y-28222000D01*
X68453000Y-28063250D01*
X68453000Y-27201500D01*
X68707000Y-27201500D01*
X68707000Y-28063250D01*
X68865750Y-28222000D01*
X69280000Y-28225072D01*
X69404482Y-28212812D01*
X69524180Y-28176502D01*
X69634494Y-28117537D01*
X69731185Y-28038185D01*
X69810537Y-27941494D01*
X69869502Y-27831180D01*
X69905812Y-27711482D01*
X69918072Y-27587000D01*
X69915000Y-27360250D01*
X69756250Y-27201500D01*
X68707000Y-27201500D01*
X68453000Y-27201500D01*
X67403750Y-27201500D01*
X67245000Y-27360250D01*
X67241928Y-27587000D01*
X50190000Y-27587000D01*
X50190000Y-22708890D01*
X57740524Y-22708890D01*
X57785175Y-22856099D01*
X57910359Y-23118920D01*
X58084412Y-23352269D01*
X58300645Y-23547178D01*
X58550748Y-23696157D01*
X58825109Y-23793481D01*
X59055000Y-23672814D01*
X59055000Y-22479000D01*
X59309000Y-22479000D01*
X59309000Y-23672814D01*
X59538891Y-23793481D01*
X59813252Y-23696157D01*
X60063355Y-23547178D01*
X60279588Y-23352269D01*
X60453641Y-23118920D01*
X60578825Y-22856099D01*
X60623476Y-22708890D01*
X60502155Y-22479000D01*
X59309000Y-22479000D01*
X59055000Y-22479000D01*
X57861845Y-22479000D01*
X57740524Y-22708890D01*
X50190000Y-22708890D01*
X50190000Y-15060000D01*
X63406928Y-15060000D01*
X63410000Y-15274250D01*
X63568750Y-15433000D01*
X64643000Y-15433000D01*
X64643000Y-14583750D01*
X64897000Y-14583750D01*
X64897000Y-15433000D01*
X65971250Y-15433000D01*
X66130000Y-15274250D01*
X66133072Y-15060000D01*
X66120812Y-14935518D01*
X66084502Y-14815820D01*
X66025537Y-14705506D01*
X65946185Y-14608815D01*
X65849494Y-14529463D01*
X65739180Y-14470498D01*
X65619482Y-14434188D01*
X65495000Y-14421928D01*
X65055750Y-14425000D01*
X64897000Y-14583750D01*
X64643000Y-14583750D01*
X64484250Y-14425000D01*
X64045000Y-14421928D01*
X63920518Y-14434188D01*
X63800820Y-14470498D01*
X63690506Y-14529463D01*
X63593815Y-14608815D01*
X63514463Y-14705506D01*
X63455498Y-14815820D01*
X63419188Y-14935518D01*
X63406928Y-15060000D01*
X50190000Y-15060000D01*
X50190000Y-14097000D01*
X106553000Y-14097000D01*
X106553000Y-31169210D01*
%TA.AperFunction,Conductor*%
D23*
G36*
X106553000Y-31169210D02*
G01*
X105495750Y-31171000D01*
X105337000Y-31329750D01*
X105337000Y-32354000D01*
X105357000Y-32354000D01*
X105357000Y-32608000D01*
X105337000Y-32608000D01*
X105337000Y-33632250D01*
X105495750Y-33791000D01*
X106553000Y-33792790D01*
X106553000Y-34032928D01*
X103610000Y-34032928D01*
X103485518Y-34045188D01*
X103365820Y-34081498D01*
X103255506Y-34140463D01*
X103218296Y-34171000D01*
X102227000Y-34171000D01*
X102227000Y-33156000D01*
X102471928Y-33156000D01*
X102484188Y-33280482D01*
X102520498Y-33400180D01*
X102579463Y-33510494D01*
X102658815Y-33607185D01*
X102755506Y-33686537D01*
X102865820Y-33745502D01*
X102985518Y-33781812D01*
X103110000Y-33794072D01*
X104924250Y-33791000D01*
X105083000Y-33632250D01*
X105083000Y-32608000D01*
X102633750Y-32608000D01*
X102475000Y-32766750D01*
X102471928Y-33156000D01*
X102227000Y-33156000D01*
X102227000Y-31806000D01*
X102471928Y-31806000D01*
X102475000Y-32195250D01*
X102633750Y-32354000D01*
X105083000Y-32354000D01*
X105083000Y-31329750D01*
X104924250Y-31171000D01*
X103110000Y-31167928D01*
X102985518Y-31180188D01*
X102865820Y-31216498D01*
X102755506Y-31275463D01*
X102658815Y-31354815D01*
X102579463Y-31451506D01*
X102520498Y-31561820D01*
X102484188Y-31681518D01*
X102471928Y-31806000D01*
X102227000Y-31806000D01*
X102227000Y-30442131D01*
X102733060Y-29936072D01*
X103466000Y-29936072D01*
X103590482Y-29923812D01*
X103710180Y-29887502D01*
X103820494Y-29828537D01*
X103917185Y-29749185D01*
X103996537Y-29652494D01*
X104055502Y-29542180D01*
X104091812Y-29422482D01*
X104104072Y-29298000D01*
X104104072Y-27598000D01*
X104091812Y-27473518D01*
X104055502Y-27353820D01*
X103996537Y-27243506D01*
X103917185Y-27146815D01*
X103820494Y-27067463D01*
X103710180Y-27008498D01*
X103629534Y-26984034D01*
X103713588Y-26908269D01*
X103887641Y-26674920D01*
X104012825Y-26412099D01*
X104057476Y-26264890D01*
X103936155Y-26035000D01*
X102743000Y-26035000D01*
X102743000Y-26055000D01*
X102489000Y-26055000D01*
X102489000Y-26035000D01*
X101295845Y-26035000D01*
X101174524Y-26264890D01*
X101219175Y-26412099D01*
X101344359Y-26674920D01*
X101518412Y-26908269D01*
X101602466Y-26984034D01*
X101521820Y-27008498D01*
X101411506Y-27067463D01*
X101314815Y-27146815D01*
X101235463Y-27243506D01*
X101176498Y-27353820D01*
X101140188Y-27473518D01*
X101127928Y-27598000D01*
X101127928Y-28330940D01*
X100328860Y-29130009D01*
X100285552Y-29165551D01*
X100143717Y-29338377D01*
X100098762Y-29422482D01*
X100038324Y-29535554D01*
X99973423Y-29749502D01*
X99951509Y-29972000D01*
X99957001Y-30027761D01*
X99957000Y-34073868D01*
X99859869Y-34171000D01*
X99312095Y-34171000D01*
X99358502Y-34084180D01*
X99394812Y-33964482D01*
X99407072Y-33840000D01*
X99404000Y-33625750D01*
X99245250Y-33467000D01*
X98171000Y-33467000D01*
X98171000Y-33487000D01*
X97917000Y-33487000D01*
X97917000Y-33467000D01*
X96842750Y-33467000D01*
X96684000Y-33625750D01*
X96680928Y-33840000D01*
X96693188Y-33964482D01*
X96724438Y-34067500D01*
X95457622Y-34067500D01*
X95504472Y-33979851D01*
X95555008Y-33813255D01*
X95572072Y-33640001D01*
X95572072Y-33114999D01*
X95555008Y-32941745D01*
X95524145Y-32840000D01*
X96680928Y-32840000D01*
X96684000Y-33054250D01*
X96842750Y-33213000D01*
X97917000Y-33213000D01*
X97917000Y-32363750D01*
X98171000Y-32363750D01*
X98171000Y-33213000D01*
X99245250Y-33213000D01*
X99404000Y-33054250D01*
X99407072Y-32840000D01*
X99394812Y-32715518D01*
X99358502Y-32595820D01*
X99299537Y-32485506D01*
X99220185Y-32388815D01*
X99123494Y-32309463D01*
X99013180Y-32250498D01*
X98893482Y-32214188D01*
X98769000Y-32201928D01*
X98329750Y-32205000D01*
X98171000Y-32363750D01*
X97917000Y-32363750D01*
X97758250Y-32205000D01*
X97319000Y-32201928D01*
X97194518Y-32214188D01*
X97074820Y-32250498D01*
X96964506Y-32309463D01*
X96867815Y-32388815D01*
X96788463Y-32485506D01*
X96729498Y-32595820D01*
X96693188Y-32715518D01*
X96680928Y-32840000D01*
X95524145Y-32840000D01*
X95504472Y-32775149D01*
X95422405Y-32621613D01*
X95311962Y-32487038D01*
X95177387Y-32376595D01*
X95023851Y-32294528D01*
X94857255Y-32243992D01*
X94803865Y-32238734D01*
X94222203Y-31657072D01*
X94534000Y-31657072D01*
X94658482Y-31644812D01*
X94778180Y-31608502D01*
X94869000Y-31559957D01*
X94959820Y-31608502D01*
X95079518Y-31644812D01*
X95204000Y-31657072D01*
X95804000Y-31657072D01*
X95928482Y-31644812D01*
X96048180Y-31608502D01*
X96139000Y-31559957D01*
X96229820Y-31608502D01*
X96349518Y-31644812D01*
X96474000Y-31657072D01*
X97074000Y-31657072D01*
X97198482Y-31644812D01*
X97318180Y-31608502D01*
X97409000Y-31559957D01*
X97499820Y-31608502D01*
X97619518Y-31644812D01*
X97744000Y-31657072D01*
X97758250Y-31654000D01*
X97917000Y-31495250D01*
X97917000Y-30161000D01*
X98171000Y-30161000D01*
X98171000Y-31495250D01*
X98329750Y-31654000D01*
X98344000Y-31657072D01*
X98468482Y-31644812D01*
X98588180Y-31608502D01*
X98698494Y-31549537D01*
X98795185Y-31470185D01*
X98874537Y-31373494D01*
X98933502Y-31263180D01*
X98969812Y-31143482D01*
X98982072Y-31019000D01*
X98979000Y-30319750D01*
X98820250Y-30161000D01*
X98171000Y-30161000D01*
X97917000Y-30161000D01*
X97897000Y-30161000D01*
X97897000Y-29907000D01*
X97917000Y-29907000D01*
X97917000Y-28572750D01*
X98171000Y-28572750D01*
X98171000Y-29907000D01*
X98820250Y-29907000D01*
X98979000Y-29748250D01*
X98982072Y-29049000D01*
X98969812Y-28924518D01*
X98933502Y-28804820D01*
X98874537Y-28694506D01*
X98795185Y-28597815D01*
X98698494Y-28518463D01*
X98588180Y-28459498D01*
X98468482Y-28423188D01*
X98344000Y-28410928D01*
X98329750Y-28414000D01*
X98171000Y-28572750D01*
X97917000Y-28572750D01*
X97758250Y-28414000D01*
X97744000Y-28410928D01*
X97619518Y-28423188D01*
X97499820Y-28459498D01*
X97409000Y-28508043D01*
X97318180Y-28459498D01*
X97198482Y-28423188D01*
X97074000Y-28410928D01*
X96474000Y-28410928D01*
X96349518Y-28423188D01*
X96229820Y-28459498D01*
X96139000Y-28508043D01*
X96048180Y-28459498D01*
X95928482Y-28423188D01*
X95804000Y-28410928D01*
X95204000Y-28410928D01*
X95079518Y-28423188D01*
X94959820Y-28459498D01*
X94869000Y-28508043D01*
X94778180Y-28459498D01*
X94658482Y-28423188D01*
X94534000Y-28410928D01*
X93934000Y-28410928D01*
X93809518Y-28423188D01*
X93689820Y-28459498D01*
X93599000Y-28508043D01*
X93508180Y-28459498D01*
X93388482Y-28423188D01*
X93264000Y-28410928D01*
X92664000Y-28410928D01*
X92539518Y-28423188D01*
X92419820Y-28459498D01*
X92329000Y-28508043D01*
X92238180Y-28459498D01*
X92118482Y-28423188D01*
X91994000Y-28410928D01*
X91394000Y-28410928D01*
X91269518Y-28423188D01*
X91149820Y-28459498D01*
X91059000Y-28508043D01*
X90968180Y-28459498D01*
X90848482Y-28423188D01*
X90724000Y-28410928D01*
X90124000Y-28410928D01*
X89999518Y-28423188D01*
X89879820Y-28459498D01*
X89769506Y-28518463D01*
X89672815Y-28597815D01*
X89593463Y-28694506D01*
X89534498Y-28804820D01*
X89498188Y-28924518D01*
X89485928Y-29049000D01*
X89485928Y-29438285D01*
X89464368Y-29478621D01*
X89406615Y-29669006D01*
X89387114Y-29867000D01*
X89392001Y-29916618D01*
X89392000Y-33627960D01*
X89390256Y-33626795D01*
X89201898Y-33548774D01*
X89001939Y-33509000D01*
X88798061Y-33509000D01*
X88598102Y-33548774D01*
X88409744Y-33626795D01*
X88240226Y-33740063D01*
X88096063Y-33884226D01*
X87982795Y-34053744D01*
X87904774Y-34242102D01*
X87893465Y-34298956D01*
X87743504Y-34448918D01*
X87726185Y-34427815D01*
X87629494Y-34348463D01*
X87519180Y-34289498D01*
X87399482Y-34253188D01*
X87275000Y-34240928D01*
X86575750Y-34244000D01*
X86417000Y-34402750D01*
X86417000Y-35052000D01*
X86437000Y-35052000D01*
X86437000Y-35306000D01*
X86417000Y-35306000D01*
X86417000Y-35326000D01*
X86163000Y-35326000D01*
X86163000Y-35306000D01*
X86143000Y-35306000D01*
X86143000Y-35052000D01*
X86163000Y-35052000D01*
X86163000Y-34402750D01*
X86004250Y-34244000D01*
X85852797Y-34243335D01*
X88647146Y-31448987D01*
X88690449Y-31413449D01*
X88803692Y-31275463D01*
X88832284Y-31240623D01*
X88937676Y-31043447D01*
X89002577Y-30829499D01*
X89024491Y-30607000D01*
X89019000Y-30551248D01*
X89019000Y-25108131D01*
X89485928Y-24641203D01*
X89485928Y-26069000D01*
X89498188Y-26193482D01*
X89534498Y-26313180D01*
X89593463Y-26423494D01*
X89672815Y-26520185D01*
X89769506Y-26599537D01*
X89879820Y-26658502D01*
X89999518Y-26694812D01*
X90124000Y-26707072D01*
X90724000Y-26707072D01*
X90848482Y-26694812D01*
X90968180Y-26658502D01*
X91059000Y-26609957D01*
X91149820Y-26658502D01*
X91269518Y-26694812D01*
X91394000Y-26707072D01*
X91994000Y-26707072D01*
X92118482Y-26694812D01*
X92238180Y-26658502D01*
X92329000Y-26609957D01*
X92419820Y-26658502D01*
X92539518Y-26694812D01*
X92664000Y-26707072D01*
X93264000Y-26707072D01*
X93388482Y-26694812D01*
X93508180Y-26658502D01*
X93599000Y-26609957D01*
X93689820Y-26658502D01*
X93809518Y-26694812D01*
X93934000Y-26707072D01*
X94534000Y-26707072D01*
X94658482Y-26694812D01*
X94778180Y-26658502D01*
X94869000Y-26609957D01*
X94959820Y-26658502D01*
X95079518Y-26694812D01*
X95204000Y-26707072D01*
X95804000Y-26707072D01*
X95928482Y-26694812D01*
X96048180Y-26658502D01*
X96139000Y-26609957D01*
X96229820Y-26658502D01*
X96349518Y-26694812D01*
X96474000Y-26707072D01*
X97074000Y-26707072D01*
X97198482Y-26694812D01*
X97318180Y-26658502D01*
X97409000Y-26609957D01*
X97499820Y-26658502D01*
X97619518Y-26694812D01*
X97744000Y-26707072D01*
X98344000Y-26707072D01*
X98468482Y-26694812D01*
X98588180Y-26658502D01*
X98698494Y-26599537D01*
X98795185Y-26520185D01*
X98874537Y-26423494D01*
X98933502Y-26313180D01*
X98969812Y-26193482D01*
X98982072Y-26069000D01*
X98982072Y-25551110D01*
X101174524Y-25551110D01*
X101295845Y-25781000D01*
X102489000Y-25781000D01*
X102489000Y-24587186D01*
X102743000Y-24587186D01*
X102743000Y-25781000D01*
X103936155Y-25781000D01*
X104057476Y-25551110D01*
X104012825Y-25403901D01*
X103887641Y-25141080D01*
X103713588Y-24907731D01*
X103497355Y-24712822D01*
X103247252Y-24563843D01*
X102972891Y-24466519D01*
X102743000Y-24587186D01*
X102489000Y-24587186D01*
X102259109Y-24466519D01*
X101984748Y-24563843D01*
X101734645Y-24712822D01*
X101518412Y-24907731D01*
X101344359Y-25141080D01*
X101219175Y-25403901D01*
X101174524Y-25551110D01*
X98982072Y-25551110D01*
X98982072Y-24099000D01*
X98969812Y-23974518D01*
X98933502Y-23854820D01*
X98874537Y-23744506D01*
X98795185Y-23647815D01*
X98698494Y-23568463D01*
X98588180Y-23509498D01*
X98468482Y-23473188D01*
X98344000Y-23460928D01*
X97744000Y-23460928D01*
X97619518Y-23473188D01*
X97499820Y-23509498D01*
X97409000Y-23558043D01*
X97318180Y-23509498D01*
X97198482Y-23473188D01*
X97074000Y-23460928D01*
X96474000Y-23460928D01*
X96349518Y-23473188D01*
X96229820Y-23509498D01*
X96139000Y-23558043D01*
X96048180Y-23509498D01*
X95928482Y-23473188D01*
X95804000Y-23460928D01*
X95204000Y-23460928D01*
X95079518Y-23473188D01*
X94959820Y-23509498D01*
X94869000Y-23558043D01*
X94778180Y-23509498D01*
X94658482Y-23473188D01*
X94534000Y-23460928D01*
X93934000Y-23460928D01*
X93809518Y-23473188D01*
X93689820Y-23509498D01*
X93599000Y-23558043D01*
X93508180Y-23509498D01*
X93388482Y-23473188D01*
X93297080Y-23464186D01*
X93373205Y-23350256D01*
X93451226Y-23161898D01*
X93491000Y-22961939D01*
X93491000Y-22758061D01*
X93451226Y-22558102D01*
X93373205Y-22369744D01*
X93259937Y-22200226D01*
X93115774Y-22056063D01*
X92946256Y-21942795D01*
X92757898Y-21864774D01*
X92557939Y-21825000D01*
X92354061Y-21825000D01*
X92289239Y-21837894D01*
X92457146Y-21669987D01*
X92500449Y-21634449D01*
X92536907Y-21590026D01*
X92642284Y-21461623D01*
X92747676Y-21264447D01*
X92812577Y-21050499D01*
X92822771Y-20947000D01*
X92829000Y-20883752D01*
X92834491Y-20828000D01*
X92829000Y-20772248D01*
X92829000Y-17581752D01*
X92834491Y-17526000D01*
X92823552Y-17414928D01*
X92812577Y-17303501D01*
X92747676Y-17089553D01*
X92642284Y-16892377D01*
X92500449Y-16719551D01*
X92457140Y-16684008D01*
X91712995Y-15939864D01*
X91677449Y-15896551D01*
X91504623Y-15754716D01*
X91307447Y-15649324D01*
X91093499Y-15584423D01*
X90926752Y-15568000D01*
X90926751Y-15568000D01*
X90871000Y-15562509D01*
X90815249Y-15568000D01*
X89660191Y-15568000D01*
X89629000Y-15564928D01*
X88679000Y-15564928D01*
X88505746Y-15581992D01*
X88428250Y-15605500D01*
X85815750Y-15605500D01*
X85738254Y-15581992D01*
X85565000Y-15564928D01*
X84615000Y-15564928D01*
X84441746Y-15581992D01*
X84364250Y-15605500D01*
X80999106Y-15605500D01*
X80841001Y-15589928D01*
X79940999Y-15589928D01*
X79767745Y-15606992D01*
X79601149Y-15657528D01*
X79447613Y-15739595D01*
X79313038Y-15850038D01*
X79202595Y-15984613D01*
X79120528Y-16138149D01*
X79069992Y-16304745D01*
X79052928Y-16477999D01*
X79052928Y-17003001D01*
X79069992Y-17176255D01*
X79120528Y-17342851D01*
X79202595Y-17496387D01*
X79313038Y-17630962D01*
X79339891Y-17653000D01*
X79313038Y-17675038D01*
X79202595Y-17809613D01*
X79120528Y-17963149D01*
X79069992Y-18129745D01*
X79052928Y-18302999D01*
X79052928Y-18828001D01*
X79069992Y-19001255D01*
X79120528Y-19167851D01*
X79202595Y-19321387D01*
X79313038Y-19455962D01*
X79447613Y-19566405D01*
X79569001Y-19631288D01*
X79569000Y-20016928D01*
X79344000Y-20016928D01*
X79219518Y-20029188D01*
X79099820Y-20065498D01*
X78989506Y-20124463D01*
X78903556Y-20195000D01*
X78419802Y-20195000D01*
X76486304Y-18261503D01*
X76462501Y-18232499D01*
X76346776Y-18137526D01*
X76214747Y-18066954D01*
X76071486Y-18023497D01*
X75959833Y-18012500D01*
X75959822Y-18012500D01*
X75922500Y-18008824D01*
X75885178Y-18012500D01*
X75734030Y-18012500D01*
X75626962Y-17882038D01*
X75492387Y-17771595D01*
X75338851Y-17689528D01*
X75172255Y-17638992D01*
X74999001Y-17621928D01*
X74098999Y-17621928D01*
X73925745Y-17638992D01*
X73759149Y-17689528D01*
X73605613Y-17771595D01*
X73471038Y-17882038D01*
X73360595Y-18016613D01*
X73278528Y-18170149D01*
X73227992Y-18336745D01*
X73210928Y-18509999D01*
X73210928Y-19035001D01*
X73227992Y-19208255D01*
X73278528Y-19374851D01*
X73360595Y-19528387D01*
X73471038Y-19662962D01*
X73497891Y-19685000D01*
X73471038Y-19707038D01*
X73360595Y-19841613D01*
X73278528Y-19995149D01*
X73227992Y-20161745D01*
X73210928Y-20334999D01*
X73210928Y-20860001D01*
X73227992Y-21033255D01*
X73278528Y-21199851D01*
X73360595Y-21353387D01*
X73471038Y-21487962D01*
X73605613Y-21598405D01*
X73759149Y-21680472D01*
X73925745Y-21731008D01*
X74098999Y-21748072D01*
X74521270Y-21748072D01*
X75069126Y-22295928D01*
X74201000Y-22295928D01*
X74027746Y-22312992D01*
X73861150Y-22363528D01*
X73707614Y-22445595D01*
X73573038Y-22556038D01*
X73462595Y-22690614D01*
X73438870Y-22735000D01*
X69340000Y-22735000D01*
X69340000Y-22705527D01*
X69369851Y-22696472D01*
X69523387Y-22614405D01*
X69657962Y-22503962D01*
X69768405Y-22369387D01*
X69850472Y-22215851D01*
X69901008Y-22049255D01*
X69918072Y-21876001D01*
X69918072Y-21350999D01*
X69901008Y-21177745D01*
X69850472Y-21011149D01*
X69768405Y-20857613D01*
X69657962Y-20723038D01*
X69631109Y-20701000D01*
X69657962Y-20678962D01*
X69768405Y-20544387D01*
X69850472Y-20390851D01*
X69901008Y-20224255D01*
X69918072Y-20051001D01*
X69918072Y-19525999D01*
X69901008Y-19352745D01*
X69850472Y-19186149D01*
X69768405Y-19032613D01*
X69657962Y-18898038D01*
X69523387Y-18787595D01*
X69369851Y-18705528D01*
X69203255Y-18654992D01*
X69184216Y-18653117D01*
X69143446Y-18631325D01*
X68929498Y-18566423D01*
X68706999Y-18544509D01*
X68484501Y-18566423D01*
X68270554Y-18631325D01*
X68258201Y-18637928D01*
X68129999Y-18637928D01*
X67956745Y-18654992D01*
X67884194Y-18677000D01*
X65905000Y-18677000D01*
X65905000Y-18298923D01*
X65983405Y-18203386D01*
X66065472Y-18049850D01*
X66116008Y-17883254D01*
X66133072Y-17710000D01*
X66133072Y-17210000D01*
X66116008Y-17036746D01*
X66065472Y-16870150D01*
X65983405Y-16716614D01*
X65872962Y-16582038D01*
X65866406Y-16576658D01*
X65946185Y-16511185D01*
X66025537Y-16414494D01*
X66084502Y-16304180D01*
X66120812Y-16184482D01*
X66133072Y-16060000D01*
X66130000Y-15845750D01*
X65971250Y-15687000D01*
X64897000Y-15687000D01*
X64897000Y-15707000D01*
X64643000Y-15707000D01*
X64643000Y-15687000D01*
X63568750Y-15687000D01*
X63410000Y-15845750D01*
X63406928Y-16060000D01*
X63419188Y-16184482D01*
X63455498Y-16304180D01*
X63514463Y-16414494D01*
X63593815Y-16511185D01*
X63673594Y-16576658D01*
X63667038Y-16582038D01*
X63556595Y-16716614D01*
X63474528Y-16870150D01*
X63423992Y-17036746D01*
X63406928Y-17210000D01*
X63406928Y-17710000D01*
X63423992Y-17883254D01*
X63474528Y-18049850D01*
X63556595Y-18203386D01*
X63635000Y-18298923D01*
X63635000Y-18677000D01*
X60599683Y-18677000D01*
X60562537Y-18607506D01*
X60483185Y-18510815D01*
X60386494Y-18431463D01*
X60276180Y-18372498D01*
X60156482Y-18336188D01*
X60032000Y-18323928D01*
X58332000Y-18323928D01*
X58207518Y-18336188D01*
X58087820Y-18372498D01*
X57977506Y-18431463D01*
X57880815Y-18510815D01*
X57801463Y-18607506D01*
X57742498Y-18717820D01*
X57706188Y-18837518D01*
X57693928Y-18962000D01*
X57693928Y-20662000D01*
X57706188Y-20786482D01*
X57742498Y-20906180D01*
X57801463Y-21016494D01*
X57880815Y-21113185D01*
X57977506Y-21192537D01*
X58087820Y-21251502D01*
X58168466Y-21275966D01*
X58084412Y-21351731D01*
X57910359Y-21585080D01*
X57785175Y-21847901D01*
X57740524Y-21995110D01*
X57861845Y-22225000D01*
X59055000Y-22225000D01*
X59055000Y-22205000D01*
X59309000Y-22205000D01*
X59309000Y-22225000D01*
X60502155Y-22225000D01*
X60623476Y-21995110D01*
X60578825Y-21847901D01*
X60453641Y-21585080D01*
X60279588Y-21351731D01*
X60195534Y-21275966D01*
X60276180Y-21251502D01*
X60386494Y-21192537D01*
X60483185Y-21113185D01*
X60562537Y-21016494D01*
X60599683Y-20947000D01*
X64206249Y-20947000D01*
X64262000Y-20952491D01*
X64317751Y-20947000D01*
X67343816Y-20947000D01*
X67309528Y-21011149D01*
X67258992Y-21177745D01*
X67241928Y-21350999D01*
X67241928Y-21876001D01*
X67258992Y-22049255D01*
X67309528Y-22215851D01*
X67391595Y-22369387D01*
X67502038Y-22503962D01*
X67636613Y-22614405D01*
X67790149Y-22696472D01*
X67820001Y-22705527D01*
X67820001Y-23457657D01*
X67816323Y-23495000D01*
X67820000Y-23532333D01*
X67820000Y-24157473D01*
X67790149Y-24166528D01*
X67636613Y-24248595D01*
X67502038Y-24359038D01*
X67391595Y-24493613D01*
X67309528Y-24647149D01*
X67258992Y-24813745D01*
X67241928Y-24986999D01*
X67241928Y-25512001D01*
X67258992Y-25685255D01*
X67309528Y-25851851D01*
X67391595Y-26005387D01*
X67458276Y-26086637D01*
X67428815Y-26110815D01*
X67349463Y-26207506D01*
X67290498Y-26317820D01*
X67254188Y-26437518D01*
X67241928Y-26562000D01*
X67245000Y-26788750D01*
X67403750Y-26947500D01*
X68453000Y-26947500D01*
X68453000Y-26927500D01*
X68707000Y-26927500D01*
X68707000Y-26947500D01*
X69756250Y-26947500D01*
X69915000Y-26788750D01*
X69918072Y-26562000D01*
X69905812Y-26437518D01*
X69869502Y-26317820D01*
X69810537Y-26207506D01*
X69731185Y-26110815D01*
X69701724Y-26086637D01*
X69768405Y-26005387D01*
X69850472Y-25851851D01*
X69855887Y-25834000D01*
X73312928Y-25834000D01*
X73325188Y-25958482D01*
X73361498Y-26078180D01*
X73420463Y-26188494D01*
X73499815Y-26285185D01*
X73596506Y-26364537D01*
X73706820Y-26423502D01*
X73826518Y-26459812D01*
X73951000Y-26472072D01*
X74390250Y-26469000D01*
X74549000Y-26310250D01*
X74549000Y-25461000D01*
X74803000Y-25461000D01*
X74803000Y-26310250D01*
X74961750Y-26469000D01*
X75401000Y-26472072D01*
X75525482Y-26459812D01*
X75645180Y-26423502D01*
X75755494Y-26364537D01*
X75852185Y-26285185D01*
X75931537Y-26188494D01*
X75990502Y-26078180D01*
X76026812Y-25958482D01*
X76039072Y-25834000D01*
X76036000Y-25619750D01*
X75877250Y-25461000D01*
X74803000Y-25461000D01*
X74549000Y-25461000D01*
X73474750Y-25461000D01*
X73316000Y-25619750D01*
X73312928Y-25834000D01*
X69855887Y-25834000D01*
X69901008Y-25685255D01*
X69918072Y-25512001D01*
X69918072Y-24986999D01*
X69901008Y-24813745D01*
X69850472Y-24647149D01*
X69768405Y-24493613D01*
X69657962Y-24359038D01*
X69531192Y-24255000D01*
X73526291Y-24255000D01*
X73573038Y-24311962D01*
X73579594Y-24317342D01*
X73499815Y-24382815D01*
X73420463Y-24479506D01*
X73361498Y-24589820D01*
X73325188Y-24709518D01*
X73312928Y-24834000D01*
X73316000Y-25048250D01*
X73474750Y-25207000D01*
X74549000Y-25207000D01*
X74549000Y-25187000D01*
X74803000Y-25187000D01*
X74803000Y-25207000D01*
X75877250Y-25207000D01*
X76036000Y-25048250D01*
X76039072Y-24834000D01*
X76026812Y-24709518D01*
X75990502Y-24589820D01*
X75931537Y-24479506D01*
X75852185Y-24382815D01*
X75772406Y-24317342D01*
X75778962Y-24311962D01*
X75825709Y-24255000D01*
X77009868Y-24255000D01*
X76706864Y-24558005D01*
X76663551Y-24593551D01*
X76521716Y-24766377D01*
X76454570Y-24892000D01*
X76416324Y-24963554D01*
X76351423Y-25177502D01*
X76329509Y-25400000D01*
X76335000Y-25455752D01*
X76335001Y-33232248D01*
X76272613Y-33265595D01*
X76138038Y-33376038D01*
X76027595Y-33510613D01*
X75945528Y-33664149D01*
X75894992Y-33830745D01*
X75877928Y-34003999D01*
X75877928Y-34529001D01*
X75894992Y-34702255D01*
X75945528Y-34868851D01*
X76027595Y-35022387D01*
X76138038Y-35156962D01*
X76164891Y-35179000D01*
X76138038Y-35201038D01*
X76027595Y-35335613D01*
X75945528Y-35489149D01*
X75894992Y-35655745D01*
X75877928Y-35828999D01*
X75877928Y-36354001D01*
X75894992Y-36527255D01*
X75912205Y-36584000D01*
X75019132Y-36584000D01*
X72085996Y-33650865D01*
X72050449Y-33607551D01*
X71877623Y-33465716D01*
X71680447Y-33360324D01*
X71466499Y-33295423D01*
X71299752Y-33279000D01*
X71299751Y-33279000D01*
X71244000Y-33273509D01*
X71188249Y-33279000D01*
X69518248Y-33279000D01*
X69351501Y-33295423D01*
X69137553Y-33360324D01*
X69108360Y-33375928D01*
X69049000Y-33375928D01*
X68924518Y-33388188D01*
X68804820Y-33424498D01*
X68694506Y-33483463D01*
X68597815Y-33562815D01*
X68518463Y-33659506D01*
X68459498Y-33769820D01*
X68423188Y-33889518D01*
X68410928Y-34014000D01*
X68410928Y-34814000D01*
X68423188Y-34938482D01*
X68459498Y-35058180D01*
X68489335Y-35114000D01*
X68459498Y-35169820D01*
X68423188Y-35289518D01*
X68410928Y-35414000D01*
X68414000Y-35528250D01*
X68572750Y-35687000D01*
X69447000Y-35687000D01*
X69447000Y-35667000D01*
X69701000Y-35667000D01*
X69701000Y-35687000D01*
X70575250Y-35687000D01*
X70713250Y-35549000D01*
X70773869Y-35549000D01*
X72943868Y-37719000D01*
X70014869Y-40648000D01*
X69908961Y-40648000D01*
X69843887Y-40594595D01*
X69690351Y-40512528D01*
X69523755Y-40461992D01*
X69350501Y-40444928D01*
X68825499Y-40444928D01*
X68652245Y-40461992D01*
X68485649Y-40512528D01*
X68332113Y-40594595D01*
X68197538Y-40705038D01*
X68175500Y-40731891D01*
X68153462Y-40705038D01*
X68018887Y-40594595D01*
X67865351Y-40512528D01*
X67698755Y-40461992D01*
X67525501Y-40444928D01*
X67000499Y-40444928D01*
X66827245Y-40461992D01*
X66660649Y-40512528D01*
X66507113Y-40594595D01*
X66442039Y-40648000D01*
X64859132Y-40648000D01*
X61993631Y-37782500D01*
X63562131Y-36214000D01*
X65960928Y-36214000D01*
X65973188Y-36338482D01*
X66009498Y-36458180D01*
X66039335Y-36514000D01*
X66009498Y-36569820D01*
X65973188Y-36689518D01*
X65960928Y-36814000D01*
X65960928Y-37614000D01*
X65973188Y-37738482D01*
X66009498Y-37858180D01*
X66068463Y-37968494D01*
X66147815Y-38065185D01*
X66244506Y-38144537D01*
X66354820Y-38203502D01*
X66474518Y-38239812D01*
X66599000Y-38252072D01*
X67649000Y-38252072D01*
X67773482Y-38239812D01*
X67893180Y-38203502D01*
X68003494Y-38144537D01*
X68100185Y-38065185D01*
X68179537Y-37968494D01*
X68238502Y-37858180D01*
X68274812Y-37738482D01*
X68287072Y-37614000D01*
X68287072Y-36814000D01*
X68274812Y-36689518D01*
X68238502Y-36569820D01*
X68208665Y-36514000D01*
X68238502Y-36458180D01*
X68274812Y-36338482D01*
X68287072Y-36214000D01*
X68410928Y-36214000D01*
X68423188Y-36338482D01*
X68459498Y-36458180D01*
X68489335Y-36514000D01*
X68459498Y-36569820D01*
X68423188Y-36689518D01*
X68410928Y-36814000D01*
X68410928Y-37614000D01*
X68423188Y-37738482D01*
X68459498Y-37858180D01*
X68518463Y-37968494D01*
X68597815Y-38065185D01*
X68694506Y-38144537D01*
X68804820Y-38203502D01*
X68924518Y-38239812D01*
X69049000Y-38252072D01*
X70099000Y-38252072D01*
X70223482Y-38239812D01*
X70343180Y-38203502D01*
X70453494Y-38144537D01*
X70550185Y-38065185D01*
X70629537Y-37968494D01*
X70688502Y-37858180D01*
X70724812Y-37738482D01*
X70737072Y-37614000D01*
X70737072Y-36814000D01*
X70724812Y-36689518D01*
X70688502Y-36569820D01*
X70658665Y-36514000D01*
X70688502Y-36458180D01*
X70724812Y-36338482D01*
X70737072Y-36214000D01*
X70734000Y-36099750D01*
X70575250Y-35941000D01*
X69701000Y-35941000D01*
X69701000Y-35961000D01*
X69447000Y-35961000D01*
X69447000Y-35941000D01*
X68572750Y-35941000D01*
X68414000Y-36099750D01*
X68410928Y-36214000D01*
X68287072Y-36214000D01*
X68284000Y-36099750D01*
X68125250Y-35941000D01*
X67251000Y-35941000D01*
X67251000Y-35961000D01*
X66997000Y-35961000D01*
X66997000Y-35941000D01*
X66122750Y-35941000D01*
X65964000Y-36099750D01*
X65960928Y-36214000D01*
X63562131Y-36214000D01*
X64224132Y-35552000D01*
X65987750Y-35552000D01*
X66122750Y-35687000D01*
X66997000Y-35687000D01*
X66997000Y-35667000D01*
X67251000Y-35667000D01*
X67251000Y-35687000D01*
X68125250Y-35687000D01*
X68284000Y-35528250D01*
X68287072Y-35414000D01*
X68274812Y-35289518D01*
X68238502Y-35169820D01*
X68208665Y-35114000D01*
X68238502Y-35058180D01*
X68274812Y-34938482D01*
X68287072Y-34814000D01*
X68287072Y-34687315D01*
X68301577Y-34639499D01*
X68323491Y-34417000D01*
X68301577Y-34194501D01*
X68287072Y-34146685D01*
X68287072Y-34014000D01*
X68274812Y-33889518D01*
X68238502Y-33769820D01*
X68179537Y-33659506D01*
X68100185Y-33562815D01*
X68003494Y-33483463D01*
X67893180Y-33424498D01*
X67773482Y-33388188D01*
X67649000Y-33375928D01*
X67643028Y-33375928D01*
X67619447Y-33363324D01*
X67405499Y-33298423D01*
X67238752Y-33282000D01*
X63809741Y-33282000D01*
X63753999Y-33276510D01*
X63698257Y-33282000D01*
X63698248Y-33282000D01*
X63531501Y-33298423D01*
X63317553Y-33363324D01*
X63120377Y-33468716D01*
X62947551Y-33610551D01*
X62912011Y-33653857D01*
X59854869Y-36711000D01*
X54261704Y-36711000D01*
X54224494Y-36680463D01*
X54114180Y-36621498D01*
X53994482Y-36585188D01*
X53870000Y-36572928D01*
X50270000Y-36572928D01*
X50190000Y-36580807D01*
X50190000Y-36334038D01*
X51984250Y-36331000D01*
X52143000Y-36172250D01*
X52143000Y-35148000D01*
X52397000Y-35148000D01*
X52397000Y-36172250D01*
X52555750Y-36331000D01*
X54370000Y-36334072D01*
X54494482Y-36321812D01*
X54614180Y-36285502D01*
X54724494Y-36226537D01*
X54821185Y-36147185D01*
X54900537Y-36050494D01*
X54959502Y-35940180D01*
X54995812Y-35820482D01*
X55008072Y-35696000D01*
X55005000Y-35306750D01*
X54846250Y-35148000D01*
X52397000Y-35148000D01*
X52143000Y-35148000D01*
X52123000Y-35148000D01*
X52123000Y-34894000D01*
X52143000Y-34894000D01*
X52143000Y-33869750D01*
X52397000Y-33869750D01*
X52397000Y-34894000D01*
X54846250Y-34894000D01*
X55005000Y-34735250D01*
X55008072Y-34346000D01*
X54995812Y-34221518D01*
X54959502Y-34101820D01*
X54900537Y-33991506D01*
X54821185Y-33894815D01*
X54724494Y-33815463D01*
X54614180Y-33756498D01*
X54494482Y-33720188D01*
X54370000Y-33707928D01*
X52555750Y-33711000D01*
X52397000Y-33869750D01*
X52143000Y-33869750D01*
X51984250Y-33711000D01*
X50190000Y-33707962D01*
X50190000Y-27587000D01*
X67241928Y-27587000D01*
X67254188Y-27711482D01*
X67290498Y-27831180D01*
X67349463Y-27941494D01*
X67428815Y-28038185D01*
X67525506Y-28117537D01*
X67635820Y-28176502D01*
X67755518Y-28212812D01*
X67880000Y-28225072D01*
X68294250Y-28222000D01*
X68453000Y-28063250D01*
X68453000Y-27201500D01*
X68707000Y-27201500D01*
X68707000Y-28063250D01*
X68865750Y-28222000D01*
X69280000Y-28225072D01*
X69404482Y-28212812D01*
X69524180Y-28176502D01*
X69634494Y-28117537D01*
X69731185Y-28038185D01*
X69810537Y-27941494D01*
X69869502Y-27831180D01*
X69905812Y-27711482D01*
X69918072Y-27587000D01*
X69915000Y-27360250D01*
X69756250Y-27201500D01*
X68707000Y-27201500D01*
X68453000Y-27201500D01*
X67403750Y-27201500D01*
X67245000Y-27360250D01*
X67241928Y-27587000D01*
X50190000Y-27587000D01*
X50190000Y-22708890D01*
X57740524Y-22708890D01*
X57785175Y-22856099D01*
X57910359Y-23118920D01*
X58084412Y-23352269D01*
X58300645Y-23547178D01*
X58550748Y-23696157D01*
X58825109Y-23793481D01*
X59055000Y-23672814D01*
X59055000Y-22479000D01*
X59309000Y-22479000D01*
X59309000Y-23672814D01*
X59538891Y-23793481D01*
X59813252Y-23696157D01*
X60063355Y-23547178D01*
X60279588Y-23352269D01*
X60453641Y-23118920D01*
X60578825Y-22856099D01*
X60623476Y-22708890D01*
X60502155Y-22479000D01*
X59309000Y-22479000D01*
X59055000Y-22479000D01*
X57861845Y-22479000D01*
X57740524Y-22708890D01*
X50190000Y-22708890D01*
X50190000Y-15060000D01*
X63406928Y-15060000D01*
X63410000Y-15274250D01*
X63568750Y-15433000D01*
X64643000Y-15433000D01*
X64643000Y-14583750D01*
X64897000Y-14583750D01*
X64897000Y-15433000D01*
X65971250Y-15433000D01*
X66130000Y-15274250D01*
X66133072Y-15060000D01*
X66120812Y-14935518D01*
X66084502Y-14815820D01*
X66025537Y-14705506D01*
X65946185Y-14608815D01*
X65849494Y-14529463D01*
X65739180Y-14470498D01*
X65619482Y-14434188D01*
X65495000Y-14421928D01*
X65055750Y-14425000D01*
X64897000Y-14583750D01*
X64643000Y-14583750D01*
X64484250Y-14425000D01*
X64045000Y-14421928D01*
X63920518Y-14434188D01*
X63800820Y-14470498D01*
X63690506Y-14529463D01*
X63593815Y-14608815D01*
X63514463Y-14705506D01*
X63455498Y-14815820D01*
X63419188Y-14935518D01*
X63406928Y-15060000D01*
X50190000Y-15060000D01*
X50190000Y-14097000D01*
X106553000Y-14097000D01*
X106553000Y-31169210D01*
G37*
%TD.AperFunction*%
D22*
X83739188Y-17978518D02*
X83726928Y-18103000D01*
X83730000Y-18317250D01*
X83888750Y-18476000D01*
X84963000Y-18476000D01*
X84963000Y-18456000D01*
X85217000Y-18456000D01*
X85217000Y-18476000D01*
X86291250Y-18476000D01*
X86450000Y-18317250D01*
X86453072Y-18103000D01*
X86440812Y-17978518D01*
X86409562Y-17875500D01*
X87834438Y-17875500D01*
X87803188Y-17978518D01*
X87790928Y-18103000D01*
X87794000Y-18317250D01*
X87952750Y-18476000D01*
X89027000Y-18476000D01*
X89027000Y-18456000D01*
X89281000Y-18456000D01*
X89281000Y-18476000D01*
X90355250Y-18476000D01*
X90514000Y-18317250D01*
X90517072Y-18103000D01*
X90504812Y-17978518D01*
X90488886Y-17926018D01*
X90559000Y-17996132D01*
X90559001Y-20357866D01*
X87120865Y-23796004D01*
X87077551Y-23831551D01*
X86935716Y-24004377D01*
X86843272Y-24177330D01*
X86836764Y-24189506D01*
X86804957Y-24130000D01*
X86853502Y-24039180D01*
X86889812Y-23919482D01*
X86902072Y-23795000D01*
X86902072Y-23195000D01*
X86889812Y-23070518D01*
X86853502Y-22950820D01*
X86804957Y-22860000D01*
X86853502Y-22769180D01*
X86889812Y-22649482D01*
X86902072Y-22525000D01*
X86902072Y-21925000D01*
X86889812Y-21800518D01*
X86853502Y-21680820D01*
X86804957Y-21590000D01*
X86853502Y-21499180D01*
X86889812Y-21379482D01*
X86902072Y-21255000D01*
X86902072Y-20655000D01*
X86889812Y-20530518D01*
X86853502Y-20410820D01*
X86794537Y-20300506D01*
X86715185Y-20203815D01*
X86618494Y-20124463D01*
X86508180Y-20065498D01*
X86388482Y-20029188D01*
X86264000Y-20016928D01*
X84294000Y-20016928D01*
X84169518Y-20029188D01*
X84049820Y-20065498D01*
X83939506Y-20124463D01*
X83842815Y-20203815D01*
X83763463Y-20300506D01*
X83704498Y-20410820D01*
X83668188Y-20530518D01*
X83655928Y-20655000D01*
X83655928Y-21255000D01*
X83668188Y-21379482D01*
X83704498Y-21499180D01*
X83753043Y-21590000D01*
X83704498Y-21680820D01*
X83668188Y-21800518D01*
X83655928Y-21925000D01*
X83655928Y-22525000D01*
X83668188Y-22649482D01*
X83704498Y-22769180D01*
X83753043Y-22860000D01*
X83704498Y-22950820D01*
X83668188Y-23070518D01*
X83655928Y-23195000D01*
X83655928Y-23795000D01*
X83668188Y-23919482D01*
X83704498Y-24039180D01*
X83753043Y-24130000D01*
X83704498Y-24220820D01*
X83668188Y-24340518D01*
X83655928Y-24465000D01*
X83659000Y-24479250D01*
X83817750Y-24638000D01*
X85152000Y-24638000D01*
X85152000Y-24618000D01*
X85406000Y-24618000D01*
X85406000Y-24638000D01*
X85426000Y-24638000D01*
X85426000Y-24892000D01*
X85406000Y-24892000D01*
X85406000Y-24912000D01*
X85152000Y-24912000D01*
X85152000Y-24892000D01*
X83817750Y-24892000D01*
X83659000Y-25050750D01*
X83655928Y-25065000D01*
X83668188Y-25189482D01*
X83704498Y-25309180D01*
X83753043Y-25400000D01*
X83704498Y-25490820D01*
X83668188Y-25610518D01*
X83655928Y-25735000D01*
X83655928Y-26335000D01*
X83668188Y-26459482D01*
X83704498Y-26579180D01*
X83753043Y-26670000D01*
X83704498Y-26760820D01*
X83668188Y-26880518D01*
X83655928Y-27005000D01*
X83655928Y-27605000D01*
X83668188Y-27729482D01*
X83704498Y-27849180D01*
X83753043Y-27940000D01*
X83704498Y-28030820D01*
X83668188Y-28150518D01*
X83655928Y-28275000D01*
X83655928Y-28875000D01*
X83668188Y-28999482D01*
X83704498Y-29119180D01*
X83763463Y-29229494D01*
X83842815Y-29326185D01*
X83939506Y-29405537D01*
X84049820Y-29464502D01*
X84169518Y-29500812D01*
X84294000Y-29513072D01*
X86264000Y-29513072D01*
X86388482Y-29500812D01*
X86508180Y-29464502D01*
X86618494Y-29405537D01*
X86715185Y-29326185D01*
X86749001Y-29284980D01*
X86749001Y-30136866D01*
X83310865Y-33575004D01*
X83267551Y-33610551D01*
X83125716Y-33783377D01*
X83028915Y-33964482D01*
X83020324Y-33980554D01*
X82955423Y-34194502D01*
X82933509Y-34417000D01*
X82939000Y-34472751D01*
X82939000Y-34581868D01*
X82911107Y-34609761D01*
X82865537Y-34524506D01*
X82786185Y-34427815D01*
X82689494Y-34348463D01*
X82579180Y-34289498D01*
X82459482Y-34253188D01*
X82335000Y-34240928D01*
X80365000Y-34240928D01*
X80240518Y-34253188D01*
X80120820Y-34289498D01*
X80010506Y-34348463D01*
X79913815Y-34427815D01*
X79834463Y-34524506D01*
X79775498Y-34634820D01*
X79739188Y-34754518D01*
X79726928Y-34879000D01*
X79726928Y-35479000D01*
X79739188Y-35603482D01*
X79775498Y-35723180D01*
X79824043Y-35814000D01*
X79775498Y-35904820D01*
X79774960Y-35906594D01*
X79718324Y-36012553D01*
X79653423Y-36226501D01*
X79631509Y-36449000D01*
X79644805Y-36584000D01*
X78519795Y-36584000D01*
X78537008Y-36527255D01*
X78554072Y-36354001D01*
X78554072Y-35828999D01*
X78537008Y-35655745D01*
X78486472Y-35489149D01*
X78404405Y-35335613D01*
X78293962Y-35201038D01*
X78267109Y-35179000D01*
X78293962Y-35156962D01*
X78404405Y-35022387D01*
X78486472Y-34868851D01*
X78537008Y-34702255D01*
X78554072Y-34529001D01*
X78554072Y-34118246D01*
X78588577Y-34004499D01*
X78605000Y-33837752D01*
X78605000Y-33837743D01*
X78610490Y-33782001D01*
X78605000Y-33726259D01*
X78605000Y-25900000D01*
X78705928Y-25900000D01*
X78705928Y-26335000D01*
X78718188Y-26459482D01*
X78754498Y-26579180D01*
X78803043Y-26670000D01*
X78754498Y-26760820D01*
X78718188Y-26880518D01*
X78705928Y-27005000D01*
X78705928Y-27605000D01*
X78718188Y-27729482D01*
X78754498Y-27849180D01*
X78803043Y-27940000D01*
X78754498Y-28030820D01*
X78718188Y-28150518D01*
X78705928Y-28275000D01*
X78705928Y-28875000D01*
X78718188Y-28999482D01*
X78754498Y-29119180D01*
X78813463Y-29229494D01*
X78892815Y-29326185D01*
X78989506Y-29405537D01*
X79099820Y-29464502D01*
X79219518Y-29500812D01*
X79344000Y-29513072D01*
X81314000Y-29513072D01*
X81438482Y-29500812D01*
X81558180Y-29464502D01*
X81668494Y-29405537D01*
X81765185Y-29326185D01*
X81844537Y-29229494D01*
X81903502Y-29119180D01*
X81939812Y-28999482D01*
X81952072Y-28875000D01*
X81952072Y-28275000D01*
X81939812Y-28150518D01*
X81903502Y-28030820D01*
X81854957Y-27940000D01*
X81903502Y-27849180D01*
X81939812Y-27729482D01*
X81952072Y-27605000D01*
X81952072Y-27005000D01*
X81939812Y-26880518D01*
X81903502Y-26760820D01*
X81854957Y-26670000D01*
X81903502Y-26579180D01*
X81939812Y-26459482D01*
X81952072Y-26335000D01*
X81952072Y-25735000D01*
X81939812Y-25610518D01*
X81903502Y-25490820D01*
X81854957Y-25400000D01*
X81903502Y-25309180D01*
X81939812Y-25189482D01*
X81952072Y-25065000D01*
X81952072Y-24465000D01*
X81939812Y-24340518D01*
X81903502Y-24220820D01*
X81854957Y-24130000D01*
X81903502Y-24039180D01*
X81939812Y-23919482D01*
X81952072Y-23795000D01*
X81952072Y-23195000D01*
X81939812Y-23070518D01*
X81903502Y-22950820D01*
X81854957Y-22860000D01*
X81903502Y-22769180D01*
X81939812Y-22649482D01*
X81952072Y-22525000D01*
X81952072Y-21925000D01*
X81939812Y-21800518D01*
X81903502Y-21680820D01*
X81854957Y-21590000D01*
X81903502Y-21499180D01*
X81939812Y-21379482D01*
X81952072Y-21255000D01*
X81952072Y-20655000D01*
X81939812Y-20530518D01*
X81903502Y-20410820D01*
X81844537Y-20300506D01*
X81765185Y-20203815D01*
X81668494Y-20124463D01*
X81558180Y-20065498D01*
X81438482Y-20029188D01*
X81314000Y-20016928D01*
X81089000Y-20016928D01*
X81089000Y-19676335D01*
X81180851Y-19648472D01*
X81334387Y-19566405D01*
X81468962Y-19455962D01*
X81579405Y-19321387D01*
X81661472Y-19167851D01*
X81681144Y-19103000D01*
X83726928Y-19103000D01*
X83739188Y-19227482D01*
X83775498Y-19347180D01*
X83834463Y-19457494D01*
X83913815Y-19554185D01*
X84010506Y-19633537D01*
X84120820Y-19692502D01*
X84240518Y-19728812D01*
X84365000Y-19741072D01*
X84804250Y-19738000D01*
X84963000Y-19579250D01*
X84963000Y-18730000D01*
X85217000Y-18730000D01*
X85217000Y-19579250D01*
X85375750Y-19738000D01*
X85815000Y-19741072D01*
X85939482Y-19728812D01*
X86059180Y-19692502D01*
X86169494Y-19633537D01*
X86266185Y-19554185D01*
X86345537Y-19457494D01*
X86404502Y-19347180D01*
X86440812Y-19227482D01*
X86453072Y-19103000D01*
X87790928Y-19103000D01*
X87803188Y-19227482D01*
X87839498Y-19347180D01*
X87898463Y-19457494D01*
X87977815Y-19554185D01*
X88074506Y-19633537D01*
X88184820Y-19692502D01*
X88304518Y-19728812D01*
X88429000Y-19741072D01*
X88868250Y-19738000D01*
X89027000Y-19579250D01*
X89027000Y-18730000D01*
X89281000Y-18730000D01*
X89281000Y-19579250D01*
X89439750Y-19738000D01*
X89879000Y-19741072D01*
X90003482Y-19728812D01*
X90123180Y-19692502D01*
X90233494Y-19633537D01*
X90330185Y-19554185D01*
X90409537Y-19457494D01*
X90468502Y-19347180D01*
X90504812Y-19227482D01*
X90517072Y-19103000D01*
X90514000Y-18888750D01*
X90355250Y-18730000D01*
X89281000Y-18730000D01*
X89027000Y-18730000D01*
X87952750Y-18730000D01*
X87794000Y-18888750D01*
X87790928Y-19103000D01*
X86453072Y-19103000D01*
X86450000Y-18888750D01*
X86291250Y-18730000D01*
X85217000Y-18730000D01*
X84963000Y-18730000D01*
X83888750Y-18730000D01*
X83730000Y-18888750D01*
X83726928Y-19103000D01*
X81681144Y-19103000D01*
X81712008Y-19001255D01*
X81729072Y-18828001D01*
X81729072Y-18302999D01*
X81712008Y-18129745D01*
X81661472Y-17963149D01*
X81614622Y-17875500D01*
X83770438Y-17875500D01*
X83739188Y-17978518D01*
%TA.AperFunction,Conductor*%
D23*
G36*
X83739188Y-17978518D02*
G01*
X83726928Y-18103000D01*
X83730000Y-18317250D01*
X83888750Y-18476000D01*
X84963000Y-18476000D01*
X84963000Y-18456000D01*
X85217000Y-18456000D01*
X85217000Y-18476000D01*
X86291250Y-18476000D01*
X86450000Y-18317250D01*
X86453072Y-18103000D01*
X86440812Y-17978518D01*
X86409562Y-17875500D01*
X87834438Y-17875500D01*
X87803188Y-17978518D01*
X87790928Y-18103000D01*
X87794000Y-18317250D01*
X87952750Y-18476000D01*
X89027000Y-18476000D01*
X89027000Y-18456000D01*
X89281000Y-18456000D01*
X89281000Y-18476000D01*
X90355250Y-18476000D01*
X90514000Y-18317250D01*
X90517072Y-18103000D01*
X90504812Y-17978518D01*
X90488886Y-17926018D01*
X90559000Y-17996132D01*
X90559001Y-20357866D01*
X87120865Y-23796004D01*
X87077551Y-23831551D01*
X86935716Y-24004377D01*
X86843272Y-24177330D01*
X86836764Y-24189506D01*
X86804957Y-24130000D01*
X86853502Y-24039180D01*
X86889812Y-23919482D01*
X86902072Y-23795000D01*
X86902072Y-23195000D01*
X86889812Y-23070518D01*
X86853502Y-22950820D01*
X86804957Y-22860000D01*
X86853502Y-22769180D01*
X86889812Y-22649482D01*
X86902072Y-22525000D01*
X86902072Y-21925000D01*
X86889812Y-21800518D01*
X86853502Y-21680820D01*
X86804957Y-21590000D01*
X86853502Y-21499180D01*
X86889812Y-21379482D01*
X86902072Y-21255000D01*
X86902072Y-20655000D01*
X86889812Y-20530518D01*
X86853502Y-20410820D01*
X86794537Y-20300506D01*
X86715185Y-20203815D01*
X86618494Y-20124463D01*
X86508180Y-20065498D01*
X86388482Y-20029188D01*
X86264000Y-20016928D01*
X84294000Y-20016928D01*
X84169518Y-20029188D01*
X84049820Y-20065498D01*
X83939506Y-20124463D01*
X83842815Y-20203815D01*
X83763463Y-20300506D01*
X83704498Y-20410820D01*
X83668188Y-20530518D01*
X83655928Y-20655000D01*
X83655928Y-21255000D01*
X83668188Y-21379482D01*
X83704498Y-21499180D01*
X83753043Y-21590000D01*
X83704498Y-21680820D01*
X83668188Y-21800518D01*
X83655928Y-21925000D01*
X83655928Y-22525000D01*
X83668188Y-22649482D01*
X83704498Y-22769180D01*
X83753043Y-22860000D01*
X83704498Y-22950820D01*
X83668188Y-23070518D01*
X83655928Y-23195000D01*
X83655928Y-23795000D01*
X83668188Y-23919482D01*
X83704498Y-24039180D01*
X83753043Y-24130000D01*
X83704498Y-24220820D01*
X83668188Y-24340518D01*
X83655928Y-24465000D01*
X83659000Y-24479250D01*
X83817750Y-24638000D01*
X85152000Y-24638000D01*
X85152000Y-24618000D01*
X85406000Y-24618000D01*
X85406000Y-24638000D01*
X85426000Y-24638000D01*
X85426000Y-24892000D01*
X85406000Y-24892000D01*
X85406000Y-24912000D01*
X85152000Y-24912000D01*
X85152000Y-24892000D01*
X83817750Y-24892000D01*
X83659000Y-25050750D01*
X83655928Y-25065000D01*
X83668188Y-25189482D01*
X83704498Y-25309180D01*
X83753043Y-25400000D01*
X83704498Y-25490820D01*
X83668188Y-25610518D01*
X83655928Y-25735000D01*
X83655928Y-26335000D01*
X83668188Y-26459482D01*
X83704498Y-26579180D01*
X83753043Y-26670000D01*
X83704498Y-26760820D01*
X83668188Y-26880518D01*
X83655928Y-27005000D01*
X83655928Y-27605000D01*
X83668188Y-27729482D01*
X83704498Y-27849180D01*
X83753043Y-27940000D01*
X83704498Y-28030820D01*
X83668188Y-28150518D01*
X83655928Y-28275000D01*
X83655928Y-28875000D01*
X83668188Y-28999482D01*
X83704498Y-29119180D01*
X83763463Y-29229494D01*
X83842815Y-29326185D01*
X83939506Y-29405537D01*
X84049820Y-29464502D01*
X84169518Y-29500812D01*
X84294000Y-29513072D01*
X86264000Y-29513072D01*
X86388482Y-29500812D01*
X86508180Y-29464502D01*
X86618494Y-29405537D01*
X86715185Y-29326185D01*
X86749001Y-29284980D01*
X86749001Y-30136866D01*
X83310865Y-33575004D01*
X83267551Y-33610551D01*
X83125716Y-33783377D01*
X83028915Y-33964482D01*
X83020324Y-33980554D01*
X82955423Y-34194502D01*
X82933509Y-34417000D01*
X82939000Y-34472751D01*
X82939000Y-34581868D01*
X82911107Y-34609761D01*
X82865537Y-34524506D01*
X82786185Y-34427815D01*
X82689494Y-34348463D01*
X82579180Y-34289498D01*
X82459482Y-34253188D01*
X82335000Y-34240928D01*
X80365000Y-34240928D01*
X80240518Y-34253188D01*
X80120820Y-34289498D01*
X80010506Y-34348463D01*
X79913815Y-34427815D01*
X79834463Y-34524506D01*
X79775498Y-34634820D01*
X79739188Y-34754518D01*
X79726928Y-34879000D01*
X79726928Y-35479000D01*
X79739188Y-35603482D01*
X79775498Y-35723180D01*
X79824043Y-35814000D01*
X79775498Y-35904820D01*
X79774960Y-35906594D01*
X79718324Y-36012553D01*
X79653423Y-36226501D01*
X79631509Y-36449000D01*
X79644805Y-36584000D01*
X78519795Y-36584000D01*
X78537008Y-36527255D01*
X78554072Y-36354001D01*
X78554072Y-35828999D01*
X78537008Y-35655745D01*
X78486472Y-35489149D01*
X78404405Y-35335613D01*
X78293962Y-35201038D01*
X78267109Y-35179000D01*
X78293962Y-35156962D01*
X78404405Y-35022387D01*
X78486472Y-34868851D01*
X78537008Y-34702255D01*
X78554072Y-34529001D01*
X78554072Y-34118246D01*
X78588577Y-34004499D01*
X78605000Y-33837752D01*
X78605000Y-33837743D01*
X78610490Y-33782001D01*
X78605000Y-33726259D01*
X78605000Y-25900000D01*
X78705928Y-25900000D01*
X78705928Y-26335000D01*
X78718188Y-26459482D01*
X78754498Y-26579180D01*
X78803043Y-26670000D01*
X78754498Y-26760820D01*
X78718188Y-26880518D01*
X78705928Y-27005000D01*
X78705928Y-27605000D01*
X78718188Y-27729482D01*
X78754498Y-27849180D01*
X78803043Y-27940000D01*
X78754498Y-28030820D01*
X78718188Y-28150518D01*
X78705928Y-28275000D01*
X78705928Y-28875000D01*
X78718188Y-28999482D01*
X78754498Y-29119180D01*
X78813463Y-29229494D01*
X78892815Y-29326185D01*
X78989506Y-29405537D01*
X79099820Y-29464502D01*
X79219518Y-29500812D01*
X79344000Y-29513072D01*
X81314000Y-29513072D01*
X81438482Y-29500812D01*
X81558180Y-29464502D01*
X81668494Y-29405537D01*
X81765185Y-29326185D01*
X81844537Y-29229494D01*
X81903502Y-29119180D01*
X81939812Y-28999482D01*
X81952072Y-28875000D01*
X81952072Y-28275000D01*
X81939812Y-28150518D01*
X81903502Y-28030820D01*
X81854957Y-27940000D01*
X81903502Y-27849180D01*
X81939812Y-27729482D01*
X81952072Y-27605000D01*
X81952072Y-27005000D01*
X81939812Y-26880518D01*
X81903502Y-26760820D01*
X81854957Y-26670000D01*
X81903502Y-26579180D01*
X81939812Y-26459482D01*
X81952072Y-26335000D01*
X81952072Y-25735000D01*
X81939812Y-25610518D01*
X81903502Y-25490820D01*
X81854957Y-25400000D01*
X81903502Y-25309180D01*
X81939812Y-25189482D01*
X81952072Y-25065000D01*
X81952072Y-24465000D01*
X81939812Y-24340518D01*
X81903502Y-24220820D01*
X81854957Y-24130000D01*
X81903502Y-24039180D01*
X81939812Y-23919482D01*
X81952072Y-23795000D01*
X81952072Y-23195000D01*
X81939812Y-23070518D01*
X81903502Y-22950820D01*
X81854957Y-22860000D01*
X81903502Y-22769180D01*
X81939812Y-22649482D01*
X81952072Y-22525000D01*
X81952072Y-21925000D01*
X81939812Y-21800518D01*
X81903502Y-21680820D01*
X81854957Y-21590000D01*
X81903502Y-21499180D01*
X81939812Y-21379482D01*
X81952072Y-21255000D01*
X81952072Y-20655000D01*
X81939812Y-20530518D01*
X81903502Y-20410820D01*
X81844537Y-20300506D01*
X81765185Y-20203815D01*
X81668494Y-20124463D01*
X81558180Y-20065498D01*
X81438482Y-20029188D01*
X81314000Y-20016928D01*
X81089000Y-20016928D01*
X81089000Y-19676335D01*
X81180851Y-19648472D01*
X81334387Y-19566405D01*
X81468962Y-19455962D01*
X81579405Y-19321387D01*
X81661472Y-19167851D01*
X81681144Y-19103000D01*
X83726928Y-19103000D01*
X83739188Y-19227482D01*
X83775498Y-19347180D01*
X83834463Y-19457494D01*
X83913815Y-19554185D01*
X84010506Y-19633537D01*
X84120820Y-19692502D01*
X84240518Y-19728812D01*
X84365000Y-19741072D01*
X84804250Y-19738000D01*
X84963000Y-19579250D01*
X84963000Y-18730000D01*
X85217000Y-18730000D01*
X85217000Y-19579250D01*
X85375750Y-19738000D01*
X85815000Y-19741072D01*
X85939482Y-19728812D01*
X86059180Y-19692502D01*
X86169494Y-19633537D01*
X86266185Y-19554185D01*
X86345537Y-19457494D01*
X86404502Y-19347180D01*
X86440812Y-19227482D01*
X86453072Y-19103000D01*
X87790928Y-19103000D01*
X87803188Y-19227482D01*
X87839498Y-19347180D01*
X87898463Y-19457494D01*
X87977815Y-19554185D01*
X88074506Y-19633537D01*
X88184820Y-19692502D01*
X88304518Y-19728812D01*
X88429000Y-19741072D01*
X88868250Y-19738000D01*
X89027000Y-19579250D01*
X89027000Y-18730000D01*
X89281000Y-18730000D01*
X89281000Y-19579250D01*
X89439750Y-19738000D01*
X89879000Y-19741072D01*
X90003482Y-19728812D01*
X90123180Y-19692502D01*
X90233494Y-19633537D01*
X90330185Y-19554185D01*
X90409537Y-19457494D01*
X90468502Y-19347180D01*
X90504812Y-19227482D01*
X90517072Y-19103000D01*
X90514000Y-18888750D01*
X90355250Y-18730000D01*
X89281000Y-18730000D01*
X89027000Y-18730000D01*
X87952750Y-18730000D01*
X87794000Y-18888750D01*
X87790928Y-19103000D01*
X86453072Y-19103000D01*
X86450000Y-18888750D01*
X86291250Y-18730000D01*
X85217000Y-18730000D01*
X84963000Y-18730000D01*
X83888750Y-18730000D01*
X83730000Y-18888750D01*
X83726928Y-19103000D01*
X81681144Y-19103000D01*
X81712008Y-19001255D01*
X81729072Y-18828001D01*
X81729072Y-18302999D01*
X81712008Y-18129745D01*
X81661472Y-17963149D01*
X81614622Y-17875500D01*
X83770438Y-17875500D01*
X83739188Y-17978518D01*
G37*
%TD.AperFunction*%
%TD*%
M02*
