%TF.GenerationSoftware,KiCad,Pcbnew,(5.1.9)-1*%
%TF.CreationDate,2021-02-06T18:12:04-05:00*%
%TF.ProjectId,DemodulatorCircuit,44656d6f-6475-46c6-9174-6f7243697263,rev?*%
%TF.SameCoordinates,Original*%
%TF.FileFunction,Legend,Top*%
%TF.FilePolarity,Positive*%
%FSLAX46Y46*%
G04 Gerber Fmt 4.6, Leading zero omitted, Abs format (unit mm)*
G04 Created by KiCad (PCBNEW (5.1.9)-1) date 2021-02-06 18:12:04*
%MOMM*%
%LPD*%
G01*
G04 APERTURE LIST*
%ADD10C,0.300000*%
%ADD11C,0.127000*%
%ADD12C,0.200000*%
%ADD13C,0.100000*%
%ADD14C,0.120000*%
%ADD15C,0.015000*%
%ADD16C,0.254000*%
%ADD17C,0.150000*%
G04 APERTURE END LIST*
D10*
X57227342Y-47129000D02*
X57084485Y-47057571D01*
X56870200Y-47057571D01*
X56655914Y-47129000D01*
X56513057Y-47271857D01*
X56441628Y-47414714D01*
X56370200Y-47700428D01*
X56370200Y-47914714D01*
X56441628Y-48200428D01*
X56513057Y-48343285D01*
X56655914Y-48486142D01*
X56870200Y-48557571D01*
X57013057Y-48557571D01*
X57227342Y-48486142D01*
X57298771Y-48414714D01*
X57298771Y-47914714D01*
X57013057Y-47914714D01*
X57727342Y-47057571D02*
X58584485Y-47057571D01*
X58155914Y-48557571D02*
X58155914Y-47057571D01*
X59941628Y-48557571D02*
X59441628Y-47843285D01*
X59084485Y-48557571D02*
X59084485Y-47057571D01*
X59655914Y-47057571D01*
X59798771Y-47129000D01*
X59870200Y-47200428D01*
X59941628Y-47343285D01*
X59941628Y-47557571D01*
X59870200Y-47700428D01*
X59798771Y-47771857D01*
X59655914Y-47843285D01*
X59084485Y-47843285D01*
X61084485Y-47771857D02*
X60584485Y-47771857D01*
X60584485Y-48557571D02*
X60584485Y-47057571D01*
X61298771Y-47057571D01*
X63013057Y-48557571D02*
X63013057Y-47057571D01*
X63370200Y-47057571D01*
X63584485Y-47129000D01*
X63727342Y-47271857D01*
X63798771Y-47414714D01*
X63870200Y-47700428D01*
X63870200Y-47914714D01*
X63798771Y-48200428D01*
X63727342Y-48343285D01*
X63584485Y-48486142D01*
X63370200Y-48557571D01*
X63013057Y-48557571D01*
X65084485Y-48486142D02*
X64941628Y-48557571D01*
X64655914Y-48557571D01*
X64513057Y-48486142D01*
X64441628Y-48343285D01*
X64441628Y-47771857D01*
X64513057Y-47629000D01*
X64655914Y-47557571D01*
X64941628Y-47557571D01*
X65084485Y-47629000D01*
X65155914Y-47771857D01*
X65155914Y-47914714D01*
X64441628Y-48057571D01*
X65798771Y-48557571D02*
X65798771Y-47557571D01*
X65798771Y-47700428D02*
X65870200Y-47629000D01*
X66013057Y-47557571D01*
X66227342Y-47557571D01*
X66370200Y-47629000D01*
X66441628Y-47771857D01*
X66441628Y-48557571D01*
X66441628Y-47771857D02*
X66513057Y-47629000D01*
X66655914Y-47557571D01*
X66870200Y-47557571D01*
X67013057Y-47629000D01*
X67084485Y-47771857D01*
X67084485Y-48557571D01*
X68013057Y-48557571D02*
X67870200Y-48486142D01*
X67798771Y-48414714D01*
X67727342Y-48271857D01*
X67727342Y-47843285D01*
X67798771Y-47700428D01*
X67870200Y-47629000D01*
X68013057Y-47557571D01*
X68227342Y-47557571D01*
X68370200Y-47629000D01*
X68441628Y-47700428D01*
X68513057Y-47843285D01*
X68513057Y-48271857D01*
X68441628Y-48414714D01*
X68370200Y-48486142D01*
X68227342Y-48557571D01*
X68013057Y-48557571D01*
X69798771Y-48557571D02*
X69798771Y-47057571D01*
X69798771Y-48486142D02*
X69655914Y-48557571D01*
X69370200Y-48557571D01*
X69227342Y-48486142D01*
X69155914Y-48414714D01*
X69084485Y-48271857D01*
X69084485Y-47843285D01*
X69155914Y-47700428D01*
X69227342Y-47629000D01*
X69370200Y-47557571D01*
X69655914Y-47557571D01*
X69798771Y-47629000D01*
X72513057Y-48557571D02*
X72013057Y-47843285D01*
X71655914Y-48557571D02*
X71655914Y-47057571D01*
X72227342Y-47057571D01*
X72370200Y-47129000D01*
X72441628Y-47200428D01*
X72513057Y-47343285D01*
X72513057Y-47557571D01*
X72441628Y-47700428D01*
X72370200Y-47771857D01*
X72227342Y-47843285D01*
X71655914Y-47843285D01*
X73727342Y-48486142D02*
X73584485Y-48557571D01*
X73298771Y-48557571D01*
X73155914Y-48486142D01*
X73084485Y-48343285D01*
X73084485Y-47771857D01*
X73155914Y-47629000D01*
X73298771Y-47557571D01*
X73584485Y-47557571D01*
X73727342Y-47629000D01*
X73798771Y-47771857D01*
X73798771Y-47914714D01*
X73084485Y-48057571D01*
X74298771Y-47557571D02*
X74655914Y-48557571D01*
X75013057Y-47557571D01*
X76370200Y-48557571D02*
X75513057Y-48557571D01*
X75941628Y-48557571D02*
X75941628Y-47057571D01*
X75798771Y-47271857D01*
X75655914Y-47414714D01*
X75513057Y-47486142D01*
D11*
%TO.C,U4*%
X98813000Y-44477000D02*
X98813000Y-42137000D01*
X90163000Y-44477000D02*
X90163000Y-42137000D01*
D12*
X90488000Y-47357000D02*
G75*
G03*
X90488000Y-47357000I-100000J0D01*
G01*
D13*
%TO.C,U3*%
X66349000Y-34314000D02*
G75*
G03*
X66349000Y-34414000I0J-50000D01*
G01*
X66349000Y-34414000D02*
G75*
G03*
X66349000Y-34314000I0J50000D01*
G01*
X68849000Y-34089000D02*
X67849000Y-34089000D01*
X68849000Y-37539000D02*
X67849000Y-37539000D01*
X66349000Y-34314000D02*
X66349000Y-34314000D01*
X66349000Y-34414000D02*
X66349000Y-34414000D01*
D11*
%TO.C,U2*%
X81634000Y-29090000D02*
X83974000Y-29090000D01*
X81634000Y-20440000D02*
X83974000Y-20440000D01*
D12*
X78854000Y-20665000D02*
G75*
G03*
X78854000Y-20665000I-100000J0D01*
G01*
%TO.C,U1*%
X79880000Y-34779000D02*
G75*
G03*
X79880000Y-34779000I-100000J0D01*
G01*
D11*
X81870000Y-34559000D02*
X85770000Y-34559000D01*
X81870000Y-39609000D02*
X85770000Y-39609000D01*
%TO.C,IC2*%
X98559000Y-28729000D02*
X98559000Y-26389000D01*
X89909000Y-28729000D02*
X89909000Y-26389000D01*
D12*
X90234000Y-31609000D02*
G75*
G03*
X90234000Y-31609000I-100000J0D01*
G01*
D14*
%TO.C,Jout1*%
X103946000Y-24578000D02*
X101286000Y-24578000D01*
X103946000Y-27178000D02*
X103946000Y-24578000D01*
X101286000Y-27178000D02*
X101286000Y-24578000D01*
X103946000Y-27178000D02*
X101286000Y-27178000D01*
X103946000Y-28448000D02*
X103946000Y-29778000D01*
X103946000Y-29778000D02*
X102616000Y-29778000D01*
%TO.C,J2*%
X57852000Y-23682000D02*
X60512000Y-23682000D01*
X57852000Y-21082000D02*
X57852000Y-23682000D01*
X60512000Y-21082000D02*
X60512000Y-23682000D01*
X57852000Y-21082000D02*
X60512000Y-21082000D01*
X57852000Y-19812000D02*
X57852000Y-18482000D01*
X57852000Y-18482000D02*
X59182000Y-18482000D01*
%TO.C,Rout1*%
X94969000Y-34517064D02*
X94969000Y-34062936D01*
X93499000Y-34517064D02*
X93499000Y-34062936D01*
%TO.C,RJumper1*%
X68402564Y-41048000D02*
X67948436Y-41048000D01*
X68402564Y-42518000D02*
X67948436Y-42518000D01*
%TO.C,RFB2*%
X73814000Y-19457936D02*
X73814000Y-19912064D01*
X75284000Y-19457936D02*
X75284000Y-19912064D01*
%TO.C,R_CMG1*%
X79656000Y-17425936D02*
X79656000Y-17880064D01*
X81126000Y-17425936D02*
X81126000Y-17880064D01*
%TO.C,R4*%
X76481000Y-40158936D02*
X76481000Y-40613064D01*
X77951000Y-40158936D02*
X77951000Y-40613064D01*
%TO.C,R3*%
X76481000Y-34951936D02*
X76481000Y-35406064D01*
X77951000Y-34951936D02*
X77951000Y-35406064D01*
%TO.C,R2*%
X67845000Y-25934936D02*
X67845000Y-26389064D01*
X69315000Y-25934936D02*
X69315000Y-26389064D01*
%TO.C,R1*%
X67845000Y-20473936D02*
X67845000Y-20928064D01*
X69315000Y-20473936D02*
X69315000Y-20928064D01*
%TO.C,Cout1*%
X98779000Y-34551252D02*
X98779000Y-34028748D01*
X97309000Y-34551252D02*
X97309000Y-34028748D01*
%TO.C,Cin1*%
X73941000Y-24122748D02*
X73941000Y-24645252D01*
X75411000Y-24122748D02*
X75411000Y-24645252D01*
%TO.C,CC1*%
X64035000Y-16248748D02*
X64035000Y-16771252D01*
X65505000Y-16248748D02*
X65505000Y-16771252D01*
%TO.C,C_CMG1*%
X84355000Y-17391748D02*
X84355000Y-17914252D01*
X85825000Y-17391748D02*
X85825000Y-17914252D01*
%TO.C,C2*%
X88419000Y-17391748D02*
X88419000Y-17914252D01*
X89889000Y-17391748D02*
X89889000Y-17914252D01*
%TO.C,U4*%
D15*
X88505380Y-44493904D02*
X89314904Y-44493904D01*
X89410142Y-44446285D01*
X89457761Y-44398666D01*
X89505380Y-44303428D01*
X89505380Y-44112952D01*
X89457761Y-44017714D01*
X89410142Y-43970095D01*
X89314904Y-43922476D01*
X88505380Y-43922476D01*
X88838714Y-43017714D02*
X89505380Y-43017714D01*
X88457761Y-43255809D02*
X89172047Y-43493904D01*
X89172047Y-42874857D01*
%TO.C,U3*%
D16*
X67503523Y-36781619D02*
X68531619Y-36781619D01*
X68652571Y-36721142D01*
X68713047Y-36660666D01*
X68773523Y-36539714D01*
X68773523Y-36297809D01*
X68713047Y-36176857D01*
X68652571Y-36116380D01*
X68531619Y-36055904D01*
X67503523Y-36055904D01*
X67503523Y-35572095D02*
X67503523Y-34785904D01*
X67987333Y-35209238D01*
X67987333Y-35027809D01*
X68047809Y-34906857D01*
X68108285Y-34846380D01*
X68229238Y-34785904D01*
X68531619Y-34785904D01*
X68652571Y-34846380D01*
X68713047Y-34906857D01*
X68773523Y-35027809D01*
X68773523Y-35390666D01*
X68713047Y-35511619D01*
X68652571Y-35572095D01*
%TO.C,U2*%
D15*
X81617095Y-18782380D02*
X81617095Y-19591904D01*
X81664714Y-19687142D01*
X81712333Y-19734761D01*
X81807571Y-19782380D01*
X81998047Y-19782380D01*
X82093285Y-19734761D01*
X82140904Y-19687142D01*
X82188523Y-19591904D01*
X82188523Y-18782380D01*
X82617095Y-18877619D02*
X82664714Y-18830000D01*
X82759952Y-18782380D01*
X82998047Y-18782380D01*
X83093285Y-18830000D01*
X83140904Y-18877619D01*
X83188523Y-18972857D01*
X83188523Y-19068095D01*
X83140904Y-19210952D01*
X82569476Y-19782380D01*
X83188523Y-19782380D01*
%TO.C,U1*%
X82673095Y-32999380D02*
X82673095Y-33808904D01*
X82720714Y-33904142D01*
X82768333Y-33951761D01*
X82863571Y-33999380D01*
X83054047Y-33999380D01*
X83149285Y-33951761D01*
X83196904Y-33904142D01*
X83244523Y-33808904D01*
X83244523Y-32999380D01*
X84244523Y-33999380D02*
X83673095Y-33999380D01*
X83958809Y-33999380D02*
X83958809Y-32999380D01*
X83863571Y-33142238D01*
X83768333Y-33237476D01*
X83673095Y-33285095D01*
%TO.C,J3*%
X101192710Y-35980383D02*
X101906996Y-35980383D01*
X102049853Y-36028002D01*
X102145091Y-36123240D01*
X102192710Y-36266097D01*
X102192710Y-36361335D01*
X101192710Y-35599430D02*
X101192710Y-34980383D01*
X101573663Y-35313716D01*
X101573663Y-35170859D01*
X101621282Y-35075621D01*
X101668901Y-35028002D01*
X101764139Y-34980383D01*
X102002234Y-34980383D01*
X102097472Y-35028002D01*
X102145091Y-35075621D01*
X102192710Y-35170859D01*
X102192710Y-35456573D01*
X102145091Y-35551811D01*
X102097472Y-35599430D01*
%TO.C,J1*%
X55192050Y-37838283D02*
X55906336Y-37838283D01*
X56049193Y-37885902D01*
X56144431Y-37981140D01*
X56192050Y-38123997D01*
X56192050Y-38219235D01*
X56192050Y-36838283D02*
X56192050Y-37409711D01*
X56192050Y-37123997D02*
X55192050Y-37123997D01*
X55334908Y-37219235D01*
X55430146Y-37314473D01*
X55477765Y-37409711D01*
%TO.C,IC2*%
X89251380Y-28960190D02*
X88251380Y-28960190D01*
X89156142Y-27912571D02*
X89203761Y-27960190D01*
X89251380Y-28103047D01*
X89251380Y-28198285D01*
X89203761Y-28341142D01*
X89108523Y-28436380D01*
X89013285Y-28484000D01*
X88822809Y-28531619D01*
X88679952Y-28531619D01*
X88489476Y-28484000D01*
X88394238Y-28436380D01*
X88299000Y-28341142D01*
X88251380Y-28198285D01*
X88251380Y-28103047D01*
X88299000Y-27960190D01*
X88346619Y-27912571D01*
X88346619Y-27531619D02*
X88299000Y-27484000D01*
X88251380Y-27388761D01*
X88251380Y-27150666D01*
X88299000Y-27055428D01*
X88346619Y-27007809D01*
X88441857Y-26960190D01*
X88537095Y-26960190D01*
X88679952Y-27007809D01*
X89251380Y-27579238D01*
X89251380Y-26960190D01*
%TO.C,Jout1*%
D17*
X101092190Y-30230380D02*
X101092190Y-30944666D01*
X101044571Y-31087523D01*
X100949333Y-31182761D01*
X100806476Y-31230380D01*
X100711238Y-31230380D01*
X101711238Y-31230380D02*
X101616000Y-31182761D01*
X101568380Y-31135142D01*
X101520761Y-31039904D01*
X101520761Y-30754190D01*
X101568380Y-30658952D01*
X101616000Y-30611333D01*
X101711238Y-30563714D01*
X101854095Y-30563714D01*
X101949333Y-30611333D01*
X101996952Y-30658952D01*
X102044571Y-30754190D01*
X102044571Y-31039904D01*
X101996952Y-31135142D01*
X101949333Y-31182761D01*
X101854095Y-31230380D01*
X101711238Y-31230380D01*
X102901714Y-30563714D02*
X102901714Y-31230380D01*
X102473142Y-30563714D02*
X102473142Y-31087523D01*
X102520761Y-31182761D01*
X102616000Y-31230380D01*
X102758857Y-31230380D01*
X102854095Y-31182761D01*
X102901714Y-31135142D01*
X103235047Y-30563714D02*
X103616000Y-30563714D01*
X103377904Y-30230380D02*
X103377904Y-31087523D01*
X103425523Y-31182761D01*
X103520761Y-31230380D01*
X103616000Y-31230380D01*
X104473142Y-31230380D02*
X103901714Y-31230380D01*
X104187428Y-31230380D02*
X104187428Y-30230380D01*
X104092190Y-30373238D01*
X103996952Y-30468476D01*
X103901714Y-30516095D01*
%TO.C,J2*%
X58848666Y-16934380D02*
X58848666Y-17648666D01*
X58801047Y-17791523D01*
X58705809Y-17886761D01*
X58562952Y-17934380D01*
X58467714Y-17934380D01*
X59277238Y-17029619D02*
X59324857Y-16982000D01*
X59420095Y-16934380D01*
X59658190Y-16934380D01*
X59753428Y-16982000D01*
X59801047Y-17029619D01*
X59848666Y-17124857D01*
X59848666Y-17220095D01*
X59801047Y-17362952D01*
X59229619Y-17934380D01*
X59848666Y-17934380D01*
%TO.C,Rout1*%
X93036380Y-35647142D02*
X92560190Y-35980476D01*
X93036380Y-36218571D02*
X92036380Y-36218571D01*
X92036380Y-35837619D01*
X92084000Y-35742380D01*
X92131619Y-35694761D01*
X92226857Y-35647142D01*
X92369714Y-35647142D01*
X92464952Y-35694761D01*
X92512571Y-35742380D01*
X92560190Y-35837619D01*
X92560190Y-36218571D01*
X93036380Y-35075714D02*
X92988761Y-35170952D01*
X92941142Y-35218571D01*
X92845904Y-35266190D01*
X92560190Y-35266190D01*
X92464952Y-35218571D01*
X92417333Y-35170952D01*
X92369714Y-35075714D01*
X92369714Y-34932857D01*
X92417333Y-34837619D01*
X92464952Y-34790000D01*
X92560190Y-34742380D01*
X92845904Y-34742380D01*
X92941142Y-34790000D01*
X92988761Y-34837619D01*
X93036380Y-34932857D01*
X93036380Y-35075714D01*
X92369714Y-33885238D02*
X93036380Y-33885238D01*
X92369714Y-34313809D02*
X92893523Y-34313809D01*
X92988761Y-34266190D01*
X93036380Y-34170952D01*
X93036380Y-34028095D01*
X92988761Y-33932857D01*
X92941142Y-33885238D01*
X92369714Y-33551904D02*
X92369714Y-33170952D01*
X92036380Y-33409047D02*
X92893523Y-33409047D01*
X92988761Y-33361428D01*
X93036380Y-33266190D01*
X93036380Y-33170952D01*
X93036380Y-32313809D02*
X93036380Y-32885238D01*
X93036380Y-32599523D02*
X92036380Y-32599523D01*
X92179238Y-32694761D01*
X92274476Y-32790000D01*
X92322095Y-32885238D01*
%TO.C,RJumper1*%
X65318357Y-43885380D02*
X64985023Y-43409190D01*
X64746928Y-43885380D02*
X64746928Y-42885380D01*
X65127880Y-42885380D01*
X65223119Y-42933000D01*
X65270738Y-42980619D01*
X65318357Y-43075857D01*
X65318357Y-43218714D01*
X65270738Y-43313952D01*
X65223119Y-43361571D01*
X65127880Y-43409190D01*
X64746928Y-43409190D01*
X66032642Y-42885380D02*
X66032642Y-43599666D01*
X65985023Y-43742523D01*
X65889785Y-43837761D01*
X65746928Y-43885380D01*
X65651690Y-43885380D01*
X66937404Y-43218714D02*
X66937404Y-43885380D01*
X66508833Y-43218714D02*
X66508833Y-43742523D01*
X66556452Y-43837761D01*
X66651690Y-43885380D01*
X66794547Y-43885380D01*
X66889785Y-43837761D01*
X66937404Y-43790142D01*
X67413595Y-43885380D02*
X67413595Y-43218714D01*
X67413595Y-43313952D02*
X67461214Y-43266333D01*
X67556452Y-43218714D01*
X67699309Y-43218714D01*
X67794547Y-43266333D01*
X67842166Y-43361571D01*
X67842166Y-43885380D01*
X67842166Y-43361571D02*
X67889785Y-43266333D01*
X67985023Y-43218714D01*
X68127880Y-43218714D01*
X68223119Y-43266333D01*
X68270738Y-43361571D01*
X68270738Y-43885380D01*
X68746928Y-43218714D02*
X68746928Y-44218714D01*
X68746928Y-43266333D02*
X68842166Y-43218714D01*
X69032642Y-43218714D01*
X69127880Y-43266333D01*
X69175500Y-43313952D01*
X69223119Y-43409190D01*
X69223119Y-43694904D01*
X69175500Y-43790142D01*
X69127880Y-43837761D01*
X69032642Y-43885380D01*
X68842166Y-43885380D01*
X68746928Y-43837761D01*
X70032642Y-43837761D02*
X69937404Y-43885380D01*
X69746928Y-43885380D01*
X69651690Y-43837761D01*
X69604071Y-43742523D01*
X69604071Y-43361571D01*
X69651690Y-43266333D01*
X69746928Y-43218714D01*
X69937404Y-43218714D01*
X70032642Y-43266333D01*
X70080261Y-43361571D01*
X70080261Y-43456809D01*
X69604071Y-43552047D01*
X70508833Y-43885380D02*
X70508833Y-43218714D01*
X70508833Y-43409190D02*
X70556452Y-43313952D01*
X70604071Y-43266333D01*
X70699309Y-43218714D01*
X70794547Y-43218714D01*
X71651690Y-43885380D02*
X71080261Y-43885380D01*
X71365976Y-43885380D02*
X71365976Y-42885380D01*
X71270738Y-43028238D01*
X71175500Y-43123476D01*
X71080261Y-43171095D01*
%TO.C,RFB2*%
X76651380Y-20780238D02*
X76175190Y-21113571D01*
X76651380Y-21351666D02*
X75651380Y-21351666D01*
X75651380Y-20970714D01*
X75699000Y-20875476D01*
X75746619Y-20827857D01*
X75841857Y-20780238D01*
X75984714Y-20780238D01*
X76079952Y-20827857D01*
X76127571Y-20875476D01*
X76175190Y-20970714D01*
X76175190Y-21351666D01*
X76127571Y-20018333D02*
X76127571Y-20351666D01*
X76651380Y-20351666D02*
X75651380Y-20351666D01*
X75651380Y-19875476D01*
X76127571Y-19161190D02*
X76175190Y-19018333D01*
X76222809Y-18970714D01*
X76318047Y-18923095D01*
X76460904Y-18923095D01*
X76556142Y-18970714D01*
X76603761Y-19018333D01*
X76651380Y-19113571D01*
X76651380Y-19494523D01*
X75651380Y-19494523D01*
X75651380Y-19161190D01*
X75699000Y-19065952D01*
X75746619Y-19018333D01*
X75841857Y-18970714D01*
X75937095Y-18970714D01*
X76032333Y-19018333D01*
X76079952Y-19065952D01*
X76127571Y-19161190D01*
X76127571Y-19494523D01*
X75746619Y-18542142D02*
X75699000Y-18494523D01*
X75651380Y-18399285D01*
X75651380Y-18161190D01*
X75699000Y-18065952D01*
X75746619Y-18018333D01*
X75841857Y-17970714D01*
X75937095Y-17970714D01*
X76079952Y-18018333D01*
X76651380Y-18589761D01*
X76651380Y-17970714D01*
%TO.C,R_CMG1*%
X82493380Y-19772047D02*
X82017190Y-20105380D01*
X82493380Y-20343476D02*
X81493380Y-20343476D01*
X81493380Y-19962523D01*
X81541000Y-19867285D01*
X81588619Y-19819666D01*
X81683857Y-19772047D01*
X81826714Y-19772047D01*
X81921952Y-19819666D01*
X81969571Y-19867285D01*
X82017190Y-19962523D01*
X82017190Y-20343476D01*
X82588619Y-19581571D02*
X82588619Y-18819666D01*
X82398142Y-18010142D02*
X82445761Y-18057761D01*
X82493380Y-18200619D01*
X82493380Y-18295857D01*
X82445761Y-18438714D01*
X82350523Y-18533952D01*
X82255285Y-18581571D01*
X82064809Y-18629190D01*
X81921952Y-18629190D01*
X81731476Y-18581571D01*
X81636238Y-18533952D01*
X81541000Y-18438714D01*
X81493380Y-18295857D01*
X81493380Y-18200619D01*
X81541000Y-18057761D01*
X81588619Y-18010142D01*
X82493380Y-17581571D02*
X81493380Y-17581571D01*
X82207666Y-17248238D01*
X81493380Y-16914904D01*
X82493380Y-16914904D01*
X81541000Y-15914904D02*
X81493380Y-16010142D01*
X81493380Y-16153000D01*
X81541000Y-16295857D01*
X81636238Y-16391095D01*
X81731476Y-16438714D01*
X81921952Y-16486333D01*
X82064809Y-16486333D01*
X82255285Y-16438714D01*
X82350523Y-16391095D01*
X82445761Y-16295857D01*
X82493380Y-16153000D01*
X82493380Y-16057761D01*
X82445761Y-15914904D01*
X82398142Y-15867285D01*
X82064809Y-15867285D01*
X82064809Y-16057761D01*
X82493380Y-14914904D02*
X82493380Y-15486333D01*
X82493380Y-15200619D02*
X81493380Y-15200619D01*
X81636238Y-15295857D01*
X81731476Y-15391095D01*
X81779095Y-15486333D01*
%TO.C,R4*%
X79318380Y-40552666D02*
X78842190Y-40886000D01*
X79318380Y-41124095D02*
X78318380Y-41124095D01*
X78318380Y-40743142D01*
X78366000Y-40647904D01*
X78413619Y-40600285D01*
X78508857Y-40552666D01*
X78651714Y-40552666D01*
X78746952Y-40600285D01*
X78794571Y-40647904D01*
X78842190Y-40743142D01*
X78842190Y-41124095D01*
X78651714Y-39695523D02*
X79318380Y-39695523D01*
X78270761Y-39933619D02*
X78985047Y-40171714D01*
X78985047Y-39552666D01*
%TO.C,R3*%
X79318380Y-35345666D02*
X78842190Y-35679000D01*
X79318380Y-35917095D02*
X78318380Y-35917095D01*
X78318380Y-35536142D01*
X78366000Y-35440904D01*
X78413619Y-35393285D01*
X78508857Y-35345666D01*
X78651714Y-35345666D01*
X78746952Y-35393285D01*
X78794571Y-35440904D01*
X78842190Y-35536142D01*
X78842190Y-35917095D01*
X78318380Y-35012333D02*
X78318380Y-34393285D01*
X78699333Y-34726619D01*
X78699333Y-34583761D01*
X78746952Y-34488523D01*
X78794571Y-34440904D01*
X78889809Y-34393285D01*
X79127904Y-34393285D01*
X79223142Y-34440904D01*
X79270761Y-34488523D01*
X79318380Y-34583761D01*
X79318380Y-34869476D01*
X79270761Y-34964714D01*
X79223142Y-35012333D01*
%TO.C,R2*%
X70682380Y-26328666D02*
X70206190Y-26662000D01*
X70682380Y-26900095D02*
X69682380Y-26900095D01*
X69682380Y-26519142D01*
X69730000Y-26423904D01*
X69777619Y-26376285D01*
X69872857Y-26328666D01*
X70015714Y-26328666D01*
X70110952Y-26376285D01*
X70158571Y-26423904D01*
X70206190Y-26519142D01*
X70206190Y-26900095D01*
X69777619Y-25947714D02*
X69730000Y-25900095D01*
X69682380Y-25804857D01*
X69682380Y-25566761D01*
X69730000Y-25471523D01*
X69777619Y-25423904D01*
X69872857Y-25376285D01*
X69968095Y-25376285D01*
X70110952Y-25423904D01*
X70682380Y-25995333D01*
X70682380Y-25376285D01*
%TO.C,R1*%
X70682380Y-20867666D02*
X70206190Y-21201000D01*
X70682380Y-21439095D02*
X69682380Y-21439095D01*
X69682380Y-21058142D01*
X69730000Y-20962904D01*
X69777619Y-20915285D01*
X69872857Y-20867666D01*
X70015714Y-20867666D01*
X70110952Y-20915285D01*
X70158571Y-20962904D01*
X70206190Y-21058142D01*
X70206190Y-21439095D01*
X70682380Y-19915285D02*
X70682380Y-20486714D01*
X70682380Y-20201000D02*
X69682380Y-20201000D01*
X69825238Y-20296238D01*
X69920476Y-20391476D01*
X69968095Y-20486714D01*
%TO.C,Cout1*%
X96721142Y-35647142D02*
X96768761Y-35694761D01*
X96816380Y-35837619D01*
X96816380Y-35932857D01*
X96768761Y-36075714D01*
X96673523Y-36170952D01*
X96578285Y-36218571D01*
X96387809Y-36266190D01*
X96244952Y-36266190D01*
X96054476Y-36218571D01*
X95959238Y-36170952D01*
X95864000Y-36075714D01*
X95816380Y-35932857D01*
X95816380Y-35837619D01*
X95864000Y-35694761D01*
X95911619Y-35647142D01*
X96816380Y-35075714D02*
X96768761Y-35170952D01*
X96721142Y-35218571D01*
X96625904Y-35266190D01*
X96340190Y-35266190D01*
X96244952Y-35218571D01*
X96197333Y-35170952D01*
X96149714Y-35075714D01*
X96149714Y-34932857D01*
X96197333Y-34837619D01*
X96244952Y-34790000D01*
X96340190Y-34742380D01*
X96625904Y-34742380D01*
X96721142Y-34790000D01*
X96768761Y-34837619D01*
X96816380Y-34932857D01*
X96816380Y-35075714D01*
X96149714Y-33885238D02*
X96816380Y-33885238D01*
X96149714Y-34313809D02*
X96673523Y-34313809D01*
X96768761Y-34266190D01*
X96816380Y-34170952D01*
X96816380Y-34028095D01*
X96768761Y-33932857D01*
X96721142Y-33885238D01*
X96149714Y-33551904D02*
X96149714Y-33170952D01*
X95816380Y-33409047D02*
X96673523Y-33409047D01*
X96768761Y-33361428D01*
X96816380Y-33266190D01*
X96816380Y-33170952D01*
X96816380Y-32313809D02*
X96816380Y-32885238D01*
X96816380Y-32599523D02*
X95816380Y-32599523D01*
X95959238Y-32694761D01*
X96054476Y-32790000D01*
X96102095Y-32885238D01*
%TO.C,Cin1*%
X76713142Y-25241142D02*
X76760761Y-25288761D01*
X76808380Y-25431619D01*
X76808380Y-25526857D01*
X76760761Y-25669714D01*
X76665523Y-25764952D01*
X76570285Y-25812571D01*
X76379809Y-25860190D01*
X76236952Y-25860190D01*
X76046476Y-25812571D01*
X75951238Y-25764952D01*
X75856000Y-25669714D01*
X75808380Y-25526857D01*
X75808380Y-25431619D01*
X75856000Y-25288761D01*
X75903619Y-25241142D01*
X76808380Y-24812571D02*
X76141714Y-24812571D01*
X75808380Y-24812571D02*
X75856000Y-24860190D01*
X75903619Y-24812571D01*
X75856000Y-24764952D01*
X75808380Y-24812571D01*
X75903619Y-24812571D01*
X76141714Y-24336380D02*
X76808380Y-24336380D01*
X76236952Y-24336380D02*
X76189333Y-24288761D01*
X76141714Y-24193523D01*
X76141714Y-24050666D01*
X76189333Y-23955428D01*
X76284571Y-23907809D01*
X76808380Y-23907809D01*
X76808380Y-22907809D02*
X76808380Y-23479238D01*
X76808380Y-23193523D02*
X75808380Y-23193523D01*
X75951238Y-23288761D01*
X76046476Y-23384000D01*
X76094095Y-23479238D01*
%TO.C,CC1*%
X66807142Y-17176666D02*
X66854761Y-17224285D01*
X66902380Y-17367142D01*
X66902380Y-17462380D01*
X66854761Y-17605238D01*
X66759523Y-17700476D01*
X66664285Y-17748095D01*
X66473809Y-17795714D01*
X66330952Y-17795714D01*
X66140476Y-17748095D01*
X66045238Y-17700476D01*
X65950000Y-17605238D01*
X65902380Y-17462380D01*
X65902380Y-17367142D01*
X65950000Y-17224285D01*
X65997619Y-17176666D01*
X66807142Y-16176666D02*
X66854761Y-16224285D01*
X66902380Y-16367142D01*
X66902380Y-16462380D01*
X66854761Y-16605238D01*
X66759523Y-16700476D01*
X66664285Y-16748095D01*
X66473809Y-16795714D01*
X66330952Y-16795714D01*
X66140476Y-16748095D01*
X66045238Y-16700476D01*
X65950000Y-16605238D01*
X65902380Y-16462380D01*
X65902380Y-16367142D01*
X65950000Y-16224285D01*
X65997619Y-16176666D01*
X66902380Y-15224285D02*
X66902380Y-15795714D01*
X66902380Y-15510000D02*
X65902380Y-15510000D01*
X66045238Y-15605238D01*
X66140476Y-15700476D01*
X66188095Y-15795714D01*
%TO.C,C_CMG1*%
X87127142Y-19772047D02*
X87174761Y-19819666D01*
X87222380Y-19962523D01*
X87222380Y-20057761D01*
X87174761Y-20200619D01*
X87079523Y-20295857D01*
X86984285Y-20343476D01*
X86793809Y-20391095D01*
X86650952Y-20391095D01*
X86460476Y-20343476D01*
X86365238Y-20295857D01*
X86270000Y-20200619D01*
X86222380Y-20057761D01*
X86222380Y-19962523D01*
X86270000Y-19819666D01*
X86317619Y-19772047D01*
X87317619Y-19581571D02*
X87317619Y-18819666D01*
X87127142Y-18010142D02*
X87174761Y-18057761D01*
X87222380Y-18200619D01*
X87222380Y-18295857D01*
X87174761Y-18438714D01*
X87079523Y-18533952D01*
X86984285Y-18581571D01*
X86793809Y-18629190D01*
X86650952Y-18629190D01*
X86460476Y-18581571D01*
X86365238Y-18533952D01*
X86270000Y-18438714D01*
X86222380Y-18295857D01*
X86222380Y-18200619D01*
X86270000Y-18057761D01*
X86317619Y-18010142D01*
X87222380Y-17581571D02*
X86222380Y-17581571D01*
X86936666Y-17248238D01*
X86222380Y-16914904D01*
X87222380Y-16914904D01*
X86270000Y-15914904D02*
X86222380Y-16010142D01*
X86222380Y-16153000D01*
X86270000Y-16295857D01*
X86365238Y-16391095D01*
X86460476Y-16438714D01*
X86650952Y-16486333D01*
X86793809Y-16486333D01*
X86984285Y-16438714D01*
X87079523Y-16391095D01*
X87174761Y-16295857D01*
X87222380Y-16153000D01*
X87222380Y-16057761D01*
X87174761Y-15914904D01*
X87127142Y-15867285D01*
X86793809Y-15867285D01*
X86793809Y-16057761D01*
X87222380Y-14914904D02*
X87222380Y-15486333D01*
X87222380Y-15200619D02*
X86222380Y-15200619D01*
X86365238Y-15295857D01*
X86460476Y-15391095D01*
X86508095Y-15486333D01*
%TO.C,C2*%
X91191142Y-17819666D02*
X91238761Y-17867285D01*
X91286380Y-18010142D01*
X91286380Y-18105380D01*
X91238761Y-18248238D01*
X91143523Y-18343476D01*
X91048285Y-18391095D01*
X90857809Y-18438714D01*
X90714952Y-18438714D01*
X90524476Y-18391095D01*
X90429238Y-18343476D01*
X90334000Y-18248238D01*
X90286380Y-18105380D01*
X90286380Y-18010142D01*
X90334000Y-17867285D01*
X90381619Y-17819666D01*
X90381619Y-17438714D02*
X90334000Y-17391095D01*
X90286380Y-17295857D01*
X90286380Y-17057761D01*
X90334000Y-16962523D01*
X90381619Y-16914904D01*
X90476857Y-16867285D01*
X90572095Y-16867285D01*
X90714952Y-16914904D01*
X91286380Y-17486333D01*
X91286380Y-16867285D01*
%TD*%
M02*
