M48
; DRILL file {KiCad (5.1.9)-1} date 02/11/21 15:57:49
; FORMAT={-:-/ absolute / inch / decimal}
; #@! TF.CreationDate,2021-02-11T15:57:49-05:00
; #@! TF.GenerationSoftware,Kicad,Pcbnew,(5.1.9)-1
; #@! TF.FileFunction,Plated,1,2,PTH
FMAT,2
INCH
T1C0.0157
T2C0.0394
%
G90
G05
T1
X1.3964Y-1.1171
X1.3964Y-1.2746
X1.3964Y-1.4321
X1.3964Y-1.5896
X1.3964Y-1.747
X1.3964Y-2.2195
X1.3964Y-2.377
X1.3964Y-2.5344
X1.3964Y-2.6919
X1.4751Y-1.1959
X1.4751Y-1.3533
X1.4751Y-1.5108
X1.4751Y-1.6683
X1.4751Y-2.2982
X1.4751Y-2.4557
X1.4751Y-2.6132
X1.5145Y-2.7313
X1.5539Y-1.1171
X1.5539Y-1.2746
X1.5539Y-1.4321
X1.5539Y-1.5896
X1.5539Y-1.747
X1.5539Y-1.9045
X1.5539Y-2.062
X1.5539Y-2.2195
X1.5539Y-2.377
X1.5539Y-2.5344
X1.5933Y-2.6526
X1.6326Y-1.5108
X1.6326Y-1.6683
X1.6326Y-1.8258
X1.6326Y-2.1407
X1.6326Y-2.2982
X1.6326Y-2.4557
X1.672Y-1.1565
X1.672Y-2.5738
X1.672Y-2.7313
X1.695Y-1.905
X1.7114Y-1.5896
X1.7114Y-1.747
X1.7114Y-2.2195
X1.7114Y-2.377
X1.7507Y-1.4715
X1.7507Y-2.4951
X1.7507Y-2.6526
X1.7525Y-1.8375
X1.7901Y-1.1171
X1.7901Y-1.6683
X1.7901Y-2.2982
X1.795Y-1.7975
X1.8295Y-1.5502
X1.8295Y-2.4163
X1.8295Y-2.5738
X1.8295Y-2.7313
X1.8688Y-1.747
X1.8688Y-1.9833
X1.8688Y-2.2195
X1.9082Y-1.6289
X1.9082Y-2.3376
X1.9082Y-2.4951
X1.9082Y-2.6526
X1.9476Y-2.062
X1.987Y-1.1171
X1.987Y-1.7077
X1.987Y-2.2589
X1.987Y-2.4163
X1.987Y-2.5738
X1.987Y-2.7313
X2.0657Y-1.1959
X2.0657Y-1.6289
X2.0657Y-1.7864
X2.0657Y-2.0226
X2.0657Y-2.3376
X2.0657Y-2.4951
X2.0657Y-2.6526
X2.1051Y-2.2195
X2.1444Y-1.1171
X2.1444Y-1.2746
X2.1444Y-1.7077
X2.1444Y-2.4163
X2.1444Y-2.5738
X2.1444Y-2.7313
X2.1838Y-1.5896
X2.1838Y-2.2982
X2.2232Y-1.7864
X2.2232Y-2.1801
X2.2232Y-2.4951
X2.2232Y-2.6526
X2.2625Y-1.1565
X2.2625Y-2.377
X2.3019Y-1.7077
X2.3019Y-1.8652
X2.3019Y-2.1014
X2.3019Y-2.2589
X2.3019Y-2.5738
X2.3019Y-2.7313
X2.3125Y-1.6025
X2.3413Y-2.4557
X2.3807Y-1.1171
X2.3807Y-2.3376
X2.3807Y-2.6526
X2.4Y-1.5
X2.42Y-1.2352
X2.42Y-2.2195
X2.42Y-2.5344
X2.4594Y-2.062
X2.4594Y-2.4163
X2.4594Y-2.7313
X2.4988Y-1.7864
X2.4988Y-2.2982
X2.4988Y-2.6132
X2.53Y-1.7
X2.5381Y-2.1407
X2.5381Y-2.4951
X2.5775Y-2.377
X2.5775Y-2.6919
X2.59Y-1.7725
X2.6169Y-1.2352
X2.6169Y-1.3927
X2.6169Y-1.5896
X2.6169Y-2.2195
X2.6169Y-2.5738
X2.63Y-1.7
X2.6562Y-2.0226
X2.6562Y-2.4557
X2.6956Y-2.1407
X2.6956Y-2.2982
X2.6956Y-2.6526
X2.71Y-1.7
X2.735Y-2.5344
X2.7744Y-1.2352
X2.7744Y-2.2195
X2.7744Y-2.377
X2.7744Y-2.7313
X2.81Y-1.82
X2.8137Y-1.3533
X2.8137Y-2.6132
X2.85Y-1.86
X2.8925Y-1.5896
X2.8925Y-2.6919
X2.905Y-1.975
X2.915Y-2.3275
X2.925Y-2.035
X2.99Y-1.4
X3.0106Y-1.1171
X3.0106Y-2.6132
X3.0499Y-1.2352
X3.0499Y-1.5896
X3.0499Y-2.7313
X3.1125Y-2.04
X3.1287Y-1.1565
X3.1287Y-1.314
X3.1287Y-1.7864
X3.13Y-1.5825
X3.1681Y-2.6919
X3.2074Y-1.2352
X3.23Y-1.5875
X3.2468Y-1.1171
X3.2468Y-1.3533
X3.2468Y-2.4951
X3.2862Y-2.6132
X3.3255Y-1.1959
X3.3255Y-1.4321
X3.3255Y-2.7313
X3.3649Y-1.314
X3.3649Y-2.4557
X3.4043Y-1.1171
X3.4043Y-2.1014
X3.4043Y-2.5738
X3.4436Y-1.2352
X3.4436Y-1.3927
X3.4436Y-2.2195
X3.4436Y-2.6919
X3.483Y-1.5108
X3.483Y-2.3376
X3.483Y-2.4951
X3.5224Y-1.1565
X3.5224Y-1.314
X3.5224Y-1.6289
X3.5224Y-2.1407
X3.5224Y-2.6132
T2
X1.68Y-1.28
X1.68Y-1.38
X3.39Y-1.52
X3.39Y-1.62
T0
M30
