M48
; DRILL file {KiCad (5.1.9)-1} date 02/06/21 18:12:05
; FORMAT={-:-/ absolute / inch / decimal}
; #@! TF.CreationDate,2021-02-06T18:12:05-05:00
; #@! TF.GenerationSoftware,Kicad,Pcbnew,(5.1.9)-1
; #@! TF.FileFunction,Plated,1,2,PTH
FMAT,2
INCH
T1C0.0157
T2C0.0394
%
G90
G05
T1
X2.087Y-0.6221
X2.087Y-0.7402
X2.087Y-0.8583
X2.087Y-0.9764
X2.087Y-1.0945
X2.087Y-1.2126
X2.087Y-1.7244
X2.087Y-1.8426
X2.087Y-1.9607
X2.1264Y-1.2914
X2.1658Y-0.6614
X2.1658Y-0.7796
X2.1658Y-0.8977
X2.1658Y-1.0158
X2.1658Y-1.1339
X2.1658Y-1.7638
X2.1658Y-1.8819
X2.2051Y-1.2126
X2.2051Y-1.9607
X2.2445Y-0.6221
X2.2445Y-0.9764
X2.2445Y-1.0945
X2.2445Y-1.7244
X2.2445Y-1.8426
X2.2839Y-1.1733
X2.2839Y-1.2914
X2.2839Y-1.4095
X2.2839Y-1.567
X2.2839Y-1.9213
X2.3232Y-0.6614
X2.3232Y-1.0158
X2.3232Y-1.6457
X2.3232Y-1.7638
X2.3626Y-1.0945
X2.3626Y-1.2126
X2.3626Y-1.3307
X2.3626Y-1.8426
X2.3626Y-1.9607
X2.402Y-0.6221
X2.402Y-0.9764
X2.402Y-1.6851
X2.4414Y-0.8977
X2.4414Y-1.0551
X2.4414Y-1.1733
X2.4414Y-1.2914
X2.4414Y-1.7638
X2.4414Y-1.8819
X2.4807Y-0.6614
X2.4807Y-1.9607
X2.5201Y-0.9764
X2.5201Y-1.0945
X2.5201Y-1.2126
X2.5201Y-1.4882
X2.5201Y-1.7244
X2.5201Y-1.8426
X2.5595Y-1.2914
X2.5595Y-1.9213
X2.5988Y-1.0551
X2.5988Y-1.1733
X2.5988Y-1.5276
X2.5988Y-1.7638
X2.6382Y-0.6221
X2.6382Y-1.252
X2.6382Y-1.8426
X2.6382Y-1.9607
X2.6776Y-0.7008
X2.6776Y-1.1339
X2.6776Y-1.567
X2.6776Y-1.7244
X2.717Y-1.2126
X2.717Y-1.8032
X2.717Y-1.9213
X2.7563Y-0.6221
X2.7563Y-1.2914
X2.7563Y-1.5276
X2.7957Y-0.7008
X2.7957Y-0.8189
X2.7957Y-1.0945
X2.7957Y-1.7244
X2.7957Y-1.8426
X2.7957Y-1.9607
X2.8351Y-1.1733
X2.8744Y-0.6221
X2.8744Y-1.252
X2.8744Y-1.6851
X2.8744Y-1.8032
X2.8744Y-1.9213
X2.9138Y-1.0945
X2.9138Y-1.3307
X2.9532Y-0.6614
X2.9532Y-1.1733
X2.9532Y-1.6063
X2.9532Y-1.7244
X2.9532Y-1.8426
X2.9532Y-1.9607
X3.0319Y-0.6221
X3.0319Y-1.6851
X3.0319Y-1.8032
X3.0319Y-1.9213
X3.05Y-1.0
X3.0713Y-0.7008
X3.1107Y-1.567
X3.1107Y-1.7244
X3.1107Y-1.8426
X3.1107Y-1.9607
X3.15Y-1.2914
X3.15Y-1.6457
X3.18Y-1.2
X3.1894Y-1.7638
X3.1894Y-1.8819
X3.2288Y-0.7402
X3.2288Y-1.6063
X3.2288Y-1.9607
X3.2681Y-0.8189
X3.2681Y-1.0945
X3.2681Y-1.6851
X3.2681Y-1.8032
X3.28Y-1.2
X3.3075Y-1.5276
X3.3075Y-1.8819
X3.3469Y-1.6063
X3.3469Y-1.7244
X3.3469Y-1.9607
X3.36Y-1.2
X3.3862Y-1.8032
X3.4256Y-0.7402
X3.4256Y-1.6457
X3.4256Y-1.8819
X3.46Y-1.32
X3.465Y-0.8189
X3.465Y-1.7244
X3.465Y-1.9607
X3.5Y-1.36
X3.5437Y-1.0945
X3.5437Y-1.8819
X3.57Y-1.71
X3.5831Y-1.9607
X3.64Y-0.9
X3.6618Y-0.6221
X3.6618Y-1.0945
X3.6618Y-1.8819
X3.7012Y-0.7008
X3.7012Y-0.8189
X3.7012Y-1.4488
X3.7012Y-1.9607
X3.7799Y-0.6221
X3.7799Y-0.7402
X3.7799Y-1.0945
X3.7799Y-1.2914
X3.7799Y-1.8819
X3.8193Y-0.8189
X3.8193Y-1.4488
X3.8193Y-1.9607
X3.8587Y-0.6614
X3.8981Y-0.7402
X3.8981Y-0.8583
X3.8981Y-1.8819
X3.9374Y-0.6221
X3.9374Y-0.937
X3.9374Y-1.7638
X3.9374Y-1.9607
X3.9768Y-0.7008
X3.9768Y-0.8189
X3.9768Y-1.6851
X3.9768Y-1.8426
X4.0162Y-0.8977
X4.0162Y-1.6063
X4.0162Y-1.9213
X4.0555Y-0.6221
X4.0555Y-0.7402
X4.0555Y-1.7244
X4.0949Y-0.8189
X4.0949Y-1.6457
X4.0949Y-1.8032
X4.0949Y-1.9607
X4.1343Y-0.6614
X4.1343Y-0.8977
X4.1343Y-1.0158
X4.1343Y-1.8819
T2
X2.33Y-0.78
X2.33Y-0.88
X4.04Y-1.02
X4.04Y-1.12
T0
M30
