%TF.GenerationSoftware,KiCad,Pcbnew,(5.1.9)-1*%
%TF.CreationDate,2021-03-17T18:47:33-04:00*%
%TF.ProjectId,InverterChargePump,496e7665-7274-4657-9243-686172676550,rev?*%
%TF.SameCoordinates,Original*%
%TF.FileFunction,Legend,Top*%
%TF.FilePolarity,Positive*%
%FSLAX46Y46*%
G04 Gerber Fmt 4.6, Leading zero omitted, Abs format (unit mm)*
G04 Created by KiCad (PCBNEW (5.1.9)-1) date 2021-03-17 18:47:33*
%MOMM*%
%LPD*%
G01*
G04 APERTURE LIST*
%ADD10C,0.120000*%
%ADD11C,0.127000*%
%ADD12C,0.200000*%
%ADD13C,0.150000*%
%ADD14C,0.015000*%
G04 APERTURE END LIST*
D10*
%TO.C,L_HFBlock1*%
X130885000Y-105772378D02*
X130885000Y-106571622D01*
X132005000Y-105772378D02*
X132005000Y-106571622D01*
%TO.C,Cout1*%
X133027748Y-110771000D02*
X133550252Y-110771000D01*
X133027748Y-112241000D02*
X133550252Y-112241000D01*
%TO.C,Cin1*%
X144025252Y-85952000D02*
X143502748Y-85952000D01*
X144025252Y-84482000D02*
X143502748Y-84482000D01*
%TO.C,CC2*%
X131493000Y-101532000D02*
X138253000Y-101532000D01*
X138253000Y-101532000D02*
X138253000Y-98112000D01*
X138253000Y-98112000D02*
X131493000Y-98112000D01*
%TO.C,CC1*%
X142553000Y-96980000D02*
X142553000Y-90220000D01*
X142553000Y-90220000D02*
X139133000Y-90220000D01*
X139133000Y-90220000D02*
X139133000Y-96980000D01*
D11*
%TO.C,U1*%
X133613000Y-91006000D02*
X135373000Y-91006000D01*
X133613000Y-93906000D02*
X135373000Y-93906000D01*
D12*
X132093000Y-91456000D02*
G75*
G03*
X132093000Y-91456000I-100000J0D01*
G01*
D10*
%TO.C,JPower1*%
X127398000Y-59929000D02*
X127398000Y-67399000D01*
X127398000Y-67399000D02*
X137778000Y-67399000D01*
X137778000Y-67399000D02*
X137778000Y-59929000D01*
X137778000Y-59929000D02*
X127398000Y-59929000D01*
X129298000Y-66539000D02*
X128548000Y-66539000D01*
X128548000Y-66539000D02*
X128548000Y-62239000D01*
X128548000Y-62239000D02*
X129298000Y-62239000D01*
X129298000Y-62239000D02*
X129298000Y-61889000D01*
X129298000Y-61889000D02*
X128798000Y-61889000D01*
X128798000Y-61889000D02*
X128548000Y-60889000D01*
X128548000Y-60889000D02*
X131548000Y-60889000D01*
X131548000Y-60889000D02*
X131298000Y-61889000D01*
X131298000Y-61889000D02*
X130798000Y-61889000D01*
X130798000Y-61889000D02*
X130798000Y-62239000D01*
X130798000Y-62239000D02*
X131548000Y-62239000D01*
X131548000Y-62239000D02*
X131548000Y-66539000D01*
X131548000Y-66539000D02*
X130798000Y-66539000D01*
X134378000Y-66539000D02*
X133628000Y-66539000D01*
X133628000Y-66539000D02*
X133628000Y-62239000D01*
X133628000Y-62239000D02*
X134378000Y-62239000D01*
X134378000Y-62239000D02*
X134378000Y-61889000D01*
X134378000Y-61889000D02*
X133878000Y-61889000D01*
X133878000Y-61889000D02*
X133628000Y-60889000D01*
X133628000Y-60889000D02*
X136628000Y-60889000D01*
X136628000Y-60889000D02*
X136378000Y-61889000D01*
X136378000Y-61889000D02*
X135878000Y-61889000D01*
X135878000Y-61889000D02*
X135878000Y-62239000D01*
X135878000Y-62239000D02*
X136628000Y-62239000D01*
X136628000Y-62239000D02*
X136628000Y-66539000D01*
X136628000Y-66539000D02*
X135878000Y-66539000D01*
X127008000Y-60789000D02*
X127008000Y-59539000D01*
X127008000Y-59539000D02*
X129008000Y-59539000D01*
X135877647Y-66538845D02*
G75*
G03*
X134378000Y-66539000I-749647J-1700155D01*
G01*
X130797647Y-66538845D02*
G75*
G03*
X129298000Y-66539000I-749647J-1700155D01*
G01*
%TO.C,JOUt1*%
X131809000Y-137810000D02*
X131809000Y-130340000D01*
X131809000Y-130340000D02*
X121429000Y-130340000D01*
X121429000Y-130340000D02*
X121429000Y-137810000D01*
X121429000Y-137810000D02*
X131809000Y-137810000D01*
X129909000Y-131200000D02*
X130659000Y-131200000D01*
X130659000Y-131200000D02*
X130659000Y-135500000D01*
X130659000Y-135500000D02*
X129909000Y-135500000D01*
X129909000Y-135500000D02*
X129909000Y-135850000D01*
X129909000Y-135850000D02*
X130409000Y-135850000D01*
X130409000Y-135850000D02*
X130659000Y-136850000D01*
X130659000Y-136850000D02*
X127659000Y-136850000D01*
X127659000Y-136850000D02*
X127909000Y-135850000D01*
X127909000Y-135850000D02*
X128409000Y-135850000D01*
X128409000Y-135850000D02*
X128409000Y-135500000D01*
X128409000Y-135500000D02*
X127659000Y-135500000D01*
X127659000Y-135500000D02*
X127659000Y-131200000D01*
X127659000Y-131200000D02*
X128409000Y-131200000D01*
X124829000Y-131200000D02*
X125579000Y-131200000D01*
X125579000Y-131200000D02*
X125579000Y-135500000D01*
X125579000Y-135500000D02*
X124829000Y-135500000D01*
X124829000Y-135500000D02*
X124829000Y-135850000D01*
X124829000Y-135850000D02*
X125329000Y-135850000D01*
X125329000Y-135850000D02*
X125579000Y-136850000D01*
X125579000Y-136850000D02*
X122579000Y-136850000D01*
X122579000Y-136850000D02*
X122829000Y-135850000D01*
X122829000Y-135850000D02*
X123329000Y-135850000D01*
X123329000Y-135850000D02*
X123329000Y-135500000D01*
X123329000Y-135500000D02*
X122579000Y-135500000D01*
X122579000Y-135500000D02*
X122579000Y-131200000D01*
X122579000Y-131200000D02*
X123329000Y-131200000D01*
X132199000Y-136950000D02*
X132199000Y-138200000D01*
X132199000Y-138200000D02*
X130199000Y-138200000D01*
X123329353Y-131200155D02*
G75*
G03*
X124829000Y-131200000I749647J1700155D01*
G01*
X128409353Y-131200155D02*
G75*
G03*
X129909000Y-131200000I749647J1700155D01*
G01*
%TO.C,C1*%
X134231748Y-95023000D02*
X134754252Y-95023000D01*
X134231748Y-96493000D02*
X134754252Y-96493000D01*
%TO.C,L_HFBlock1*%
D13*
X122817380Y-109164380D02*
X122341190Y-109164380D01*
X122341190Y-108164380D01*
X122912619Y-109259619D02*
X123674523Y-109259619D01*
X123912619Y-109164380D02*
X123912619Y-108164380D01*
X123912619Y-108640571D02*
X124484047Y-108640571D01*
X124484047Y-109164380D02*
X124484047Y-108164380D01*
X125293571Y-108640571D02*
X124960238Y-108640571D01*
X124960238Y-109164380D02*
X124960238Y-108164380D01*
X125436428Y-108164380D01*
X126150714Y-108640571D02*
X126293571Y-108688190D01*
X126341190Y-108735809D01*
X126388809Y-108831047D01*
X126388809Y-108973904D01*
X126341190Y-109069142D01*
X126293571Y-109116761D01*
X126198333Y-109164380D01*
X125817380Y-109164380D01*
X125817380Y-108164380D01*
X126150714Y-108164380D01*
X126245952Y-108212000D01*
X126293571Y-108259619D01*
X126341190Y-108354857D01*
X126341190Y-108450095D01*
X126293571Y-108545333D01*
X126245952Y-108592952D01*
X126150714Y-108640571D01*
X125817380Y-108640571D01*
X126960238Y-109164380D02*
X126865000Y-109116761D01*
X126817380Y-109021523D01*
X126817380Y-108164380D01*
X127484047Y-109164380D02*
X127388809Y-109116761D01*
X127341190Y-109069142D01*
X127293571Y-108973904D01*
X127293571Y-108688190D01*
X127341190Y-108592952D01*
X127388809Y-108545333D01*
X127484047Y-108497714D01*
X127626904Y-108497714D01*
X127722142Y-108545333D01*
X127769761Y-108592952D01*
X127817380Y-108688190D01*
X127817380Y-108973904D01*
X127769761Y-109069142D01*
X127722142Y-109116761D01*
X127626904Y-109164380D01*
X127484047Y-109164380D01*
X128674523Y-109116761D02*
X128579285Y-109164380D01*
X128388809Y-109164380D01*
X128293571Y-109116761D01*
X128245952Y-109069142D01*
X128198333Y-108973904D01*
X128198333Y-108688190D01*
X128245952Y-108592952D01*
X128293571Y-108545333D01*
X128388809Y-108497714D01*
X128579285Y-108497714D01*
X128674523Y-108545333D01*
X129103095Y-109164380D02*
X129103095Y-108164380D01*
X129198333Y-108783428D02*
X129484047Y-109164380D01*
X129484047Y-108497714D02*
X129103095Y-108878666D01*
X130436428Y-109164380D02*
X129865000Y-109164380D01*
X130150714Y-109164380D02*
X130150714Y-108164380D01*
X130055476Y-108307238D01*
X129960238Y-108402476D01*
X129865000Y-108450095D01*
%TO.C,Cout1*%
X134791857Y-110183142D02*
X134744238Y-110230761D01*
X134601380Y-110278380D01*
X134506142Y-110278380D01*
X134363285Y-110230761D01*
X134268047Y-110135523D01*
X134220428Y-110040285D01*
X134172809Y-109849809D01*
X134172809Y-109706952D01*
X134220428Y-109516476D01*
X134268047Y-109421238D01*
X134363285Y-109326000D01*
X134506142Y-109278380D01*
X134601380Y-109278380D01*
X134744238Y-109326000D01*
X134791857Y-109373619D01*
X135363285Y-110278380D02*
X135268047Y-110230761D01*
X135220428Y-110183142D01*
X135172809Y-110087904D01*
X135172809Y-109802190D01*
X135220428Y-109706952D01*
X135268047Y-109659333D01*
X135363285Y-109611714D01*
X135506142Y-109611714D01*
X135601380Y-109659333D01*
X135649000Y-109706952D01*
X135696619Y-109802190D01*
X135696619Y-110087904D01*
X135649000Y-110183142D01*
X135601380Y-110230761D01*
X135506142Y-110278380D01*
X135363285Y-110278380D01*
X136553761Y-109611714D02*
X136553761Y-110278380D01*
X136125190Y-109611714D02*
X136125190Y-110135523D01*
X136172809Y-110230761D01*
X136268047Y-110278380D01*
X136410904Y-110278380D01*
X136506142Y-110230761D01*
X136553761Y-110183142D01*
X136887095Y-109611714D02*
X137268047Y-109611714D01*
X137029952Y-109278380D02*
X137029952Y-110135523D01*
X137077571Y-110230761D01*
X137172809Y-110278380D01*
X137268047Y-110278380D01*
X138125190Y-110278380D02*
X137553761Y-110278380D01*
X137839476Y-110278380D02*
X137839476Y-109278380D01*
X137744238Y-109421238D01*
X137649000Y-109516476D01*
X137553761Y-109564095D01*
%TO.C,Cin1*%
X142906857Y-87254142D02*
X142859238Y-87301761D01*
X142716380Y-87349380D01*
X142621142Y-87349380D01*
X142478285Y-87301761D01*
X142383047Y-87206523D01*
X142335428Y-87111285D01*
X142287809Y-86920809D01*
X142287809Y-86777952D01*
X142335428Y-86587476D01*
X142383047Y-86492238D01*
X142478285Y-86397000D01*
X142621142Y-86349380D01*
X142716380Y-86349380D01*
X142859238Y-86397000D01*
X142906857Y-86444619D01*
X143335428Y-87349380D02*
X143335428Y-86682714D01*
X143335428Y-86349380D02*
X143287809Y-86397000D01*
X143335428Y-86444619D01*
X143383047Y-86397000D01*
X143335428Y-86349380D01*
X143335428Y-86444619D01*
X143811619Y-86682714D02*
X143811619Y-87349380D01*
X143811619Y-86777952D02*
X143859238Y-86730333D01*
X143954476Y-86682714D01*
X144097333Y-86682714D01*
X144192571Y-86730333D01*
X144240190Y-86825571D01*
X144240190Y-87349380D01*
X145240190Y-87349380D02*
X144668761Y-87349380D01*
X144954476Y-87349380D02*
X144954476Y-86349380D01*
X144859238Y-86492238D01*
X144764000Y-86587476D01*
X144668761Y-86635095D01*
%TO.C,CC2*%
X139414333Y-100433142D02*
X139366714Y-100480761D01*
X139223857Y-100528380D01*
X139128619Y-100528380D01*
X138985761Y-100480761D01*
X138890523Y-100385523D01*
X138842904Y-100290285D01*
X138795285Y-100099809D01*
X138795285Y-99956952D01*
X138842904Y-99766476D01*
X138890523Y-99671238D01*
X138985761Y-99576000D01*
X139128619Y-99528380D01*
X139223857Y-99528380D01*
X139366714Y-99576000D01*
X139414333Y-99623619D01*
X140414333Y-100433142D02*
X140366714Y-100480761D01*
X140223857Y-100528380D01*
X140128619Y-100528380D01*
X139985761Y-100480761D01*
X139890523Y-100385523D01*
X139842904Y-100290285D01*
X139795285Y-100099809D01*
X139795285Y-99956952D01*
X139842904Y-99766476D01*
X139890523Y-99671238D01*
X139985761Y-99576000D01*
X140128619Y-99528380D01*
X140223857Y-99528380D01*
X140366714Y-99576000D01*
X140414333Y-99623619D01*
X140795285Y-99623619D02*
X140842904Y-99576000D01*
X140938142Y-99528380D01*
X141176238Y-99528380D01*
X141271476Y-99576000D01*
X141319095Y-99623619D01*
X141366714Y-99718857D01*
X141366714Y-99814095D01*
X141319095Y-99956952D01*
X140747666Y-100528380D01*
X141366714Y-100528380D01*
%TO.C,CC1*%
X143750142Y-94646666D02*
X143797761Y-94694285D01*
X143845380Y-94837142D01*
X143845380Y-94932380D01*
X143797761Y-95075238D01*
X143702523Y-95170476D01*
X143607285Y-95218095D01*
X143416809Y-95265714D01*
X143273952Y-95265714D01*
X143083476Y-95218095D01*
X142988238Y-95170476D01*
X142893000Y-95075238D01*
X142845380Y-94932380D01*
X142845380Y-94837142D01*
X142893000Y-94694285D01*
X142940619Y-94646666D01*
X143750142Y-93646666D02*
X143797761Y-93694285D01*
X143845380Y-93837142D01*
X143845380Y-93932380D01*
X143797761Y-94075238D01*
X143702523Y-94170476D01*
X143607285Y-94218095D01*
X143416809Y-94265714D01*
X143273952Y-94265714D01*
X143083476Y-94218095D01*
X142988238Y-94170476D01*
X142893000Y-94075238D01*
X142845380Y-93932380D01*
X142845380Y-93837142D01*
X142893000Y-93694285D01*
X142940619Y-93646666D01*
X143845380Y-92694285D02*
X143845380Y-93265714D01*
X143845380Y-92980000D02*
X142845380Y-92980000D01*
X142988238Y-93075238D01*
X143083476Y-93170476D01*
X143131095Y-93265714D01*
%TO.C,U1*%
D14*
X133549840Y-89984563D02*
X133549840Y-90373729D01*
X133572732Y-90419514D01*
X133595625Y-90442406D01*
X133641409Y-90465298D01*
X133732977Y-90465298D01*
X133778762Y-90442406D01*
X133801654Y-90419514D01*
X133824546Y-90373729D01*
X133824546Y-89984563D01*
X134305281Y-90465298D02*
X134030575Y-90465298D01*
X134167928Y-90465298D02*
X134167928Y-89984563D01*
X134122144Y-90053239D01*
X134076360Y-90099024D01*
X134030575Y-90121916D01*
%TO.C,JPower1*%
D13*
X130040380Y-58291380D02*
X130040380Y-59005666D01*
X129992761Y-59148523D01*
X129897523Y-59243761D01*
X129754666Y-59291380D01*
X129659428Y-59291380D01*
X130516571Y-59291380D02*
X130516571Y-58291380D01*
X130897523Y-58291380D01*
X130992761Y-58339000D01*
X131040380Y-58386619D01*
X131088000Y-58481857D01*
X131088000Y-58624714D01*
X131040380Y-58719952D01*
X130992761Y-58767571D01*
X130897523Y-58815190D01*
X130516571Y-58815190D01*
X131659428Y-59291380D02*
X131564190Y-59243761D01*
X131516571Y-59196142D01*
X131468952Y-59100904D01*
X131468952Y-58815190D01*
X131516571Y-58719952D01*
X131564190Y-58672333D01*
X131659428Y-58624714D01*
X131802285Y-58624714D01*
X131897523Y-58672333D01*
X131945142Y-58719952D01*
X131992761Y-58815190D01*
X131992761Y-59100904D01*
X131945142Y-59196142D01*
X131897523Y-59243761D01*
X131802285Y-59291380D01*
X131659428Y-59291380D01*
X132326095Y-58624714D02*
X132516571Y-59291380D01*
X132707047Y-58815190D01*
X132897523Y-59291380D01*
X133088000Y-58624714D01*
X133849904Y-59243761D02*
X133754666Y-59291380D01*
X133564190Y-59291380D01*
X133468952Y-59243761D01*
X133421333Y-59148523D01*
X133421333Y-58767571D01*
X133468952Y-58672333D01*
X133564190Y-58624714D01*
X133754666Y-58624714D01*
X133849904Y-58672333D01*
X133897523Y-58767571D01*
X133897523Y-58862809D01*
X133421333Y-58958047D01*
X134326095Y-59291380D02*
X134326095Y-58624714D01*
X134326095Y-58815190D02*
X134373714Y-58719952D01*
X134421333Y-58672333D01*
X134516571Y-58624714D01*
X134611809Y-58624714D01*
X135468952Y-59291380D02*
X134897523Y-59291380D01*
X135183238Y-59291380D02*
X135183238Y-58291380D01*
X135088000Y-58434238D01*
X134992761Y-58529476D01*
X134897523Y-58577095D01*
%TO.C,JOUt1*%
X124952333Y-138352380D02*
X124952333Y-139066666D01*
X124904714Y-139209523D01*
X124809476Y-139304761D01*
X124666619Y-139352380D01*
X124571380Y-139352380D01*
X125619000Y-138352380D02*
X125809476Y-138352380D01*
X125904714Y-138400000D01*
X125999952Y-138495238D01*
X126047571Y-138685714D01*
X126047571Y-139019047D01*
X125999952Y-139209523D01*
X125904714Y-139304761D01*
X125809476Y-139352380D01*
X125619000Y-139352380D01*
X125523761Y-139304761D01*
X125428523Y-139209523D01*
X125380904Y-139019047D01*
X125380904Y-138685714D01*
X125428523Y-138495238D01*
X125523761Y-138400000D01*
X125619000Y-138352380D01*
X126476142Y-138352380D02*
X126476142Y-139161904D01*
X126523761Y-139257142D01*
X126571380Y-139304761D01*
X126666619Y-139352380D01*
X126857095Y-139352380D01*
X126952333Y-139304761D01*
X126999952Y-139257142D01*
X127047571Y-139161904D01*
X127047571Y-138352380D01*
X127380904Y-138685714D02*
X127761857Y-138685714D01*
X127523761Y-138352380D02*
X127523761Y-139209523D01*
X127571380Y-139304761D01*
X127666619Y-139352380D01*
X127761857Y-139352380D01*
X128619000Y-139352380D02*
X128047571Y-139352380D01*
X128333285Y-139352380D02*
X128333285Y-138352380D01*
X128238047Y-138495238D01*
X128142809Y-138590476D01*
X128047571Y-138638095D01*
%TO.C,C1*%
X137374333Y-97385142D02*
X137326714Y-97432761D01*
X137183857Y-97480380D01*
X137088619Y-97480380D01*
X136945761Y-97432761D01*
X136850523Y-97337523D01*
X136802904Y-97242285D01*
X136755285Y-97051809D01*
X136755285Y-96908952D01*
X136802904Y-96718476D01*
X136850523Y-96623238D01*
X136945761Y-96528000D01*
X137088619Y-96480380D01*
X137183857Y-96480380D01*
X137326714Y-96528000D01*
X137374333Y-96575619D01*
X138326714Y-97480380D02*
X137755285Y-97480380D01*
X138041000Y-97480380D02*
X138041000Y-96480380D01*
X137945761Y-96623238D01*
X137850523Y-96718476D01*
X137755285Y-96766095D01*
%TD*%
M02*
