%TF.GenerationSoftware,KiCad,Pcbnew,(5.1.9)-1*%
%TF.CreationDate,2021-03-17T18:47:33-04:00*%
%TF.ProjectId,InverterChargePump,496e7665-7274-4657-9243-686172676550,rev?*%
%TF.SameCoordinates,Original*%
%TF.FileFunction,Paste,Top*%
%TF.FilePolarity,Positive*%
%FSLAX46Y46*%
G04 Gerber Fmt 4.6, Leading zero omitted, Abs format (unit mm)*
G04 Created by KiCad (PCBNEW (5.1.9)-1) date 2021-03-17 18:47:33*
%MOMM*%
%LPD*%
G01*
G04 APERTURE LIST*
%ADD10R,1.240000X0.550000*%
G04 APERTURE END LIST*
%TO.C,L_HFBlock1*%
G36*
G01*
X131063750Y-106797000D02*
X131826250Y-106797000D01*
G75*
G02*
X132045000Y-107015750I0J-218750D01*
G01*
X132045000Y-107453250D01*
G75*
G02*
X131826250Y-107672000I-218750J0D01*
G01*
X131063750Y-107672000D01*
G75*
G02*
X130845000Y-107453250I0J218750D01*
G01*
X130845000Y-107015750D01*
G75*
G02*
X131063750Y-106797000I218750J0D01*
G01*
G37*
G36*
G01*
X131063750Y-104672000D02*
X131826250Y-104672000D01*
G75*
G02*
X132045000Y-104890750I0J-218750D01*
G01*
X132045000Y-105328250D01*
G75*
G02*
X131826250Y-105547000I-218750J0D01*
G01*
X131063750Y-105547000D01*
G75*
G02*
X130845000Y-105328250I0J218750D01*
G01*
X130845000Y-104890750D01*
G75*
G02*
X131063750Y-104672000I218750J0D01*
G01*
G37*
%TD*%
%TO.C,Cout1*%
G36*
G01*
X133739000Y-111981000D02*
X133739000Y-111031000D01*
G75*
G02*
X133989000Y-110781000I250000J0D01*
G01*
X134489000Y-110781000D01*
G75*
G02*
X134739000Y-111031000I0J-250000D01*
G01*
X134739000Y-111981000D01*
G75*
G02*
X134489000Y-112231000I-250000J0D01*
G01*
X133989000Y-112231000D01*
G75*
G02*
X133739000Y-111981000I0J250000D01*
G01*
G37*
G36*
G01*
X131839000Y-111981000D02*
X131839000Y-111031000D01*
G75*
G02*
X132089000Y-110781000I250000J0D01*
G01*
X132589000Y-110781000D01*
G75*
G02*
X132839000Y-111031000I0J-250000D01*
G01*
X132839000Y-111981000D01*
G75*
G02*
X132589000Y-112231000I-250000J0D01*
G01*
X132089000Y-112231000D01*
G75*
G02*
X131839000Y-111981000I0J250000D01*
G01*
G37*
%TD*%
%TO.C,Cin1*%
G36*
G01*
X143314000Y-84742000D02*
X143314000Y-85692000D01*
G75*
G02*
X143064000Y-85942000I-250000J0D01*
G01*
X142564000Y-85942000D01*
G75*
G02*
X142314000Y-85692000I0J250000D01*
G01*
X142314000Y-84742000D01*
G75*
G02*
X142564000Y-84492000I250000J0D01*
G01*
X143064000Y-84492000D01*
G75*
G02*
X143314000Y-84742000I0J-250000D01*
G01*
G37*
G36*
G01*
X145214000Y-84742000D02*
X145214000Y-85692000D01*
G75*
G02*
X144964000Y-85942000I-250000J0D01*
G01*
X144464000Y-85942000D01*
G75*
G02*
X144214000Y-85692000I0J250000D01*
G01*
X144214000Y-84742000D01*
G75*
G02*
X144464000Y-84492000I250000J0D01*
G01*
X144964000Y-84492000D01*
G75*
G02*
X145214000Y-84742000I0J-250000D01*
G01*
G37*
%TD*%
%TO.C,CC2*%
G36*
G01*
X133068000Y-98897000D02*
X133068000Y-100747000D01*
G75*
G02*
X132818000Y-100997000I-250000J0D01*
G01*
X131243000Y-100997000D01*
G75*
G02*
X130993000Y-100747000I0J250000D01*
G01*
X130993000Y-98897000D01*
G75*
G02*
X131243000Y-98647000I250000J0D01*
G01*
X132818000Y-98647000D01*
G75*
G02*
X133068000Y-98897000I0J-250000D01*
G01*
G37*
G36*
G01*
X137993000Y-98897000D02*
X137993000Y-100747000D01*
G75*
G02*
X137743000Y-100997000I-250000J0D01*
G01*
X136168000Y-100997000D01*
G75*
G02*
X135918000Y-100747000I0J250000D01*
G01*
X135918000Y-98897000D01*
G75*
G02*
X136168000Y-98647000I250000J0D01*
G01*
X137743000Y-98647000D01*
G75*
G02*
X137993000Y-98897000I0J-250000D01*
G01*
G37*
%TD*%
%TO.C,CC1*%
G36*
G01*
X139918000Y-95405000D02*
X141768000Y-95405000D01*
G75*
G02*
X142018000Y-95655000I0J-250000D01*
G01*
X142018000Y-97230000D01*
G75*
G02*
X141768000Y-97480000I-250000J0D01*
G01*
X139918000Y-97480000D01*
G75*
G02*
X139668000Y-97230000I0J250000D01*
G01*
X139668000Y-95655000D01*
G75*
G02*
X139918000Y-95405000I250000J0D01*
G01*
G37*
G36*
G01*
X139918000Y-90480000D02*
X141768000Y-90480000D01*
G75*
G02*
X142018000Y-90730000I0J-250000D01*
G01*
X142018000Y-92305000D01*
G75*
G02*
X141768000Y-92555000I-250000J0D01*
G01*
X139918000Y-92555000D01*
G75*
G02*
X139668000Y-92305000I0J250000D01*
G01*
X139668000Y-90730000D01*
G75*
G02*
X139918000Y-90480000I250000J0D01*
G01*
G37*
%TD*%
D10*
%TO.C,U1*%
X135678000Y-91506000D03*
X135678000Y-92456000D03*
X135678000Y-93406000D03*
X133308000Y-93406000D03*
X133308000Y-92456000D03*
X133308000Y-91506000D03*
%TD*%
%TO.C,C1*%
G36*
G01*
X134943000Y-96233000D02*
X134943000Y-95283000D01*
G75*
G02*
X135193000Y-95033000I250000J0D01*
G01*
X135693000Y-95033000D01*
G75*
G02*
X135943000Y-95283000I0J-250000D01*
G01*
X135943000Y-96233000D01*
G75*
G02*
X135693000Y-96483000I-250000J0D01*
G01*
X135193000Y-96483000D01*
G75*
G02*
X134943000Y-96233000I0J250000D01*
G01*
G37*
G36*
G01*
X133043000Y-96233000D02*
X133043000Y-95283000D01*
G75*
G02*
X133293000Y-95033000I250000J0D01*
G01*
X133793000Y-95033000D01*
G75*
G02*
X134043000Y-95283000I0J-250000D01*
G01*
X134043000Y-96233000D01*
G75*
G02*
X133793000Y-96483000I-250000J0D01*
G01*
X133293000Y-96483000D01*
G75*
G02*
X133043000Y-96233000I0J250000D01*
G01*
G37*
%TD*%
M02*
