M48
; DRILL file {KiCad (5.1.9)-1} date 03/17/21 18:47:34
; FORMAT={-:-/ absolute / inch / decimal}
; #@! TF.CreationDate,2021-03-17T18:47:34-04:00
; #@! TF.GenerationSoftware,Kicad,Pcbnew,(5.1.9)-1
; #@! TF.FileFunction,Plated,1,2,PTH
FMAT,2
INCH
T1C0.0157
T2C0.0472
T3C0.0827
%
G90
G05
T1
X3.8778Y-2.641
X3.8778Y-2.7985
X3.8778Y-2.956
X3.8778Y-3.1134
X3.8778Y-3.2709
X3.8778Y-3.4284
X3.8778Y-3.5859
X3.8778Y-3.7434
X3.8778Y-3.9008
X3.8778Y-4.0583
X3.8778Y-4.2158
X3.8778Y-4.3733
X3.8778Y-4.5308
X3.8778Y-4.6882
X3.8778Y-4.8457
X3.8778Y-5.0032
X3.8778Y-5.1607
X3.9565Y-2.5623
X3.9565Y-2.7197
X3.9565Y-2.8772
X3.9565Y-3.0347
X3.9565Y-3.1922
X3.9565Y-3.3497
X3.9565Y-3.5071
X3.9565Y-3.6646
X3.9565Y-3.8221
X3.9565Y-3.9796
X3.9565Y-4.1371
X3.9565Y-4.2945
X3.9565Y-4.452
X3.9565Y-4.6095
X3.9565Y-4.767
X3.9565Y-4.9245
X3.9565Y-5.0819
X3.9565Y-5.2394
X4.0352Y-2.4835
X4.0352Y-2.641
X4.0352Y-2.7985
X4.0352Y-2.956
X4.0352Y-3.1134
X4.0352Y-3.2709
X4.0352Y-3.4284
X4.0352Y-3.5859
X4.0352Y-3.7434
X4.0352Y-3.9008
X4.0352Y-4.0583
X4.0352Y-4.2158
X4.0352Y-4.3733
X4.0352Y-4.5308
X4.0352Y-4.6882
X4.0352Y-4.8457
X4.0352Y-5.0032
X4.0352Y-5.1607
X4.0352Y-5.3182
X4.114Y-2.5623
X4.114Y-2.7197
X4.114Y-2.8772
X4.114Y-3.0347
X4.114Y-3.1922
X4.114Y-3.3497
X4.114Y-3.5071
X4.114Y-3.6646
X4.114Y-3.8221
X4.114Y-3.9796
X4.114Y-4.1371
X4.114Y-4.2945
X4.114Y-4.452
X4.114Y-4.6095
X4.114Y-4.767
X4.114Y-4.9245
X4.114Y-5.0819
X4.114Y-5.2394
X4.1927Y-2.4835
X4.1927Y-2.641
X4.1927Y-2.7985
X4.1927Y-2.956
X4.1927Y-3.1134
X4.1927Y-3.2709
X4.1927Y-3.4284
X4.1927Y-3.5859
X4.1927Y-3.7434
X4.1927Y-3.9008
X4.1927Y-4.0583
X4.1927Y-4.2158
X4.1927Y-4.3733
X4.1927Y-4.5308
X4.1927Y-4.6882
X4.1927Y-4.8457
X4.1927Y-5.0032
X4.1927Y-5.1607
X4.1927Y-5.3182
X4.2715Y-2.5623
X4.2715Y-2.7197
X4.2715Y-2.8772
X4.2715Y-3.0347
X4.2715Y-3.1922
X4.2715Y-3.3497
X4.2715Y-3.5071
X4.2715Y-3.6646
X4.2715Y-3.8221
X4.2715Y-3.9796
X4.2715Y-4.1371
X4.2715Y-4.2945
X4.2715Y-4.452
X4.2715Y-4.6095
X4.2715Y-4.767
X4.2715Y-4.9245
X4.2715Y-5.0819
X4.2715Y-5.2394
X4.3502Y-2.4835
X4.3502Y-2.641
X4.3502Y-2.7985
X4.3502Y-2.956
X4.3502Y-3.1134
X4.3502Y-3.2709
X4.3502Y-3.4284
X4.3502Y-3.5859
X4.3502Y-3.7434
X4.3502Y-3.9008
X4.3502Y-4.0583
X4.3502Y-4.2158
X4.3502Y-4.3733
X4.3502Y-4.5308
X4.3502Y-4.6882
X4.3502Y-4.8457
X4.3502Y-5.0032
X4.3502Y-5.1607
X4.3502Y-5.3182
X4.4289Y-2.5623
X4.4289Y-2.7197
X4.4289Y-2.8772
X4.4289Y-3.0347
X4.4289Y-3.1922
X4.4289Y-3.3497
X4.4289Y-3.5071
X4.4289Y-3.6646
X4.4289Y-3.8221
X4.4289Y-3.9796
X4.4289Y-4.1371
X4.4289Y-4.2945
X4.4289Y-4.452
X4.4289Y-4.6095
X4.4289Y-4.767
X4.4289Y-4.9245
X4.4289Y-5.0819
X4.4289Y-5.2394
X4.5077Y-2.4835
X4.5077Y-2.641
X4.5077Y-2.7985
X4.5077Y-2.956
X4.5077Y-3.1134
X4.5077Y-3.2709
X4.5077Y-3.4284
X4.5077Y-3.5859
X4.5077Y-3.7434
X4.5077Y-3.9008
X4.5077Y-4.0583
X4.5077Y-4.2158
X4.5077Y-4.3733
X4.5077Y-4.5308
X4.5077Y-4.6882
X4.5077Y-4.8457
X4.5077Y-5.0032
X4.5077Y-5.1607
X4.5077Y-5.3182
X4.5864Y-2.5623
X4.5864Y-2.7197
X4.5864Y-2.8772
X4.5864Y-3.0347
X4.5864Y-3.1922
X4.5864Y-3.3497
X4.5864Y-3.5071
X4.5864Y-3.6646
X4.5864Y-3.8221
X4.5864Y-3.9796
X4.5864Y-4.1371
X4.5864Y-4.2945
X4.5864Y-4.452
X4.5864Y-4.6095
X4.5864Y-4.767
X4.5864Y-4.9245
X4.5864Y-5.0819
X4.5864Y-5.2394
X4.6652Y-2.4835
X4.6652Y-2.641
X4.6652Y-2.7985
X4.6652Y-2.956
X4.6652Y-3.1134
X4.6652Y-3.2709
X4.6652Y-3.4284
X4.6652Y-3.5859
X4.6652Y-3.7434
X4.6652Y-3.9008
X4.6652Y-4.0583
X4.6652Y-4.2158
X4.6652Y-4.3733
X4.6652Y-4.5308
X4.6652Y-4.6882
X4.6652Y-4.8457
X4.6652Y-5.0032
X4.6652Y-5.1607
X4.6652Y-5.3182
X4.7439Y-2.5623
X4.7439Y-2.7197
X4.7439Y-2.8772
X4.7439Y-3.0347
X4.7439Y-3.1922
X4.7439Y-3.3497
X4.7439Y-3.5071
X4.7439Y-3.6646
X4.7439Y-3.8221
X4.7439Y-3.9796
X4.7439Y-4.1371
X4.7439Y-4.2945
X4.7439Y-4.452
X4.7439Y-4.6095
X4.7439Y-4.767
X4.7439Y-4.9245
X4.7439Y-5.0819
X4.7439Y-5.2394
X4.8226Y-2.4835
X4.8226Y-2.641
X4.8226Y-2.7985
X4.8226Y-2.956
X4.8226Y-3.1134
X4.8226Y-3.2709
X4.8226Y-3.4284
X4.8226Y-3.5859
X4.8226Y-3.7434
X4.8226Y-3.9008
X4.8226Y-4.0583
X4.8226Y-4.2158
X4.8226Y-4.3733
X4.8226Y-4.5308
X4.8226Y-4.6882
X4.8226Y-4.8457
X4.8226Y-5.0032
X4.9014Y-2.5623
X4.9014Y-2.7197
X4.9014Y-2.8772
X4.9014Y-3.0347
X4.9014Y-3.1922
X4.9014Y-3.3497
X4.9014Y-3.5071
X4.9014Y-3.6646
X4.9014Y-3.8221
X4.9014Y-3.9796
X4.9014Y-4.1371
X4.9014Y-4.2945
X4.9014Y-4.452
X4.9014Y-4.6095
X4.9014Y-4.767
X4.9014Y-4.9245
X4.9014Y-5.0819
X4.9801Y-3.7434
X4.9801Y-3.9008
X4.9801Y-4.0583
X5.2951Y-2.6804
X5.2951Y-4.2158
X5.2951Y-4.4914
X5.2951Y-4.6489
X5.2951Y-4.8064
X5.2951Y-4.9638
X5.2951Y-5.1213
X5.2951Y-5.2788
X5.3344Y-4.019
X5.3738Y-4.1371
X5.3738Y-4.2945
X5.3738Y-4.5701
X5.3738Y-4.7276
X5.3738Y-4.8851
X5.3738Y-5.0426
X5.3738Y-5.2001
X5.4132Y-2.641
X5.4132Y-3.704
X5.4132Y-4.4127
X5.4132Y-5.3182
X5.4526Y-2.4835
X5.4526Y-3.8221
X5.4526Y-4.0583
X5.4526Y-4.2158
X5.4526Y-4.6489
X5.4526Y-4.8064
X5.4526Y-4.9638
X5.4526Y-5.1213
X5.4919Y-2.7197
X5.4919Y-3.9402
X5.4919Y-4.3339
X5.4919Y-4.4914
X5.4919Y-5.2394
X5.5313Y-2.5623
X5.5313Y-4.1371
X5.5313Y-4.7276
X5.5313Y-4.8851
X5.5313Y-5.0426
X5.5707Y-3.704
X5.5707Y-4.019
X5.5707Y-4.2552
X5.5707Y-4.4127
X5.5707Y-4.5701
X5.5707Y-5.1607
X5.5707Y-5.3182
X5.61Y-2.4835
X5.61Y-2.641
X5.61Y-3.9008
X5.61Y-4.8064
X5.61Y-4.9638
X5.6494Y-3.7827
X5.6494Y-4.0977
X5.6494Y-4.3339
X5.6494Y-4.4914
X5.6494Y-4.6489
X5.6494Y-5.0819
X5.6494Y-5.2394
X5.6888Y-2.5623
X5.6888Y-2.7197
X5.6888Y-3.9796
X5.6888Y-4.2158
X5.6888Y-4.8851
X5.7281Y-2.8379
X5.7281Y-2.9953
X5.7281Y-3.1528
X5.7281Y-3.4284
X5.7281Y-3.5859
X5.7281Y-3.8615
X5.7281Y-4.4127
X5.7281Y-4.5701
X5.7281Y-4.7276
X5.7281Y-5.0032
X5.7281Y-5.1607
X5.7281Y-5.3182
X5.7675Y-2.4835
X5.7675Y-2.641
X5.7675Y-3.2709
X5.7675Y-3.704
X5.7675Y-4.0583
X5.7675Y-4.2945
X5.8069Y-2.7591
X5.8069Y-2.9166
X5.8069Y-3.0741
X5.8069Y-3.5071
X5.8069Y-3.9402
X5.8069Y-4.1764
X5.8069Y-4.4914
X5.8069Y-4.6489
X5.8069Y-4.8064
X5.8069Y-5.0819
X5.8069Y-5.2394
X5.8463Y-2.5623
X5.8463Y-3.1922
X5.8463Y-3.3497
X5.8463Y-3.6253
X5.8463Y-3.7827
X5.8463Y-4.3733
X5.8463Y-4.9245
X5.8856Y-2.6804
X5.8856Y-2.8379
X5.8856Y-2.9953
X5.8856Y-4.019
X5.8856Y-4.2552
X5.8856Y-4.5701
X5.8856Y-4.7276
X5.8856Y-5.1607
X5.8856Y-5.3182
X5.925Y-2.4835
X5.925Y-3.1134
X5.925Y-3.2709
X5.925Y-3.4284
X5.925Y-3.704
X5.925Y-3.8615
X5.925Y-4.1371
X5.925Y-4.452
X5.925Y-4.8457
X5.925Y-5.0032
X5.9644Y-2.6016
X5.9644Y-2.7591
X5.9644Y-2.9166
X5.9644Y-3.5465
X5.9644Y-4.3339
X5.9644Y-4.6489
X5.9644Y-5.2394
X6.0037Y-3.0347
X6.0037Y-3.1922
X6.0037Y-3.3497
X6.0037Y-3.7827
X6.0037Y-3.9402
X6.0037Y-4.2158
X6.0037Y-4.5308
X6.0037Y-4.767
X6.0037Y-4.9245
X6.0037Y-5.0819
X6.0431Y-2.5229
X6.0431Y-2.6804
X6.0431Y-2.8379
X6.0431Y-3.4678
X6.0431Y-3.6253
X6.0431Y-4.0583
X6.0431Y-4.4127
X6.0431Y-5.3182
X6.0825Y-2.956
X6.0825Y-3.1134
X6.0825Y-3.2709
X6.0825Y-3.8615
X6.0825Y-4.2945
X6.0825Y-4.6095
X6.0825Y-4.8457
X6.0825Y-5.0032
X6.0825Y-5.1607
X6.1219Y-2.6016
X6.1219Y-2.7591
X6.1219Y-3.389
X6.1219Y-3.5465
X6.1219Y-3.704
X6.1219Y-3.9796
X6.1219Y-4.1371
X6.1219Y-4.4914
X6.1219Y-4.7276
X6.1612Y-2.4835
X6.1612Y-2.8772
X6.1612Y-3.0347
X6.1612Y-3.1922
X6.1612Y-4.3733
X6.1612Y-4.9245
X6.1612Y-5.0819
X6.1612Y-5.2394
X6.2006Y-2.6804
X6.2006Y-3.3103
X6.2006Y-3.4678
X6.2006Y-3.6253
X6.2006Y-3.7827
X6.2006Y-4.0583
X6.2006Y-4.2158
X6.2006Y-4.5701
X6.2006Y-4.8064
X6.24Y-2.5623
X6.24Y-2.7985
X6.24Y-2.956
X6.24Y-3.1134
X6.24Y-3.9008
X6.24Y-4.452
X6.24Y-4.6882
X6.24Y-5.0032
X6.24Y-5.1607
X6.24Y-5.3182
X6.2793Y-3.2316
X6.2793Y-3.389
X6.2793Y-3.5465
X6.2793Y-3.704
X6.2793Y-4.1371
X6.2793Y-4.2945
X6.2793Y-4.8851
X6.3187Y-2.4835
X6.3187Y-2.641
X6.3187Y-2.8772
X6.3187Y-3.0347
X6.3187Y-3.8221
X6.3187Y-3.9796
X6.3187Y-4.5308
X6.3187Y-4.767
X6.3187Y-5.0819
X6.3187Y-5.2394
X6.3581Y-2.7591
X6.3581Y-3.1528
X6.3581Y-3.3103
X6.3581Y-3.4678
X6.3581Y-3.6253
X6.3581Y-4.2158
X6.3581Y-4.3733
X6.3581Y-4.6489
X6.3581Y-4.9638
X6.3974Y-2.5623
X6.3974Y-2.956
X6.3974Y-3.7434
X6.3974Y-3.9008
X6.3974Y-4.0583
X6.3974Y-4.8457
X6.3974Y-5.1607
X6.3974Y-5.3182
X6.4368Y-2.6804
X6.4368Y-2.8379
X6.4368Y-3.0741
X6.4368Y-3.2316
X6.4368Y-3.389
X6.4368Y-3.5465
X6.4368Y-4.2945
X6.4368Y-4.452
X6.4368Y-4.7276
X6.4368Y-5.0426
X6.4762Y-2.4835
X6.4762Y-3.6646
X6.4762Y-3.8221
X6.4762Y-3.9796
X6.4762Y-4.1371
X6.4762Y-4.5701
X6.4762Y-4.9245
X6.4762Y-5.2394
X6.5156Y-2.6016
X6.5156Y-2.7591
X6.5156Y-2.9166
X6.5156Y-3.1528
X6.5156Y-3.3103
X6.5156Y-3.4678
X6.5156Y-4.3733
X6.5156Y-4.8064
X6.5156Y-5.1213
X6.5549Y-3.0347
X6.5549Y-3.5859
X6.5549Y-3.7434
X6.5549Y-3.9008
X6.5549Y-4.0583
X6.5549Y-4.2158
X6.5549Y-4.4914
X6.5549Y-4.6489
X6.5549Y-5.0032
X6.5549Y-5.3182
X6.5943Y-2.5229
X6.5943Y-2.6804
X6.5943Y-2.8379
X6.5943Y-3.2316
X6.5943Y-3.389
X6.5943Y-4.8851
X6.5943Y-5.2001
X6.6337Y-2.956
X6.6337Y-3.1134
X6.6337Y-3.5071
X6.6337Y-3.6646
X6.6337Y-3.8221
X6.6337Y-3.9796
X6.6337Y-4.1371
X6.6337Y-4.2945
X6.6337Y-4.5701
X6.6337Y-4.7276
X6.6337Y-5.0819
X6.673Y-2.6016
X6.673Y-2.7591
X6.673Y-3.3103
X6.673Y-4.4127
X6.673Y-4.9638
X6.7124Y-2.8772
X6.7124Y-3.0347
X6.7124Y-3.1922
X6.7124Y-3.4284
X6.7124Y-3.5859
X6.7124Y-3.7434
X6.7124Y-3.9008
X6.7124Y-4.0583
X6.7124Y-4.2158
X6.7124Y-4.6489
X6.7124Y-4.8064
X6.7124Y-5.1607
T2
X4.885Y-5.25
X5.085Y-5.25
X5.12Y-2.535
X5.32Y-2.535
T3
X3.9Y-2.5
X3.9Y-5.3
X6.7Y-2.5
X6.7Y-5.3
T0
M30
