%TF.GenerationSoftware,KiCad,Pcbnew,(5.1.9)-1*%
%TF.CreationDate,2021-02-08T08:19:44-05:00*%
%TF.ProjectId,BalunAndLowPass,42616c75-6e41-46e6-944c-6f7750617373,rev?*%
%TF.SameCoordinates,Original*%
%TF.FileFunction,Paste,Top*%
%TF.FilePolarity,Positive*%
%FSLAX46Y46*%
G04 Gerber Fmt 4.6, Leading zero omitted, Abs format (unit mm)*
G04 Created by KiCad (PCBNEW (5.1.9)-1) date 2021-02-08 08:19:44*
%MOMM*%
%LPD*%
G01*
G04 APERTURE LIST*
%ADD10R,1.400000X0.760000*%
%ADD11R,4.200000X1.350000*%
%ADD12R,3.600000X1.270000*%
G04 APERTURE END LIST*
D10*
%TO.C,TR2*%
X71945000Y-69850000D03*
X71945000Y-68580000D03*
X71945000Y-67310000D03*
X75375000Y-67310000D03*
X75375000Y-69850000D03*
%TD*%
%TO.C,TR1*%
X71945000Y-95250000D03*
X71945000Y-93980000D03*
X71945000Y-92710000D03*
X75375000Y-92710000D03*
X75375000Y-95250000D03*
%TD*%
%TO.C,L2*%
G36*
G01*
X90815000Y-69468750D02*
X90815000Y-70231250D01*
G75*
G02*
X90596250Y-70450000I-218750J0D01*
G01*
X90158750Y-70450000D01*
G75*
G02*
X89940000Y-70231250I0J218750D01*
G01*
X89940000Y-69468750D01*
G75*
G02*
X90158750Y-69250000I218750J0D01*
G01*
X90596250Y-69250000D01*
G75*
G02*
X90815000Y-69468750I0J-218750D01*
G01*
G37*
G36*
G01*
X92940000Y-69468750D02*
X92940000Y-70231250D01*
G75*
G02*
X92721250Y-70450000I-218750J0D01*
G01*
X92283750Y-70450000D01*
G75*
G02*
X92065000Y-70231250I0J218750D01*
G01*
X92065000Y-69468750D01*
G75*
G02*
X92283750Y-69250000I218750J0D01*
G01*
X92721250Y-69250000D01*
G75*
G02*
X92940000Y-69468750I0J-218750D01*
G01*
G37*
%TD*%
%TO.C,L1*%
G36*
G01*
X90815000Y-94868750D02*
X90815000Y-95631250D01*
G75*
G02*
X90596250Y-95850000I-218750J0D01*
G01*
X90158750Y-95850000D01*
G75*
G02*
X89940000Y-95631250I0J218750D01*
G01*
X89940000Y-94868750D01*
G75*
G02*
X90158750Y-94650000I218750J0D01*
G01*
X90596250Y-94650000D01*
G75*
G02*
X90815000Y-94868750I0J-218750D01*
G01*
G37*
G36*
G01*
X92940000Y-94868750D02*
X92940000Y-95631250D01*
G75*
G02*
X92721250Y-95850000I-218750J0D01*
G01*
X92283750Y-95850000D01*
G75*
G02*
X92065000Y-95631250I0J218750D01*
G01*
X92065000Y-94868750D01*
G75*
G02*
X92283750Y-94650000I218750J0D01*
G01*
X92721250Y-94650000D01*
G75*
G02*
X92940000Y-94868750I0J-218750D01*
G01*
G37*
%TD*%
D11*
%TO.C,J6*%
X104575000Y-92552000D03*
X104575000Y-98202000D03*
D12*
X104775000Y-95377000D03*
%TD*%
D11*
%TO.C,J5*%
X104575000Y-67152000D03*
X104575000Y-72802000D03*
D12*
X104775000Y-69977000D03*
%TD*%
D11*
%TO.C,J4*%
X52905000Y-90455000D03*
X52905000Y-84805000D03*
D12*
X52705000Y-87630000D03*
%TD*%
D11*
%TO.C,J3*%
X52905000Y-103155000D03*
X52905000Y-97505000D03*
D12*
X52705000Y-100330000D03*
%TD*%
D11*
%TO.C,J2*%
X52905000Y-65055000D03*
X52905000Y-59405000D03*
D12*
X52705000Y-62230000D03*
%TD*%
D11*
%TO.C,J1*%
X52905000Y-77755000D03*
X52905000Y-72105000D03*
D12*
X52705000Y-74930000D03*
%TD*%
%TO.C,CC2*%
G36*
G01*
X79560000Y-69375000D02*
X79560000Y-70325000D01*
G75*
G02*
X79310000Y-70575000I-250000J0D01*
G01*
X78810000Y-70575000D01*
G75*
G02*
X78560000Y-70325000I0J250000D01*
G01*
X78560000Y-69375000D01*
G75*
G02*
X78810000Y-69125000I250000J0D01*
G01*
X79310000Y-69125000D01*
G75*
G02*
X79560000Y-69375000I0J-250000D01*
G01*
G37*
G36*
G01*
X81460000Y-69375000D02*
X81460000Y-70325000D01*
G75*
G02*
X81210000Y-70575000I-250000J0D01*
G01*
X80710000Y-70575000D01*
G75*
G02*
X80460000Y-70325000I0J250000D01*
G01*
X80460000Y-69375000D01*
G75*
G02*
X80710000Y-69125000I250000J0D01*
G01*
X81210000Y-69125000D01*
G75*
G02*
X81460000Y-69375000I0J-250000D01*
G01*
G37*
%TD*%
%TO.C,CC1*%
G36*
G01*
X79560000Y-94775000D02*
X79560000Y-95725000D01*
G75*
G02*
X79310000Y-95975000I-250000J0D01*
G01*
X78810000Y-95975000D01*
G75*
G02*
X78560000Y-95725000I0J250000D01*
G01*
X78560000Y-94775000D01*
G75*
G02*
X78810000Y-94525000I250000J0D01*
G01*
X79310000Y-94525000D01*
G75*
G02*
X79560000Y-94775000I0J-250000D01*
G01*
G37*
G36*
G01*
X81460000Y-94775000D02*
X81460000Y-95725000D01*
G75*
G02*
X81210000Y-95975000I-250000J0D01*
G01*
X80710000Y-95975000D01*
G75*
G02*
X80460000Y-95725000I0J250000D01*
G01*
X80460000Y-94775000D01*
G75*
G02*
X80710000Y-94525000I250000J0D01*
G01*
X81210000Y-94525000D01*
G75*
G02*
X81460000Y-94775000I0J-250000D01*
G01*
G37*
%TD*%
%TO.C,C4*%
G36*
G01*
X97696000Y-71316000D02*
X98646000Y-71316000D01*
G75*
G02*
X98896000Y-71566000I0J-250000D01*
G01*
X98896000Y-72066000D01*
G75*
G02*
X98646000Y-72316000I-250000J0D01*
G01*
X97696000Y-72316000D01*
G75*
G02*
X97446000Y-72066000I0J250000D01*
G01*
X97446000Y-71566000D01*
G75*
G02*
X97696000Y-71316000I250000J0D01*
G01*
G37*
G36*
G01*
X97696000Y-69416000D02*
X98646000Y-69416000D01*
G75*
G02*
X98896000Y-69666000I0J-250000D01*
G01*
X98896000Y-70166000D01*
G75*
G02*
X98646000Y-70416000I-250000J0D01*
G01*
X97696000Y-70416000D01*
G75*
G02*
X97446000Y-70166000I0J250000D01*
G01*
X97446000Y-69666000D01*
G75*
G02*
X97696000Y-69416000I250000J0D01*
G01*
G37*
%TD*%
%TO.C,C3*%
G36*
G01*
X84742000Y-71377000D02*
X85692000Y-71377000D01*
G75*
G02*
X85942000Y-71627000I0J-250000D01*
G01*
X85942000Y-72127000D01*
G75*
G02*
X85692000Y-72377000I-250000J0D01*
G01*
X84742000Y-72377000D01*
G75*
G02*
X84492000Y-72127000I0J250000D01*
G01*
X84492000Y-71627000D01*
G75*
G02*
X84742000Y-71377000I250000J0D01*
G01*
G37*
G36*
G01*
X84742000Y-69477000D02*
X85692000Y-69477000D01*
G75*
G02*
X85942000Y-69727000I0J-250000D01*
G01*
X85942000Y-70227000D01*
G75*
G02*
X85692000Y-70477000I-250000J0D01*
G01*
X84742000Y-70477000D01*
G75*
G02*
X84492000Y-70227000I0J250000D01*
G01*
X84492000Y-69727000D01*
G75*
G02*
X84742000Y-69477000I250000J0D01*
G01*
G37*
%TD*%
%TO.C,C2*%
G36*
G01*
X97188000Y-96716000D02*
X98138000Y-96716000D01*
G75*
G02*
X98388000Y-96966000I0J-250000D01*
G01*
X98388000Y-97466000D01*
G75*
G02*
X98138000Y-97716000I-250000J0D01*
G01*
X97188000Y-97716000D01*
G75*
G02*
X96938000Y-97466000I0J250000D01*
G01*
X96938000Y-96966000D01*
G75*
G02*
X97188000Y-96716000I250000J0D01*
G01*
G37*
G36*
G01*
X97188000Y-94816000D02*
X98138000Y-94816000D01*
G75*
G02*
X98388000Y-95066000I0J-250000D01*
G01*
X98388000Y-95566000D01*
G75*
G02*
X98138000Y-95816000I-250000J0D01*
G01*
X97188000Y-95816000D01*
G75*
G02*
X96938000Y-95566000I0J250000D01*
G01*
X96938000Y-95066000D01*
G75*
G02*
X97188000Y-94816000I250000J0D01*
G01*
G37*
%TD*%
%TO.C,C1*%
G36*
G01*
X84615000Y-96716000D02*
X85565000Y-96716000D01*
G75*
G02*
X85815000Y-96966000I0J-250000D01*
G01*
X85815000Y-97466000D01*
G75*
G02*
X85565000Y-97716000I-250000J0D01*
G01*
X84615000Y-97716000D01*
G75*
G02*
X84365000Y-97466000I0J250000D01*
G01*
X84365000Y-96966000D01*
G75*
G02*
X84615000Y-96716000I250000J0D01*
G01*
G37*
G36*
G01*
X84615000Y-94816000D02*
X85565000Y-94816000D01*
G75*
G02*
X85815000Y-95066000I0J-250000D01*
G01*
X85815000Y-95566000D01*
G75*
G02*
X85565000Y-95816000I-250000J0D01*
G01*
X84615000Y-95816000D01*
G75*
G02*
X84365000Y-95566000I0J250000D01*
G01*
X84365000Y-95066000D01*
G75*
G02*
X84615000Y-94816000I250000J0D01*
G01*
G37*
%TD*%
M02*
