M48
; DRILL file {KiCad (5.1.9)-1} date 02/08/21 08:19:46
; FORMAT={-:-/ absolute / inch / decimal}
; #@! TF.CreationDate,2021-02-08T08:19:46-05:00
; #@! TF.GenerationSoftware,Kicad,Pcbnew,(5.1.9)-1
; #@! TF.FileFunction,Plated,1,2,PTH
FMAT,2
INCH
T1C0.0157
%
G90
G05
T1
X2.057Y-2.1824
X2.057Y-2.6548
X2.057Y-3.1666
X2.057Y-3.6784
X2.057Y-4.1509
X2.0964Y-2.7335
X2.0964Y-3.2453
X2.1358Y-2.2217
X2.1358Y-3.7178
X2.1358Y-4.1902
X2.1751Y-2.6548
X2.1751Y-3.1666
X2.2145Y-2.1824
X2.2145Y-2.7335
X2.2145Y-3.2453
X2.2145Y-3.6784
X2.2145Y-4.1509
X2.2539Y-2.2611
X2.2539Y-2.3792
X2.2539Y-2.6154
X2.2539Y-3.0091
X2.2539Y-3.1272
X2.2539Y-3.3241
X2.2539Y-3.7572
X2.2539Y-4.0328
X2.2933Y-2.6942
X2.2933Y-3.206
X2.2933Y-3.4028
X2.2933Y-4.1115
X2.3326Y-2.1824
X2.3326Y-2.3005
X2.3326Y-2.4186
X2.3326Y-2.9698
X2.3326Y-3.0879
X2.3326Y-3.2847
X2.3326Y-3.954
X2.3326Y-4.1902
X2.372Y-2.4973
X2.372Y-3.1666
X2.372Y-3.3635
X2.372Y-3.4816
X2.372Y-4.0328
X2.4114Y-2.2217
X2.4114Y-2.3398
X2.4114Y-2.891
X2.4114Y-3.0091
X2.4114Y-3.2453
X2.4114Y-3.8753
X2.4114Y-4.1115
X2.4507Y-2.4186
X2.4507Y-2.5367
X2.4507Y-3.0879
X2.4507Y-3.3241
X2.4507Y-3.4422
X2.4507Y-3.5603
X2.4507Y-3.954
X2.4507Y-4.1902
X2.4901Y-2.1824
X2.4901Y-2.3005
X2.4901Y-2.8123
X2.4901Y-2.9304
X2.4901Y-3.1666
X2.4901Y-3.7965
X2.4901Y-4.0328
X2.5295Y-2.3792
X2.5295Y-2.4973
X2.5295Y-3.0091
X2.5295Y-3.2453
X2.5295Y-3.3635
X2.5295Y-3.4816
X2.5295Y-3.5997
X2.5295Y-3.8753
X2.5295Y-4.1115
X2.5688Y-2.2217
X2.5688Y-2.5761
X2.5688Y-2.8516
X2.5688Y-3.0879
X2.5688Y-3.954
X2.5688Y-4.1902
X2.6082Y-2.3005
X2.6082Y-2.4186
X2.6082Y-2.9304
X2.6082Y-3.1666
X2.6082Y-3.2847
X2.6082Y-3.4028
X2.6082Y-3.5209
X2.6082Y-3.7965
X2.6082Y-4.0328
X2.6476Y-2.1824
X2.6476Y-2.4973
X2.6476Y-2.8123
X2.6476Y-3.0091
X2.6476Y-3.5997
X2.6476Y-3.8753
X2.6476Y-4.1115
X2.687Y-2.2611
X2.687Y-2.3792
X2.687Y-2.5761
X2.687Y-2.891
X2.687Y-3.0879
X2.687Y-3.206
X2.687Y-3.3241
X2.687Y-3.4422
X2.687Y-3.954
X2.687Y-4.1902
X2.7263Y-2.4579
X2.7263Y-2.9698
X2.7263Y-3.5209
X2.7263Y-3.8359
X2.7263Y-4.0328
X2.7657Y-2.1824
X2.7657Y-2.3005
X2.7657Y-2.5367
X2.7657Y-2.8123
X2.7657Y-3.0485
X2.7657Y-3.1666
X2.7657Y-3.2847
X2.7657Y-3.4028
X2.7657Y-3.9146
X2.7657Y-4.1115
X2.8051Y-2.3792
X2.8051Y-2.891
X2.8051Y-3.4816
X2.8051Y-3.9934
X2.8051Y-4.1902
X2.8444Y-2.2217
X2.8444Y-2.4579
X2.8444Y-2.5761
X2.8444Y-2.9698
X2.8444Y-3.0879
X2.8444Y-3.206
X2.8444Y-3.3241
X2.8444Y-3.5603
X2.8444Y-3.8359
X2.8444Y-4.0721
X2.8838Y-2.3005
X2.8838Y-2.8123
X2.8838Y-3.4028
X2.8838Y-3.9146
X2.8838Y-4.1509
X2.9232Y-2.1824
X2.9232Y-2.3792
X2.9232Y-2.4973
X2.9232Y-2.891
X2.9232Y-3.0091
X2.9232Y-3.1272
X2.9232Y-3.2453
X2.9232Y-3.4816
X2.9232Y-3.9934
X2.9625Y-2.2611
X2.9625Y-2.5761
X2.9625Y-3.3241
X2.9625Y-3.5603
X2.9625Y-3.8359
X2.9625Y-4.0721
X2.9625Y-4.1902
X3.0019Y-2.3398
X3.0019Y-2.4579
X3.0019Y-2.8123
X3.0019Y-2.9304
X3.0019Y-3.0485
X3.0019Y-3.1666
X3.0019Y-3.4028
X3.0019Y-3.9146
X3.0413Y-2.1824
X3.0413Y-2.5367
X3.0413Y-2.6548
X3.0413Y-3.2453
X3.0413Y-3.4816
X3.0413Y-3.5997
X3.0413Y-3.9934
X3.0413Y-4.1115
X3.0807Y-2.2611
X3.0807Y-2.3792
X3.0807Y-2.8516
X3.0807Y-2.9698
X3.0807Y-3.0879
X3.0807Y-3.3241
X3.0807Y-3.6784
X3.0807Y-3.8359
X3.0807Y-4.1902
X3.12Y-2.4579
X3.12Y-2.5761
X3.12Y-3.1666
X3.12Y-3.4028
X3.12Y-3.5209
X3.12Y-3.9146
X3.12Y-4.0328
X3.1594Y-2.1824
X3.1594Y-2.3005
X3.1594Y-2.6548
X3.1594Y-2.891
X3.1594Y-3.0091
X3.1594Y-3.2453
X3.1594Y-3.5997
X3.1594Y-4.1115
X3.1988Y-2.3792
X3.1988Y-2.4973
X3.1988Y-3.0879
X3.1988Y-3.3241
X3.1988Y-3.4422
X3.1988Y-3.6784
X3.1988Y-3.8359
X3.1988Y-3.954
X3.1988Y-4.1902
X3.2381Y-2.2217
X3.2381Y-2.5761
X3.2381Y-2.8516
X3.2381Y-2.9698
X3.2381Y-3.1666
X3.2381Y-3.5209
X3.2381Y-4.0328
X3.2775Y-2.3005
X3.2775Y-2.4186
X3.2775Y-2.6548
X3.2775Y-3.0485
X3.2775Y-3.2453
X3.2775Y-3.3635
X3.2775Y-3.5997
X3.2775Y-3.8753
X3.2775Y-4.1115
X3.3169Y-2.1824
X3.3169Y-2.4973
X3.3169Y-2.891
X3.3169Y-3.1272
X3.3169Y-3.4422
X3.3169Y-3.6784
X3.3169Y-3.954
X3.3169Y-4.1902
X3.3562Y-2.2611
X3.3562Y-2.3792
X3.3562Y-2.5761
X3.3562Y-2.6942
X3.3562Y-2.9698
X3.3562Y-3.206
X3.3562Y-3.3241
X3.3562Y-3.5209
X3.3562Y-4.0328
X3.3956Y-2.4579
X3.3956Y-3.0485
X3.3956Y-3.4028
X3.3956Y-3.5997
X3.3956Y-3.9146
X3.3956Y-4.1115
X3.435Y-2.1824
X3.435Y-2.3005
X3.435Y-2.5367
X3.435Y-2.6548
X3.435Y-2.8123
X3.435Y-2.9304
X3.435Y-3.1272
X3.435Y-3.2453
X3.435Y-3.4816
X3.435Y-3.6784
X3.435Y-3.8359
X3.435Y-3.9934
X3.435Y-4.1902
X3.4744Y-2.3792
X3.4744Y-3.0091
X3.4744Y-3.3241
X3.4744Y-3.5603
X3.4744Y-4.0721
X3.5137Y-2.2217
X3.5137Y-2.4579
X3.5137Y-2.5761
X3.5137Y-2.6942
X3.5137Y-2.8516
X3.5137Y-3.0879
X3.5137Y-3.206
X3.5137Y-3.4028
X3.5137Y-3.6391
X3.5137Y-3.8753
X3.5137Y-4.1509
X3.5531Y-2.3005
X3.5531Y-2.9304
X3.5531Y-3.2847
X3.5531Y-3.4816
X3.5531Y-3.954
X3.5925Y-2.1824
X3.5925Y-2.3792
X3.5925Y-2.4973
X3.5925Y-2.6154
X3.5925Y-2.8123
X3.5925Y-3.0091
X3.5925Y-3.1272
X3.5925Y-3.3635
X3.5925Y-3.5603
X3.5925Y-3.6784
X3.5925Y-3.8359
X3.5925Y-4.0328
X3.5925Y-4.1902
X3.6318Y-2.2611
X3.6318Y-2.891
X3.6318Y-3.206
X3.6318Y-3.4422
X3.6318Y-3.9146
X3.6318Y-4.1115
X3.6712Y-2.3398
X3.6712Y-2.4579
X3.6712Y-2.5761
X3.6712Y-2.9698
X3.6712Y-3.0879
X3.6712Y-3.2847
X3.6712Y-3.5209
X3.6712Y-3.6391
X3.6712Y-3.9934
X3.7106Y-2.1824
X3.7106Y-2.6548
X3.7106Y-2.8123
X3.7106Y-3.1666
X3.7106Y-3.3635
X3.7106Y-3.8359
X3.7106Y-4.0721
X3.7106Y-4.1902
X3.7499Y-2.2611
X3.7499Y-2.3792
X3.7499Y-2.4973
X3.7499Y-2.891
X3.7499Y-3.0091
X3.7499Y-3.2453
X3.7499Y-3.4422
X3.7499Y-3.5603
X3.7499Y-3.6784
X3.7499Y-3.9146
X3.7893Y-2.5761
X3.7893Y-2.6942
X3.7893Y-3.0879
X3.7893Y-3.3241
X3.7893Y-3.9934
X3.7893Y-4.1115
X3.8287Y-2.1824
X3.8287Y-2.3005
X3.8287Y-2.4186
X3.8287Y-2.9304
X3.8287Y-3.1666
X3.8287Y-3.4028
X3.8287Y-3.5209
X3.8287Y-3.6391
X3.8287Y-4.1902
X3.8681Y-2.4973
X3.8681Y-2.6154
X3.8681Y-3.0091
X3.8681Y-3.2453
X3.8681Y-3.9146
X3.8681Y-4.0328
X3.9074Y-2.2217
X3.9074Y-2.3398
X3.9074Y-2.6942
X3.9074Y-2.891
X3.9074Y-3.0879
X3.9074Y-3.3241
X3.9074Y-3.4422
X3.9074Y-3.5603
X3.9074Y-3.6784
X3.9074Y-4.1115
X3.9468Y-2.4186
X3.9468Y-2.5367
X3.9468Y-2.8123
X3.9468Y-2.9698
X3.9468Y-3.1666
X3.9468Y-3.8359
X3.9468Y-3.954
X3.9468Y-4.1902
X3.9862Y-2.1824
X3.9862Y-2.3005
X3.9862Y-2.6154
X3.9862Y-3.0485
X3.9862Y-3.2453
X3.9862Y-3.3635
X3.9862Y-3.4816
X3.9862Y-4.0328
X4.0255Y-2.3792
X4.0255Y-2.4973
X4.0255Y-3.1272
X4.0255Y-4.1115
X4.0649Y-2.2217
X4.0649Y-2.9698
X4.0649Y-3.206
X4.0649Y-3.3241
X4.0649Y-3.4422
X4.0649Y-3.954
X4.0649Y-4.1902
X4.1043Y-2.3005
X4.1043Y-2.4186
X4.1043Y-2.5367
X4.1043Y-3.0485
X4.1043Y-3.5209
X4.1043Y-4.0328
X4.1436Y-2.1824
X4.1436Y-3.1272
X4.1436Y-3.2453
X4.1436Y-3.3635
X4.1436Y-4.1115
T0
M30
