%TF.GenerationSoftware,KiCad,Pcbnew,(5.1.9)-1*%
%TF.CreationDate,2021-03-17T18:41:45-04:00*%
%TF.ProjectId,BalunAndLowPass,42616c75-6e41-46e6-944c-6f7750617373,rev?*%
%TF.SameCoordinates,Original*%
%TF.FileFunction,Legend,Top*%
%TF.FilePolarity,Positive*%
%FSLAX46Y46*%
G04 Gerber Fmt 4.6, Leading zero omitted, Abs format (unit mm)*
G04 Created by KiCad (PCBNEW (5.1.9)-1) date 2021-03-17 18:41:45*
%MOMM*%
%LPD*%
G01*
G04 APERTURE LIST*
%ADD10C,0.150000*%
%ADD11C,0.120000*%
%ADD12C,0.015000*%
G04 APERTURE END LIST*
D10*
X71041904Y-82685000D02*
X70946666Y-82637380D01*
X70803809Y-82637380D01*
X70660952Y-82685000D01*
X70565714Y-82780238D01*
X70518095Y-82875476D01*
X70470476Y-83065952D01*
X70470476Y-83208809D01*
X70518095Y-83399285D01*
X70565714Y-83494523D01*
X70660952Y-83589761D01*
X70803809Y-83637380D01*
X70899047Y-83637380D01*
X71041904Y-83589761D01*
X71089523Y-83542142D01*
X71089523Y-83208809D01*
X70899047Y-83208809D01*
X71375238Y-82637380D02*
X71946666Y-82637380D01*
X71660952Y-83637380D02*
X71660952Y-82637380D01*
X72851428Y-83637380D02*
X72518095Y-83161190D01*
X72280000Y-83637380D02*
X72280000Y-82637380D01*
X72660952Y-82637380D01*
X72756190Y-82685000D01*
X72803809Y-82732619D01*
X72851428Y-82827857D01*
X72851428Y-82970714D01*
X72803809Y-83065952D01*
X72756190Y-83113571D01*
X72660952Y-83161190D01*
X72280000Y-83161190D01*
X73613333Y-83113571D02*
X73280000Y-83113571D01*
X73280000Y-83637380D02*
X73280000Y-82637380D01*
X73756190Y-82637380D01*
X74851428Y-83589761D02*
X74994285Y-83637380D01*
X75232380Y-83637380D01*
X75327619Y-83589761D01*
X75375238Y-83542142D01*
X75422857Y-83446904D01*
X75422857Y-83351666D01*
X75375238Y-83256428D01*
X75327619Y-83208809D01*
X75232380Y-83161190D01*
X75041904Y-83113571D01*
X74946666Y-83065952D01*
X74899047Y-83018333D01*
X74851428Y-82923095D01*
X74851428Y-82827857D01*
X74899047Y-82732619D01*
X74946666Y-82685000D01*
X75041904Y-82637380D01*
X75280000Y-82637380D01*
X75422857Y-82685000D01*
X75851428Y-83637380D02*
X75851428Y-82970714D01*
X75851428Y-82637380D02*
X75803809Y-82685000D01*
X75851428Y-82732619D01*
X75899047Y-82685000D01*
X75851428Y-82637380D01*
X75851428Y-82732619D01*
X76327619Y-82970714D02*
X76327619Y-83637380D01*
X76327619Y-83065952D02*
X76375238Y-83018333D01*
X76470476Y-82970714D01*
X76613333Y-82970714D01*
X76708571Y-83018333D01*
X76756190Y-83113571D01*
X76756190Y-83637380D01*
X77660952Y-82970714D02*
X77660952Y-83780238D01*
X77613333Y-83875476D01*
X77565714Y-83923095D01*
X77470476Y-83970714D01*
X77327619Y-83970714D01*
X77232380Y-83923095D01*
X77660952Y-83589761D02*
X77565714Y-83637380D01*
X77375238Y-83637380D01*
X77280000Y-83589761D01*
X77232380Y-83542142D01*
X77184761Y-83446904D01*
X77184761Y-83161190D01*
X77232380Y-83065952D01*
X77280000Y-83018333D01*
X77375238Y-82970714D01*
X77565714Y-82970714D01*
X77660952Y-83018333D01*
X78280000Y-83637380D02*
X78184761Y-83589761D01*
X78137142Y-83494523D01*
X78137142Y-82637380D01*
X79041904Y-83589761D02*
X78946666Y-83637380D01*
X78756190Y-83637380D01*
X78660952Y-83589761D01*
X78613333Y-83494523D01*
X78613333Y-83113571D01*
X78660952Y-83018333D01*
X78756190Y-82970714D01*
X78946666Y-82970714D01*
X79041904Y-83018333D01*
X79089523Y-83113571D01*
X79089523Y-83208809D01*
X78613333Y-83304047D01*
X80280000Y-83113571D02*
X80613333Y-83113571D01*
X80756190Y-83637380D02*
X80280000Y-83637380D01*
X80280000Y-82637380D01*
X80756190Y-82637380D01*
X81184761Y-82970714D02*
X81184761Y-83637380D01*
X81184761Y-83065952D02*
X81232380Y-83018333D01*
X81327619Y-82970714D01*
X81470476Y-82970714D01*
X81565714Y-83018333D01*
X81613333Y-83113571D01*
X81613333Y-83637380D01*
X82518095Y-83637380D02*
X82518095Y-82637380D01*
X82518095Y-83589761D02*
X82422857Y-83637380D01*
X82232380Y-83637380D01*
X82137142Y-83589761D01*
X82089523Y-83542142D01*
X82041904Y-83446904D01*
X82041904Y-83161190D01*
X82089523Y-83065952D01*
X82137142Y-83018333D01*
X82232380Y-82970714D01*
X82422857Y-82970714D01*
X82518095Y-83018333D01*
X83375238Y-83589761D02*
X83280000Y-83637380D01*
X83089523Y-83637380D01*
X82994285Y-83589761D01*
X82946666Y-83494523D01*
X82946666Y-83113571D01*
X82994285Y-83018333D01*
X83089523Y-82970714D01*
X83280000Y-82970714D01*
X83375238Y-83018333D01*
X83422857Y-83113571D01*
X83422857Y-83208809D01*
X82946666Y-83304047D01*
X84280000Y-83637380D02*
X84280000Y-82637380D01*
X84280000Y-83589761D02*
X84184761Y-83637380D01*
X83994285Y-83637380D01*
X83899047Y-83589761D01*
X83851428Y-83542142D01*
X83803809Y-83446904D01*
X83803809Y-83161190D01*
X83851428Y-83065952D01*
X83899047Y-83018333D01*
X83994285Y-82970714D01*
X84184761Y-82970714D01*
X84280000Y-83018333D01*
X86089523Y-83542142D02*
X86041904Y-83589761D01*
X85899047Y-83637380D01*
X85803809Y-83637380D01*
X85660952Y-83589761D01*
X85565714Y-83494523D01*
X85518095Y-83399285D01*
X85470476Y-83208809D01*
X85470476Y-83065952D01*
X85518095Y-82875476D01*
X85565714Y-82780238D01*
X85660952Y-82685000D01*
X85803809Y-82637380D01*
X85899047Y-82637380D01*
X86041904Y-82685000D01*
X86089523Y-82732619D01*
X86660952Y-83637380D02*
X86565714Y-83589761D01*
X86518095Y-83542142D01*
X86470476Y-83446904D01*
X86470476Y-83161190D01*
X86518095Y-83065952D01*
X86565714Y-83018333D01*
X86660952Y-82970714D01*
X86803809Y-82970714D01*
X86899047Y-83018333D01*
X86946666Y-83065952D01*
X86994285Y-83161190D01*
X86994285Y-83446904D01*
X86946666Y-83542142D01*
X86899047Y-83589761D01*
X86803809Y-83637380D01*
X86660952Y-83637380D01*
X87422857Y-83637380D02*
X87422857Y-82970714D01*
X87422857Y-83065952D02*
X87470476Y-83018333D01*
X87565714Y-82970714D01*
X87708571Y-82970714D01*
X87803809Y-83018333D01*
X87851428Y-83113571D01*
X87851428Y-83637380D01*
X87851428Y-83113571D02*
X87899047Y-83018333D01*
X87994285Y-82970714D01*
X88137142Y-82970714D01*
X88232380Y-83018333D01*
X88280000Y-83113571D01*
X88280000Y-83637380D01*
X88756190Y-83637380D02*
X88756190Y-82637380D01*
X88756190Y-83018333D02*
X88851428Y-82970714D01*
X89041904Y-82970714D01*
X89137142Y-83018333D01*
X89184761Y-83065952D01*
X89232380Y-83161190D01*
X89232380Y-83446904D01*
X89184761Y-83542142D01*
X89137142Y-83589761D01*
X89041904Y-83637380D01*
X88851428Y-83637380D01*
X88756190Y-83589761D01*
X89660952Y-83637380D02*
X89660952Y-82970714D01*
X89660952Y-82637380D02*
X89613333Y-82685000D01*
X89660952Y-82732619D01*
X89708571Y-82685000D01*
X89660952Y-82637380D01*
X89660952Y-82732619D01*
X90137142Y-82970714D02*
X90137142Y-83637380D01*
X90137142Y-83065952D02*
X90184761Y-83018333D01*
X90280000Y-82970714D01*
X90422857Y-82970714D01*
X90518095Y-83018333D01*
X90565714Y-83113571D01*
X90565714Y-83637380D01*
X91422857Y-83589761D02*
X91327619Y-83637380D01*
X91137142Y-83637380D01*
X91041904Y-83589761D01*
X90994285Y-83494523D01*
X90994285Y-83113571D01*
X91041904Y-83018333D01*
X91137142Y-82970714D01*
X91327619Y-82970714D01*
X91422857Y-83018333D01*
X91470476Y-83113571D01*
X91470476Y-83208809D01*
X90994285Y-83304047D01*
X91899047Y-83637380D02*
X91899047Y-82970714D01*
X91899047Y-83161190D02*
X91946666Y-83065952D01*
X91994285Y-83018333D01*
X92089523Y-82970714D01*
X92184761Y-82970714D01*
D11*
%TO.C,CC6*%
X65031252Y-61495000D02*
X64508748Y-61495000D01*
X65031252Y-62965000D02*
X64508748Y-62965000D01*
%TO.C,CC5*%
X65031252Y-74195000D02*
X64508748Y-74195000D01*
X65031252Y-75665000D02*
X64508748Y-75665000D01*
%TO.C,CC4*%
X64777252Y-86895000D02*
X64254748Y-86895000D01*
X64777252Y-88365000D02*
X64254748Y-88365000D01*
%TO.C,CC3*%
X64838252Y-99595000D02*
X64315748Y-99595000D01*
X64838252Y-101065000D02*
X64315748Y-101065000D01*
%TO.C,L22*%
X94024022Y-70460800D02*
X93224778Y-70460800D01*
X94024022Y-69340800D02*
X93224778Y-69340800D01*
%TO.C,L11*%
X93973222Y-95911600D02*
X93173978Y-95911600D01*
X93973222Y-94791600D02*
X93173978Y-94791600D01*
%TO.C,TR2*%
X72060000Y-70480000D02*
X72060000Y-70680000D01*
X72060000Y-70680000D02*
X75260000Y-70680000D01*
X75260000Y-70680000D02*
X75260000Y-70480000D01*
X75260000Y-70480000D02*
X76060000Y-70480000D01*
X75260000Y-69180000D02*
X75260000Y-67980000D01*
X75260000Y-66680000D02*
X75260000Y-66480000D01*
X75260000Y-66480000D02*
X72060000Y-66480000D01*
X72060000Y-66480000D02*
X72060000Y-66680000D01*
%TO.C,TR1*%
X72060000Y-95880000D02*
X72060000Y-96080000D01*
X72060000Y-96080000D02*
X75260000Y-96080000D01*
X75260000Y-96080000D02*
X75260000Y-95880000D01*
X75260000Y-95880000D02*
X76060000Y-95880000D01*
X75260000Y-94580000D02*
X75260000Y-93380000D01*
X75260000Y-92080000D02*
X75260000Y-91880000D01*
X75260000Y-91880000D02*
X72060000Y-91880000D01*
X72060000Y-91880000D02*
X72060000Y-92080000D01*
%TO.C,L2*%
X89299622Y-69391600D02*
X88500378Y-69391600D01*
X89299622Y-70511600D02*
X88500378Y-70511600D01*
%TO.C,L1*%
X89248822Y-94791600D02*
X88449578Y-94791600D01*
X89248822Y-95911600D02*
X88449578Y-95911600D01*
%TO.C,CC2*%
X80271252Y-69115000D02*
X79748748Y-69115000D01*
X80271252Y-70585000D02*
X79748748Y-70585000D01*
%TO.C,CC1*%
X80271252Y-94515000D02*
X79748748Y-94515000D01*
X80271252Y-95985000D02*
X79748748Y-95985000D01*
%TO.C,C4*%
X97436000Y-70604748D02*
X97436000Y-71127252D01*
X98906000Y-70604748D02*
X98906000Y-71127252D01*
%TO.C,C3*%
X84482000Y-70665748D02*
X84482000Y-71188252D01*
X85952000Y-70665748D02*
X85952000Y-71188252D01*
%TO.C,C2*%
X96928000Y-96004748D02*
X96928000Y-96527252D01*
X98398000Y-96004748D02*
X98398000Y-96527252D01*
%TO.C,C1*%
X84355000Y-96004748D02*
X84355000Y-96527252D01*
X85825000Y-96004748D02*
X85825000Y-96527252D01*
%TO.C,J6*%
D12*
X100557710Y-96051383D02*
X101271996Y-96051383D01*
X101414853Y-96099002D01*
X101510091Y-96194240D01*
X101557710Y-96337097D01*
X101557710Y-96432335D01*
X100557710Y-95146621D02*
X100557710Y-95337097D01*
X100605330Y-95432335D01*
X100652949Y-95479954D01*
X100795806Y-95575192D01*
X100986282Y-95622811D01*
X101367234Y-95622811D01*
X101462472Y-95575192D01*
X101510091Y-95527573D01*
X101557710Y-95432335D01*
X101557710Y-95241859D01*
X101510091Y-95146621D01*
X101462472Y-95099002D01*
X101367234Y-95051383D01*
X101129139Y-95051383D01*
X101033901Y-95099002D01*
X100986282Y-95146621D01*
X100938663Y-95241859D01*
X100938663Y-95432335D01*
X100986282Y-95527573D01*
X101033901Y-95575192D01*
X101129139Y-95622811D01*
%TO.C,J5*%
X100557710Y-70651383D02*
X101271996Y-70651383D01*
X101414853Y-70699002D01*
X101510091Y-70794240D01*
X101557710Y-70937097D01*
X101557710Y-71032335D01*
X100557710Y-69699002D02*
X100557710Y-70175192D01*
X101033901Y-70222811D01*
X100986282Y-70175192D01*
X100938663Y-70079954D01*
X100938663Y-69841859D01*
X100986282Y-69746621D01*
X101033901Y-69699002D01*
X101129139Y-69651383D01*
X101367234Y-69651383D01*
X101462472Y-69699002D01*
X101510091Y-69746621D01*
X101557710Y-69841859D01*
X101557710Y-70079954D01*
X101510091Y-70175192D01*
X101462472Y-70222811D01*
%TO.C,J4*%
X60907050Y-87622283D02*
X61621336Y-87622283D01*
X61764193Y-87669902D01*
X61859431Y-87765140D01*
X61907050Y-87907997D01*
X61907050Y-88003235D01*
X61240384Y-86717521D02*
X61907050Y-86717521D01*
X60859431Y-86955616D02*
X61573717Y-87193711D01*
X61573717Y-86574664D01*
%TO.C,J3*%
X60907050Y-100322283D02*
X61621336Y-100322283D01*
X61764193Y-100369902D01*
X61859431Y-100465140D01*
X61907050Y-100607997D01*
X61907050Y-100703235D01*
X60907050Y-99941330D02*
X60907050Y-99322283D01*
X61288003Y-99655616D01*
X61288003Y-99512759D01*
X61335622Y-99417521D01*
X61383241Y-99369902D01*
X61478479Y-99322283D01*
X61716574Y-99322283D01*
X61811812Y-99369902D01*
X61859431Y-99417521D01*
X61907050Y-99512759D01*
X61907050Y-99798473D01*
X61859431Y-99893711D01*
X61811812Y-99941330D01*
%TO.C,J2*%
X60907050Y-62222283D02*
X61621336Y-62222283D01*
X61764193Y-62269902D01*
X61859431Y-62365140D01*
X61907050Y-62507997D01*
X61907050Y-62603235D01*
X61002289Y-61793711D02*
X60954670Y-61746092D01*
X60907050Y-61650854D01*
X60907050Y-61412759D01*
X60954670Y-61317521D01*
X61002289Y-61269902D01*
X61097527Y-61222283D01*
X61192765Y-61222283D01*
X61335622Y-61269902D01*
X61907050Y-61841330D01*
X61907050Y-61222283D01*
%TO.C,J1*%
X60907050Y-74922283D02*
X61621336Y-74922283D01*
X61764193Y-74969902D01*
X61859431Y-75065140D01*
X61907050Y-75207997D01*
X61907050Y-75303235D01*
X61907050Y-73922283D02*
X61907050Y-74493711D01*
X61907050Y-74207997D02*
X60907050Y-74207997D01*
X61049908Y-74303235D01*
X61145146Y-74398473D01*
X61192765Y-74493711D01*
%TO.C,CC6*%
D10*
X64103333Y-64267142D02*
X64055714Y-64314761D01*
X63912857Y-64362380D01*
X63817619Y-64362380D01*
X63674761Y-64314761D01*
X63579523Y-64219523D01*
X63531904Y-64124285D01*
X63484285Y-63933809D01*
X63484285Y-63790952D01*
X63531904Y-63600476D01*
X63579523Y-63505238D01*
X63674761Y-63410000D01*
X63817619Y-63362380D01*
X63912857Y-63362380D01*
X64055714Y-63410000D01*
X64103333Y-63457619D01*
X65103333Y-64267142D02*
X65055714Y-64314761D01*
X64912857Y-64362380D01*
X64817619Y-64362380D01*
X64674761Y-64314761D01*
X64579523Y-64219523D01*
X64531904Y-64124285D01*
X64484285Y-63933809D01*
X64484285Y-63790952D01*
X64531904Y-63600476D01*
X64579523Y-63505238D01*
X64674761Y-63410000D01*
X64817619Y-63362380D01*
X64912857Y-63362380D01*
X65055714Y-63410000D01*
X65103333Y-63457619D01*
X65960476Y-63362380D02*
X65770000Y-63362380D01*
X65674761Y-63410000D01*
X65627142Y-63457619D01*
X65531904Y-63600476D01*
X65484285Y-63790952D01*
X65484285Y-64171904D01*
X65531904Y-64267142D01*
X65579523Y-64314761D01*
X65674761Y-64362380D01*
X65865238Y-64362380D01*
X65960476Y-64314761D01*
X66008095Y-64267142D01*
X66055714Y-64171904D01*
X66055714Y-63933809D01*
X66008095Y-63838571D01*
X65960476Y-63790952D01*
X65865238Y-63743333D01*
X65674761Y-63743333D01*
X65579523Y-63790952D01*
X65531904Y-63838571D01*
X65484285Y-63933809D01*
%TO.C,CC5*%
X64103333Y-76967142D02*
X64055714Y-77014761D01*
X63912857Y-77062380D01*
X63817619Y-77062380D01*
X63674761Y-77014761D01*
X63579523Y-76919523D01*
X63531904Y-76824285D01*
X63484285Y-76633809D01*
X63484285Y-76490952D01*
X63531904Y-76300476D01*
X63579523Y-76205238D01*
X63674761Y-76110000D01*
X63817619Y-76062380D01*
X63912857Y-76062380D01*
X64055714Y-76110000D01*
X64103333Y-76157619D01*
X65103333Y-76967142D02*
X65055714Y-77014761D01*
X64912857Y-77062380D01*
X64817619Y-77062380D01*
X64674761Y-77014761D01*
X64579523Y-76919523D01*
X64531904Y-76824285D01*
X64484285Y-76633809D01*
X64484285Y-76490952D01*
X64531904Y-76300476D01*
X64579523Y-76205238D01*
X64674761Y-76110000D01*
X64817619Y-76062380D01*
X64912857Y-76062380D01*
X65055714Y-76110000D01*
X65103333Y-76157619D01*
X66008095Y-76062380D02*
X65531904Y-76062380D01*
X65484285Y-76538571D01*
X65531904Y-76490952D01*
X65627142Y-76443333D01*
X65865238Y-76443333D01*
X65960476Y-76490952D01*
X66008095Y-76538571D01*
X66055714Y-76633809D01*
X66055714Y-76871904D01*
X66008095Y-76967142D01*
X65960476Y-77014761D01*
X65865238Y-77062380D01*
X65627142Y-77062380D01*
X65531904Y-77014761D01*
X65484285Y-76967142D01*
%TO.C,CC4*%
X63849333Y-89667142D02*
X63801714Y-89714761D01*
X63658857Y-89762380D01*
X63563619Y-89762380D01*
X63420761Y-89714761D01*
X63325523Y-89619523D01*
X63277904Y-89524285D01*
X63230285Y-89333809D01*
X63230285Y-89190952D01*
X63277904Y-89000476D01*
X63325523Y-88905238D01*
X63420761Y-88810000D01*
X63563619Y-88762380D01*
X63658857Y-88762380D01*
X63801714Y-88810000D01*
X63849333Y-88857619D01*
X64849333Y-89667142D02*
X64801714Y-89714761D01*
X64658857Y-89762380D01*
X64563619Y-89762380D01*
X64420761Y-89714761D01*
X64325523Y-89619523D01*
X64277904Y-89524285D01*
X64230285Y-89333809D01*
X64230285Y-89190952D01*
X64277904Y-89000476D01*
X64325523Y-88905238D01*
X64420761Y-88810000D01*
X64563619Y-88762380D01*
X64658857Y-88762380D01*
X64801714Y-88810000D01*
X64849333Y-88857619D01*
X65706476Y-89095714D02*
X65706476Y-89762380D01*
X65468380Y-88714761D02*
X65230285Y-89429047D01*
X65849333Y-89429047D01*
%TO.C,CC3*%
X63910333Y-102367142D02*
X63862714Y-102414761D01*
X63719857Y-102462380D01*
X63624619Y-102462380D01*
X63481761Y-102414761D01*
X63386523Y-102319523D01*
X63338904Y-102224285D01*
X63291285Y-102033809D01*
X63291285Y-101890952D01*
X63338904Y-101700476D01*
X63386523Y-101605238D01*
X63481761Y-101510000D01*
X63624619Y-101462380D01*
X63719857Y-101462380D01*
X63862714Y-101510000D01*
X63910333Y-101557619D01*
X64910333Y-102367142D02*
X64862714Y-102414761D01*
X64719857Y-102462380D01*
X64624619Y-102462380D01*
X64481761Y-102414761D01*
X64386523Y-102319523D01*
X64338904Y-102224285D01*
X64291285Y-102033809D01*
X64291285Y-101890952D01*
X64338904Y-101700476D01*
X64386523Y-101605238D01*
X64481761Y-101510000D01*
X64624619Y-101462380D01*
X64719857Y-101462380D01*
X64862714Y-101510000D01*
X64910333Y-101557619D01*
X65243666Y-101462380D02*
X65862714Y-101462380D01*
X65529380Y-101843333D01*
X65672238Y-101843333D01*
X65767476Y-101890952D01*
X65815095Y-101938571D01*
X65862714Y-102033809D01*
X65862714Y-102271904D01*
X65815095Y-102367142D01*
X65767476Y-102414761D01*
X65672238Y-102462380D01*
X65386523Y-102462380D01*
X65291285Y-102414761D01*
X65243666Y-102367142D01*
%TO.C,L22*%
X92981542Y-71903180D02*
X92505352Y-71903180D01*
X92505352Y-70903180D01*
X93267257Y-70998419D02*
X93314876Y-70950800D01*
X93410114Y-70903180D01*
X93648209Y-70903180D01*
X93743447Y-70950800D01*
X93791066Y-70998419D01*
X93838685Y-71093657D01*
X93838685Y-71188895D01*
X93791066Y-71331752D01*
X93219638Y-71903180D01*
X93838685Y-71903180D01*
X94219638Y-70998419D02*
X94267257Y-70950800D01*
X94362495Y-70903180D01*
X94600590Y-70903180D01*
X94695828Y-70950800D01*
X94743447Y-70998419D01*
X94791066Y-71093657D01*
X94791066Y-71188895D01*
X94743447Y-71331752D01*
X94172019Y-71903180D01*
X94791066Y-71903180D01*
%TO.C,L11*%
X92930742Y-97353980D02*
X92454552Y-97353980D01*
X92454552Y-96353980D01*
X93787885Y-97353980D02*
X93216457Y-97353980D01*
X93502171Y-97353980D02*
X93502171Y-96353980D01*
X93406933Y-96496838D01*
X93311695Y-96592076D01*
X93216457Y-96639695D01*
X94740266Y-97353980D02*
X94168838Y-97353980D01*
X94454552Y-97353980D02*
X94454552Y-96353980D01*
X94359314Y-96496838D01*
X94264076Y-96592076D01*
X94168838Y-96639695D01*
%TO.C,TR2*%
X72398095Y-70826380D02*
X72969523Y-70826380D01*
X72683809Y-71826380D02*
X72683809Y-70826380D01*
X73874285Y-71826380D02*
X73540952Y-71350190D01*
X73302857Y-71826380D02*
X73302857Y-70826380D01*
X73683809Y-70826380D01*
X73779047Y-70874000D01*
X73826666Y-70921619D01*
X73874285Y-71016857D01*
X73874285Y-71159714D01*
X73826666Y-71254952D01*
X73779047Y-71302571D01*
X73683809Y-71350190D01*
X73302857Y-71350190D01*
X74255238Y-70921619D02*
X74302857Y-70874000D01*
X74398095Y-70826380D01*
X74636190Y-70826380D01*
X74731428Y-70874000D01*
X74779047Y-70921619D01*
X74826666Y-71016857D01*
X74826666Y-71112095D01*
X74779047Y-71254952D01*
X74207619Y-71826380D01*
X74826666Y-71826380D01*
%TO.C,TR1*%
X72398095Y-96226380D02*
X72969523Y-96226380D01*
X72683809Y-97226380D02*
X72683809Y-96226380D01*
X73874285Y-97226380D02*
X73540952Y-96750190D01*
X73302857Y-97226380D02*
X73302857Y-96226380D01*
X73683809Y-96226380D01*
X73779047Y-96274000D01*
X73826666Y-96321619D01*
X73874285Y-96416857D01*
X73874285Y-96559714D01*
X73826666Y-96654952D01*
X73779047Y-96702571D01*
X73683809Y-96750190D01*
X73302857Y-96750190D01*
X74826666Y-97226380D02*
X74255238Y-97226380D01*
X74540952Y-97226380D02*
X74540952Y-96226380D01*
X74445714Y-96369238D01*
X74350476Y-96464476D01*
X74255238Y-96512095D01*
%TO.C,L2*%
X88733333Y-71953980D02*
X88257142Y-71953980D01*
X88257142Y-70953980D01*
X89019047Y-71049219D02*
X89066666Y-71001600D01*
X89161904Y-70953980D01*
X89400000Y-70953980D01*
X89495238Y-71001600D01*
X89542857Y-71049219D01*
X89590476Y-71144457D01*
X89590476Y-71239695D01*
X89542857Y-71382552D01*
X88971428Y-71953980D01*
X89590476Y-71953980D01*
%TO.C,L1*%
X88682533Y-97353980D02*
X88206342Y-97353980D01*
X88206342Y-96353980D01*
X89539676Y-97353980D02*
X88968247Y-97353980D01*
X89253961Y-97353980D02*
X89253961Y-96353980D01*
X89158723Y-96496838D01*
X89063485Y-96592076D01*
X88968247Y-96639695D01*
%TO.C,CC2*%
X79343333Y-71887142D02*
X79295714Y-71934761D01*
X79152857Y-71982380D01*
X79057619Y-71982380D01*
X78914761Y-71934761D01*
X78819523Y-71839523D01*
X78771904Y-71744285D01*
X78724285Y-71553809D01*
X78724285Y-71410952D01*
X78771904Y-71220476D01*
X78819523Y-71125238D01*
X78914761Y-71030000D01*
X79057619Y-70982380D01*
X79152857Y-70982380D01*
X79295714Y-71030000D01*
X79343333Y-71077619D01*
X80343333Y-71887142D02*
X80295714Y-71934761D01*
X80152857Y-71982380D01*
X80057619Y-71982380D01*
X79914761Y-71934761D01*
X79819523Y-71839523D01*
X79771904Y-71744285D01*
X79724285Y-71553809D01*
X79724285Y-71410952D01*
X79771904Y-71220476D01*
X79819523Y-71125238D01*
X79914761Y-71030000D01*
X80057619Y-70982380D01*
X80152857Y-70982380D01*
X80295714Y-71030000D01*
X80343333Y-71077619D01*
X80724285Y-71077619D02*
X80771904Y-71030000D01*
X80867142Y-70982380D01*
X81105238Y-70982380D01*
X81200476Y-71030000D01*
X81248095Y-71077619D01*
X81295714Y-71172857D01*
X81295714Y-71268095D01*
X81248095Y-71410952D01*
X80676666Y-71982380D01*
X81295714Y-71982380D01*
%TO.C,CC1*%
X79343333Y-97287142D02*
X79295714Y-97334761D01*
X79152857Y-97382380D01*
X79057619Y-97382380D01*
X78914761Y-97334761D01*
X78819523Y-97239523D01*
X78771904Y-97144285D01*
X78724285Y-96953809D01*
X78724285Y-96810952D01*
X78771904Y-96620476D01*
X78819523Y-96525238D01*
X78914761Y-96430000D01*
X79057619Y-96382380D01*
X79152857Y-96382380D01*
X79295714Y-96430000D01*
X79343333Y-96477619D01*
X80343333Y-97287142D02*
X80295714Y-97334761D01*
X80152857Y-97382380D01*
X80057619Y-97382380D01*
X79914761Y-97334761D01*
X79819523Y-97239523D01*
X79771904Y-97144285D01*
X79724285Y-96953809D01*
X79724285Y-96810952D01*
X79771904Y-96620476D01*
X79819523Y-96525238D01*
X79914761Y-96430000D01*
X80057619Y-96382380D01*
X80152857Y-96382380D01*
X80295714Y-96430000D01*
X80343333Y-96477619D01*
X81295714Y-97382380D02*
X80724285Y-97382380D01*
X81010000Y-97382380D02*
X81010000Y-96382380D01*
X80914761Y-96525238D01*
X80819523Y-96620476D01*
X80724285Y-96668095D01*
%TO.C,C4*%
X100208142Y-71032666D02*
X100255761Y-71080285D01*
X100303380Y-71223142D01*
X100303380Y-71318380D01*
X100255761Y-71461238D01*
X100160523Y-71556476D01*
X100065285Y-71604095D01*
X99874809Y-71651714D01*
X99731952Y-71651714D01*
X99541476Y-71604095D01*
X99446238Y-71556476D01*
X99351000Y-71461238D01*
X99303380Y-71318380D01*
X99303380Y-71223142D01*
X99351000Y-71080285D01*
X99398619Y-71032666D01*
X99636714Y-70175523D02*
X100303380Y-70175523D01*
X99255761Y-70413619D02*
X99970047Y-70651714D01*
X99970047Y-70032666D01*
%TO.C,C3*%
X87254142Y-71093666D02*
X87301761Y-71141285D01*
X87349380Y-71284142D01*
X87349380Y-71379380D01*
X87301761Y-71522238D01*
X87206523Y-71617476D01*
X87111285Y-71665095D01*
X86920809Y-71712714D01*
X86777952Y-71712714D01*
X86587476Y-71665095D01*
X86492238Y-71617476D01*
X86397000Y-71522238D01*
X86349380Y-71379380D01*
X86349380Y-71284142D01*
X86397000Y-71141285D01*
X86444619Y-71093666D01*
X86349380Y-70760333D02*
X86349380Y-70141285D01*
X86730333Y-70474619D01*
X86730333Y-70331761D01*
X86777952Y-70236523D01*
X86825571Y-70188904D01*
X86920809Y-70141285D01*
X87158904Y-70141285D01*
X87254142Y-70188904D01*
X87301761Y-70236523D01*
X87349380Y-70331761D01*
X87349380Y-70617476D01*
X87301761Y-70712714D01*
X87254142Y-70760333D01*
%TO.C,C2*%
X99700142Y-96432666D02*
X99747761Y-96480285D01*
X99795380Y-96623142D01*
X99795380Y-96718380D01*
X99747761Y-96861238D01*
X99652523Y-96956476D01*
X99557285Y-97004095D01*
X99366809Y-97051714D01*
X99223952Y-97051714D01*
X99033476Y-97004095D01*
X98938238Y-96956476D01*
X98843000Y-96861238D01*
X98795380Y-96718380D01*
X98795380Y-96623142D01*
X98843000Y-96480285D01*
X98890619Y-96432666D01*
X98890619Y-96051714D02*
X98843000Y-96004095D01*
X98795380Y-95908857D01*
X98795380Y-95670761D01*
X98843000Y-95575523D01*
X98890619Y-95527904D01*
X98985857Y-95480285D01*
X99081095Y-95480285D01*
X99223952Y-95527904D01*
X99795380Y-96099333D01*
X99795380Y-95480285D01*
%TO.C,C1*%
X87127142Y-96432666D02*
X87174761Y-96480285D01*
X87222380Y-96623142D01*
X87222380Y-96718380D01*
X87174761Y-96861238D01*
X87079523Y-96956476D01*
X86984285Y-97004095D01*
X86793809Y-97051714D01*
X86650952Y-97051714D01*
X86460476Y-97004095D01*
X86365238Y-96956476D01*
X86270000Y-96861238D01*
X86222380Y-96718380D01*
X86222380Y-96623142D01*
X86270000Y-96480285D01*
X86317619Y-96432666D01*
X87222380Y-95480285D02*
X87222380Y-96051714D01*
X87222380Y-95766000D02*
X86222380Y-95766000D01*
X86365238Y-95861238D01*
X86460476Y-95956476D01*
X86508095Y-96051714D01*
%TD*%
M02*
