%TF.GenerationSoftware,KiCad,Pcbnew,(5.1.9)-1*%
%TF.CreationDate,2021-02-07T20:20:06-05:00*%
%TF.ProjectId,BalunAndLowPass,42616c75-6e41-46e6-944c-6f7750617373,rev?*%
%TF.SameCoordinates,Original*%
%TF.FileFunction,Copper,L1,Top*%
%TF.FilePolarity,Positive*%
%FSLAX46Y46*%
G04 Gerber Fmt 4.6, Leading zero omitted, Abs format (unit mm)*
G04 Created by KiCad (PCBNEW (5.1.9)-1) date 2021-02-07 20:20:06*
%MOMM*%
%LPD*%
G01*
G04 APERTURE LIST*
%TA.AperFunction,SMDPad,CuDef*%
%ADD10R,1.400000X0.760000*%
%TD*%
%TA.AperFunction,SMDPad,CuDef*%
%ADD11R,4.200000X1.350000*%
%TD*%
%TA.AperFunction,SMDPad,CuDef*%
%ADD12R,3.600000X1.270000*%
%TD*%
%TA.AperFunction,ViaPad*%
%ADD13C,0.800000*%
%TD*%
%TA.AperFunction,Conductor*%
%ADD14C,1.000000*%
%TD*%
%TA.AperFunction,Conductor*%
%ADD15C,0.254000*%
%TD*%
%TA.AperFunction,Conductor*%
%ADD16C,0.100000*%
%TD*%
G04 APERTURE END LIST*
D10*
%TO.P,TR2,5*%
%TO.N,/Q+*%
X71945000Y-69850000D03*
%TO.P,TR2,4*%
%TO.N,GND*%
X71945000Y-68580000D03*
%TO.P,TR2,3*%
%TO.N,/Q-*%
X71945000Y-67310000D03*
%TO.P,TR2,2*%
%TO.N,GND*%
X75375000Y-67310000D03*
%TO.P,TR2,1*%
%TO.N,Net-(CC2-Pad2)*%
X75375000Y-69850000D03*
%TD*%
%TO.P,TR1,5*%
%TO.N,/I+*%
X71945000Y-95250000D03*
%TO.P,TR1,4*%
%TO.N,GND*%
X71945000Y-93980000D03*
%TO.P,TR1,3*%
%TO.N,/I-*%
X71945000Y-92710000D03*
%TO.P,TR1,2*%
%TO.N,GND*%
X75375000Y-92710000D03*
%TO.P,TR1,1*%
%TO.N,Net-(CC1-Pad2)*%
X75375000Y-95250000D03*
%TD*%
%TO.P,L2,2*%
%TO.N,/Q_Single_Ended*%
%TA.AperFunction,SMDPad,CuDef*%
G36*
G01*
X90815000Y-69468750D02*
X90815000Y-70231250D01*
G75*
G02*
X90596250Y-70450000I-218750J0D01*
G01*
X90158750Y-70450000D01*
G75*
G02*
X89940000Y-70231250I0J218750D01*
G01*
X89940000Y-69468750D01*
G75*
G02*
X90158750Y-69250000I218750J0D01*
G01*
X90596250Y-69250000D01*
G75*
G02*
X90815000Y-69468750I0J-218750D01*
G01*
G37*
%TD.AperFunction*%
%TO.P,L2,1*%
%TO.N,/Q_Filtered*%
%TA.AperFunction,SMDPad,CuDef*%
G36*
G01*
X92940000Y-69468750D02*
X92940000Y-70231250D01*
G75*
G02*
X92721250Y-70450000I-218750J0D01*
G01*
X92283750Y-70450000D01*
G75*
G02*
X92065000Y-70231250I0J218750D01*
G01*
X92065000Y-69468750D01*
G75*
G02*
X92283750Y-69250000I218750J0D01*
G01*
X92721250Y-69250000D01*
G75*
G02*
X92940000Y-69468750I0J-218750D01*
G01*
G37*
%TD.AperFunction*%
%TD*%
%TO.P,L1,2*%
%TO.N,/I_Single_Ended*%
%TA.AperFunction,SMDPad,CuDef*%
G36*
G01*
X90815000Y-94868750D02*
X90815000Y-95631250D01*
G75*
G02*
X90596250Y-95850000I-218750J0D01*
G01*
X90158750Y-95850000D01*
G75*
G02*
X89940000Y-95631250I0J218750D01*
G01*
X89940000Y-94868750D01*
G75*
G02*
X90158750Y-94650000I218750J0D01*
G01*
X90596250Y-94650000D01*
G75*
G02*
X90815000Y-94868750I0J-218750D01*
G01*
G37*
%TD.AperFunction*%
%TO.P,L1,1*%
%TO.N,/I_Filtered*%
%TA.AperFunction,SMDPad,CuDef*%
G36*
G01*
X92940000Y-94868750D02*
X92940000Y-95631250D01*
G75*
G02*
X92721250Y-95850000I-218750J0D01*
G01*
X92283750Y-95850000D01*
G75*
G02*
X92065000Y-95631250I0J218750D01*
G01*
X92065000Y-94868750D01*
G75*
G02*
X92283750Y-94650000I218750J0D01*
G01*
X92721250Y-94650000D01*
G75*
G02*
X92940000Y-94868750I0J-218750D01*
G01*
G37*
%TD.AperFunction*%
%TD*%
D11*
%TO.P,J6,3_1*%
%TO.N,GND*%
X104575000Y-92552000D03*
%TO.P,J6,2_1*%
X104575000Y-98202000D03*
D12*
%TO.P,J6,1*%
%TO.N,/I_Filtered*%
X104775000Y-95377000D03*
%TD*%
D11*
%TO.P,J5,3_1*%
%TO.N,GND*%
X104575000Y-67152000D03*
%TO.P,J5,2_1*%
X104575000Y-72802000D03*
D12*
%TO.P,J5,1*%
%TO.N,/Q_Filtered*%
X104775000Y-69977000D03*
%TD*%
D11*
%TO.P,J4,3_1*%
%TO.N,GND*%
X52905000Y-90455000D03*
%TO.P,J4,2_1*%
X52905000Y-84805000D03*
D12*
%TO.P,J4,1*%
%TO.N,/I-*%
X52705000Y-87630000D03*
%TD*%
D11*
%TO.P,J3,3_1*%
%TO.N,GND*%
X52905000Y-103155000D03*
%TO.P,J3,2_1*%
X52905000Y-97505000D03*
D12*
%TO.P,J3,1*%
%TO.N,/I+*%
X52705000Y-100330000D03*
%TD*%
D11*
%TO.P,J2,3_1*%
%TO.N,GND*%
X52905000Y-65055000D03*
%TO.P,J2,2_1*%
X52905000Y-59405000D03*
D12*
%TO.P,J2,1*%
%TO.N,/Q-*%
X52705000Y-62230000D03*
%TD*%
D11*
%TO.P,J1,3_1*%
%TO.N,GND*%
X52905000Y-77755000D03*
%TO.P,J1,2_1*%
X52905000Y-72105000D03*
D12*
%TO.P,J1,1*%
%TO.N,/Q+*%
X52705000Y-74930000D03*
%TD*%
%TO.P,CC2,2*%
%TO.N,Net-(CC2-Pad2)*%
%TA.AperFunction,SMDPad,CuDef*%
G36*
G01*
X79560000Y-69375000D02*
X79560000Y-70325000D01*
G75*
G02*
X79310000Y-70575000I-250000J0D01*
G01*
X78810000Y-70575000D01*
G75*
G02*
X78560000Y-70325000I0J250000D01*
G01*
X78560000Y-69375000D01*
G75*
G02*
X78810000Y-69125000I250000J0D01*
G01*
X79310000Y-69125000D01*
G75*
G02*
X79560000Y-69375000I0J-250000D01*
G01*
G37*
%TD.AperFunction*%
%TO.P,CC2,1*%
%TO.N,/Q_Single_Ended*%
%TA.AperFunction,SMDPad,CuDef*%
G36*
G01*
X81460000Y-69375000D02*
X81460000Y-70325000D01*
G75*
G02*
X81210000Y-70575000I-250000J0D01*
G01*
X80710000Y-70575000D01*
G75*
G02*
X80460000Y-70325000I0J250000D01*
G01*
X80460000Y-69375000D01*
G75*
G02*
X80710000Y-69125000I250000J0D01*
G01*
X81210000Y-69125000D01*
G75*
G02*
X81460000Y-69375000I0J-250000D01*
G01*
G37*
%TD.AperFunction*%
%TD*%
%TO.P,CC1,2*%
%TO.N,Net-(CC1-Pad2)*%
%TA.AperFunction,SMDPad,CuDef*%
G36*
G01*
X79560000Y-94775000D02*
X79560000Y-95725000D01*
G75*
G02*
X79310000Y-95975000I-250000J0D01*
G01*
X78810000Y-95975000D01*
G75*
G02*
X78560000Y-95725000I0J250000D01*
G01*
X78560000Y-94775000D01*
G75*
G02*
X78810000Y-94525000I250000J0D01*
G01*
X79310000Y-94525000D01*
G75*
G02*
X79560000Y-94775000I0J-250000D01*
G01*
G37*
%TD.AperFunction*%
%TO.P,CC1,1*%
%TO.N,/I_Single_Ended*%
%TA.AperFunction,SMDPad,CuDef*%
G36*
G01*
X81460000Y-94775000D02*
X81460000Y-95725000D01*
G75*
G02*
X81210000Y-95975000I-250000J0D01*
G01*
X80710000Y-95975000D01*
G75*
G02*
X80460000Y-95725000I0J250000D01*
G01*
X80460000Y-94775000D01*
G75*
G02*
X80710000Y-94525000I250000J0D01*
G01*
X81210000Y-94525000D01*
G75*
G02*
X81460000Y-94775000I0J-250000D01*
G01*
G37*
%TD.AperFunction*%
%TD*%
%TO.P,C4,2*%
%TO.N,GND*%
%TA.AperFunction,SMDPad,CuDef*%
G36*
G01*
X97696000Y-71316000D02*
X98646000Y-71316000D01*
G75*
G02*
X98896000Y-71566000I0J-250000D01*
G01*
X98896000Y-72066000D01*
G75*
G02*
X98646000Y-72316000I-250000J0D01*
G01*
X97696000Y-72316000D01*
G75*
G02*
X97446000Y-72066000I0J250000D01*
G01*
X97446000Y-71566000D01*
G75*
G02*
X97696000Y-71316000I250000J0D01*
G01*
G37*
%TD.AperFunction*%
%TO.P,C4,1*%
%TO.N,/Q_Filtered*%
%TA.AperFunction,SMDPad,CuDef*%
G36*
G01*
X97696000Y-69416000D02*
X98646000Y-69416000D01*
G75*
G02*
X98896000Y-69666000I0J-250000D01*
G01*
X98896000Y-70166000D01*
G75*
G02*
X98646000Y-70416000I-250000J0D01*
G01*
X97696000Y-70416000D01*
G75*
G02*
X97446000Y-70166000I0J250000D01*
G01*
X97446000Y-69666000D01*
G75*
G02*
X97696000Y-69416000I250000J0D01*
G01*
G37*
%TD.AperFunction*%
%TD*%
%TO.P,C3,2*%
%TO.N,GND*%
%TA.AperFunction,SMDPad,CuDef*%
G36*
G01*
X84742000Y-71377000D02*
X85692000Y-71377000D01*
G75*
G02*
X85942000Y-71627000I0J-250000D01*
G01*
X85942000Y-72127000D01*
G75*
G02*
X85692000Y-72377000I-250000J0D01*
G01*
X84742000Y-72377000D01*
G75*
G02*
X84492000Y-72127000I0J250000D01*
G01*
X84492000Y-71627000D01*
G75*
G02*
X84742000Y-71377000I250000J0D01*
G01*
G37*
%TD.AperFunction*%
%TO.P,C3,1*%
%TO.N,/Q_Single_Ended*%
%TA.AperFunction,SMDPad,CuDef*%
G36*
G01*
X84742000Y-69477000D02*
X85692000Y-69477000D01*
G75*
G02*
X85942000Y-69727000I0J-250000D01*
G01*
X85942000Y-70227000D01*
G75*
G02*
X85692000Y-70477000I-250000J0D01*
G01*
X84742000Y-70477000D01*
G75*
G02*
X84492000Y-70227000I0J250000D01*
G01*
X84492000Y-69727000D01*
G75*
G02*
X84742000Y-69477000I250000J0D01*
G01*
G37*
%TD.AperFunction*%
%TD*%
%TO.P,C2,2*%
%TO.N,GND*%
%TA.AperFunction,SMDPad,CuDef*%
G36*
G01*
X97188000Y-96716000D02*
X98138000Y-96716000D01*
G75*
G02*
X98388000Y-96966000I0J-250000D01*
G01*
X98388000Y-97466000D01*
G75*
G02*
X98138000Y-97716000I-250000J0D01*
G01*
X97188000Y-97716000D01*
G75*
G02*
X96938000Y-97466000I0J250000D01*
G01*
X96938000Y-96966000D01*
G75*
G02*
X97188000Y-96716000I250000J0D01*
G01*
G37*
%TD.AperFunction*%
%TO.P,C2,1*%
%TO.N,/I_Filtered*%
%TA.AperFunction,SMDPad,CuDef*%
G36*
G01*
X97188000Y-94816000D02*
X98138000Y-94816000D01*
G75*
G02*
X98388000Y-95066000I0J-250000D01*
G01*
X98388000Y-95566000D01*
G75*
G02*
X98138000Y-95816000I-250000J0D01*
G01*
X97188000Y-95816000D01*
G75*
G02*
X96938000Y-95566000I0J250000D01*
G01*
X96938000Y-95066000D01*
G75*
G02*
X97188000Y-94816000I250000J0D01*
G01*
G37*
%TD.AperFunction*%
%TD*%
%TO.P,C1,2*%
%TO.N,GND*%
%TA.AperFunction,SMDPad,CuDef*%
G36*
G01*
X84615000Y-96716000D02*
X85565000Y-96716000D01*
G75*
G02*
X85815000Y-96966000I0J-250000D01*
G01*
X85815000Y-97466000D01*
G75*
G02*
X85565000Y-97716000I-250000J0D01*
G01*
X84615000Y-97716000D01*
G75*
G02*
X84365000Y-97466000I0J250000D01*
G01*
X84365000Y-96966000D01*
G75*
G02*
X84615000Y-96716000I250000J0D01*
G01*
G37*
%TD.AperFunction*%
%TO.P,C1,1*%
%TO.N,/I_Single_Ended*%
%TA.AperFunction,SMDPad,CuDef*%
G36*
G01*
X84615000Y-94816000D02*
X85565000Y-94816000D01*
G75*
G02*
X85815000Y-95066000I0J-250000D01*
G01*
X85815000Y-95566000D01*
G75*
G02*
X85565000Y-95816000I-250000J0D01*
G01*
X84615000Y-95816000D01*
G75*
G02*
X84365000Y-95566000I0J250000D01*
G01*
X84365000Y-95066000D01*
G75*
G02*
X84615000Y-94816000I250000J0D01*
G01*
G37*
%TD.AperFunction*%
%TD*%
D13*
%TO.N,GND*%
X52248550Y-55431876D03*
X52248550Y-67431876D03*
X52248550Y-80431876D03*
X52248550Y-93431876D03*
X52248550Y-105431876D03*
X53248550Y-69431876D03*
X53248550Y-82431876D03*
X54248550Y-56431876D03*
X54248550Y-94431876D03*
X54248550Y-106431876D03*
X55248550Y-67431876D03*
X55248550Y-80431876D03*
X56248550Y-55431876D03*
X56248550Y-69431876D03*
X56248550Y-82431876D03*
X56248550Y-93431876D03*
X56248550Y-105431876D03*
X57248550Y-57431876D03*
X57248550Y-60431876D03*
X57248550Y-66431876D03*
X57248550Y-76431876D03*
X57248550Y-79431876D03*
X57248550Y-84431876D03*
X57248550Y-95431876D03*
X57248550Y-102431876D03*
X58248550Y-68431876D03*
X58248550Y-81431876D03*
X58248550Y-86431876D03*
X58248550Y-104431876D03*
X59248550Y-55431876D03*
X59248550Y-58431876D03*
X59248550Y-61431876D03*
X59248550Y-75431876D03*
X59248550Y-78431876D03*
X59248550Y-83431876D03*
X59248550Y-100431876D03*
X59248550Y-106431876D03*
X60248550Y-63431876D03*
X60248550Y-80431876D03*
X60248550Y-85431876D03*
X60248550Y-88431876D03*
X60248550Y-102431876D03*
X61248550Y-56431876D03*
X61248550Y-59431876D03*
X61248550Y-73431876D03*
X61248550Y-76431876D03*
X61248550Y-82431876D03*
X61248550Y-98431876D03*
X61248550Y-104431876D03*
X62248550Y-61431876D03*
X62248550Y-64431876D03*
X62248550Y-78431876D03*
X62248550Y-84431876D03*
X62248550Y-87431876D03*
X62248550Y-90431876D03*
X62248550Y-100431876D03*
X62248550Y-106431876D03*
X63248550Y-55431876D03*
X63248550Y-58431876D03*
X63248550Y-71431876D03*
X63248550Y-74431876D03*
X63248550Y-80431876D03*
X63248550Y-96431876D03*
X63248550Y-102431876D03*
X64248550Y-60431876D03*
X64248550Y-63431876D03*
X64248550Y-76431876D03*
X64248550Y-82431876D03*
X64248550Y-85431876D03*
X64248550Y-88431876D03*
X64248550Y-91431876D03*
X64248550Y-98431876D03*
X64248550Y-104431876D03*
X65248550Y-56431876D03*
X65248550Y-65431876D03*
X65248550Y-72431876D03*
X65248550Y-78431876D03*
X65248550Y-100431876D03*
X65248550Y-106431876D03*
X66248550Y-58431876D03*
X66248550Y-61431876D03*
X66248550Y-74431876D03*
X66248550Y-80431876D03*
X66248550Y-83431876D03*
X66248550Y-86431876D03*
X66248550Y-89431876D03*
X66248550Y-96431876D03*
X66248550Y-102431876D03*
X67248550Y-55431876D03*
X67248550Y-63431876D03*
X67248550Y-71431876D03*
X67248550Y-76431876D03*
X67248550Y-91431876D03*
X67248550Y-98431876D03*
X67248550Y-104431876D03*
X68248550Y-57431876D03*
X68248550Y-60431876D03*
X68248550Y-65431876D03*
X68248550Y-73431876D03*
X68248550Y-78431876D03*
X68248550Y-81431876D03*
X68248550Y-84431876D03*
X68248550Y-87431876D03*
X68248550Y-100431876D03*
X68248550Y-106431876D03*
X69248550Y-62431876D03*
X69248550Y-75431876D03*
X69248550Y-89431876D03*
X69248550Y-97431876D03*
X69248550Y-102431876D03*
X70248550Y-55431876D03*
X70248550Y-58431876D03*
X70248550Y-64431876D03*
X70248550Y-71431876D03*
X70248550Y-77431876D03*
X70248550Y-80431876D03*
X70248550Y-83431876D03*
X70248550Y-86431876D03*
X70248550Y-99431876D03*
X70248550Y-104431876D03*
X71248550Y-60431876D03*
X71248550Y-73431876D03*
X71248550Y-88431876D03*
X71248550Y-101431876D03*
X71248550Y-106431876D03*
X72248550Y-56431876D03*
X72248550Y-62431876D03*
X72248550Y-65431876D03*
X72248550Y-75431876D03*
X72248550Y-78431876D03*
X72248550Y-81431876D03*
X72248550Y-84431876D03*
X72248550Y-90431876D03*
X72248550Y-97431876D03*
X72248550Y-103431876D03*
X73248550Y-58431876D03*
X73248550Y-71431876D03*
X73248550Y-86431876D03*
X73248550Y-99431876D03*
X73248550Y-105431876D03*
X74248550Y-55431876D03*
X74248550Y-60431876D03*
X74248550Y-63431876D03*
X74248550Y-73431876D03*
X74248550Y-76431876D03*
X74248550Y-79431876D03*
X74248550Y-82431876D03*
X74248550Y-88431876D03*
X74248550Y-101431876D03*
X75248550Y-57431876D03*
X75248550Y-65431876D03*
X75248550Y-84431876D03*
X75248550Y-90431876D03*
X75248550Y-97431876D03*
X75248550Y-103431876D03*
X75248550Y-106431876D03*
X76248550Y-59431876D03*
X76248550Y-62431876D03*
X76248550Y-71431876D03*
X76248550Y-74431876D03*
X76248550Y-77431876D03*
X76248550Y-80431876D03*
X76248550Y-86431876D03*
X76248550Y-99431876D03*
X77248550Y-55431876D03*
X77248550Y-64431876D03*
X77248550Y-67431876D03*
X77248550Y-82431876D03*
X77248550Y-88431876D03*
X77248550Y-91431876D03*
X77248550Y-101431876D03*
X77248550Y-104431876D03*
X78248550Y-57431876D03*
X78248550Y-60431876D03*
X78248550Y-72431876D03*
X78248550Y-75431876D03*
X78248550Y-78431876D03*
X78248550Y-84431876D03*
X78248550Y-93431876D03*
X78248550Y-97431876D03*
X78248550Y-106431876D03*
X79248550Y-62431876D03*
X79248550Y-65431876D03*
X79248550Y-80431876D03*
X79248550Y-86431876D03*
X79248550Y-89431876D03*
X79248550Y-99431876D03*
X79248550Y-102431876D03*
X80248550Y-55431876D03*
X80248550Y-58431876D03*
X80248550Y-67431876D03*
X80248550Y-73431876D03*
X80248550Y-76431876D03*
X80248550Y-82431876D03*
X80248550Y-91431876D03*
X80248550Y-104431876D03*
X81248550Y-60431876D03*
X81248550Y-63431876D03*
X81248550Y-78431876D03*
X81248550Y-84431876D03*
X81248550Y-87431876D03*
X81248550Y-93431876D03*
X81248550Y-97431876D03*
X81248550Y-100431876D03*
X81248550Y-106431876D03*
X82248550Y-56431876D03*
X82248550Y-65431876D03*
X82248550Y-72431876D03*
X82248550Y-75431876D03*
X82248550Y-80431876D03*
X82248550Y-89431876D03*
X82248550Y-102431876D03*
X83248550Y-58431876D03*
X83248550Y-61431876D03*
X83248550Y-67431876D03*
X83248550Y-77431876D03*
X83248550Y-82431876D03*
X83248550Y-85431876D03*
X83248550Y-91431876D03*
X83248550Y-98431876D03*
X83248550Y-104431876D03*
X84248550Y-55431876D03*
X84248550Y-63431876D03*
X84248550Y-73431876D03*
X84248550Y-79431876D03*
X84248550Y-87431876D03*
X84248550Y-93431876D03*
X84248550Y-100431876D03*
X84248550Y-106431876D03*
X85248550Y-57431876D03*
X85248550Y-60431876D03*
X85248550Y-65431876D03*
X85248550Y-68431876D03*
X85248550Y-75431876D03*
X85248550Y-81431876D03*
X85248550Y-84431876D03*
X85248550Y-89431876D03*
X85248550Y-102431876D03*
X86248550Y-62431876D03*
X86248550Y-77431876D03*
X86248550Y-86431876D03*
X86248550Y-91431876D03*
X86248550Y-99431876D03*
X86248550Y-104431876D03*
X87248550Y-55431876D03*
X87248550Y-58431876D03*
X87248550Y-64431876D03*
X87248550Y-67431876D03*
X87248550Y-71431876D03*
X87248550Y-74431876D03*
X87248550Y-79431876D03*
X87248550Y-82431876D03*
X87248550Y-88431876D03*
X87248550Y-93431876D03*
X87248550Y-97431876D03*
X87248550Y-101431876D03*
X87248550Y-106431876D03*
X88248550Y-60431876D03*
X88248550Y-76431876D03*
X88248550Y-84431876D03*
X88248550Y-90431876D03*
X88248550Y-103431876D03*
X89248550Y-56431876D03*
X89248550Y-62431876D03*
X89248550Y-65431876D03*
X89248550Y-68431876D03*
X89248550Y-72431876D03*
X89248550Y-78431876D03*
X89248550Y-81431876D03*
X89248550Y-86431876D03*
X89248550Y-92431876D03*
X89248550Y-98431876D03*
X89248550Y-105431876D03*
X90248550Y-58431876D03*
X90248550Y-74431876D03*
X90248550Y-83431876D03*
X90248550Y-88431876D03*
X90248550Y-100431876D03*
X91248550Y-55431876D03*
X91248550Y-60431876D03*
X91248550Y-63431876D03*
X91248550Y-66431876D03*
X91248550Y-71431876D03*
X91248550Y-76431876D03*
X91248550Y-79431876D03*
X91248550Y-85431876D03*
X91248550Y-90431876D03*
X91248550Y-93431876D03*
X91248550Y-97431876D03*
X91248550Y-102431876D03*
X91248550Y-106431876D03*
X92248550Y-57431876D03*
X92248550Y-73431876D03*
X92248550Y-81431876D03*
X92248550Y-87431876D03*
X92248550Y-99431876D03*
X92248550Y-104431876D03*
X93248550Y-59431876D03*
X93248550Y-62431876D03*
X93248550Y-65431876D03*
X93248550Y-75431876D03*
X93248550Y-78431876D03*
X93248550Y-83431876D03*
X93248550Y-89431876D03*
X93248550Y-92431876D03*
X93248550Y-101431876D03*
X94248550Y-55431876D03*
X94248550Y-67431876D03*
X94248550Y-71431876D03*
X94248550Y-80431876D03*
X94248550Y-85431876D03*
X94248550Y-97431876D03*
X94248550Y-103431876D03*
X94248550Y-106431876D03*
X95248550Y-57431876D03*
X95248550Y-60431876D03*
X95248550Y-63431876D03*
X95248550Y-73431876D03*
X95248550Y-76431876D03*
X95248550Y-82431876D03*
X95248550Y-87431876D03*
X95248550Y-90431876D03*
X95248550Y-93431876D03*
X95248550Y-99431876D03*
X96248550Y-65431876D03*
X96248550Y-68431876D03*
X96248550Y-78431876D03*
X96248550Y-84431876D03*
X96248550Y-101431876D03*
X96248550Y-104431876D03*
X97248550Y-55431876D03*
X97248550Y-58431876D03*
X97248550Y-61431876D03*
X97248550Y-74431876D03*
X97248550Y-80431876D03*
X97248550Y-86431876D03*
X97248550Y-89431876D03*
X97248550Y-92431876D03*
X97248550Y-106431876D03*
X98248550Y-63431876D03*
X98248550Y-66431876D03*
X98248550Y-76431876D03*
X98248550Y-82431876D03*
X98248550Y-99431876D03*
X98248550Y-102431876D03*
X99248550Y-56431876D03*
X99248550Y-59431876D03*
X99248550Y-68431876D03*
X99248550Y-73431876D03*
X99248550Y-78431876D03*
X99248550Y-84431876D03*
X99248550Y-87431876D03*
X99248550Y-90431876D03*
X99248550Y-93431876D03*
X99248550Y-104431876D03*
X100248550Y-61431876D03*
X100248550Y-64431876D03*
X100248550Y-71431876D03*
X100248550Y-75431876D03*
X100248550Y-80431876D03*
X100248550Y-97431876D03*
X100248550Y-100431876D03*
X100248550Y-106431876D03*
X101248550Y-55431876D03*
X101248550Y-58431876D03*
X101248550Y-66431876D03*
X101248550Y-77431876D03*
X101248550Y-82431876D03*
X101248550Y-85431876D03*
X101248550Y-88431876D03*
X101248550Y-102431876D03*
X102248550Y-60431876D03*
X102248550Y-63431876D03*
X102248550Y-79431876D03*
X102248550Y-104431876D03*
X103248550Y-56431876D03*
X103248550Y-75431876D03*
X103248550Y-81431876D03*
X103248550Y-84431876D03*
X103248550Y-87431876D03*
X103248550Y-100431876D03*
X103248550Y-106431876D03*
X104248550Y-58431876D03*
X104248550Y-61431876D03*
X104248550Y-64431876D03*
X104248550Y-77431876D03*
X104248550Y-89431876D03*
X104248550Y-102431876D03*
X105248550Y-55431876D03*
X105248550Y-79431876D03*
X105248550Y-82431876D03*
X105248550Y-85431876D03*
X105248550Y-104431876D03*
%TD*%
D14*
%TO.N,/I_Single_Ended*%
X80960000Y-95250000D02*
X85090000Y-95250000D01*
X85090000Y-95316000D02*
X90358000Y-95316000D01*
X90358000Y-95316000D02*
X90419000Y-95377000D01*
%TO.N,/I_Filtered*%
X92502500Y-95250000D02*
X97790000Y-95250000D01*
X97663000Y-95316000D02*
X105217000Y-95316000D01*
X105217000Y-95316000D02*
X105278000Y-95377000D01*
%TO.N,/Q_Single_Ended*%
X80960000Y-69850000D02*
X85217000Y-69850000D01*
X85217000Y-69977000D02*
X90043000Y-69977000D01*
X90043000Y-69977000D02*
X90170000Y-69850000D01*
%TO.N,/Q_Filtered*%
X93518500Y-69850000D02*
X98298000Y-69850000D01*
X98171000Y-69916000D02*
X105725000Y-69916000D01*
X105725000Y-69916000D02*
X105791000Y-69850000D01*
X92502500Y-69850000D02*
X93518500Y-69850000D01*
%TO.N,Net-(CC1-Pad2)*%
X75375000Y-95250000D02*
X78740000Y-95250000D01*
%TO.N,Net-(CC2-Pad2)*%
X75375000Y-69850000D02*
X78994000Y-69850000D01*
%TO.N,/Q+*%
X56040001Y-74930000D02*
X61640001Y-69330000D01*
X53340000Y-74930000D02*
X56040001Y-74930000D01*
X61640001Y-69330000D02*
X68580000Y-69330000D01*
X68580000Y-69330000D02*
X69100000Y-69850000D01*
X69100000Y-69850000D02*
X72390000Y-69850000D01*
X52705000Y-74930000D02*
X52070000Y-74930000D01*
%TO.N,/Q-*%
X56040001Y-62230000D02*
X61640001Y-67830000D01*
X61640001Y-67830000D02*
X68580000Y-67830000D01*
X68580000Y-67830000D02*
X69100000Y-67310000D01*
X69100000Y-67310000D02*
X72390000Y-67310000D01*
X54610000Y-62230000D02*
X52070000Y-62230000D01*
X53340000Y-62230000D02*
X54610000Y-62230000D01*
X54610000Y-62230000D02*
X56040001Y-62230000D01*
X52070000Y-62230000D02*
X51525010Y-62230000D01*
%TO.N,/I+*%
X56040001Y-100330000D02*
X61640001Y-94730000D01*
X53340000Y-100330000D02*
X56040001Y-100330000D01*
X61640001Y-94730000D02*
X68580000Y-94730000D01*
X68580000Y-94730000D02*
X69100000Y-95250000D01*
X69100000Y-95250000D02*
X72390000Y-95250000D01*
X52705000Y-100330000D02*
X51525010Y-100330000D01*
%TO.N,/I-*%
X56040001Y-87630000D02*
X61640001Y-93230000D01*
X53340000Y-87630000D02*
X56040001Y-87630000D01*
X61640001Y-93230000D02*
X68580000Y-93230000D01*
X68580000Y-93230000D02*
X69100000Y-92710000D01*
X69100000Y-92710000D02*
X72390000Y-92710000D01*
X52705000Y-87630000D02*
X52070000Y-87630000D01*
X52070000Y-87630000D02*
X51525010Y-87630000D01*
%TD*%
D15*
%TO.N,GND*%
X105527869Y-54014722D02*
X105641246Y-54048953D01*
X105745819Y-54104555D01*
X105837596Y-54179407D01*
X105913091Y-54270664D01*
X105969419Y-54374844D01*
X106004440Y-54487976D01*
X106020000Y-54636022D01*
X106020000Y-65840037D01*
X104860750Y-65842000D01*
X104702000Y-66000750D01*
X104702000Y-67025000D01*
X104722000Y-67025000D01*
X104722000Y-67279000D01*
X104702000Y-67279000D01*
X104702000Y-68303250D01*
X104860750Y-68462000D01*
X106020000Y-68463963D01*
X106020000Y-68703928D01*
X102975000Y-68703928D01*
X102850518Y-68716188D01*
X102730820Y-68752498D01*
X102677497Y-68781000D01*
X98683931Y-68781000D01*
X98520499Y-68731423D01*
X98353752Y-68715000D01*
X93119954Y-68715000D01*
X93049142Y-68677150D01*
X92888408Y-68628392D01*
X92721250Y-68611928D01*
X92283750Y-68611928D01*
X92116592Y-68628392D01*
X91955858Y-68677150D01*
X91807725Y-68756329D01*
X91677885Y-68862885D01*
X91571329Y-68992725D01*
X91492150Y-69140858D01*
X91443392Y-69301592D01*
X91440000Y-69336031D01*
X91436608Y-69301592D01*
X91387850Y-69140858D01*
X91308671Y-68992725D01*
X91202115Y-68862885D01*
X91072275Y-68756329D01*
X90924142Y-68677150D01*
X90763408Y-68628392D01*
X90596250Y-68611928D01*
X90158750Y-68611928D01*
X89991592Y-68628392D01*
X89830858Y-68677150D01*
X89682725Y-68756329D01*
X89578334Y-68842000D01*
X85738901Y-68842000D01*
X85653447Y-68796324D01*
X85439499Y-68731423D01*
X85272752Y-68715000D01*
X81798923Y-68715000D01*
X81703386Y-68636595D01*
X81549850Y-68554528D01*
X81383254Y-68503992D01*
X81210000Y-68486928D01*
X80710000Y-68486928D01*
X80536746Y-68503992D01*
X80370150Y-68554528D01*
X80216614Y-68636595D01*
X80082038Y-68747038D01*
X80010000Y-68834817D01*
X79937962Y-68747038D01*
X79803386Y-68636595D01*
X79649850Y-68554528D01*
X79483254Y-68503992D01*
X79310000Y-68486928D01*
X78810000Y-68486928D01*
X78636746Y-68503992D01*
X78470150Y-68554528D01*
X78316614Y-68636595D01*
X78221077Y-68715000D01*
X75319248Y-68715000D01*
X75152501Y-68731423D01*
X74938553Y-68796324D01*
X74871942Y-68831928D01*
X74675000Y-68831928D01*
X74550518Y-68844188D01*
X74430820Y-68880498D01*
X74320506Y-68939463D01*
X74223815Y-69018815D01*
X74144463Y-69115506D01*
X74085498Y-69225820D01*
X74049188Y-69345518D01*
X74036928Y-69470000D01*
X74036928Y-70230000D01*
X74049188Y-70354482D01*
X74085498Y-70474180D01*
X74144463Y-70584494D01*
X74223815Y-70681185D01*
X74320506Y-70760537D01*
X74430820Y-70819502D01*
X74550518Y-70855812D01*
X74675000Y-70868072D01*
X74871942Y-70868072D01*
X74938553Y-70903676D01*
X75152501Y-70968577D01*
X75319248Y-70985000D01*
X78221077Y-70985000D01*
X78316614Y-71063405D01*
X78470150Y-71145472D01*
X78636746Y-71196008D01*
X78810000Y-71213072D01*
X79310000Y-71213072D01*
X79483254Y-71196008D01*
X79649850Y-71145472D01*
X79803386Y-71063405D01*
X79937962Y-70952962D01*
X80010000Y-70865183D01*
X80082038Y-70952962D01*
X80216614Y-71063405D01*
X80370150Y-71145472D01*
X80536746Y-71196008D01*
X80710000Y-71213072D01*
X81210000Y-71213072D01*
X81383254Y-71196008D01*
X81549850Y-71145472D01*
X81703386Y-71063405D01*
X81798923Y-70985000D01*
X83992243Y-70985000D01*
X83961463Y-71022506D01*
X83902498Y-71132820D01*
X83866188Y-71252518D01*
X83853928Y-71377000D01*
X83857000Y-71591250D01*
X84015750Y-71750000D01*
X85090000Y-71750000D01*
X85090000Y-71730000D01*
X85344000Y-71730000D01*
X85344000Y-71750000D01*
X86418250Y-71750000D01*
X86577000Y-71591250D01*
X86580072Y-71377000D01*
X86567812Y-71252518D01*
X86531502Y-71132820D01*
X86520373Y-71112000D01*
X89987249Y-71112000D01*
X90043000Y-71117491D01*
X90098751Y-71112000D01*
X90098752Y-71112000D01*
X90265499Y-71095577D01*
X90290239Y-71088072D01*
X90596250Y-71088072D01*
X90763408Y-71071608D01*
X90924142Y-71022850D01*
X91072275Y-70943671D01*
X91202115Y-70837115D01*
X91308671Y-70707275D01*
X91387850Y-70559142D01*
X91436608Y-70398408D01*
X91440000Y-70363969D01*
X91443392Y-70398408D01*
X91492150Y-70559142D01*
X91571329Y-70707275D01*
X91677885Y-70837115D01*
X91807725Y-70943671D01*
X91955858Y-71022850D01*
X92116592Y-71071608D01*
X92283750Y-71088072D01*
X92721250Y-71088072D01*
X92888408Y-71071608D01*
X93049142Y-71022850D01*
X93119954Y-70985000D01*
X96902905Y-70985000D01*
X96856498Y-71071820D01*
X96820188Y-71191518D01*
X96807928Y-71316000D01*
X96811000Y-71530250D01*
X96969750Y-71689000D01*
X98044000Y-71689000D01*
X98044000Y-71669000D01*
X98298000Y-71669000D01*
X98298000Y-71689000D01*
X99372250Y-71689000D01*
X99531000Y-71530250D01*
X99534072Y-71316000D01*
X99521812Y-71191518D01*
X99485502Y-71071820D01*
X99474373Y-71051000D01*
X102513815Y-71051000D01*
X102523815Y-71063185D01*
X102620506Y-71142537D01*
X102730820Y-71201502D01*
X102850518Y-71237812D01*
X102975000Y-71250072D01*
X106020000Y-71250072D01*
X106020000Y-71490037D01*
X104860750Y-71492000D01*
X104702000Y-71650750D01*
X104702000Y-72675000D01*
X104722000Y-72675000D01*
X104722000Y-72929000D01*
X104702000Y-72929000D01*
X104702000Y-73953250D01*
X104860750Y-74112000D01*
X106020000Y-74113963D01*
X106020001Y-91240037D01*
X104860750Y-91242000D01*
X104702000Y-91400750D01*
X104702000Y-92425000D01*
X104722000Y-92425000D01*
X104722000Y-92679000D01*
X104702000Y-92679000D01*
X104702000Y-93703250D01*
X104860750Y-93862000D01*
X106020001Y-93863963D01*
X106020001Y-94103928D01*
X102975000Y-94103928D01*
X102850518Y-94116188D01*
X102730820Y-94152498D01*
X102677497Y-94181000D01*
X98175931Y-94181000D01*
X98012499Y-94131423D01*
X97845752Y-94115000D01*
X93119954Y-94115000D01*
X93049142Y-94077150D01*
X92888408Y-94028392D01*
X92721250Y-94011928D01*
X92283750Y-94011928D01*
X92116592Y-94028392D01*
X91955858Y-94077150D01*
X91807725Y-94156329D01*
X91677885Y-94262885D01*
X91571329Y-94392725D01*
X91492150Y-94540858D01*
X91443392Y-94701592D01*
X91440000Y-94736031D01*
X91436608Y-94701592D01*
X91387850Y-94540858D01*
X91308671Y-94392725D01*
X91202115Y-94262885D01*
X91072275Y-94156329D01*
X90924142Y-94077150D01*
X90763408Y-94028392D01*
X90596250Y-94011928D01*
X90158750Y-94011928D01*
X89991592Y-94028392D01*
X89830858Y-94077150D01*
X89682725Y-94156329D01*
X89652663Y-94181000D01*
X85596191Y-94181000D01*
X85565000Y-94177928D01*
X85465804Y-94177928D01*
X85312499Y-94131423D01*
X85145752Y-94115000D01*
X81798923Y-94115000D01*
X81703386Y-94036595D01*
X81549850Y-93954528D01*
X81383254Y-93903992D01*
X81210000Y-93886928D01*
X80710000Y-93886928D01*
X80536746Y-93903992D01*
X80370150Y-93954528D01*
X80216614Y-94036595D01*
X80082038Y-94147038D01*
X80010000Y-94234817D01*
X79937962Y-94147038D01*
X79803386Y-94036595D01*
X79649850Y-93954528D01*
X79483254Y-93903992D01*
X79310000Y-93886928D01*
X78810000Y-93886928D01*
X78636746Y-93903992D01*
X78470150Y-93954528D01*
X78316614Y-94036595D01*
X78221077Y-94115000D01*
X75319248Y-94115000D01*
X75152501Y-94131423D01*
X74938553Y-94196324D01*
X74871942Y-94231928D01*
X74675000Y-94231928D01*
X74550518Y-94244188D01*
X74430820Y-94280498D01*
X74320506Y-94339463D01*
X74223815Y-94418815D01*
X74144463Y-94515506D01*
X74085498Y-94625820D01*
X74049188Y-94745518D01*
X74036928Y-94870000D01*
X74036928Y-95630000D01*
X74049188Y-95754482D01*
X74085498Y-95874180D01*
X74144463Y-95984494D01*
X74223815Y-96081185D01*
X74320506Y-96160537D01*
X74430820Y-96219502D01*
X74550518Y-96255812D01*
X74675000Y-96268072D01*
X74871942Y-96268072D01*
X74938553Y-96303676D01*
X75152501Y-96368577D01*
X75319248Y-96385000D01*
X78221077Y-96385000D01*
X78316614Y-96463405D01*
X78470150Y-96545472D01*
X78636746Y-96596008D01*
X78810000Y-96613072D01*
X79310000Y-96613072D01*
X79483254Y-96596008D01*
X79649850Y-96545472D01*
X79803386Y-96463405D01*
X79937962Y-96352962D01*
X80010000Y-96265183D01*
X80082038Y-96352962D01*
X80216614Y-96463405D01*
X80370150Y-96545472D01*
X80536746Y-96596008D01*
X80710000Y-96613072D01*
X81210000Y-96613072D01*
X81383254Y-96596008D01*
X81549850Y-96545472D01*
X81703386Y-96463405D01*
X81798923Y-96385000D01*
X83821905Y-96385000D01*
X83775498Y-96471820D01*
X83739188Y-96591518D01*
X83726928Y-96716000D01*
X83730000Y-96930250D01*
X83888750Y-97089000D01*
X84963000Y-97089000D01*
X84963000Y-97069000D01*
X85217000Y-97069000D01*
X85217000Y-97089000D01*
X86291250Y-97089000D01*
X86450000Y-96930250D01*
X86453072Y-96716000D01*
X86440812Y-96591518D01*
X86404502Y-96471820D01*
X86393373Y-96451000D01*
X89923656Y-96451000D01*
X89991592Y-96471608D01*
X90158750Y-96488072D01*
X90171762Y-96488072D01*
X90196502Y-96495577D01*
X90418999Y-96517491D01*
X90641498Y-96495577D01*
X90699889Y-96477864D01*
X90763408Y-96471608D01*
X90924142Y-96422850D01*
X91072275Y-96343671D01*
X91202115Y-96237115D01*
X91308671Y-96107275D01*
X91347352Y-96034907D01*
X91367283Y-96010622D01*
X91456904Y-95842953D01*
X91492150Y-95959142D01*
X91571329Y-96107275D01*
X91677885Y-96237115D01*
X91807725Y-96343671D01*
X91955858Y-96422850D01*
X92116592Y-96471608D01*
X92283750Y-96488072D01*
X92721250Y-96488072D01*
X92888408Y-96471608D01*
X93049142Y-96422850D01*
X93119954Y-96385000D01*
X96394905Y-96385000D01*
X96348498Y-96471820D01*
X96312188Y-96591518D01*
X96299928Y-96716000D01*
X96303000Y-96930250D01*
X96461750Y-97089000D01*
X97536000Y-97089000D01*
X97536000Y-97069000D01*
X97790000Y-97069000D01*
X97790000Y-97089000D01*
X98864250Y-97089000D01*
X99023000Y-96930250D01*
X99026072Y-96716000D01*
X99013812Y-96591518D01*
X98977502Y-96471820D01*
X98966373Y-96451000D01*
X102513815Y-96451000D01*
X102523815Y-96463185D01*
X102620506Y-96542537D01*
X102730820Y-96601502D01*
X102850518Y-96637812D01*
X102975000Y-96650072D01*
X106020001Y-96650072D01*
X106020001Y-96890037D01*
X104860750Y-96892000D01*
X104702000Y-97050750D01*
X104702000Y-98075000D01*
X104722000Y-98075000D01*
X104722000Y-98329000D01*
X104702000Y-98329000D01*
X104702000Y-99353250D01*
X104860750Y-99512000D01*
X106020001Y-99513963D01*
X106020001Y-106647711D01*
X106005278Y-106797869D01*
X105971047Y-106911246D01*
X105915446Y-107015817D01*
X105840594Y-107107595D01*
X105749335Y-107183091D01*
X105645160Y-107239419D01*
X105532024Y-107274440D01*
X105383979Y-107290000D01*
X52102279Y-107290000D01*
X51952131Y-107275278D01*
X51838754Y-107241047D01*
X51734183Y-107185446D01*
X51642405Y-107110594D01*
X51566909Y-107019335D01*
X51510581Y-106915160D01*
X51475560Y-106802024D01*
X51460000Y-106653979D01*
X51460000Y-104466963D01*
X52619250Y-104465000D01*
X52778000Y-104306250D01*
X52778000Y-103282000D01*
X53032000Y-103282000D01*
X53032000Y-104306250D01*
X53190750Y-104465000D01*
X55005000Y-104468072D01*
X55129482Y-104455812D01*
X55249180Y-104419502D01*
X55359494Y-104360537D01*
X55456185Y-104281185D01*
X55535537Y-104184494D01*
X55594502Y-104074180D01*
X55630812Y-103954482D01*
X55643072Y-103830000D01*
X55640000Y-103440750D01*
X55481250Y-103282000D01*
X53032000Y-103282000D01*
X52778000Y-103282000D01*
X52758000Y-103282000D01*
X52758000Y-103028000D01*
X52778000Y-103028000D01*
X52778000Y-102003750D01*
X53032000Y-102003750D01*
X53032000Y-103028000D01*
X55481250Y-103028000D01*
X55640000Y-102869250D01*
X55643072Y-102480000D01*
X55630812Y-102355518D01*
X55594502Y-102235820D01*
X55535537Y-102125506D01*
X55456185Y-102028815D01*
X55359494Y-101949463D01*
X55249180Y-101890498D01*
X55129482Y-101854188D01*
X55005000Y-101841928D01*
X53190750Y-101845000D01*
X53032000Y-102003750D01*
X52778000Y-102003750D01*
X52619250Y-101845000D01*
X51460000Y-101843037D01*
X51460000Y-101603072D01*
X54505000Y-101603072D01*
X54629482Y-101590812D01*
X54749180Y-101554502D01*
X54859494Y-101495537D01*
X54896704Y-101465000D01*
X55984250Y-101465000D01*
X56040001Y-101470491D01*
X56095752Y-101465000D01*
X56095753Y-101465000D01*
X56262500Y-101448577D01*
X56476448Y-101383676D01*
X56673624Y-101278284D01*
X56846450Y-101136449D01*
X56881997Y-101093135D01*
X59098132Y-98877000D01*
X101836928Y-98877000D01*
X101849188Y-99001482D01*
X101885498Y-99121180D01*
X101944463Y-99231494D01*
X102023815Y-99328185D01*
X102120506Y-99407537D01*
X102230820Y-99466502D01*
X102350518Y-99502812D01*
X102475000Y-99515072D01*
X104289250Y-99512000D01*
X104448000Y-99353250D01*
X104448000Y-98329000D01*
X101998750Y-98329000D01*
X101840000Y-98487750D01*
X101836928Y-98877000D01*
X59098132Y-98877000D01*
X60259132Y-97716000D01*
X83726928Y-97716000D01*
X83739188Y-97840482D01*
X83775498Y-97960180D01*
X83834463Y-98070494D01*
X83913815Y-98167185D01*
X84010506Y-98246537D01*
X84120820Y-98305502D01*
X84240518Y-98341812D01*
X84365000Y-98354072D01*
X84804250Y-98351000D01*
X84963000Y-98192250D01*
X84963000Y-97343000D01*
X85217000Y-97343000D01*
X85217000Y-98192250D01*
X85375750Y-98351000D01*
X85815000Y-98354072D01*
X85939482Y-98341812D01*
X86059180Y-98305502D01*
X86169494Y-98246537D01*
X86266185Y-98167185D01*
X86345537Y-98070494D01*
X86404502Y-97960180D01*
X86440812Y-97840482D01*
X86453072Y-97716000D01*
X96299928Y-97716000D01*
X96312188Y-97840482D01*
X96348498Y-97960180D01*
X96407463Y-98070494D01*
X96486815Y-98167185D01*
X96583506Y-98246537D01*
X96693820Y-98305502D01*
X96813518Y-98341812D01*
X96938000Y-98354072D01*
X97377250Y-98351000D01*
X97536000Y-98192250D01*
X97536000Y-97343000D01*
X97790000Y-97343000D01*
X97790000Y-98192250D01*
X97948750Y-98351000D01*
X98388000Y-98354072D01*
X98512482Y-98341812D01*
X98632180Y-98305502D01*
X98742494Y-98246537D01*
X98839185Y-98167185D01*
X98918537Y-98070494D01*
X98977502Y-97960180D01*
X99013812Y-97840482D01*
X99026072Y-97716000D01*
X99023363Y-97527000D01*
X101836928Y-97527000D01*
X101840000Y-97916250D01*
X101998750Y-98075000D01*
X104448000Y-98075000D01*
X104448000Y-97050750D01*
X104289250Y-96892000D01*
X102475000Y-96888928D01*
X102350518Y-96901188D01*
X102230820Y-96937498D01*
X102120506Y-96996463D01*
X102023815Y-97075815D01*
X101944463Y-97172506D01*
X101885498Y-97282820D01*
X101849188Y-97402518D01*
X101836928Y-97527000D01*
X99023363Y-97527000D01*
X99023000Y-97501750D01*
X98864250Y-97343000D01*
X97790000Y-97343000D01*
X97536000Y-97343000D01*
X96461750Y-97343000D01*
X96303000Y-97501750D01*
X96299928Y-97716000D01*
X86453072Y-97716000D01*
X86450000Y-97501750D01*
X86291250Y-97343000D01*
X85217000Y-97343000D01*
X84963000Y-97343000D01*
X83888750Y-97343000D01*
X83730000Y-97501750D01*
X83726928Y-97716000D01*
X60259132Y-97716000D01*
X62110133Y-95865000D01*
X68109869Y-95865000D01*
X68258004Y-96013135D01*
X68293551Y-96056449D01*
X68466377Y-96198284D01*
X68655671Y-96299463D01*
X68663553Y-96303676D01*
X68877501Y-96368577D01*
X69099999Y-96390491D01*
X69155751Y-96385000D01*
X72445752Y-96385000D01*
X72612499Y-96368577D01*
X72826447Y-96303676D01*
X73023623Y-96198284D01*
X73196449Y-96056449D01*
X73338284Y-95883623D01*
X73443676Y-95686447D01*
X73508577Y-95472499D01*
X73530491Y-95250000D01*
X73508577Y-95027501D01*
X73443676Y-94813553D01*
X73338284Y-94616377D01*
X73259809Y-94520755D01*
X73270812Y-94484482D01*
X73283072Y-94360000D01*
X73280000Y-94265750D01*
X73121250Y-94107000D01*
X72072000Y-94107000D01*
X72072000Y-94115000D01*
X71818000Y-94115000D01*
X71818000Y-94107000D01*
X70768750Y-94107000D01*
X70760750Y-94115000D01*
X69570131Y-94115000D01*
X69435131Y-93980000D01*
X69570131Y-93845000D01*
X70760750Y-93845000D01*
X70768750Y-93853000D01*
X71818000Y-93853000D01*
X71818000Y-93845000D01*
X72072000Y-93845000D01*
X72072000Y-93853000D01*
X73121250Y-93853000D01*
X73280000Y-93694250D01*
X73283072Y-93600000D01*
X73270812Y-93475518D01*
X73259809Y-93439245D01*
X73338284Y-93343623D01*
X73443676Y-93146447D01*
X73460799Y-93090000D01*
X74036928Y-93090000D01*
X74049188Y-93214482D01*
X74085498Y-93334180D01*
X74144463Y-93444494D01*
X74223815Y-93541185D01*
X74320506Y-93620537D01*
X74430820Y-93679502D01*
X74550518Y-93715812D01*
X74675000Y-93728072D01*
X75089250Y-93725000D01*
X75248000Y-93566250D01*
X75248000Y-92837000D01*
X75502000Y-92837000D01*
X75502000Y-93566250D01*
X75660750Y-93725000D01*
X76075000Y-93728072D01*
X76199482Y-93715812D01*
X76319180Y-93679502D01*
X76429494Y-93620537D01*
X76526185Y-93541185D01*
X76605537Y-93444494D01*
X76664502Y-93334180D01*
X76697014Y-93227000D01*
X101836928Y-93227000D01*
X101849188Y-93351482D01*
X101885498Y-93471180D01*
X101944463Y-93581494D01*
X102023815Y-93678185D01*
X102120506Y-93757537D01*
X102230820Y-93816502D01*
X102350518Y-93852812D01*
X102475000Y-93865072D01*
X104289250Y-93862000D01*
X104448000Y-93703250D01*
X104448000Y-92679000D01*
X101998750Y-92679000D01*
X101840000Y-92837750D01*
X101836928Y-93227000D01*
X76697014Y-93227000D01*
X76700812Y-93214482D01*
X76713072Y-93090000D01*
X76710000Y-92995750D01*
X76551250Y-92837000D01*
X75502000Y-92837000D01*
X75248000Y-92837000D01*
X74198750Y-92837000D01*
X74040000Y-92995750D01*
X74036928Y-93090000D01*
X73460799Y-93090000D01*
X73508577Y-92932499D01*
X73530491Y-92710000D01*
X73508577Y-92487501D01*
X73460800Y-92330000D01*
X74036928Y-92330000D01*
X74040000Y-92424250D01*
X74198750Y-92583000D01*
X75248000Y-92583000D01*
X75248000Y-91853750D01*
X75502000Y-91853750D01*
X75502000Y-92583000D01*
X76551250Y-92583000D01*
X76710000Y-92424250D01*
X76713072Y-92330000D01*
X76700812Y-92205518D01*
X76664502Y-92085820D01*
X76605537Y-91975506D01*
X76526185Y-91878815D01*
X76523974Y-91877000D01*
X101836928Y-91877000D01*
X101840000Y-92266250D01*
X101998750Y-92425000D01*
X104448000Y-92425000D01*
X104448000Y-91400750D01*
X104289250Y-91242000D01*
X102475000Y-91238928D01*
X102350518Y-91251188D01*
X102230820Y-91287498D01*
X102120506Y-91346463D01*
X102023815Y-91425815D01*
X101944463Y-91522506D01*
X101885498Y-91632820D01*
X101849188Y-91752518D01*
X101836928Y-91877000D01*
X76523974Y-91877000D01*
X76429494Y-91799463D01*
X76319180Y-91740498D01*
X76199482Y-91704188D01*
X76075000Y-91691928D01*
X75660750Y-91695000D01*
X75502000Y-91853750D01*
X75248000Y-91853750D01*
X75089250Y-91695000D01*
X74675000Y-91691928D01*
X74550518Y-91704188D01*
X74430820Y-91740498D01*
X74320506Y-91799463D01*
X74223815Y-91878815D01*
X74144463Y-91975506D01*
X74085498Y-92085820D01*
X74049188Y-92205518D01*
X74036928Y-92330000D01*
X73460800Y-92330000D01*
X73443676Y-92273553D01*
X73338284Y-92076377D01*
X73196449Y-91903551D01*
X73023623Y-91761716D01*
X72826447Y-91656324D01*
X72612499Y-91591423D01*
X72445752Y-91575000D01*
X69155751Y-91575000D01*
X69099999Y-91569509D01*
X69044248Y-91575000D01*
X68877501Y-91591423D01*
X68663553Y-91656324D01*
X68466377Y-91761716D01*
X68293551Y-91903551D01*
X68258004Y-91946865D01*
X68109869Y-92095000D01*
X62110133Y-92095000D01*
X56881997Y-86866865D01*
X56846450Y-86823551D01*
X56673624Y-86681716D01*
X56476448Y-86576324D01*
X56262500Y-86511423D01*
X56095753Y-86495000D01*
X56095752Y-86495000D01*
X56040001Y-86489509D01*
X55984250Y-86495000D01*
X54896704Y-86495000D01*
X54859494Y-86464463D01*
X54749180Y-86405498D01*
X54629482Y-86369188D01*
X54505000Y-86356928D01*
X51460000Y-86356928D01*
X51460000Y-86116963D01*
X52619250Y-86115000D01*
X52778000Y-85956250D01*
X52778000Y-84932000D01*
X53032000Y-84932000D01*
X53032000Y-85956250D01*
X53190750Y-86115000D01*
X55005000Y-86118072D01*
X55129482Y-86105812D01*
X55249180Y-86069502D01*
X55359494Y-86010537D01*
X55456185Y-85931185D01*
X55535537Y-85834494D01*
X55594502Y-85724180D01*
X55630812Y-85604482D01*
X55643072Y-85480000D01*
X55640000Y-85090750D01*
X55481250Y-84932000D01*
X53032000Y-84932000D01*
X52778000Y-84932000D01*
X52758000Y-84932000D01*
X52758000Y-84678000D01*
X52778000Y-84678000D01*
X52778000Y-83653750D01*
X53032000Y-83653750D01*
X53032000Y-84678000D01*
X55481250Y-84678000D01*
X55640000Y-84519250D01*
X55643072Y-84130000D01*
X55630812Y-84005518D01*
X55594502Y-83885820D01*
X55535537Y-83775506D01*
X55456185Y-83678815D01*
X55359494Y-83599463D01*
X55249180Y-83540498D01*
X55129482Y-83504188D01*
X55005000Y-83491928D01*
X53190750Y-83495000D01*
X53032000Y-83653750D01*
X52778000Y-83653750D01*
X52619250Y-83495000D01*
X51460000Y-83493037D01*
X51460000Y-79066963D01*
X52619250Y-79065000D01*
X52778000Y-78906250D01*
X52778000Y-77882000D01*
X53032000Y-77882000D01*
X53032000Y-78906250D01*
X53190750Y-79065000D01*
X55005000Y-79068072D01*
X55129482Y-79055812D01*
X55249180Y-79019502D01*
X55359494Y-78960537D01*
X55456185Y-78881185D01*
X55535537Y-78784494D01*
X55594502Y-78674180D01*
X55630812Y-78554482D01*
X55643072Y-78430000D01*
X55640000Y-78040750D01*
X55481250Y-77882000D01*
X53032000Y-77882000D01*
X52778000Y-77882000D01*
X52758000Y-77882000D01*
X52758000Y-77628000D01*
X52778000Y-77628000D01*
X52778000Y-76603750D01*
X53032000Y-76603750D01*
X53032000Y-77628000D01*
X55481250Y-77628000D01*
X55640000Y-77469250D01*
X55643072Y-77080000D01*
X55630812Y-76955518D01*
X55594502Y-76835820D01*
X55535537Y-76725506D01*
X55456185Y-76628815D01*
X55359494Y-76549463D01*
X55249180Y-76490498D01*
X55129482Y-76454188D01*
X55005000Y-76441928D01*
X53190750Y-76445000D01*
X53032000Y-76603750D01*
X52778000Y-76603750D01*
X52619250Y-76445000D01*
X51460000Y-76443037D01*
X51460000Y-76203072D01*
X54505000Y-76203072D01*
X54629482Y-76190812D01*
X54749180Y-76154502D01*
X54859494Y-76095537D01*
X54896704Y-76065000D01*
X55984250Y-76065000D01*
X56040001Y-76070491D01*
X56095752Y-76065000D01*
X56095753Y-76065000D01*
X56262500Y-76048577D01*
X56476448Y-75983676D01*
X56673624Y-75878284D01*
X56846450Y-75736449D01*
X56881997Y-75693135D01*
X59098132Y-73477000D01*
X101836928Y-73477000D01*
X101849188Y-73601482D01*
X101885498Y-73721180D01*
X101944463Y-73831494D01*
X102023815Y-73928185D01*
X102120506Y-74007537D01*
X102230820Y-74066502D01*
X102350518Y-74102812D01*
X102475000Y-74115072D01*
X104289250Y-74112000D01*
X104448000Y-73953250D01*
X104448000Y-72929000D01*
X101998750Y-72929000D01*
X101840000Y-73087750D01*
X101836928Y-73477000D01*
X59098132Y-73477000D01*
X60198132Y-72377000D01*
X83853928Y-72377000D01*
X83866188Y-72501482D01*
X83902498Y-72621180D01*
X83961463Y-72731494D01*
X84040815Y-72828185D01*
X84137506Y-72907537D01*
X84247820Y-72966502D01*
X84367518Y-73002812D01*
X84492000Y-73015072D01*
X84931250Y-73012000D01*
X85090000Y-72853250D01*
X85090000Y-72004000D01*
X85344000Y-72004000D01*
X85344000Y-72853250D01*
X85502750Y-73012000D01*
X85942000Y-73015072D01*
X86066482Y-73002812D01*
X86186180Y-72966502D01*
X86296494Y-72907537D01*
X86393185Y-72828185D01*
X86472537Y-72731494D01*
X86531502Y-72621180D01*
X86567812Y-72501482D01*
X86580072Y-72377000D01*
X86579198Y-72316000D01*
X96807928Y-72316000D01*
X96820188Y-72440482D01*
X96856498Y-72560180D01*
X96915463Y-72670494D01*
X96994815Y-72767185D01*
X97091506Y-72846537D01*
X97201820Y-72905502D01*
X97321518Y-72941812D01*
X97446000Y-72954072D01*
X97885250Y-72951000D01*
X98044000Y-72792250D01*
X98044000Y-71943000D01*
X98298000Y-71943000D01*
X98298000Y-72792250D01*
X98456750Y-72951000D01*
X98896000Y-72954072D01*
X99020482Y-72941812D01*
X99140180Y-72905502D01*
X99250494Y-72846537D01*
X99347185Y-72767185D01*
X99426537Y-72670494D01*
X99485502Y-72560180D01*
X99521812Y-72440482D01*
X99534072Y-72316000D01*
X99531363Y-72127000D01*
X101836928Y-72127000D01*
X101840000Y-72516250D01*
X101998750Y-72675000D01*
X104448000Y-72675000D01*
X104448000Y-71650750D01*
X104289250Y-71492000D01*
X102475000Y-71488928D01*
X102350518Y-71501188D01*
X102230820Y-71537498D01*
X102120506Y-71596463D01*
X102023815Y-71675815D01*
X101944463Y-71772506D01*
X101885498Y-71882820D01*
X101849188Y-72002518D01*
X101836928Y-72127000D01*
X99531363Y-72127000D01*
X99531000Y-72101750D01*
X99372250Y-71943000D01*
X98298000Y-71943000D01*
X98044000Y-71943000D01*
X96969750Y-71943000D01*
X96811000Y-72101750D01*
X96807928Y-72316000D01*
X86579198Y-72316000D01*
X86577000Y-72162750D01*
X86418250Y-72004000D01*
X85344000Y-72004000D01*
X85090000Y-72004000D01*
X84015750Y-72004000D01*
X83857000Y-72162750D01*
X83853928Y-72377000D01*
X60198132Y-72377000D01*
X62110133Y-70465000D01*
X68109869Y-70465000D01*
X68258004Y-70613135D01*
X68293551Y-70656449D01*
X68466377Y-70798284D01*
X68655671Y-70899463D01*
X68663553Y-70903676D01*
X68877501Y-70968577D01*
X69099999Y-70990491D01*
X69155751Y-70985000D01*
X72445752Y-70985000D01*
X72612499Y-70968577D01*
X72826447Y-70903676D01*
X73023623Y-70798284D01*
X73196449Y-70656449D01*
X73338284Y-70483623D01*
X73443676Y-70286447D01*
X73508577Y-70072499D01*
X73530491Y-69850000D01*
X73508577Y-69627501D01*
X73443676Y-69413553D01*
X73338284Y-69216377D01*
X73259809Y-69120755D01*
X73270812Y-69084482D01*
X73283072Y-68960000D01*
X73280000Y-68865750D01*
X73121250Y-68707000D01*
X72072000Y-68707000D01*
X72072000Y-68715000D01*
X71818000Y-68715000D01*
X71818000Y-68707000D01*
X70768750Y-68707000D01*
X70760750Y-68715000D01*
X69570131Y-68715000D01*
X69435131Y-68580000D01*
X69570131Y-68445000D01*
X70760750Y-68445000D01*
X70768750Y-68453000D01*
X71818000Y-68453000D01*
X71818000Y-68445000D01*
X72072000Y-68445000D01*
X72072000Y-68453000D01*
X73121250Y-68453000D01*
X73280000Y-68294250D01*
X73283072Y-68200000D01*
X73270812Y-68075518D01*
X73259809Y-68039245D01*
X73338284Y-67943623D01*
X73443676Y-67746447D01*
X73460799Y-67690000D01*
X74036928Y-67690000D01*
X74049188Y-67814482D01*
X74085498Y-67934180D01*
X74144463Y-68044494D01*
X74223815Y-68141185D01*
X74320506Y-68220537D01*
X74430820Y-68279502D01*
X74550518Y-68315812D01*
X74675000Y-68328072D01*
X75089250Y-68325000D01*
X75248000Y-68166250D01*
X75248000Y-67437000D01*
X75502000Y-67437000D01*
X75502000Y-68166250D01*
X75660750Y-68325000D01*
X76075000Y-68328072D01*
X76199482Y-68315812D01*
X76319180Y-68279502D01*
X76429494Y-68220537D01*
X76526185Y-68141185D01*
X76605537Y-68044494D01*
X76664502Y-67934180D01*
X76697014Y-67827000D01*
X101836928Y-67827000D01*
X101849188Y-67951482D01*
X101885498Y-68071180D01*
X101944463Y-68181494D01*
X102023815Y-68278185D01*
X102120506Y-68357537D01*
X102230820Y-68416502D01*
X102350518Y-68452812D01*
X102475000Y-68465072D01*
X104289250Y-68462000D01*
X104448000Y-68303250D01*
X104448000Y-67279000D01*
X101998750Y-67279000D01*
X101840000Y-67437750D01*
X101836928Y-67827000D01*
X76697014Y-67827000D01*
X76700812Y-67814482D01*
X76713072Y-67690000D01*
X76710000Y-67595750D01*
X76551250Y-67437000D01*
X75502000Y-67437000D01*
X75248000Y-67437000D01*
X74198750Y-67437000D01*
X74040000Y-67595750D01*
X74036928Y-67690000D01*
X73460799Y-67690000D01*
X73508577Y-67532499D01*
X73530491Y-67310000D01*
X73508577Y-67087501D01*
X73460800Y-66930000D01*
X74036928Y-66930000D01*
X74040000Y-67024250D01*
X74198750Y-67183000D01*
X75248000Y-67183000D01*
X75248000Y-66453750D01*
X75502000Y-66453750D01*
X75502000Y-67183000D01*
X76551250Y-67183000D01*
X76710000Y-67024250D01*
X76713072Y-66930000D01*
X76700812Y-66805518D01*
X76664502Y-66685820D01*
X76605537Y-66575506D01*
X76526185Y-66478815D01*
X76523974Y-66477000D01*
X101836928Y-66477000D01*
X101840000Y-66866250D01*
X101998750Y-67025000D01*
X104448000Y-67025000D01*
X104448000Y-66000750D01*
X104289250Y-65842000D01*
X102475000Y-65838928D01*
X102350518Y-65851188D01*
X102230820Y-65887498D01*
X102120506Y-65946463D01*
X102023815Y-66025815D01*
X101944463Y-66122506D01*
X101885498Y-66232820D01*
X101849188Y-66352518D01*
X101836928Y-66477000D01*
X76523974Y-66477000D01*
X76429494Y-66399463D01*
X76319180Y-66340498D01*
X76199482Y-66304188D01*
X76075000Y-66291928D01*
X75660750Y-66295000D01*
X75502000Y-66453750D01*
X75248000Y-66453750D01*
X75089250Y-66295000D01*
X74675000Y-66291928D01*
X74550518Y-66304188D01*
X74430820Y-66340498D01*
X74320506Y-66399463D01*
X74223815Y-66478815D01*
X74144463Y-66575506D01*
X74085498Y-66685820D01*
X74049188Y-66805518D01*
X74036928Y-66930000D01*
X73460800Y-66930000D01*
X73443676Y-66873553D01*
X73338284Y-66676377D01*
X73196449Y-66503551D01*
X73023623Y-66361716D01*
X72826447Y-66256324D01*
X72612499Y-66191423D01*
X72445752Y-66175000D01*
X69155751Y-66175000D01*
X69099999Y-66169509D01*
X69044248Y-66175000D01*
X68877501Y-66191423D01*
X68663553Y-66256324D01*
X68466377Y-66361716D01*
X68293551Y-66503551D01*
X68258004Y-66546865D01*
X68109869Y-66695000D01*
X62110133Y-66695000D01*
X56881997Y-61466865D01*
X56846450Y-61423551D01*
X56673624Y-61281716D01*
X56476448Y-61176324D01*
X56262500Y-61111423D01*
X56095753Y-61095000D01*
X56095752Y-61095000D01*
X56040001Y-61089509D01*
X55984250Y-61095000D01*
X54896704Y-61095000D01*
X54859494Y-61064463D01*
X54749180Y-61005498D01*
X54629482Y-60969188D01*
X54505000Y-60956928D01*
X51460000Y-60956928D01*
X51460000Y-60716963D01*
X52619250Y-60715000D01*
X52778000Y-60556250D01*
X52778000Y-59532000D01*
X53032000Y-59532000D01*
X53032000Y-60556250D01*
X53190750Y-60715000D01*
X55005000Y-60718072D01*
X55129482Y-60705812D01*
X55249180Y-60669502D01*
X55359494Y-60610537D01*
X55456185Y-60531185D01*
X55535537Y-60434494D01*
X55594502Y-60324180D01*
X55630812Y-60204482D01*
X55643072Y-60080000D01*
X55640000Y-59690750D01*
X55481250Y-59532000D01*
X53032000Y-59532000D01*
X52778000Y-59532000D01*
X52758000Y-59532000D01*
X52758000Y-59278000D01*
X52778000Y-59278000D01*
X52778000Y-58253750D01*
X53032000Y-58253750D01*
X53032000Y-59278000D01*
X55481250Y-59278000D01*
X55640000Y-59119250D01*
X55643072Y-58730000D01*
X55630812Y-58605518D01*
X55594502Y-58485820D01*
X55535537Y-58375506D01*
X55456185Y-58278815D01*
X55359494Y-58199463D01*
X55249180Y-58140498D01*
X55129482Y-58104188D01*
X55005000Y-58091928D01*
X53190750Y-58095000D01*
X53032000Y-58253750D01*
X52778000Y-58253750D01*
X52619250Y-58095000D01*
X51460000Y-58093037D01*
X51460000Y-54642279D01*
X51474722Y-54492131D01*
X51508953Y-54378754D01*
X51564555Y-54274181D01*
X51639407Y-54182404D01*
X51730664Y-54106909D01*
X51834844Y-54050581D01*
X51947976Y-54015560D01*
X52096022Y-54000000D01*
X105377721Y-54000000D01*
X105527869Y-54014722D01*
%TA.AperFunction,Conductor*%
D16*
G36*
X105527869Y-54014722D02*
G01*
X105641246Y-54048953D01*
X105745819Y-54104555D01*
X105837596Y-54179407D01*
X105913091Y-54270664D01*
X105969419Y-54374844D01*
X106004440Y-54487976D01*
X106020000Y-54636022D01*
X106020000Y-65840037D01*
X104860750Y-65842000D01*
X104702000Y-66000750D01*
X104702000Y-67025000D01*
X104722000Y-67025000D01*
X104722000Y-67279000D01*
X104702000Y-67279000D01*
X104702000Y-68303250D01*
X104860750Y-68462000D01*
X106020000Y-68463963D01*
X106020000Y-68703928D01*
X102975000Y-68703928D01*
X102850518Y-68716188D01*
X102730820Y-68752498D01*
X102677497Y-68781000D01*
X98683931Y-68781000D01*
X98520499Y-68731423D01*
X98353752Y-68715000D01*
X93119954Y-68715000D01*
X93049142Y-68677150D01*
X92888408Y-68628392D01*
X92721250Y-68611928D01*
X92283750Y-68611928D01*
X92116592Y-68628392D01*
X91955858Y-68677150D01*
X91807725Y-68756329D01*
X91677885Y-68862885D01*
X91571329Y-68992725D01*
X91492150Y-69140858D01*
X91443392Y-69301592D01*
X91440000Y-69336031D01*
X91436608Y-69301592D01*
X91387850Y-69140858D01*
X91308671Y-68992725D01*
X91202115Y-68862885D01*
X91072275Y-68756329D01*
X90924142Y-68677150D01*
X90763408Y-68628392D01*
X90596250Y-68611928D01*
X90158750Y-68611928D01*
X89991592Y-68628392D01*
X89830858Y-68677150D01*
X89682725Y-68756329D01*
X89578334Y-68842000D01*
X85738901Y-68842000D01*
X85653447Y-68796324D01*
X85439499Y-68731423D01*
X85272752Y-68715000D01*
X81798923Y-68715000D01*
X81703386Y-68636595D01*
X81549850Y-68554528D01*
X81383254Y-68503992D01*
X81210000Y-68486928D01*
X80710000Y-68486928D01*
X80536746Y-68503992D01*
X80370150Y-68554528D01*
X80216614Y-68636595D01*
X80082038Y-68747038D01*
X80010000Y-68834817D01*
X79937962Y-68747038D01*
X79803386Y-68636595D01*
X79649850Y-68554528D01*
X79483254Y-68503992D01*
X79310000Y-68486928D01*
X78810000Y-68486928D01*
X78636746Y-68503992D01*
X78470150Y-68554528D01*
X78316614Y-68636595D01*
X78221077Y-68715000D01*
X75319248Y-68715000D01*
X75152501Y-68731423D01*
X74938553Y-68796324D01*
X74871942Y-68831928D01*
X74675000Y-68831928D01*
X74550518Y-68844188D01*
X74430820Y-68880498D01*
X74320506Y-68939463D01*
X74223815Y-69018815D01*
X74144463Y-69115506D01*
X74085498Y-69225820D01*
X74049188Y-69345518D01*
X74036928Y-69470000D01*
X74036928Y-70230000D01*
X74049188Y-70354482D01*
X74085498Y-70474180D01*
X74144463Y-70584494D01*
X74223815Y-70681185D01*
X74320506Y-70760537D01*
X74430820Y-70819502D01*
X74550518Y-70855812D01*
X74675000Y-70868072D01*
X74871942Y-70868072D01*
X74938553Y-70903676D01*
X75152501Y-70968577D01*
X75319248Y-70985000D01*
X78221077Y-70985000D01*
X78316614Y-71063405D01*
X78470150Y-71145472D01*
X78636746Y-71196008D01*
X78810000Y-71213072D01*
X79310000Y-71213072D01*
X79483254Y-71196008D01*
X79649850Y-71145472D01*
X79803386Y-71063405D01*
X79937962Y-70952962D01*
X80010000Y-70865183D01*
X80082038Y-70952962D01*
X80216614Y-71063405D01*
X80370150Y-71145472D01*
X80536746Y-71196008D01*
X80710000Y-71213072D01*
X81210000Y-71213072D01*
X81383254Y-71196008D01*
X81549850Y-71145472D01*
X81703386Y-71063405D01*
X81798923Y-70985000D01*
X83992243Y-70985000D01*
X83961463Y-71022506D01*
X83902498Y-71132820D01*
X83866188Y-71252518D01*
X83853928Y-71377000D01*
X83857000Y-71591250D01*
X84015750Y-71750000D01*
X85090000Y-71750000D01*
X85090000Y-71730000D01*
X85344000Y-71730000D01*
X85344000Y-71750000D01*
X86418250Y-71750000D01*
X86577000Y-71591250D01*
X86580072Y-71377000D01*
X86567812Y-71252518D01*
X86531502Y-71132820D01*
X86520373Y-71112000D01*
X89987249Y-71112000D01*
X90043000Y-71117491D01*
X90098751Y-71112000D01*
X90098752Y-71112000D01*
X90265499Y-71095577D01*
X90290239Y-71088072D01*
X90596250Y-71088072D01*
X90763408Y-71071608D01*
X90924142Y-71022850D01*
X91072275Y-70943671D01*
X91202115Y-70837115D01*
X91308671Y-70707275D01*
X91387850Y-70559142D01*
X91436608Y-70398408D01*
X91440000Y-70363969D01*
X91443392Y-70398408D01*
X91492150Y-70559142D01*
X91571329Y-70707275D01*
X91677885Y-70837115D01*
X91807725Y-70943671D01*
X91955858Y-71022850D01*
X92116592Y-71071608D01*
X92283750Y-71088072D01*
X92721250Y-71088072D01*
X92888408Y-71071608D01*
X93049142Y-71022850D01*
X93119954Y-70985000D01*
X96902905Y-70985000D01*
X96856498Y-71071820D01*
X96820188Y-71191518D01*
X96807928Y-71316000D01*
X96811000Y-71530250D01*
X96969750Y-71689000D01*
X98044000Y-71689000D01*
X98044000Y-71669000D01*
X98298000Y-71669000D01*
X98298000Y-71689000D01*
X99372250Y-71689000D01*
X99531000Y-71530250D01*
X99534072Y-71316000D01*
X99521812Y-71191518D01*
X99485502Y-71071820D01*
X99474373Y-71051000D01*
X102513815Y-71051000D01*
X102523815Y-71063185D01*
X102620506Y-71142537D01*
X102730820Y-71201502D01*
X102850518Y-71237812D01*
X102975000Y-71250072D01*
X106020000Y-71250072D01*
X106020000Y-71490037D01*
X104860750Y-71492000D01*
X104702000Y-71650750D01*
X104702000Y-72675000D01*
X104722000Y-72675000D01*
X104722000Y-72929000D01*
X104702000Y-72929000D01*
X104702000Y-73953250D01*
X104860750Y-74112000D01*
X106020000Y-74113963D01*
X106020001Y-91240037D01*
X104860750Y-91242000D01*
X104702000Y-91400750D01*
X104702000Y-92425000D01*
X104722000Y-92425000D01*
X104722000Y-92679000D01*
X104702000Y-92679000D01*
X104702000Y-93703250D01*
X104860750Y-93862000D01*
X106020001Y-93863963D01*
X106020001Y-94103928D01*
X102975000Y-94103928D01*
X102850518Y-94116188D01*
X102730820Y-94152498D01*
X102677497Y-94181000D01*
X98175931Y-94181000D01*
X98012499Y-94131423D01*
X97845752Y-94115000D01*
X93119954Y-94115000D01*
X93049142Y-94077150D01*
X92888408Y-94028392D01*
X92721250Y-94011928D01*
X92283750Y-94011928D01*
X92116592Y-94028392D01*
X91955858Y-94077150D01*
X91807725Y-94156329D01*
X91677885Y-94262885D01*
X91571329Y-94392725D01*
X91492150Y-94540858D01*
X91443392Y-94701592D01*
X91440000Y-94736031D01*
X91436608Y-94701592D01*
X91387850Y-94540858D01*
X91308671Y-94392725D01*
X91202115Y-94262885D01*
X91072275Y-94156329D01*
X90924142Y-94077150D01*
X90763408Y-94028392D01*
X90596250Y-94011928D01*
X90158750Y-94011928D01*
X89991592Y-94028392D01*
X89830858Y-94077150D01*
X89682725Y-94156329D01*
X89652663Y-94181000D01*
X85596191Y-94181000D01*
X85565000Y-94177928D01*
X85465804Y-94177928D01*
X85312499Y-94131423D01*
X85145752Y-94115000D01*
X81798923Y-94115000D01*
X81703386Y-94036595D01*
X81549850Y-93954528D01*
X81383254Y-93903992D01*
X81210000Y-93886928D01*
X80710000Y-93886928D01*
X80536746Y-93903992D01*
X80370150Y-93954528D01*
X80216614Y-94036595D01*
X80082038Y-94147038D01*
X80010000Y-94234817D01*
X79937962Y-94147038D01*
X79803386Y-94036595D01*
X79649850Y-93954528D01*
X79483254Y-93903992D01*
X79310000Y-93886928D01*
X78810000Y-93886928D01*
X78636746Y-93903992D01*
X78470150Y-93954528D01*
X78316614Y-94036595D01*
X78221077Y-94115000D01*
X75319248Y-94115000D01*
X75152501Y-94131423D01*
X74938553Y-94196324D01*
X74871942Y-94231928D01*
X74675000Y-94231928D01*
X74550518Y-94244188D01*
X74430820Y-94280498D01*
X74320506Y-94339463D01*
X74223815Y-94418815D01*
X74144463Y-94515506D01*
X74085498Y-94625820D01*
X74049188Y-94745518D01*
X74036928Y-94870000D01*
X74036928Y-95630000D01*
X74049188Y-95754482D01*
X74085498Y-95874180D01*
X74144463Y-95984494D01*
X74223815Y-96081185D01*
X74320506Y-96160537D01*
X74430820Y-96219502D01*
X74550518Y-96255812D01*
X74675000Y-96268072D01*
X74871942Y-96268072D01*
X74938553Y-96303676D01*
X75152501Y-96368577D01*
X75319248Y-96385000D01*
X78221077Y-96385000D01*
X78316614Y-96463405D01*
X78470150Y-96545472D01*
X78636746Y-96596008D01*
X78810000Y-96613072D01*
X79310000Y-96613072D01*
X79483254Y-96596008D01*
X79649850Y-96545472D01*
X79803386Y-96463405D01*
X79937962Y-96352962D01*
X80010000Y-96265183D01*
X80082038Y-96352962D01*
X80216614Y-96463405D01*
X80370150Y-96545472D01*
X80536746Y-96596008D01*
X80710000Y-96613072D01*
X81210000Y-96613072D01*
X81383254Y-96596008D01*
X81549850Y-96545472D01*
X81703386Y-96463405D01*
X81798923Y-96385000D01*
X83821905Y-96385000D01*
X83775498Y-96471820D01*
X83739188Y-96591518D01*
X83726928Y-96716000D01*
X83730000Y-96930250D01*
X83888750Y-97089000D01*
X84963000Y-97089000D01*
X84963000Y-97069000D01*
X85217000Y-97069000D01*
X85217000Y-97089000D01*
X86291250Y-97089000D01*
X86450000Y-96930250D01*
X86453072Y-96716000D01*
X86440812Y-96591518D01*
X86404502Y-96471820D01*
X86393373Y-96451000D01*
X89923656Y-96451000D01*
X89991592Y-96471608D01*
X90158750Y-96488072D01*
X90171762Y-96488072D01*
X90196502Y-96495577D01*
X90418999Y-96517491D01*
X90641498Y-96495577D01*
X90699889Y-96477864D01*
X90763408Y-96471608D01*
X90924142Y-96422850D01*
X91072275Y-96343671D01*
X91202115Y-96237115D01*
X91308671Y-96107275D01*
X91347352Y-96034907D01*
X91367283Y-96010622D01*
X91456904Y-95842953D01*
X91492150Y-95959142D01*
X91571329Y-96107275D01*
X91677885Y-96237115D01*
X91807725Y-96343671D01*
X91955858Y-96422850D01*
X92116592Y-96471608D01*
X92283750Y-96488072D01*
X92721250Y-96488072D01*
X92888408Y-96471608D01*
X93049142Y-96422850D01*
X93119954Y-96385000D01*
X96394905Y-96385000D01*
X96348498Y-96471820D01*
X96312188Y-96591518D01*
X96299928Y-96716000D01*
X96303000Y-96930250D01*
X96461750Y-97089000D01*
X97536000Y-97089000D01*
X97536000Y-97069000D01*
X97790000Y-97069000D01*
X97790000Y-97089000D01*
X98864250Y-97089000D01*
X99023000Y-96930250D01*
X99026072Y-96716000D01*
X99013812Y-96591518D01*
X98977502Y-96471820D01*
X98966373Y-96451000D01*
X102513815Y-96451000D01*
X102523815Y-96463185D01*
X102620506Y-96542537D01*
X102730820Y-96601502D01*
X102850518Y-96637812D01*
X102975000Y-96650072D01*
X106020001Y-96650072D01*
X106020001Y-96890037D01*
X104860750Y-96892000D01*
X104702000Y-97050750D01*
X104702000Y-98075000D01*
X104722000Y-98075000D01*
X104722000Y-98329000D01*
X104702000Y-98329000D01*
X104702000Y-99353250D01*
X104860750Y-99512000D01*
X106020001Y-99513963D01*
X106020001Y-106647711D01*
X106005278Y-106797869D01*
X105971047Y-106911246D01*
X105915446Y-107015817D01*
X105840594Y-107107595D01*
X105749335Y-107183091D01*
X105645160Y-107239419D01*
X105532024Y-107274440D01*
X105383979Y-107290000D01*
X52102279Y-107290000D01*
X51952131Y-107275278D01*
X51838754Y-107241047D01*
X51734183Y-107185446D01*
X51642405Y-107110594D01*
X51566909Y-107019335D01*
X51510581Y-106915160D01*
X51475560Y-106802024D01*
X51460000Y-106653979D01*
X51460000Y-104466963D01*
X52619250Y-104465000D01*
X52778000Y-104306250D01*
X52778000Y-103282000D01*
X53032000Y-103282000D01*
X53032000Y-104306250D01*
X53190750Y-104465000D01*
X55005000Y-104468072D01*
X55129482Y-104455812D01*
X55249180Y-104419502D01*
X55359494Y-104360537D01*
X55456185Y-104281185D01*
X55535537Y-104184494D01*
X55594502Y-104074180D01*
X55630812Y-103954482D01*
X55643072Y-103830000D01*
X55640000Y-103440750D01*
X55481250Y-103282000D01*
X53032000Y-103282000D01*
X52778000Y-103282000D01*
X52758000Y-103282000D01*
X52758000Y-103028000D01*
X52778000Y-103028000D01*
X52778000Y-102003750D01*
X53032000Y-102003750D01*
X53032000Y-103028000D01*
X55481250Y-103028000D01*
X55640000Y-102869250D01*
X55643072Y-102480000D01*
X55630812Y-102355518D01*
X55594502Y-102235820D01*
X55535537Y-102125506D01*
X55456185Y-102028815D01*
X55359494Y-101949463D01*
X55249180Y-101890498D01*
X55129482Y-101854188D01*
X55005000Y-101841928D01*
X53190750Y-101845000D01*
X53032000Y-102003750D01*
X52778000Y-102003750D01*
X52619250Y-101845000D01*
X51460000Y-101843037D01*
X51460000Y-101603072D01*
X54505000Y-101603072D01*
X54629482Y-101590812D01*
X54749180Y-101554502D01*
X54859494Y-101495537D01*
X54896704Y-101465000D01*
X55984250Y-101465000D01*
X56040001Y-101470491D01*
X56095752Y-101465000D01*
X56095753Y-101465000D01*
X56262500Y-101448577D01*
X56476448Y-101383676D01*
X56673624Y-101278284D01*
X56846450Y-101136449D01*
X56881997Y-101093135D01*
X59098132Y-98877000D01*
X101836928Y-98877000D01*
X101849188Y-99001482D01*
X101885498Y-99121180D01*
X101944463Y-99231494D01*
X102023815Y-99328185D01*
X102120506Y-99407537D01*
X102230820Y-99466502D01*
X102350518Y-99502812D01*
X102475000Y-99515072D01*
X104289250Y-99512000D01*
X104448000Y-99353250D01*
X104448000Y-98329000D01*
X101998750Y-98329000D01*
X101840000Y-98487750D01*
X101836928Y-98877000D01*
X59098132Y-98877000D01*
X60259132Y-97716000D01*
X83726928Y-97716000D01*
X83739188Y-97840482D01*
X83775498Y-97960180D01*
X83834463Y-98070494D01*
X83913815Y-98167185D01*
X84010506Y-98246537D01*
X84120820Y-98305502D01*
X84240518Y-98341812D01*
X84365000Y-98354072D01*
X84804250Y-98351000D01*
X84963000Y-98192250D01*
X84963000Y-97343000D01*
X85217000Y-97343000D01*
X85217000Y-98192250D01*
X85375750Y-98351000D01*
X85815000Y-98354072D01*
X85939482Y-98341812D01*
X86059180Y-98305502D01*
X86169494Y-98246537D01*
X86266185Y-98167185D01*
X86345537Y-98070494D01*
X86404502Y-97960180D01*
X86440812Y-97840482D01*
X86453072Y-97716000D01*
X96299928Y-97716000D01*
X96312188Y-97840482D01*
X96348498Y-97960180D01*
X96407463Y-98070494D01*
X96486815Y-98167185D01*
X96583506Y-98246537D01*
X96693820Y-98305502D01*
X96813518Y-98341812D01*
X96938000Y-98354072D01*
X97377250Y-98351000D01*
X97536000Y-98192250D01*
X97536000Y-97343000D01*
X97790000Y-97343000D01*
X97790000Y-98192250D01*
X97948750Y-98351000D01*
X98388000Y-98354072D01*
X98512482Y-98341812D01*
X98632180Y-98305502D01*
X98742494Y-98246537D01*
X98839185Y-98167185D01*
X98918537Y-98070494D01*
X98977502Y-97960180D01*
X99013812Y-97840482D01*
X99026072Y-97716000D01*
X99023363Y-97527000D01*
X101836928Y-97527000D01*
X101840000Y-97916250D01*
X101998750Y-98075000D01*
X104448000Y-98075000D01*
X104448000Y-97050750D01*
X104289250Y-96892000D01*
X102475000Y-96888928D01*
X102350518Y-96901188D01*
X102230820Y-96937498D01*
X102120506Y-96996463D01*
X102023815Y-97075815D01*
X101944463Y-97172506D01*
X101885498Y-97282820D01*
X101849188Y-97402518D01*
X101836928Y-97527000D01*
X99023363Y-97527000D01*
X99023000Y-97501750D01*
X98864250Y-97343000D01*
X97790000Y-97343000D01*
X97536000Y-97343000D01*
X96461750Y-97343000D01*
X96303000Y-97501750D01*
X96299928Y-97716000D01*
X86453072Y-97716000D01*
X86450000Y-97501750D01*
X86291250Y-97343000D01*
X85217000Y-97343000D01*
X84963000Y-97343000D01*
X83888750Y-97343000D01*
X83730000Y-97501750D01*
X83726928Y-97716000D01*
X60259132Y-97716000D01*
X62110133Y-95865000D01*
X68109869Y-95865000D01*
X68258004Y-96013135D01*
X68293551Y-96056449D01*
X68466377Y-96198284D01*
X68655671Y-96299463D01*
X68663553Y-96303676D01*
X68877501Y-96368577D01*
X69099999Y-96390491D01*
X69155751Y-96385000D01*
X72445752Y-96385000D01*
X72612499Y-96368577D01*
X72826447Y-96303676D01*
X73023623Y-96198284D01*
X73196449Y-96056449D01*
X73338284Y-95883623D01*
X73443676Y-95686447D01*
X73508577Y-95472499D01*
X73530491Y-95250000D01*
X73508577Y-95027501D01*
X73443676Y-94813553D01*
X73338284Y-94616377D01*
X73259809Y-94520755D01*
X73270812Y-94484482D01*
X73283072Y-94360000D01*
X73280000Y-94265750D01*
X73121250Y-94107000D01*
X72072000Y-94107000D01*
X72072000Y-94115000D01*
X71818000Y-94115000D01*
X71818000Y-94107000D01*
X70768750Y-94107000D01*
X70760750Y-94115000D01*
X69570131Y-94115000D01*
X69435131Y-93980000D01*
X69570131Y-93845000D01*
X70760750Y-93845000D01*
X70768750Y-93853000D01*
X71818000Y-93853000D01*
X71818000Y-93845000D01*
X72072000Y-93845000D01*
X72072000Y-93853000D01*
X73121250Y-93853000D01*
X73280000Y-93694250D01*
X73283072Y-93600000D01*
X73270812Y-93475518D01*
X73259809Y-93439245D01*
X73338284Y-93343623D01*
X73443676Y-93146447D01*
X73460799Y-93090000D01*
X74036928Y-93090000D01*
X74049188Y-93214482D01*
X74085498Y-93334180D01*
X74144463Y-93444494D01*
X74223815Y-93541185D01*
X74320506Y-93620537D01*
X74430820Y-93679502D01*
X74550518Y-93715812D01*
X74675000Y-93728072D01*
X75089250Y-93725000D01*
X75248000Y-93566250D01*
X75248000Y-92837000D01*
X75502000Y-92837000D01*
X75502000Y-93566250D01*
X75660750Y-93725000D01*
X76075000Y-93728072D01*
X76199482Y-93715812D01*
X76319180Y-93679502D01*
X76429494Y-93620537D01*
X76526185Y-93541185D01*
X76605537Y-93444494D01*
X76664502Y-93334180D01*
X76697014Y-93227000D01*
X101836928Y-93227000D01*
X101849188Y-93351482D01*
X101885498Y-93471180D01*
X101944463Y-93581494D01*
X102023815Y-93678185D01*
X102120506Y-93757537D01*
X102230820Y-93816502D01*
X102350518Y-93852812D01*
X102475000Y-93865072D01*
X104289250Y-93862000D01*
X104448000Y-93703250D01*
X104448000Y-92679000D01*
X101998750Y-92679000D01*
X101840000Y-92837750D01*
X101836928Y-93227000D01*
X76697014Y-93227000D01*
X76700812Y-93214482D01*
X76713072Y-93090000D01*
X76710000Y-92995750D01*
X76551250Y-92837000D01*
X75502000Y-92837000D01*
X75248000Y-92837000D01*
X74198750Y-92837000D01*
X74040000Y-92995750D01*
X74036928Y-93090000D01*
X73460799Y-93090000D01*
X73508577Y-92932499D01*
X73530491Y-92710000D01*
X73508577Y-92487501D01*
X73460800Y-92330000D01*
X74036928Y-92330000D01*
X74040000Y-92424250D01*
X74198750Y-92583000D01*
X75248000Y-92583000D01*
X75248000Y-91853750D01*
X75502000Y-91853750D01*
X75502000Y-92583000D01*
X76551250Y-92583000D01*
X76710000Y-92424250D01*
X76713072Y-92330000D01*
X76700812Y-92205518D01*
X76664502Y-92085820D01*
X76605537Y-91975506D01*
X76526185Y-91878815D01*
X76523974Y-91877000D01*
X101836928Y-91877000D01*
X101840000Y-92266250D01*
X101998750Y-92425000D01*
X104448000Y-92425000D01*
X104448000Y-91400750D01*
X104289250Y-91242000D01*
X102475000Y-91238928D01*
X102350518Y-91251188D01*
X102230820Y-91287498D01*
X102120506Y-91346463D01*
X102023815Y-91425815D01*
X101944463Y-91522506D01*
X101885498Y-91632820D01*
X101849188Y-91752518D01*
X101836928Y-91877000D01*
X76523974Y-91877000D01*
X76429494Y-91799463D01*
X76319180Y-91740498D01*
X76199482Y-91704188D01*
X76075000Y-91691928D01*
X75660750Y-91695000D01*
X75502000Y-91853750D01*
X75248000Y-91853750D01*
X75089250Y-91695000D01*
X74675000Y-91691928D01*
X74550518Y-91704188D01*
X74430820Y-91740498D01*
X74320506Y-91799463D01*
X74223815Y-91878815D01*
X74144463Y-91975506D01*
X74085498Y-92085820D01*
X74049188Y-92205518D01*
X74036928Y-92330000D01*
X73460800Y-92330000D01*
X73443676Y-92273553D01*
X73338284Y-92076377D01*
X73196449Y-91903551D01*
X73023623Y-91761716D01*
X72826447Y-91656324D01*
X72612499Y-91591423D01*
X72445752Y-91575000D01*
X69155751Y-91575000D01*
X69099999Y-91569509D01*
X69044248Y-91575000D01*
X68877501Y-91591423D01*
X68663553Y-91656324D01*
X68466377Y-91761716D01*
X68293551Y-91903551D01*
X68258004Y-91946865D01*
X68109869Y-92095000D01*
X62110133Y-92095000D01*
X56881997Y-86866865D01*
X56846450Y-86823551D01*
X56673624Y-86681716D01*
X56476448Y-86576324D01*
X56262500Y-86511423D01*
X56095753Y-86495000D01*
X56095752Y-86495000D01*
X56040001Y-86489509D01*
X55984250Y-86495000D01*
X54896704Y-86495000D01*
X54859494Y-86464463D01*
X54749180Y-86405498D01*
X54629482Y-86369188D01*
X54505000Y-86356928D01*
X51460000Y-86356928D01*
X51460000Y-86116963D01*
X52619250Y-86115000D01*
X52778000Y-85956250D01*
X52778000Y-84932000D01*
X53032000Y-84932000D01*
X53032000Y-85956250D01*
X53190750Y-86115000D01*
X55005000Y-86118072D01*
X55129482Y-86105812D01*
X55249180Y-86069502D01*
X55359494Y-86010537D01*
X55456185Y-85931185D01*
X55535537Y-85834494D01*
X55594502Y-85724180D01*
X55630812Y-85604482D01*
X55643072Y-85480000D01*
X55640000Y-85090750D01*
X55481250Y-84932000D01*
X53032000Y-84932000D01*
X52778000Y-84932000D01*
X52758000Y-84932000D01*
X52758000Y-84678000D01*
X52778000Y-84678000D01*
X52778000Y-83653750D01*
X53032000Y-83653750D01*
X53032000Y-84678000D01*
X55481250Y-84678000D01*
X55640000Y-84519250D01*
X55643072Y-84130000D01*
X55630812Y-84005518D01*
X55594502Y-83885820D01*
X55535537Y-83775506D01*
X55456185Y-83678815D01*
X55359494Y-83599463D01*
X55249180Y-83540498D01*
X55129482Y-83504188D01*
X55005000Y-83491928D01*
X53190750Y-83495000D01*
X53032000Y-83653750D01*
X52778000Y-83653750D01*
X52619250Y-83495000D01*
X51460000Y-83493037D01*
X51460000Y-79066963D01*
X52619250Y-79065000D01*
X52778000Y-78906250D01*
X52778000Y-77882000D01*
X53032000Y-77882000D01*
X53032000Y-78906250D01*
X53190750Y-79065000D01*
X55005000Y-79068072D01*
X55129482Y-79055812D01*
X55249180Y-79019502D01*
X55359494Y-78960537D01*
X55456185Y-78881185D01*
X55535537Y-78784494D01*
X55594502Y-78674180D01*
X55630812Y-78554482D01*
X55643072Y-78430000D01*
X55640000Y-78040750D01*
X55481250Y-77882000D01*
X53032000Y-77882000D01*
X52778000Y-77882000D01*
X52758000Y-77882000D01*
X52758000Y-77628000D01*
X52778000Y-77628000D01*
X52778000Y-76603750D01*
X53032000Y-76603750D01*
X53032000Y-77628000D01*
X55481250Y-77628000D01*
X55640000Y-77469250D01*
X55643072Y-77080000D01*
X55630812Y-76955518D01*
X55594502Y-76835820D01*
X55535537Y-76725506D01*
X55456185Y-76628815D01*
X55359494Y-76549463D01*
X55249180Y-76490498D01*
X55129482Y-76454188D01*
X55005000Y-76441928D01*
X53190750Y-76445000D01*
X53032000Y-76603750D01*
X52778000Y-76603750D01*
X52619250Y-76445000D01*
X51460000Y-76443037D01*
X51460000Y-76203072D01*
X54505000Y-76203072D01*
X54629482Y-76190812D01*
X54749180Y-76154502D01*
X54859494Y-76095537D01*
X54896704Y-76065000D01*
X55984250Y-76065000D01*
X56040001Y-76070491D01*
X56095752Y-76065000D01*
X56095753Y-76065000D01*
X56262500Y-76048577D01*
X56476448Y-75983676D01*
X56673624Y-75878284D01*
X56846450Y-75736449D01*
X56881997Y-75693135D01*
X59098132Y-73477000D01*
X101836928Y-73477000D01*
X101849188Y-73601482D01*
X101885498Y-73721180D01*
X101944463Y-73831494D01*
X102023815Y-73928185D01*
X102120506Y-74007537D01*
X102230820Y-74066502D01*
X102350518Y-74102812D01*
X102475000Y-74115072D01*
X104289250Y-74112000D01*
X104448000Y-73953250D01*
X104448000Y-72929000D01*
X101998750Y-72929000D01*
X101840000Y-73087750D01*
X101836928Y-73477000D01*
X59098132Y-73477000D01*
X60198132Y-72377000D01*
X83853928Y-72377000D01*
X83866188Y-72501482D01*
X83902498Y-72621180D01*
X83961463Y-72731494D01*
X84040815Y-72828185D01*
X84137506Y-72907537D01*
X84247820Y-72966502D01*
X84367518Y-73002812D01*
X84492000Y-73015072D01*
X84931250Y-73012000D01*
X85090000Y-72853250D01*
X85090000Y-72004000D01*
X85344000Y-72004000D01*
X85344000Y-72853250D01*
X85502750Y-73012000D01*
X85942000Y-73015072D01*
X86066482Y-73002812D01*
X86186180Y-72966502D01*
X86296494Y-72907537D01*
X86393185Y-72828185D01*
X86472537Y-72731494D01*
X86531502Y-72621180D01*
X86567812Y-72501482D01*
X86580072Y-72377000D01*
X86579198Y-72316000D01*
X96807928Y-72316000D01*
X96820188Y-72440482D01*
X96856498Y-72560180D01*
X96915463Y-72670494D01*
X96994815Y-72767185D01*
X97091506Y-72846537D01*
X97201820Y-72905502D01*
X97321518Y-72941812D01*
X97446000Y-72954072D01*
X97885250Y-72951000D01*
X98044000Y-72792250D01*
X98044000Y-71943000D01*
X98298000Y-71943000D01*
X98298000Y-72792250D01*
X98456750Y-72951000D01*
X98896000Y-72954072D01*
X99020482Y-72941812D01*
X99140180Y-72905502D01*
X99250494Y-72846537D01*
X99347185Y-72767185D01*
X99426537Y-72670494D01*
X99485502Y-72560180D01*
X99521812Y-72440482D01*
X99534072Y-72316000D01*
X99531363Y-72127000D01*
X101836928Y-72127000D01*
X101840000Y-72516250D01*
X101998750Y-72675000D01*
X104448000Y-72675000D01*
X104448000Y-71650750D01*
X104289250Y-71492000D01*
X102475000Y-71488928D01*
X102350518Y-71501188D01*
X102230820Y-71537498D01*
X102120506Y-71596463D01*
X102023815Y-71675815D01*
X101944463Y-71772506D01*
X101885498Y-71882820D01*
X101849188Y-72002518D01*
X101836928Y-72127000D01*
X99531363Y-72127000D01*
X99531000Y-72101750D01*
X99372250Y-71943000D01*
X98298000Y-71943000D01*
X98044000Y-71943000D01*
X96969750Y-71943000D01*
X96811000Y-72101750D01*
X96807928Y-72316000D01*
X86579198Y-72316000D01*
X86577000Y-72162750D01*
X86418250Y-72004000D01*
X85344000Y-72004000D01*
X85090000Y-72004000D01*
X84015750Y-72004000D01*
X83857000Y-72162750D01*
X83853928Y-72377000D01*
X60198132Y-72377000D01*
X62110133Y-70465000D01*
X68109869Y-70465000D01*
X68258004Y-70613135D01*
X68293551Y-70656449D01*
X68466377Y-70798284D01*
X68655671Y-70899463D01*
X68663553Y-70903676D01*
X68877501Y-70968577D01*
X69099999Y-70990491D01*
X69155751Y-70985000D01*
X72445752Y-70985000D01*
X72612499Y-70968577D01*
X72826447Y-70903676D01*
X73023623Y-70798284D01*
X73196449Y-70656449D01*
X73338284Y-70483623D01*
X73443676Y-70286447D01*
X73508577Y-70072499D01*
X73530491Y-69850000D01*
X73508577Y-69627501D01*
X73443676Y-69413553D01*
X73338284Y-69216377D01*
X73259809Y-69120755D01*
X73270812Y-69084482D01*
X73283072Y-68960000D01*
X73280000Y-68865750D01*
X73121250Y-68707000D01*
X72072000Y-68707000D01*
X72072000Y-68715000D01*
X71818000Y-68715000D01*
X71818000Y-68707000D01*
X70768750Y-68707000D01*
X70760750Y-68715000D01*
X69570131Y-68715000D01*
X69435131Y-68580000D01*
X69570131Y-68445000D01*
X70760750Y-68445000D01*
X70768750Y-68453000D01*
X71818000Y-68453000D01*
X71818000Y-68445000D01*
X72072000Y-68445000D01*
X72072000Y-68453000D01*
X73121250Y-68453000D01*
X73280000Y-68294250D01*
X73283072Y-68200000D01*
X73270812Y-68075518D01*
X73259809Y-68039245D01*
X73338284Y-67943623D01*
X73443676Y-67746447D01*
X73460799Y-67690000D01*
X74036928Y-67690000D01*
X74049188Y-67814482D01*
X74085498Y-67934180D01*
X74144463Y-68044494D01*
X74223815Y-68141185D01*
X74320506Y-68220537D01*
X74430820Y-68279502D01*
X74550518Y-68315812D01*
X74675000Y-68328072D01*
X75089250Y-68325000D01*
X75248000Y-68166250D01*
X75248000Y-67437000D01*
X75502000Y-67437000D01*
X75502000Y-68166250D01*
X75660750Y-68325000D01*
X76075000Y-68328072D01*
X76199482Y-68315812D01*
X76319180Y-68279502D01*
X76429494Y-68220537D01*
X76526185Y-68141185D01*
X76605537Y-68044494D01*
X76664502Y-67934180D01*
X76697014Y-67827000D01*
X101836928Y-67827000D01*
X101849188Y-67951482D01*
X101885498Y-68071180D01*
X101944463Y-68181494D01*
X102023815Y-68278185D01*
X102120506Y-68357537D01*
X102230820Y-68416502D01*
X102350518Y-68452812D01*
X102475000Y-68465072D01*
X104289250Y-68462000D01*
X104448000Y-68303250D01*
X104448000Y-67279000D01*
X101998750Y-67279000D01*
X101840000Y-67437750D01*
X101836928Y-67827000D01*
X76697014Y-67827000D01*
X76700812Y-67814482D01*
X76713072Y-67690000D01*
X76710000Y-67595750D01*
X76551250Y-67437000D01*
X75502000Y-67437000D01*
X75248000Y-67437000D01*
X74198750Y-67437000D01*
X74040000Y-67595750D01*
X74036928Y-67690000D01*
X73460799Y-67690000D01*
X73508577Y-67532499D01*
X73530491Y-67310000D01*
X73508577Y-67087501D01*
X73460800Y-66930000D01*
X74036928Y-66930000D01*
X74040000Y-67024250D01*
X74198750Y-67183000D01*
X75248000Y-67183000D01*
X75248000Y-66453750D01*
X75502000Y-66453750D01*
X75502000Y-67183000D01*
X76551250Y-67183000D01*
X76710000Y-67024250D01*
X76713072Y-66930000D01*
X76700812Y-66805518D01*
X76664502Y-66685820D01*
X76605537Y-66575506D01*
X76526185Y-66478815D01*
X76523974Y-66477000D01*
X101836928Y-66477000D01*
X101840000Y-66866250D01*
X101998750Y-67025000D01*
X104448000Y-67025000D01*
X104448000Y-66000750D01*
X104289250Y-65842000D01*
X102475000Y-65838928D01*
X102350518Y-65851188D01*
X102230820Y-65887498D01*
X102120506Y-65946463D01*
X102023815Y-66025815D01*
X101944463Y-66122506D01*
X101885498Y-66232820D01*
X101849188Y-66352518D01*
X101836928Y-66477000D01*
X76523974Y-66477000D01*
X76429494Y-66399463D01*
X76319180Y-66340498D01*
X76199482Y-66304188D01*
X76075000Y-66291928D01*
X75660750Y-66295000D01*
X75502000Y-66453750D01*
X75248000Y-66453750D01*
X75089250Y-66295000D01*
X74675000Y-66291928D01*
X74550518Y-66304188D01*
X74430820Y-66340498D01*
X74320506Y-66399463D01*
X74223815Y-66478815D01*
X74144463Y-66575506D01*
X74085498Y-66685820D01*
X74049188Y-66805518D01*
X74036928Y-66930000D01*
X73460800Y-66930000D01*
X73443676Y-66873553D01*
X73338284Y-66676377D01*
X73196449Y-66503551D01*
X73023623Y-66361716D01*
X72826447Y-66256324D01*
X72612499Y-66191423D01*
X72445752Y-66175000D01*
X69155751Y-66175000D01*
X69099999Y-66169509D01*
X69044248Y-66175000D01*
X68877501Y-66191423D01*
X68663553Y-66256324D01*
X68466377Y-66361716D01*
X68293551Y-66503551D01*
X68258004Y-66546865D01*
X68109869Y-66695000D01*
X62110133Y-66695000D01*
X56881997Y-61466865D01*
X56846450Y-61423551D01*
X56673624Y-61281716D01*
X56476448Y-61176324D01*
X56262500Y-61111423D01*
X56095753Y-61095000D01*
X56095752Y-61095000D01*
X56040001Y-61089509D01*
X55984250Y-61095000D01*
X54896704Y-61095000D01*
X54859494Y-61064463D01*
X54749180Y-61005498D01*
X54629482Y-60969188D01*
X54505000Y-60956928D01*
X51460000Y-60956928D01*
X51460000Y-60716963D01*
X52619250Y-60715000D01*
X52778000Y-60556250D01*
X52778000Y-59532000D01*
X53032000Y-59532000D01*
X53032000Y-60556250D01*
X53190750Y-60715000D01*
X55005000Y-60718072D01*
X55129482Y-60705812D01*
X55249180Y-60669502D01*
X55359494Y-60610537D01*
X55456185Y-60531185D01*
X55535537Y-60434494D01*
X55594502Y-60324180D01*
X55630812Y-60204482D01*
X55643072Y-60080000D01*
X55640000Y-59690750D01*
X55481250Y-59532000D01*
X53032000Y-59532000D01*
X52778000Y-59532000D01*
X52758000Y-59532000D01*
X52758000Y-59278000D01*
X52778000Y-59278000D01*
X52778000Y-58253750D01*
X53032000Y-58253750D01*
X53032000Y-59278000D01*
X55481250Y-59278000D01*
X55640000Y-59119250D01*
X55643072Y-58730000D01*
X55630812Y-58605518D01*
X55594502Y-58485820D01*
X55535537Y-58375506D01*
X55456185Y-58278815D01*
X55359494Y-58199463D01*
X55249180Y-58140498D01*
X55129482Y-58104188D01*
X55005000Y-58091928D01*
X53190750Y-58095000D01*
X53032000Y-58253750D01*
X52778000Y-58253750D01*
X52619250Y-58095000D01*
X51460000Y-58093037D01*
X51460000Y-54642279D01*
X51474722Y-54492131D01*
X51508953Y-54378754D01*
X51564555Y-54274181D01*
X51639407Y-54182404D01*
X51730664Y-54106909D01*
X51834844Y-54050581D01*
X51947976Y-54015560D01*
X52096022Y-54000000D01*
X105377721Y-54000000D01*
X105527869Y-54014722D01*
G37*
%TD.AperFunction*%
D15*
X60784869Y-93980000D02*
X55569870Y-99195000D01*
X54896704Y-99195000D01*
X54859494Y-99164463D01*
X54749180Y-99105498D01*
X54629482Y-99069188D01*
X54505000Y-99056928D01*
X51460000Y-99056928D01*
X51460000Y-98816963D01*
X52619250Y-98815000D01*
X52778000Y-98656250D01*
X52778000Y-97632000D01*
X53032000Y-97632000D01*
X53032000Y-98656250D01*
X53190750Y-98815000D01*
X55005000Y-98818072D01*
X55129482Y-98805812D01*
X55249180Y-98769502D01*
X55359494Y-98710537D01*
X55456185Y-98631185D01*
X55535537Y-98534494D01*
X55594502Y-98424180D01*
X55630812Y-98304482D01*
X55643072Y-98180000D01*
X55640000Y-97790750D01*
X55481250Y-97632000D01*
X53032000Y-97632000D01*
X52778000Y-97632000D01*
X52758000Y-97632000D01*
X52758000Y-97378000D01*
X52778000Y-97378000D01*
X52778000Y-96353750D01*
X53032000Y-96353750D01*
X53032000Y-97378000D01*
X55481250Y-97378000D01*
X55640000Y-97219250D01*
X55643072Y-96830000D01*
X55630812Y-96705518D01*
X55594502Y-96585820D01*
X55535537Y-96475506D01*
X55456185Y-96378815D01*
X55359494Y-96299463D01*
X55249180Y-96240498D01*
X55129482Y-96204188D01*
X55005000Y-96191928D01*
X53190750Y-96195000D01*
X53032000Y-96353750D01*
X52778000Y-96353750D01*
X52619250Y-96195000D01*
X51460000Y-96193037D01*
X51460000Y-91766963D01*
X52619250Y-91765000D01*
X52778000Y-91606250D01*
X52778000Y-90582000D01*
X53032000Y-90582000D01*
X53032000Y-91606250D01*
X53190750Y-91765000D01*
X55005000Y-91768072D01*
X55129482Y-91755812D01*
X55249180Y-91719502D01*
X55359494Y-91660537D01*
X55456185Y-91581185D01*
X55535537Y-91484494D01*
X55594502Y-91374180D01*
X55630812Y-91254482D01*
X55643072Y-91130000D01*
X55640000Y-90740750D01*
X55481250Y-90582000D01*
X53032000Y-90582000D01*
X52778000Y-90582000D01*
X52758000Y-90582000D01*
X52758000Y-90328000D01*
X52778000Y-90328000D01*
X52778000Y-89303750D01*
X53032000Y-89303750D01*
X53032000Y-90328000D01*
X55481250Y-90328000D01*
X55640000Y-90169250D01*
X55643072Y-89780000D01*
X55630812Y-89655518D01*
X55594502Y-89535820D01*
X55535537Y-89425506D01*
X55456185Y-89328815D01*
X55359494Y-89249463D01*
X55249180Y-89190498D01*
X55129482Y-89154188D01*
X55005000Y-89141928D01*
X53190750Y-89145000D01*
X53032000Y-89303750D01*
X52778000Y-89303750D01*
X52619250Y-89145000D01*
X51460000Y-89143037D01*
X51460000Y-88903072D01*
X54505000Y-88903072D01*
X54629482Y-88890812D01*
X54749180Y-88854502D01*
X54859494Y-88795537D01*
X54896704Y-88765000D01*
X55569870Y-88765000D01*
X60784869Y-93980000D01*
%TA.AperFunction,Conductor*%
D16*
G36*
X60784869Y-93980000D02*
G01*
X55569870Y-99195000D01*
X54896704Y-99195000D01*
X54859494Y-99164463D01*
X54749180Y-99105498D01*
X54629482Y-99069188D01*
X54505000Y-99056928D01*
X51460000Y-99056928D01*
X51460000Y-98816963D01*
X52619250Y-98815000D01*
X52778000Y-98656250D01*
X52778000Y-97632000D01*
X53032000Y-97632000D01*
X53032000Y-98656250D01*
X53190750Y-98815000D01*
X55005000Y-98818072D01*
X55129482Y-98805812D01*
X55249180Y-98769502D01*
X55359494Y-98710537D01*
X55456185Y-98631185D01*
X55535537Y-98534494D01*
X55594502Y-98424180D01*
X55630812Y-98304482D01*
X55643072Y-98180000D01*
X55640000Y-97790750D01*
X55481250Y-97632000D01*
X53032000Y-97632000D01*
X52778000Y-97632000D01*
X52758000Y-97632000D01*
X52758000Y-97378000D01*
X52778000Y-97378000D01*
X52778000Y-96353750D01*
X53032000Y-96353750D01*
X53032000Y-97378000D01*
X55481250Y-97378000D01*
X55640000Y-97219250D01*
X55643072Y-96830000D01*
X55630812Y-96705518D01*
X55594502Y-96585820D01*
X55535537Y-96475506D01*
X55456185Y-96378815D01*
X55359494Y-96299463D01*
X55249180Y-96240498D01*
X55129482Y-96204188D01*
X55005000Y-96191928D01*
X53190750Y-96195000D01*
X53032000Y-96353750D01*
X52778000Y-96353750D01*
X52619250Y-96195000D01*
X51460000Y-96193037D01*
X51460000Y-91766963D01*
X52619250Y-91765000D01*
X52778000Y-91606250D01*
X52778000Y-90582000D01*
X53032000Y-90582000D01*
X53032000Y-91606250D01*
X53190750Y-91765000D01*
X55005000Y-91768072D01*
X55129482Y-91755812D01*
X55249180Y-91719502D01*
X55359494Y-91660537D01*
X55456185Y-91581185D01*
X55535537Y-91484494D01*
X55594502Y-91374180D01*
X55630812Y-91254482D01*
X55643072Y-91130000D01*
X55640000Y-90740750D01*
X55481250Y-90582000D01*
X53032000Y-90582000D01*
X52778000Y-90582000D01*
X52758000Y-90582000D01*
X52758000Y-90328000D01*
X52778000Y-90328000D01*
X52778000Y-89303750D01*
X53032000Y-89303750D01*
X53032000Y-90328000D01*
X55481250Y-90328000D01*
X55640000Y-90169250D01*
X55643072Y-89780000D01*
X55630812Y-89655518D01*
X55594502Y-89535820D01*
X55535537Y-89425506D01*
X55456185Y-89328815D01*
X55359494Y-89249463D01*
X55249180Y-89190498D01*
X55129482Y-89154188D01*
X55005000Y-89141928D01*
X53190750Y-89145000D01*
X53032000Y-89303750D01*
X52778000Y-89303750D01*
X52619250Y-89145000D01*
X51460000Y-89143037D01*
X51460000Y-88903072D01*
X54505000Y-88903072D01*
X54629482Y-88890812D01*
X54749180Y-88854502D01*
X54859494Y-88795537D01*
X54896704Y-88765000D01*
X55569870Y-88765000D01*
X60784869Y-93980000D01*
G37*
%TD.AperFunction*%
D15*
X60784869Y-68580000D02*
X55569870Y-73795000D01*
X54896704Y-73795000D01*
X54859494Y-73764463D01*
X54749180Y-73705498D01*
X54629482Y-73669188D01*
X54505000Y-73656928D01*
X51460000Y-73656928D01*
X51460000Y-73416963D01*
X52619250Y-73415000D01*
X52778000Y-73256250D01*
X52778000Y-72232000D01*
X53032000Y-72232000D01*
X53032000Y-73256250D01*
X53190750Y-73415000D01*
X55005000Y-73418072D01*
X55129482Y-73405812D01*
X55249180Y-73369502D01*
X55359494Y-73310537D01*
X55456185Y-73231185D01*
X55535537Y-73134494D01*
X55594502Y-73024180D01*
X55630812Y-72904482D01*
X55643072Y-72780000D01*
X55640000Y-72390750D01*
X55481250Y-72232000D01*
X53032000Y-72232000D01*
X52778000Y-72232000D01*
X52758000Y-72232000D01*
X52758000Y-71978000D01*
X52778000Y-71978000D01*
X52778000Y-70953750D01*
X53032000Y-70953750D01*
X53032000Y-71978000D01*
X55481250Y-71978000D01*
X55640000Y-71819250D01*
X55643072Y-71430000D01*
X55630812Y-71305518D01*
X55594502Y-71185820D01*
X55535537Y-71075506D01*
X55456185Y-70978815D01*
X55359494Y-70899463D01*
X55249180Y-70840498D01*
X55129482Y-70804188D01*
X55005000Y-70791928D01*
X53190750Y-70795000D01*
X53032000Y-70953750D01*
X52778000Y-70953750D01*
X52619250Y-70795000D01*
X51460000Y-70793037D01*
X51460000Y-66366963D01*
X52619250Y-66365000D01*
X52778000Y-66206250D01*
X52778000Y-65182000D01*
X53032000Y-65182000D01*
X53032000Y-66206250D01*
X53190750Y-66365000D01*
X55005000Y-66368072D01*
X55129482Y-66355812D01*
X55249180Y-66319502D01*
X55359494Y-66260537D01*
X55456185Y-66181185D01*
X55535537Y-66084494D01*
X55594502Y-65974180D01*
X55630812Y-65854482D01*
X55643072Y-65730000D01*
X55640000Y-65340750D01*
X55481250Y-65182000D01*
X53032000Y-65182000D01*
X52778000Y-65182000D01*
X52758000Y-65182000D01*
X52758000Y-64928000D01*
X52778000Y-64928000D01*
X52778000Y-63903750D01*
X53032000Y-63903750D01*
X53032000Y-64928000D01*
X55481250Y-64928000D01*
X55640000Y-64769250D01*
X55643072Y-64380000D01*
X55630812Y-64255518D01*
X55594502Y-64135820D01*
X55535537Y-64025506D01*
X55456185Y-63928815D01*
X55359494Y-63849463D01*
X55249180Y-63790498D01*
X55129482Y-63754188D01*
X55005000Y-63741928D01*
X53190750Y-63745000D01*
X53032000Y-63903750D01*
X52778000Y-63903750D01*
X52619250Y-63745000D01*
X51460000Y-63743037D01*
X51460000Y-63503072D01*
X54505000Y-63503072D01*
X54629482Y-63490812D01*
X54749180Y-63454502D01*
X54859494Y-63395537D01*
X54896704Y-63365000D01*
X55569870Y-63365000D01*
X60784869Y-68580000D01*
%TA.AperFunction,Conductor*%
D16*
G36*
X60784869Y-68580000D02*
G01*
X55569870Y-73795000D01*
X54896704Y-73795000D01*
X54859494Y-73764463D01*
X54749180Y-73705498D01*
X54629482Y-73669188D01*
X54505000Y-73656928D01*
X51460000Y-73656928D01*
X51460000Y-73416963D01*
X52619250Y-73415000D01*
X52778000Y-73256250D01*
X52778000Y-72232000D01*
X53032000Y-72232000D01*
X53032000Y-73256250D01*
X53190750Y-73415000D01*
X55005000Y-73418072D01*
X55129482Y-73405812D01*
X55249180Y-73369502D01*
X55359494Y-73310537D01*
X55456185Y-73231185D01*
X55535537Y-73134494D01*
X55594502Y-73024180D01*
X55630812Y-72904482D01*
X55643072Y-72780000D01*
X55640000Y-72390750D01*
X55481250Y-72232000D01*
X53032000Y-72232000D01*
X52778000Y-72232000D01*
X52758000Y-72232000D01*
X52758000Y-71978000D01*
X52778000Y-71978000D01*
X52778000Y-70953750D01*
X53032000Y-70953750D01*
X53032000Y-71978000D01*
X55481250Y-71978000D01*
X55640000Y-71819250D01*
X55643072Y-71430000D01*
X55630812Y-71305518D01*
X55594502Y-71185820D01*
X55535537Y-71075506D01*
X55456185Y-70978815D01*
X55359494Y-70899463D01*
X55249180Y-70840498D01*
X55129482Y-70804188D01*
X55005000Y-70791928D01*
X53190750Y-70795000D01*
X53032000Y-70953750D01*
X52778000Y-70953750D01*
X52619250Y-70795000D01*
X51460000Y-70793037D01*
X51460000Y-66366963D01*
X52619250Y-66365000D01*
X52778000Y-66206250D01*
X52778000Y-65182000D01*
X53032000Y-65182000D01*
X53032000Y-66206250D01*
X53190750Y-66365000D01*
X55005000Y-66368072D01*
X55129482Y-66355812D01*
X55249180Y-66319502D01*
X55359494Y-66260537D01*
X55456185Y-66181185D01*
X55535537Y-66084494D01*
X55594502Y-65974180D01*
X55630812Y-65854482D01*
X55643072Y-65730000D01*
X55640000Y-65340750D01*
X55481250Y-65182000D01*
X53032000Y-65182000D01*
X52778000Y-65182000D01*
X52758000Y-65182000D01*
X52758000Y-64928000D01*
X52778000Y-64928000D01*
X52778000Y-63903750D01*
X53032000Y-63903750D01*
X53032000Y-64928000D01*
X55481250Y-64928000D01*
X55640000Y-64769250D01*
X55643072Y-64380000D01*
X55630812Y-64255518D01*
X55594502Y-64135820D01*
X55535537Y-64025506D01*
X55456185Y-63928815D01*
X55359494Y-63849463D01*
X55249180Y-63790498D01*
X55129482Y-63754188D01*
X55005000Y-63741928D01*
X53190750Y-63745000D01*
X53032000Y-63903750D01*
X52778000Y-63903750D01*
X52619250Y-63745000D01*
X51460000Y-63743037D01*
X51460000Y-63503072D01*
X54505000Y-63503072D01*
X54629482Y-63490812D01*
X54749180Y-63454502D01*
X54859494Y-63395537D01*
X54896704Y-63365000D01*
X55569870Y-63365000D01*
X60784869Y-68580000D01*
G37*
%TD.AperFunction*%
%TD*%
M02*
