%TF.GenerationSoftware,KiCad,Pcbnew,(5.1.9)-1*%
%TF.CreationDate,2021-02-07T20:20:06-05:00*%
%TF.ProjectId,BalunAndLowPass,42616c75-6e41-46e6-944c-6f7750617373,rev?*%
%TF.SameCoordinates,Original*%
%TF.FileFunction,Copper,L2,Bot*%
%TF.FilePolarity,Positive*%
%FSLAX46Y46*%
G04 Gerber Fmt 4.6, Leading zero omitted, Abs format (unit mm)*
G04 Created by KiCad (PCBNEW (5.1.9)-1) date 2021-02-07 20:20:07*
%MOMM*%
%LPD*%
G01*
G04 APERTURE LIST*
%TA.AperFunction,SMDPad,CuDef*%
%ADD10R,4.200000X1.350000*%
%TD*%
%TA.AperFunction,ViaPad*%
%ADD11C,0.800000*%
%TD*%
%TA.AperFunction,Conductor*%
%ADD12C,0.254000*%
%TD*%
%TA.AperFunction,Conductor*%
%ADD13C,0.100000*%
%TD*%
G04 APERTURE END LIST*
D10*
%TO.P,J6,3_2*%
%TO.N,GND*%
X104575000Y-92552000D03*
%TO.P,J6,2_2*%
X104575000Y-98202000D03*
%TD*%
%TO.P,J5,3_2*%
%TO.N,GND*%
X104575000Y-67152000D03*
%TO.P,J5,2_2*%
X104575000Y-72802000D03*
%TD*%
%TO.P,J4,3_2*%
%TO.N,GND*%
X52905000Y-90455000D03*
%TO.P,J4,2_2*%
X52905000Y-84805000D03*
%TD*%
%TO.P,J3,3_2*%
%TO.N,GND*%
X52905000Y-103155000D03*
%TO.P,J3,2_2*%
X52905000Y-97505000D03*
%TD*%
%TO.P,J2,3_2*%
%TO.N,GND*%
X52905000Y-65055000D03*
%TO.P,J2,2_2*%
X52905000Y-59405000D03*
%TD*%
%TO.P,J1,3_2*%
%TO.N,GND*%
X52905000Y-77755000D03*
%TO.P,J1,2_2*%
X52905000Y-72105000D03*
%TD*%
D11*
%TO.N,GND*%
X52248550Y-55431876D03*
X52248550Y-67431876D03*
X52248550Y-80431876D03*
X52248550Y-93431876D03*
X52248550Y-105431876D03*
X53248550Y-69431876D03*
X53248550Y-82431876D03*
X54248550Y-56431876D03*
X54248550Y-94431876D03*
X54248550Y-106431876D03*
X55248550Y-67431876D03*
X55248550Y-80431876D03*
X56248550Y-55431876D03*
X56248550Y-69431876D03*
X56248550Y-82431876D03*
X56248550Y-93431876D03*
X56248550Y-105431876D03*
X57248550Y-57431876D03*
X57248550Y-60431876D03*
X57248550Y-66431876D03*
X57248550Y-76431876D03*
X57248550Y-79431876D03*
X57248550Y-84431876D03*
X57248550Y-95431876D03*
X57248550Y-102431876D03*
X58248550Y-68431876D03*
X58248550Y-81431876D03*
X58248550Y-86431876D03*
X58248550Y-104431876D03*
X59248550Y-55431876D03*
X59248550Y-58431876D03*
X59248550Y-61431876D03*
X59248550Y-75431876D03*
X59248550Y-78431876D03*
X59248550Y-83431876D03*
X59248550Y-100431876D03*
X59248550Y-106431876D03*
X60248550Y-63431876D03*
X60248550Y-80431876D03*
X60248550Y-85431876D03*
X60248550Y-88431876D03*
X60248550Y-102431876D03*
X61248550Y-56431876D03*
X61248550Y-59431876D03*
X61248550Y-73431876D03*
X61248550Y-76431876D03*
X61248550Y-82431876D03*
X61248550Y-98431876D03*
X61248550Y-104431876D03*
X62248550Y-61431876D03*
X62248550Y-64431876D03*
X62248550Y-78431876D03*
X62248550Y-84431876D03*
X62248550Y-87431876D03*
X62248550Y-90431876D03*
X62248550Y-100431876D03*
X62248550Y-106431876D03*
X63248550Y-55431876D03*
X63248550Y-58431876D03*
X63248550Y-71431876D03*
X63248550Y-74431876D03*
X63248550Y-80431876D03*
X63248550Y-96431876D03*
X63248550Y-102431876D03*
X64248550Y-60431876D03*
X64248550Y-63431876D03*
X64248550Y-76431876D03*
X64248550Y-82431876D03*
X64248550Y-85431876D03*
X64248550Y-88431876D03*
X64248550Y-91431876D03*
X64248550Y-98431876D03*
X64248550Y-104431876D03*
X65248550Y-56431876D03*
X65248550Y-65431876D03*
X65248550Y-72431876D03*
X65248550Y-78431876D03*
X65248550Y-100431876D03*
X65248550Y-106431876D03*
X66248550Y-58431876D03*
X66248550Y-61431876D03*
X66248550Y-74431876D03*
X66248550Y-80431876D03*
X66248550Y-83431876D03*
X66248550Y-86431876D03*
X66248550Y-89431876D03*
X66248550Y-96431876D03*
X66248550Y-102431876D03*
X67248550Y-55431876D03*
X67248550Y-63431876D03*
X67248550Y-71431876D03*
X67248550Y-76431876D03*
X67248550Y-91431876D03*
X67248550Y-98431876D03*
X67248550Y-104431876D03*
X68248550Y-57431876D03*
X68248550Y-60431876D03*
X68248550Y-65431876D03*
X68248550Y-73431876D03*
X68248550Y-78431876D03*
X68248550Y-81431876D03*
X68248550Y-84431876D03*
X68248550Y-87431876D03*
X68248550Y-100431876D03*
X68248550Y-106431876D03*
X69248550Y-62431876D03*
X69248550Y-75431876D03*
X69248550Y-89431876D03*
X69248550Y-97431876D03*
X69248550Y-102431876D03*
X70248550Y-55431876D03*
X70248550Y-58431876D03*
X70248550Y-64431876D03*
X70248550Y-71431876D03*
X70248550Y-77431876D03*
X70248550Y-80431876D03*
X70248550Y-83431876D03*
X70248550Y-86431876D03*
X70248550Y-99431876D03*
X70248550Y-104431876D03*
X71248550Y-60431876D03*
X71248550Y-73431876D03*
X71248550Y-88431876D03*
X71248550Y-101431876D03*
X71248550Y-106431876D03*
X72248550Y-56431876D03*
X72248550Y-62431876D03*
X72248550Y-65431876D03*
X72248550Y-75431876D03*
X72248550Y-78431876D03*
X72248550Y-81431876D03*
X72248550Y-84431876D03*
X72248550Y-90431876D03*
X72248550Y-97431876D03*
X72248550Y-103431876D03*
X73248550Y-58431876D03*
X73248550Y-71431876D03*
X73248550Y-86431876D03*
X73248550Y-99431876D03*
X73248550Y-105431876D03*
X74248550Y-55431876D03*
X74248550Y-60431876D03*
X74248550Y-63431876D03*
X74248550Y-73431876D03*
X74248550Y-76431876D03*
X74248550Y-79431876D03*
X74248550Y-82431876D03*
X74248550Y-88431876D03*
X74248550Y-101431876D03*
X75248550Y-57431876D03*
X75248550Y-65431876D03*
X75248550Y-84431876D03*
X75248550Y-90431876D03*
X75248550Y-97431876D03*
X75248550Y-103431876D03*
X75248550Y-106431876D03*
X76248550Y-59431876D03*
X76248550Y-62431876D03*
X76248550Y-71431876D03*
X76248550Y-74431876D03*
X76248550Y-77431876D03*
X76248550Y-80431876D03*
X76248550Y-86431876D03*
X76248550Y-99431876D03*
X77248550Y-55431876D03*
X77248550Y-64431876D03*
X77248550Y-67431876D03*
X77248550Y-82431876D03*
X77248550Y-88431876D03*
X77248550Y-91431876D03*
X77248550Y-101431876D03*
X77248550Y-104431876D03*
X78248550Y-57431876D03*
X78248550Y-60431876D03*
X78248550Y-72431876D03*
X78248550Y-75431876D03*
X78248550Y-78431876D03*
X78248550Y-84431876D03*
X78248550Y-93431876D03*
X78248550Y-97431876D03*
X78248550Y-106431876D03*
X79248550Y-62431876D03*
X79248550Y-65431876D03*
X79248550Y-80431876D03*
X79248550Y-86431876D03*
X79248550Y-89431876D03*
X79248550Y-99431876D03*
X79248550Y-102431876D03*
X80248550Y-55431876D03*
X80248550Y-58431876D03*
X80248550Y-67431876D03*
X80248550Y-73431876D03*
X80248550Y-76431876D03*
X80248550Y-82431876D03*
X80248550Y-91431876D03*
X80248550Y-104431876D03*
X81248550Y-60431876D03*
X81248550Y-63431876D03*
X81248550Y-78431876D03*
X81248550Y-84431876D03*
X81248550Y-87431876D03*
X81248550Y-93431876D03*
X81248550Y-97431876D03*
X81248550Y-100431876D03*
X81248550Y-106431876D03*
X82248550Y-56431876D03*
X82248550Y-65431876D03*
X82248550Y-72431876D03*
X82248550Y-75431876D03*
X82248550Y-80431876D03*
X82248550Y-89431876D03*
X82248550Y-102431876D03*
X83248550Y-58431876D03*
X83248550Y-61431876D03*
X83248550Y-67431876D03*
X83248550Y-77431876D03*
X83248550Y-82431876D03*
X83248550Y-85431876D03*
X83248550Y-91431876D03*
X83248550Y-98431876D03*
X83248550Y-104431876D03*
X84248550Y-55431876D03*
X84248550Y-63431876D03*
X84248550Y-73431876D03*
X84248550Y-79431876D03*
X84248550Y-87431876D03*
X84248550Y-93431876D03*
X84248550Y-100431876D03*
X84248550Y-106431876D03*
X85248550Y-57431876D03*
X85248550Y-60431876D03*
X85248550Y-65431876D03*
X85248550Y-68431876D03*
X85248550Y-75431876D03*
X85248550Y-81431876D03*
X85248550Y-84431876D03*
X85248550Y-89431876D03*
X85248550Y-102431876D03*
X86248550Y-62431876D03*
X86248550Y-77431876D03*
X86248550Y-86431876D03*
X86248550Y-91431876D03*
X86248550Y-99431876D03*
X86248550Y-104431876D03*
X87248550Y-55431876D03*
X87248550Y-58431876D03*
X87248550Y-64431876D03*
X87248550Y-67431876D03*
X87248550Y-71431876D03*
X87248550Y-74431876D03*
X87248550Y-79431876D03*
X87248550Y-82431876D03*
X87248550Y-88431876D03*
X87248550Y-93431876D03*
X87248550Y-97431876D03*
X87248550Y-101431876D03*
X87248550Y-106431876D03*
X88248550Y-60431876D03*
X88248550Y-76431876D03*
X88248550Y-84431876D03*
X88248550Y-90431876D03*
X88248550Y-103431876D03*
X89248550Y-56431876D03*
X89248550Y-62431876D03*
X89248550Y-65431876D03*
X89248550Y-68431876D03*
X89248550Y-72431876D03*
X89248550Y-78431876D03*
X89248550Y-81431876D03*
X89248550Y-86431876D03*
X89248550Y-92431876D03*
X89248550Y-98431876D03*
X89248550Y-105431876D03*
X90248550Y-58431876D03*
X90248550Y-74431876D03*
X90248550Y-83431876D03*
X90248550Y-88431876D03*
X90248550Y-100431876D03*
X91248550Y-55431876D03*
X91248550Y-60431876D03*
X91248550Y-63431876D03*
X91248550Y-66431876D03*
X91248550Y-71431876D03*
X91248550Y-76431876D03*
X91248550Y-79431876D03*
X91248550Y-85431876D03*
X91248550Y-90431876D03*
X91248550Y-93431876D03*
X91248550Y-97431876D03*
X91248550Y-102431876D03*
X91248550Y-106431876D03*
X92248550Y-57431876D03*
X92248550Y-73431876D03*
X92248550Y-81431876D03*
X92248550Y-87431876D03*
X92248550Y-99431876D03*
X92248550Y-104431876D03*
X93248550Y-59431876D03*
X93248550Y-62431876D03*
X93248550Y-65431876D03*
X93248550Y-75431876D03*
X93248550Y-78431876D03*
X93248550Y-83431876D03*
X93248550Y-89431876D03*
X93248550Y-92431876D03*
X93248550Y-101431876D03*
X94248550Y-55431876D03*
X94248550Y-67431876D03*
X94248550Y-71431876D03*
X94248550Y-80431876D03*
X94248550Y-85431876D03*
X94248550Y-97431876D03*
X94248550Y-103431876D03*
X94248550Y-106431876D03*
X95248550Y-57431876D03*
X95248550Y-60431876D03*
X95248550Y-63431876D03*
X95248550Y-73431876D03*
X95248550Y-76431876D03*
X95248550Y-82431876D03*
X95248550Y-87431876D03*
X95248550Y-90431876D03*
X95248550Y-93431876D03*
X95248550Y-99431876D03*
X96248550Y-65431876D03*
X96248550Y-68431876D03*
X96248550Y-78431876D03*
X96248550Y-84431876D03*
X96248550Y-101431876D03*
X96248550Y-104431876D03*
X97248550Y-55431876D03*
X97248550Y-58431876D03*
X97248550Y-61431876D03*
X97248550Y-74431876D03*
X97248550Y-80431876D03*
X97248550Y-86431876D03*
X97248550Y-89431876D03*
X97248550Y-92431876D03*
X97248550Y-106431876D03*
X98248550Y-63431876D03*
X98248550Y-66431876D03*
X98248550Y-76431876D03*
X98248550Y-82431876D03*
X98248550Y-99431876D03*
X98248550Y-102431876D03*
X99248550Y-56431876D03*
X99248550Y-59431876D03*
X99248550Y-68431876D03*
X99248550Y-73431876D03*
X99248550Y-78431876D03*
X99248550Y-84431876D03*
X99248550Y-87431876D03*
X99248550Y-90431876D03*
X99248550Y-93431876D03*
X99248550Y-104431876D03*
X100248550Y-61431876D03*
X100248550Y-64431876D03*
X100248550Y-71431876D03*
X100248550Y-75431876D03*
X100248550Y-80431876D03*
X100248550Y-97431876D03*
X100248550Y-100431876D03*
X100248550Y-106431876D03*
X101248550Y-55431876D03*
X101248550Y-58431876D03*
X101248550Y-66431876D03*
X101248550Y-77431876D03*
X101248550Y-82431876D03*
X101248550Y-85431876D03*
X101248550Y-88431876D03*
X101248550Y-102431876D03*
X102248550Y-60431876D03*
X102248550Y-63431876D03*
X102248550Y-79431876D03*
X102248550Y-104431876D03*
X103248550Y-56431876D03*
X103248550Y-75431876D03*
X103248550Y-81431876D03*
X103248550Y-84431876D03*
X103248550Y-87431876D03*
X103248550Y-100431876D03*
X103248550Y-106431876D03*
X104248550Y-58431876D03*
X104248550Y-61431876D03*
X104248550Y-64431876D03*
X104248550Y-77431876D03*
X104248550Y-89431876D03*
X104248550Y-102431876D03*
X105248550Y-55431876D03*
X105248550Y-79431876D03*
X105248550Y-82431876D03*
X105248550Y-85431876D03*
X105248550Y-104431876D03*
%TD*%
D12*
%TO.N,GND*%
X105527869Y-54014722D02*
X105641246Y-54048953D01*
X105745819Y-54104555D01*
X105837596Y-54179407D01*
X105913091Y-54270664D01*
X105969419Y-54374844D01*
X106004440Y-54487976D01*
X106020000Y-54636022D01*
X106020000Y-65840037D01*
X104860750Y-65842000D01*
X104702000Y-66000750D01*
X104702000Y-67025000D01*
X104722000Y-67025000D01*
X104722000Y-67279000D01*
X104702000Y-67279000D01*
X104702000Y-68303250D01*
X104860750Y-68462000D01*
X106020000Y-68463963D01*
X106020000Y-71490037D01*
X104860750Y-71492000D01*
X104702000Y-71650750D01*
X104702000Y-72675000D01*
X104722000Y-72675000D01*
X104722000Y-72929000D01*
X104702000Y-72929000D01*
X104702000Y-73953250D01*
X104860750Y-74112000D01*
X106020000Y-74113963D01*
X106020001Y-91240037D01*
X104860750Y-91242000D01*
X104702000Y-91400750D01*
X104702000Y-92425000D01*
X104722000Y-92425000D01*
X104722000Y-92679000D01*
X104702000Y-92679000D01*
X104702000Y-93703250D01*
X104860750Y-93862000D01*
X106020001Y-93863963D01*
X106020001Y-96890037D01*
X104860750Y-96892000D01*
X104702000Y-97050750D01*
X104702000Y-98075000D01*
X104722000Y-98075000D01*
X104722000Y-98329000D01*
X104702000Y-98329000D01*
X104702000Y-99353250D01*
X104860750Y-99512000D01*
X106020001Y-99513963D01*
X106020001Y-106647711D01*
X106005278Y-106797869D01*
X105971047Y-106911246D01*
X105915446Y-107015817D01*
X105840594Y-107107595D01*
X105749335Y-107183091D01*
X105645160Y-107239419D01*
X105532024Y-107274440D01*
X105383979Y-107290000D01*
X52102279Y-107290000D01*
X51952131Y-107275278D01*
X51838754Y-107241047D01*
X51734183Y-107185446D01*
X51642405Y-107110594D01*
X51566909Y-107019335D01*
X51510581Y-106915160D01*
X51475560Y-106802024D01*
X51460000Y-106653979D01*
X51460000Y-104466963D01*
X52619250Y-104465000D01*
X52778000Y-104306250D01*
X52778000Y-103282000D01*
X53032000Y-103282000D01*
X53032000Y-104306250D01*
X53190750Y-104465000D01*
X55005000Y-104468072D01*
X55129482Y-104455812D01*
X55249180Y-104419502D01*
X55359494Y-104360537D01*
X55456185Y-104281185D01*
X55535537Y-104184494D01*
X55594502Y-104074180D01*
X55630812Y-103954482D01*
X55643072Y-103830000D01*
X55640000Y-103440750D01*
X55481250Y-103282000D01*
X53032000Y-103282000D01*
X52778000Y-103282000D01*
X52758000Y-103282000D01*
X52758000Y-103028000D01*
X52778000Y-103028000D01*
X52778000Y-102003750D01*
X53032000Y-102003750D01*
X53032000Y-103028000D01*
X55481250Y-103028000D01*
X55640000Y-102869250D01*
X55643072Y-102480000D01*
X55630812Y-102355518D01*
X55594502Y-102235820D01*
X55535537Y-102125506D01*
X55456185Y-102028815D01*
X55359494Y-101949463D01*
X55249180Y-101890498D01*
X55129482Y-101854188D01*
X55005000Y-101841928D01*
X53190750Y-101845000D01*
X53032000Y-102003750D01*
X52778000Y-102003750D01*
X52619250Y-101845000D01*
X51460000Y-101843037D01*
X51460000Y-98877000D01*
X101836928Y-98877000D01*
X101849188Y-99001482D01*
X101885498Y-99121180D01*
X101944463Y-99231494D01*
X102023815Y-99328185D01*
X102120506Y-99407537D01*
X102230820Y-99466502D01*
X102350518Y-99502812D01*
X102475000Y-99515072D01*
X104289250Y-99512000D01*
X104448000Y-99353250D01*
X104448000Y-98329000D01*
X101998750Y-98329000D01*
X101840000Y-98487750D01*
X101836928Y-98877000D01*
X51460000Y-98877000D01*
X51460000Y-98816963D01*
X52619250Y-98815000D01*
X52778000Y-98656250D01*
X52778000Y-97632000D01*
X53032000Y-97632000D01*
X53032000Y-98656250D01*
X53190750Y-98815000D01*
X55005000Y-98818072D01*
X55129482Y-98805812D01*
X55249180Y-98769502D01*
X55359494Y-98710537D01*
X55456185Y-98631185D01*
X55535537Y-98534494D01*
X55594502Y-98424180D01*
X55630812Y-98304482D01*
X55643072Y-98180000D01*
X55640000Y-97790750D01*
X55481250Y-97632000D01*
X53032000Y-97632000D01*
X52778000Y-97632000D01*
X52758000Y-97632000D01*
X52758000Y-97527000D01*
X101836928Y-97527000D01*
X101840000Y-97916250D01*
X101998750Y-98075000D01*
X104448000Y-98075000D01*
X104448000Y-97050750D01*
X104289250Y-96892000D01*
X102475000Y-96888928D01*
X102350518Y-96901188D01*
X102230820Y-96937498D01*
X102120506Y-96996463D01*
X102023815Y-97075815D01*
X101944463Y-97172506D01*
X101885498Y-97282820D01*
X101849188Y-97402518D01*
X101836928Y-97527000D01*
X52758000Y-97527000D01*
X52758000Y-97378000D01*
X52778000Y-97378000D01*
X52778000Y-96353750D01*
X53032000Y-96353750D01*
X53032000Y-97378000D01*
X55481250Y-97378000D01*
X55640000Y-97219250D01*
X55643072Y-96830000D01*
X55630812Y-96705518D01*
X55594502Y-96585820D01*
X55535537Y-96475506D01*
X55456185Y-96378815D01*
X55359494Y-96299463D01*
X55249180Y-96240498D01*
X55129482Y-96204188D01*
X55005000Y-96191928D01*
X53190750Y-96195000D01*
X53032000Y-96353750D01*
X52778000Y-96353750D01*
X52619250Y-96195000D01*
X51460000Y-96193037D01*
X51460000Y-93227000D01*
X101836928Y-93227000D01*
X101849188Y-93351482D01*
X101885498Y-93471180D01*
X101944463Y-93581494D01*
X102023815Y-93678185D01*
X102120506Y-93757537D01*
X102230820Y-93816502D01*
X102350518Y-93852812D01*
X102475000Y-93865072D01*
X104289250Y-93862000D01*
X104448000Y-93703250D01*
X104448000Y-92679000D01*
X101998750Y-92679000D01*
X101840000Y-92837750D01*
X101836928Y-93227000D01*
X51460000Y-93227000D01*
X51460000Y-91877000D01*
X101836928Y-91877000D01*
X101840000Y-92266250D01*
X101998750Y-92425000D01*
X104448000Y-92425000D01*
X104448000Y-91400750D01*
X104289250Y-91242000D01*
X102475000Y-91238928D01*
X102350518Y-91251188D01*
X102230820Y-91287498D01*
X102120506Y-91346463D01*
X102023815Y-91425815D01*
X101944463Y-91522506D01*
X101885498Y-91632820D01*
X101849188Y-91752518D01*
X101836928Y-91877000D01*
X51460000Y-91877000D01*
X51460000Y-91766963D01*
X52619250Y-91765000D01*
X52778000Y-91606250D01*
X52778000Y-90582000D01*
X53032000Y-90582000D01*
X53032000Y-91606250D01*
X53190750Y-91765000D01*
X55005000Y-91768072D01*
X55129482Y-91755812D01*
X55249180Y-91719502D01*
X55359494Y-91660537D01*
X55456185Y-91581185D01*
X55535537Y-91484494D01*
X55594502Y-91374180D01*
X55630812Y-91254482D01*
X55643072Y-91130000D01*
X55640000Y-90740750D01*
X55481250Y-90582000D01*
X53032000Y-90582000D01*
X52778000Y-90582000D01*
X52758000Y-90582000D01*
X52758000Y-90328000D01*
X52778000Y-90328000D01*
X52778000Y-89303750D01*
X53032000Y-89303750D01*
X53032000Y-90328000D01*
X55481250Y-90328000D01*
X55640000Y-90169250D01*
X55643072Y-89780000D01*
X55630812Y-89655518D01*
X55594502Y-89535820D01*
X55535537Y-89425506D01*
X55456185Y-89328815D01*
X55359494Y-89249463D01*
X55249180Y-89190498D01*
X55129482Y-89154188D01*
X55005000Y-89141928D01*
X53190750Y-89145000D01*
X53032000Y-89303750D01*
X52778000Y-89303750D01*
X52619250Y-89145000D01*
X51460000Y-89143037D01*
X51460000Y-86116963D01*
X52619250Y-86115000D01*
X52778000Y-85956250D01*
X52778000Y-84932000D01*
X53032000Y-84932000D01*
X53032000Y-85956250D01*
X53190750Y-86115000D01*
X55005000Y-86118072D01*
X55129482Y-86105812D01*
X55249180Y-86069502D01*
X55359494Y-86010537D01*
X55456185Y-85931185D01*
X55535537Y-85834494D01*
X55594502Y-85724180D01*
X55630812Y-85604482D01*
X55643072Y-85480000D01*
X55640000Y-85090750D01*
X55481250Y-84932000D01*
X53032000Y-84932000D01*
X52778000Y-84932000D01*
X52758000Y-84932000D01*
X52758000Y-84678000D01*
X52778000Y-84678000D01*
X52778000Y-83653750D01*
X53032000Y-83653750D01*
X53032000Y-84678000D01*
X55481250Y-84678000D01*
X55640000Y-84519250D01*
X55643072Y-84130000D01*
X55630812Y-84005518D01*
X55594502Y-83885820D01*
X55535537Y-83775506D01*
X55456185Y-83678815D01*
X55359494Y-83599463D01*
X55249180Y-83540498D01*
X55129482Y-83504188D01*
X55005000Y-83491928D01*
X53190750Y-83495000D01*
X53032000Y-83653750D01*
X52778000Y-83653750D01*
X52619250Y-83495000D01*
X51460000Y-83493037D01*
X51460000Y-79066963D01*
X52619250Y-79065000D01*
X52778000Y-78906250D01*
X52778000Y-77882000D01*
X53032000Y-77882000D01*
X53032000Y-78906250D01*
X53190750Y-79065000D01*
X55005000Y-79068072D01*
X55129482Y-79055812D01*
X55249180Y-79019502D01*
X55359494Y-78960537D01*
X55456185Y-78881185D01*
X55535537Y-78784494D01*
X55594502Y-78674180D01*
X55630812Y-78554482D01*
X55643072Y-78430000D01*
X55640000Y-78040750D01*
X55481250Y-77882000D01*
X53032000Y-77882000D01*
X52778000Y-77882000D01*
X52758000Y-77882000D01*
X52758000Y-77628000D01*
X52778000Y-77628000D01*
X52778000Y-76603750D01*
X53032000Y-76603750D01*
X53032000Y-77628000D01*
X55481250Y-77628000D01*
X55640000Y-77469250D01*
X55643072Y-77080000D01*
X55630812Y-76955518D01*
X55594502Y-76835820D01*
X55535537Y-76725506D01*
X55456185Y-76628815D01*
X55359494Y-76549463D01*
X55249180Y-76490498D01*
X55129482Y-76454188D01*
X55005000Y-76441928D01*
X53190750Y-76445000D01*
X53032000Y-76603750D01*
X52778000Y-76603750D01*
X52619250Y-76445000D01*
X51460000Y-76443037D01*
X51460000Y-73477000D01*
X101836928Y-73477000D01*
X101849188Y-73601482D01*
X101885498Y-73721180D01*
X101944463Y-73831494D01*
X102023815Y-73928185D01*
X102120506Y-74007537D01*
X102230820Y-74066502D01*
X102350518Y-74102812D01*
X102475000Y-74115072D01*
X104289250Y-74112000D01*
X104448000Y-73953250D01*
X104448000Y-72929000D01*
X101998750Y-72929000D01*
X101840000Y-73087750D01*
X101836928Y-73477000D01*
X51460000Y-73477000D01*
X51460000Y-73416963D01*
X52619250Y-73415000D01*
X52778000Y-73256250D01*
X52778000Y-72232000D01*
X53032000Y-72232000D01*
X53032000Y-73256250D01*
X53190750Y-73415000D01*
X55005000Y-73418072D01*
X55129482Y-73405812D01*
X55249180Y-73369502D01*
X55359494Y-73310537D01*
X55456185Y-73231185D01*
X55535537Y-73134494D01*
X55594502Y-73024180D01*
X55630812Y-72904482D01*
X55643072Y-72780000D01*
X55640000Y-72390750D01*
X55481250Y-72232000D01*
X53032000Y-72232000D01*
X52778000Y-72232000D01*
X52758000Y-72232000D01*
X52758000Y-72127000D01*
X101836928Y-72127000D01*
X101840000Y-72516250D01*
X101998750Y-72675000D01*
X104448000Y-72675000D01*
X104448000Y-71650750D01*
X104289250Y-71492000D01*
X102475000Y-71488928D01*
X102350518Y-71501188D01*
X102230820Y-71537498D01*
X102120506Y-71596463D01*
X102023815Y-71675815D01*
X101944463Y-71772506D01*
X101885498Y-71882820D01*
X101849188Y-72002518D01*
X101836928Y-72127000D01*
X52758000Y-72127000D01*
X52758000Y-71978000D01*
X52778000Y-71978000D01*
X52778000Y-70953750D01*
X53032000Y-70953750D01*
X53032000Y-71978000D01*
X55481250Y-71978000D01*
X55640000Y-71819250D01*
X55643072Y-71430000D01*
X55630812Y-71305518D01*
X55594502Y-71185820D01*
X55535537Y-71075506D01*
X55456185Y-70978815D01*
X55359494Y-70899463D01*
X55249180Y-70840498D01*
X55129482Y-70804188D01*
X55005000Y-70791928D01*
X53190750Y-70795000D01*
X53032000Y-70953750D01*
X52778000Y-70953750D01*
X52619250Y-70795000D01*
X51460000Y-70793037D01*
X51460000Y-67827000D01*
X101836928Y-67827000D01*
X101849188Y-67951482D01*
X101885498Y-68071180D01*
X101944463Y-68181494D01*
X102023815Y-68278185D01*
X102120506Y-68357537D01*
X102230820Y-68416502D01*
X102350518Y-68452812D01*
X102475000Y-68465072D01*
X104289250Y-68462000D01*
X104448000Y-68303250D01*
X104448000Y-67279000D01*
X101998750Y-67279000D01*
X101840000Y-67437750D01*
X101836928Y-67827000D01*
X51460000Y-67827000D01*
X51460000Y-66477000D01*
X101836928Y-66477000D01*
X101840000Y-66866250D01*
X101998750Y-67025000D01*
X104448000Y-67025000D01*
X104448000Y-66000750D01*
X104289250Y-65842000D01*
X102475000Y-65838928D01*
X102350518Y-65851188D01*
X102230820Y-65887498D01*
X102120506Y-65946463D01*
X102023815Y-66025815D01*
X101944463Y-66122506D01*
X101885498Y-66232820D01*
X101849188Y-66352518D01*
X101836928Y-66477000D01*
X51460000Y-66477000D01*
X51460000Y-66366963D01*
X52619250Y-66365000D01*
X52778000Y-66206250D01*
X52778000Y-65182000D01*
X53032000Y-65182000D01*
X53032000Y-66206250D01*
X53190750Y-66365000D01*
X55005000Y-66368072D01*
X55129482Y-66355812D01*
X55249180Y-66319502D01*
X55359494Y-66260537D01*
X55456185Y-66181185D01*
X55535537Y-66084494D01*
X55594502Y-65974180D01*
X55630812Y-65854482D01*
X55643072Y-65730000D01*
X55640000Y-65340750D01*
X55481250Y-65182000D01*
X53032000Y-65182000D01*
X52778000Y-65182000D01*
X52758000Y-65182000D01*
X52758000Y-64928000D01*
X52778000Y-64928000D01*
X52778000Y-63903750D01*
X53032000Y-63903750D01*
X53032000Y-64928000D01*
X55481250Y-64928000D01*
X55640000Y-64769250D01*
X55643072Y-64380000D01*
X55630812Y-64255518D01*
X55594502Y-64135820D01*
X55535537Y-64025506D01*
X55456185Y-63928815D01*
X55359494Y-63849463D01*
X55249180Y-63790498D01*
X55129482Y-63754188D01*
X55005000Y-63741928D01*
X53190750Y-63745000D01*
X53032000Y-63903750D01*
X52778000Y-63903750D01*
X52619250Y-63745000D01*
X51460000Y-63743037D01*
X51460000Y-60716963D01*
X52619250Y-60715000D01*
X52778000Y-60556250D01*
X52778000Y-59532000D01*
X53032000Y-59532000D01*
X53032000Y-60556250D01*
X53190750Y-60715000D01*
X55005000Y-60718072D01*
X55129482Y-60705812D01*
X55249180Y-60669502D01*
X55359494Y-60610537D01*
X55456185Y-60531185D01*
X55535537Y-60434494D01*
X55594502Y-60324180D01*
X55630812Y-60204482D01*
X55643072Y-60080000D01*
X55640000Y-59690750D01*
X55481250Y-59532000D01*
X53032000Y-59532000D01*
X52778000Y-59532000D01*
X52758000Y-59532000D01*
X52758000Y-59278000D01*
X52778000Y-59278000D01*
X52778000Y-58253750D01*
X53032000Y-58253750D01*
X53032000Y-59278000D01*
X55481250Y-59278000D01*
X55640000Y-59119250D01*
X55643072Y-58730000D01*
X55630812Y-58605518D01*
X55594502Y-58485820D01*
X55535537Y-58375506D01*
X55456185Y-58278815D01*
X55359494Y-58199463D01*
X55249180Y-58140498D01*
X55129482Y-58104188D01*
X55005000Y-58091928D01*
X53190750Y-58095000D01*
X53032000Y-58253750D01*
X52778000Y-58253750D01*
X52619250Y-58095000D01*
X51460000Y-58093037D01*
X51460000Y-54642279D01*
X51474722Y-54492131D01*
X51508953Y-54378754D01*
X51564555Y-54274181D01*
X51639407Y-54182404D01*
X51730664Y-54106909D01*
X51834844Y-54050581D01*
X51947976Y-54015560D01*
X52096022Y-54000000D01*
X105377721Y-54000000D01*
X105527869Y-54014722D01*
%TA.AperFunction,Conductor*%
D13*
G36*
X105527869Y-54014722D02*
G01*
X105641246Y-54048953D01*
X105745819Y-54104555D01*
X105837596Y-54179407D01*
X105913091Y-54270664D01*
X105969419Y-54374844D01*
X106004440Y-54487976D01*
X106020000Y-54636022D01*
X106020000Y-65840037D01*
X104860750Y-65842000D01*
X104702000Y-66000750D01*
X104702000Y-67025000D01*
X104722000Y-67025000D01*
X104722000Y-67279000D01*
X104702000Y-67279000D01*
X104702000Y-68303250D01*
X104860750Y-68462000D01*
X106020000Y-68463963D01*
X106020000Y-71490037D01*
X104860750Y-71492000D01*
X104702000Y-71650750D01*
X104702000Y-72675000D01*
X104722000Y-72675000D01*
X104722000Y-72929000D01*
X104702000Y-72929000D01*
X104702000Y-73953250D01*
X104860750Y-74112000D01*
X106020000Y-74113963D01*
X106020001Y-91240037D01*
X104860750Y-91242000D01*
X104702000Y-91400750D01*
X104702000Y-92425000D01*
X104722000Y-92425000D01*
X104722000Y-92679000D01*
X104702000Y-92679000D01*
X104702000Y-93703250D01*
X104860750Y-93862000D01*
X106020001Y-93863963D01*
X106020001Y-96890037D01*
X104860750Y-96892000D01*
X104702000Y-97050750D01*
X104702000Y-98075000D01*
X104722000Y-98075000D01*
X104722000Y-98329000D01*
X104702000Y-98329000D01*
X104702000Y-99353250D01*
X104860750Y-99512000D01*
X106020001Y-99513963D01*
X106020001Y-106647711D01*
X106005278Y-106797869D01*
X105971047Y-106911246D01*
X105915446Y-107015817D01*
X105840594Y-107107595D01*
X105749335Y-107183091D01*
X105645160Y-107239419D01*
X105532024Y-107274440D01*
X105383979Y-107290000D01*
X52102279Y-107290000D01*
X51952131Y-107275278D01*
X51838754Y-107241047D01*
X51734183Y-107185446D01*
X51642405Y-107110594D01*
X51566909Y-107019335D01*
X51510581Y-106915160D01*
X51475560Y-106802024D01*
X51460000Y-106653979D01*
X51460000Y-104466963D01*
X52619250Y-104465000D01*
X52778000Y-104306250D01*
X52778000Y-103282000D01*
X53032000Y-103282000D01*
X53032000Y-104306250D01*
X53190750Y-104465000D01*
X55005000Y-104468072D01*
X55129482Y-104455812D01*
X55249180Y-104419502D01*
X55359494Y-104360537D01*
X55456185Y-104281185D01*
X55535537Y-104184494D01*
X55594502Y-104074180D01*
X55630812Y-103954482D01*
X55643072Y-103830000D01*
X55640000Y-103440750D01*
X55481250Y-103282000D01*
X53032000Y-103282000D01*
X52778000Y-103282000D01*
X52758000Y-103282000D01*
X52758000Y-103028000D01*
X52778000Y-103028000D01*
X52778000Y-102003750D01*
X53032000Y-102003750D01*
X53032000Y-103028000D01*
X55481250Y-103028000D01*
X55640000Y-102869250D01*
X55643072Y-102480000D01*
X55630812Y-102355518D01*
X55594502Y-102235820D01*
X55535537Y-102125506D01*
X55456185Y-102028815D01*
X55359494Y-101949463D01*
X55249180Y-101890498D01*
X55129482Y-101854188D01*
X55005000Y-101841928D01*
X53190750Y-101845000D01*
X53032000Y-102003750D01*
X52778000Y-102003750D01*
X52619250Y-101845000D01*
X51460000Y-101843037D01*
X51460000Y-98877000D01*
X101836928Y-98877000D01*
X101849188Y-99001482D01*
X101885498Y-99121180D01*
X101944463Y-99231494D01*
X102023815Y-99328185D01*
X102120506Y-99407537D01*
X102230820Y-99466502D01*
X102350518Y-99502812D01*
X102475000Y-99515072D01*
X104289250Y-99512000D01*
X104448000Y-99353250D01*
X104448000Y-98329000D01*
X101998750Y-98329000D01*
X101840000Y-98487750D01*
X101836928Y-98877000D01*
X51460000Y-98877000D01*
X51460000Y-98816963D01*
X52619250Y-98815000D01*
X52778000Y-98656250D01*
X52778000Y-97632000D01*
X53032000Y-97632000D01*
X53032000Y-98656250D01*
X53190750Y-98815000D01*
X55005000Y-98818072D01*
X55129482Y-98805812D01*
X55249180Y-98769502D01*
X55359494Y-98710537D01*
X55456185Y-98631185D01*
X55535537Y-98534494D01*
X55594502Y-98424180D01*
X55630812Y-98304482D01*
X55643072Y-98180000D01*
X55640000Y-97790750D01*
X55481250Y-97632000D01*
X53032000Y-97632000D01*
X52778000Y-97632000D01*
X52758000Y-97632000D01*
X52758000Y-97527000D01*
X101836928Y-97527000D01*
X101840000Y-97916250D01*
X101998750Y-98075000D01*
X104448000Y-98075000D01*
X104448000Y-97050750D01*
X104289250Y-96892000D01*
X102475000Y-96888928D01*
X102350518Y-96901188D01*
X102230820Y-96937498D01*
X102120506Y-96996463D01*
X102023815Y-97075815D01*
X101944463Y-97172506D01*
X101885498Y-97282820D01*
X101849188Y-97402518D01*
X101836928Y-97527000D01*
X52758000Y-97527000D01*
X52758000Y-97378000D01*
X52778000Y-97378000D01*
X52778000Y-96353750D01*
X53032000Y-96353750D01*
X53032000Y-97378000D01*
X55481250Y-97378000D01*
X55640000Y-97219250D01*
X55643072Y-96830000D01*
X55630812Y-96705518D01*
X55594502Y-96585820D01*
X55535537Y-96475506D01*
X55456185Y-96378815D01*
X55359494Y-96299463D01*
X55249180Y-96240498D01*
X55129482Y-96204188D01*
X55005000Y-96191928D01*
X53190750Y-96195000D01*
X53032000Y-96353750D01*
X52778000Y-96353750D01*
X52619250Y-96195000D01*
X51460000Y-96193037D01*
X51460000Y-93227000D01*
X101836928Y-93227000D01*
X101849188Y-93351482D01*
X101885498Y-93471180D01*
X101944463Y-93581494D01*
X102023815Y-93678185D01*
X102120506Y-93757537D01*
X102230820Y-93816502D01*
X102350518Y-93852812D01*
X102475000Y-93865072D01*
X104289250Y-93862000D01*
X104448000Y-93703250D01*
X104448000Y-92679000D01*
X101998750Y-92679000D01*
X101840000Y-92837750D01*
X101836928Y-93227000D01*
X51460000Y-93227000D01*
X51460000Y-91877000D01*
X101836928Y-91877000D01*
X101840000Y-92266250D01*
X101998750Y-92425000D01*
X104448000Y-92425000D01*
X104448000Y-91400750D01*
X104289250Y-91242000D01*
X102475000Y-91238928D01*
X102350518Y-91251188D01*
X102230820Y-91287498D01*
X102120506Y-91346463D01*
X102023815Y-91425815D01*
X101944463Y-91522506D01*
X101885498Y-91632820D01*
X101849188Y-91752518D01*
X101836928Y-91877000D01*
X51460000Y-91877000D01*
X51460000Y-91766963D01*
X52619250Y-91765000D01*
X52778000Y-91606250D01*
X52778000Y-90582000D01*
X53032000Y-90582000D01*
X53032000Y-91606250D01*
X53190750Y-91765000D01*
X55005000Y-91768072D01*
X55129482Y-91755812D01*
X55249180Y-91719502D01*
X55359494Y-91660537D01*
X55456185Y-91581185D01*
X55535537Y-91484494D01*
X55594502Y-91374180D01*
X55630812Y-91254482D01*
X55643072Y-91130000D01*
X55640000Y-90740750D01*
X55481250Y-90582000D01*
X53032000Y-90582000D01*
X52778000Y-90582000D01*
X52758000Y-90582000D01*
X52758000Y-90328000D01*
X52778000Y-90328000D01*
X52778000Y-89303750D01*
X53032000Y-89303750D01*
X53032000Y-90328000D01*
X55481250Y-90328000D01*
X55640000Y-90169250D01*
X55643072Y-89780000D01*
X55630812Y-89655518D01*
X55594502Y-89535820D01*
X55535537Y-89425506D01*
X55456185Y-89328815D01*
X55359494Y-89249463D01*
X55249180Y-89190498D01*
X55129482Y-89154188D01*
X55005000Y-89141928D01*
X53190750Y-89145000D01*
X53032000Y-89303750D01*
X52778000Y-89303750D01*
X52619250Y-89145000D01*
X51460000Y-89143037D01*
X51460000Y-86116963D01*
X52619250Y-86115000D01*
X52778000Y-85956250D01*
X52778000Y-84932000D01*
X53032000Y-84932000D01*
X53032000Y-85956250D01*
X53190750Y-86115000D01*
X55005000Y-86118072D01*
X55129482Y-86105812D01*
X55249180Y-86069502D01*
X55359494Y-86010537D01*
X55456185Y-85931185D01*
X55535537Y-85834494D01*
X55594502Y-85724180D01*
X55630812Y-85604482D01*
X55643072Y-85480000D01*
X55640000Y-85090750D01*
X55481250Y-84932000D01*
X53032000Y-84932000D01*
X52778000Y-84932000D01*
X52758000Y-84932000D01*
X52758000Y-84678000D01*
X52778000Y-84678000D01*
X52778000Y-83653750D01*
X53032000Y-83653750D01*
X53032000Y-84678000D01*
X55481250Y-84678000D01*
X55640000Y-84519250D01*
X55643072Y-84130000D01*
X55630812Y-84005518D01*
X55594502Y-83885820D01*
X55535537Y-83775506D01*
X55456185Y-83678815D01*
X55359494Y-83599463D01*
X55249180Y-83540498D01*
X55129482Y-83504188D01*
X55005000Y-83491928D01*
X53190750Y-83495000D01*
X53032000Y-83653750D01*
X52778000Y-83653750D01*
X52619250Y-83495000D01*
X51460000Y-83493037D01*
X51460000Y-79066963D01*
X52619250Y-79065000D01*
X52778000Y-78906250D01*
X52778000Y-77882000D01*
X53032000Y-77882000D01*
X53032000Y-78906250D01*
X53190750Y-79065000D01*
X55005000Y-79068072D01*
X55129482Y-79055812D01*
X55249180Y-79019502D01*
X55359494Y-78960537D01*
X55456185Y-78881185D01*
X55535537Y-78784494D01*
X55594502Y-78674180D01*
X55630812Y-78554482D01*
X55643072Y-78430000D01*
X55640000Y-78040750D01*
X55481250Y-77882000D01*
X53032000Y-77882000D01*
X52778000Y-77882000D01*
X52758000Y-77882000D01*
X52758000Y-77628000D01*
X52778000Y-77628000D01*
X52778000Y-76603750D01*
X53032000Y-76603750D01*
X53032000Y-77628000D01*
X55481250Y-77628000D01*
X55640000Y-77469250D01*
X55643072Y-77080000D01*
X55630812Y-76955518D01*
X55594502Y-76835820D01*
X55535537Y-76725506D01*
X55456185Y-76628815D01*
X55359494Y-76549463D01*
X55249180Y-76490498D01*
X55129482Y-76454188D01*
X55005000Y-76441928D01*
X53190750Y-76445000D01*
X53032000Y-76603750D01*
X52778000Y-76603750D01*
X52619250Y-76445000D01*
X51460000Y-76443037D01*
X51460000Y-73477000D01*
X101836928Y-73477000D01*
X101849188Y-73601482D01*
X101885498Y-73721180D01*
X101944463Y-73831494D01*
X102023815Y-73928185D01*
X102120506Y-74007537D01*
X102230820Y-74066502D01*
X102350518Y-74102812D01*
X102475000Y-74115072D01*
X104289250Y-74112000D01*
X104448000Y-73953250D01*
X104448000Y-72929000D01*
X101998750Y-72929000D01*
X101840000Y-73087750D01*
X101836928Y-73477000D01*
X51460000Y-73477000D01*
X51460000Y-73416963D01*
X52619250Y-73415000D01*
X52778000Y-73256250D01*
X52778000Y-72232000D01*
X53032000Y-72232000D01*
X53032000Y-73256250D01*
X53190750Y-73415000D01*
X55005000Y-73418072D01*
X55129482Y-73405812D01*
X55249180Y-73369502D01*
X55359494Y-73310537D01*
X55456185Y-73231185D01*
X55535537Y-73134494D01*
X55594502Y-73024180D01*
X55630812Y-72904482D01*
X55643072Y-72780000D01*
X55640000Y-72390750D01*
X55481250Y-72232000D01*
X53032000Y-72232000D01*
X52778000Y-72232000D01*
X52758000Y-72232000D01*
X52758000Y-72127000D01*
X101836928Y-72127000D01*
X101840000Y-72516250D01*
X101998750Y-72675000D01*
X104448000Y-72675000D01*
X104448000Y-71650750D01*
X104289250Y-71492000D01*
X102475000Y-71488928D01*
X102350518Y-71501188D01*
X102230820Y-71537498D01*
X102120506Y-71596463D01*
X102023815Y-71675815D01*
X101944463Y-71772506D01*
X101885498Y-71882820D01*
X101849188Y-72002518D01*
X101836928Y-72127000D01*
X52758000Y-72127000D01*
X52758000Y-71978000D01*
X52778000Y-71978000D01*
X52778000Y-70953750D01*
X53032000Y-70953750D01*
X53032000Y-71978000D01*
X55481250Y-71978000D01*
X55640000Y-71819250D01*
X55643072Y-71430000D01*
X55630812Y-71305518D01*
X55594502Y-71185820D01*
X55535537Y-71075506D01*
X55456185Y-70978815D01*
X55359494Y-70899463D01*
X55249180Y-70840498D01*
X55129482Y-70804188D01*
X55005000Y-70791928D01*
X53190750Y-70795000D01*
X53032000Y-70953750D01*
X52778000Y-70953750D01*
X52619250Y-70795000D01*
X51460000Y-70793037D01*
X51460000Y-67827000D01*
X101836928Y-67827000D01*
X101849188Y-67951482D01*
X101885498Y-68071180D01*
X101944463Y-68181494D01*
X102023815Y-68278185D01*
X102120506Y-68357537D01*
X102230820Y-68416502D01*
X102350518Y-68452812D01*
X102475000Y-68465072D01*
X104289250Y-68462000D01*
X104448000Y-68303250D01*
X104448000Y-67279000D01*
X101998750Y-67279000D01*
X101840000Y-67437750D01*
X101836928Y-67827000D01*
X51460000Y-67827000D01*
X51460000Y-66477000D01*
X101836928Y-66477000D01*
X101840000Y-66866250D01*
X101998750Y-67025000D01*
X104448000Y-67025000D01*
X104448000Y-66000750D01*
X104289250Y-65842000D01*
X102475000Y-65838928D01*
X102350518Y-65851188D01*
X102230820Y-65887498D01*
X102120506Y-65946463D01*
X102023815Y-66025815D01*
X101944463Y-66122506D01*
X101885498Y-66232820D01*
X101849188Y-66352518D01*
X101836928Y-66477000D01*
X51460000Y-66477000D01*
X51460000Y-66366963D01*
X52619250Y-66365000D01*
X52778000Y-66206250D01*
X52778000Y-65182000D01*
X53032000Y-65182000D01*
X53032000Y-66206250D01*
X53190750Y-66365000D01*
X55005000Y-66368072D01*
X55129482Y-66355812D01*
X55249180Y-66319502D01*
X55359494Y-66260537D01*
X55456185Y-66181185D01*
X55535537Y-66084494D01*
X55594502Y-65974180D01*
X55630812Y-65854482D01*
X55643072Y-65730000D01*
X55640000Y-65340750D01*
X55481250Y-65182000D01*
X53032000Y-65182000D01*
X52778000Y-65182000D01*
X52758000Y-65182000D01*
X52758000Y-64928000D01*
X52778000Y-64928000D01*
X52778000Y-63903750D01*
X53032000Y-63903750D01*
X53032000Y-64928000D01*
X55481250Y-64928000D01*
X55640000Y-64769250D01*
X55643072Y-64380000D01*
X55630812Y-64255518D01*
X55594502Y-64135820D01*
X55535537Y-64025506D01*
X55456185Y-63928815D01*
X55359494Y-63849463D01*
X55249180Y-63790498D01*
X55129482Y-63754188D01*
X55005000Y-63741928D01*
X53190750Y-63745000D01*
X53032000Y-63903750D01*
X52778000Y-63903750D01*
X52619250Y-63745000D01*
X51460000Y-63743037D01*
X51460000Y-60716963D01*
X52619250Y-60715000D01*
X52778000Y-60556250D01*
X52778000Y-59532000D01*
X53032000Y-59532000D01*
X53032000Y-60556250D01*
X53190750Y-60715000D01*
X55005000Y-60718072D01*
X55129482Y-60705812D01*
X55249180Y-60669502D01*
X55359494Y-60610537D01*
X55456185Y-60531185D01*
X55535537Y-60434494D01*
X55594502Y-60324180D01*
X55630812Y-60204482D01*
X55643072Y-60080000D01*
X55640000Y-59690750D01*
X55481250Y-59532000D01*
X53032000Y-59532000D01*
X52778000Y-59532000D01*
X52758000Y-59532000D01*
X52758000Y-59278000D01*
X52778000Y-59278000D01*
X52778000Y-58253750D01*
X53032000Y-58253750D01*
X53032000Y-59278000D01*
X55481250Y-59278000D01*
X55640000Y-59119250D01*
X55643072Y-58730000D01*
X55630812Y-58605518D01*
X55594502Y-58485820D01*
X55535537Y-58375506D01*
X55456185Y-58278815D01*
X55359494Y-58199463D01*
X55249180Y-58140498D01*
X55129482Y-58104188D01*
X55005000Y-58091928D01*
X53190750Y-58095000D01*
X53032000Y-58253750D01*
X52778000Y-58253750D01*
X52619250Y-58095000D01*
X51460000Y-58093037D01*
X51460000Y-54642279D01*
X51474722Y-54492131D01*
X51508953Y-54378754D01*
X51564555Y-54274181D01*
X51639407Y-54182404D01*
X51730664Y-54106909D01*
X51834844Y-54050581D01*
X51947976Y-54015560D01*
X52096022Y-54000000D01*
X105377721Y-54000000D01*
X105527869Y-54014722D01*
G37*
%TD.AperFunction*%
%TD*%
M02*
