M48
; DRILL file {KiCad (5.1.9)-1} date 03/17/21 18:41:47
; FORMAT={-:-/ absolute / inch / decimal}
; #@! TF.CreationDate,2021-03-17T18:41:47-04:00
; #@! TF.GenerationSoftware,Kicad,Pcbnew,(5.1.9)-1
; #@! TF.FileFunction,Plated,1,2,PTH
FMAT,2
INCH
T1C0.0157
%
G90
G05
T1
X2.2714Y-2.1824
X2.2714Y-2.6942
X2.2714Y-3.1666
X2.2714Y-3.6784
X2.4289Y-2.3005
X2.4289Y-2.5761
X2.4289Y-2.8516
X2.4289Y-3.2847
X2.4289Y-3.5603
X2.4289Y-3.8359
X2.4289Y-4.1115
X2.5076Y-3.0485
X2.5864Y-2.1824
X2.5864Y-2.6942
X2.5864Y-3.6784
X2.6257Y-3.206
X2.6257Y-4.0328
X2.6651Y-2.3792
X2.7045Y-3.4028
X2.7438Y-2.9698
X2.7832Y-4.1509
X2.8226Y-2.2217
X2.8226Y-2.4973
X2.8226Y-3.9146
X2.862Y-3.1272
X2.862Y-3.5209
X2.9407Y-3.3241
X2.9801Y-2.3398
X2.9801Y-2.891
X2.9801Y-4.0328
X3.0588Y-2.5367
X3.0588Y-3.5997
X3.0982Y-2.1824
X3.0982Y-3.0485
X3.0982Y-3.8359
X3.1375Y-3.4028
X3.1375Y-4.1509
X3.2163Y-2.3792
X3.2163Y-2.6548
X3.2163Y-3.206
X3.2557Y-2.891
X3.2557Y-3.6784
X3.2557Y-3.954
X3.3344Y-2.2217
X3.3344Y-3.4816
X3.3738Y-2.4973
X3.3738Y-3.0485
X3.3738Y-4.1115
X3.4131Y-3.2847
X3.4525Y-2.6942
X3.4525Y-3.8359
X3.4919Y-2.3398
X3.4919Y-3.5997
X3.5312Y-2.891
X3.5706Y-3.1272
X3.5706Y-3.4028
X3.5706Y-3.9934
X3.61Y-2.1824
X3.61Y-2.5367
X3.6887Y-3.6784
X3.6887Y-4.1509
X3.7281Y-2.3792
X3.7281Y-2.8123
X3.7281Y-3.2453
X3.7675Y-3.4816
X3.7675Y-3.8753
X3.8068Y-2.6154
X3.8068Y-3.0091
X3.8462Y-2.2217
X3.8856Y-4.0328
X3.9249Y-2.4579
X3.9249Y-3.1666
X3.9249Y-3.5997
X3.9643Y-2.8516
X4.0037Y-3.3635
X4.0431Y-2.3005
X4.0431Y-4.1509
X4.0824Y-3.0091
X4.1218Y-2.5367
X4.1218Y-3.5209
T0
M30
