%TF.GenerationSoftware,KiCad,Pcbnew,(5.1.9)-1*%
%TF.CreationDate,2021-03-17T18:41:45-04:00*%
%TF.ProjectId,BalunAndLowPass,42616c75-6e41-46e6-944c-6f7750617373,rev?*%
%TF.SameCoordinates,Original*%
%TF.FileFunction,Copper,L2,Bot*%
%TF.FilePolarity,Positive*%
%FSLAX46Y46*%
G04 Gerber Fmt 4.6, Leading zero omitted, Abs format (unit mm)*
G04 Created by KiCad (PCBNEW (5.1.9)-1) date 2021-03-17 18:41:45*
%MOMM*%
%LPD*%
G01*
G04 APERTURE LIST*
%TA.AperFunction,SMDPad,CuDef*%
%ADD10R,4.200000X1.750000*%
%TD*%
%TA.AperFunction,ViaPad*%
%ADD11C,0.800000*%
%TD*%
%TA.AperFunction,Conductor*%
%ADD12C,0.254000*%
%TD*%
%TA.AperFunction,Conductor*%
%ADD13C,0.100000*%
%TD*%
G04 APERTURE END LIST*
D10*
%TO.P,J6,3_2*%
%TO.N,GND*%
X104575000Y-92552000D03*
%TO.P,J6,2_2*%
X104575000Y-98202000D03*
%TD*%
%TO.P,J5,3_2*%
%TO.N,GND*%
X104575000Y-67152000D03*
%TO.P,J5,2_2*%
X104575000Y-72802000D03*
%TD*%
%TO.P,J4,3_2*%
%TO.N,GND*%
X57985000Y-90455000D03*
%TO.P,J4,2_2*%
X57985000Y-84805000D03*
%TD*%
%TO.P,J3,3_2*%
%TO.N,GND*%
X57985000Y-103155000D03*
%TO.P,J3,2_2*%
X57985000Y-97505000D03*
%TD*%
%TO.P,J2,3_2*%
%TO.N,GND*%
X57985000Y-65055000D03*
%TO.P,J2,2_2*%
X57985000Y-59405000D03*
%TD*%
%TO.P,J1,3_2*%
%TO.N,GND*%
X57985000Y-77755000D03*
%TO.P,J1,2_2*%
X57985000Y-72105000D03*
%TD*%
D11*
%TO.N,GND*%
X57693550Y-55431876D03*
X57693550Y-68431876D03*
X57693550Y-80431876D03*
X57693550Y-93431876D03*
X61693550Y-58431876D03*
X61693550Y-65431876D03*
X61693550Y-72431876D03*
X61693550Y-83431876D03*
X61693550Y-90431876D03*
X61693550Y-97431876D03*
X61693550Y-104431876D03*
X63693550Y-77431876D03*
X65693550Y-55431876D03*
X65693550Y-68431876D03*
X65693550Y-93431876D03*
X66693550Y-81431876D03*
X66693550Y-102431876D03*
X67693550Y-60431876D03*
X68693550Y-86431876D03*
X69693550Y-75431876D03*
X70693550Y-105431876D03*
X71693550Y-56431876D03*
X71693550Y-63431876D03*
X71693550Y-99431876D03*
X72693550Y-79431876D03*
X72693550Y-89431876D03*
X74693550Y-84431876D03*
X75693550Y-59431876D03*
X75693550Y-73431876D03*
X75693550Y-102431876D03*
X77693550Y-64431876D03*
X77693550Y-91431876D03*
X78693550Y-55431876D03*
X78693550Y-77431876D03*
X78693550Y-97431876D03*
X79693550Y-86431876D03*
X79693550Y-105431876D03*
X81693550Y-60431876D03*
X81693550Y-67431876D03*
X81693550Y-81431876D03*
X82693550Y-73431876D03*
X82693550Y-93431876D03*
X82693550Y-100431876D03*
X84693550Y-56431876D03*
X84693550Y-88431876D03*
X85693550Y-63431876D03*
X85693550Y-77431876D03*
X85693550Y-104431876D03*
X86693550Y-83431876D03*
X87693550Y-68431876D03*
X87693550Y-97431876D03*
X88693550Y-59431876D03*
X88693550Y-91431876D03*
X89693550Y-73431876D03*
X90693550Y-79431876D03*
X90693550Y-86431876D03*
X90693550Y-101431876D03*
X91693550Y-55431876D03*
X91693550Y-64431876D03*
X93693550Y-93431876D03*
X93693550Y-105431876D03*
X94693550Y-60431876D03*
X94693550Y-71431876D03*
X94693550Y-82431876D03*
X95693550Y-88431876D03*
X95693550Y-98431876D03*
X96693550Y-66431876D03*
X96693550Y-76431876D03*
X97693550Y-56431876D03*
X98693550Y-102431876D03*
X99693550Y-62431876D03*
X99693550Y-80431876D03*
X99693550Y-91431876D03*
X100693550Y-72431876D03*
X101693550Y-85431876D03*
X102693550Y-58431876D03*
X102693550Y-105431876D03*
X103693550Y-76431876D03*
X104693550Y-64431876D03*
X104693550Y-89431876D03*
%TD*%
D12*
%TO.N,GND*%
X105527869Y-54014722D02*
X105641246Y-54048953D01*
X105745819Y-54104555D01*
X105837596Y-54179407D01*
X105913091Y-54270664D01*
X105969419Y-54374844D01*
X106004440Y-54487976D01*
X106020000Y-54636022D01*
X106020000Y-65640037D01*
X104860750Y-65642000D01*
X104702000Y-65800750D01*
X104702000Y-67025000D01*
X104722000Y-67025000D01*
X104722000Y-67279000D01*
X104702000Y-67279000D01*
X104702000Y-68503250D01*
X104860750Y-68662000D01*
X106020000Y-68663963D01*
X106020000Y-71290037D01*
X104860750Y-71292000D01*
X104702000Y-71450750D01*
X104702000Y-72675000D01*
X104722000Y-72675000D01*
X104722000Y-72929000D01*
X104702000Y-72929000D01*
X104702000Y-74153250D01*
X104860750Y-74312000D01*
X106020000Y-74313963D01*
X106020001Y-91040037D01*
X104860750Y-91042000D01*
X104702000Y-91200750D01*
X104702000Y-92425000D01*
X104722000Y-92425000D01*
X104722000Y-92679000D01*
X104702000Y-92679000D01*
X104702000Y-93903250D01*
X104860750Y-94062000D01*
X106020001Y-94063963D01*
X106020001Y-96690037D01*
X104860750Y-96692000D01*
X104702000Y-96850750D01*
X104702000Y-98075000D01*
X104722000Y-98075000D01*
X104722000Y-98329000D01*
X104702000Y-98329000D01*
X104702000Y-99553250D01*
X104860750Y-99712000D01*
X106020001Y-99713963D01*
X106020001Y-106647711D01*
X106005278Y-106797869D01*
X105971047Y-106911246D01*
X105915446Y-107015817D01*
X105840594Y-107107595D01*
X105749335Y-107183091D01*
X105645160Y-107239419D01*
X105532024Y-107274440D01*
X105383979Y-107290000D01*
X57182279Y-107290000D01*
X57032131Y-107275278D01*
X56918754Y-107241047D01*
X56814183Y-107185446D01*
X56722405Y-107110594D01*
X56646909Y-107019335D01*
X56590581Y-106915160D01*
X56555560Y-106802024D01*
X56540000Y-106653979D01*
X56540000Y-104666963D01*
X57699250Y-104665000D01*
X57858000Y-104506250D01*
X57858000Y-103282000D01*
X58112000Y-103282000D01*
X58112000Y-104506250D01*
X58270750Y-104665000D01*
X60085000Y-104668072D01*
X60209482Y-104655812D01*
X60329180Y-104619502D01*
X60439494Y-104560537D01*
X60536185Y-104481185D01*
X60615537Y-104384494D01*
X60674502Y-104274180D01*
X60710812Y-104154482D01*
X60723072Y-104030000D01*
X60720000Y-103440750D01*
X60561250Y-103282000D01*
X58112000Y-103282000D01*
X57858000Y-103282000D01*
X57838000Y-103282000D01*
X57838000Y-103028000D01*
X57858000Y-103028000D01*
X57858000Y-101803750D01*
X58112000Y-101803750D01*
X58112000Y-103028000D01*
X60561250Y-103028000D01*
X60720000Y-102869250D01*
X60723072Y-102280000D01*
X60710812Y-102155518D01*
X60674502Y-102035820D01*
X60615537Y-101925506D01*
X60536185Y-101828815D01*
X60439494Y-101749463D01*
X60329180Y-101690498D01*
X60209482Y-101654188D01*
X60085000Y-101641928D01*
X58270750Y-101645000D01*
X58112000Y-101803750D01*
X57858000Y-101803750D01*
X57699250Y-101645000D01*
X56540000Y-101643037D01*
X56540000Y-99077000D01*
X101836928Y-99077000D01*
X101849188Y-99201482D01*
X101885498Y-99321180D01*
X101944463Y-99431494D01*
X102023815Y-99528185D01*
X102120506Y-99607537D01*
X102230820Y-99666502D01*
X102350518Y-99702812D01*
X102475000Y-99715072D01*
X104289250Y-99712000D01*
X104448000Y-99553250D01*
X104448000Y-98329000D01*
X101998750Y-98329000D01*
X101840000Y-98487750D01*
X101836928Y-99077000D01*
X56540000Y-99077000D01*
X56540000Y-99016963D01*
X57699250Y-99015000D01*
X57858000Y-98856250D01*
X57858000Y-97632000D01*
X58112000Y-97632000D01*
X58112000Y-98856250D01*
X58270750Y-99015000D01*
X60085000Y-99018072D01*
X60209482Y-99005812D01*
X60329180Y-98969502D01*
X60439494Y-98910537D01*
X60536185Y-98831185D01*
X60615537Y-98734494D01*
X60674502Y-98624180D01*
X60710812Y-98504482D01*
X60723072Y-98380000D01*
X60720000Y-97790750D01*
X60561250Y-97632000D01*
X58112000Y-97632000D01*
X57858000Y-97632000D01*
X57838000Y-97632000D01*
X57838000Y-97378000D01*
X57858000Y-97378000D01*
X57858000Y-96153750D01*
X58112000Y-96153750D01*
X58112000Y-97378000D01*
X60561250Y-97378000D01*
X60612250Y-97327000D01*
X101836928Y-97327000D01*
X101840000Y-97916250D01*
X101998750Y-98075000D01*
X104448000Y-98075000D01*
X104448000Y-96850750D01*
X104289250Y-96692000D01*
X102475000Y-96688928D01*
X102350518Y-96701188D01*
X102230820Y-96737498D01*
X102120506Y-96796463D01*
X102023815Y-96875815D01*
X101944463Y-96972506D01*
X101885498Y-97082820D01*
X101849188Y-97202518D01*
X101836928Y-97327000D01*
X60612250Y-97327000D01*
X60720000Y-97219250D01*
X60723072Y-96630000D01*
X60710812Y-96505518D01*
X60674502Y-96385820D01*
X60615537Y-96275506D01*
X60536185Y-96178815D01*
X60439494Y-96099463D01*
X60329180Y-96040498D01*
X60209482Y-96004188D01*
X60085000Y-95991928D01*
X58270750Y-95995000D01*
X58112000Y-96153750D01*
X57858000Y-96153750D01*
X57699250Y-95995000D01*
X56540000Y-95993037D01*
X56540000Y-93427000D01*
X101836928Y-93427000D01*
X101849188Y-93551482D01*
X101885498Y-93671180D01*
X101944463Y-93781494D01*
X102023815Y-93878185D01*
X102120506Y-93957537D01*
X102230820Y-94016502D01*
X102350518Y-94052812D01*
X102475000Y-94065072D01*
X104289250Y-94062000D01*
X104448000Y-93903250D01*
X104448000Y-92679000D01*
X101998750Y-92679000D01*
X101840000Y-92837750D01*
X101836928Y-93427000D01*
X56540000Y-93427000D01*
X56540000Y-91966963D01*
X57699250Y-91965000D01*
X57858000Y-91806250D01*
X57858000Y-90582000D01*
X58112000Y-90582000D01*
X58112000Y-91806250D01*
X58270750Y-91965000D01*
X60085000Y-91968072D01*
X60209482Y-91955812D01*
X60329180Y-91919502D01*
X60439494Y-91860537D01*
X60536185Y-91781185D01*
X60615537Y-91684494D01*
X60619542Y-91677000D01*
X101836928Y-91677000D01*
X101840000Y-92266250D01*
X101998750Y-92425000D01*
X104448000Y-92425000D01*
X104448000Y-91200750D01*
X104289250Y-91042000D01*
X102475000Y-91038928D01*
X102350518Y-91051188D01*
X102230820Y-91087498D01*
X102120506Y-91146463D01*
X102023815Y-91225815D01*
X101944463Y-91322506D01*
X101885498Y-91432820D01*
X101849188Y-91552518D01*
X101836928Y-91677000D01*
X60619542Y-91677000D01*
X60674502Y-91574180D01*
X60710812Y-91454482D01*
X60723072Y-91330000D01*
X60720000Y-90740750D01*
X60561250Y-90582000D01*
X58112000Y-90582000D01*
X57858000Y-90582000D01*
X57838000Y-90582000D01*
X57838000Y-90328000D01*
X57858000Y-90328000D01*
X57858000Y-89103750D01*
X58112000Y-89103750D01*
X58112000Y-90328000D01*
X60561250Y-90328000D01*
X60720000Y-90169250D01*
X60723072Y-89580000D01*
X60710812Y-89455518D01*
X60674502Y-89335820D01*
X60615537Y-89225506D01*
X60536185Y-89128815D01*
X60439494Y-89049463D01*
X60329180Y-88990498D01*
X60209482Y-88954188D01*
X60085000Y-88941928D01*
X58270750Y-88945000D01*
X58112000Y-89103750D01*
X57858000Y-89103750D01*
X57699250Y-88945000D01*
X56540000Y-88943037D01*
X56540000Y-86316963D01*
X57699250Y-86315000D01*
X57858000Y-86156250D01*
X57858000Y-84932000D01*
X58112000Y-84932000D01*
X58112000Y-86156250D01*
X58270750Y-86315000D01*
X60085000Y-86318072D01*
X60209482Y-86305812D01*
X60329180Y-86269502D01*
X60439494Y-86210537D01*
X60536185Y-86131185D01*
X60615537Y-86034494D01*
X60674502Y-85924180D01*
X60710812Y-85804482D01*
X60723072Y-85680000D01*
X60720000Y-85090750D01*
X60561250Y-84932000D01*
X58112000Y-84932000D01*
X57858000Y-84932000D01*
X57838000Y-84932000D01*
X57838000Y-84678000D01*
X57858000Y-84678000D01*
X57858000Y-83453750D01*
X58112000Y-83453750D01*
X58112000Y-84678000D01*
X60561250Y-84678000D01*
X60720000Y-84519250D01*
X60723072Y-83930000D01*
X60710812Y-83805518D01*
X60674502Y-83685820D01*
X60615537Y-83575506D01*
X60536185Y-83478815D01*
X60439494Y-83399463D01*
X60329180Y-83340498D01*
X60209482Y-83304188D01*
X60085000Y-83291928D01*
X58270750Y-83295000D01*
X58112000Y-83453750D01*
X57858000Y-83453750D01*
X57699250Y-83295000D01*
X56540000Y-83293037D01*
X56540000Y-79266963D01*
X57699250Y-79265000D01*
X57858000Y-79106250D01*
X57858000Y-77882000D01*
X58112000Y-77882000D01*
X58112000Y-79106250D01*
X58270750Y-79265000D01*
X60085000Y-79268072D01*
X60209482Y-79255812D01*
X60329180Y-79219502D01*
X60439494Y-79160537D01*
X60536185Y-79081185D01*
X60615537Y-78984494D01*
X60674502Y-78874180D01*
X60710812Y-78754482D01*
X60723072Y-78630000D01*
X60720000Y-78040750D01*
X60561250Y-77882000D01*
X58112000Y-77882000D01*
X57858000Y-77882000D01*
X57838000Y-77882000D01*
X57838000Y-77628000D01*
X57858000Y-77628000D01*
X57858000Y-76403750D01*
X58112000Y-76403750D01*
X58112000Y-77628000D01*
X60561250Y-77628000D01*
X60720000Y-77469250D01*
X60723072Y-76880000D01*
X60710812Y-76755518D01*
X60674502Y-76635820D01*
X60615537Y-76525506D01*
X60536185Y-76428815D01*
X60439494Y-76349463D01*
X60329180Y-76290498D01*
X60209482Y-76254188D01*
X60085000Y-76241928D01*
X58270750Y-76245000D01*
X58112000Y-76403750D01*
X57858000Y-76403750D01*
X57699250Y-76245000D01*
X56540000Y-76243037D01*
X56540000Y-73677000D01*
X101836928Y-73677000D01*
X101849188Y-73801482D01*
X101885498Y-73921180D01*
X101944463Y-74031494D01*
X102023815Y-74128185D01*
X102120506Y-74207537D01*
X102230820Y-74266502D01*
X102350518Y-74302812D01*
X102475000Y-74315072D01*
X104289250Y-74312000D01*
X104448000Y-74153250D01*
X104448000Y-72929000D01*
X101998750Y-72929000D01*
X101840000Y-73087750D01*
X101836928Y-73677000D01*
X56540000Y-73677000D01*
X56540000Y-73616963D01*
X57699250Y-73615000D01*
X57858000Y-73456250D01*
X57858000Y-72232000D01*
X58112000Y-72232000D01*
X58112000Y-73456250D01*
X58270750Y-73615000D01*
X60085000Y-73618072D01*
X60209482Y-73605812D01*
X60329180Y-73569502D01*
X60439494Y-73510537D01*
X60536185Y-73431185D01*
X60615537Y-73334494D01*
X60674502Y-73224180D01*
X60710812Y-73104482D01*
X60723072Y-72980000D01*
X60720000Y-72390750D01*
X60561250Y-72232000D01*
X58112000Y-72232000D01*
X57858000Y-72232000D01*
X57838000Y-72232000D01*
X57838000Y-71978000D01*
X57858000Y-71978000D01*
X57858000Y-70753750D01*
X58112000Y-70753750D01*
X58112000Y-71978000D01*
X60561250Y-71978000D01*
X60612250Y-71927000D01*
X101836928Y-71927000D01*
X101840000Y-72516250D01*
X101998750Y-72675000D01*
X104448000Y-72675000D01*
X104448000Y-71450750D01*
X104289250Y-71292000D01*
X102475000Y-71288928D01*
X102350518Y-71301188D01*
X102230820Y-71337498D01*
X102120506Y-71396463D01*
X102023815Y-71475815D01*
X101944463Y-71572506D01*
X101885498Y-71682820D01*
X101849188Y-71802518D01*
X101836928Y-71927000D01*
X60612250Y-71927000D01*
X60720000Y-71819250D01*
X60723072Y-71230000D01*
X60710812Y-71105518D01*
X60674502Y-70985820D01*
X60615537Y-70875506D01*
X60536185Y-70778815D01*
X60439494Y-70699463D01*
X60329180Y-70640498D01*
X60209482Y-70604188D01*
X60085000Y-70591928D01*
X58270750Y-70595000D01*
X58112000Y-70753750D01*
X57858000Y-70753750D01*
X57699250Y-70595000D01*
X56540000Y-70593037D01*
X56540000Y-68027000D01*
X101836928Y-68027000D01*
X101849188Y-68151482D01*
X101885498Y-68271180D01*
X101944463Y-68381494D01*
X102023815Y-68478185D01*
X102120506Y-68557537D01*
X102230820Y-68616502D01*
X102350518Y-68652812D01*
X102475000Y-68665072D01*
X104289250Y-68662000D01*
X104448000Y-68503250D01*
X104448000Y-67279000D01*
X101998750Y-67279000D01*
X101840000Y-67437750D01*
X101836928Y-68027000D01*
X56540000Y-68027000D01*
X56540000Y-66566963D01*
X57699250Y-66565000D01*
X57858000Y-66406250D01*
X57858000Y-65182000D01*
X58112000Y-65182000D01*
X58112000Y-66406250D01*
X58270750Y-66565000D01*
X60085000Y-66568072D01*
X60209482Y-66555812D01*
X60329180Y-66519502D01*
X60439494Y-66460537D01*
X60536185Y-66381185D01*
X60615537Y-66284494D01*
X60619542Y-66277000D01*
X101836928Y-66277000D01*
X101840000Y-66866250D01*
X101998750Y-67025000D01*
X104448000Y-67025000D01*
X104448000Y-65800750D01*
X104289250Y-65642000D01*
X102475000Y-65638928D01*
X102350518Y-65651188D01*
X102230820Y-65687498D01*
X102120506Y-65746463D01*
X102023815Y-65825815D01*
X101944463Y-65922506D01*
X101885498Y-66032820D01*
X101849188Y-66152518D01*
X101836928Y-66277000D01*
X60619542Y-66277000D01*
X60674502Y-66174180D01*
X60710812Y-66054482D01*
X60723072Y-65930000D01*
X60720000Y-65340750D01*
X60561250Y-65182000D01*
X58112000Y-65182000D01*
X57858000Y-65182000D01*
X57838000Y-65182000D01*
X57838000Y-64928000D01*
X57858000Y-64928000D01*
X57858000Y-63703750D01*
X58112000Y-63703750D01*
X58112000Y-64928000D01*
X60561250Y-64928000D01*
X60720000Y-64769250D01*
X60723072Y-64180000D01*
X60710812Y-64055518D01*
X60674502Y-63935820D01*
X60615537Y-63825506D01*
X60536185Y-63728815D01*
X60439494Y-63649463D01*
X60329180Y-63590498D01*
X60209482Y-63554188D01*
X60085000Y-63541928D01*
X58270750Y-63545000D01*
X58112000Y-63703750D01*
X57858000Y-63703750D01*
X57699250Y-63545000D01*
X56540000Y-63543037D01*
X56540000Y-60916963D01*
X57699250Y-60915000D01*
X57858000Y-60756250D01*
X57858000Y-59532000D01*
X58112000Y-59532000D01*
X58112000Y-60756250D01*
X58270750Y-60915000D01*
X60085000Y-60918072D01*
X60209482Y-60905812D01*
X60329180Y-60869502D01*
X60439494Y-60810537D01*
X60536185Y-60731185D01*
X60615537Y-60634494D01*
X60674502Y-60524180D01*
X60710812Y-60404482D01*
X60723072Y-60280000D01*
X60720000Y-59690750D01*
X60561250Y-59532000D01*
X58112000Y-59532000D01*
X57858000Y-59532000D01*
X57838000Y-59532000D01*
X57838000Y-59278000D01*
X57858000Y-59278000D01*
X57858000Y-58053750D01*
X58112000Y-58053750D01*
X58112000Y-59278000D01*
X60561250Y-59278000D01*
X60720000Y-59119250D01*
X60723072Y-58530000D01*
X60710812Y-58405518D01*
X60674502Y-58285820D01*
X60615537Y-58175506D01*
X60536185Y-58078815D01*
X60439494Y-57999463D01*
X60329180Y-57940498D01*
X60209482Y-57904188D01*
X60085000Y-57891928D01*
X58270750Y-57895000D01*
X58112000Y-58053750D01*
X57858000Y-58053750D01*
X57699250Y-57895000D01*
X56540000Y-57893037D01*
X56540000Y-54642279D01*
X56554722Y-54492131D01*
X56588953Y-54378754D01*
X56644555Y-54274181D01*
X56719407Y-54182404D01*
X56810664Y-54106909D01*
X56841965Y-54089985D01*
X64040760Y-54000000D01*
X105377721Y-54000000D01*
X105527869Y-54014722D01*
%TA.AperFunction,Conductor*%
D13*
G36*
X105527869Y-54014722D02*
G01*
X105641246Y-54048953D01*
X105745819Y-54104555D01*
X105837596Y-54179407D01*
X105913091Y-54270664D01*
X105969419Y-54374844D01*
X106004440Y-54487976D01*
X106020000Y-54636022D01*
X106020000Y-65640037D01*
X104860750Y-65642000D01*
X104702000Y-65800750D01*
X104702000Y-67025000D01*
X104722000Y-67025000D01*
X104722000Y-67279000D01*
X104702000Y-67279000D01*
X104702000Y-68503250D01*
X104860750Y-68662000D01*
X106020000Y-68663963D01*
X106020000Y-71290037D01*
X104860750Y-71292000D01*
X104702000Y-71450750D01*
X104702000Y-72675000D01*
X104722000Y-72675000D01*
X104722000Y-72929000D01*
X104702000Y-72929000D01*
X104702000Y-74153250D01*
X104860750Y-74312000D01*
X106020000Y-74313963D01*
X106020001Y-91040037D01*
X104860750Y-91042000D01*
X104702000Y-91200750D01*
X104702000Y-92425000D01*
X104722000Y-92425000D01*
X104722000Y-92679000D01*
X104702000Y-92679000D01*
X104702000Y-93903250D01*
X104860750Y-94062000D01*
X106020001Y-94063963D01*
X106020001Y-96690037D01*
X104860750Y-96692000D01*
X104702000Y-96850750D01*
X104702000Y-98075000D01*
X104722000Y-98075000D01*
X104722000Y-98329000D01*
X104702000Y-98329000D01*
X104702000Y-99553250D01*
X104860750Y-99712000D01*
X106020001Y-99713963D01*
X106020001Y-106647711D01*
X106005278Y-106797869D01*
X105971047Y-106911246D01*
X105915446Y-107015817D01*
X105840594Y-107107595D01*
X105749335Y-107183091D01*
X105645160Y-107239419D01*
X105532024Y-107274440D01*
X105383979Y-107290000D01*
X57182279Y-107290000D01*
X57032131Y-107275278D01*
X56918754Y-107241047D01*
X56814183Y-107185446D01*
X56722405Y-107110594D01*
X56646909Y-107019335D01*
X56590581Y-106915160D01*
X56555560Y-106802024D01*
X56540000Y-106653979D01*
X56540000Y-104666963D01*
X57699250Y-104665000D01*
X57858000Y-104506250D01*
X57858000Y-103282000D01*
X58112000Y-103282000D01*
X58112000Y-104506250D01*
X58270750Y-104665000D01*
X60085000Y-104668072D01*
X60209482Y-104655812D01*
X60329180Y-104619502D01*
X60439494Y-104560537D01*
X60536185Y-104481185D01*
X60615537Y-104384494D01*
X60674502Y-104274180D01*
X60710812Y-104154482D01*
X60723072Y-104030000D01*
X60720000Y-103440750D01*
X60561250Y-103282000D01*
X58112000Y-103282000D01*
X57858000Y-103282000D01*
X57838000Y-103282000D01*
X57838000Y-103028000D01*
X57858000Y-103028000D01*
X57858000Y-101803750D01*
X58112000Y-101803750D01*
X58112000Y-103028000D01*
X60561250Y-103028000D01*
X60720000Y-102869250D01*
X60723072Y-102280000D01*
X60710812Y-102155518D01*
X60674502Y-102035820D01*
X60615537Y-101925506D01*
X60536185Y-101828815D01*
X60439494Y-101749463D01*
X60329180Y-101690498D01*
X60209482Y-101654188D01*
X60085000Y-101641928D01*
X58270750Y-101645000D01*
X58112000Y-101803750D01*
X57858000Y-101803750D01*
X57699250Y-101645000D01*
X56540000Y-101643037D01*
X56540000Y-99077000D01*
X101836928Y-99077000D01*
X101849188Y-99201482D01*
X101885498Y-99321180D01*
X101944463Y-99431494D01*
X102023815Y-99528185D01*
X102120506Y-99607537D01*
X102230820Y-99666502D01*
X102350518Y-99702812D01*
X102475000Y-99715072D01*
X104289250Y-99712000D01*
X104448000Y-99553250D01*
X104448000Y-98329000D01*
X101998750Y-98329000D01*
X101840000Y-98487750D01*
X101836928Y-99077000D01*
X56540000Y-99077000D01*
X56540000Y-99016963D01*
X57699250Y-99015000D01*
X57858000Y-98856250D01*
X57858000Y-97632000D01*
X58112000Y-97632000D01*
X58112000Y-98856250D01*
X58270750Y-99015000D01*
X60085000Y-99018072D01*
X60209482Y-99005812D01*
X60329180Y-98969502D01*
X60439494Y-98910537D01*
X60536185Y-98831185D01*
X60615537Y-98734494D01*
X60674502Y-98624180D01*
X60710812Y-98504482D01*
X60723072Y-98380000D01*
X60720000Y-97790750D01*
X60561250Y-97632000D01*
X58112000Y-97632000D01*
X57858000Y-97632000D01*
X57838000Y-97632000D01*
X57838000Y-97378000D01*
X57858000Y-97378000D01*
X57858000Y-96153750D01*
X58112000Y-96153750D01*
X58112000Y-97378000D01*
X60561250Y-97378000D01*
X60612250Y-97327000D01*
X101836928Y-97327000D01*
X101840000Y-97916250D01*
X101998750Y-98075000D01*
X104448000Y-98075000D01*
X104448000Y-96850750D01*
X104289250Y-96692000D01*
X102475000Y-96688928D01*
X102350518Y-96701188D01*
X102230820Y-96737498D01*
X102120506Y-96796463D01*
X102023815Y-96875815D01*
X101944463Y-96972506D01*
X101885498Y-97082820D01*
X101849188Y-97202518D01*
X101836928Y-97327000D01*
X60612250Y-97327000D01*
X60720000Y-97219250D01*
X60723072Y-96630000D01*
X60710812Y-96505518D01*
X60674502Y-96385820D01*
X60615537Y-96275506D01*
X60536185Y-96178815D01*
X60439494Y-96099463D01*
X60329180Y-96040498D01*
X60209482Y-96004188D01*
X60085000Y-95991928D01*
X58270750Y-95995000D01*
X58112000Y-96153750D01*
X57858000Y-96153750D01*
X57699250Y-95995000D01*
X56540000Y-95993037D01*
X56540000Y-93427000D01*
X101836928Y-93427000D01*
X101849188Y-93551482D01*
X101885498Y-93671180D01*
X101944463Y-93781494D01*
X102023815Y-93878185D01*
X102120506Y-93957537D01*
X102230820Y-94016502D01*
X102350518Y-94052812D01*
X102475000Y-94065072D01*
X104289250Y-94062000D01*
X104448000Y-93903250D01*
X104448000Y-92679000D01*
X101998750Y-92679000D01*
X101840000Y-92837750D01*
X101836928Y-93427000D01*
X56540000Y-93427000D01*
X56540000Y-91966963D01*
X57699250Y-91965000D01*
X57858000Y-91806250D01*
X57858000Y-90582000D01*
X58112000Y-90582000D01*
X58112000Y-91806250D01*
X58270750Y-91965000D01*
X60085000Y-91968072D01*
X60209482Y-91955812D01*
X60329180Y-91919502D01*
X60439494Y-91860537D01*
X60536185Y-91781185D01*
X60615537Y-91684494D01*
X60619542Y-91677000D01*
X101836928Y-91677000D01*
X101840000Y-92266250D01*
X101998750Y-92425000D01*
X104448000Y-92425000D01*
X104448000Y-91200750D01*
X104289250Y-91042000D01*
X102475000Y-91038928D01*
X102350518Y-91051188D01*
X102230820Y-91087498D01*
X102120506Y-91146463D01*
X102023815Y-91225815D01*
X101944463Y-91322506D01*
X101885498Y-91432820D01*
X101849188Y-91552518D01*
X101836928Y-91677000D01*
X60619542Y-91677000D01*
X60674502Y-91574180D01*
X60710812Y-91454482D01*
X60723072Y-91330000D01*
X60720000Y-90740750D01*
X60561250Y-90582000D01*
X58112000Y-90582000D01*
X57858000Y-90582000D01*
X57838000Y-90582000D01*
X57838000Y-90328000D01*
X57858000Y-90328000D01*
X57858000Y-89103750D01*
X58112000Y-89103750D01*
X58112000Y-90328000D01*
X60561250Y-90328000D01*
X60720000Y-90169250D01*
X60723072Y-89580000D01*
X60710812Y-89455518D01*
X60674502Y-89335820D01*
X60615537Y-89225506D01*
X60536185Y-89128815D01*
X60439494Y-89049463D01*
X60329180Y-88990498D01*
X60209482Y-88954188D01*
X60085000Y-88941928D01*
X58270750Y-88945000D01*
X58112000Y-89103750D01*
X57858000Y-89103750D01*
X57699250Y-88945000D01*
X56540000Y-88943037D01*
X56540000Y-86316963D01*
X57699250Y-86315000D01*
X57858000Y-86156250D01*
X57858000Y-84932000D01*
X58112000Y-84932000D01*
X58112000Y-86156250D01*
X58270750Y-86315000D01*
X60085000Y-86318072D01*
X60209482Y-86305812D01*
X60329180Y-86269502D01*
X60439494Y-86210537D01*
X60536185Y-86131185D01*
X60615537Y-86034494D01*
X60674502Y-85924180D01*
X60710812Y-85804482D01*
X60723072Y-85680000D01*
X60720000Y-85090750D01*
X60561250Y-84932000D01*
X58112000Y-84932000D01*
X57858000Y-84932000D01*
X57838000Y-84932000D01*
X57838000Y-84678000D01*
X57858000Y-84678000D01*
X57858000Y-83453750D01*
X58112000Y-83453750D01*
X58112000Y-84678000D01*
X60561250Y-84678000D01*
X60720000Y-84519250D01*
X60723072Y-83930000D01*
X60710812Y-83805518D01*
X60674502Y-83685820D01*
X60615537Y-83575506D01*
X60536185Y-83478815D01*
X60439494Y-83399463D01*
X60329180Y-83340498D01*
X60209482Y-83304188D01*
X60085000Y-83291928D01*
X58270750Y-83295000D01*
X58112000Y-83453750D01*
X57858000Y-83453750D01*
X57699250Y-83295000D01*
X56540000Y-83293037D01*
X56540000Y-79266963D01*
X57699250Y-79265000D01*
X57858000Y-79106250D01*
X57858000Y-77882000D01*
X58112000Y-77882000D01*
X58112000Y-79106250D01*
X58270750Y-79265000D01*
X60085000Y-79268072D01*
X60209482Y-79255812D01*
X60329180Y-79219502D01*
X60439494Y-79160537D01*
X60536185Y-79081185D01*
X60615537Y-78984494D01*
X60674502Y-78874180D01*
X60710812Y-78754482D01*
X60723072Y-78630000D01*
X60720000Y-78040750D01*
X60561250Y-77882000D01*
X58112000Y-77882000D01*
X57858000Y-77882000D01*
X57838000Y-77882000D01*
X57838000Y-77628000D01*
X57858000Y-77628000D01*
X57858000Y-76403750D01*
X58112000Y-76403750D01*
X58112000Y-77628000D01*
X60561250Y-77628000D01*
X60720000Y-77469250D01*
X60723072Y-76880000D01*
X60710812Y-76755518D01*
X60674502Y-76635820D01*
X60615537Y-76525506D01*
X60536185Y-76428815D01*
X60439494Y-76349463D01*
X60329180Y-76290498D01*
X60209482Y-76254188D01*
X60085000Y-76241928D01*
X58270750Y-76245000D01*
X58112000Y-76403750D01*
X57858000Y-76403750D01*
X57699250Y-76245000D01*
X56540000Y-76243037D01*
X56540000Y-73677000D01*
X101836928Y-73677000D01*
X101849188Y-73801482D01*
X101885498Y-73921180D01*
X101944463Y-74031494D01*
X102023815Y-74128185D01*
X102120506Y-74207537D01*
X102230820Y-74266502D01*
X102350518Y-74302812D01*
X102475000Y-74315072D01*
X104289250Y-74312000D01*
X104448000Y-74153250D01*
X104448000Y-72929000D01*
X101998750Y-72929000D01*
X101840000Y-73087750D01*
X101836928Y-73677000D01*
X56540000Y-73677000D01*
X56540000Y-73616963D01*
X57699250Y-73615000D01*
X57858000Y-73456250D01*
X57858000Y-72232000D01*
X58112000Y-72232000D01*
X58112000Y-73456250D01*
X58270750Y-73615000D01*
X60085000Y-73618072D01*
X60209482Y-73605812D01*
X60329180Y-73569502D01*
X60439494Y-73510537D01*
X60536185Y-73431185D01*
X60615537Y-73334494D01*
X60674502Y-73224180D01*
X60710812Y-73104482D01*
X60723072Y-72980000D01*
X60720000Y-72390750D01*
X60561250Y-72232000D01*
X58112000Y-72232000D01*
X57858000Y-72232000D01*
X57838000Y-72232000D01*
X57838000Y-71978000D01*
X57858000Y-71978000D01*
X57858000Y-70753750D01*
X58112000Y-70753750D01*
X58112000Y-71978000D01*
X60561250Y-71978000D01*
X60612250Y-71927000D01*
X101836928Y-71927000D01*
X101840000Y-72516250D01*
X101998750Y-72675000D01*
X104448000Y-72675000D01*
X104448000Y-71450750D01*
X104289250Y-71292000D01*
X102475000Y-71288928D01*
X102350518Y-71301188D01*
X102230820Y-71337498D01*
X102120506Y-71396463D01*
X102023815Y-71475815D01*
X101944463Y-71572506D01*
X101885498Y-71682820D01*
X101849188Y-71802518D01*
X101836928Y-71927000D01*
X60612250Y-71927000D01*
X60720000Y-71819250D01*
X60723072Y-71230000D01*
X60710812Y-71105518D01*
X60674502Y-70985820D01*
X60615537Y-70875506D01*
X60536185Y-70778815D01*
X60439494Y-70699463D01*
X60329180Y-70640498D01*
X60209482Y-70604188D01*
X60085000Y-70591928D01*
X58270750Y-70595000D01*
X58112000Y-70753750D01*
X57858000Y-70753750D01*
X57699250Y-70595000D01*
X56540000Y-70593037D01*
X56540000Y-68027000D01*
X101836928Y-68027000D01*
X101849188Y-68151482D01*
X101885498Y-68271180D01*
X101944463Y-68381494D01*
X102023815Y-68478185D01*
X102120506Y-68557537D01*
X102230820Y-68616502D01*
X102350518Y-68652812D01*
X102475000Y-68665072D01*
X104289250Y-68662000D01*
X104448000Y-68503250D01*
X104448000Y-67279000D01*
X101998750Y-67279000D01*
X101840000Y-67437750D01*
X101836928Y-68027000D01*
X56540000Y-68027000D01*
X56540000Y-66566963D01*
X57699250Y-66565000D01*
X57858000Y-66406250D01*
X57858000Y-65182000D01*
X58112000Y-65182000D01*
X58112000Y-66406250D01*
X58270750Y-66565000D01*
X60085000Y-66568072D01*
X60209482Y-66555812D01*
X60329180Y-66519502D01*
X60439494Y-66460537D01*
X60536185Y-66381185D01*
X60615537Y-66284494D01*
X60619542Y-66277000D01*
X101836928Y-66277000D01*
X101840000Y-66866250D01*
X101998750Y-67025000D01*
X104448000Y-67025000D01*
X104448000Y-65800750D01*
X104289250Y-65642000D01*
X102475000Y-65638928D01*
X102350518Y-65651188D01*
X102230820Y-65687498D01*
X102120506Y-65746463D01*
X102023815Y-65825815D01*
X101944463Y-65922506D01*
X101885498Y-66032820D01*
X101849188Y-66152518D01*
X101836928Y-66277000D01*
X60619542Y-66277000D01*
X60674502Y-66174180D01*
X60710812Y-66054482D01*
X60723072Y-65930000D01*
X60720000Y-65340750D01*
X60561250Y-65182000D01*
X58112000Y-65182000D01*
X57858000Y-65182000D01*
X57838000Y-65182000D01*
X57838000Y-64928000D01*
X57858000Y-64928000D01*
X57858000Y-63703750D01*
X58112000Y-63703750D01*
X58112000Y-64928000D01*
X60561250Y-64928000D01*
X60720000Y-64769250D01*
X60723072Y-64180000D01*
X60710812Y-64055518D01*
X60674502Y-63935820D01*
X60615537Y-63825506D01*
X60536185Y-63728815D01*
X60439494Y-63649463D01*
X60329180Y-63590498D01*
X60209482Y-63554188D01*
X60085000Y-63541928D01*
X58270750Y-63545000D01*
X58112000Y-63703750D01*
X57858000Y-63703750D01*
X57699250Y-63545000D01*
X56540000Y-63543037D01*
X56540000Y-60916963D01*
X57699250Y-60915000D01*
X57858000Y-60756250D01*
X57858000Y-59532000D01*
X58112000Y-59532000D01*
X58112000Y-60756250D01*
X58270750Y-60915000D01*
X60085000Y-60918072D01*
X60209482Y-60905812D01*
X60329180Y-60869502D01*
X60439494Y-60810537D01*
X60536185Y-60731185D01*
X60615537Y-60634494D01*
X60674502Y-60524180D01*
X60710812Y-60404482D01*
X60723072Y-60280000D01*
X60720000Y-59690750D01*
X60561250Y-59532000D01*
X58112000Y-59532000D01*
X57858000Y-59532000D01*
X57838000Y-59532000D01*
X57838000Y-59278000D01*
X57858000Y-59278000D01*
X57858000Y-58053750D01*
X58112000Y-58053750D01*
X58112000Y-59278000D01*
X60561250Y-59278000D01*
X60720000Y-59119250D01*
X60723072Y-58530000D01*
X60710812Y-58405518D01*
X60674502Y-58285820D01*
X60615537Y-58175506D01*
X60536185Y-58078815D01*
X60439494Y-57999463D01*
X60329180Y-57940498D01*
X60209482Y-57904188D01*
X60085000Y-57891928D01*
X58270750Y-57895000D01*
X58112000Y-58053750D01*
X57858000Y-58053750D01*
X57699250Y-57895000D01*
X56540000Y-57893037D01*
X56540000Y-54642279D01*
X56554722Y-54492131D01*
X56588953Y-54378754D01*
X56644555Y-54274181D01*
X56719407Y-54182404D01*
X56810664Y-54106909D01*
X56841965Y-54089985D01*
X64040760Y-54000000D01*
X105377721Y-54000000D01*
X105527869Y-54014722D01*
G37*
%TD.AperFunction*%
%TD*%
M02*
