%TF.GenerationSoftware,KiCad,Pcbnew,(5.1.9)-1*%
%TF.CreationDate,2021-03-09T18:28:39-05:00*%
%TF.ProjectId,NJR_New_DemodWithMixer,4e4a525f-4e65-4775-9f44-656d6f645769,rev?*%
%TF.SameCoordinates,Original*%
%TF.FileFunction,Copper,L1,Top*%
%TF.FilePolarity,Positive*%
%FSLAX46Y46*%
G04 Gerber Fmt 4.6, Leading zero omitted, Abs format (unit mm)*
G04 Created by KiCad (PCBNEW (5.1.9)-1) date 2021-03-09 18:28:39*
%MOMM*%
%LPD*%
G01*
G04 APERTURE LIST*
%TA.AperFunction,SMDPad,CuDef*%
%ADD10R,1.400000X0.300000*%
%TD*%
%TA.AperFunction,SMDPad,CuDef*%
%ADD11R,0.800000X1.050000*%
%TD*%
%TA.AperFunction,SMDPad,CuDef*%
%ADD12R,4.200000X1.750000*%
%TD*%
%TA.AperFunction,SMDPad,CuDef*%
%ADD13R,3.600000X1.270000*%
%TD*%
%TA.AperFunction,SMDPad,CuDef*%
%ADD14R,1.750000X4.200000*%
%TD*%
%TA.AperFunction,SMDPad,CuDef*%
%ADD15R,1.270000X3.600000*%
%TD*%
%TA.AperFunction,SMDPad,CuDef*%
%ADD16R,5.334000X4.191000*%
%TD*%
%TA.AperFunction,SMDPad,CuDef*%
%ADD17R,2.540000X1.651000*%
%TD*%
%TA.AperFunction,ComponentPad*%
%ADD18C,1.016000*%
%TD*%
%TA.AperFunction,SMDPad,CuDef*%
%ADD19R,5.334000X1.651000*%
%TD*%
%TA.AperFunction,SMDPad,CuDef*%
%ADD20R,1.270000X6.731000*%
%TD*%
%TA.AperFunction,SMDPad,CuDef*%
%ADD21R,1.060000X0.650000*%
%TD*%
%TA.AperFunction,ComponentPad*%
%ADD22O,1.800000X3.600000*%
%TD*%
%TA.AperFunction,ComponentPad*%
%ADD23O,3.600000X1.800000*%
%TD*%
%TA.AperFunction,ViaPad*%
%ADD24C,0.800000*%
%TD*%
%TA.AperFunction,Conductor*%
%ADD25C,0.250000*%
%TD*%
%TA.AperFunction,Conductor*%
%ADD26C,1.000000*%
%TD*%
%TA.AperFunction,Conductor*%
%ADD27C,0.500000*%
%TD*%
%TA.AperFunction,Conductor*%
%ADD28C,0.254000*%
%TD*%
%TA.AperFunction,Conductor*%
%ADD29C,0.100000*%
%TD*%
G04 APERTURE END LIST*
D10*
%TO.P,U2,10*%
%TO.N,/AF_Out*%
X115230000Y-90440000D03*
%TO.P,U2,9*%
%TO.N,Net-(C5-Pad1)*%
X115230000Y-90940000D03*
%TO.P,U2,8*%
%TO.N,Net-(C5-Pad2)*%
X115230000Y-91440000D03*
%TO.P,U2,7*%
%TO.N,Net-(U2-Pad7)*%
X115230000Y-91940000D03*
%TO.P,U2,6*%
%TO.N,/RSSI_Out*%
X115230000Y-92440000D03*
%TO.P,U2,5*%
%TO.N,GND*%
X110830000Y-92440000D03*
%TO.P,U2,4*%
%TO.N,Net-(C3-Pad1)*%
X110830000Y-91940000D03*
%TO.P,U2,3*%
%TO.N,Net-(C2-Pad1)*%
X110830000Y-91440000D03*
%TO.P,U2,2*%
%TO.N,Net-(C1-Pad1)*%
X110830000Y-90940000D03*
%TO.P,U2,1*%
%TO.N,+5V*%
X110830000Y-90440000D03*
%TD*%
D11*
%TO.P,U1,6*%
%TO.N,/IF_In*%
X98301000Y-93005500D03*
%TO.P,U1,5*%
%TO.N,GND*%
X96901000Y-93005500D03*
%TO.P,U1,4*%
%TO.N,Net-(U1-Pad4)*%
X95501000Y-93005500D03*
%TO.P,U1,3*%
%TO.N,Net-(U1-Pad3)*%
X95501000Y-90555500D03*
%TO.P,U1,2*%
%TO.N,GND*%
X96901000Y-90555500D03*
%TO.P,U1,1*%
%TO.N,Net-(CMatch1-Pad1)*%
X98301000Y-90555500D03*
%TD*%
D12*
%TO.P,JLO1,3_1*%
%TO.N,GND*%
X82496000Y-89185000D03*
%TO.P,JLO1,2_1*%
X82496000Y-83535000D03*
D13*
%TO.P,JLO1,1*%
%TO.N,Net-(CC4-Pad2)*%
X82296000Y-86360000D03*
%TD*%
D14*
%TO.P,J1,3_1*%
%TO.N,GND*%
X90799400Y-61922000D03*
%TO.P,J1,2_1*%
X96449400Y-61922000D03*
D15*
%TO.P,J1,1*%
%TO.N,Net-(CC2-Pad1)*%
X93624400Y-61722000D03*
%TD*%
D16*
%TO.P,UADE10x1,4*%
%TO.N,GND*%
X89179400Y-74117200D03*
D17*
%TO.P,UADE10x1,1*%
X93751400Y-77927200D03*
%TO.P,UADE10x1,2*%
%TO.N,Net-(CC3-Pad1)*%
X93751400Y-75387200D03*
%TO.P,UADE10x1,3*%
%TO.N,Net-(CC2-Pad2)*%
X93751400Y-72847200D03*
%TO.P,UADE10x1,6*%
%TO.N,Net-(CC4-Pad1)*%
X88671400Y-77927200D03*
%TO.P,UADE10x1,5*%
%TO.N,GND*%
X88671400Y-75387200D03*
%TO.P,UADE10x1,4*%
X88671400Y-72847200D03*
D18*
%TO.P,UADE10x1,1*%
X95402400Y-77927200D03*
%TO.P,UADE10x1,5*%
X87020400Y-75387200D03*
%TO.P,UADE10x1,4*%
X87020400Y-72847200D03*
D19*
%TO.P,UADE10x1,1*%
X93243400Y-77927200D03*
D18*
X91211400Y-77927200D03*
X91211400Y-76657200D03*
X91211400Y-75387200D03*
X91211400Y-74117200D03*
X91211400Y-72847200D03*
D20*
X91211400Y-75387200D03*
%TD*%
%TO.P,CC4,2*%
%TO.N,Net-(CC4-Pad2)*%
%TA.AperFunction,SMDPad,CuDef*%
G36*
G01*
X87409000Y-83977900D02*
X88359000Y-83977900D01*
G75*
G02*
X88609000Y-84227900I0J-250000D01*
G01*
X88609000Y-84727900D01*
G75*
G02*
X88359000Y-84977900I-250000J0D01*
G01*
X87409000Y-84977900D01*
G75*
G02*
X87159000Y-84727900I0J250000D01*
G01*
X87159000Y-84227900D01*
G75*
G02*
X87409000Y-83977900I250000J0D01*
G01*
G37*
%TD.AperFunction*%
%TO.P,CC4,1*%
%TO.N,Net-(CC4-Pad1)*%
%TA.AperFunction,SMDPad,CuDef*%
G36*
G01*
X87409000Y-82077900D02*
X88359000Y-82077900D01*
G75*
G02*
X88609000Y-82327900I0J-250000D01*
G01*
X88609000Y-82827900D01*
G75*
G02*
X88359000Y-83077900I-250000J0D01*
G01*
X87409000Y-83077900D01*
G75*
G02*
X87159000Y-82827900I0J250000D01*
G01*
X87159000Y-82327900D01*
G75*
G02*
X87409000Y-82077900I250000J0D01*
G01*
G37*
%TD.AperFunction*%
%TD*%
%TO.P,CC3,2*%
%TO.N,Net-(CC3-Pad2)*%
%TA.AperFunction,SMDPad,CuDef*%
G36*
G01*
X97823000Y-79520200D02*
X98773000Y-79520200D01*
G75*
G02*
X99023000Y-79770200I0J-250000D01*
G01*
X99023000Y-80270200D01*
G75*
G02*
X98773000Y-80520200I-250000J0D01*
G01*
X97823000Y-80520200D01*
G75*
G02*
X97573000Y-80270200I0J250000D01*
G01*
X97573000Y-79770200D01*
G75*
G02*
X97823000Y-79520200I250000J0D01*
G01*
G37*
%TD.AperFunction*%
%TO.P,CC3,1*%
%TO.N,Net-(CC3-Pad1)*%
%TA.AperFunction,SMDPad,CuDef*%
G36*
G01*
X97823000Y-77620200D02*
X98773000Y-77620200D01*
G75*
G02*
X99023000Y-77870200I0J-250000D01*
G01*
X99023000Y-78370200D01*
G75*
G02*
X98773000Y-78620200I-250000J0D01*
G01*
X97823000Y-78620200D01*
G75*
G02*
X97573000Y-78370200I0J250000D01*
G01*
X97573000Y-77870200D01*
G75*
G02*
X97823000Y-77620200I250000J0D01*
G01*
G37*
%TD.AperFunction*%
%TD*%
%TO.P,CC2,2*%
%TO.N,Net-(CC2-Pad2)*%
%TA.AperFunction,SMDPad,CuDef*%
G36*
G01*
X93251000Y-68293400D02*
X94201000Y-68293400D01*
G75*
G02*
X94451000Y-68543400I0J-250000D01*
G01*
X94451000Y-69043400D01*
G75*
G02*
X94201000Y-69293400I-250000J0D01*
G01*
X93251000Y-69293400D01*
G75*
G02*
X93001000Y-69043400I0J250000D01*
G01*
X93001000Y-68543400D01*
G75*
G02*
X93251000Y-68293400I250000J0D01*
G01*
G37*
%TD.AperFunction*%
%TO.P,CC2,1*%
%TO.N,Net-(CC2-Pad1)*%
%TA.AperFunction,SMDPad,CuDef*%
G36*
G01*
X93251000Y-66393400D02*
X94201000Y-66393400D01*
G75*
G02*
X94451000Y-66643400I0J-250000D01*
G01*
X94451000Y-67143400D01*
G75*
G02*
X94201000Y-67393400I-250000J0D01*
G01*
X93251000Y-67393400D01*
G75*
G02*
X93001000Y-67143400I0J250000D01*
G01*
X93001000Y-66643400D01*
G75*
G02*
X93251000Y-66393400I250000J0D01*
G01*
G37*
%TD.AperFunction*%
%TD*%
%TO.P,C1,2*%
%TO.N,/IF_In*%
%TA.AperFunction,SMDPad,CuDef*%
G36*
G01*
X103690000Y-89949000D02*
X103690000Y-90899000D01*
G75*
G02*
X103440000Y-91149000I-250000J0D01*
G01*
X102940000Y-91149000D01*
G75*
G02*
X102690000Y-90899000I0J250000D01*
G01*
X102690000Y-89949000D01*
G75*
G02*
X102940000Y-89699000I250000J0D01*
G01*
X103440000Y-89699000D01*
G75*
G02*
X103690000Y-89949000I0J-250000D01*
G01*
G37*
%TD.AperFunction*%
%TO.P,C1,1*%
%TO.N,Net-(C1-Pad1)*%
%TA.AperFunction,SMDPad,CuDef*%
G36*
G01*
X105590000Y-89949000D02*
X105590000Y-90899000D01*
G75*
G02*
X105340000Y-91149000I-250000J0D01*
G01*
X104840000Y-91149000D01*
G75*
G02*
X104590000Y-90899000I0J250000D01*
G01*
X104590000Y-89949000D01*
G75*
G02*
X104840000Y-89699000I250000J0D01*
G01*
X105340000Y-89699000D01*
G75*
G02*
X105590000Y-89949000I0J-250000D01*
G01*
G37*
%TD.AperFunction*%
%TD*%
D21*
%TO.P,U3,5*%
%TO.N,+5V*%
X147404000Y-88458000D03*
%TO.P,U3,4*%
%TO.N,/Audio_Out*%
X147404000Y-90358000D03*
%TO.P,U3,3*%
%TO.N,Net-(Ca1-Pad1)*%
X145204000Y-90358000D03*
%TO.P,U3,2*%
%TO.N,GND*%
X145204000Y-89408000D03*
%TO.P,U3,1*%
%TO.N,Net-(Cb1-Pad1)*%
X145204000Y-88458000D03*
%TD*%
%TO.P,Rc1,2*%
%TO.N,/AF_Out*%
%TA.AperFunction,SMDPad,CuDef*%
G36*
G01*
X126092000Y-87941998D02*
X126092000Y-88842002D01*
G75*
G02*
X125842002Y-89092000I-249998J0D01*
G01*
X125316998Y-89092000D01*
G75*
G02*
X125067000Y-88842002I0J249998D01*
G01*
X125067000Y-87941998D01*
G75*
G02*
X125316998Y-87692000I249998J0D01*
G01*
X125842002Y-87692000D01*
G75*
G02*
X126092000Y-87941998I0J-249998D01*
G01*
G37*
%TD.AperFunction*%
%TO.P,Rc1,1*%
%TO.N,Net-(Cc1-Pad1)*%
%TA.AperFunction,SMDPad,CuDef*%
G36*
G01*
X127917000Y-87941998D02*
X127917000Y-88842002D01*
G75*
G02*
X127667002Y-89092000I-249998J0D01*
G01*
X127141998Y-89092000D01*
G75*
G02*
X126892000Y-88842002I0J249998D01*
G01*
X126892000Y-87941998D01*
G75*
G02*
X127141998Y-87692000I249998J0D01*
G01*
X127667002Y-87692000D01*
G75*
G02*
X127917000Y-87941998I0J-249998D01*
G01*
G37*
%TD.AperFunction*%
%TD*%
%TO.P,Rb1,2*%
%TO.N,Net-(Cc1-Pad1)*%
%TA.AperFunction,SMDPad,CuDef*%
G36*
G01*
X133458000Y-87941998D02*
X133458000Y-88842002D01*
G75*
G02*
X133208002Y-89092000I-249998J0D01*
G01*
X132682998Y-89092000D01*
G75*
G02*
X132433000Y-88842002I0J249998D01*
G01*
X132433000Y-87941998D01*
G75*
G02*
X132682998Y-87692000I249998J0D01*
G01*
X133208002Y-87692000D01*
G75*
G02*
X133458000Y-87941998I0J-249998D01*
G01*
G37*
%TD.AperFunction*%
%TO.P,Rb1,1*%
%TO.N,Net-(Ca1-Pad1)*%
%TA.AperFunction,SMDPad,CuDef*%
G36*
G01*
X135283000Y-87941998D02*
X135283000Y-88842002D01*
G75*
G02*
X135033002Y-89092000I-249998J0D01*
G01*
X134507998Y-89092000D01*
G75*
G02*
X134258000Y-88842002I0J249998D01*
G01*
X134258000Y-87941998D01*
G75*
G02*
X134507998Y-87692000I249998J0D01*
G01*
X135033002Y-87692000D01*
G75*
G02*
X135283000Y-87941998I0J-249998D01*
G01*
G37*
%TD.AperFunction*%
%TD*%
%TO.P,Ra1,2*%
%TO.N,Net-(Ca1-Pad1)*%
%TA.AperFunction,SMDPad,CuDef*%
G36*
G01*
X137522000Y-87941998D02*
X137522000Y-88842002D01*
G75*
G02*
X137272002Y-89092000I-249998J0D01*
G01*
X136746998Y-89092000D01*
G75*
G02*
X136497000Y-88842002I0J249998D01*
G01*
X136497000Y-87941998D01*
G75*
G02*
X136746998Y-87692000I249998J0D01*
G01*
X137272002Y-87692000D01*
G75*
G02*
X137522000Y-87941998I0J-249998D01*
G01*
G37*
%TD.AperFunction*%
%TO.P,Ra1,1*%
%TO.N,Net-(Cb1-Pad1)*%
%TA.AperFunction,SMDPad,CuDef*%
G36*
G01*
X139347000Y-87941998D02*
X139347000Y-88842002D01*
G75*
G02*
X139097002Y-89092000I-249998J0D01*
G01*
X138571998Y-89092000D01*
G75*
G02*
X138322000Y-88842002I0J249998D01*
G01*
X138322000Y-87941998D01*
G75*
G02*
X138571998Y-87692000I249998J0D01*
G01*
X139097002Y-87692000D01*
G75*
G02*
X139347000Y-87941998I0J-249998D01*
G01*
G37*
%TD.AperFunction*%
%TD*%
%TO.P,R2,2*%
%TO.N,Net-(C5-Pad1)*%
%TA.AperFunction,SMDPad,CuDef*%
G36*
G01*
X125787998Y-83458000D02*
X126688002Y-83458000D01*
G75*
G02*
X126938000Y-83707998I0J-249998D01*
G01*
X126938000Y-84233002D01*
G75*
G02*
X126688002Y-84483000I-249998J0D01*
G01*
X125787998Y-84483000D01*
G75*
G02*
X125538000Y-84233002I0J249998D01*
G01*
X125538000Y-83707998D01*
G75*
G02*
X125787998Y-83458000I249998J0D01*
G01*
G37*
%TD.AperFunction*%
%TO.P,R2,1*%
%TO.N,+5V*%
%TA.AperFunction,SMDPad,CuDef*%
G36*
G01*
X125787998Y-81633000D02*
X126688002Y-81633000D01*
G75*
G02*
X126938000Y-81882998I0J-249998D01*
G01*
X126938000Y-82408002D01*
G75*
G02*
X126688002Y-82658000I-249998J0D01*
G01*
X125787998Y-82658000D01*
G75*
G02*
X125538000Y-82408002I0J249998D01*
G01*
X125538000Y-81882998D01*
G75*
G02*
X125787998Y-81633000I249998J0D01*
G01*
G37*
%TD.AperFunction*%
%TD*%
%TO.P,R1,2*%
%TO.N,GND*%
%TA.AperFunction,SMDPad,CuDef*%
G36*
G01*
X100489598Y-94278400D02*
X101389602Y-94278400D01*
G75*
G02*
X101639600Y-94528398I0J-249998D01*
G01*
X101639600Y-95053402D01*
G75*
G02*
X101389602Y-95303400I-249998J0D01*
G01*
X100489598Y-95303400D01*
G75*
G02*
X100239600Y-95053402I0J249998D01*
G01*
X100239600Y-94528398D01*
G75*
G02*
X100489598Y-94278400I249998J0D01*
G01*
G37*
%TD.AperFunction*%
%TO.P,R1,1*%
%TO.N,/IF_In*%
%TA.AperFunction,SMDPad,CuDef*%
G36*
G01*
X100489598Y-92453400D02*
X101389602Y-92453400D01*
G75*
G02*
X101639600Y-92703398I0J-249998D01*
G01*
X101639600Y-93228402D01*
G75*
G02*
X101389602Y-93478400I-249998J0D01*
G01*
X100489598Y-93478400D01*
G75*
G02*
X100239600Y-93228402I0J249998D01*
G01*
X100239600Y-92703398D01*
G75*
G02*
X100489598Y-92453400I249998J0D01*
G01*
G37*
%TD.AperFunction*%
%TD*%
%TO.P,LQ1_T1,2*%
%TO.N,Net-(C5-Pad1)*%
%TA.AperFunction,SMDPad,CuDef*%
G36*
G01*
X113484998Y-84760000D02*
X116385002Y-84760000D01*
G75*
G02*
X116635000Y-85009998I0J-249998D01*
G01*
X116635000Y-85635002D01*
G75*
G02*
X116385002Y-85885000I-249998J0D01*
G01*
X113484998Y-85885000D01*
G75*
G02*
X113235000Y-85635002I0J249998D01*
G01*
X113235000Y-85009998D01*
G75*
G02*
X113484998Y-84760000I249998J0D01*
G01*
G37*
%TD.AperFunction*%
%TO.P,LQ1_T1,1*%
%TO.N,+5V*%
%TA.AperFunction,SMDPad,CuDef*%
G36*
G01*
X113484998Y-80485000D02*
X116385002Y-80485000D01*
G75*
G02*
X116635000Y-80734998I0J-249998D01*
G01*
X116635000Y-81360002D01*
G75*
G02*
X116385002Y-81610000I-249998J0D01*
G01*
X113484998Y-81610000D01*
G75*
G02*
X113235000Y-81360002I0J249998D01*
G01*
X113235000Y-80734998D01*
G75*
G02*
X113484998Y-80485000I249998J0D01*
G01*
G37*
%TD.AperFunction*%
%TD*%
%TO.P,LMatch1,2*%
%TO.N,Net-(CMatch1-Pad1)*%
%TA.AperFunction,SMDPad,CuDef*%
G36*
G01*
X97916750Y-84521200D02*
X98679250Y-84521200D01*
G75*
G02*
X98898000Y-84739950I0J-218750D01*
G01*
X98898000Y-85177450D01*
G75*
G02*
X98679250Y-85396200I-218750J0D01*
G01*
X97916750Y-85396200D01*
G75*
G02*
X97698000Y-85177450I0J218750D01*
G01*
X97698000Y-84739950D01*
G75*
G02*
X97916750Y-84521200I218750J0D01*
G01*
G37*
%TD.AperFunction*%
%TO.P,LMatch1,1*%
%TO.N,Net-(CC3-Pad2)*%
%TA.AperFunction,SMDPad,CuDef*%
G36*
G01*
X97916750Y-82396200D02*
X98679250Y-82396200D01*
G75*
G02*
X98898000Y-82614950I0J-218750D01*
G01*
X98898000Y-83052450D01*
G75*
G02*
X98679250Y-83271200I-218750J0D01*
G01*
X97916750Y-83271200D01*
G75*
G02*
X97698000Y-83052450I0J218750D01*
G01*
X97698000Y-82614950D01*
G75*
G02*
X97916750Y-82396200I218750J0D01*
G01*
G37*
%TD.AperFunction*%
%TD*%
D22*
%TO.P,J_RSSI1,2*%
%TO.N,GND*%
X109982000Y-101600000D03*
%TO.P,J_RSSI1,1*%
%TO.N,/RSSI_Out*%
%TA.AperFunction,ComponentPad*%
G36*
G01*
X115962000Y-100050000D02*
X115962000Y-103150000D01*
G75*
G02*
X115712000Y-103400000I-250000J0D01*
G01*
X114412000Y-103400000D01*
G75*
G02*
X114162000Y-103150000I0J250000D01*
G01*
X114162000Y-100050000D01*
G75*
G02*
X114412000Y-99800000I250000J0D01*
G01*
X115712000Y-99800000D01*
G75*
G02*
X115962000Y-100050000I0J-250000D01*
G01*
G37*
%TD.AperFunction*%
%TD*%
%TO.P,J_Power1,2*%
%TO.N,GND*%
X120650000Y-64262000D03*
%TO.P,J_Power1,1*%
%TO.N,+5V*%
%TA.AperFunction,ComponentPad*%
G36*
G01*
X114670000Y-65812000D02*
X114670000Y-62712000D01*
G75*
G02*
X114920000Y-62462000I250000J0D01*
G01*
X116220000Y-62462000D01*
G75*
G02*
X116470000Y-62712000I0J-250000D01*
G01*
X116470000Y-65812000D01*
G75*
G02*
X116220000Y-66062000I-250000J0D01*
G01*
X114920000Y-66062000D01*
G75*
G02*
X114670000Y-65812000I0J250000D01*
G01*
G37*
%TD.AperFunction*%
%TD*%
D23*
%TO.P,J_Audio1,2*%
%TO.N,GND*%
X156718000Y-95504000D03*
%TO.P,J_Audio1,1*%
%TO.N,/Audio_Out*%
%TA.AperFunction,ComponentPad*%
G36*
G01*
X155168000Y-89524000D02*
X158268000Y-89524000D01*
G75*
G02*
X158518000Y-89774000I0J-250000D01*
G01*
X158518000Y-91074000D01*
G75*
G02*
X158268000Y-91324000I-250000J0D01*
G01*
X155168000Y-91324000D01*
G75*
G02*
X154918000Y-91074000I0J250000D01*
G01*
X154918000Y-89774000D01*
G75*
G02*
X155168000Y-89524000I250000J0D01*
G01*
G37*
%TD.AperFunction*%
%TD*%
%TO.P,CQ1,2*%
%TO.N,Net-(C5-Pad1)*%
%TA.AperFunction,SMDPad,CuDef*%
G36*
G01*
X120810000Y-83635000D02*
X121760000Y-83635000D01*
G75*
G02*
X122010000Y-83885000I0J-250000D01*
G01*
X122010000Y-84385000D01*
G75*
G02*
X121760000Y-84635000I-250000J0D01*
G01*
X120810000Y-84635000D01*
G75*
G02*
X120560000Y-84385000I0J250000D01*
G01*
X120560000Y-83885000D01*
G75*
G02*
X120810000Y-83635000I250000J0D01*
G01*
G37*
%TD.AperFunction*%
%TO.P,CQ1,1*%
%TO.N,+5V*%
%TA.AperFunction,SMDPad,CuDef*%
G36*
G01*
X120810000Y-81735000D02*
X121760000Y-81735000D01*
G75*
G02*
X122010000Y-81985000I0J-250000D01*
G01*
X122010000Y-82485000D01*
G75*
G02*
X121760000Y-82735000I-250000J0D01*
G01*
X120810000Y-82735000D01*
G75*
G02*
X120560000Y-82485000I0J250000D01*
G01*
X120560000Y-81985000D01*
G75*
G02*
X120810000Y-81735000I250000J0D01*
G01*
G37*
%TD.AperFunction*%
%TD*%
%TO.P,CMatch1,2*%
%TO.N,GND*%
%TA.AperFunction,SMDPad,CuDef*%
G36*
G01*
X96933600Y-86901000D02*
X96933600Y-87851000D01*
G75*
G02*
X96683600Y-88101000I-250000J0D01*
G01*
X96183600Y-88101000D01*
G75*
G02*
X95933600Y-87851000I0J250000D01*
G01*
X95933600Y-86901000D01*
G75*
G02*
X96183600Y-86651000I250000J0D01*
G01*
X96683600Y-86651000D01*
G75*
G02*
X96933600Y-86901000I0J-250000D01*
G01*
G37*
%TD.AperFunction*%
%TO.P,CMatch1,1*%
%TO.N,Net-(CMatch1-Pad1)*%
%TA.AperFunction,SMDPad,CuDef*%
G36*
G01*
X98833600Y-86901000D02*
X98833600Y-87851000D01*
G75*
G02*
X98583600Y-88101000I-250000J0D01*
G01*
X98083600Y-88101000D01*
G75*
G02*
X97833600Y-87851000I0J250000D01*
G01*
X97833600Y-86901000D01*
G75*
G02*
X98083600Y-86651000I250000J0D01*
G01*
X98583600Y-86651000D01*
G75*
G02*
X98833600Y-86901000I0J-250000D01*
G01*
G37*
%TD.AperFunction*%
%TD*%
%TO.P,Cc1,2*%
%TO.N,GND*%
%TA.AperFunction,SMDPad,CuDef*%
G36*
G01*
X130081000Y-89858000D02*
X131031000Y-89858000D01*
G75*
G02*
X131281000Y-90108000I0J-250000D01*
G01*
X131281000Y-90608000D01*
G75*
G02*
X131031000Y-90858000I-250000J0D01*
G01*
X130081000Y-90858000D01*
G75*
G02*
X129831000Y-90608000I0J250000D01*
G01*
X129831000Y-90108000D01*
G75*
G02*
X130081000Y-89858000I250000J0D01*
G01*
G37*
%TD.AperFunction*%
%TO.P,Cc1,1*%
%TO.N,Net-(Cc1-Pad1)*%
%TA.AperFunction,SMDPad,CuDef*%
G36*
G01*
X130081000Y-87958000D02*
X131031000Y-87958000D01*
G75*
G02*
X131281000Y-88208000I0J-250000D01*
G01*
X131281000Y-88708000D01*
G75*
G02*
X131031000Y-88958000I-250000J0D01*
G01*
X130081000Y-88958000D01*
G75*
G02*
X129831000Y-88708000I0J250000D01*
G01*
X129831000Y-88208000D01*
G75*
G02*
X130081000Y-87958000I250000J0D01*
G01*
G37*
%TD.AperFunction*%
%TD*%
%TO.P,Cb1,2*%
%TO.N,GND*%
%TA.AperFunction,SMDPad,CuDef*%
G36*
G01*
X141699000Y-86926000D02*
X140749000Y-86926000D01*
G75*
G02*
X140499000Y-86676000I0J250000D01*
G01*
X140499000Y-86176000D01*
G75*
G02*
X140749000Y-85926000I250000J0D01*
G01*
X141699000Y-85926000D01*
G75*
G02*
X141949000Y-86176000I0J-250000D01*
G01*
X141949000Y-86676000D01*
G75*
G02*
X141699000Y-86926000I-250000J0D01*
G01*
G37*
%TD.AperFunction*%
%TO.P,Cb1,1*%
%TO.N,Net-(Cb1-Pad1)*%
%TA.AperFunction,SMDPad,CuDef*%
G36*
G01*
X141699000Y-88826000D02*
X140749000Y-88826000D01*
G75*
G02*
X140499000Y-88576000I0J250000D01*
G01*
X140499000Y-88076000D01*
G75*
G02*
X140749000Y-87826000I250000J0D01*
G01*
X141699000Y-87826000D01*
G75*
G02*
X141949000Y-88076000I0J-250000D01*
G01*
X141949000Y-88576000D01*
G75*
G02*
X141699000Y-88826000I-250000J0D01*
G01*
G37*
%TD.AperFunction*%
%TD*%
%TO.P,Ca1,2*%
%TO.N,/Audio_Out*%
%TA.AperFunction,SMDPad,CuDef*%
G36*
G01*
X147008000Y-93947000D02*
X147008000Y-92997000D01*
G75*
G02*
X147258000Y-92747000I250000J0D01*
G01*
X147758000Y-92747000D01*
G75*
G02*
X148008000Y-92997000I0J-250000D01*
G01*
X148008000Y-93947000D01*
G75*
G02*
X147758000Y-94197000I-250000J0D01*
G01*
X147258000Y-94197000D01*
G75*
G02*
X147008000Y-93947000I0J250000D01*
G01*
G37*
%TD.AperFunction*%
%TO.P,Ca1,1*%
%TO.N,Net-(Ca1-Pad1)*%
%TA.AperFunction,SMDPad,CuDef*%
G36*
G01*
X145108000Y-93947000D02*
X145108000Y-92997000D01*
G75*
G02*
X145358000Y-92747000I250000J0D01*
G01*
X145858000Y-92747000D01*
G75*
G02*
X146108000Y-92997000I0J-250000D01*
G01*
X146108000Y-93947000D01*
G75*
G02*
X145858000Y-94197000I-250000J0D01*
G01*
X145358000Y-94197000D01*
G75*
G02*
X145108000Y-93947000I0J250000D01*
G01*
G37*
%TD.AperFunction*%
%TD*%
%TO.P,C9,2*%
%TO.N,GND*%
%TA.AperFunction,SMDPad,CuDef*%
G36*
G01*
X111351000Y-70830000D02*
X111351000Y-72680000D01*
G75*
G02*
X111101000Y-72930000I-250000J0D01*
G01*
X109526000Y-72930000D01*
G75*
G02*
X109276000Y-72680000I0J250000D01*
G01*
X109276000Y-70830000D01*
G75*
G02*
X109526000Y-70580000I250000J0D01*
G01*
X111101000Y-70580000D01*
G75*
G02*
X111351000Y-70830000I0J-250000D01*
G01*
G37*
%TD.AperFunction*%
%TO.P,C9,1*%
%TO.N,+5V*%
%TA.AperFunction,SMDPad,CuDef*%
G36*
G01*
X116276000Y-70830000D02*
X116276000Y-72680000D01*
G75*
G02*
X116026000Y-72930000I-250000J0D01*
G01*
X114451000Y-72930000D01*
G75*
G02*
X114201000Y-72680000I0J250000D01*
G01*
X114201000Y-70830000D01*
G75*
G02*
X114451000Y-70580000I250000J0D01*
G01*
X116026000Y-70580000D01*
G75*
G02*
X116276000Y-70830000I0J-250000D01*
G01*
G37*
%TD.AperFunction*%
%TD*%
%TO.P,C8,2*%
%TO.N,GND*%
%TA.AperFunction,SMDPad,CuDef*%
G36*
G01*
X112961000Y-76995000D02*
X112961000Y-77945000D01*
G75*
G02*
X112711000Y-78195000I-250000J0D01*
G01*
X112211000Y-78195000D01*
G75*
G02*
X111961000Y-77945000I0J250000D01*
G01*
X111961000Y-76995000D01*
G75*
G02*
X112211000Y-76745000I250000J0D01*
G01*
X112711000Y-76745000D01*
G75*
G02*
X112961000Y-76995000I0J-250000D01*
G01*
G37*
%TD.AperFunction*%
%TO.P,C8,1*%
%TO.N,+5V*%
%TA.AperFunction,SMDPad,CuDef*%
G36*
G01*
X114861000Y-76995000D02*
X114861000Y-77945000D01*
G75*
G02*
X114611000Y-78195000I-250000J0D01*
G01*
X114111000Y-78195000D01*
G75*
G02*
X113861000Y-77945000I0J250000D01*
G01*
X113861000Y-76995000D01*
G75*
G02*
X114111000Y-76745000I250000J0D01*
G01*
X114611000Y-76745000D01*
G75*
G02*
X114861000Y-76995000I0J-250000D01*
G01*
G37*
%TD.AperFunction*%
%TD*%
%TO.P,C7,2*%
%TO.N,GND*%
%TA.AperFunction,SMDPad,CuDef*%
G36*
G01*
X108770000Y-87663000D02*
X108770000Y-88613000D01*
G75*
G02*
X108520000Y-88863000I-250000J0D01*
G01*
X108020000Y-88863000D01*
G75*
G02*
X107770000Y-88613000I0J250000D01*
G01*
X107770000Y-87663000D01*
G75*
G02*
X108020000Y-87413000I250000J0D01*
G01*
X108520000Y-87413000D01*
G75*
G02*
X108770000Y-87663000I0J-250000D01*
G01*
G37*
%TD.AperFunction*%
%TO.P,C7,1*%
%TO.N,+5V*%
%TA.AperFunction,SMDPad,CuDef*%
G36*
G01*
X110670000Y-87663000D02*
X110670000Y-88613000D01*
G75*
G02*
X110420000Y-88863000I-250000J0D01*
G01*
X109920000Y-88863000D01*
G75*
G02*
X109670000Y-88613000I0J250000D01*
G01*
X109670000Y-87663000D01*
G75*
G02*
X109920000Y-87413000I250000J0D01*
G01*
X110420000Y-87413000D01*
G75*
G02*
X110670000Y-87663000I0J-250000D01*
G01*
G37*
%TD.AperFunction*%
%TD*%
%TO.P,C5,2*%
%TO.N,Net-(C5-Pad2)*%
%TA.AperFunction,SMDPad,CuDef*%
G36*
G01*
X118864000Y-90965000D02*
X118864000Y-91915000D01*
G75*
G02*
X118614000Y-92165000I-250000J0D01*
G01*
X118114000Y-92165000D01*
G75*
G02*
X117864000Y-91915000I0J250000D01*
G01*
X117864000Y-90965000D01*
G75*
G02*
X118114000Y-90715000I250000J0D01*
G01*
X118614000Y-90715000D01*
G75*
G02*
X118864000Y-90965000I0J-250000D01*
G01*
G37*
%TD.AperFunction*%
%TO.P,C5,1*%
%TO.N,Net-(C5-Pad1)*%
%TA.AperFunction,SMDPad,CuDef*%
G36*
G01*
X120764000Y-90965000D02*
X120764000Y-91915000D01*
G75*
G02*
X120514000Y-92165000I-250000J0D01*
G01*
X120014000Y-92165000D01*
G75*
G02*
X119764000Y-91915000I0J250000D01*
G01*
X119764000Y-90965000D01*
G75*
G02*
X120014000Y-90715000I250000J0D01*
G01*
X120514000Y-90715000D01*
G75*
G02*
X120764000Y-90965000I0J-250000D01*
G01*
G37*
%TD.AperFunction*%
%TD*%
%TO.P,C4,2*%
%TO.N,/RSSI_Out*%
%TA.AperFunction,SMDPad,CuDef*%
G36*
G01*
X114755000Y-96995000D02*
X114755000Y-96045000D01*
G75*
G02*
X115005000Y-95795000I250000J0D01*
G01*
X115505000Y-95795000D01*
G75*
G02*
X115755000Y-96045000I0J-250000D01*
G01*
X115755000Y-96995000D01*
G75*
G02*
X115505000Y-97245000I-250000J0D01*
G01*
X115005000Y-97245000D01*
G75*
G02*
X114755000Y-96995000I0J250000D01*
G01*
G37*
%TD.AperFunction*%
%TO.P,C4,1*%
%TO.N,GND*%
%TA.AperFunction,SMDPad,CuDef*%
G36*
G01*
X112855000Y-96995000D02*
X112855000Y-96045000D01*
G75*
G02*
X113105000Y-95795000I250000J0D01*
G01*
X113605000Y-95795000D01*
G75*
G02*
X113855000Y-96045000I0J-250000D01*
G01*
X113855000Y-96995000D01*
G75*
G02*
X113605000Y-97245000I-250000J0D01*
G01*
X113105000Y-97245000D01*
G75*
G02*
X112855000Y-96995000I0J250000D01*
G01*
G37*
%TD.AperFunction*%
%TD*%
%TO.P,C3,2*%
%TO.N,GND*%
%TA.AperFunction,SMDPad,CuDef*%
G36*
G01*
X107983000Y-94938000D02*
X108933000Y-94938000D01*
G75*
G02*
X109183000Y-95188000I0J-250000D01*
G01*
X109183000Y-95688000D01*
G75*
G02*
X108933000Y-95938000I-250000J0D01*
G01*
X107983000Y-95938000D01*
G75*
G02*
X107733000Y-95688000I0J250000D01*
G01*
X107733000Y-95188000D01*
G75*
G02*
X107983000Y-94938000I250000J0D01*
G01*
G37*
%TD.AperFunction*%
%TO.P,C3,1*%
%TO.N,Net-(C3-Pad1)*%
%TA.AperFunction,SMDPad,CuDef*%
G36*
G01*
X107983000Y-93038000D02*
X108933000Y-93038000D01*
G75*
G02*
X109183000Y-93288000I0J-250000D01*
G01*
X109183000Y-93788000D01*
G75*
G02*
X108933000Y-94038000I-250000J0D01*
G01*
X107983000Y-94038000D01*
G75*
G02*
X107733000Y-93788000I0J250000D01*
G01*
X107733000Y-93288000D01*
G75*
G02*
X107983000Y-93038000I250000J0D01*
G01*
G37*
%TD.AperFunction*%
%TD*%
%TO.P,C2,2*%
%TO.N,GND*%
%TA.AperFunction,SMDPad,CuDef*%
G36*
G01*
X105189000Y-93922000D02*
X106139000Y-93922000D01*
G75*
G02*
X106389000Y-94172000I0J-250000D01*
G01*
X106389000Y-94672000D01*
G75*
G02*
X106139000Y-94922000I-250000J0D01*
G01*
X105189000Y-94922000D01*
G75*
G02*
X104939000Y-94672000I0J250000D01*
G01*
X104939000Y-94172000D01*
G75*
G02*
X105189000Y-93922000I250000J0D01*
G01*
G37*
%TD.AperFunction*%
%TO.P,C2,1*%
%TO.N,Net-(C2-Pad1)*%
%TA.AperFunction,SMDPad,CuDef*%
G36*
G01*
X105189000Y-92022000D02*
X106139000Y-92022000D01*
G75*
G02*
X106389000Y-92272000I0J-250000D01*
G01*
X106389000Y-92772000D01*
G75*
G02*
X106139000Y-93022000I-250000J0D01*
G01*
X105189000Y-93022000D01*
G75*
G02*
X104939000Y-92772000I0J250000D01*
G01*
X104939000Y-92272000D01*
G75*
G02*
X105189000Y-92022000I250000J0D01*
G01*
G37*
%TD.AperFunction*%
%TD*%
D24*
%TO.N,GND*%
X141732000Y-90424000D03*
X81188550Y-61970150D03*
X81188550Y-68970150D03*
X81188550Y-75970150D03*
X81188550Y-98970150D03*
X83188550Y-103970150D03*
X85188550Y-64970150D03*
X85188550Y-71970150D03*
X85188550Y-94970150D03*
X87188550Y-99970150D03*
X88188550Y-60970150D03*
X89188550Y-67970150D03*
X89188550Y-90970150D03*
X89188550Y-104970150D03*
X90188550Y-79970150D03*
X91188550Y-85970150D03*
X91188550Y-95970150D03*
X93188550Y-100970150D03*
X95188550Y-64970150D03*
X95188550Y-81970150D03*
X96188550Y-70970150D03*
X96188550Y-104970150D03*
X97188550Y-94970150D03*
X99188550Y-60970150D03*
X99188550Y-99970150D03*
X100188550Y-66970150D03*
X100188550Y-73970150D03*
X100188550Y-83970150D03*
X100188550Y-90970150D03*
X102188550Y-78970150D03*
X102188550Y-103970150D03*
X103188550Y-95970150D03*
X104188550Y-62970150D03*
X104188550Y-69970150D03*
X104188550Y-86970150D03*
X106188550Y-74970150D03*
X106188550Y-81970150D03*
X106188550Y-99970150D03*
X108188550Y-65970150D03*
X108188550Y-104970150D03*
X110188550Y-60970150D03*
X110188550Y-77970150D03*
X110188550Y-93970150D03*
X112188550Y-68970150D03*
X112188550Y-83970150D03*
X112188550Y-98970150D03*
X115188550Y-104970150D03*
X116188550Y-73970150D03*
X117188550Y-93970150D03*
X118188550Y-60970150D03*
X118188550Y-67970150D03*
X118188550Y-78970150D03*
X118188550Y-99970150D03*
X121188550Y-71970150D03*
X121188550Y-103970150D03*
X122188550Y-95970150D03*
X123188550Y-62970150D03*
X123188550Y-76970150D03*
X124188550Y-90970150D03*
X125188550Y-67970150D03*
X125188550Y-99970150D03*
X127188550Y-72970150D03*
X127188550Y-79970150D03*
X127188550Y-104970150D03*
X128188550Y-60970150D03*
X128188550Y-85970150D03*
X128188550Y-93970150D03*
X130188550Y-65970150D03*
X131188550Y-75970150D03*
X131188550Y-97970150D03*
X133188550Y-69970150D03*
X133188550Y-83970150D03*
X133188550Y-90970150D03*
X133188550Y-102970150D03*
X134188550Y-61970150D03*
X135188550Y-78970150D03*
X136188550Y-94970150D03*
X137188550Y-65970150D03*
X137188550Y-72970150D03*
X138188550Y-85970150D03*
X138188550Y-99970150D03*
X140188550Y-60970150D03*
X140188550Y-76970150D03*
X140188550Y-104970150D03*
X141188550Y-68970150D03*
X142188550Y-95970150D03*
X144188550Y-63970150D03*
X144188550Y-72970150D03*
X144188550Y-79970150D03*
X144188550Y-86970150D03*
X144188550Y-100970150D03*
X147188550Y-67970150D03*
X147188550Y-104970150D03*
X148188550Y-60970150D03*
X148188550Y-75970150D03*
X148188550Y-82970150D03*
X148188550Y-96970150D03*
X150188550Y-87970150D03*
X151188550Y-64970150D03*
X151188550Y-71970150D03*
X151188550Y-100970150D03*
X152188550Y-78970150D03*
X152188550Y-92970150D03*
X154188550Y-83970150D03*
X154188550Y-104970150D03*
X155188550Y-60970150D03*
X155188550Y-67970150D03*
X155188550Y-74970150D03*
X155188550Y-97970150D03*
X157188550Y-87970150D03*
X158188550Y-79970150D03*
X158188550Y-101970150D03*
%TO.N,/AF_Out*%
X123698000Y-88392000D03*
X117856000Y-88646000D03*
%TD*%
D25*
%TO.N,GND*%
X110830000Y-92440000D02*
X110830000Y-92796000D01*
X145204000Y-89408000D02*
X143637000Y-89408000D01*
X145984000Y-89408000D02*
X146304000Y-89088000D01*
X145204000Y-89408000D02*
X145984000Y-89408000D01*
X146304000Y-89088000D02*
X146304000Y-87884000D01*
X146304000Y-87884000D02*
X145796000Y-87376000D01*
X145796000Y-87376000D02*
X145542000Y-87376000D01*
%TO.N,Net-(C2-Pad1)*%
X105664000Y-92522000D02*
X106746000Y-91440000D01*
X106746000Y-91440000D02*
X111252000Y-91440000D01*
%TO.N,Net-(C3-Pad1)*%
X108458000Y-93038000D02*
X109548000Y-91948000D01*
X108458000Y-93538000D02*
X108458000Y-93038000D01*
X109548000Y-91948000D02*
X110998000Y-91948000D01*
D26*
%TO.N,/RSSI_Out*%
X115316000Y-96266000D02*
X115316000Y-94234000D01*
D27*
X115316000Y-94234000D02*
X115316000Y-93472000D01*
D25*
X115316000Y-93472000D02*
X115316000Y-92456000D01*
D26*
X115255000Y-96520000D02*
X115255000Y-102550000D01*
X115255000Y-102550000D02*
X114935000Y-102870000D01*
D25*
%TO.N,Net-(C5-Pad2)*%
X115230000Y-91440000D02*
X118364000Y-91440000D01*
D26*
%TO.N,Net-(C5-Pad1)*%
X120264000Y-91440000D02*
X120904000Y-91440000D01*
X120904000Y-91440000D02*
X121920000Y-90424000D01*
X121920000Y-90424000D02*
X121920000Y-89154000D01*
D25*
X115230000Y-90940000D02*
X114054000Y-90940000D01*
X114054000Y-90940000D02*
X113538000Y-90424000D01*
X113538000Y-90424000D02*
X113538000Y-88646000D01*
D26*
X113538000Y-88646000D02*
X113538000Y-88138000D01*
X113538000Y-88138000D02*
X114808000Y-86868000D01*
X114808000Y-86868000D02*
X114808000Y-85598000D01*
X114808000Y-85598000D02*
X115062000Y-85344000D01*
X115062000Y-85344000D02*
X120396000Y-85344000D01*
X120396000Y-85344000D02*
X121158000Y-84582000D01*
X121158000Y-84582000D02*
X125730000Y-84582000D01*
X125730000Y-84582000D02*
X126238000Y-84074000D01*
X120396000Y-87630000D02*
X121920000Y-89154000D01*
X120396000Y-85344000D02*
X120396000Y-87630000D01*
D25*
%TO.N,+5V*%
X110830000Y-90440000D02*
X110830000Y-90002000D01*
X110830000Y-90002000D02*
X110236000Y-89408000D01*
X110236000Y-89408000D02*
X110236000Y-88138000D01*
D26*
X115316000Y-71882000D02*
X114300000Y-72898000D01*
X114300000Y-72898000D02*
X114300000Y-80518000D01*
X114300000Y-80518000D02*
X114808000Y-81026000D01*
X114808000Y-81026000D02*
X120396000Y-81026000D01*
X120396000Y-81026000D02*
X121412000Y-82042000D01*
X121412000Y-82042000D02*
X126492000Y-82042000D01*
X114935000Y-81047500D02*
X111992500Y-81047500D01*
X111992500Y-81047500D02*
X110236000Y-82804000D01*
X110236000Y-82804000D02*
X110236000Y-88138000D01*
X126388500Y-82145500D02*
X126492000Y-82042000D01*
X126238000Y-82145500D02*
X126388500Y-82145500D01*
X115238500Y-71755000D02*
X115238500Y-64085500D01*
X115238500Y-64085500D02*
X115316000Y-64163000D01*
X126238000Y-82145500D02*
X142216500Y-82145500D01*
X142216500Y-82145500D02*
X147447000Y-87376000D01*
X147447000Y-87376000D02*
X147447000Y-88265000D01*
D27*
%TO.N,/Audio_Out*%
X148082000Y-90424000D02*
X147320000Y-90424000D01*
X147404000Y-90358000D02*
X150556000Y-90358000D01*
D26*
X150556000Y-90358000D02*
X157160000Y-90358000D01*
D27*
X147508000Y-93472000D02*
X147508000Y-90612000D01*
X147508000Y-90612000D02*
X147320000Y-90424000D01*
D26*
%TO.N,Net-(Ca1-Pad1)*%
X144272000Y-92710000D02*
X137922000Y-92710000D01*
X137922000Y-92710000D02*
X135890000Y-90678000D01*
X135890000Y-90678000D02*
X135890000Y-88392000D01*
X135890000Y-88392000D02*
X136906000Y-88392000D01*
X136906000Y-88392000D02*
X134747000Y-88392000D01*
X144272000Y-92710000D02*
X144780000Y-92710000D01*
X144780000Y-92710000D02*
X145542000Y-93472000D01*
D27*
X144780000Y-92710000D02*
X144780000Y-90678000D01*
X144780000Y-90678000D02*
X145034000Y-90424000D01*
%TO.N,Net-(Cb1-Pad1)*%
X141224000Y-88458000D02*
X145113001Y-88458000D01*
D26*
X138834500Y-88392000D02*
X141224000Y-88392000D01*
%TO.N,Net-(Cc1-Pad1)*%
X127404500Y-88392000D02*
X130556000Y-88392000D01*
X130556000Y-88458000D02*
X132776000Y-88458000D01*
D27*
%TO.N,Net-(CMatch1-Pad1)*%
X98298000Y-84958700D02*
X98298000Y-90576400D01*
X98298000Y-90576400D02*
X98323400Y-90601800D01*
%TO.N,/IF_In*%
X98301000Y-93005500D02*
X100948900Y-93005500D01*
X100948900Y-93005500D02*
X103174800Y-90779600D01*
X103174800Y-90779600D02*
X103174800Y-90373200D01*
D25*
%TO.N,/AF_Out*%
X115230000Y-90440000D02*
X115230000Y-89748000D01*
D26*
X116332000Y-88646000D02*
X117856000Y-88646000D01*
D27*
X115230000Y-89748000D02*
X116332000Y-88646000D01*
D26*
X123698000Y-88392000D02*
X125476000Y-88392000D01*
D25*
%TO.N,Net-(C1-Pad1)*%
X105090000Y-90424000D02*
X108204000Y-90424000D01*
X108204000Y-90424000D02*
X108712000Y-90932000D01*
X108712000Y-90932000D02*
X111252000Y-90932000D01*
D26*
%TO.N,Net-(CC2-Pad2)*%
X93726000Y-68793400D02*
X93726000Y-72923400D01*
%TO.N,Net-(CC2-Pad1)*%
X93624400Y-61061600D02*
X93624400Y-66624200D01*
D27*
%TO.N,Net-(CC3-Pad2)*%
X98298000Y-80020200D02*
X98298000Y-82778600D01*
D26*
%TO.N,Net-(CC3-Pad1)*%
X93751400Y-75387200D02*
X97078800Y-75387200D01*
X97078800Y-75387200D02*
X98272600Y-76581000D01*
X98272600Y-76581000D02*
X98272600Y-77990700D01*
%TO.N,Net-(CC4-Pad2)*%
X81788000Y-86360000D02*
X85852000Y-86360000D01*
X85852000Y-86360000D02*
X87884000Y-84328000D01*
%TO.N,Net-(CC4-Pad1)*%
X87884000Y-82577900D02*
X87884000Y-78689200D01*
X87884000Y-78689200D02*
X88646000Y-77927200D01*
%TD*%
D28*
%TO.N,GND*%
X155722249Y-59152437D02*
X156479774Y-59359672D01*
X157188625Y-59697777D01*
X157826404Y-60156067D01*
X158372946Y-60720055D01*
X158810977Y-61371913D01*
X159126651Y-62091038D01*
X159311206Y-62859768D01*
X159360001Y-63524221D01*
X159360000Y-101570608D01*
X159287563Y-102382249D01*
X159080328Y-103139774D01*
X158742221Y-103848627D01*
X158283928Y-104486410D01*
X157719945Y-105032946D01*
X157068085Y-105470978D01*
X156348963Y-105786651D01*
X155580232Y-105971206D01*
X154915792Y-106020000D01*
X83849392Y-106020000D01*
X83037751Y-105947563D01*
X82280226Y-105740328D01*
X81571373Y-105402221D01*
X80933590Y-104943928D01*
X80387054Y-104379945D01*
X79949022Y-103728085D01*
X79633349Y-103008963D01*
X79448794Y-102240232D01*
X79411105Y-101727000D01*
X108447000Y-101727000D01*
X108447000Y-102627000D01*
X108501271Y-102924023D01*
X108612446Y-103204751D01*
X108776252Y-103458396D01*
X108986394Y-103675210D01*
X109234796Y-103846862D01*
X109511913Y-103966755D01*
X109617260Y-103991036D01*
X109855000Y-103870378D01*
X109855000Y-101727000D01*
X110109000Y-101727000D01*
X110109000Y-103870378D01*
X110346740Y-103991036D01*
X110452087Y-103966755D01*
X110729204Y-103846862D01*
X110977606Y-103675210D01*
X111187748Y-103458396D01*
X111351554Y-103204751D01*
X111462729Y-102924023D01*
X111517000Y-102627000D01*
X111517000Y-101727000D01*
X110109000Y-101727000D01*
X109855000Y-101727000D01*
X108447000Y-101727000D01*
X79411105Y-101727000D01*
X79400000Y-101575792D01*
X79400000Y-100573000D01*
X108447000Y-100573000D01*
X108447000Y-101473000D01*
X109855000Y-101473000D01*
X109855000Y-99329622D01*
X110109000Y-99329622D01*
X110109000Y-101473000D01*
X111517000Y-101473000D01*
X111517000Y-100573000D01*
X111462729Y-100275977D01*
X111351554Y-99995249D01*
X111187748Y-99741604D01*
X110977606Y-99524790D01*
X110729204Y-99353138D01*
X110452087Y-99233245D01*
X110346740Y-99208964D01*
X110109000Y-99329622D01*
X109855000Y-99329622D01*
X109617260Y-99208964D01*
X109511913Y-99233245D01*
X109234796Y-99353138D01*
X108986394Y-99524790D01*
X108776252Y-99741604D01*
X108612446Y-99995249D01*
X108501271Y-100275977D01*
X108447000Y-100573000D01*
X79400000Y-100573000D01*
X79400000Y-97245000D01*
X112216928Y-97245000D01*
X112229188Y-97369482D01*
X112265498Y-97489180D01*
X112324463Y-97599494D01*
X112403815Y-97696185D01*
X112500506Y-97775537D01*
X112610820Y-97834502D01*
X112730518Y-97870812D01*
X112855000Y-97883072D01*
X113069250Y-97880000D01*
X113228000Y-97721250D01*
X113228000Y-96647000D01*
X112378750Y-96647000D01*
X112220000Y-96805750D01*
X112216928Y-97245000D01*
X79400000Y-97245000D01*
X79400000Y-95303400D01*
X99601528Y-95303400D01*
X99613788Y-95427882D01*
X99650098Y-95547580D01*
X99709063Y-95657894D01*
X99788415Y-95754585D01*
X99885106Y-95833937D01*
X99995420Y-95892902D01*
X100115118Y-95929212D01*
X100239600Y-95941472D01*
X100653850Y-95938400D01*
X100812600Y-95779650D01*
X100812600Y-94917900D01*
X101066600Y-94917900D01*
X101066600Y-95779650D01*
X101225350Y-95938400D01*
X101639600Y-95941472D01*
X101674852Y-95938000D01*
X107094928Y-95938000D01*
X107107188Y-96062482D01*
X107143498Y-96182180D01*
X107202463Y-96292494D01*
X107281815Y-96389185D01*
X107378506Y-96468537D01*
X107488820Y-96527502D01*
X107608518Y-96563812D01*
X107733000Y-96576072D01*
X108172250Y-96573000D01*
X108331000Y-96414250D01*
X108331000Y-95565000D01*
X108585000Y-95565000D01*
X108585000Y-96414250D01*
X108743750Y-96573000D01*
X109183000Y-96576072D01*
X109307482Y-96563812D01*
X109427180Y-96527502D01*
X109537494Y-96468537D01*
X109634185Y-96389185D01*
X109713537Y-96292494D01*
X109772502Y-96182180D01*
X109808812Y-96062482D01*
X109821072Y-95938000D01*
X109819022Y-95795000D01*
X112216928Y-95795000D01*
X112220000Y-96234250D01*
X112378750Y-96393000D01*
X113228000Y-96393000D01*
X113228000Y-95318750D01*
X113069250Y-95160000D01*
X112855000Y-95156928D01*
X112730518Y-95169188D01*
X112610820Y-95205498D01*
X112500506Y-95264463D01*
X112403815Y-95343815D01*
X112324463Y-95440506D01*
X112265498Y-95550820D01*
X112229188Y-95670518D01*
X112216928Y-95795000D01*
X109819022Y-95795000D01*
X109818000Y-95723750D01*
X109659250Y-95565000D01*
X108585000Y-95565000D01*
X108331000Y-95565000D01*
X107256750Y-95565000D01*
X107098000Y-95723750D01*
X107094928Y-95938000D01*
X101674852Y-95938000D01*
X101764082Y-95929212D01*
X101883780Y-95892902D01*
X101994094Y-95833937D01*
X102090785Y-95754585D01*
X102170137Y-95657894D01*
X102229102Y-95547580D01*
X102265412Y-95427882D01*
X102277672Y-95303400D01*
X102274600Y-95076650D01*
X102119950Y-94922000D01*
X104300928Y-94922000D01*
X104313188Y-95046482D01*
X104349498Y-95166180D01*
X104408463Y-95276494D01*
X104487815Y-95373185D01*
X104584506Y-95452537D01*
X104694820Y-95511502D01*
X104814518Y-95547812D01*
X104939000Y-95560072D01*
X105378250Y-95557000D01*
X105537000Y-95398250D01*
X105537000Y-94549000D01*
X105791000Y-94549000D01*
X105791000Y-95398250D01*
X105949750Y-95557000D01*
X106389000Y-95560072D01*
X106513482Y-95547812D01*
X106633180Y-95511502D01*
X106743494Y-95452537D01*
X106840185Y-95373185D01*
X106919537Y-95276494D01*
X106978502Y-95166180D01*
X107014812Y-95046482D01*
X107027072Y-94922000D01*
X107024000Y-94707750D01*
X106865250Y-94549000D01*
X105791000Y-94549000D01*
X105537000Y-94549000D01*
X104462750Y-94549000D01*
X104304000Y-94707750D01*
X104300928Y-94922000D01*
X102119950Y-94922000D01*
X102115850Y-94917900D01*
X101066600Y-94917900D01*
X100812600Y-94917900D01*
X99763350Y-94917900D01*
X99604600Y-95076650D01*
X99601528Y-95303400D01*
X79400000Y-95303400D01*
X79400000Y-92480500D01*
X94462928Y-92480500D01*
X94462928Y-93530500D01*
X94475188Y-93654982D01*
X94511498Y-93774680D01*
X94570463Y-93884994D01*
X94649815Y-93981685D01*
X94746506Y-94061037D01*
X94856820Y-94120002D01*
X94976518Y-94156312D01*
X95101000Y-94168572D01*
X95901000Y-94168572D01*
X96025482Y-94156312D01*
X96145180Y-94120002D01*
X96201000Y-94090165D01*
X96256820Y-94120002D01*
X96376518Y-94156312D01*
X96501000Y-94168572D01*
X96615250Y-94165500D01*
X96774000Y-94006750D01*
X96774000Y-93132500D01*
X96754000Y-93132500D01*
X96754000Y-92878500D01*
X96774000Y-92878500D01*
X96774000Y-92004250D01*
X97028000Y-92004250D01*
X97028000Y-92878500D01*
X97048000Y-92878500D01*
X97048000Y-93132500D01*
X97028000Y-93132500D01*
X97028000Y-94006750D01*
X97186750Y-94165500D01*
X97301000Y-94168572D01*
X97425482Y-94156312D01*
X97545180Y-94120002D01*
X97601000Y-94090165D01*
X97656820Y-94120002D01*
X97776518Y-94156312D01*
X97901000Y-94168572D01*
X98701000Y-94168572D01*
X98825482Y-94156312D01*
X98945180Y-94120002D01*
X99055494Y-94061037D01*
X99152185Y-93981685D01*
X99227018Y-93890500D01*
X99736479Y-93890500D01*
X99709063Y-93923906D01*
X99650098Y-94034220D01*
X99613788Y-94153918D01*
X99601528Y-94278400D01*
X99604600Y-94505150D01*
X99763350Y-94663900D01*
X100812600Y-94663900D01*
X100812600Y-94643900D01*
X101066600Y-94643900D01*
X101066600Y-94663900D01*
X102115850Y-94663900D01*
X102274600Y-94505150D01*
X102277672Y-94278400D01*
X102265412Y-94153918D01*
X102229102Y-94034220D01*
X102170137Y-93923906D01*
X102090785Y-93827215D01*
X102061324Y-93803037D01*
X102128005Y-93721787D01*
X102210072Y-93568252D01*
X102260608Y-93401656D01*
X102277672Y-93228402D01*
X102277672Y-92928306D01*
X103418907Y-91787072D01*
X103440000Y-91787072D01*
X103613254Y-91770008D01*
X103779850Y-91719472D01*
X103933386Y-91637405D01*
X104067962Y-91526962D01*
X104140000Y-91439183D01*
X104212038Y-91526962D01*
X104346614Y-91637405D01*
X104499442Y-91719094D01*
X104450595Y-91778614D01*
X104368528Y-91932150D01*
X104317992Y-92098746D01*
X104300928Y-92272000D01*
X104300928Y-92772000D01*
X104317992Y-92945254D01*
X104368528Y-93111850D01*
X104450595Y-93265386D01*
X104561038Y-93399962D01*
X104567594Y-93405342D01*
X104487815Y-93470815D01*
X104408463Y-93567506D01*
X104349498Y-93677820D01*
X104313188Y-93797518D01*
X104300928Y-93922000D01*
X104304000Y-94136250D01*
X104462750Y-94295000D01*
X105537000Y-94295000D01*
X105537000Y-94275000D01*
X105791000Y-94275000D01*
X105791000Y-94295000D01*
X106865250Y-94295000D01*
X107024000Y-94136250D01*
X107027072Y-93922000D01*
X107014812Y-93797518D01*
X106978502Y-93677820D01*
X106919537Y-93567506D01*
X106840185Y-93470815D01*
X106760406Y-93405342D01*
X106766962Y-93399962D01*
X106877405Y-93265386D01*
X106959472Y-93111850D01*
X107010008Y-92945254D01*
X107027072Y-92772000D01*
X107027072Y-92272000D01*
X107023641Y-92237161D01*
X107060802Y-92200000D01*
X108221199Y-92200000D01*
X108021271Y-92399928D01*
X107983000Y-92399928D01*
X107809746Y-92416992D01*
X107643150Y-92467528D01*
X107489614Y-92549595D01*
X107355038Y-92660038D01*
X107244595Y-92794614D01*
X107162528Y-92948150D01*
X107111992Y-93114746D01*
X107094928Y-93288000D01*
X107094928Y-93788000D01*
X107111992Y-93961254D01*
X107162528Y-94127850D01*
X107244595Y-94281386D01*
X107355038Y-94415962D01*
X107361594Y-94421342D01*
X107281815Y-94486815D01*
X107202463Y-94583506D01*
X107143498Y-94693820D01*
X107107188Y-94813518D01*
X107094928Y-94938000D01*
X107098000Y-95152250D01*
X107256750Y-95311000D01*
X108331000Y-95311000D01*
X108331000Y-95291000D01*
X108585000Y-95291000D01*
X108585000Y-95311000D01*
X109659250Y-95311000D01*
X109818000Y-95152250D01*
X109821072Y-94938000D01*
X109808812Y-94813518D01*
X109772502Y-94693820D01*
X109713537Y-94583506D01*
X109634185Y-94486815D01*
X109554406Y-94421342D01*
X109560962Y-94415962D01*
X109671405Y-94281386D01*
X109753472Y-94127850D01*
X109804008Y-93961254D01*
X109821072Y-93788000D01*
X109821072Y-93288000D01*
X109806253Y-93137545D01*
X109895046Y-93183239D01*
X110015296Y-93217677D01*
X110139954Y-93227994D01*
X110544250Y-93225000D01*
X110703000Y-93066250D01*
X110703000Y-92728072D01*
X110957000Y-92728072D01*
X110957000Y-93066250D01*
X111115750Y-93225000D01*
X111520046Y-93227994D01*
X111644704Y-93217677D01*
X111764954Y-93183239D01*
X111876174Y-93126003D01*
X111974092Y-93048169D01*
X112054943Y-92952727D01*
X112115621Y-92843346D01*
X112153794Y-92724229D01*
X112165000Y-92621750D01*
X112027725Y-92484475D01*
X112060537Y-92444494D01*
X112119502Y-92334180D01*
X112132753Y-92290497D01*
X112165000Y-92258250D01*
X112157898Y-92193302D01*
X112168072Y-92090000D01*
X112168072Y-91790000D01*
X112158223Y-91690000D01*
X112168072Y-91590000D01*
X112168072Y-91290000D01*
X112158223Y-91190000D01*
X112168072Y-91090000D01*
X112168072Y-90790000D01*
X112158223Y-90690000D01*
X112168072Y-90590000D01*
X112168072Y-90290000D01*
X112155812Y-90165518D01*
X112119502Y-90045820D01*
X112060537Y-89935506D01*
X111981185Y-89838815D01*
X111884494Y-89759463D01*
X111774180Y-89700498D01*
X111654482Y-89664188D01*
X111530000Y-89651928D01*
X111504637Y-89651928D01*
X111464974Y-89577724D01*
X111370001Y-89461999D01*
X111341002Y-89438200D01*
X111091145Y-89188343D01*
X111158405Y-89106386D01*
X111240472Y-88952850D01*
X111291008Y-88786254D01*
X111308072Y-88613000D01*
X111308072Y-88513804D01*
X111354577Y-88360499D01*
X111371000Y-88193752D01*
X111371000Y-83274131D01*
X112462632Y-82182500D01*
X113151833Y-82182500D01*
X113311744Y-82231008D01*
X113484998Y-82248072D01*
X116385002Y-82248072D01*
X116558256Y-82231008D01*
X116724852Y-82180472D01*
X116761281Y-82161000D01*
X119921928Y-82161000D01*
X119921928Y-82485000D01*
X119938992Y-82658254D01*
X119989528Y-82824850D01*
X120071595Y-82978386D01*
X120182038Y-83112962D01*
X120269817Y-83185000D01*
X120182038Y-83257038D01*
X120071595Y-83391614D01*
X119989528Y-83545150D01*
X119938992Y-83711746D01*
X119921928Y-83885000D01*
X119921928Y-84209000D01*
X116761281Y-84209000D01*
X116724852Y-84189528D01*
X116558256Y-84138992D01*
X116385002Y-84121928D01*
X113484998Y-84121928D01*
X113311744Y-84138992D01*
X113145148Y-84189528D01*
X112991613Y-84271595D01*
X112857038Y-84382038D01*
X112746595Y-84516613D01*
X112664528Y-84670148D01*
X112613992Y-84836744D01*
X112596928Y-85009998D01*
X112596928Y-85635002D01*
X112613992Y-85808256D01*
X112664528Y-85974852D01*
X112746595Y-86128387D01*
X112857038Y-86262962D01*
X112991613Y-86373405D01*
X113145148Y-86455472D01*
X113311744Y-86506008D01*
X113484998Y-86523072D01*
X113547796Y-86523072D01*
X112774860Y-87296009D01*
X112731552Y-87331551D01*
X112589717Y-87504377D01*
X112484324Y-87701553D01*
X112419423Y-87915501D01*
X112407612Y-88035423D01*
X112397509Y-88138000D01*
X112403000Y-88193751D01*
X112403000Y-88701751D01*
X112419423Y-88868498D01*
X112484324Y-89082446D01*
X112589716Y-89279623D01*
X112731551Y-89452449D01*
X112778001Y-89490569D01*
X112778000Y-90386677D01*
X112774324Y-90424000D01*
X112778000Y-90461322D01*
X112778000Y-90461332D01*
X112788997Y-90572985D01*
X112822369Y-90683000D01*
X112832454Y-90716246D01*
X112903026Y-90848276D01*
X112925944Y-90876201D01*
X112997999Y-90964001D01*
X113027002Y-90987803D01*
X113490200Y-91451002D01*
X113513999Y-91480001D01*
X113629724Y-91574974D01*
X113761753Y-91645546D01*
X113901576Y-91687960D01*
X113901777Y-91690000D01*
X113891928Y-91790000D01*
X113891928Y-92090000D01*
X113901777Y-92190000D01*
X113891928Y-92290000D01*
X113891928Y-92590000D01*
X113904188Y-92714482D01*
X113940498Y-92834180D01*
X113999463Y-92944494D01*
X114078815Y-93041185D01*
X114175506Y-93120537D01*
X114285820Y-93179502D01*
X114405518Y-93215812D01*
X114467054Y-93221873D01*
X114443805Y-93298510D01*
X114431000Y-93428523D01*
X114431000Y-93523267D01*
X114367717Y-93600377D01*
X114262325Y-93797553D01*
X114197424Y-94011501D01*
X114181001Y-94178248D01*
X114181001Y-95249233D01*
X114099180Y-95205498D01*
X113979482Y-95169188D01*
X113855000Y-95156928D01*
X113640750Y-95160000D01*
X113482000Y-95318750D01*
X113482000Y-96393000D01*
X113502000Y-96393000D01*
X113502000Y-96647000D01*
X113482000Y-96647000D01*
X113482000Y-97721250D01*
X113640750Y-97880000D01*
X113855000Y-97883072D01*
X113979482Y-97870812D01*
X114099180Y-97834502D01*
X114120000Y-97823373D01*
X114120000Y-99215013D01*
X114072150Y-99229528D01*
X113918614Y-99311595D01*
X113784038Y-99422038D01*
X113673595Y-99556614D01*
X113591528Y-99710150D01*
X113540992Y-99876746D01*
X113523928Y-100050000D01*
X113523928Y-103150000D01*
X113540992Y-103323254D01*
X113591528Y-103489850D01*
X113673595Y-103643386D01*
X113784038Y-103777962D01*
X113918614Y-103888405D01*
X114072150Y-103970472D01*
X114238746Y-104021008D01*
X114412000Y-104038072D01*
X115712000Y-104038072D01*
X115885254Y-104021008D01*
X116051850Y-103970472D01*
X116205386Y-103888405D01*
X116339962Y-103777962D01*
X116450405Y-103643386D01*
X116532472Y-103489850D01*
X116583008Y-103323254D01*
X116600072Y-103150000D01*
X116600072Y-100050000D01*
X116583008Y-99876746D01*
X116532472Y-99710150D01*
X116450405Y-99556614D01*
X116390000Y-99483010D01*
X116390000Y-97026191D01*
X116393072Y-96995000D01*
X116393072Y-96625321D01*
X116434577Y-96488499D01*
X116451000Y-96321752D01*
X116451000Y-95868740D01*
X154326964Y-95868740D01*
X154351245Y-95974087D01*
X154471138Y-96251204D01*
X154642790Y-96499606D01*
X154859604Y-96709748D01*
X155113249Y-96873554D01*
X155393977Y-96984729D01*
X155691000Y-97039000D01*
X156591000Y-97039000D01*
X156591000Y-95631000D01*
X156845000Y-95631000D01*
X156845000Y-97039000D01*
X157745000Y-97039000D01*
X158042023Y-96984729D01*
X158322751Y-96873554D01*
X158576396Y-96709748D01*
X158793210Y-96499606D01*
X158964862Y-96251204D01*
X159084755Y-95974087D01*
X159109036Y-95868740D01*
X158988378Y-95631000D01*
X156845000Y-95631000D01*
X156591000Y-95631000D01*
X154447622Y-95631000D01*
X154326964Y-95868740D01*
X116451000Y-95868740D01*
X116451000Y-95139260D01*
X154326964Y-95139260D01*
X154447622Y-95377000D01*
X156591000Y-95377000D01*
X156591000Y-93969000D01*
X156845000Y-93969000D01*
X156845000Y-95377000D01*
X158988378Y-95377000D01*
X159109036Y-95139260D01*
X159084755Y-95033913D01*
X158964862Y-94756796D01*
X158793210Y-94508394D01*
X158576396Y-94298252D01*
X158322751Y-94134446D01*
X158042023Y-94023271D01*
X157745000Y-93969000D01*
X156845000Y-93969000D01*
X156591000Y-93969000D01*
X155691000Y-93969000D01*
X155393977Y-94023271D01*
X155113249Y-94134446D01*
X154859604Y-94298252D01*
X154642790Y-94508394D01*
X154471138Y-94756796D01*
X154351245Y-95033913D01*
X154326964Y-95139260D01*
X116451000Y-95139260D01*
X116451000Y-94178248D01*
X116434577Y-94011501D01*
X116369676Y-93797553D01*
X116264284Y-93600377D01*
X116201000Y-93523265D01*
X116201000Y-93428523D01*
X116188195Y-93298510D01*
X116153955Y-93185637D01*
X116174180Y-93179502D01*
X116284494Y-93120537D01*
X116381185Y-93041185D01*
X116460537Y-92944494D01*
X116519502Y-92834180D01*
X116555812Y-92714482D01*
X116568072Y-92590000D01*
X116568072Y-92290000D01*
X116559208Y-92200000D01*
X117276890Y-92200000D01*
X117293528Y-92254850D01*
X117375595Y-92408386D01*
X117486038Y-92542962D01*
X117620614Y-92653405D01*
X117774150Y-92735472D01*
X117940746Y-92786008D01*
X118114000Y-92803072D01*
X118614000Y-92803072D01*
X118787254Y-92786008D01*
X118953850Y-92735472D01*
X119107386Y-92653405D01*
X119241962Y-92542962D01*
X119314000Y-92455183D01*
X119386038Y-92542962D01*
X119520614Y-92653405D01*
X119674150Y-92735472D01*
X119840746Y-92786008D01*
X120014000Y-92803072D01*
X120514000Y-92803072D01*
X120687254Y-92786008D01*
X120853850Y-92735472D01*
X121007386Y-92653405D01*
X121122449Y-92558976D01*
X121126499Y-92558577D01*
X121340447Y-92493676D01*
X121537623Y-92388284D01*
X121710449Y-92246449D01*
X121745996Y-92203136D01*
X122683140Y-91265992D01*
X122726449Y-91230449D01*
X122868284Y-91057623D01*
X122973676Y-90860447D01*
X122974418Y-90858000D01*
X129192928Y-90858000D01*
X129205188Y-90982482D01*
X129241498Y-91102180D01*
X129300463Y-91212494D01*
X129379815Y-91309185D01*
X129476506Y-91388537D01*
X129586820Y-91447502D01*
X129706518Y-91483812D01*
X129831000Y-91496072D01*
X130270250Y-91493000D01*
X130429000Y-91334250D01*
X130429000Y-90485000D01*
X130683000Y-90485000D01*
X130683000Y-91334250D01*
X130841750Y-91493000D01*
X131281000Y-91496072D01*
X131405482Y-91483812D01*
X131525180Y-91447502D01*
X131635494Y-91388537D01*
X131732185Y-91309185D01*
X131811537Y-91212494D01*
X131870502Y-91102180D01*
X131906812Y-90982482D01*
X131919072Y-90858000D01*
X131916000Y-90643750D01*
X131757250Y-90485000D01*
X130683000Y-90485000D01*
X130429000Y-90485000D01*
X129354750Y-90485000D01*
X129196000Y-90643750D01*
X129192928Y-90858000D01*
X122974418Y-90858000D01*
X123038577Y-90646499D01*
X123055000Y-90479752D01*
X123055000Y-90479751D01*
X123060491Y-90424000D01*
X123055000Y-90368249D01*
X123055000Y-89332588D01*
X123064377Y-89340284D01*
X123261553Y-89445676D01*
X123475501Y-89510577D01*
X123642248Y-89527000D01*
X124758539Y-89527000D01*
X124823613Y-89580405D01*
X124977148Y-89662472D01*
X125143744Y-89713008D01*
X125316998Y-89730072D01*
X125842002Y-89730072D01*
X126015256Y-89713008D01*
X126181852Y-89662472D01*
X126335387Y-89580405D01*
X126469962Y-89469962D01*
X126492000Y-89443109D01*
X126514038Y-89469962D01*
X126648613Y-89580405D01*
X126802148Y-89662472D01*
X126968744Y-89713008D01*
X127141998Y-89730072D01*
X127667002Y-89730072D01*
X127840256Y-89713008D01*
X128006852Y-89662472D01*
X128160387Y-89580405D01*
X128225461Y-89527000D01*
X129287905Y-89527000D01*
X129241498Y-89613820D01*
X129205188Y-89733518D01*
X129192928Y-89858000D01*
X129196000Y-90072250D01*
X129354750Y-90231000D01*
X130429000Y-90231000D01*
X130429000Y-90211000D01*
X130683000Y-90211000D01*
X130683000Y-90231000D01*
X131757250Y-90231000D01*
X131916000Y-90072250D01*
X131919072Y-89858000D01*
X131906812Y-89733518D01*
X131870502Y-89613820D01*
X131859373Y-89593000D01*
X132213176Y-89593000D01*
X132343148Y-89662472D01*
X132509744Y-89713008D01*
X132682998Y-89730072D01*
X133208002Y-89730072D01*
X133381256Y-89713008D01*
X133547852Y-89662472D01*
X133701387Y-89580405D01*
X133835962Y-89469962D01*
X133858000Y-89443109D01*
X133880038Y-89469962D01*
X134014613Y-89580405D01*
X134168148Y-89662472D01*
X134334744Y-89713008D01*
X134507998Y-89730072D01*
X134755000Y-89730072D01*
X134755000Y-90622248D01*
X134749509Y-90678000D01*
X134755000Y-90733751D01*
X134771423Y-90900498D01*
X134836324Y-91114446D01*
X134941716Y-91311623D01*
X135083551Y-91484449D01*
X135126865Y-91519996D01*
X137080009Y-93473141D01*
X137115551Y-93516449D01*
X137288377Y-93658284D01*
X137450444Y-93744910D01*
X137485553Y-93763676D01*
X137699501Y-93828577D01*
X137922000Y-93850491D01*
X137977751Y-93845000D01*
X144309869Y-93845000D01*
X144476271Y-94011403D01*
X144486992Y-94120254D01*
X144537528Y-94286850D01*
X144619595Y-94440386D01*
X144730038Y-94574962D01*
X144864614Y-94685405D01*
X145018150Y-94767472D01*
X145184746Y-94818008D01*
X145358000Y-94835072D01*
X145858000Y-94835072D01*
X146031254Y-94818008D01*
X146197850Y-94767472D01*
X146351386Y-94685405D01*
X146485962Y-94574962D01*
X146558000Y-94487183D01*
X146630038Y-94574962D01*
X146764614Y-94685405D01*
X146918150Y-94767472D01*
X147084746Y-94818008D01*
X147258000Y-94835072D01*
X147758000Y-94835072D01*
X147931254Y-94818008D01*
X148097850Y-94767472D01*
X148251386Y-94685405D01*
X148385962Y-94574962D01*
X148496405Y-94440386D01*
X148578472Y-94286850D01*
X148629008Y-94120254D01*
X148646072Y-93947000D01*
X148646072Y-92997000D01*
X148629008Y-92823746D01*
X148578472Y-92657150D01*
X148496405Y-92503614D01*
X148393000Y-92377614D01*
X148393000Y-91254481D01*
X148422313Y-91245589D01*
X148427157Y-91243000D01*
X149845265Y-91243000D01*
X149922377Y-91306284D01*
X150119553Y-91411676D01*
X150333501Y-91476577D01*
X150500248Y-91493000D01*
X154389835Y-91493000D01*
X154429595Y-91567386D01*
X154540038Y-91701962D01*
X154674614Y-91812405D01*
X154828150Y-91894472D01*
X154994746Y-91945008D01*
X155168000Y-91962072D01*
X158268000Y-91962072D01*
X158441254Y-91945008D01*
X158607850Y-91894472D01*
X158761386Y-91812405D01*
X158895962Y-91701962D01*
X159006405Y-91567386D01*
X159088472Y-91413850D01*
X159139008Y-91247254D01*
X159156072Y-91074000D01*
X159156072Y-89774000D01*
X159139008Y-89600746D01*
X159088472Y-89434150D01*
X159006405Y-89280614D01*
X158895962Y-89146038D01*
X158761386Y-89035595D01*
X158607850Y-88953528D01*
X158441254Y-88902992D01*
X158268000Y-88885928D01*
X155168000Y-88885928D01*
X154994746Y-88902992D01*
X154828150Y-88953528D01*
X154674614Y-89035595D01*
X154540038Y-89146038D01*
X154476877Y-89223000D01*
X150500248Y-89223000D01*
X150333501Y-89239423D01*
X150119553Y-89304324D01*
X149922377Y-89409716D01*
X149845265Y-89473000D01*
X148233373Y-89473000D01*
X148178180Y-89443498D01*
X148061159Y-89408000D01*
X148178180Y-89372502D01*
X148288494Y-89313537D01*
X148385185Y-89234185D01*
X148464537Y-89137494D01*
X148523502Y-89027180D01*
X148559812Y-88907482D01*
X148572072Y-88783000D01*
X148572072Y-88421553D01*
X148582000Y-88320751D01*
X148582000Y-87431751D01*
X148587491Y-87375999D01*
X148565577Y-87153501D01*
X148500676Y-86939553D01*
X148448815Y-86842528D01*
X148395284Y-86742377D01*
X148253449Y-86569551D01*
X148210141Y-86534009D01*
X143058496Y-81382365D01*
X143022949Y-81339051D01*
X142850123Y-81197216D01*
X142652947Y-81091824D01*
X142438999Y-81026923D01*
X142272252Y-81010500D01*
X142272251Y-81010500D01*
X142216500Y-81005009D01*
X142160749Y-81010500D01*
X126969936Y-81010500D01*
X126928447Y-80988324D01*
X126714499Y-80923423D01*
X126547752Y-80907000D01*
X126547751Y-80907000D01*
X126491999Y-80901509D01*
X126436248Y-80907000D01*
X121882132Y-80907000D01*
X121237996Y-80262864D01*
X121202449Y-80219551D01*
X121029623Y-80077716D01*
X120832447Y-79972324D01*
X120618499Y-79907423D01*
X120451752Y-79891000D01*
X120451751Y-79891000D01*
X120396000Y-79885509D01*
X120340249Y-79891000D01*
X116647290Y-79891000D01*
X116558256Y-79863992D01*
X116385002Y-79846928D01*
X115435000Y-79846928D01*
X115435000Y-78273220D01*
X115482008Y-78118254D01*
X115499072Y-77945000D01*
X115499072Y-76995000D01*
X115482008Y-76821746D01*
X115435000Y-76666780D01*
X115435000Y-73568072D01*
X116026000Y-73568072D01*
X116199254Y-73551008D01*
X116365850Y-73500472D01*
X116519386Y-73418405D01*
X116653962Y-73307962D01*
X116764405Y-73173386D01*
X116846472Y-73019850D01*
X116897008Y-72853254D01*
X116914072Y-72680000D01*
X116914072Y-70830000D01*
X116897008Y-70656746D01*
X116846472Y-70490150D01*
X116764405Y-70336614D01*
X116653962Y-70202038D01*
X116519386Y-70091595D01*
X116373500Y-70013617D01*
X116373500Y-66684954D01*
X116393254Y-66683008D01*
X116559850Y-66632472D01*
X116713386Y-66550405D01*
X116847962Y-66439962D01*
X116958405Y-66305386D01*
X117040472Y-66151850D01*
X117091008Y-65985254D01*
X117108072Y-65812000D01*
X117108072Y-64389000D01*
X119115000Y-64389000D01*
X119115000Y-65289000D01*
X119169271Y-65586023D01*
X119280446Y-65866751D01*
X119444252Y-66120396D01*
X119654394Y-66337210D01*
X119902796Y-66508862D01*
X120179913Y-66628755D01*
X120285260Y-66653036D01*
X120523000Y-66532378D01*
X120523000Y-64389000D01*
X120777000Y-64389000D01*
X120777000Y-66532378D01*
X121014740Y-66653036D01*
X121120087Y-66628755D01*
X121397204Y-66508862D01*
X121645606Y-66337210D01*
X121855748Y-66120396D01*
X122019554Y-65866751D01*
X122130729Y-65586023D01*
X122185000Y-65289000D01*
X122185000Y-64389000D01*
X120777000Y-64389000D01*
X120523000Y-64389000D01*
X119115000Y-64389000D01*
X117108072Y-64389000D01*
X117108072Y-63235000D01*
X119115000Y-63235000D01*
X119115000Y-64135000D01*
X120523000Y-64135000D01*
X120523000Y-61991622D01*
X120777000Y-61991622D01*
X120777000Y-64135000D01*
X122185000Y-64135000D01*
X122185000Y-63235000D01*
X122130729Y-62937977D01*
X122019554Y-62657249D01*
X121855748Y-62403604D01*
X121645606Y-62186790D01*
X121397204Y-62015138D01*
X121120087Y-61895245D01*
X121014740Y-61870964D01*
X120777000Y-61991622D01*
X120523000Y-61991622D01*
X120285260Y-61870964D01*
X120179913Y-61895245D01*
X119902796Y-62015138D01*
X119654394Y-62186790D01*
X119444252Y-62403604D01*
X119280446Y-62657249D01*
X119169271Y-62937977D01*
X119115000Y-63235000D01*
X117108072Y-63235000D01*
X117108072Y-62712000D01*
X117091008Y-62538746D01*
X117040472Y-62372150D01*
X116958405Y-62218614D01*
X116847962Y-62084038D01*
X116713386Y-61973595D01*
X116559850Y-61891528D01*
X116393254Y-61840992D01*
X116220000Y-61823928D01*
X114920000Y-61823928D01*
X114746746Y-61840992D01*
X114580150Y-61891528D01*
X114426614Y-61973595D01*
X114292038Y-62084038D01*
X114181595Y-62218614D01*
X114099528Y-62372150D01*
X114048992Y-62538746D01*
X114031928Y-62712000D01*
X114031928Y-65812000D01*
X114048992Y-65985254D01*
X114099528Y-66151850D01*
X114103501Y-66159282D01*
X114103500Y-70013617D01*
X113957614Y-70091595D01*
X113823038Y-70202038D01*
X113712595Y-70336614D01*
X113630528Y-70490150D01*
X113579992Y-70656746D01*
X113562928Y-70830000D01*
X113562928Y-72029941D01*
X113536864Y-72056004D01*
X113493551Y-72091551D01*
X113351716Y-72264377D01*
X113246325Y-72461553D01*
X113246324Y-72461554D01*
X113181423Y-72675502D01*
X113159509Y-72898000D01*
X113165000Y-72953752D01*
X113165000Y-76143310D01*
X113085482Y-76119188D01*
X112961000Y-76106928D01*
X112746750Y-76110000D01*
X112588000Y-76268750D01*
X112588000Y-77343000D01*
X112608000Y-77343000D01*
X112608000Y-77597000D01*
X112588000Y-77597000D01*
X112588000Y-78671250D01*
X112746750Y-78830000D01*
X112961000Y-78833072D01*
X113085482Y-78820812D01*
X113165001Y-78796690D01*
X113165001Y-79908506D01*
X113151833Y-79912500D01*
X112048251Y-79912500D01*
X111992499Y-79907009D01*
X111770000Y-79928923D01*
X111720205Y-79944029D01*
X111556053Y-79993824D01*
X111358877Y-80099216D01*
X111186051Y-80241051D01*
X111150509Y-80284360D01*
X109472865Y-81962004D01*
X109429551Y-81997551D01*
X109287716Y-82170377D01*
X109182325Y-82367553D01*
X109182324Y-82367554D01*
X109117423Y-82581502D01*
X109095509Y-82804000D01*
X109101000Y-82859752D01*
X109101001Y-86869905D01*
X109014180Y-86823498D01*
X108894482Y-86787188D01*
X108770000Y-86774928D01*
X108555750Y-86778000D01*
X108397000Y-86936750D01*
X108397000Y-88011000D01*
X108417000Y-88011000D01*
X108417000Y-88265000D01*
X108397000Y-88265000D01*
X108397000Y-89339250D01*
X108555750Y-89498000D01*
X108770000Y-89501072D01*
X108894482Y-89488812D01*
X109014180Y-89452502D01*
X109124494Y-89393537D01*
X109221185Y-89314185D01*
X109286658Y-89234406D01*
X109292038Y-89240962D01*
X109426614Y-89351405D01*
X109475333Y-89377446D01*
X109472324Y-89408000D01*
X109476000Y-89445322D01*
X109476000Y-89445332D01*
X109486997Y-89556985D01*
X109530281Y-89699676D01*
X109530454Y-89700246D01*
X109601026Y-89832276D01*
X109639488Y-89879141D01*
X109642604Y-89882938D01*
X109599463Y-89935506D01*
X109540498Y-90045820D01*
X109504188Y-90165518D01*
X109503550Y-90172000D01*
X109026802Y-90172000D01*
X108767803Y-89913002D01*
X108744001Y-89883999D01*
X108628276Y-89789026D01*
X108496247Y-89718454D01*
X108352986Y-89674997D01*
X108241333Y-89664000D01*
X108241322Y-89664000D01*
X108204000Y-89660324D01*
X108166678Y-89664000D01*
X106177110Y-89664000D01*
X106160472Y-89609150D01*
X106078405Y-89455614D01*
X105967962Y-89321038D01*
X105833386Y-89210595D01*
X105679850Y-89128528D01*
X105513254Y-89077992D01*
X105340000Y-89060928D01*
X104840000Y-89060928D01*
X104666746Y-89077992D01*
X104500150Y-89128528D01*
X104346614Y-89210595D01*
X104212038Y-89321038D01*
X104140000Y-89408817D01*
X104067962Y-89321038D01*
X103933386Y-89210595D01*
X103779850Y-89128528D01*
X103613254Y-89077992D01*
X103440000Y-89060928D01*
X102940000Y-89060928D01*
X102766746Y-89077992D01*
X102600150Y-89128528D01*
X102446614Y-89210595D01*
X102312038Y-89321038D01*
X102201595Y-89455614D01*
X102119528Y-89609150D01*
X102068992Y-89775746D01*
X102051928Y-89949000D01*
X102051928Y-90650893D01*
X100887494Y-91815328D01*
X100489598Y-91815328D01*
X100316344Y-91832392D01*
X100149748Y-91882928D01*
X99996213Y-91964995D01*
X99861638Y-92075438D01*
X99824657Y-92120500D01*
X99227018Y-92120500D01*
X99152185Y-92029315D01*
X99055494Y-91949963D01*
X98945180Y-91890998D01*
X98825482Y-91854688D01*
X98701000Y-91842428D01*
X97901000Y-91842428D01*
X97776518Y-91854688D01*
X97656820Y-91890998D01*
X97601000Y-91920835D01*
X97545180Y-91890998D01*
X97425482Y-91854688D01*
X97301000Y-91842428D01*
X97186750Y-91845500D01*
X97028000Y-92004250D01*
X96774000Y-92004250D01*
X96615250Y-91845500D01*
X96501000Y-91842428D01*
X96376518Y-91854688D01*
X96256820Y-91890998D01*
X96201000Y-91920835D01*
X96145180Y-91890998D01*
X96025482Y-91854688D01*
X95901000Y-91842428D01*
X95101000Y-91842428D01*
X94976518Y-91854688D01*
X94856820Y-91890998D01*
X94746506Y-91949963D01*
X94649815Y-92029315D01*
X94570463Y-92126006D01*
X94511498Y-92236320D01*
X94475188Y-92356018D01*
X94462928Y-92480500D01*
X79400000Y-92480500D01*
X79400000Y-90060000D01*
X79757928Y-90060000D01*
X79770188Y-90184482D01*
X79806498Y-90304180D01*
X79865463Y-90414494D01*
X79944815Y-90511185D01*
X80041506Y-90590537D01*
X80151820Y-90649502D01*
X80271518Y-90685812D01*
X80396000Y-90698072D01*
X82210250Y-90695000D01*
X82369000Y-90536250D01*
X82369000Y-89312000D01*
X82623000Y-89312000D01*
X82623000Y-90536250D01*
X82781750Y-90695000D01*
X84596000Y-90698072D01*
X84720482Y-90685812D01*
X84840180Y-90649502D01*
X84950494Y-90590537D01*
X85047185Y-90511185D01*
X85126537Y-90414494D01*
X85185502Y-90304180D01*
X85221812Y-90184482D01*
X85234072Y-90060000D01*
X85233919Y-90030500D01*
X94462928Y-90030500D01*
X94462928Y-91080500D01*
X94475188Y-91204982D01*
X94511498Y-91324680D01*
X94570463Y-91434994D01*
X94649815Y-91531685D01*
X94746506Y-91611037D01*
X94856820Y-91670002D01*
X94976518Y-91706312D01*
X95101000Y-91718572D01*
X95901000Y-91718572D01*
X96025482Y-91706312D01*
X96145180Y-91670002D01*
X96201000Y-91640165D01*
X96256820Y-91670002D01*
X96376518Y-91706312D01*
X96501000Y-91718572D01*
X96615250Y-91715500D01*
X96774000Y-91556750D01*
X96774000Y-90682500D01*
X96754000Y-90682500D01*
X96754000Y-90428500D01*
X96774000Y-90428500D01*
X96774000Y-89554250D01*
X96615250Y-89395500D01*
X96501000Y-89392428D01*
X96376518Y-89404688D01*
X96256820Y-89440998D01*
X96201000Y-89470835D01*
X96145180Y-89440998D01*
X96025482Y-89404688D01*
X95901000Y-89392428D01*
X95101000Y-89392428D01*
X94976518Y-89404688D01*
X94856820Y-89440998D01*
X94746506Y-89499963D01*
X94649815Y-89579315D01*
X94570463Y-89676006D01*
X94511498Y-89786320D01*
X94475188Y-89906018D01*
X94462928Y-90030500D01*
X85233919Y-90030500D01*
X85231000Y-89470750D01*
X85072250Y-89312000D01*
X82623000Y-89312000D01*
X82369000Y-89312000D01*
X79919750Y-89312000D01*
X79761000Y-89470750D01*
X79757928Y-90060000D01*
X79400000Y-90060000D01*
X79400000Y-88310000D01*
X79757928Y-88310000D01*
X79761000Y-88899250D01*
X79919750Y-89058000D01*
X82369000Y-89058000D01*
X82369000Y-87833750D01*
X82623000Y-87833750D01*
X82623000Y-89058000D01*
X85072250Y-89058000D01*
X85231000Y-88899250D01*
X85234072Y-88310000D01*
X85221812Y-88185518D01*
X85196174Y-88101000D01*
X95295528Y-88101000D01*
X95307788Y-88225482D01*
X95344098Y-88345180D01*
X95403063Y-88455494D01*
X95482415Y-88552185D01*
X95579106Y-88631537D01*
X95689420Y-88690502D01*
X95809118Y-88726812D01*
X95933600Y-88739072D01*
X96147850Y-88736000D01*
X96306600Y-88577250D01*
X96306600Y-87503000D01*
X95457350Y-87503000D01*
X95298600Y-87661750D01*
X95295528Y-88101000D01*
X85196174Y-88101000D01*
X85185502Y-88065820D01*
X85126537Y-87955506D01*
X85047185Y-87858815D01*
X84950494Y-87779463D01*
X84840180Y-87720498D01*
X84720482Y-87684188D01*
X84596000Y-87671928D01*
X82781750Y-87675000D01*
X82623000Y-87833750D01*
X82369000Y-87833750D01*
X82210250Y-87675000D01*
X80396000Y-87671928D01*
X80271518Y-87684188D01*
X80151820Y-87720498D01*
X80041506Y-87779463D01*
X79944815Y-87858815D01*
X79865463Y-87955506D01*
X79806498Y-88065820D01*
X79770188Y-88185518D01*
X79757928Y-88310000D01*
X79400000Y-88310000D01*
X79400000Y-85725000D01*
X79857928Y-85725000D01*
X79857928Y-86995000D01*
X79870188Y-87119482D01*
X79906498Y-87239180D01*
X79965463Y-87349494D01*
X80044815Y-87446185D01*
X80141506Y-87525537D01*
X80251820Y-87584502D01*
X80371518Y-87620812D01*
X80496000Y-87633072D01*
X84096000Y-87633072D01*
X84220482Y-87620812D01*
X84340180Y-87584502D01*
X84450494Y-87525537D01*
X84487704Y-87495000D01*
X85796249Y-87495000D01*
X85852000Y-87500491D01*
X85907751Y-87495000D01*
X85907752Y-87495000D01*
X86074499Y-87478577D01*
X86288447Y-87413676D01*
X86485623Y-87308284D01*
X86658449Y-87166449D01*
X86693996Y-87123135D01*
X87166131Y-86651000D01*
X95295528Y-86651000D01*
X95298600Y-87090250D01*
X95457350Y-87249000D01*
X96306600Y-87249000D01*
X96306600Y-86174750D01*
X96147850Y-86016000D01*
X95933600Y-86012928D01*
X95809118Y-86025188D01*
X95689420Y-86061498D01*
X95579106Y-86120463D01*
X95482415Y-86199815D01*
X95403063Y-86296506D01*
X95344098Y-86406820D01*
X95307788Y-86526518D01*
X95295528Y-86651000D01*
X87166131Y-86651000D01*
X88201160Y-85615972D01*
X88359000Y-85615972D01*
X88532254Y-85598908D01*
X88698850Y-85548372D01*
X88852386Y-85466305D01*
X88986962Y-85355862D01*
X89097405Y-85221286D01*
X89179472Y-85067750D01*
X89230008Y-84901154D01*
X89247072Y-84727900D01*
X89247072Y-84227900D01*
X89230008Y-84054646D01*
X89179472Y-83888050D01*
X89097405Y-83734514D01*
X88986962Y-83599938D01*
X88899183Y-83527900D01*
X88986962Y-83455862D01*
X89097405Y-83321286D01*
X89179472Y-83167750D01*
X89230008Y-83001154D01*
X89247072Y-82827900D01*
X89247072Y-82327900D01*
X89230008Y-82154646D01*
X89179472Y-81988050D01*
X89097405Y-81834514D01*
X89019000Y-81738977D01*
X89019000Y-79518386D01*
X89941400Y-79518386D01*
X90090778Y-79503674D01*
X90234415Y-79460102D01*
X90366792Y-79389345D01*
X90482822Y-79294122D01*
X90578045Y-79178092D01*
X90648802Y-79045715D01*
X90692374Y-78902078D01*
X90707086Y-78752700D01*
X90707086Y-77101700D01*
X90692374Y-76952322D01*
X90648802Y-76808685D01*
X90578045Y-76676308D01*
X90482822Y-76560278D01*
X90366792Y-76465055D01*
X90234415Y-76394298D01*
X90090778Y-76350726D01*
X89941400Y-76336014D01*
X87401400Y-76336014D01*
X87252022Y-76350726D01*
X87108385Y-76394298D01*
X86976008Y-76465055D01*
X86859978Y-76560278D01*
X86764755Y-76676308D01*
X86693998Y-76808685D01*
X86650426Y-76952322D01*
X86635714Y-77101700D01*
X86635714Y-78752700D01*
X86650426Y-78902078D01*
X86693998Y-79045715D01*
X86749001Y-79148618D01*
X86749000Y-81738976D01*
X86670595Y-81834514D01*
X86588528Y-81988050D01*
X86537992Y-82154646D01*
X86520928Y-82327900D01*
X86520928Y-82827900D01*
X86537992Y-83001154D01*
X86588528Y-83167750D01*
X86670595Y-83321286D01*
X86781038Y-83455862D01*
X86868817Y-83527900D01*
X86781038Y-83599938D01*
X86670595Y-83734514D01*
X86588528Y-83888050D01*
X86537992Y-84054646D01*
X86536437Y-84070431D01*
X85381869Y-85225000D01*
X84487704Y-85225000D01*
X84450494Y-85194463D01*
X84340180Y-85135498D01*
X84220482Y-85099188D01*
X84096000Y-85086928D01*
X80496000Y-85086928D01*
X80371518Y-85099188D01*
X80251820Y-85135498D01*
X80141506Y-85194463D01*
X80044815Y-85273815D01*
X79965463Y-85370506D01*
X79906498Y-85480820D01*
X79870188Y-85600518D01*
X79857928Y-85725000D01*
X79400000Y-85725000D01*
X79400000Y-84410000D01*
X79757928Y-84410000D01*
X79770188Y-84534482D01*
X79806498Y-84654180D01*
X79865463Y-84764494D01*
X79944815Y-84861185D01*
X80041506Y-84940537D01*
X80151820Y-84999502D01*
X80271518Y-85035812D01*
X80396000Y-85048072D01*
X82210250Y-85045000D01*
X82369000Y-84886250D01*
X82369000Y-83662000D01*
X82623000Y-83662000D01*
X82623000Y-84886250D01*
X82781750Y-85045000D01*
X84596000Y-85048072D01*
X84720482Y-85035812D01*
X84840180Y-84999502D01*
X84950494Y-84940537D01*
X85047185Y-84861185D01*
X85126537Y-84764494D01*
X85185502Y-84654180D01*
X85221812Y-84534482D01*
X85234072Y-84410000D01*
X85231000Y-83820750D01*
X85072250Y-83662000D01*
X82623000Y-83662000D01*
X82369000Y-83662000D01*
X79919750Y-83662000D01*
X79761000Y-83820750D01*
X79757928Y-84410000D01*
X79400000Y-84410000D01*
X79400000Y-82660000D01*
X79757928Y-82660000D01*
X79761000Y-83249250D01*
X79919750Y-83408000D01*
X82369000Y-83408000D01*
X82369000Y-82183750D01*
X82623000Y-82183750D01*
X82623000Y-83408000D01*
X85072250Y-83408000D01*
X85231000Y-83249250D01*
X85234072Y-82660000D01*
X85221812Y-82535518D01*
X85185502Y-82415820D01*
X85126537Y-82305506D01*
X85047185Y-82208815D01*
X84950494Y-82129463D01*
X84840180Y-82070498D01*
X84720482Y-82034188D01*
X84596000Y-82021928D01*
X82781750Y-82025000D01*
X82623000Y-82183750D01*
X82369000Y-82183750D01*
X82210250Y-82025000D01*
X80396000Y-82021928D01*
X80271518Y-82034188D01*
X80151820Y-82070498D01*
X80041506Y-82129463D01*
X79944815Y-82208815D01*
X79865463Y-82305506D01*
X79806498Y-82415820D01*
X79770188Y-82535518D01*
X79757928Y-82660000D01*
X79400000Y-82660000D01*
X79400000Y-72021700D01*
X91715714Y-72021700D01*
X91715714Y-73672700D01*
X91730426Y-73822078D01*
X91773998Y-73965715D01*
X91844755Y-74098092D01*
X91860436Y-74117200D01*
X91844755Y-74136308D01*
X91773998Y-74268685D01*
X91730426Y-74412322D01*
X91715714Y-74561700D01*
X91715714Y-76212700D01*
X91730426Y-76362078D01*
X91773998Y-76505715D01*
X91844755Y-76638092D01*
X91939978Y-76754122D01*
X92056008Y-76849345D01*
X92188385Y-76920102D01*
X92332022Y-76963674D01*
X92481400Y-76978386D01*
X95021400Y-76978386D01*
X95170778Y-76963674D01*
X95314415Y-76920102D01*
X95446792Y-76849345D01*
X95562822Y-76754122D01*
X95658045Y-76638092D01*
X95719991Y-76522200D01*
X96608669Y-76522200D01*
X97137600Y-77051132D01*
X97137600Y-77312227D01*
X97084595Y-77376814D01*
X97002528Y-77530350D01*
X96951992Y-77696946D01*
X96934928Y-77870200D01*
X96934928Y-78370200D01*
X96951992Y-78543454D01*
X97002528Y-78710050D01*
X97084595Y-78863586D01*
X97195038Y-78998162D01*
X97282817Y-79070200D01*
X97195038Y-79142238D01*
X97084595Y-79276814D01*
X97002528Y-79430350D01*
X96951992Y-79596946D01*
X96934928Y-79770200D01*
X96934928Y-80270200D01*
X96951992Y-80443454D01*
X97002528Y-80610050D01*
X97084595Y-80763586D01*
X97195038Y-80898162D01*
X97329614Y-81008605D01*
X97413000Y-81053176D01*
X97413001Y-81925282D01*
X97310885Y-82009085D01*
X97204329Y-82138925D01*
X97125150Y-82287058D01*
X97076392Y-82447792D01*
X97059928Y-82614950D01*
X97059928Y-83052450D01*
X97076392Y-83219608D01*
X97125150Y-83380342D01*
X97204329Y-83528475D01*
X97310885Y-83658315D01*
X97440725Y-83764871D01*
X97588858Y-83844050D01*
X97749592Y-83892808D01*
X97784031Y-83896200D01*
X97749592Y-83899592D01*
X97588858Y-83948350D01*
X97440725Y-84027529D01*
X97310885Y-84134085D01*
X97204329Y-84263925D01*
X97125150Y-84412058D01*
X97076392Y-84572792D01*
X97059928Y-84739950D01*
X97059928Y-85177450D01*
X97076392Y-85344608D01*
X97125150Y-85505342D01*
X97204329Y-85653475D01*
X97310885Y-85783315D01*
X97413000Y-85867118D01*
X97413000Y-86234195D01*
X97384785Y-86199815D01*
X97288094Y-86120463D01*
X97177780Y-86061498D01*
X97058082Y-86025188D01*
X96933600Y-86012928D01*
X96719350Y-86016000D01*
X96560600Y-86174750D01*
X96560600Y-87249000D01*
X96580600Y-87249000D01*
X96580600Y-87503000D01*
X96560600Y-87503000D01*
X96560600Y-88577250D01*
X96719350Y-88736000D01*
X96933600Y-88739072D01*
X97058082Y-88726812D01*
X97177780Y-88690502D01*
X97288094Y-88631537D01*
X97384785Y-88552185D01*
X97413001Y-88517804D01*
X97413001Y-89403459D01*
X97301000Y-89392428D01*
X97186750Y-89395500D01*
X97028000Y-89554250D01*
X97028000Y-90428500D01*
X97048000Y-90428500D01*
X97048000Y-90682500D01*
X97028000Y-90682500D01*
X97028000Y-91556750D01*
X97186750Y-91715500D01*
X97301000Y-91718572D01*
X97425482Y-91706312D01*
X97545180Y-91670002D01*
X97601000Y-91640165D01*
X97656820Y-91670002D01*
X97776518Y-91706312D01*
X97901000Y-91718572D01*
X98701000Y-91718572D01*
X98825482Y-91706312D01*
X98945180Y-91670002D01*
X99055494Y-91611037D01*
X99152185Y-91531685D01*
X99231537Y-91434994D01*
X99290502Y-91324680D01*
X99326812Y-91204982D01*
X99339072Y-91080500D01*
X99339072Y-90030500D01*
X99326812Y-89906018D01*
X99290502Y-89786320D01*
X99231537Y-89676006D01*
X99183000Y-89616863D01*
X99183000Y-88863000D01*
X107131928Y-88863000D01*
X107144188Y-88987482D01*
X107180498Y-89107180D01*
X107239463Y-89217494D01*
X107318815Y-89314185D01*
X107415506Y-89393537D01*
X107525820Y-89452502D01*
X107645518Y-89488812D01*
X107770000Y-89501072D01*
X107984250Y-89498000D01*
X108143000Y-89339250D01*
X108143000Y-88265000D01*
X107293750Y-88265000D01*
X107135000Y-88423750D01*
X107131928Y-88863000D01*
X99183000Y-88863000D01*
X99183000Y-88502402D01*
X99211562Y-88478962D01*
X99322005Y-88344386D01*
X99404072Y-88190850D01*
X99454608Y-88024254D01*
X99471672Y-87851000D01*
X99471672Y-87413000D01*
X107131928Y-87413000D01*
X107135000Y-87852250D01*
X107293750Y-88011000D01*
X108143000Y-88011000D01*
X108143000Y-86936750D01*
X107984250Y-86778000D01*
X107770000Y-86774928D01*
X107645518Y-86787188D01*
X107525820Y-86823498D01*
X107415506Y-86882463D01*
X107318815Y-86961815D01*
X107239463Y-87058506D01*
X107180498Y-87168820D01*
X107144188Y-87288518D01*
X107131928Y-87413000D01*
X99471672Y-87413000D01*
X99471672Y-86901000D01*
X99454608Y-86727746D01*
X99404072Y-86561150D01*
X99322005Y-86407614D01*
X99211562Y-86273038D01*
X99183000Y-86249598D01*
X99183000Y-85867118D01*
X99285115Y-85783315D01*
X99391671Y-85653475D01*
X99470850Y-85505342D01*
X99519608Y-85344608D01*
X99536072Y-85177450D01*
X99536072Y-84739950D01*
X99519608Y-84572792D01*
X99470850Y-84412058D01*
X99391671Y-84263925D01*
X99285115Y-84134085D01*
X99155275Y-84027529D01*
X99007142Y-83948350D01*
X98846408Y-83899592D01*
X98811969Y-83896200D01*
X98846408Y-83892808D01*
X99007142Y-83844050D01*
X99155275Y-83764871D01*
X99285115Y-83658315D01*
X99391671Y-83528475D01*
X99470850Y-83380342D01*
X99519608Y-83219608D01*
X99536072Y-83052450D01*
X99536072Y-82614950D01*
X99519608Y-82447792D01*
X99470850Y-82287058D01*
X99391671Y-82138925D01*
X99285115Y-82009085D01*
X99183000Y-81925282D01*
X99183000Y-81053176D01*
X99266386Y-81008605D01*
X99400962Y-80898162D01*
X99511405Y-80763586D01*
X99593472Y-80610050D01*
X99644008Y-80443454D01*
X99661072Y-80270200D01*
X99661072Y-79770200D01*
X99644008Y-79596946D01*
X99593472Y-79430350D01*
X99511405Y-79276814D01*
X99400962Y-79142238D01*
X99313183Y-79070200D01*
X99400962Y-78998162D01*
X99511405Y-78863586D01*
X99593472Y-78710050D01*
X99644008Y-78543454D01*
X99661072Y-78370200D01*
X99661072Y-78195000D01*
X111322928Y-78195000D01*
X111335188Y-78319482D01*
X111371498Y-78439180D01*
X111430463Y-78549494D01*
X111509815Y-78646185D01*
X111606506Y-78725537D01*
X111716820Y-78784502D01*
X111836518Y-78820812D01*
X111961000Y-78833072D01*
X112175250Y-78830000D01*
X112334000Y-78671250D01*
X112334000Y-77597000D01*
X111484750Y-77597000D01*
X111326000Y-77755750D01*
X111322928Y-78195000D01*
X99661072Y-78195000D01*
X99661072Y-77870200D01*
X99644008Y-77696946D01*
X99593472Y-77530350D01*
X99511405Y-77376814D01*
X99407600Y-77250326D01*
X99407600Y-76745000D01*
X111322928Y-76745000D01*
X111326000Y-77184250D01*
X111484750Y-77343000D01*
X112334000Y-77343000D01*
X112334000Y-76268750D01*
X112175250Y-76110000D01*
X111961000Y-76106928D01*
X111836518Y-76119188D01*
X111716820Y-76155498D01*
X111606506Y-76214463D01*
X111509815Y-76293815D01*
X111430463Y-76390506D01*
X111371498Y-76500820D01*
X111335188Y-76620518D01*
X111322928Y-76745000D01*
X99407600Y-76745000D01*
X99407600Y-76636751D01*
X99413091Y-76580999D01*
X99391177Y-76358500D01*
X99376071Y-76308705D01*
X99326276Y-76144553D01*
X99220884Y-75947377D01*
X99079049Y-75774551D01*
X99035740Y-75739008D01*
X97920796Y-74624065D01*
X97885249Y-74580751D01*
X97712423Y-74438916D01*
X97515247Y-74333524D01*
X97301299Y-74268623D01*
X97134552Y-74252200D01*
X97134551Y-74252200D01*
X97078800Y-74246709D01*
X97023049Y-74252200D01*
X95719991Y-74252200D01*
X95658045Y-74136308D01*
X95642364Y-74117200D01*
X95658045Y-74098092D01*
X95728802Y-73965715D01*
X95772374Y-73822078D01*
X95787086Y-73672700D01*
X95787086Y-72930000D01*
X108637928Y-72930000D01*
X108650188Y-73054482D01*
X108686498Y-73174180D01*
X108745463Y-73284494D01*
X108824815Y-73381185D01*
X108921506Y-73460537D01*
X109031820Y-73519502D01*
X109151518Y-73555812D01*
X109276000Y-73568072D01*
X110027750Y-73565000D01*
X110186500Y-73406250D01*
X110186500Y-71882000D01*
X110440500Y-71882000D01*
X110440500Y-73406250D01*
X110599250Y-73565000D01*
X111351000Y-73568072D01*
X111475482Y-73555812D01*
X111595180Y-73519502D01*
X111705494Y-73460537D01*
X111802185Y-73381185D01*
X111881537Y-73284494D01*
X111940502Y-73174180D01*
X111976812Y-73054482D01*
X111989072Y-72930000D01*
X111986000Y-72040750D01*
X111827250Y-71882000D01*
X110440500Y-71882000D01*
X110186500Y-71882000D01*
X108799750Y-71882000D01*
X108641000Y-72040750D01*
X108637928Y-72930000D01*
X95787086Y-72930000D01*
X95787086Y-72021700D01*
X95772374Y-71872322D01*
X95728802Y-71728685D01*
X95658045Y-71596308D01*
X95562822Y-71480278D01*
X95446792Y-71385055D01*
X95314415Y-71314298D01*
X95170778Y-71270726D01*
X95021400Y-71256014D01*
X94861000Y-71256014D01*
X94861000Y-70580000D01*
X108637928Y-70580000D01*
X108641000Y-71469250D01*
X108799750Y-71628000D01*
X110186500Y-71628000D01*
X110186500Y-70103750D01*
X110440500Y-70103750D01*
X110440500Y-71628000D01*
X111827250Y-71628000D01*
X111986000Y-71469250D01*
X111989072Y-70580000D01*
X111976812Y-70455518D01*
X111940502Y-70335820D01*
X111881537Y-70225506D01*
X111802185Y-70128815D01*
X111705494Y-70049463D01*
X111595180Y-69990498D01*
X111475482Y-69954188D01*
X111351000Y-69941928D01*
X110599250Y-69945000D01*
X110440500Y-70103750D01*
X110186500Y-70103750D01*
X110027750Y-69945000D01*
X109276000Y-69941928D01*
X109151518Y-69954188D01*
X109031820Y-69990498D01*
X108921506Y-70049463D01*
X108824815Y-70128815D01*
X108745463Y-70225506D01*
X108686498Y-70335820D01*
X108650188Y-70455518D01*
X108637928Y-70580000D01*
X94861000Y-70580000D01*
X94861000Y-69632323D01*
X94939405Y-69536786D01*
X95021472Y-69383250D01*
X95072008Y-69216654D01*
X95089072Y-69043400D01*
X95089072Y-68543400D01*
X95072008Y-68370146D01*
X95021472Y-68203550D01*
X94939405Y-68050014D01*
X94828962Y-67915438D01*
X94741183Y-67843400D01*
X94828962Y-67771362D01*
X94939405Y-67636786D01*
X95021472Y-67483250D01*
X95072008Y-67316654D01*
X95089072Y-67143400D01*
X95089072Y-66643400D01*
X95072008Y-66470146D01*
X95021472Y-66303550D01*
X94939405Y-66150014D01*
X94828962Y-66015438D01*
X94759400Y-65958350D01*
X94759400Y-64022000D01*
X94936328Y-64022000D01*
X94948588Y-64146482D01*
X94984898Y-64266180D01*
X95043863Y-64376494D01*
X95123215Y-64473185D01*
X95219906Y-64552537D01*
X95330220Y-64611502D01*
X95449918Y-64647812D01*
X95574400Y-64660072D01*
X96163650Y-64657000D01*
X96322400Y-64498250D01*
X96322400Y-62049000D01*
X96576400Y-62049000D01*
X96576400Y-64498250D01*
X96735150Y-64657000D01*
X97324400Y-64660072D01*
X97448882Y-64647812D01*
X97568580Y-64611502D01*
X97678894Y-64552537D01*
X97775585Y-64473185D01*
X97854937Y-64376494D01*
X97913902Y-64266180D01*
X97950212Y-64146482D01*
X97962472Y-64022000D01*
X97959400Y-62207750D01*
X97800650Y-62049000D01*
X96576400Y-62049000D01*
X96322400Y-62049000D01*
X95098150Y-62049000D01*
X94939400Y-62207750D01*
X94936328Y-64022000D01*
X94759400Y-64022000D01*
X94759400Y-63913704D01*
X94789937Y-63876494D01*
X94848902Y-63766180D01*
X94885212Y-63646482D01*
X94897472Y-63522000D01*
X94897472Y-59922000D01*
X94887624Y-59822000D01*
X94936328Y-59822000D01*
X94939400Y-61636250D01*
X95098150Y-61795000D01*
X96322400Y-61795000D01*
X96322400Y-59345750D01*
X96576400Y-59345750D01*
X96576400Y-61795000D01*
X97800650Y-61795000D01*
X97959400Y-61636250D01*
X97962472Y-59822000D01*
X97950212Y-59697518D01*
X97913902Y-59577820D01*
X97854937Y-59467506D01*
X97775585Y-59370815D01*
X97678894Y-59291463D01*
X97568580Y-59232498D01*
X97448882Y-59196188D01*
X97324400Y-59183928D01*
X96735150Y-59187000D01*
X96576400Y-59345750D01*
X96322400Y-59345750D01*
X96163650Y-59187000D01*
X95574400Y-59183928D01*
X95449918Y-59196188D01*
X95330220Y-59232498D01*
X95219906Y-59291463D01*
X95123215Y-59370815D01*
X95043863Y-59467506D01*
X94984898Y-59577820D01*
X94948588Y-59697518D01*
X94936328Y-59822000D01*
X94887624Y-59822000D01*
X94885212Y-59797518D01*
X94848902Y-59677820D01*
X94789937Y-59567506D01*
X94710585Y-59470815D01*
X94613894Y-59391463D01*
X94503580Y-59332498D01*
X94383882Y-59296188D01*
X94259400Y-59283928D01*
X92989400Y-59283928D01*
X92864918Y-59296188D01*
X92745220Y-59332498D01*
X92634906Y-59391463D01*
X92538215Y-59470815D01*
X92458863Y-59567506D01*
X92399898Y-59677820D01*
X92363588Y-59797518D01*
X92351328Y-59922000D01*
X92351328Y-63522000D01*
X92363588Y-63646482D01*
X92399898Y-63766180D01*
X92458863Y-63876494D01*
X92489401Y-63913704D01*
X92489401Y-66193407D01*
X92430528Y-66303550D01*
X92379992Y-66470146D01*
X92362928Y-66643400D01*
X92362928Y-67143400D01*
X92379992Y-67316654D01*
X92430528Y-67483250D01*
X92512595Y-67636786D01*
X92623038Y-67771362D01*
X92710817Y-67843400D01*
X92623038Y-67915438D01*
X92512595Y-68050014D01*
X92430528Y-68203550D01*
X92379992Y-68370146D01*
X92362928Y-68543400D01*
X92362928Y-69043400D01*
X92379992Y-69216654D01*
X92430528Y-69383250D01*
X92512595Y-69536786D01*
X92591000Y-69632324D01*
X92591001Y-71256014D01*
X92481400Y-71256014D01*
X92332022Y-71270726D01*
X92188385Y-71314298D01*
X92056008Y-71385055D01*
X91939978Y-71480278D01*
X91844755Y-71596308D01*
X91773998Y-71728685D01*
X91730426Y-71872322D01*
X91715714Y-72021700D01*
X79400000Y-72021700D01*
X79400000Y-64022000D01*
X89286328Y-64022000D01*
X89298588Y-64146482D01*
X89334898Y-64266180D01*
X89393863Y-64376494D01*
X89473215Y-64473185D01*
X89569906Y-64552537D01*
X89680220Y-64611502D01*
X89799918Y-64647812D01*
X89924400Y-64660072D01*
X90513650Y-64657000D01*
X90672400Y-64498250D01*
X90672400Y-62049000D01*
X90926400Y-62049000D01*
X90926400Y-64498250D01*
X91085150Y-64657000D01*
X91674400Y-64660072D01*
X91798882Y-64647812D01*
X91918580Y-64611502D01*
X92028894Y-64552537D01*
X92125585Y-64473185D01*
X92204937Y-64376494D01*
X92263902Y-64266180D01*
X92300212Y-64146482D01*
X92312472Y-64022000D01*
X92309400Y-62207750D01*
X92150650Y-62049000D01*
X90926400Y-62049000D01*
X90672400Y-62049000D01*
X89448150Y-62049000D01*
X89289400Y-62207750D01*
X89286328Y-64022000D01*
X79400000Y-64022000D01*
X79400000Y-63529392D01*
X79472437Y-62717751D01*
X79679672Y-61960226D01*
X80017777Y-61251375D01*
X80476067Y-60613596D01*
X81040055Y-60067054D01*
X81404733Y-59822000D01*
X89286328Y-59822000D01*
X89289400Y-61636250D01*
X89448150Y-61795000D01*
X90672400Y-61795000D01*
X90672400Y-59345750D01*
X90926400Y-59345750D01*
X90926400Y-61795000D01*
X92150650Y-61795000D01*
X92309400Y-61636250D01*
X92312472Y-59822000D01*
X92300212Y-59697518D01*
X92263902Y-59577820D01*
X92204937Y-59467506D01*
X92125585Y-59370815D01*
X92028894Y-59291463D01*
X91918580Y-59232498D01*
X91798882Y-59196188D01*
X91674400Y-59183928D01*
X91085150Y-59187000D01*
X90926400Y-59345750D01*
X90672400Y-59345750D01*
X90513650Y-59187000D01*
X89924400Y-59183928D01*
X89799918Y-59196188D01*
X89680220Y-59232498D01*
X89569906Y-59291463D01*
X89473215Y-59370815D01*
X89393863Y-59467506D01*
X89334898Y-59577820D01*
X89298588Y-59697518D01*
X89286328Y-59822000D01*
X81404733Y-59822000D01*
X81691913Y-59629023D01*
X82411038Y-59313349D01*
X83179768Y-59128794D01*
X83844207Y-59080000D01*
X154910608Y-59080000D01*
X155722249Y-59152437D01*
%TA.AperFunction,Conductor*%
D29*
G36*
X155722249Y-59152437D02*
G01*
X156479774Y-59359672D01*
X157188625Y-59697777D01*
X157826404Y-60156067D01*
X158372946Y-60720055D01*
X158810977Y-61371913D01*
X159126651Y-62091038D01*
X159311206Y-62859768D01*
X159360001Y-63524221D01*
X159360000Y-101570608D01*
X159287563Y-102382249D01*
X159080328Y-103139774D01*
X158742221Y-103848627D01*
X158283928Y-104486410D01*
X157719945Y-105032946D01*
X157068085Y-105470978D01*
X156348963Y-105786651D01*
X155580232Y-105971206D01*
X154915792Y-106020000D01*
X83849392Y-106020000D01*
X83037751Y-105947563D01*
X82280226Y-105740328D01*
X81571373Y-105402221D01*
X80933590Y-104943928D01*
X80387054Y-104379945D01*
X79949022Y-103728085D01*
X79633349Y-103008963D01*
X79448794Y-102240232D01*
X79411105Y-101727000D01*
X108447000Y-101727000D01*
X108447000Y-102627000D01*
X108501271Y-102924023D01*
X108612446Y-103204751D01*
X108776252Y-103458396D01*
X108986394Y-103675210D01*
X109234796Y-103846862D01*
X109511913Y-103966755D01*
X109617260Y-103991036D01*
X109855000Y-103870378D01*
X109855000Y-101727000D01*
X110109000Y-101727000D01*
X110109000Y-103870378D01*
X110346740Y-103991036D01*
X110452087Y-103966755D01*
X110729204Y-103846862D01*
X110977606Y-103675210D01*
X111187748Y-103458396D01*
X111351554Y-103204751D01*
X111462729Y-102924023D01*
X111517000Y-102627000D01*
X111517000Y-101727000D01*
X110109000Y-101727000D01*
X109855000Y-101727000D01*
X108447000Y-101727000D01*
X79411105Y-101727000D01*
X79400000Y-101575792D01*
X79400000Y-100573000D01*
X108447000Y-100573000D01*
X108447000Y-101473000D01*
X109855000Y-101473000D01*
X109855000Y-99329622D01*
X110109000Y-99329622D01*
X110109000Y-101473000D01*
X111517000Y-101473000D01*
X111517000Y-100573000D01*
X111462729Y-100275977D01*
X111351554Y-99995249D01*
X111187748Y-99741604D01*
X110977606Y-99524790D01*
X110729204Y-99353138D01*
X110452087Y-99233245D01*
X110346740Y-99208964D01*
X110109000Y-99329622D01*
X109855000Y-99329622D01*
X109617260Y-99208964D01*
X109511913Y-99233245D01*
X109234796Y-99353138D01*
X108986394Y-99524790D01*
X108776252Y-99741604D01*
X108612446Y-99995249D01*
X108501271Y-100275977D01*
X108447000Y-100573000D01*
X79400000Y-100573000D01*
X79400000Y-97245000D01*
X112216928Y-97245000D01*
X112229188Y-97369482D01*
X112265498Y-97489180D01*
X112324463Y-97599494D01*
X112403815Y-97696185D01*
X112500506Y-97775537D01*
X112610820Y-97834502D01*
X112730518Y-97870812D01*
X112855000Y-97883072D01*
X113069250Y-97880000D01*
X113228000Y-97721250D01*
X113228000Y-96647000D01*
X112378750Y-96647000D01*
X112220000Y-96805750D01*
X112216928Y-97245000D01*
X79400000Y-97245000D01*
X79400000Y-95303400D01*
X99601528Y-95303400D01*
X99613788Y-95427882D01*
X99650098Y-95547580D01*
X99709063Y-95657894D01*
X99788415Y-95754585D01*
X99885106Y-95833937D01*
X99995420Y-95892902D01*
X100115118Y-95929212D01*
X100239600Y-95941472D01*
X100653850Y-95938400D01*
X100812600Y-95779650D01*
X100812600Y-94917900D01*
X101066600Y-94917900D01*
X101066600Y-95779650D01*
X101225350Y-95938400D01*
X101639600Y-95941472D01*
X101674852Y-95938000D01*
X107094928Y-95938000D01*
X107107188Y-96062482D01*
X107143498Y-96182180D01*
X107202463Y-96292494D01*
X107281815Y-96389185D01*
X107378506Y-96468537D01*
X107488820Y-96527502D01*
X107608518Y-96563812D01*
X107733000Y-96576072D01*
X108172250Y-96573000D01*
X108331000Y-96414250D01*
X108331000Y-95565000D01*
X108585000Y-95565000D01*
X108585000Y-96414250D01*
X108743750Y-96573000D01*
X109183000Y-96576072D01*
X109307482Y-96563812D01*
X109427180Y-96527502D01*
X109537494Y-96468537D01*
X109634185Y-96389185D01*
X109713537Y-96292494D01*
X109772502Y-96182180D01*
X109808812Y-96062482D01*
X109821072Y-95938000D01*
X109819022Y-95795000D01*
X112216928Y-95795000D01*
X112220000Y-96234250D01*
X112378750Y-96393000D01*
X113228000Y-96393000D01*
X113228000Y-95318750D01*
X113069250Y-95160000D01*
X112855000Y-95156928D01*
X112730518Y-95169188D01*
X112610820Y-95205498D01*
X112500506Y-95264463D01*
X112403815Y-95343815D01*
X112324463Y-95440506D01*
X112265498Y-95550820D01*
X112229188Y-95670518D01*
X112216928Y-95795000D01*
X109819022Y-95795000D01*
X109818000Y-95723750D01*
X109659250Y-95565000D01*
X108585000Y-95565000D01*
X108331000Y-95565000D01*
X107256750Y-95565000D01*
X107098000Y-95723750D01*
X107094928Y-95938000D01*
X101674852Y-95938000D01*
X101764082Y-95929212D01*
X101883780Y-95892902D01*
X101994094Y-95833937D01*
X102090785Y-95754585D01*
X102170137Y-95657894D01*
X102229102Y-95547580D01*
X102265412Y-95427882D01*
X102277672Y-95303400D01*
X102274600Y-95076650D01*
X102119950Y-94922000D01*
X104300928Y-94922000D01*
X104313188Y-95046482D01*
X104349498Y-95166180D01*
X104408463Y-95276494D01*
X104487815Y-95373185D01*
X104584506Y-95452537D01*
X104694820Y-95511502D01*
X104814518Y-95547812D01*
X104939000Y-95560072D01*
X105378250Y-95557000D01*
X105537000Y-95398250D01*
X105537000Y-94549000D01*
X105791000Y-94549000D01*
X105791000Y-95398250D01*
X105949750Y-95557000D01*
X106389000Y-95560072D01*
X106513482Y-95547812D01*
X106633180Y-95511502D01*
X106743494Y-95452537D01*
X106840185Y-95373185D01*
X106919537Y-95276494D01*
X106978502Y-95166180D01*
X107014812Y-95046482D01*
X107027072Y-94922000D01*
X107024000Y-94707750D01*
X106865250Y-94549000D01*
X105791000Y-94549000D01*
X105537000Y-94549000D01*
X104462750Y-94549000D01*
X104304000Y-94707750D01*
X104300928Y-94922000D01*
X102119950Y-94922000D01*
X102115850Y-94917900D01*
X101066600Y-94917900D01*
X100812600Y-94917900D01*
X99763350Y-94917900D01*
X99604600Y-95076650D01*
X99601528Y-95303400D01*
X79400000Y-95303400D01*
X79400000Y-92480500D01*
X94462928Y-92480500D01*
X94462928Y-93530500D01*
X94475188Y-93654982D01*
X94511498Y-93774680D01*
X94570463Y-93884994D01*
X94649815Y-93981685D01*
X94746506Y-94061037D01*
X94856820Y-94120002D01*
X94976518Y-94156312D01*
X95101000Y-94168572D01*
X95901000Y-94168572D01*
X96025482Y-94156312D01*
X96145180Y-94120002D01*
X96201000Y-94090165D01*
X96256820Y-94120002D01*
X96376518Y-94156312D01*
X96501000Y-94168572D01*
X96615250Y-94165500D01*
X96774000Y-94006750D01*
X96774000Y-93132500D01*
X96754000Y-93132500D01*
X96754000Y-92878500D01*
X96774000Y-92878500D01*
X96774000Y-92004250D01*
X97028000Y-92004250D01*
X97028000Y-92878500D01*
X97048000Y-92878500D01*
X97048000Y-93132500D01*
X97028000Y-93132500D01*
X97028000Y-94006750D01*
X97186750Y-94165500D01*
X97301000Y-94168572D01*
X97425482Y-94156312D01*
X97545180Y-94120002D01*
X97601000Y-94090165D01*
X97656820Y-94120002D01*
X97776518Y-94156312D01*
X97901000Y-94168572D01*
X98701000Y-94168572D01*
X98825482Y-94156312D01*
X98945180Y-94120002D01*
X99055494Y-94061037D01*
X99152185Y-93981685D01*
X99227018Y-93890500D01*
X99736479Y-93890500D01*
X99709063Y-93923906D01*
X99650098Y-94034220D01*
X99613788Y-94153918D01*
X99601528Y-94278400D01*
X99604600Y-94505150D01*
X99763350Y-94663900D01*
X100812600Y-94663900D01*
X100812600Y-94643900D01*
X101066600Y-94643900D01*
X101066600Y-94663900D01*
X102115850Y-94663900D01*
X102274600Y-94505150D01*
X102277672Y-94278400D01*
X102265412Y-94153918D01*
X102229102Y-94034220D01*
X102170137Y-93923906D01*
X102090785Y-93827215D01*
X102061324Y-93803037D01*
X102128005Y-93721787D01*
X102210072Y-93568252D01*
X102260608Y-93401656D01*
X102277672Y-93228402D01*
X102277672Y-92928306D01*
X103418907Y-91787072D01*
X103440000Y-91787072D01*
X103613254Y-91770008D01*
X103779850Y-91719472D01*
X103933386Y-91637405D01*
X104067962Y-91526962D01*
X104140000Y-91439183D01*
X104212038Y-91526962D01*
X104346614Y-91637405D01*
X104499442Y-91719094D01*
X104450595Y-91778614D01*
X104368528Y-91932150D01*
X104317992Y-92098746D01*
X104300928Y-92272000D01*
X104300928Y-92772000D01*
X104317992Y-92945254D01*
X104368528Y-93111850D01*
X104450595Y-93265386D01*
X104561038Y-93399962D01*
X104567594Y-93405342D01*
X104487815Y-93470815D01*
X104408463Y-93567506D01*
X104349498Y-93677820D01*
X104313188Y-93797518D01*
X104300928Y-93922000D01*
X104304000Y-94136250D01*
X104462750Y-94295000D01*
X105537000Y-94295000D01*
X105537000Y-94275000D01*
X105791000Y-94275000D01*
X105791000Y-94295000D01*
X106865250Y-94295000D01*
X107024000Y-94136250D01*
X107027072Y-93922000D01*
X107014812Y-93797518D01*
X106978502Y-93677820D01*
X106919537Y-93567506D01*
X106840185Y-93470815D01*
X106760406Y-93405342D01*
X106766962Y-93399962D01*
X106877405Y-93265386D01*
X106959472Y-93111850D01*
X107010008Y-92945254D01*
X107027072Y-92772000D01*
X107027072Y-92272000D01*
X107023641Y-92237161D01*
X107060802Y-92200000D01*
X108221199Y-92200000D01*
X108021271Y-92399928D01*
X107983000Y-92399928D01*
X107809746Y-92416992D01*
X107643150Y-92467528D01*
X107489614Y-92549595D01*
X107355038Y-92660038D01*
X107244595Y-92794614D01*
X107162528Y-92948150D01*
X107111992Y-93114746D01*
X107094928Y-93288000D01*
X107094928Y-93788000D01*
X107111992Y-93961254D01*
X107162528Y-94127850D01*
X107244595Y-94281386D01*
X107355038Y-94415962D01*
X107361594Y-94421342D01*
X107281815Y-94486815D01*
X107202463Y-94583506D01*
X107143498Y-94693820D01*
X107107188Y-94813518D01*
X107094928Y-94938000D01*
X107098000Y-95152250D01*
X107256750Y-95311000D01*
X108331000Y-95311000D01*
X108331000Y-95291000D01*
X108585000Y-95291000D01*
X108585000Y-95311000D01*
X109659250Y-95311000D01*
X109818000Y-95152250D01*
X109821072Y-94938000D01*
X109808812Y-94813518D01*
X109772502Y-94693820D01*
X109713537Y-94583506D01*
X109634185Y-94486815D01*
X109554406Y-94421342D01*
X109560962Y-94415962D01*
X109671405Y-94281386D01*
X109753472Y-94127850D01*
X109804008Y-93961254D01*
X109821072Y-93788000D01*
X109821072Y-93288000D01*
X109806253Y-93137545D01*
X109895046Y-93183239D01*
X110015296Y-93217677D01*
X110139954Y-93227994D01*
X110544250Y-93225000D01*
X110703000Y-93066250D01*
X110703000Y-92728072D01*
X110957000Y-92728072D01*
X110957000Y-93066250D01*
X111115750Y-93225000D01*
X111520046Y-93227994D01*
X111644704Y-93217677D01*
X111764954Y-93183239D01*
X111876174Y-93126003D01*
X111974092Y-93048169D01*
X112054943Y-92952727D01*
X112115621Y-92843346D01*
X112153794Y-92724229D01*
X112165000Y-92621750D01*
X112027725Y-92484475D01*
X112060537Y-92444494D01*
X112119502Y-92334180D01*
X112132753Y-92290497D01*
X112165000Y-92258250D01*
X112157898Y-92193302D01*
X112168072Y-92090000D01*
X112168072Y-91790000D01*
X112158223Y-91690000D01*
X112168072Y-91590000D01*
X112168072Y-91290000D01*
X112158223Y-91190000D01*
X112168072Y-91090000D01*
X112168072Y-90790000D01*
X112158223Y-90690000D01*
X112168072Y-90590000D01*
X112168072Y-90290000D01*
X112155812Y-90165518D01*
X112119502Y-90045820D01*
X112060537Y-89935506D01*
X111981185Y-89838815D01*
X111884494Y-89759463D01*
X111774180Y-89700498D01*
X111654482Y-89664188D01*
X111530000Y-89651928D01*
X111504637Y-89651928D01*
X111464974Y-89577724D01*
X111370001Y-89461999D01*
X111341002Y-89438200D01*
X111091145Y-89188343D01*
X111158405Y-89106386D01*
X111240472Y-88952850D01*
X111291008Y-88786254D01*
X111308072Y-88613000D01*
X111308072Y-88513804D01*
X111354577Y-88360499D01*
X111371000Y-88193752D01*
X111371000Y-83274131D01*
X112462632Y-82182500D01*
X113151833Y-82182500D01*
X113311744Y-82231008D01*
X113484998Y-82248072D01*
X116385002Y-82248072D01*
X116558256Y-82231008D01*
X116724852Y-82180472D01*
X116761281Y-82161000D01*
X119921928Y-82161000D01*
X119921928Y-82485000D01*
X119938992Y-82658254D01*
X119989528Y-82824850D01*
X120071595Y-82978386D01*
X120182038Y-83112962D01*
X120269817Y-83185000D01*
X120182038Y-83257038D01*
X120071595Y-83391614D01*
X119989528Y-83545150D01*
X119938992Y-83711746D01*
X119921928Y-83885000D01*
X119921928Y-84209000D01*
X116761281Y-84209000D01*
X116724852Y-84189528D01*
X116558256Y-84138992D01*
X116385002Y-84121928D01*
X113484998Y-84121928D01*
X113311744Y-84138992D01*
X113145148Y-84189528D01*
X112991613Y-84271595D01*
X112857038Y-84382038D01*
X112746595Y-84516613D01*
X112664528Y-84670148D01*
X112613992Y-84836744D01*
X112596928Y-85009998D01*
X112596928Y-85635002D01*
X112613992Y-85808256D01*
X112664528Y-85974852D01*
X112746595Y-86128387D01*
X112857038Y-86262962D01*
X112991613Y-86373405D01*
X113145148Y-86455472D01*
X113311744Y-86506008D01*
X113484998Y-86523072D01*
X113547796Y-86523072D01*
X112774860Y-87296009D01*
X112731552Y-87331551D01*
X112589717Y-87504377D01*
X112484324Y-87701553D01*
X112419423Y-87915501D01*
X112407612Y-88035423D01*
X112397509Y-88138000D01*
X112403000Y-88193751D01*
X112403000Y-88701751D01*
X112419423Y-88868498D01*
X112484324Y-89082446D01*
X112589716Y-89279623D01*
X112731551Y-89452449D01*
X112778001Y-89490569D01*
X112778000Y-90386677D01*
X112774324Y-90424000D01*
X112778000Y-90461322D01*
X112778000Y-90461332D01*
X112788997Y-90572985D01*
X112822369Y-90683000D01*
X112832454Y-90716246D01*
X112903026Y-90848276D01*
X112925944Y-90876201D01*
X112997999Y-90964001D01*
X113027002Y-90987803D01*
X113490200Y-91451002D01*
X113513999Y-91480001D01*
X113629724Y-91574974D01*
X113761753Y-91645546D01*
X113901576Y-91687960D01*
X113901777Y-91690000D01*
X113891928Y-91790000D01*
X113891928Y-92090000D01*
X113901777Y-92190000D01*
X113891928Y-92290000D01*
X113891928Y-92590000D01*
X113904188Y-92714482D01*
X113940498Y-92834180D01*
X113999463Y-92944494D01*
X114078815Y-93041185D01*
X114175506Y-93120537D01*
X114285820Y-93179502D01*
X114405518Y-93215812D01*
X114467054Y-93221873D01*
X114443805Y-93298510D01*
X114431000Y-93428523D01*
X114431000Y-93523267D01*
X114367717Y-93600377D01*
X114262325Y-93797553D01*
X114197424Y-94011501D01*
X114181001Y-94178248D01*
X114181001Y-95249233D01*
X114099180Y-95205498D01*
X113979482Y-95169188D01*
X113855000Y-95156928D01*
X113640750Y-95160000D01*
X113482000Y-95318750D01*
X113482000Y-96393000D01*
X113502000Y-96393000D01*
X113502000Y-96647000D01*
X113482000Y-96647000D01*
X113482000Y-97721250D01*
X113640750Y-97880000D01*
X113855000Y-97883072D01*
X113979482Y-97870812D01*
X114099180Y-97834502D01*
X114120000Y-97823373D01*
X114120000Y-99215013D01*
X114072150Y-99229528D01*
X113918614Y-99311595D01*
X113784038Y-99422038D01*
X113673595Y-99556614D01*
X113591528Y-99710150D01*
X113540992Y-99876746D01*
X113523928Y-100050000D01*
X113523928Y-103150000D01*
X113540992Y-103323254D01*
X113591528Y-103489850D01*
X113673595Y-103643386D01*
X113784038Y-103777962D01*
X113918614Y-103888405D01*
X114072150Y-103970472D01*
X114238746Y-104021008D01*
X114412000Y-104038072D01*
X115712000Y-104038072D01*
X115885254Y-104021008D01*
X116051850Y-103970472D01*
X116205386Y-103888405D01*
X116339962Y-103777962D01*
X116450405Y-103643386D01*
X116532472Y-103489850D01*
X116583008Y-103323254D01*
X116600072Y-103150000D01*
X116600072Y-100050000D01*
X116583008Y-99876746D01*
X116532472Y-99710150D01*
X116450405Y-99556614D01*
X116390000Y-99483010D01*
X116390000Y-97026191D01*
X116393072Y-96995000D01*
X116393072Y-96625321D01*
X116434577Y-96488499D01*
X116451000Y-96321752D01*
X116451000Y-95868740D01*
X154326964Y-95868740D01*
X154351245Y-95974087D01*
X154471138Y-96251204D01*
X154642790Y-96499606D01*
X154859604Y-96709748D01*
X155113249Y-96873554D01*
X155393977Y-96984729D01*
X155691000Y-97039000D01*
X156591000Y-97039000D01*
X156591000Y-95631000D01*
X156845000Y-95631000D01*
X156845000Y-97039000D01*
X157745000Y-97039000D01*
X158042023Y-96984729D01*
X158322751Y-96873554D01*
X158576396Y-96709748D01*
X158793210Y-96499606D01*
X158964862Y-96251204D01*
X159084755Y-95974087D01*
X159109036Y-95868740D01*
X158988378Y-95631000D01*
X156845000Y-95631000D01*
X156591000Y-95631000D01*
X154447622Y-95631000D01*
X154326964Y-95868740D01*
X116451000Y-95868740D01*
X116451000Y-95139260D01*
X154326964Y-95139260D01*
X154447622Y-95377000D01*
X156591000Y-95377000D01*
X156591000Y-93969000D01*
X156845000Y-93969000D01*
X156845000Y-95377000D01*
X158988378Y-95377000D01*
X159109036Y-95139260D01*
X159084755Y-95033913D01*
X158964862Y-94756796D01*
X158793210Y-94508394D01*
X158576396Y-94298252D01*
X158322751Y-94134446D01*
X158042023Y-94023271D01*
X157745000Y-93969000D01*
X156845000Y-93969000D01*
X156591000Y-93969000D01*
X155691000Y-93969000D01*
X155393977Y-94023271D01*
X155113249Y-94134446D01*
X154859604Y-94298252D01*
X154642790Y-94508394D01*
X154471138Y-94756796D01*
X154351245Y-95033913D01*
X154326964Y-95139260D01*
X116451000Y-95139260D01*
X116451000Y-94178248D01*
X116434577Y-94011501D01*
X116369676Y-93797553D01*
X116264284Y-93600377D01*
X116201000Y-93523265D01*
X116201000Y-93428523D01*
X116188195Y-93298510D01*
X116153955Y-93185637D01*
X116174180Y-93179502D01*
X116284494Y-93120537D01*
X116381185Y-93041185D01*
X116460537Y-92944494D01*
X116519502Y-92834180D01*
X116555812Y-92714482D01*
X116568072Y-92590000D01*
X116568072Y-92290000D01*
X116559208Y-92200000D01*
X117276890Y-92200000D01*
X117293528Y-92254850D01*
X117375595Y-92408386D01*
X117486038Y-92542962D01*
X117620614Y-92653405D01*
X117774150Y-92735472D01*
X117940746Y-92786008D01*
X118114000Y-92803072D01*
X118614000Y-92803072D01*
X118787254Y-92786008D01*
X118953850Y-92735472D01*
X119107386Y-92653405D01*
X119241962Y-92542962D01*
X119314000Y-92455183D01*
X119386038Y-92542962D01*
X119520614Y-92653405D01*
X119674150Y-92735472D01*
X119840746Y-92786008D01*
X120014000Y-92803072D01*
X120514000Y-92803072D01*
X120687254Y-92786008D01*
X120853850Y-92735472D01*
X121007386Y-92653405D01*
X121122449Y-92558976D01*
X121126499Y-92558577D01*
X121340447Y-92493676D01*
X121537623Y-92388284D01*
X121710449Y-92246449D01*
X121745996Y-92203136D01*
X122683140Y-91265992D01*
X122726449Y-91230449D01*
X122868284Y-91057623D01*
X122973676Y-90860447D01*
X122974418Y-90858000D01*
X129192928Y-90858000D01*
X129205188Y-90982482D01*
X129241498Y-91102180D01*
X129300463Y-91212494D01*
X129379815Y-91309185D01*
X129476506Y-91388537D01*
X129586820Y-91447502D01*
X129706518Y-91483812D01*
X129831000Y-91496072D01*
X130270250Y-91493000D01*
X130429000Y-91334250D01*
X130429000Y-90485000D01*
X130683000Y-90485000D01*
X130683000Y-91334250D01*
X130841750Y-91493000D01*
X131281000Y-91496072D01*
X131405482Y-91483812D01*
X131525180Y-91447502D01*
X131635494Y-91388537D01*
X131732185Y-91309185D01*
X131811537Y-91212494D01*
X131870502Y-91102180D01*
X131906812Y-90982482D01*
X131919072Y-90858000D01*
X131916000Y-90643750D01*
X131757250Y-90485000D01*
X130683000Y-90485000D01*
X130429000Y-90485000D01*
X129354750Y-90485000D01*
X129196000Y-90643750D01*
X129192928Y-90858000D01*
X122974418Y-90858000D01*
X123038577Y-90646499D01*
X123055000Y-90479752D01*
X123055000Y-90479751D01*
X123060491Y-90424000D01*
X123055000Y-90368249D01*
X123055000Y-89332588D01*
X123064377Y-89340284D01*
X123261553Y-89445676D01*
X123475501Y-89510577D01*
X123642248Y-89527000D01*
X124758539Y-89527000D01*
X124823613Y-89580405D01*
X124977148Y-89662472D01*
X125143744Y-89713008D01*
X125316998Y-89730072D01*
X125842002Y-89730072D01*
X126015256Y-89713008D01*
X126181852Y-89662472D01*
X126335387Y-89580405D01*
X126469962Y-89469962D01*
X126492000Y-89443109D01*
X126514038Y-89469962D01*
X126648613Y-89580405D01*
X126802148Y-89662472D01*
X126968744Y-89713008D01*
X127141998Y-89730072D01*
X127667002Y-89730072D01*
X127840256Y-89713008D01*
X128006852Y-89662472D01*
X128160387Y-89580405D01*
X128225461Y-89527000D01*
X129287905Y-89527000D01*
X129241498Y-89613820D01*
X129205188Y-89733518D01*
X129192928Y-89858000D01*
X129196000Y-90072250D01*
X129354750Y-90231000D01*
X130429000Y-90231000D01*
X130429000Y-90211000D01*
X130683000Y-90211000D01*
X130683000Y-90231000D01*
X131757250Y-90231000D01*
X131916000Y-90072250D01*
X131919072Y-89858000D01*
X131906812Y-89733518D01*
X131870502Y-89613820D01*
X131859373Y-89593000D01*
X132213176Y-89593000D01*
X132343148Y-89662472D01*
X132509744Y-89713008D01*
X132682998Y-89730072D01*
X133208002Y-89730072D01*
X133381256Y-89713008D01*
X133547852Y-89662472D01*
X133701387Y-89580405D01*
X133835962Y-89469962D01*
X133858000Y-89443109D01*
X133880038Y-89469962D01*
X134014613Y-89580405D01*
X134168148Y-89662472D01*
X134334744Y-89713008D01*
X134507998Y-89730072D01*
X134755000Y-89730072D01*
X134755000Y-90622248D01*
X134749509Y-90678000D01*
X134755000Y-90733751D01*
X134771423Y-90900498D01*
X134836324Y-91114446D01*
X134941716Y-91311623D01*
X135083551Y-91484449D01*
X135126865Y-91519996D01*
X137080009Y-93473141D01*
X137115551Y-93516449D01*
X137288377Y-93658284D01*
X137450444Y-93744910D01*
X137485553Y-93763676D01*
X137699501Y-93828577D01*
X137922000Y-93850491D01*
X137977751Y-93845000D01*
X144309869Y-93845000D01*
X144476271Y-94011403D01*
X144486992Y-94120254D01*
X144537528Y-94286850D01*
X144619595Y-94440386D01*
X144730038Y-94574962D01*
X144864614Y-94685405D01*
X145018150Y-94767472D01*
X145184746Y-94818008D01*
X145358000Y-94835072D01*
X145858000Y-94835072D01*
X146031254Y-94818008D01*
X146197850Y-94767472D01*
X146351386Y-94685405D01*
X146485962Y-94574962D01*
X146558000Y-94487183D01*
X146630038Y-94574962D01*
X146764614Y-94685405D01*
X146918150Y-94767472D01*
X147084746Y-94818008D01*
X147258000Y-94835072D01*
X147758000Y-94835072D01*
X147931254Y-94818008D01*
X148097850Y-94767472D01*
X148251386Y-94685405D01*
X148385962Y-94574962D01*
X148496405Y-94440386D01*
X148578472Y-94286850D01*
X148629008Y-94120254D01*
X148646072Y-93947000D01*
X148646072Y-92997000D01*
X148629008Y-92823746D01*
X148578472Y-92657150D01*
X148496405Y-92503614D01*
X148393000Y-92377614D01*
X148393000Y-91254481D01*
X148422313Y-91245589D01*
X148427157Y-91243000D01*
X149845265Y-91243000D01*
X149922377Y-91306284D01*
X150119553Y-91411676D01*
X150333501Y-91476577D01*
X150500248Y-91493000D01*
X154389835Y-91493000D01*
X154429595Y-91567386D01*
X154540038Y-91701962D01*
X154674614Y-91812405D01*
X154828150Y-91894472D01*
X154994746Y-91945008D01*
X155168000Y-91962072D01*
X158268000Y-91962072D01*
X158441254Y-91945008D01*
X158607850Y-91894472D01*
X158761386Y-91812405D01*
X158895962Y-91701962D01*
X159006405Y-91567386D01*
X159088472Y-91413850D01*
X159139008Y-91247254D01*
X159156072Y-91074000D01*
X159156072Y-89774000D01*
X159139008Y-89600746D01*
X159088472Y-89434150D01*
X159006405Y-89280614D01*
X158895962Y-89146038D01*
X158761386Y-89035595D01*
X158607850Y-88953528D01*
X158441254Y-88902992D01*
X158268000Y-88885928D01*
X155168000Y-88885928D01*
X154994746Y-88902992D01*
X154828150Y-88953528D01*
X154674614Y-89035595D01*
X154540038Y-89146038D01*
X154476877Y-89223000D01*
X150500248Y-89223000D01*
X150333501Y-89239423D01*
X150119553Y-89304324D01*
X149922377Y-89409716D01*
X149845265Y-89473000D01*
X148233373Y-89473000D01*
X148178180Y-89443498D01*
X148061159Y-89408000D01*
X148178180Y-89372502D01*
X148288494Y-89313537D01*
X148385185Y-89234185D01*
X148464537Y-89137494D01*
X148523502Y-89027180D01*
X148559812Y-88907482D01*
X148572072Y-88783000D01*
X148572072Y-88421553D01*
X148582000Y-88320751D01*
X148582000Y-87431751D01*
X148587491Y-87375999D01*
X148565577Y-87153501D01*
X148500676Y-86939553D01*
X148448815Y-86842528D01*
X148395284Y-86742377D01*
X148253449Y-86569551D01*
X148210141Y-86534009D01*
X143058496Y-81382365D01*
X143022949Y-81339051D01*
X142850123Y-81197216D01*
X142652947Y-81091824D01*
X142438999Y-81026923D01*
X142272252Y-81010500D01*
X142272251Y-81010500D01*
X142216500Y-81005009D01*
X142160749Y-81010500D01*
X126969936Y-81010500D01*
X126928447Y-80988324D01*
X126714499Y-80923423D01*
X126547752Y-80907000D01*
X126547751Y-80907000D01*
X126491999Y-80901509D01*
X126436248Y-80907000D01*
X121882132Y-80907000D01*
X121237996Y-80262864D01*
X121202449Y-80219551D01*
X121029623Y-80077716D01*
X120832447Y-79972324D01*
X120618499Y-79907423D01*
X120451752Y-79891000D01*
X120451751Y-79891000D01*
X120396000Y-79885509D01*
X120340249Y-79891000D01*
X116647290Y-79891000D01*
X116558256Y-79863992D01*
X116385002Y-79846928D01*
X115435000Y-79846928D01*
X115435000Y-78273220D01*
X115482008Y-78118254D01*
X115499072Y-77945000D01*
X115499072Y-76995000D01*
X115482008Y-76821746D01*
X115435000Y-76666780D01*
X115435000Y-73568072D01*
X116026000Y-73568072D01*
X116199254Y-73551008D01*
X116365850Y-73500472D01*
X116519386Y-73418405D01*
X116653962Y-73307962D01*
X116764405Y-73173386D01*
X116846472Y-73019850D01*
X116897008Y-72853254D01*
X116914072Y-72680000D01*
X116914072Y-70830000D01*
X116897008Y-70656746D01*
X116846472Y-70490150D01*
X116764405Y-70336614D01*
X116653962Y-70202038D01*
X116519386Y-70091595D01*
X116373500Y-70013617D01*
X116373500Y-66684954D01*
X116393254Y-66683008D01*
X116559850Y-66632472D01*
X116713386Y-66550405D01*
X116847962Y-66439962D01*
X116958405Y-66305386D01*
X117040472Y-66151850D01*
X117091008Y-65985254D01*
X117108072Y-65812000D01*
X117108072Y-64389000D01*
X119115000Y-64389000D01*
X119115000Y-65289000D01*
X119169271Y-65586023D01*
X119280446Y-65866751D01*
X119444252Y-66120396D01*
X119654394Y-66337210D01*
X119902796Y-66508862D01*
X120179913Y-66628755D01*
X120285260Y-66653036D01*
X120523000Y-66532378D01*
X120523000Y-64389000D01*
X120777000Y-64389000D01*
X120777000Y-66532378D01*
X121014740Y-66653036D01*
X121120087Y-66628755D01*
X121397204Y-66508862D01*
X121645606Y-66337210D01*
X121855748Y-66120396D01*
X122019554Y-65866751D01*
X122130729Y-65586023D01*
X122185000Y-65289000D01*
X122185000Y-64389000D01*
X120777000Y-64389000D01*
X120523000Y-64389000D01*
X119115000Y-64389000D01*
X117108072Y-64389000D01*
X117108072Y-63235000D01*
X119115000Y-63235000D01*
X119115000Y-64135000D01*
X120523000Y-64135000D01*
X120523000Y-61991622D01*
X120777000Y-61991622D01*
X120777000Y-64135000D01*
X122185000Y-64135000D01*
X122185000Y-63235000D01*
X122130729Y-62937977D01*
X122019554Y-62657249D01*
X121855748Y-62403604D01*
X121645606Y-62186790D01*
X121397204Y-62015138D01*
X121120087Y-61895245D01*
X121014740Y-61870964D01*
X120777000Y-61991622D01*
X120523000Y-61991622D01*
X120285260Y-61870964D01*
X120179913Y-61895245D01*
X119902796Y-62015138D01*
X119654394Y-62186790D01*
X119444252Y-62403604D01*
X119280446Y-62657249D01*
X119169271Y-62937977D01*
X119115000Y-63235000D01*
X117108072Y-63235000D01*
X117108072Y-62712000D01*
X117091008Y-62538746D01*
X117040472Y-62372150D01*
X116958405Y-62218614D01*
X116847962Y-62084038D01*
X116713386Y-61973595D01*
X116559850Y-61891528D01*
X116393254Y-61840992D01*
X116220000Y-61823928D01*
X114920000Y-61823928D01*
X114746746Y-61840992D01*
X114580150Y-61891528D01*
X114426614Y-61973595D01*
X114292038Y-62084038D01*
X114181595Y-62218614D01*
X114099528Y-62372150D01*
X114048992Y-62538746D01*
X114031928Y-62712000D01*
X114031928Y-65812000D01*
X114048992Y-65985254D01*
X114099528Y-66151850D01*
X114103501Y-66159282D01*
X114103500Y-70013617D01*
X113957614Y-70091595D01*
X113823038Y-70202038D01*
X113712595Y-70336614D01*
X113630528Y-70490150D01*
X113579992Y-70656746D01*
X113562928Y-70830000D01*
X113562928Y-72029941D01*
X113536864Y-72056004D01*
X113493551Y-72091551D01*
X113351716Y-72264377D01*
X113246325Y-72461553D01*
X113246324Y-72461554D01*
X113181423Y-72675502D01*
X113159509Y-72898000D01*
X113165000Y-72953752D01*
X113165000Y-76143310D01*
X113085482Y-76119188D01*
X112961000Y-76106928D01*
X112746750Y-76110000D01*
X112588000Y-76268750D01*
X112588000Y-77343000D01*
X112608000Y-77343000D01*
X112608000Y-77597000D01*
X112588000Y-77597000D01*
X112588000Y-78671250D01*
X112746750Y-78830000D01*
X112961000Y-78833072D01*
X113085482Y-78820812D01*
X113165001Y-78796690D01*
X113165001Y-79908506D01*
X113151833Y-79912500D01*
X112048251Y-79912500D01*
X111992499Y-79907009D01*
X111770000Y-79928923D01*
X111720205Y-79944029D01*
X111556053Y-79993824D01*
X111358877Y-80099216D01*
X111186051Y-80241051D01*
X111150509Y-80284360D01*
X109472865Y-81962004D01*
X109429551Y-81997551D01*
X109287716Y-82170377D01*
X109182325Y-82367553D01*
X109182324Y-82367554D01*
X109117423Y-82581502D01*
X109095509Y-82804000D01*
X109101000Y-82859752D01*
X109101001Y-86869905D01*
X109014180Y-86823498D01*
X108894482Y-86787188D01*
X108770000Y-86774928D01*
X108555750Y-86778000D01*
X108397000Y-86936750D01*
X108397000Y-88011000D01*
X108417000Y-88011000D01*
X108417000Y-88265000D01*
X108397000Y-88265000D01*
X108397000Y-89339250D01*
X108555750Y-89498000D01*
X108770000Y-89501072D01*
X108894482Y-89488812D01*
X109014180Y-89452502D01*
X109124494Y-89393537D01*
X109221185Y-89314185D01*
X109286658Y-89234406D01*
X109292038Y-89240962D01*
X109426614Y-89351405D01*
X109475333Y-89377446D01*
X109472324Y-89408000D01*
X109476000Y-89445322D01*
X109476000Y-89445332D01*
X109486997Y-89556985D01*
X109530281Y-89699676D01*
X109530454Y-89700246D01*
X109601026Y-89832276D01*
X109639488Y-89879141D01*
X109642604Y-89882938D01*
X109599463Y-89935506D01*
X109540498Y-90045820D01*
X109504188Y-90165518D01*
X109503550Y-90172000D01*
X109026802Y-90172000D01*
X108767803Y-89913002D01*
X108744001Y-89883999D01*
X108628276Y-89789026D01*
X108496247Y-89718454D01*
X108352986Y-89674997D01*
X108241333Y-89664000D01*
X108241322Y-89664000D01*
X108204000Y-89660324D01*
X108166678Y-89664000D01*
X106177110Y-89664000D01*
X106160472Y-89609150D01*
X106078405Y-89455614D01*
X105967962Y-89321038D01*
X105833386Y-89210595D01*
X105679850Y-89128528D01*
X105513254Y-89077992D01*
X105340000Y-89060928D01*
X104840000Y-89060928D01*
X104666746Y-89077992D01*
X104500150Y-89128528D01*
X104346614Y-89210595D01*
X104212038Y-89321038D01*
X104140000Y-89408817D01*
X104067962Y-89321038D01*
X103933386Y-89210595D01*
X103779850Y-89128528D01*
X103613254Y-89077992D01*
X103440000Y-89060928D01*
X102940000Y-89060928D01*
X102766746Y-89077992D01*
X102600150Y-89128528D01*
X102446614Y-89210595D01*
X102312038Y-89321038D01*
X102201595Y-89455614D01*
X102119528Y-89609150D01*
X102068992Y-89775746D01*
X102051928Y-89949000D01*
X102051928Y-90650893D01*
X100887494Y-91815328D01*
X100489598Y-91815328D01*
X100316344Y-91832392D01*
X100149748Y-91882928D01*
X99996213Y-91964995D01*
X99861638Y-92075438D01*
X99824657Y-92120500D01*
X99227018Y-92120500D01*
X99152185Y-92029315D01*
X99055494Y-91949963D01*
X98945180Y-91890998D01*
X98825482Y-91854688D01*
X98701000Y-91842428D01*
X97901000Y-91842428D01*
X97776518Y-91854688D01*
X97656820Y-91890998D01*
X97601000Y-91920835D01*
X97545180Y-91890998D01*
X97425482Y-91854688D01*
X97301000Y-91842428D01*
X97186750Y-91845500D01*
X97028000Y-92004250D01*
X96774000Y-92004250D01*
X96615250Y-91845500D01*
X96501000Y-91842428D01*
X96376518Y-91854688D01*
X96256820Y-91890998D01*
X96201000Y-91920835D01*
X96145180Y-91890998D01*
X96025482Y-91854688D01*
X95901000Y-91842428D01*
X95101000Y-91842428D01*
X94976518Y-91854688D01*
X94856820Y-91890998D01*
X94746506Y-91949963D01*
X94649815Y-92029315D01*
X94570463Y-92126006D01*
X94511498Y-92236320D01*
X94475188Y-92356018D01*
X94462928Y-92480500D01*
X79400000Y-92480500D01*
X79400000Y-90060000D01*
X79757928Y-90060000D01*
X79770188Y-90184482D01*
X79806498Y-90304180D01*
X79865463Y-90414494D01*
X79944815Y-90511185D01*
X80041506Y-90590537D01*
X80151820Y-90649502D01*
X80271518Y-90685812D01*
X80396000Y-90698072D01*
X82210250Y-90695000D01*
X82369000Y-90536250D01*
X82369000Y-89312000D01*
X82623000Y-89312000D01*
X82623000Y-90536250D01*
X82781750Y-90695000D01*
X84596000Y-90698072D01*
X84720482Y-90685812D01*
X84840180Y-90649502D01*
X84950494Y-90590537D01*
X85047185Y-90511185D01*
X85126537Y-90414494D01*
X85185502Y-90304180D01*
X85221812Y-90184482D01*
X85234072Y-90060000D01*
X85233919Y-90030500D01*
X94462928Y-90030500D01*
X94462928Y-91080500D01*
X94475188Y-91204982D01*
X94511498Y-91324680D01*
X94570463Y-91434994D01*
X94649815Y-91531685D01*
X94746506Y-91611037D01*
X94856820Y-91670002D01*
X94976518Y-91706312D01*
X95101000Y-91718572D01*
X95901000Y-91718572D01*
X96025482Y-91706312D01*
X96145180Y-91670002D01*
X96201000Y-91640165D01*
X96256820Y-91670002D01*
X96376518Y-91706312D01*
X96501000Y-91718572D01*
X96615250Y-91715500D01*
X96774000Y-91556750D01*
X96774000Y-90682500D01*
X96754000Y-90682500D01*
X96754000Y-90428500D01*
X96774000Y-90428500D01*
X96774000Y-89554250D01*
X96615250Y-89395500D01*
X96501000Y-89392428D01*
X96376518Y-89404688D01*
X96256820Y-89440998D01*
X96201000Y-89470835D01*
X96145180Y-89440998D01*
X96025482Y-89404688D01*
X95901000Y-89392428D01*
X95101000Y-89392428D01*
X94976518Y-89404688D01*
X94856820Y-89440998D01*
X94746506Y-89499963D01*
X94649815Y-89579315D01*
X94570463Y-89676006D01*
X94511498Y-89786320D01*
X94475188Y-89906018D01*
X94462928Y-90030500D01*
X85233919Y-90030500D01*
X85231000Y-89470750D01*
X85072250Y-89312000D01*
X82623000Y-89312000D01*
X82369000Y-89312000D01*
X79919750Y-89312000D01*
X79761000Y-89470750D01*
X79757928Y-90060000D01*
X79400000Y-90060000D01*
X79400000Y-88310000D01*
X79757928Y-88310000D01*
X79761000Y-88899250D01*
X79919750Y-89058000D01*
X82369000Y-89058000D01*
X82369000Y-87833750D01*
X82623000Y-87833750D01*
X82623000Y-89058000D01*
X85072250Y-89058000D01*
X85231000Y-88899250D01*
X85234072Y-88310000D01*
X85221812Y-88185518D01*
X85196174Y-88101000D01*
X95295528Y-88101000D01*
X95307788Y-88225482D01*
X95344098Y-88345180D01*
X95403063Y-88455494D01*
X95482415Y-88552185D01*
X95579106Y-88631537D01*
X95689420Y-88690502D01*
X95809118Y-88726812D01*
X95933600Y-88739072D01*
X96147850Y-88736000D01*
X96306600Y-88577250D01*
X96306600Y-87503000D01*
X95457350Y-87503000D01*
X95298600Y-87661750D01*
X95295528Y-88101000D01*
X85196174Y-88101000D01*
X85185502Y-88065820D01*
X85126537Y-87955506D01*
X85047185Y-87858815D01*
X84950494Y-87779463D01*
X84840180Y-87720498D01*
X84720482Y-87684188D01*
X84596000Y-87671928D01*
X82781750Y-87675000D01*
X82623000Y-87833750D01*
X82369000Y-87833750D01*
X82210250Y-87675000D01*
X80396000Y-87671928D01*
X80271518Y-87684188D01*
X80151820Y-87720498D01*
X80041506Y-87779463D01*
X79944815Y-87858815D01*
X79865463Y-87955506D01*
X79806498Y-88065820D01*
X79770188Y-88185518D01*
X79757928Y-88310000D01*
X79400000Y-88310000D01*
X79400000Y-85725000D01*
X79857928Y-85725000D01*
X79857928Y-86995000D01*
X79870188Y-87119482D01*
X79906498Y-87239180D01*
X79965463Y-87349494D01*
X80044815Y-87446185D01*
X80141506Y-87525537D01*
X80251820Y-87584502D01*
X80371518Y-87620812D01*
X80496000Y-87633072D01*
X84096000Y-87633072D01*
X84220482Y-87620812D01*
X84340180Y-87584502D01*
X84450494Y-87525537D01*
X84487704Y-87495000D01*
X85796249Y-87495000D01*
X85852000Y-87500491D01*
X85907751Y-87495000D01*
X85907752Y-87495000D01*
X86074499Y-87478577D01*
X86288447Y-87413676D01*
X86485623Y-87308284D01*
X86658449Y-87166449D01*
X86693996Y-87123135D01*
X87166131Y-86651000D01*
X95295528Y-86651000D01*
X95298600Y-87090250D01*
X95457350Y-87249000D01*
X96306600Y-87249000D01*
X96306600Y-86174750D01*
X96147850Y-86016000D01*
X95933600Y-86012928D01*
X95809118Y-86025188D01*
X95689420Y-86061498D01*
X95579106Y-86120463D01*
X95482415Y-86199815D01*
X95403063Y-86296506D01*
X95344098Y-86406820D01*
X95307788Y-86526518D01*
X95295528Y-86651000D01*
X87166131Y-86651000D01*
X88201160Y-85615972D01*
X88359000Y-85615972D01*
X88532254Y-85598908D01*
X88698850Y-85548372D01*
X88852386Y-85466305D01*
X88986962Y-85355862D01*
X89097405Y-85221286D01*
X89179472Y-85067750D01*
X89230008Y-84901154D01*
X89247072Y-84727900D01*
X89247072Y-84227900D01*
X89230008Y-84054646D01*
X89179472Y-83888050D01*
X89097405Y-83734514D01*
X88986962Y-83599938D01*
X88899183Y-83527900D01*
X88986962Y-83455862D01*
X89097405Y-83321286D01*
X89179472Y-83167750D01*
X89230008Y-83001154D01*
X89247072Y-82827900D01*
X89247072Y-82327900D01*
X89230008Y-82154646D01*
X89179472Y-81988050D01*
X89097405Y-81834514D01*
X89019000Y-81738977D01*
X89019000Y-79518386D01*
X89941400Y-79518386D01*
X90090778Y-79503674D01*
X90234415Y-79460102D01*
X90366792Y-79389345D01*
X90482822Y-79294122D01*
X90578045Y-79178092D01*
X90648802Y-79045715D01*
X90692374Y-78902078D01*
X90707086Y-78752700D01*
X90707086Y-77101700D01*
X90692374Y-76952322D01*
X90648802Y-76808685D01*
X90578045Y-76676308D01*
X90482822Y-76560278D01*
X90366792Y-76465055D01*
X90234415Y-76394298D01*
X90090778Y-76350726D01*
X89941400Y-76336014D01*
X87401400Y-76336014D01*
X87252022Y-76350726D01*
X87108385Y-76394298D01*
X86976008Y-76465055D01*
X86859978Y-76560278D01*
X86764755Y-76676308D01*
X86693998Y-76808685D01*
X86650426Y-76952322D01*
X86635714Y-77101700D01*
X86635714Y-78752700D01*
X86650426Y-78902078D01*
X86693998Y-79045715D01*
X86749001Y-79148618D01*
X86749000Y-81738976D01*
X86670595Y-81834514D01*
X86588528Y-81988050D01*
X86537992Y-82154646D01*
X86520928Y-82327900D01*
X86520928Y-82827900D01*
X86537992Y-83001154D01*
X86588528Y-83167750D01*
X86670595Y-83321286D01*
X86781038Y-83455862D01*
X86868817Y-83527900D01*
X86781038Y-83599938D01*
X86670595Y-83734514D01*
X86588528Y-83888050D01*
X86537992Y-84054646D01*
X86536437Y-84070431D01*
X85381869Y-85225000D01*
X84487704Y-85225000D01*
X84450494Y-85194463D01*
X84340180Y-85135498D01*
X84220482Y-85099188D01*
X84096000Y-85086928D01*
X80496000Y-85086928D01*
X80371518Y-85099188D01*
X80251820Y-85135498D01*
X80141506Y-85194463D01*
X80044815Y-85273815D01*
X79965463Y-85370506D01*
X79906498Y-85480820D01*
X79870188Y-85600518D01*
X79857928Y-85725000D01*
X79400000Y-85725000D01*
X79400000Y-84410000D01*
X79757928Y-84410000D01*
X79770188Y-84534482D01*
X79806498Y-84654180D01*
X79865463Y-84764494D01*
X79944815Y-84861185D01*
X80041506Y-84940537D01*
X80151820Y-84999502D01*
X80271518Y-85035812D01*
X80396000Y-85048072D01*
X82210250Y-85045000D01*
X82369000Y-84886250D01*
X82369000Y-83662000D01*
X82623000Y-83662000D01*
X82623000Y-84886250D01*
X82781750Y-85045000D01*
X84596000Y-85048072D01*
X84720482Y-85035812D01*
X84840180Y-84999502D01*
X84950494Y-84940537D01*
X85047185Y-84861185D01*
X85126537Y-84764494D01*
X85185502Y-84654180D01*
X85221812Y-84534482D01*
X85234072Y-84410000D01*
X85231000Y-83820750D01*
X85072250Y-83662000D01*
X82623000Y-83662000D01*
X82369000Y-83662000D01*
X79919750Y-83662000D01*
X79761000Y-83820750D01*
X79757928Y-84410000D01*
X79400000Y-84410000D01*
X79400000Y-82660000D01*
X79757928Y-82660000D01*
X79761000Y-83249250D01*
X79919750Y-83408000D01*
X82369000Y-83408000D01*
X82369000Y-82183750D01*
X82623000Y-82183750D01*
X82623000Y-83408000D01*
X85072250Y-83408000D01*
X85231000Y-83249250D01*
X85234072Y-82660000D01*
X85221812Y-82535518D01*
X85185502Y-82415820D01*
X85126537Y-82305506D01*
X85047185Y-82208815D01*
X84950494Y-82129463D01*
X84840180Y-82070498D01*
X84720482Y-82034188D01*
X84596000Y-82021928D01*
X82781750Y-82025000D01*
X82623000Y-82183750D01*
X82369000Y-82183750D01*
X82210250Y-82025000D01*
X80396000Y-82021928D01*
X80271518Y-82034188D01*
X80151820Y-82070498D01*
X80041506Y-82129463D01*
X79944815Y-82208815D01*
X79865463Y-82305506D01*
X79806498Y-82415820D01*
X79770188Y-82535518D01*
X79757928Y-82660000D01*
X79400000Y-82660000D01*
X79400000Y-72021700D01*
X91715714Y-72021700D01*
X91715714Y-73672700D01*
X91730426Y-73822078D01*
X91773998Y-73965715D01*
X91844755Y-74098092D01*
X91860436Y-74117200D01*
X91844755Y-74136308D01*
X91773998Y-74268685D01*
X91730426Y-74412322D01*
X91715714Y-74561700D01*
X91715714Y-76212700D01*
X91730426Y-76362078D01*
X91773998Y-76505715D01*
X91844755Y-76638092D01*
X91939978Y-76754122D01*
X92056008Y-76849345D01*
X92188385Y-76920102D01*
X92332022Y-76963674D01*
X92481400Y-76978386D01*
X95021400Y-76978386D01*
X95170778Y-76963674D01*
X95314415Y-76920102D01*
X95446792Y-76849345D01*
X95562822Y-76754122D01*
X95658045Y-76638092D01*
X95719991Y-76522200D01*
X96608669Y-76522200D01*
X97137600Y-77051132D01*
X97137600Y-77312227D01*
X97084595Y-77376814D01*
X97002528Y-77530350D01*
X96951992Y-77696946D01*
X96934928Y-77870200D01*
X96934928Y-78370200D01*
X96951992Y-78543454D01*
X97002528Y-78710050D01*
X97084595Y-78863586D01*
X97195038Y-78998162D01*
X97282817Y-79070200D01*
X97195038Y-79142238D01*
X97084595Y-79276814D01*
X97002528Y-79430350D01*
X96951992Y-79596946D01*
X96934928Y-79770200D01*
X96934928Y-80270200D01*
X96951992Y-80443454D01*
X97002528Y-80610050D01*
X97084595Y-80763586D01*
X97195038Y-80898162D01*
X97329614Y-81008605D01*
X97413000Y-81053176D01*
X97413001Y-81925282D01*
X97310885Y-82009085D01*
X97204329Y-82138925D01*
X97125150Y-82287058D01*
X97076392Y-82447792D01*
X97059928Y-82614950D01*
X97059928Y-83052450D01*
X97076392Y-83219608D01*
X97125150Y-83380342D01*
X97204329Y-83528475D01*
X97310885Y-83658315D01*
X97440725Y-83764871D01*
X97588858Y-83844050D01*
X97749592Y-83892808D01*
X97784031Y-83896200D01*
X97749592Y-83899592D01*
X97588858Y-83948350D01*
X97440725Y-84027529D01*
X97310885Y-84134085D01*
X97204329Y-84263925D01*
X97125150Y-84412058D01*
X97076392Y-84572792D01*
X97059928Y-84739950D01*
X97059928Y-85177450D01*
X97076392Y-85344608D01*
X97125150Y-85505342D01*
X97204329Y-85653475D01*
X97310885Y-85783315D01*
X97413000Y-85867118D01*
X97413000Y-86234195D01*
X97384785Y-86199815D01*
X97288094Y-86120463D01*
X97177780Y-86061498D01*
X97058082Y-86025188D01*
X96933600Y-86012928D01*
X96719350Y-86016000D01*
X96560600Y-86174750D01*
X96560600Y-87249000D01*
X96580600Y-87249000D01*
X96580600Y-87503000D01*
X96560600Y-87503000D01*
X96560600Y-88577250D01*
X96719350Y-88736000D01*
X96933600Y-88739072D01*
X97058082Y-88726812D01*
X97177780Y-88690502D01*
X97288094Y-88631537D01*
X97384785Y-88552185D01*
X97413001Y-88517804D01*
X97413001Y-89403459D01*
X97301000Y-89392428D01*
X97186750Y-89395500D01*
X97028000Y-89554250D01*
X97028000Y-90428500D01*
X97048000Y-90428500D01*
X97048000Y-90682500D01*
X97028000Y-90682500D01*
X97028000Y-91556750D01*
X97186750Y-91715500D01*
X97301000Y-91718572D01*
X97425482Y-91706312D01*
X97545180Y-91670002D01*
X97601000Y-91640165D01*
X97656820Y-91670002D01*
X97776518Y-91706312D01*
X97901000Y-91718572D01*
X98701000Y-91718572D01*
X98825482Y-91706312D01*
X98945180Y-91670002D01*
X99055494Y-91611037D01*
X99152185Y-91531685D01*
X99231537Y-91434994D01*
X99290502Y-91324680D01*
X99326812Y-91204982D01*
X99339072Y-91080500D01*
X99339072Y-90030500D01*
X99326812Y-89906018D01*
X99290502Y-89786320D01*
X99231537Y-89676006D01*
X99183000Y-89616863D01*
X99183000Y-88863000D01*
X107131928Y-88863000D01*
X107144188Y-88987482D01*
X107180498Y-89107180D01*
X107239463Y-89217494D01*
X107318815Y-89314185D01*
X107415506Y-89393537D01*
X107525820Y-89452502D01*
X107645518Y-89488812D01*
X107770000Y-89501072D01*
X107984250Y-89498000D01*
X108143000Y-89339250D01*
X108143000Y-88265000D01*
X107293750Y-88265000D01*
X107135000Y-88423750D01*
X107131928Y-88863000D01*
X99183000Y-88863000D01*
X99183000Y-88502402D01*
X99211562Y-88478962D01*
X99322005Y-88344386D01*
X99404072Y-88190850D01*
X99454608Y-88024254D01*
X99471672Y-87851000D01*
X99471672Y-87413000D01*
X107131928Y-87413000D01*
X107135000Y-87852250D01*
X107293750Y-88011000D01*
X108143000Y-88011000D01*
X108143000Y-86936750D01*
X107984250Y-86778000D01*
X107770000Y-86774928D01*
X107645518Y-86787188D01*
X107525820Y-86823498D01*
X107415506Y-86882463D01*
X107318815Y-86961815D01*
X107239463Y-87058506D01*
X107180498Y-87168820D01*
X107144188Y-87288518D01*
X107131928Y-87413000D01*
X99471672Y-87413000D01*
X99471672Y-86901000D01*
X99454608Y-86727746D01*
X99404072Y-86561150D01*
X99322005Y-86407614D01*
X99211562Y-86273038D01*
X99183000Y-86249598D01*
X99183000Y-85867118D01*
X99285115Y-85783315D01*
X99391671Y-85653475D01*
X99470850Y-85505342D01*
X99519608Y-85344608D01*
X99536072Y-85177450D01*
X99536072Y-84739950D01*
X99519608Y-84572792D01*
X99470850Y-84412058D01*
X99391671Y-84263925D01*
X99285115Y-84134085D01*
X99155275Y-84027529D01*
X99007142Y-83948350D01*
X98846408Y-83899592D01*
X98811969Y-83896200D01*
X98846408Y-83892808D01*
X99007142Y-83844050D01*
X99155275Y-83764871D01*
X99285115Y-83658315D01*
X99391671Y-83528475D01*
X99470850Y-83380342D01*
X99519608Y-83219608D01*
X99536072Y-83052450D01*
X99536072Y-82614950D01*
X99519608Y-82447792D01*
X99470850Y-82287058D01*
X99391671Y-82138925D01*
X99285115Y-82009085D01*
X99183000Y-81925282D01*
X99183000Y-81053176D01*
X99266386Y-81008605D01*
X99400962Y-80898162D01*
X99511405Y-80763586D01*
X99593472Y-80610050D01*
X99644008Y-80443454D01*
X99661072Y-80270200D01*
X99661072Y-79770200D01*
X99644008Y-79596946D01*
X99593472Y-79430350D01*
X99511405Y-79276814D01*
X99400962Y-79142238D01*
X99313183Y-79070200D01*
X99400962Y-78998162D01*
X99511405Y-78863586D01*
X99593472Y-78710050D01*
X99644008Y-78543454D01*
X99661072Y-78370200D01*
X99661072Y-78195000D01*
X111322928Y-78195000D01*
X111335188Y-78319482D01*
X111371498Y-78439180D01*
X111430463Y-78549494D01*
X111509815Y-78646185D01*
X111606506Y-78725537D01*
X111716820Y-78784502D01*
X111836518Y-78820812D01*
X111961000Y-78833072D01*
X112175250Y-78830000D01*
X112334000Y-78671250D01*
X112334000Y-77597000D01*
X111484750Y-77597000D01*
X111326000Y-77755750D01*
X111322928Y-78195000D01*
X99661072Y-78195000D01*
X99661072Y-77870200D01*
X99644008Y-77696946D01*
X99593472Y-77530350D01*
X99511405Y-77376814D01*
X99407600Y-77250326D01*
X99407600Y-76745000D01*
X111322928Y-76745000D01*
X111326000Y-77184250D01*
X111484750Y-77343000D01*
X112334000Y-77343000D01*
X112334000Y-76268750D01*
X112175250Y-76110000D01*
X111961000Y-76106928D01*
X111836518Y-76119188D01*
X111716820Y-76155498D01*
X111606506Y-76214463D01*
X111509815Y-76293815D01*
X111430463Y-76390506D01*
X111371498Y-76500820D01*
X111335188Y-76620518D01*
X111322928Y-76745000D01*
X99407600Y-76745000D01*
X99407600Y-76636751D01*
X99413091Y-76580999D01*
X99391177Y-76358500D01*
X99376071Y-76308705D01*
X99326276Y-76144553D01*
X99220884Y-75947377D01*
X99079049Y-75774551D01*
X99035740Y-75739008D01*
X97920796Y-74624065D01*
X97885249Y-74580751D01*
X97712423Y-74438916D01*
X97515247Y-74333524D01*
X97301299Y-74268623D01*
X97134552Y-74252200D01*
X97134551Y-74252200D01*
X97078800Y-74246709D01*
X97023049Y-74252200D01*
X95719991Y-74252200D01*
X95658045Y-74136308D01*
X95642364Y-74117200D01*
X95658045Y-74098092D01*
X95728802Y-73965715D01*
X95772374Y-73822078D01*
X95787086Y-73672700D01*
X95787086Y-72930000D01*
X108637928Y-72930000D01*
X108650188Y-73054482D01*
X108686498Y-73174180D01*
X108745463Y-73284494D01*
X108824815Y-73381185D01*
X108921506Y-73460537D01*
X109031820Y-73519502D01*
X109151518Y-73555812D01*
X109276000Y-73568072D01*
X110027750Y-73565000D01*
X110186500Y-73406250D01*
X110186500Y-71882000D01*
X110440500Y-71882000D01*
X110440500Y-73406250D01*
X110599250Y-73565000D01*
X111351000Y-73568072D01*
X111475482Y-73555812D01*
X111595180Y-73519502D01*
X111705494Y-73460537D01*
X111802185Y-73381185D01*
X111881537Y-73284494D01*
X111940502Y-73174180D01*
X111976812Y-73054482D01*
X111989072Y-72930000D01*
X111986000Y-72040750D01*
X111827250Y-71882000D01*
X110440500Y-71882000D01*
X110186500Y-71882000D01*
X108799750Y-71882000D01*
X108641000Y-72040750D01*
X108637928Y-72930000D01*
X95787086Y-72930000D01*
X95787086Y-72021700D01*
X95772374Y-71872322D01*
X95728802Y-71728685D01*
X95658045Y-71596308D01*
X95562822Y-71480278D01*
X95446792Y-71385055D01*
X95314415Y-71314298D01*
X95170778Y-71270726D01*
X95021400Y-71256014D01*
X94861000Y-71256014D01*
X94861000Y-70580000D01*
X108637928Y-70580000D01*
X108641000Y-71469250D01*
X108799750Y-71628000D01*
X110186500Y-71628000D01*
X110186500Y-70103750D01*
X110440500Y-70103750D01*
X110440500Y-71628000D01*
X111827250Y-71628000D01*
X111986000Y-71469250D01*
X111989072Y-70580000D01*
X111976812Y-70455518D01*
X111940502Y-70335820D01*
X111881537Y-70225506D01*
X111802185Y-70128815D01*
X111705494Y-70049463D01*
X111595180Y-69990498D01*
X111475482Y-69954188D01*
X111351000Y-69941928D01*
X110599250Y-69945000D01*
X110440500Y-70103750D01*
X110186500Y-70103750D01*
X110027750Y-69945000D01*
X109276000Y-69941928D01*
X109151518Y-69954188D01*
X109031820Y-69990498D01*
X108921506Y-70049463D01*
X108824815Y-70128815D01*
X108745463Y-70225506D01*
X108686498Y-70335820D01*
X108650188Y-70455518D01*
X108637928Y-70580000D01*
X94861000Y-70580000D01*
X94861000Y-69632323D01*
X94939405Y-69536786D01*
X95021472Y-69383250D01*
X95072008Y-69216654D01*
X95089072Y-69043400D01*
X95089072Y-68543400D01*
X95072008Y-68370146D01*
X95021472Y-68203550D01*
X94939405Y-68050014D01*
X94828962Y-67915438D01*
X94741183Y-67843400D01*
X94828962Y-67771362D01*
X94939405Y-67636786D01*
X95021472Y-67483250D01*
X95072008Y-67316654D01*
X95089072Y-67143400D01*
X95089072Y-66643400D01*
X95072008Y-66470146D01*
X95021472Y-66303550D01*
X94939405Y-66150014D01*
X94828962Y-66015438D01*
X94759400Y-65958350D01*
X94759400Y-64022000D01*
X94936328Y-64022000D01*
X94948588Y-64146482D01*
X94984898Y-64266180D01*
X95043863Y-64376494D01*
X95123215Y-64473185D01*
X95219906Y-64552537D01*
X95330220Y-64611502D01*
X95449918Y-64647812D01*
X95574400Y-64660072D01*
X96163650Y-64657000D01*
X96322400Y-64498250D01*
X96322400Y-62049000D01*
X96576400Y-62049000D01*
X96576400Y-64498250D01*
X96735150Y-64657000D01*
X97324400Y-64660072D01*
X97448882Y-64647812D01*
X97568580Y-64611502D01*
X97678894Y-64552537D01*
X97775585Y-64473185D01*
X97854937Y-64376494D01*
X97913902Y-64266180D01*
X97950212Y-64146482D01*
X97962472Y-64022000D01*
X97959400Y-62207750D01*
X97800650Y-62049000D01*
X96576400Y-62049000D01*
X96322400Y-62049000D01*
X95098150Y-62049000D01*
X94939400Y-62207750D01*
X94936328Y-64022000D01*
X94759400Y-64022000D01*
X94759400Y-63913704D01*
X94789937Y-63876494D01*
X94848902Y-63766180D01*
X94885212Y-63646482D01*
X94897472Y-63522000D01*
X94897472Y-59922000D01*
X94887624Y-59822000D01*
X94936328Y-59822000D01*
X94939400Y-61636250D01*
X95098150Y-61795000D01*
X96322400Y-61795000D01*
X96322400Y-59345750D01*
X96576400Y-59345750D01*
X96576400Y-61795000D01*
X97800650Y-61795000D01*
X97959400Y-61636250D01*
X97962472Y-59822000D01*
X97950212Y-59697518D01*
X97913902Y-59577820D01*
X97854937Y-59467506D01*
X97775585Y-59370815D01*
X97678894Y-59291463D01*
X97568580Y-59232498D01*
X97448882Y-59196188D01*
X97324400Y-59183928D01*
X96735150Y-59187000D01*
X96576400Y-59345750D01*
X96322400Y-59345750D01*
X96163650Y-59187000D01*
X95574400Y-59183928D01*
X95449918Y-59196188D01*
X95330220Y-59232498D01*
X95219906Y-59291463D01*
X95123215Y-59370815D01*
X95043863Y-59467506D01*
X94984898Y-59577820D01*
X94948588Y-59697518D01*
X94936328Y-59822000D01*
X94887624Y-59822000D01*
X94885212Y-59797518D01*
X94848902Y-59677820D01*
X94789937Y-59567506D01*
X94710585Y-59470815D01*
X94613894Y-59391463D01*
X94503580Y-59332498D01*
X94383882Y-59296188D01*
X94259400Y-59283928D01*
X92989400Y-59283928D01*
X92864918Y-59296188D01*
X92745220Y-59332498D01*
X92634906Y-59391463D01*
X92538215Y-59470815D01*
X92458863Y-59567506D01*
X92399898Y-59677820D01*
X92363588Y-59797518D01*
X92351328Y-59922000D01*
X92351328Y-63522000D01*
X92363588Y-63646482D01*
X92399898Y-63766180D01*
X92458863Y-63876494D01*
X92489401Y-63913704D01*
X92489401Y-66193407D01*
X92430528Y-66303550D01*
X92379992Y-66470146D01*
X92362928Y-66643400D01*
X92362928Y-67143400D01*
X92379992Y-67316654D01*
X92430528Y-67483250D01*
X92512595Y-67636786D01*
X92623038Y-67771362D01*
X92710817Y-67843400D01*
X92623038Y-67915438D01*
X92512595Y-68050014D01*
X92430528Y-68203550D01*
X92379992Y-68370146D01*
X92362928Y-68543400D01*
X92362928Y-69043400D01*
X92379992Y-69216654D01*
X92430528Y-69383250D01*
X92512595Y-69536786D01*
X92591000Y-69632324D01*
X92591001Y-71256014D01*
X92481400Y-71256014D01*
X92332022Y-71270726D01*
X92188385Y-71314298D01*
X92056008Y-71385055D01*
X91939978Y-71480278D01*
X91844755Y-71596308D01*
X91773998Y-71728685D01*
X91730426Y-71872322D01*
X91715714Y-72021700D01*
X79400000Y-72021700D01*
X79400000Y-64022000D01*
X89286328Y-64022000D01*
X89298588Y-64146482D01*
X89334898Y-64266180D01*
X89393863Y-64376494D01*
X89473215Y-64473185D01*
X89569906Y-64552537D01*
X89680220Y-64611502D01*
X89799918Y-64647812D01*
X89924400Y-64660072D01*
X90513650Y-64657000D01*
X90672400Y-64498250D01*
X90672400Y-62049000D01*
X90926400Y-62049000D01*
X90926400Y-64498250D01*
X91085150Y-64657000D01*
X91674400Y-64660072D01*
X91798882Y-64647812D01*
X91918580Y-64611502D01*
X92028894Y-64552537D01*
X92125585Y-64473185D01*
X92204937Y-64376494D01*
X92263902Y-64266180D01*
X92300212Y-64146482D01*
X92312472Y-64022000D01*
X92309400Y-62207750D01*
X92150650Y-62049000D01*
X90926400Y-62049000D01*
X90672400Y-62049000D01*
X89448150Y-62049000D01*
X89289400Y-62207750D01*
X89286328Y-64022000D01*
X79400000Y-64022000D01*
X79400000Y-63529392D01*
X79472437Y-62717751D01*
X79679672Y-61960226D01*
X80017777Y-61251375D01*
X80476067Y-60613596D01*
X81040055Y-60067054D01*
X81404733Y-59822000D01*
X89286328Y-59822000D01*
X89289400Y-61636250D01*
X89448150Y-61795000D01*
X90672400Y-61795000D01*
X90672400Y-59345750D01*
X90926400Y-59345750D01*
X90926400Y-61795000D01*
X92150650Y-61795000D01*
X92309400Y-61636250D01*
X92312472Y-59822000D01*
X92300212Y-59697518D01*
X92263902Y-59577820D01*
X92204937Y-59467506D01*
X92125585Y-59370815D01*
X92028894Y-59291463D01*
X91918580Y-59232498D01*
X91798882Y-59196188D01*
X91674400Y-59183928D01*
X91085150Y-59187000D01*
X90926400Y-59345750D01*
X90672400Y-59345750D01*
X90513650Y-59187000D01*
X89924400Y-59183928D01*
X89799918Y-59196188D01*
X89680220Y-59232498D01*
X89569906Y-59291463D01*
X89473215Y-59370815D01*
X89393863Y-59467506D01*
X89334898Y-59577820D01*
X89298588Y-59697518D01*
X89286328Y-59822000D01*
X81404733Y-59822000D01*
X81691913Y-59629023D01*
X82411038Y-59313349D01*
X83179768Y-59128794D01*
X83844207Y-59080000D01*
X154910608Y-59080000D01*
X155722249Y-59152437D01*
G37*
%TD.AperFunction*%
D28*
X144429820Y-89372502D02*
X144546841Y-89408000D01*
X144429820Y-89443498D01*
X144319506Y-89502463D01*
X144279859Y-89535000D01*
X144197750Y-89535000D01*
X144039000Y-89693750D01*
X144035928Y-89733000D01*
X144048188Y-89857482D01*
X144055929Y-89883000D01*
X144048188Y-89908518D01*
X144035928Y-90033000D01*
X144035928Y-90192663D01*
X143958412Y-90337687D01*
X143907805Y-90504510D01*
X143890719Y-90678000D01*
X143895001Y-90721479D01*
X143895001Y-91575000D01*
X138392132Y-91575000D01*
X137025000Y-90207869D01*
X137025000Y-89730072D01*
X137272002Y-89730072D01*
X137445256Y-89713008D01*
X137611852Y-89662472D01*
X137765387Y-89580405D01*
X137899962Y-89469962D01*
X137922000Y-89443109D01*
X137944038Y-89469962D01*
X138078613Y-89580405D01*
X138232148Y-89662472D01*
X138398744Y-89713008D01*
X138571998Y-89730072D01*
X139097002Y-89730072D01*
X139270256Y-89713008D01*
X139436852Y-89662472D01*
X139590387Y-89580405D01*
X139655461Y-89527000D01*
X141279752Y-89527000D01*
X141446499Y-89510577D01*
X141599804Y-89464072D01*
X141699000Y-89464072D01*
X141872254Y-89447008D01*
X142038850Y-89396472D01*
X142138889Y-89343000D01*
X144374627Y-89343000D01*
X144429820Y-89372502D01*
%TA.AperFunction,Conductor*%
D29*
G36*
X144429820Y-89372502D02*
G01*
X144546841Y-89408000D01*
X144429820Y-89443498D01*
X144319506Y-89502463D01*
X144279859Y-89535000D01*
X144197750Y-89535000D01*
X144039000Y-89693750D01*
X144035928Y-89733000D01*
X144048188Y-89857482D01*
X144055929Y-89883000D01*
X144048188Y-89908518D01*
X144035928Y-90033000D01*
X144035928Y-90192663D01*
X143958412Y-90337687D01*
X143907805Y-90504510D01*
X143890719Y-90678000D01*
X143895001Y-90721479D01*
X143895001Y-91575000D01*
X138392132Y-91575000D01*
X137025000Y-90207869D01*
X137025000Y-89730072D01*
X137272002Y-89730072D01*
X137445256Y-89713008D01*
X137611852Y-89662472D01*
X137765387Y-89580405D01*
X137899962Y-89469962D01*
X137922000Y-89443109D01*
X137944038Y-89469962D01*
X138078613Y-89580405D01*
X138232148Y-89662472D01*
X138398744Y-89713008D01*
X138571998Y-89730072D01*
X139097002Y-89730072D01*
X139270256Y-89713008D01*
X139436852Y-89662472D01*
X139590387Y-89580405D01*
X139655461Y-89527000D01*
X141279752Y-89527000D01*
X141446499Y-89510577D01*
X141599804Y-89464072D01*
X141699000Y-89464072D01*
X141872254Y-89447008D01*
X142038850Y-89396472D01*
X142138889Y-89343000D01*
X144374627Y-89343000D01*
X144429820Y-89372502D01*
G37*
%TD.AperFunction*%
D28*
X146422815Y-89234185D02*
X146519506Y-89313537D01*
X146629820Y-89372502D01*
X146746841Y-89408000D01*
X146629820Y-89443498D01*
X146519506Y-89502463D01*
X146422815Y-89581815D01*
X146348103Y-89672853D01*
X146210250Y-89535000D01*
X146128141Y-89535000D01*
X146088494Y-89502463D01*
X145978180Y-89443498D01*
X145861159Y-89408000D01*
X145978180Y-89372502D01*
X146088494Y-89313537D01*
X146128141Y-89281000D01*
X146210250Y-89281000D01*
X146348103Y-89143147D01*
X146422815Y-89234185D01*
%TA.AperFunction,Conductor*%
D29*
G36*
X146422815Y-89234185D02*
G01*
X146519506Y-89313537D01*
X146629820Y-89372502D01*
X146746841Y-89408000D01*
X146629820Y-89443498D01*
X146519506Y-89502463D01*
X146422815Y-89581815D01*
X146348103Y-89672853D01*
X146210250Y-89535000D01*
X146128141Y-89535000D01*
X146088494Y-89502463D01*
X145978180Y-89443498D01*
X145861159Y-89408000D01*
X145978180Y-89372502D01*
X146088494Y-89313537D01*
X146128141Y-89281000D01*
X146210250Y-89281000D01*
X146348103Y-89143147D01*
X146422815Y-89234185D01*
G37*
%TD.AperFunction*%
D28*
X146045178Y-87579310D02*
X145978180Y-87543498D01*
X145858482Y-87507188D01*
X145734000Y-87494928D01*
X144674000Y-87494928D01*
X144549518Y-87507188D01*
X144429820Y-87543498D01*
X144374627Y-87573000D01*
X142429515Y-87573000D01*
X142326962Y-87448038D01*
X142320406Y-87442658D01*
X142400185Y-87377185D01*
X142479537Y-87280494D01*
X142538502Y-87170180D01*
X142574812Y-87050482D01*
X142587072Y-86926000D01*
X142584000Y-86711750D01*
X142425250Y-86553000D01*
X141351000Y-86553000D01*
X141351000Y-86573000D01*
X141097000Y-86573000D01*
X141097000Y-86553000D01*
X140022750Y-86553000D01*
X139864000Y-86711750D01*
X139860928Y-86926000D01*
X139873188Y-87050482D01*
X139909498Y-87170180D01*
X139955905Y-87257000D01*
X139655461Y-87257000D01*
X139590387Y-87203595D01*
X139436852Y-87121528D01*
X139270256Y-87070992D01*
X139097002Y-87053928D01*
X138571998Y-87053928D01*
X138398744Y-87070992D01*
X138232148Y-87121528D01*
X138078613Y-87203595D01*
X137944038Y-87314038D01*
X137922000Y-87340891D01*
X137899962Y-87314038D01*
X137765387Y-87203595D01*
X137611852Y-87121528D01*
X137445256Y-87070992D01*
X137272002Y-87053928D01*
X136746998Y-87053928D01*
X136573744Y-87070992D01*
X136407148Y-87121528D01*
X136253613Y-87203595D01*
X136188539Y-87257000D01*
X135945752Y-87257000D01*
X135890000Y-87251509D01*
X135834249Y-87257000D01*
X135591461Y-87257000D01*
X135526387Y-87203595D01*
X135372852Y-87121528D01*
X135206256Y-87070992D01*
X135033002Y-87053928D01*
X134507998Y-87053928D01*
X134334744Y-87070992D01*
X134168148Y-87121528D01*
X134014613Y-87203595D01*
X133880038Y-87314038D01*
X133858000Y-87340891D01*
X133835962Y-87314038D01*
X133701387Y-87203595D01*
X133547852Y-87121528D01*
X133381256Y-87070992D01*
X133208002Y-87053928D01*
X132682998Y-87053928D01*
X132509744Y-87070992D01*
X132343148Y-87121528D01*
X132189613Y-87203595D01*
X132055038Y-87314038D01*
X132047683Y-87323000D01*
X131062191Y-87323000D01*
X131031000Y-87319928D01*
X130931804Y-87319928D01*
X130778499Y-87273423D01*
X130611752Y-87257000D01*
X128225461Y-87257000D01*
X128160387Y-87203595D01*
X128006852Y-87121528D01*
X127840256Y-87070992D01*
X127667002Y-87053928D01*
X127141998Y-87053928D01*
X126968744Y-87070992D01*
X126802148Y-87121528D01*
X126648613Y-87203595D01*
X126514038Y-87314038D01*
X126492000Y-87340891D01*
X126469962Y-87314038D01*
X126335387Y-87203595D01*
X126181852Y-87121528D01*
X126015256Y-87070992D01*
X125842002Y-87053928D01*
X125316998Y-87053928D01*
X125143744Y-87070992D01*
X124977148Y-87121528D01*
X124823613Y-87203595D01*
X124758539Y-87257000D01*
X123642248Y-87257000D01*
X123475501Y-87273423D01*
X123261553Y-87338324D01*
X123064377Y-87443716D01*
X122891551Y-87585551D01*
X122749716Y-87758377D01*
X122644324Y-87955553D01*
X122579423Y-88169501D01*
X122575945Y-88204813D01*
X121531000Y-87159869D01*
X121531000Y-85926000D01*
X139860928Y-85926000D01*
X139864000Y-86140250D01*
X140022750Y-86299000D01*
X141097000Y-86299000D01*
X141097000Y-85449750D01*
X141351000Y-85449750D01*
X141351000Y-86299000D01*
X142425250Y-86299000D01*
X142584000Y-86140250D01*
X142587072Y-85926000D01*
X142574812Y-85801518D01*
X142538502Y-85681820D01*
X142479537Y-85571506D01*
X142400185Y-85474815D01*
X142303494Y-85395463D01*
X142193180Y-85336498D01*
X142073482Y-85300188D01*
X141949000Y-85287928D01*
X141509750Y-85291000D01*
X141351000Y-85449750D01*
X141097000Y-85449750D01*
X140938250Y-85291000D01*
X140499000Y-85287928D01*
X140374518Y-85300188D01*
X140254820Y-85336498D01*
X140144506Y-85395463D01*
X140047815Y-85474815D01*
X139968463Y-85571506D01*
X139909498Y-85681820D01*
X139873188Y-85801518D01*
X139860928Y-85926000D01*
X121531000Y-85926000D01*
X121531000Y-85814131D01*
X121628132Y-85717000D01*
X125674249Y-85717000D01*
X125730000Y-85722491D01*
X125785751Y-85717000D01*
X125785752Y-85717000D01*
X125952499Y-85700577D01*
X126166447Y-85635676D01*
X126363623Y-85530284D01*
X126536449Y-85388449D01*
X126571996Y-85345135D01*
X126807864Y-85109267D01*
X126861256Y-85104008D01*
X127027852Y-85053472D01*
X127181387Y-84971405D01*
X127315962Y-84860962D01*
X127426405Y-84726387D01*
X127508472Y-84572852D01*
X127559008Y-84406256D01*
X127576072Y-84233002D01*
X127576072Y-83707998D01*
X127559008Y-83534744D01*
X127508472Y-83368148D01*
X127461623Y-83280500D01*
X141746369Y-83280500D01*
X146045178Y-87579310D01*
%TA.AperFunction,Conductor*%
D29*
G36*
X146045178Y-87579310D02*
G01*
X145978180Y-87543498D01*
X145858482Y-87507188D01*
X145734000Y-87494928D01*
X144674000Y-87494928D01*
X144549518Y-87507188D01*
X144429820Y-87543498D01*
X144374627Y-87573000D01*
X142429515Y-87573000D01*
X142326962Y-87448038D01*
X142320406Y-87442658D01*
X142400185Y-87377185D01*
X142479537Y-87280494D01*
X142538502Y-87170180D01*
X142574812Y-87050482D01*
X142587072Y-86926000D01*
X142584000Y-86711750D01*
X142425250Y-86553000D01*
X141351000Y-86553000D01*
X141351000Y-86573000D01*
X141097000Y-86573000D01*
X141097000Y-86553000D01*
X140022750Y-86553000D01*
X139864000Y-86711750D01*
X139860928Y-86926000D01*
X139873188Y-87050482D01*
X139909498Y-87170180D01*
X139955905Y-87257000D01*
X139655461Y-87257000D01*
X139590387Y-87203595D01*
X139436852Y-87121528D01*
X139270256Y-87070992D01*
X139097002Y-87053928D01*
X138571998Y-87053928D01*
X138398744Y-87070992D01*
X138232148Y-87121528D01*
X138078613Y-87203595D01*
X137944038Y-87314038D01*
X137922000Y-87340891D01*
X137899962Y-87314038D01*
X137765387Y-87203595D01*
X137611852Y-87121528D01*
X137445256Y-87070992D01*
X137272002Y-87053928D01*
X136746998Y-87053928D01*
X136573744Y-87070992D01*
X136407148Y-87121528D01*
X136253613Y-87203595D01*
X136188539Y-87257000D01*
X135945752Y-87257000D01*
X135890000Y-87251509D01*
X135834249Y-87257000D01*
X135591461Y-87257000D01*
X135526387Y-87203595D01*
X135372852Y-87121528D01*
X135206256Y-87070992D01*
X135033002Y-87053928D01*
X134507998Y-87053928D01*
X134334744Y-87070992D01*
X134168148Y-87121528D01*
X134014613Y-87203595D01*
X133880038Y-87314038D01*
X133858000Y-87340891D01*
X133835962Y-87314038D01*
X133701387Y-87203595D01*
X133547852Y-87121528D01*
X133381256Y-87070992D01*
X133208002Y-87053928D01*
X132682998Y-87053928D01*
X132509744Y-87070992D01*
X132343148Y-87121528D01*
X132189613Y-87203595D01*
X132055038Y-87314038D01*
X132047683Y-87323000D01*
X131062191Y-87323000D01*
X131031000Y-87319928D01*
X130931804Y-87319928D01*
X130778499Y-87273423D01*
X130611752Y-87257000D01*
X128225461Y-87257000D01*
X128160387Y-87203595D01*
X128006852Y-87121528D01*
X127840256Y-87070992D01*
X127667002Y-87053928D01*
X127141998Y-87053928D01*
X126968744Y-87070992D01*
X126802148Y-87121528D01*
X126648613Y-87203595D01*
X126514038Y-87314038D01*
X126492000Y-87340891D01*
X126469962Y-87314038D01*
X126335387Y-87203595D01*
X126181852Y-87121528D01*
X126015256Y-87070992D01*
X125842002Y-87053928D01*
X125316998Y-87053928D01*
X125143744Y-87070992D01*
X124977148Y-87121528D01*
X124823613Y-87203595D01*
X124758539Y-87257000D01*
X123642248Y-87257000D01*
X123475501Y-87273423D01*
X123261553Y-87338324D01*
X123064377Y-87443716D01*
X122891551Y-87585551D01*
X122749716Y-87758377D01*
X122644324Y-87955553D01*
X122579423Y-88169501D01*
X122575945Y-88204813D01*
X121531000Y-87159869D01*
X121531000Y-85926000D01*
X139860928Y-85926000D01*
X139864000Y-86140250D01*
X140022750Y-86299000D01*
X141097000Y-86299000D01*
X141097000Y-85449750D01*
X141351000Y-85449750D01*
X141351000Y-86299000D01*
X142425250Y-86299000D01*
X142584000Y-86140250D01*
X142587072Y-85926000D01*
X142574812Y-85801518D01*
X142538502Y-85681820D01*
X142479537Y-85571506D01*
X142400185Y-85474815D01*
X142303494Y-85395463D01*
X142193180Y-85336498D01*
X142073482Y-85300188D01*
X141949000Y-85287928D01*
X141509750Y-85291000D01*
X141351000Y-85449750D01*
X141097000Y-85449750D01*
X140938250Y-85291000D01*
X140499000Y-85287928D01*
X140374518Y-85300188D01*
X140254820Y-85336498D01*
X140144506Y-85395463D01*
X140047815Y-85474815D01*
X139968463Y-85571506D01*
X139909498Y-85681820D01*
X139873188Y-85801518D01*
X139860928Y-85926000D01*
X121531000Y-85926000D01*
X121531000Y-85814131D01*
X121628132Y-85717000D01*
X125674249Y-85717000D01*
X125730000Y-85722491D01*
X125785751Y-85717000D01*
X125785752Y-85717000D01*
X125952499Y-85700577D01*
X126166447Y-85635676D01*
X126363623Y-85530284D01*
X126536449Y-85388449D01*
X126571996Y-85345135D01*
X126807864Y-85109267D01*
X126861256Y-85104008D01*
X127027852Y-85053472D01*
X127181387Y-84971405D01*
X127315962Y-84860962D01*
X127426405Y-84726387D01*
X127508472Y-84572852D01*
X127559008Y-84406256D01*
X127576072Y-84233002D01*
X127576072Y-83707998D01*
X127559008Y-83534744D01*
X127508472Y-83368148D01*
X127461623Y-83280500D01*
X141746369Y-83280500D01*
X146045178Y-87579310D01*
G37*
%TD.AperFunction*%
D28*
X146308947Y-87843079D02*
X146304000Y-87852335D01*
X146287690Y-87821822D01*
X146308947Y-87843079D01*
%TA.AperFunction,Conductor*%
D29*
G36*
X146308947Y-87843079D02*
G01*
X146304000Y-87852335D01*
X146287690Y-87821822D01*
X146308947Y-87843079D01*
G37*
%TD.AperFunction*%
%TD*%
M02*
