M48
; DRILL file {KiCad (5.1.9)-1} date 03/09/21 18:28:41
; FORMAT={-:-/ absolute / inch / decimal}
; #@! TF.CreationDate,2021-03-09T18:28:41-05:00
; #@! TF.GenerationSoftware,Kicad,Pcbnew,(5.1.9)-1
; #@! TF.FileFunction,Plated,1,2,PTH
FMAT,2
INCH
T1C0.0157
T2C0.0200
T3C0.0472
%
G90
G05
T1
X3.1964Y-2.4398
X3.1964Y-2.7154
X3.1964Y-2.991
X3.1964Y-3.8965
X3.2751Y-4.0933
X3.3539Y-2.5579
X3.3539Y-2.8335
X3.3539Y-3.739
X3.4326Y-3.9358
X3.472Y-2.4004
X3.5114Y-2.676
X3.5114Y-3.5815
X3.5114Y-4.1327
X3.5507Y-3.1484
X3.5901Y-3.3847
X3.5901Y-3.7784
X3.6688Y-3.9752
X3.7476Y-2.5579
X3.7476Y-3.2272
X3.787Y-2.7941
X3.787Y-4.1327
X3.8263Y-3.739
X3.9051Y-2.4004
X3.9051Y-3.9358
X3.9444Y-2.6366
X3.9444Y-2.9122
X3.9444Y-3.3059
X3.9444Y-3.5815
X4.0232Y-3.1091
X4.0232Y-4.0933
X4.0625Y-3.7784
X4.1019Y-2.4791
X4.1019Y-2.7547
X4.1019Y-3.424
X4.1807Y-2.9516
X4.1807Y-3.2272
X4.1807Y-3.9358
X4.2594Y-2.5972
X4.2594Y-4.1327
X4.3381Y-2.4004
X4.3381Y-3.0697
X4.3381Y-3.6996
X4.4169Y-2.7154
X4.4169Y-3.3059
X4.4169Y-3.8965
X4.535Y-4.1327
X4.5744Y-2.9122
X4.6137Y-3.6996
X4.64Y-3.49
X4.6531Y-2.4004
X4.6531Y-2.676
X4.6531Y-3.1091
X4.6531Y-3.9358
X4.7712Y-2.8335
X4.7712Y-4.0933
X4.8106Y-3.7784
X4.8499Y-2.4791
X4.8499Y-3.0303
X4.87Y-3.48
X4.8893Y-3.5815
X4.9287Y-2.676
X4.9287Y-3.9358
X5.0074Y-2.8728
X5.0074Y-3.1484
X5.0074Y-4.1327
X5.0468Y-2.4004
X5.0468Y-3.3847
X5.0468Y-3.6996
X5.1255Y-2.5972
X5.1649Y-2.991
X5.1649Y-3.8571
X5.2436Y-2.7547
X5.2436Y-3.3059
X5.2436Y-3.5815
X5.2436Y-4.0539
X5.283Y-2.4398
X5.3224Y-3.1091
X5.3618Y-3.739
X5.4011Y-2.5972
X5.4011Y-2.8728
X5.4405Y-3.3847
X5.4405Y-3.9358
X5.5192Y-2.4004
X5.5192Y-3.0303
X5.5192Y-4.1327
X5.5586Y-2.7154
X5.58Y-3.56
X5.598Y-3.7784
X5.6767Y-2.5185
X5.6767Y-2.8728
X5.6767Y-3.1484
X5.6767Y-3.424
X5.6767Y-3.9752
X5.7948Y-2.676
X5.7948Y-4.1327
X5.8342Y-2.4004
X5.8342Y-2.991
X5.8342Y-3.2665
X5.8342Y-3.8177
X5.9129Y-3.4634
X5.9523Y-2.5579
X5.9523Y-2.8335
X5.9523Y-3.9752
X5.9917Y-3.1091
X5.9917Y-3.6602
X6.0704Y-3.3059
X6.0704Y-4.1327
X6.1098Y-2.4004
X6.1098Y-2.676
X6.1098Y-2.9516
X6.1098Y-3.8571
X6.1885Y-3.4634
X6.2279Y-3.1484
X6.2279Y-4.0146
T2
X3.426Y-2.868
X3.426Y-2.968
X3.591Y-2.868
X3.591Y-2.918
X3.591Y-2.968
X3.591Y-3.018
X3.591Y-3.068
X3.756Y-3.068
T3
X4.33Y-4.0
X4.53Y-4.0
X4.55Y-2.53
X4.75Y-2.53
X6.17Y-3.56
X6.17Y-3.76
T0
M30
