%TF.GenerationSoftware,KiCad,Pcbnew,(5.1.9)-1*%
%TF.CreationDate,2021-03-17T18:50:59-04:00*%
%TF.ProjectId,PowerSplitter,506f7765-7253-4706-9c69-747465722e6b,rev?*%
%TF.SameCoordinates,Original*%
%TF.FileFunction,Copper,L2,Bot*%
%TF.FilePolarity,Positive*%
%FSLAX46Y46*%
G04 Gerber Fmt 4.6, Leading zero omitted, Abs format (unit mm)*
G04 Created by KiCad (PCBNEW (5.1.9)-1) date 2021-03-17 18:50:59*
%MOMM*%
%LPD*%
G01*
G04 APERTURE LIST*
%TA.AperFunction,SMDPad,CuDef*%
%ADD10R,4.200000X1.750000*%
%TD*%
%TA.AperFunction,ViaPad*%
%ADD11C,0.800000*%
%TD*%
%TA.AperFunction,Conductor*%
%ADD12C,0.254000*%
%TD*%
%TA.AperFunction,Conductor*%
%ADD13C,0.100000*%
%TD*%
G04 APERTURE END LIST*
D10*
%TO.P,J3,3_2*%
%TO.N,GND*%
X134420000Y-78455000D03*
%TO.P,J3,2_2*%
X134420000Y-84105000D03*
%TD*%
%TO.P,J2,3_2*%
%TO.N,GND*%
X134420000Y-63215000D03*
%TO.P,J2,2_2*%
X134420000Y-68865000D03*
%TD*%
%TO.P,J1,3_2*%
%TO.N,GND*%
X111960000Y-76485000D03*
%TO.P,J1,2_2*%
X111960000Y-70835000D03*
%TD*%
D11*
%TO.N,GND*%
X110668550Y-60494876D03*
X110668550Y-64494876D03*
X110668550Y-79494876D03*
X110668550Y-83494876D03*
X110668550Y-87494876D03*
X111668550Y-67494876D03*
X112668550Y-62494876D03*
X112668550Y-81494876D03*
X112668550Y-85494876D03*
X113668550Y-65494876D03*
X114668550Y-60494876D03*
X114668550Y-79494876D03*
X114668550Y-83494876D03*
X114668550Y-87494876D03*
X115668550Y-63494876D03*
X115668550Y-67494876D03*
X115668550Y-71494876D03*
X115668550Y-75494876D03*
X116668550Y-81494876D03*
X116668550Y-85494876D03*
X117668550Y-61494876D03*
X117668550Y-65494876D03*
X117668550Y-69494876D03*
X117668550Y-77494876D03*
X118668550Y-83494876D03*
X118668550Y-87494876D03*
X119668550Y-63494876D03*
X119668550Y-67494876D03*
X119668550Y-71494876D03*
X119668550Y-75494876D03*
X119668550Y-79494876D03*
X120668550Y-60494876D03*
X120668550Y-85494876D03*
X121668550Y-65494876D03*
X121668550Y-69494876D03*
X121668550Y-77494876D03*
X121668550Y-81494876D03*
X122668550Y-62494876D03*
X122668550Y-87494876D03*
X123668550Y-67494876D03*
X123668550Y-79494876D03*
X123668550Y-83494876D03*
X124668550Y-60494876D03*
X124668550Y-64494876D03*
X125668550Y-81494876D03*
X125668550Y-85494876D03*
X126668550Y-62494876D03*
X126668550Y-66494876D03*
X126668550Y-73494876D03*
X127668550Y-83494876D03*
X128668550Y-60494876D03*
X128668550Y-64494876D03*
X128668550Y-71494876D03*
X128668550Y-75494876D03*
X128668550Y-86494876D03*
X130668550Y-62494876D03*
X130668550Y-69494876D03*
X130668550Y-73494876D03*
X130668550Y-77494876D03*
X130668550Y-84494876D03*
X131668550Y-87494876D03*
X132668550Y-60494876D03*
X132668550Y-71494876D03*
X132668550Y-75494876D03*
X134668550Y-73494876D03*
X135668550Y-87494876D03*
%TD*%
D12*
%TO.N,GND*%
X136500000Y-61701962D02*
X134705750Y-61705000D01*
X134547000Y-61863750D01*
X134547000Y-63088000D01*
X134567000Y-63088000D01*
X134567000Y-63342000D01*
X134547000Y-63342000D01*
X134547000Y-64566250D01*
X134705750Y-64725000D01*
X136500000Y-64728038D01*
X136500000Y-67351962D01*
X134705750Y-67355000D01*
X134547000Y-67513750D01*
X134547000Y-68738000D01*
X134567000Y-68738000D01*
X134567000Y-68992000D01*
X134547000Y-68992000D01*
X134547000Y-70216250D01*
X134705750Y-70375000D01*
X136500000Y-70378038D01*
X136500001Y-76941962D01*
X134705750Y-76945000D01*
X134547000Y-77103750D01*
X134547000Y-78328000D01*
X134567000Y-78328000D01*
X134567000Y-78582000D01*
X134547000Y-78582000D01*
X134547000Y-79806250D01*
X134705750Y-79965000D01*
X136500001Y-79968038D01*
X136500001Y-82591962D01*
X134705750Y-82595000D01*
X134547000Y-82753750D01*
X134547000Y-83978000D01*
X134567000Y-83978000D01*
X134567000Y-84232000D01*
X134547000Y-84232000D01*
X134547000Y-85456250D01*
X134705750Y-85615000D01*
X136500001Y-85618038D01*
X136500001Y-88240000D01*
X109880000Y-88240000D01*
X109880000Y-84980000D01*
X131681928Y-84980000D01*
X131694188Y-85104482D01*
X131730498Y-85224180D01*
X131789463Y-85334494D01*
X131868815Y-85431185D01*
X131965506Y-85510537D01*
X132075820Y-85569502D01*
X132195518Y-85605812D01*
X132320000Y-85618072D01*
X134134250Y-85615000D01*
X134293000Y-85456250D01*
X134293000Y-84232000D01*
X131843750Y-84232000D01*
X131685000Y-84390750D01*
X131681928Y-84980000D01*
X109880000Y-84980000D01*
X109880000Y-83230000D01*
X131681928Y-83230000D01*
X131685000Y-83819250D01*
X131843750Y-83978000D01*
X134293000Y-83978000D01*
X134293000Y-82753750D01*
X134134250Y-82595000D01*
X132320000Y-82591928D01*
X132195518Y-82604188D01*
X132075820Y-82640498D01*
X131965506Y-82699463D01*
X131868815Y-82778815D01*
X131789463Y-82875506D01*
X131730498Y-82985820D01*
X131694188Y-83105518D01*
X131681928Y-83230000D01*
X109880000Y-83230000D01*
X109880000Y-79330000D01*
X131681928Y-79330000D01*
X131694188Y-79454482D01*
X131730498Y-79574180D01*
X131789463Y-79684494D01*
X131868815Y-79781185D01*
X131965506Y-79860537D01*
X132075820Y-79919502D01*
X132195518Y-79955812D01*
X132320000Y-79968072D01*
X134134250Y-79965000D01*
X134293000Y-79806250D01*
X134293000Y-78582000D01*
X131843750Y-78582000D01*
X131685000Y-78740750D01*
X131681928Y-79330000D01*
X109880000Y-79330000D01*
X109880000Y-77998038D01*
X111674250Y-77995000D01*
X111833000Y-77836250D01*
X111833000Y-76612000D01*
X112087000Y-76612000D01*
X112087000Y-77836250D01*
X112245750Y-77995000D01*
X114060000Y-77998072D01*
X114184482Y-77985812D01*
X114304180Y-77949502D01*
X114414494Y-77890537D01*
X114511185Y-77811185D01*
X114590537Y-77714494D01*
X114649502Y-77604180D01*
X114656836Y-77580000D01*
X131681928Y-77580000D01*
X131685000Y-78169250D01*
X131843750Y-78328000D01*
X134293000Y-78328000D01*
X134293000Y-77103750D01*
X134134250Y-76945000D01*
X132320000Y-76941928D01*
X132195518Y-76954188D01*
X132075820Y-76990498D01*
X131965506Y-77049463D01*
X131868815Y-77128815D01*
X131789463Y-77225506D01*
X131730498Y-77335820D01*
X131694188Y-77455518D01*
X131681928Y-77580000D01*
X114656836Y-77580000D01*
X114685812Y-77484482D01*
X114698072Y-77360000D01*
X114695000Y-76770750D01*
X114536250Y-76612000D01*
X112087000Y-76612000D01*
X111833000Y-76612000D01*
X111813000Y-76612000D01*
X111813000Y-76358000D01*
X111833000Y-76358000D01*
X111833000Y-75133750D01*
X112087000Y-75133750D01*
X112087000Y-76358000D01*
X114536250Y-76358000D01*
X114695000Y-76199250D01*
X114698072Y-75610000D01*
X114685812Y-75485518D01*
X114649502Y-75365820D01*
X114590537Y-75255506D01*
X114511185Y-75158815D01*
X114414494Y-75079463D01*
X114304180Y-75020498D01*
X114184482Y-74984188D01*
X114060000Y-74971928D01*
X112245750Y-74975000D01*
X112087000Y-75133750D01*
X111833000Y-75133750D01*
X111674250Y-74975000D01*
X109880000Y-74971962D01*
X109880000Y-72348038D01*
X111674250Y-72345000D01*
X111833000Y-72186250D01*
X111833000Y-70962000D01*
X112087000Y-70962000D01*
X112087000Y-72186250D01*
X112245750Y-72345000D01*
X114060000Y-72348072D01*
X114184482Y-72335812D01*
X114304180Y-72299502D01*
X114414494Y-72240537D01*
X114511185Y-72161185D01*
X114590537Y-72064494D01*
X114649502Y-71954180D01*
X114685812Y-71834482D01*
X114698072Y-71710000D01*
X114695000Y-71120750D01*
X114536250Y-70962000D01*
X112087000Y-70962000D01*
X111833000Y-70962000D01*
X111813000Y-70962000D01*
X111813000Y-70708000D01*
X111833000Y-70708000D01*
X111833000Y-69483750D01*
X112087000Y-69483750D01*
X112087000Y-70708000D01*
X114536250Y-70708000D01*
X114695000Y-70549250D01*
X114698072Y-69960000D01*
X114685812Y-69835518D01*
X114656837Y-69740000D01*
X131681928Y-69740000D01*
X131694188Y-69864482D01*
X131730498Y-69984180D01*
X131789463Y-70094494D01*
X131868815Y-70191185D01*
X131965506Y-70270537D01*
X132075820Y-70329502D01*
X132195518Y-70365812D01*
X132320000Y-70378072D01*
X134134250Y-70375000D01*
X134293000Y-70216250D01*
X134293000Y-68992000D01*
X131843750Y-68992000D01*
X131685000Y-69150750D01*
X131681928Y-69740000D01*
X114656837Y-69740000D01*
X114649502Y-69715820D01*
X114590537Y-69605506D01*
X114511185Y-69508815D01*
X114414494Y-69429463D01*
X114304180Y-69370498D01*
X114184482Y-69334188D01*
X114060000Y-69321928D01*
X112245750Y-69325000D01*
X112087000Y-69483750D01*
X111833000Y-69483750D01*
X111674250Y-69325000D01*
X109880000Y-69321962D01*
X109880000Y-67990000D01*
X131681928Y-67990000D01*
X131685000Y-68579250D01*
X131843750Y-68738000D01*
X134293000Y-68738000D01*
X134293000Y-67513750D01*
X134134250Y-67355000D01*
X132320000Y-67351928D01*
X132195518Y-67364188D01*
X132075820Y-67400498D01*
X131965506Y-67459463D01*
X131868815Y-67538815D01*
X131789463Y-67635506D01*
X131730498Y-67745820D01*
X131694188Y-67865518D01*
X131681928Y-67990000D01*
X109880000Y-67990000D01*
X109880000Y-64090000D01*
X131681928Y-64090000D01*
X131694188Y-64214482D01*
X131730498Y-64334180D01*
X131789463Y-64444494D01*
X131868815Y-64541185D01*
X131965506Y-64620537D01*
X132075820Y-64679502D01*
X132195518Y-64715812D01*
X132320000Y-64728072D01*
X134134250Y-64725000D01*
X134293000Y-64566250D01*
X134293000Y-63342000D01*
X131843750Y-63342000D01*
X131685000Y-63500750D01*
X131681928Y-64090000D01*
X109880000Y-64090000D01*
X109880000Y-62340000D01*
X131681928Y-62340000D01*
X131685000Y-62929250D01*
X131843750Y-63088000D01*
X134293000Y-63088000D01*
X134293000Y-61863750D01*
X134134250Y-61705000D01*
X132320000Y-61701928D01*
X132195518Y-61714188D01*
X132075820Y-61750498D01*
X131965506Y-61809463D01*
X131868815Y-61888815D01*
X131789463Y-61985506D01*
X131730498Y-62095820D01*
X131694188Y-62215518D01*
X131681928Y-62340000D01*
X109880000Y-62340000D01*
X109880000Y-59080000D01*
X136500000Y-59080000D01*
X136500000Y-61701962D01*
%TA.AperFunction,Conductor*%
D13*
G36*
X136500000Y-61701962D02*
G01*
X134705750Y-61705000D01*
X134547000Y-61863750D01*
X134547000Y-63088000D01*
X134567000Y-63088000D01*
X134567000Y-63342000D01*
X134547000Y-63342000D01*
X134547000Y-64566250D01*
X134705750Y-64725000D01*
X136500000Y-64728038D01*
X136500000Y-67351962D01*
X134705750Y-67355000D01*
X134547000Y-67513750D01*
X134547000Y-68738000D01*
X134567000Y-68738000D01*
X134567000Y-68992000D01*
X134547000Y-68992000D01*
X134547000Y-70216250D01*
X134705750Y-70375000D01*
X136500000Y-70378038D01*
X136500001Y-76941962D01*
X134705750Y-76945000D01*
X134547000Y-77103750D01*
X134547000Y-78328000D01*
X134567000Y-78328000D01*
X134567000Y-78582000D01*
X134547000Y-78582000D01*
X134547000Y-79806250D01*
X134705750Y-79965000D01*
X136500001Y-79968038D01*
X136500001Y-82591962D01*
X134705750Y-82595000D01*
X134547000Y-82753750D01*
X134547000Y-83978000D01*
X134567000Y-83978000D01*
X134567000Y-84232000D01*
X134547000Y-84232000D01*
X134547000Y-85456250D01*
X134705750Y-85615000D01*
X136500001Y-85618038D01*
X136500001Y-88240000D01*
X109880000Y-88240000D01*
X109880000Y-84980000D01*
X131681928Y-84980000D01*
X131694188Y-85104482D01*
X131730498Y-85224180D01*
X131789463Y-85334494D01*
X131868815Y-85431185D01*
X131965506Y-85510537D01*
X132075820Y-85569502D01*
X132195518Y-85605812D01*
X132320000Y-85618072D01*
X134134250Y-85615000D01*
X134293000Y-85456250D01*
X134293000Y-84232000D01*
X131843750Y-84232000D01*
X131685000Y-84390750D01*
X131681928Y-84980000D01*
X109880000Y-84980000D01*
X109880000Y-83230000D01*
X131681928Y-83230000D01*
X131685000Y-83819250D01*
X131843750Y-83978000D01*
X134293000Y-83978000D01*
X134293000Y-82753750D01*
X134134250Y-82595000D01*
X132320000Y-82591928D01*
X132195518Y-82604188D01*
X132075820Y-82640498D01*
X131965506Y-82699463D01*
X131868815Y-82778815D01*
X131789463Y-82875506D01*
X131730498Y-82985820D01*
X131694188Y-83105518D01*
X131681928Y-83230000D01*
X109880000Y-83230000D01*
X109880000Y-79330000D01*
X131681928Y-79330000D01*
X131694188Y-79454482D01*
X131730498Y-79574180D01*
X131789463Y-79684494D01*
X131868815Y-79781185D01*
X131965506Y-79860537D01*
X132075820Y-79919502D01*
X132195518Y-79955812D01*
X132320000Y-79968072D01*
X134134250Y-79965000D01*
X134293000Y-79806250D01*
X134293000Y-78582000D01*
X131843750Y-78582000D01*
X131685000Y-78740750D01*
X131681928Y-79330000D01*
X109880000Y-79330000D01*
X109880000Y-77998038D01*
X111674250Y-77995000D01*
X111833000Y-77836250D01*
X111833000Y-76612000D01*
X112087000Y-76612000D01*
X112087000Y-77836250D01*
X112245750Y-77995000D01*
X114060000Y-77998072D01*
X114184482Y-77985812D01*
X114304180Y-77949502D01*
X114414494Y-77890537D01*
X114511185Y-77811185D01*
X114590537Y-77714494D01*
X114649502Y-77604180D01*
X114656836Y-77580000D01*
X131681928Y-77580000D01*
X131685000Y-78169250D01*
X131843750Y-78328000D01*
X134293000Y-78328000D01*
X134293000Y-77103750D01*
X134134250Y-76945000D01*
X132320000Y-76941928D01*
X132195518Y-76954188D01*
X132075820Y-76990498D01*
X131965506Y-77049463D01*
X131868815Y-77128815D01*
X131789463Y-77225506D01*
X131730498Y-77335820D01*
X131694188Y-77455518D01*
X131681928Y-77580000D01*
X114656836Y-77580000D01*
X114685812Y-77484482D01*
X114698072Y-77360000D01*
X114695000Y-76770750D01*
X114536250Y-76612000D01*
X112087000Y-76612000D01*
X111833000Y-76612000D01*
X111813000Y-76612000D01*
X111813000Y-76358000D01*
X111833000Y-76358000D01*
X111833000Y-75133750D01*
X112087000Y-75133750D01*
X112087000Y-76358000D01*
X114536250Y-76358000D01*
X114695000Y-76199250D01*
X114698072Y-75610000D01*
X114685812Y-75485518D01*
X114649502Y-75365820D01*
X114590537Y-75255506D01*
X114511185Y-75158815D01*
X114414494Y-75079463D01*
X114304180Y-75020498D01*
X114184482Y-74984188D01*
X114060000Y-74971928D01*
X112245750Y-74975000D01*
X112087000Y-75133750D01*
X111833000Y-75133750D01*
X111674250Y-74975000D01*
X109880000Y-74971962D01*
X109880000Y-72348038D01*
X111674250Y-72345000D01*
X111833000Y-72186250D01*
X111833000Y-70962000D01*
X112087000Y-70962000D01*
X112087000Y-72186250D01*
X112245750Y-72345000D01*
X114060000Y-72348072D01*
X114184482Y-72335812D01*
X114304180Y-72299502D01*
X114414494Y-72240537D01*
X114511185Y-72161185D01*
X114590537Y-72064494D01*
X114649502Y-71954180D01*
X114685812Y-71834482D01*
X114698072Y-71710000D01*
X114695000Y-71120750D01*
X114536250Y-70962000D01*
X112087000Y-70962000D01*
X111833000Y-70962000D01*
X111813000Y-70962000D01*
X111813000Y-70708000D01*
X111833000Y-70708000D01*
X111833000Y-69483750D01*
X112087000Y-69483750D01*
X112087000Y-70708000D01*
X114536250Y-70708000D01*
X114695000Y-70549250D01*
X114698072Y-69960000D01*
X114685812Y-69835518D01*
X114656837Y-69740000D01*
X131681928Y-69740000D01*
X131694188Y-69864482D01*
X131730498Y-69984180D01*
X131789463Y-70094494D01*
X131868815Y-70191185D01*
X131965506Y-70270537D01*
X132075820Y-70329502D01*
X132195518Y-70365812D01*
X132320000Y-70378072D01*
X134134250Y-70375000D01*
X134293000Y-70216250D01*
X134293000Y-68992000D01*
X131843750Y-68992000D01*
X131685000Y-69150750D01*
X131681928Y-69740000D01*
X114656837Y-69740000D01*
X114649502Y-69715820D01*
X114590537Y-69605506D01*
X114511185Y-69508815D01*
X114414494Y-69429463D01*
X114304180Y-69370498D01*
X114184482Y-69334188D01*
X114060000Y-69321928D01*
X112245750Y-69325000D01*
X112087000Y-69483750D01*
X111833000Y-69483750D01*
X111674250Y-69325000D01*
X109880000Y-69321962D01*
X109880000Y-67990000D01*
X131681928Y-67990000D01*
X131685000Y-68579250D01*
X131843750Y-68738000D01*
X134293000Y-68738000D01*
X134293000Y-67513750D01*
X134134250Y-67355000D01*
X132320000Y-67351928D01*
X132195518Y-67364188D01*
X132075820Y-67400498D01*
X131965506Y-67459463D01*
X131868815Y-67538815D01*
X131789463Y-67635506D01*
X131730498Y-67745820D01*
X131694188Y-67865518D01*
X131681928Y-67990000D01*
X109880000Y-67990000D01*
X109880000Y-64090000D01*
X131681928Y-64090000D01*
X131694188Y-64214482D01*
X131730498Y-64334180D01*
X131789463Y-64444494D01*
X131868815Y-64541185D01*
X131965506Y-64620537D01*
X132075820Y-64679502D01*
X132195518Y-64715812D01*
X132320000Y-64728072D01*
X134134250Y-64725000D01*
X134293000Y-64566250D01*
X134293000Y-63342000D01*
X131843750Y-63342000D01*
X131685000Y-63500750D01*
X131681928Y-64090000D01*
X109880000Y-64090000D01*
X109880000Y-62340000D01*
X131681928Y-62340000D01*
X131685000Y-62929250D01*
X131843750Y-63088000D01*
X134293000Y-63088000D01*
X134293000Y-61863750D01*
X134134250Y-61705000D01*
X132320000Y-61701928D01*
X132195518Y-61714188D01*
X132075820Y-61750498D01*
X131965506Y-61809463D01*
X131868815Y-61888815D01*
X131789463Y-61985506D01*
X131730498Y-62095820D01*
X131694188Y-62215518D01*
X131681928Y-62340000D01*
X109880000Y-62340000D01*
X109880000Y-59080000D01*
X136500000Y-59080000D01*
X136500000Y-61701962D01*
G37*
%TD.AperFunction*%
%TD*%
M02*
