%TF.GenerationSoftware,KiCad,Pcbnew,(5.1.9)-1*%
%TF.CreationDate,2021-03-17T18:50:59-04:00*%
%TF.ProjectId,PowerSplitter,506f7765-7253-4706-9c69-747465722e6b,rev?*%
%TF.SameCoordinates,Original*%
%TF.FileFunction,Legend,Top*%
%TF.FilePolarity,Positive*%
%FSLAX46Y46*%
G04 Gerber Fmt 4.6, Leading zero omitted, Abs format (unit mm)*
G04 Created by KiCad (PCBNEW (5.1.9)-1) date 2021-03-17 18:50:59*
%MOMM*%
%LPD*%
G01*
G04 APERTURE LIST*
%ADD10C,0.120000*%
%ADD11C,0.015000*%
%ADD12C,0.150000*%
G04 APERTURE END LIST*
D10*
%TO.C,C1*%
X122181252Y-74395000D02*
X121658748Y-74395000D01*
X122181252Y-72925000D02*
X121658748Y-72925000D01*
%TO.C,J3*%
D11*
X130402710Y-81954383D02*
X131116996Y-81954383D01*
X131259853Y-82002002D01*
X131355091Y-82097240D01*
X131402710Y-82240097D01*
X131402710Y-82335335D01*
X130402710Y-81573430D02*
X130402710Y-80954383D01*
X130783663Y-81287716D01*
X130783663Y-81144859D01*
X130831282Y-81049621D01*
X130878901Y-81002002D01*
X130974139Y-80954383D01*
X131212234Y-80954383D01*
X131307472Y-81002002D01*
X131355091Y-81049621D01*
X131402710Y-81144859D01*
X131402710Y-81430573D01*
X131355091Y-81525811D01*
X131307472Y-81573430D01*
%TO.C,J2*%
X130402710Y-66714383D02*
X131116996Y-66714383D01*
X131259853Y-66762002D01*
X131355091Y-66857240D01*
X131402710Y-67000097D01*
X131402710Y-67095335D01*
X130497949Y-66285811D02*
X130450330Y-66238192D01*
X130402710Y-66142954D01*
X130402710Y-65904859D01*
X130450330Y-65809621D01*
X130497949Y-65762002D01*
X130593187Y-65714383D01*
X130688425Y-65714383D01*
X130831282Y-65762002D01*
X131402710Y-66333430D01*
X131402710Y-65714383D01*
%TO.C,J1*%
X114882050Y-73652283D02*
X115596336Y-73652283D01*
X115739193Y-73699902D01*
X115834431Y-73795140D01*
X115882050Y-73937997D01*
X115882050Y-74033235D01*
X115882050Y-72652283D02*
X115882050Y-73223711D01*
X115882050Y-72937997D02*
X114882050Y-72937997D01*
X115024908Y-73033235D01*
X115120146Y-73128473D01*
X115167765Y-73223711D01*
%TO.C,C1*%
D12*
X121753333Y-75697142D02*
X121705714Y-75744761D01*
X121562857Y-75792380D01*
X121467619Y-75792380D01*
X121324761Y-75744761D01*
X121229523Y-75649523D01*
X121181904Y-75554285D01*
X121134285Y-75363809D01*
X121134285Y-75220952D01*
X121181904Y-75030476D01*
X121229523Y-74935238D01*
X121324761Y-74840000D01*
X121467619Y-74792380D01*
X121562857Y-74792380D01*
X121705714Y-74840000D01*
X121753333Y-74887619D01*
X122705714Y-75792380D02*
X122134285Y-75792380D01*
X122420000Y-75792380D02*
X122420000Y-74792380D01*
X122324761Y-74935238D01*
X122229523Y-75030476D01*
X122134285Y-75078095D01*
%TD*%
M02*
