M48
; DRILL file {KiCad (5.1.9)-1} date 03/17/21 18:51:00
; FORMAT={-:-/ absolute / inch / decimal}
; #@! TF.CreationDate,2021-03-17T18:51:00-04:00
; #@! TF.GenerationSoftware,Kicad,Pcbnew,(5.1.9)-1
; #@! TF.FileFunction,Plated,1,2,PTH
FMAT,2
INCH
T1C0.0157
%
G90
G05
T1
X4.357Y-2.3817
X4.357Y-2.5392
X4.357Y-3.1297
X4.357Y-3.2872
X4.357Y-3.4447
X4.3964Y-2.6573
X4.4358Y-2.4604
X4.4358Y-3.2085
X4.4358Y-3.3659
X4.4751Y-2.5785
X4.5145Y-2.3817
X4.5145Y-3.1297
X4.5145Y-3.2872
X4.5145Y-3.4447
X4.5539Y-2.4998
X4.5539Y-2.6573
X4.5539Y-2.8148
X4.5539Y-2.9722
X4.5933Y-3.2085
X4.5933Y-3.3659
X4.6326Y-2.4211
X4.6326Y-2.5785
X4.6326Y-2.736
X4.6326Y-3.051
X4.672Y-3.2872
X4.672Y-3.4447
X4.7114Y-2.4998
X4.7114Y-2.6573
X4.7114Y-2.8148
X4.7114Y-2.9722
X4.7114Y-3.1297
X4.7507Y-2.3817
X4.7507Y-3.3659
X4.7901Y-2.5785
X4.7901Y-2.736
X4.7901Y-3.051
X4.7901Y-3.2085
X4.8295Y-2.4604
X4.8295Y-3.4447
X4.8688Y-2.6573
X4.8688Y-3.1297
X4.8688Y-3.2872
X4.9082Y-2.3817
X4.9082Y-2.5392
X4.9476Y-3.2085
X4.9476Y-3.3659
X4.987Y-2.4604
X4.987Y-2.6179
X4.987Y-2.8935
X5.0263Y-3.2872
X5.0657Y-2.3817
X5.0657Y-2.5392
X5.0657Y-2.8148
X5.0657Y-2.9722
X5.0657Y-3.4053
X5.1444Y-2.4604
X5.1444Y-2.736
X5.1444Y-2.8935
X5.1444Y-3.051
X5.1444Y-3.3266
X5.1838Y-3.4447
X5.2232Y-2.3817
X5.2232Y-2.8148
X5.2232Y-2.9722
X5.3019Y-2.8935
X5.3413Y-3.4447
T0
M30
