%TF.GenerationSoftware,KiCad,Pcbnew,(5.1.9)-1*%
%TF.CreationDate,2021-01-21T16:18:04-05:00*%
%TF.ProjectId,LNA_1,4c4e415f-312e-46b6-9963-61645f706362,rev?*%
%TF.SameCoordinates,Original*%
%TF.FileFunction,Copper,L2,Bot*%
%TF.FilePolarity,Positive*%
%FSLAX46Y46*%
G04 Gerber Fmt 4.6, Leading zero omitted, Abs format (unit mm)*
G04 Created by KiCad (PCBNEW (5.1.9)-1) date 2021-01-21 16:18:04*
%MOMM*%
%LPD*%
G01*
G04 APERTURE LIST*
%TA.AperFunction,SMDPad,CuDef*%
%ADD10R,4.200000X1.350000*%
%TD*%
%TA.AperFunction,ViaPad*%
%ADD11C,0.800000*%
%TD*%
%TA.AperFunction,ViaPad*%
%ADD12C,1.500000*%
%TD*%
%TA.AperFunction,Conductor*%
%ADD13C,0.254000*%
%TD*%
%TA.AperFunction,Conductor*%
%ADD14C,0.100000*%
%TD*%
G04 APERTURE END LIST*
D10*
%TO.P,J1,2_2*%
%TO.N,GND*%
X83385000Y-65755000D03*
%TO.P,J1,3_2*%
X83385000Y-71405000D03*
%TD*%
%TO.P,J2,3_2*%
%TO.N,GND*%
X136960000Y-58135000D03*
%TO.P,J2,2_2*%
X136960000Y-63785000D03*
%TD*%
D11*
%TO.N,GND*%
X136398000Y-68872000D03*
X134888000Y-68872000D03*
X134888000Y-66078000D03*
X136398000Y-67348000D03*
X136398000Y-66078000D03*
X134888000Y-67348000D03*
X130824000Y-70142000D03*
X129300000Y-70142000D03*
X132348000Y-70142000D03*
X133872000Y-70142000D03*
X135382000Y-70142000D03*
X125768000Y-74154000D03*
X125768000Y-75678000D03*
X125768000Y-72630000D03*
X125768000Y-71106000D03*
X125768000Y-69836000D03*
X129300000Y-71412000D03*
X130824000Y-71412000D03*
X133872000Y-71412000D03*
X132348000Y-71412000D03*
X135382000Y-71412000D03*
X127216000Y-72644000D03*
X127216000Y-75706000D03*
X127216000Y-71120000D03*
X127216000Y-74168000D03*
X127216000Y-69864000D03*
D12*
X125082000Y-59260000D03*
D11*
X129286000Y-78740000D03*
X130810000Y-78740000D03*
X120650000Y-59944000D03*
X122174000Y-59944000D03*
X122174000Y-58420000D03*
X120650000Y-58420000D03*
X122682000Y-77216000D03*
X127254000Y-77216000D03*
X121158000Y-78740000D03*
X125730000Y-78740000D03*
X124206000Y-77216000D03*
X124206000Y-78740000D03*
X127254000Y-78740000D03*
X122682000Y-78740000D03*
X121158000Y-77216000D03*
X125730000Y-77216000D03*
X89408000Y-70612000D03*
X90932000Y-70612000D03*
X89408000Y-72136000D03*
X90932000Y-72136000D03*
X88392000Y-62992000D03*
X88392000Y-61468000D03*
X89916000Y-66040000D03*
X88392000Y-66040000D03*
X89916000Y-61468000D03*
X89916000Y-64516000D03*
X88392000Y-64516000D03*
X89916000Y-62992000D03*
X116586000Y-75692000D03*
X116586000Y-77216000D03*
X115062000Y-77216000D03*
X113538000Y-74168000D03*
X116586000Y-74168000D03*
X115062000Y-74168000D03*
X113538000Y-77216000D03*
X113538000Y-75692000D03*
X115062000Y-75692000D03*
X115062000Y-78740000D03*
X116586000Y-78740000D03*
X113538000Y-78740000D03*
X113030000Y-59944000D03*
X119126000Y-58420000D03*
X117602000Y-58420000D03*
X113030000Y-58420000D03*
X116078000Y-59944000D03*
X116078000Y-58420000D03*
X114554000Y-59944000D03*
X114554000Y-58420000D03*
X119126000Y-59944000D03*
X117602000Y-59944000D03*
X107442000Y-70104000D03*
X112014000Y-71628000D03*
X105918000Y-71628000D03*
X105918000Y-70104000D03*
X116586000Y-70104000D03*
X115062000Y-70104000D03*
X108966000Y-70104000D03*
X112014000Y-70104000D03*
X110490000Y-70104000D03*
X113538000Y-70104000D03*
X108966000Y-71628000D03*
X107442000Y-71628000D03*
X110490000Y-71628000D03*
X115062000Y-71628000D03*
X116586000Y-71628000D03*
X113538000Y-71628000D03*
X89916000Y-75692000D03*
X89916000Y-74168000D03*
X97282000Y-70612000D03*
X98806000Y-70612000D03*
X92710000Y-72136000D03*
X94234000Y-72136000D03*
X94234000Y-70612000D03*
X95758000Y-72136000D03*
X95758000Y-70612000D03*
X92710000Y-70612000D03*
X98806000Y-72136000D03*
X97282000Y-72136000D03*
X89916000Y-78740000D03*
X89916000Y-77216000D03*
X129286000Y-72644000D03*
X130810000Y-72644000D03*
X132334000Y-72644000D03*
X133858000Y-72644000D03*
X129286000Y-74168000D03*
X130810000Y-74168000D03*
X132334000Y-74168000D03*
X133858000Y-74168000D03*
X129286000Y-75692000D03*
X130810000Y-75692000D03*
X135382000Y-72644000D03*
X135382000Y-74168000D03*
X129286000Y-77216000D03*
X130810000Y-77216000D03*
D12*
X122682000Y-74930000D03*
X103251000Y-78740000D03*
X107061000Y-78740000D03*
X110871000Y-78740000D03*
X94996000Y-78740000D03*
X99441000Y-78740000D03*
X90106500Y-59055000D03*
%TO.N,VCC*%
X92202000Y-59055000D03*
%TD*%
D13*
%TO.N,GND*%
X138222596Y-55449407D02*
X138298091Y-55540664D01*
X138334034Y-55607142D01*
X138331125Y-56823162D01*
X137245750Y-56825000D01*
X137087000Y-56983750D01*
X137087000Y-58008000D01*
X137107000Y-58008000D01*
X137107000Y-58262000D01*
X137087000Y-58262000D01*
X137087000Y-59286250D01*
X137245750Y-59445000D01*
X138324849Y-59446827D01*
X138317609Y-62473185D01*
X137245750Y-62475000D01*
X137087000Y-62633750D01*
X137087000Y-63658000D01*
X137107000Y-63658000D01*
X137107000Y-63912000D01*
X137087000Y-63912000D01*
X137087000Y-64936250D01*
X137245750Y-65095000D01*
X138311332Y-65096804D01*
X138271729Y-81651028D01*
X138225594Y-81707595D01*
X138205159Y-81724500D01*
X82139456Y-81724500D01*
X82122405Y-81710594D01*
X82046909Y-81619335D01*
X81990581Y-81515160D01*
X81955560Y-81402024D01*
X81940000Y-81253979D01*
X81940000Y-78290495D01*
X84121000Y-78290495D01*
X84121000Y-78681505D01*
X84197282Y-79065003D01*
X84346915Y-79426250D01*
X84564149Y-79751364D01*
X84840636Y-80027851D01*
X85165750Y-80245085D01*
X85526997Y-80394718D01*
X85910495Y-80471000D01*
X86301505Y-80471000D01*
X86685003Y-80394718D01*
X87046250Y-80245085D01*
X87371364Y-80027851D01*
X87647851Y-79751364D01*
X87865085Y-79426250D01*
X88014718Y-79065003D01*
X88091000Y-78681505D01*
X88091000Y-78290495D01*
X88015215Y-77909495D01*
X132635000Y-77909495D01*
X132635000Y-78300505D01*
X132711282Y-78684003D01*
X132860915Y-79045250D01*
X133078149Y-79370364D01*
X133354636Y-79646851D01*
X133679750Y-79864085D01*
X134040997Y-80013718D01*
X134424495Y-80090000D01*
X134815505Y-80090000D01*
X135199003Y-80013718D01*
X135560250Y-79864085D01*
X135885364Y-79646851D01*
X136161851Y-79370364D01*
X136379085Y-79045250D01*
X136528718Y-78684003D01*
X136605000Y-78300505D01*
X136605000Y-77909495D01*
X136528718Y-77525997D01*
X136379085Y-77164750D01*
X136161851Y-76839636D01*
X135885364Y-76563149D01*
X135560250Y-76345915D01*
X135199003Y-76196282D01*
X134815505Y-76120000D01*
X134424495Y-76120000D01*
X134040997Y-76196282D01*
X133679750Y-76345915D01*
X133354636Y-76563149D01*
X133078149Y-76839636D01*
X132860915Y-77164750D01*
X132711282Y-77525997D01*
X132635000Y-77909495D01*
X88015215Y-77909495D01*
X88014718Y-77906997D01*
X87865085Y-77545750D01*
X87647851Y-77220636D01*
X87371364Y-76944149D01*
X87046250Y-76726915D01*
X86685003Y-76577282D01*
X86301505Y-76501000D01*
X85910495Y-76501000D01*
X85526997Y-76577282D01*
X85165750Y-76726915D01*
X84840636Y-76944149D01*
X84564149Y-77220636D01*
X84346915Y-77545750D01*
X84197282Y-77906997D01*
X84121000Y-78290495D01*
X81940000Y-78290495D01*
X81940000Y-72716963D01*
X83099250Y-72715000D01*
X83258000Y-72556250D01*
X83258000Y-71532000D01*
X83512000Y-71532000D01*
X83512000Y-72556250D01*
X83670750Y-72715000D01*
X85485000Y-72718072D01*
X85609482Y-72705812D01*
X85729180Y-72669502D01*
X85839494Y-72610537D01*
X85936185Y-72531185D01*
X86015537Y-72434494D01*
X86074502Y-72324180D01*
X86110812Y-72204482D01*
X86123072Y-72080000D01*
X86120000Y-71690750D01*
X85961250Y-71532000D01*
X83512000Y-71532000D01*
X83258000Y-71532000D01*
X83238000Y-71532000D01*
X83238000Y-71278000D01*
X83258000Y-71278000D01*
X83258000Y-70253750D01*
X83512000Y-70253750D01*
X83512000Y-71278000D01*
X85961250Y-71278000D01*
X86120000Y-71119250D01*
X86123072Y-70730000D01*
X86110812Y-70605518D01*
X86074502Y-70485820D01*
X86015537Y-70375506D01*
X85936185Y-70278815D01*
X85839494Y-70199463D01*
X85729180Y-70140498D01*
X85609482Y-70104188D01*
X85485000Y-70091928D01*
X83670750Y-70095000D01*
X83512000Y-70253750D01*
X83258000Y-70253750D01*
X83099250Y-70095000D01*
X81940000Y-70093037D01*
X81940000Y-67066963D01*
X83099250Y-67065000D01*
X83258000Y-66906250D01*
X83258000Y-65882000D01*
X83512000Y-65882000D01*
X83512000Y-66906250D01*
X83670750Y-67065000D01*
X85485000Y-67068072D01*
X85609482Y-67055812D01*
X85729180Y-67019502D01*
X85839494Y-66960537D01*
X85936185Y-66881185D01*
X86015537Y-66784494D01*
X86074502Y-66674180D01*
X86110812Y-66554482D01*
X86123072Y-66430000D01*
X86120000Y-66040750D01*
X85961250Y-65882000D01*
X83512000Y-65882000D01*
X83258000Y-65882000D01*
X83238000Y-65882000D01*
X83238000Y-65628000D01*
X83258000Y-65628000D01*
X83258000Y-64603750D01*
X83512000Y-64603750D01*
X83512000Y-65628000D01*
X85961250Y-65628000D01*
X86120000Y-65469250D01*
X86123072Y-65080000D01*
X86110812Y-64955518D01*
X86074502Y-64835820D01*
X86015537Y-64725506D01*
X85936185Y-64628815D01*
X85839494Y-64549463D01*
X85729180Y-64490498D01*
X85628642Y-64460000D01*
X134221928Y-64460000D01*
X134234188Y-64584482D01*
X134270498Y-64704180D01*
X134329463Y-64814494D01*
X134408815Y-64911185D01*
X134505506Y-64990537D01*
X134615820Y-65049502D01*
X134735518Y-65085812D01*
X134860000Y-65098072D01*
X136674250Y-65095000D01*
X136833000Y-64936250D01*
X136833000Y-63912000D01*
X134383750Y-63912000D01*
X134225000Y-64070750D01*
X134221928Y-64460000D01*
X85628642Y-64460000D01*
X85609482Y-64454188D01*
X85485000Y-64441928D01*
X83670750Y-64445000D01*
X83512000Y-64603750D01*
X83258000Y-64603750D01*
X83099250Y-64445000D01*
X81940000Y-64443037D01*
X81940000Y-63110000D01*
X134221928Y-63110000D01*
X134225000Y-63499250D01*
X134383750Y-63658000D01*
X136833000Y-63658000D01*
X136833000Y-62633750D01*
X136674250Y-62475000D01*
X134860000Y-62471928D01*
X134735518Y-62484188D01*
X134615820Y-62520498D01*
X134505506Y-62579463D01*
X134408815Y-62658815D01*
X134329463Y-62755506D01*
X134270498Y-62865820D01*
X134234188Y-62985518D01*
X134221928Y-63110000D01*
X81940000Y-63110000D01*
X81940000Y-58130361D01*
X81941597Y-57462495D01*
X84121000Y-57462495D01*
X84121000Y-57853505D01*
X84197282Y-58237003D01*
X84346915Y-58598250D01*
X84564149Y-58923364D01*
X84840636Y-59199851D01*
X85165750Y-59417085D01*
X85526997Y-59566718D01*
X85910495Y-59643000D01*
X86301505Y-59643000D01*
X86685003Y-59566718D01*
X87046250Y-59417085D01*
X87371364Y-59199851D01*
X87647851Y-58923364D01*
X87651041Y-58918589D01*
X90817000Y-58918589D01*
X90817000Y-59191411D01*
X90870225Y-59458989D01*
X90974629Y-59711043D01*
X91126201Y-59937886D01*
X91319114Y-60130799D01*
X91545957Y-60282371D01*
X91798011Y-60386775D01*
X92065589Y-60440000D01*
X92338411Y-60440000D01*
X92605989Y-60386775D01*
X92858043Y-60282371D01*
X93084886Y-60130799D01*
X93277799Y-59937886D01*
X93429371Y-59711043D01*
X93533775Y-59458989D01*
X93587000Y-59191411D01*
X93587000Y-58918589D01*
X93565401Y-58810000D01*
X134221928Y-58810000D01*
X134234188Y-58934482D01*
X134270498Y-59054180D01*
X134329463Y-59164494D01*
X134408815Y-59261185D01*
X134505506Y-59340537D01*
X134615820Y-59399502D01*
X134735518Y-59435812D01*
X134860000Y-59448072D01*
X136674250Y-59445000D01*
X136833000Y-59286250D01*
X136833000Y-58262000D01*
X134383750Y-58262000D01*
X134225000Y-58420750D01*
X134221928Y-58810000D01*
X93565401Y-58810000D01*
X93533775Y-58651011D01*
X93429371Y-58398957D01*
X93277799Y-58172114D01*
X93084886Y-57979201D01*
X92858043Y-57827629D01*
X92605989Y-57723225D01*
X92338411Y-57670000D01*
X92065589Y-57670000D01*
X91798011Y-57723225D01*
X91545957Y-57827629D01*
X91319114Y-57979201D01*
X91126201Y-58172114D01*
X90974629Y-58398957D01*
X90870225Y-58651011D01*
X90817000Y-58918589D01*
X87651041Y-58918589D01*
X87865085Y-58598250D01*
X88014718Y-58237003D01*
X88091000Y-57853505D01*
X88091000Y-57462495D01*
X88090504Y-57460000D01*
X134221928Y-57460000D01*
X134225000Y-57849250D01*
X134383750Y-58008000D01*
X136833000Y-58008000D01*
X136833000Y-56983750D01*
X136674250Y-56825000D01*
X134860000Y-56821928D01*
X134735518Y-56834188D01*
X134615820Y-56870498D01*
X134505506Y-56929463D01*
X134408815Y-57008815D01*
X134329463Y-57105506D01*
X134270498Y-57215820D01*
X134234188Y-57335518D01*
X134221928Y-57460000D01*
X88090504Y-57460000D01*
X88014718Y-57078997D01*
X87865085Y-56717750D01*
X87647851Y-56392636D01*
X87371364Y-56116149D01*
X87046250Y-55898915D01*
X86685003Y-55749282D01*
X86301505Y-55673000D01*
X85910495Y-55673000D01*
X85526997Y-55749282D01*
X85165750Y-55898915D01*
X84840636Y-56116149D01*
X84564149Y-56392636D01*
X84346915Y-56717750D01*
X84197282Y-57078997D01*
X84121000Y-57462495D01*
X81941597Y-57462495D01*
X81945439Y-55856806D01*
X81954722Y-55762131D01*
X81988953Y-55648754D01*
X82044555Y-55544181D01*
X82119407Y-55452404D01*
X82139840Y-55435500D01*
X138205544Y-55435500D01*
X138222596Y-55449407D01*
%TA.AperFunction,Conductor*%
D14*
G36*
X138222596Y-55449407D02*
G01*
X138298091Y-55540664D01*
X138334034Y-55607142D01*
X138331125Y-56823162D01*
X137245750Y-56825000D01*
X137087000Y-56983750D01*
X137087000Y-58008000D01*
X137107000Y-58008000D01*
X137107000Y-58262000D01*
X137087000Y-58262000D01*
X137087000Y-59286250D01*
X137245750Y-59445000D01*
X138324849Y-59446827D01*
X138317609Y-62473185D01*
X137245750Y-62475000D01*
X137087000Y-62633750D01*
X137087000Y-63658000D01*
X137107000Y-63658000D01*
X137107000Y-63912000D01*
X137087000Y-63912000D01*
X137087000Y-64936250D01*
X137245750Y-65095000D01*
X138311332Y-65096804D01*
X138271729Y-81651028D01*
X138225594Y-81707595D01*
X138205159Y-81724500D01*
X82139456Y-81724500D01*
X82122405Y-81710594D01*
X82046909Y-81619335D01*
X81990581Y-81515160D01*
X81955560Y-81402024D01*
X81940000Y-81253979D01*
X81940000Y-78290495D01*
X84121000Y-78290495D01*
X84121000Y-78681505D01*
X84197282Y-79065003D01*
X84346915Y-79426250D01*
X84564149Y-79751364D01*
X84840636Y-80027851D01*
X85165750Y-80245085D01*
X85526997Y-80394718D01*
X85910495Y-80471000D01*
X86301505Y-80471000D01*
X86685003Y-80394718D01*
X87046250Y-80245085D01*
X87371364Y-80027851D01*
X87647851Y-79751364D01*
X87865085Y-79426250D01*
X88014718Y-79065003D01*
X88091000Y-78681505D01*
X88091000Y-78290495D01*
X88015215Y-77909495D01*
X132635000Y-77909495D01*
X132635000Y-78300505D01*
X132711282Y-78684003D01*
X132860915Y-79045250D01*
X133078149Y-79370364D01*
X133354636Y-79646851D01*
X133679750Y-79864085D01*
X134040997Y-80013718D01*
X134424495Y-80090000D01*
X134815505Y-80090000D01*
X135199003Y-80013718D01*
X135560250Y-79864085D01*
X135885364Y-79646851D01*
X136161851Y-79370364D01*
X136379085Y-79045250D01*
X136528718Y-78684003D01*
X136605000Y-78300505D01*
X136605000Y-77909495D01*
X136528718Y-77525997D01*
X136379085Y-77164750D01*
X136161851Y-76839636D01*
X135885364Y-76563149D01*
X135560250Y-76345915D01*
X135199003Y-76196282D01*
X134815505Y-76120000D01*
X134424495Y-76120000D01*
X134040997Y-76196282D01*
X133679750Y-76345915D01*
X133354636Y-76563149D01*
X133078149Y-76839636D01*
X132860915Y-77164750D01*
X132711282Y-77525997D01*
X132635000Y-77909495D01*
X88015215Y-77909495D01*
X88014718Y-77906997D01*
X87865085Y-77545750D01*
X87647851Y-77220636D01*
X87371364Y-76944149D01*
X87046250Y-76726915D01*
X86685003Y-76577282D01*
X86301505Y-76501000D01*
X85910495Y-76501000D01*
X85526997Y-76577282D01*
X85165750Y-76726915D01*
X84840636Y-76944149D01*
X84564149Y-77220636D01*
X84346915Y-77545750D01*
X84197282Y-77906997D01*
X84121000Y-78290495D01*
X81940000Y-78290495D01*
X81940000Y-72716963D01*
X83099250Y-72715000D01*
X83258000Y-72556250D01*
X83258000Y-71532000D01*
X83512000Y-71532000D01*
X83512000Y-72556250D01*
X83670750Y-72715000D01*
X85485000Y-72718072D01*
X85609482Y-72705812D01*
X85729180Y-72669502D01*
X85839494Y-72610537D01*
X85936185Y-72531185D01*
X86015537Y-72434494D01*
X86074502Y-72324180D01*
X86110812Y-72204482D01*
X86123072Y-72080000D01*
X86120000Y-71690750D01*
X85961250Y-71532000D01*
X83512000Y-71532000D01*
X83258000Y-71532000D01*
X83238000Y-71532000D01*
X83238000Y-71278000D01*
X83258000Y-71278000D01*
X83258000Y-70253750D01*
X83512000Y-70253750D01*
X83512000Y-71278000D01*
X85961250Y-71278000D01*
X86120000Y-71119250D01*
X86123072Y-70730000D01*
X86110812Y-70605518D01*
X86074502Y-70485820D01*
X86015537Y-70375506D01*
X85936185Y-70278815D01*
X85839494Y-70199463D01*
X85729180Y-70140498D01*
X85609482Y-70104188D01*
X85485000Y-70091928D01*
X83670750Y-70095000D01*
X83512000Y-70253750D01*
X83258000Y-70253750D01*
X83099250Y-70095000D01*
X81940000Y-70093037D01*
X81940000Y-67066963D01*
X83099250Y-67065000D01*
X83258000Y-66906250D01*
X83258000Y-65882000D01*
X83512000Y-65882000D01*
X83512000Y-66906250D01*
X83670750Y-67065000D01*
X85485000Y-67068072D01*
X85609482Y-67055812D01*
X85729180Y-67019502D01*
X85839494Y-66960537D01*
X85936185Y-66881185D01*
X86015537Y-66784494D01*
X86074502Y-66674180D01*
X86110812Y-66554482D01*
X86123072Y-66430000D01*
X86120000Y-66040750D01*
X85961250Y-65882000D01*
X83512000Y-65882000D01*
X83258000Y-65882000D01*
X83238000Y-65882000D01*
X83238000Y-65628000D01*
X83258000Y-65628000D01*
X83258000Y-64603750D01*
X83512000Y-64603750D01*
X83512000Y-65628000D01*
X85961250Y-65628000D01*
X86120000Y-65469250D01*
X86123072Y-65080000D01*
X86110812Y-64955518D01*
X86074502Y-64835820D01*
X86015537Y-64725506D01*
X85936185Y-64628815D01*
X85839494Y-64549463D01*
X85729180Y-64490498D01*
X85628642Y-64460000D01*
X134221928Y-64460000D01*
X134234188Y-64584482D01*
X134270498Y-64704180D01*
X134329463Y-64814494D01*
X134408815Y-64911185D01*
X134505506Y-64990537D01*
X134615820Y-65049502D01*
X134735518Y-65085812D01*
X134860000Y-65098072D01*
X136674250Y-65095000D01*
X136833000Y-64936250D01*
X136833000Y-63912000D01*
X134383750Y-63912000D01*
X134225000Y-64070750D01*
X134221928Y-64460000D01*
X85628642Y-64460000D01*
X85609482Y-64454188D01*
X85485000Y-64441928D01*
X83670750Y-64445000D01*
X83512000Y-64603750D01*
X83258000Y-64603750D01*
X83099250Y-64445000D01*
X81940000Y-64443037D01*
X81940000Y-63110000D01*
X134221928Y-63110000D01*
X134225000Y-63499250D01*
X134383750Y-63658000D01*
X136833000Y-63658000D01*
X136833000Y-62633750D01*
X136674250Y-62475000D01*
X134860000Y-62471928D01*
X134735518Y-62484188D01*
X134615820Y-62520498D01*
X134505506Y-62579463D01*
X134408815Y-62658815D01*
X134329463Y-62755506D01*
X134270498Y-62865820D01*
X134234188Y-62985518D01*
X134221928Y-63110000D01*
X81940000Y-63110000D01*
X81940000Y-58130361D01*
X81941597Y-57462495D01*
X84121000Y-57462495D01*
X84121000Y-57853505D01*
X84197282Y-58237003D01*
X84346915Y-58598250D01*
X84564149Y-58923364D01*
X84840636Y-59199851D01*
X85165750Y-59417085D01*
X85526997Y-59566718D01*
X85910495Y-59643000D01*
X86301505Y-59643000D01*
X86685003Y-59566718D01*
X87046250Y-59417085D01*
X87371364Y-59199851D01*
X87647851Y-58923364D01*
X87651041Y-58918589D01*
X90817000Y-58918589D01*
X90817000Y-59191411D01*
X90870225Y-59458989D01*
X90974629Y-59711043D01*
X91126201Y-59937886D01*
X91319114Y-60130799D01*
X91545957Y-60282371D01*
X91798011Y-60386775D01*
X92065589Y-60440000D01*
X92338411Y-60440000D01*
X92605989Y-60386775D01*
X92858043Y-60282371D01*
X93084886Y-60130799D01*
X93277799Y-59937886D01*
X93429371Y-59711043D01*
X93533775Y-59458989D01*
X93587000Y-59191411D01*
X93587000Y-58918589D01*
X93565401Y-58810000D01*
X134221928Y-58810000D01*
X134234188Y-58934482D01*
X134270498Y-59054180D01*
X134329463Y-59164494D01*
X134408815Y-59261185D01*
X134505506Y-59340537D01*
X134615820Y-59399502D01*
X134735518Y-59435812D01*
X134860000Y-59448072D01*
X136674250Y-59445000D01*
X136833000Y-59286250D01*
X136833000Y-58262000D01*
X134383750Y-58262000D01*
X134225000Y-58420750D01*
X134221928Y-58810000D01*
X93565401Y-58810000D01*
X93533775Y-58651011D01*
X93429371Y-58398957D01*
X93277799Y-58172114D01*
X93084886Y-57979201D01*
X92858043Y-57827629D01*
X92605989Y-57723225D01*
X92338411Y-57670000D01*
X92065589Y-57670000D01*
X91798011Y-57723225D01*
X91545957Y-57827629D01*
X91319114Y-57979201D01*
X91126201Y-58172114D01*
X90974629Y-58398957D01*
X90870225Y-58651011D01*
X90817000Y-58918589D01*
X87651041Y-58918589D01*
X87865085Y-58598250D01*
X88014718Y-58237003D01*
X88091000Y-57853505D01*
X88091000Y-57462495D01*
X88090504Y-57460000D01*
X134221928Y-57460000D01*
X134225000Y-57849250D01*
X134383750Y-58008000D01*
X136833000Y-58008000D01*
X136833000Y-56983750D01*
X136674250Y-56825000D01*
X134860000Y-56821928D01*
X134735518Y-56834188D01*
X134615820Y-56870498D01*
X134505506Y-56929463D01*
X134408815Y-57008815D01*
X134329463Y-57105506D01*
X134270498Y-57215820D01*
X134234188Y-57335518D01*
X134221928Y-57460000D01*
X88090504Y-57460000D01*
X88014718Y-57078997D01*
X87865085Y-56717750D01*
X87647851Y-56392636D01*
X87371364Y-56116149D01*
X87046250Y-55898915D01*
X86685003Y-55749282D01*
X86301505Y-55673000D01*
X85910495Y-55673000D01*
X85526997Y-55749282D01*
X85165750Y-55898915D01*
X84840636Y-56116149D01*
X84564149Y-56392636D01*
X84346915Y-56717750D01*
X84197282Y-57078997D01*
X84121000Y-57462495D01*
X81941597Y-57462495D01*
X81945439Y-55856806D01*
X81954722Y-55762131D01*
X81988953Y-55648754D01*
X82044555Y-55544181D01*
X82119407Y-55452404D01*
X82139840Y-55435500D01*
X138205544Y-55435500D01*
X138222596Y-55449407D01*
G37*
%TD.AperFunction*%
%TD*%
M02*
