%TF.GenerationSoftware,KiCad,Pcbnew,(5.1.9)-1*%
%TF.CreationDate,2021-01-26T13:47:22-05:00*%
%TF.ProjectId,LNA_1,4c4e415f-312e-46b6-9963-61645f706362,rev?*%
%TF.SameCoordinates,Original*%
%TF.FileFunction,Copper,L2,Bot*%
%TF.FilePolarity,Positive*%
%FSLAX46Y46*%
G04 Gerber Fmt 4.6, Leading zero omitted, Abs format (unit mm)*
G04 Created by KiCad (PCBNEW (5.1.9)-1) date 2021-01-26 13:47:22*
%MOMM*%
%LPD*%
G01*
G04 APERTURE LIST*
%TA.AperFunction,SMDPad,CuDef*%
%ADD10R,4.200000X1.350000*%
%TD*%
%TA.AperFunction,ComponentPad*%
%ADD11R,3.500000X3.500000*%
%TD*%
%TA.AperFunction,ViaPad*%
%ADD12C,0.800000*%
%TD*%
%TA.AperFunction,Conductor*%
%ADD13C,0.254000*%
%TD*%
%TA.AperFunction,Conductor*%
%ADD14C,0.100000*%
%TD*%
G04 APERTURE END LIST*
D10*
%TO.P,J2,3_2*%
%TO.N,GND*%
X138738000Y-58135000D03*
%TO.P,J2,2_2*%
X138738000Y-63785000D03*
%TD*%
%TO.P,J1,3_2*%
%TO.N,GND*%
X83512000Y-71405000D03*
%TO.P,J1,2_2*%
X83512000Y-65755000D03*
%TD*%
%TO.P,J3,3*%
%TO.N,N/C*%
%TA.AperFunction,ComponentPad*%
G36*
G01*
X107709000Y-53924000D02*
X109459000Y-53924000D01*
G75*
G02*
X110334000Y-54799000I0J-875000D01*
G01*
X110334000Y-56549000D01*
G75*
G02*
X109459000Y-57424000I-875000J0D01*
G01*
X107709000Y-57424000D01*
G75*
G02*
X106834000Y-56549000I0J875000D01*
G01*
X106834000Y-54799000D01*
G75*
G02*
X107709000Y-53924000I875000J0D01*
G01*
G37*
%TD.AperFunction*%
%TO.P,J3,2*%
%TO.N,GND*%
%TA.AperFunction,ComponentPad*%
G36*
G01*
X112284000Y-51174000D02*
X114284000Y-51174000D01*
G75*
G02*
X115034000Y-51924000I0J-750000D01*
G01*
X115034000Y-53424000D01*
G75*
G02*
X114284000Y-54174000I-750000J0D01*
G01*
X112284000Y-54174000D01*
G75*
G02*
X111534000Y-53424000I0J750000D01*
G01*
X111534000Y-51924000D01*
G75*
G02*
X112284000Y-51174000I750000J0D01*
G01*
G37*
%TD.AperFunction*%
D11*
%TO.P,J3,1*%
%TO.N,VCC*%
X113284000Y-58674000D03*
%TD*%
D12*
%TO.N,GND*%
X137541000Y-63754000D03*
X138811000Y-63754000D03*
X139954000Y-63754000D03*
X140081000Y-58166000D03*
X138811000Y-58166000D03*
X137541000Y-58166000D03*
X84836000Y-65659000D03*
X83693000Y-65659000D03*
X82550000Y-65659000D03*
X84963000Y-71374000D03*
X83820000Y-71374000D03*
X82677000Y-71374000D03*
X83554999Y-52160905D03*
X83554999Y-60160905D03*
X83554999Y-76160905D03*
X85554999Y-53160905D03*
X85554999Y-61160905D03*
X87554999Y-52160905D03*
X87554999Y-55160905D03*
X87554999Y-59160905D03*
X88554999Y-57160905D03*
X88554999Y-61160905D03*
X88554999Y-71160905D03*
X88554999Y-74160905D03*
X89554999Y-53160905D03*
X89554999Y-63160905D03*
X89554999Y-66160905D03*
X89554999Y-76160905D03*
X89554999Y-79160905D03*
X90554999Y-55160905D03*
X90554999Y-58160905D03*
X90554999Y-72160905D03*
X91554999Y-52160905D03*
X91554999Y-60160905D03*
X91554999Y-70160905D03*
X91554999Y-74160905D03*
X91554999Y-77160905D03*
X91554999Y-80160905D03*
X92554999Y-54160905D03*
X92554999Y-57160905D03*
X93554999Y-59160905D03*
X93554999Y-71160905D03*
X93554999Y-78160905D03*
X94554999Y-52160905D03*
X94554999Y-55160905D03*
X94554999Y-65160905D03*
X94554999Y-80160905D03*
X95554999Y-57160905D03*
X95554999Y-67160905D03*
X95554999Y-70160905D03*
X96554999Y-53160905D03*
X96554999Y-72160905D03*
X96554999Y-78160905D03*
X97554999Y-55160905D03*
X97554999Y-80160905D03*
X98554999Y-52160905D03*
X98554999Y-57160905D03*
X98554999Y-70160905D03*
X99554999Y-54160905D03*
X99554999Y-62160905D03*
X99695000Y-64770000D03*
X99554999Y-72160905D03*
X100554999Y-56160905D03*
X101092000Y-64897000D03*
X100554999Y-80160905D03*
X101554999Y-52160905D03*
X101219000Y-63160905D03*
X102554999Y-54160905D03*
X102554999Y-57160905D03*
X103554999Y-80160905D03*
X104554999Y-52160905D03*
X104554999Y-55160905D03*
X104554999Y-72160905D03*
X104554999Y-78160905D03*
X106554999Y-70160905D03*
X106554999Y-80160905D03*
X107554999Y-52160905D03*
X107554999Y-64160905D03*
X107554999Y-72160905D03*
X108966000Y-61214000D03*
X108554999Y-69160905D03*
X108554999Y-78160905D03*
X109554999Y-65160905D03*
X109554999Y-71160905D03*
X109554999Y-80160905D03*
X111554999Y-64160905D03*
X111554999Y-69160905D03*
X111554999Y-72160905D03*
X112554999Y-74160905D03*
X112554999Y-77160905D03*
X112554999Y-80160905D03*
X113554999Y-70160905D03*
X114554999Y-72160905D03*
X114554999Y-75160905D03*
X114554999Y-78160905D03*
X115554999Y-69160905D03*
X115554999Y-80160905D03*
X116554999Y-71160905D03*
X116554999Y-74160905D03*
X116554999Y-77160905D03*
X117554999Y-52160905D03*
X117554999Y-55160905D03*
X116713000Y-61341000D03*
X117554999Y-64160905D03*
X117554999Y-79160905D03*
X118554999Y-69160905D03*
X118554999Y-72160905D03*
X118554999Y-75160905D03*
X119554999Y-53160905D03*
X119554999Y-56160905D03*
X119554999Y-59160905D03*
X119554999Y-65160905D03*
X119554999Y-77160905D03*
X119554999Y-80160905D03*
X120554999Y-70160905D03*
X120554999Y-73160905D03*
X121554999Y-52160905D03*
X121554999Y-55160905D03*
X121554999Y-58160905D03*
X121554999Y-64160905D03*
X121554999Y-76160905D03*
X121554999Y-79160905D03*
X123554999Y-53160905D03*
X123554999Y-56160905D03*
X123554999Y-77160905D03*
X123554999Y-80160905D03*
X124554999Y-72160905D03*
X124554999Y-75160905D03*
X125554999Y-52160905D03*
X125554999Y-55160905D03*
X125554999Y-58160905D03*
X125554999Y-78160905D03*
X125349000Y-69342000D03*
X126554999Y-73160905D03*
X126554999Y-76160905D03*
X126554999Y-80160905D03*
X127554999Y-53160905D03*
X127554999Y-56160905D03*
X127554999Y-59160905D03*
X128554999Y-71160905D03*
X128554999Y-74160905D03*
X128554999Y-77160905D03*
X129554999Y-52160905D03*
X129554999Y-55160905D03*
X129554999Y-58160905D03*
X129554999Y-79160905D03*
X130554999Y-69160905D03*
X130554999Y-72160905D03*
X130554999Y-75160905D03*
X131554999Y-53160905D03*
X131554999Y-56160905D03*
X131554999Y-77160905D03*
X131554999Y-80160905D03*
X132554999Y-70160905D03*
X132554999Y-73160905D03*
X133554999Y-52160905D03*
X133554999Y-55160905D03*
X133554999Y-58160905D03*
X133554999Y-75160905D03*
X134554999Y-66160905D03*
X134554999Y-69160905D03*
X134554999Y-72160905D03*
X135554999Y-53160905D03*
X135554999Y-74160905D03*
X136554999Y-68160905D03*
X136554999Y-71160905D03*
X137554999Y-52160905D03*
X137554999Y-73160905D03*
X137554999Y-76160905D03*
X137554999Y-79160905D03*
X138554999Y-69160905D03*
X83220550Y-62414876D03*
X83220550Y-74414876D03*
X83220550Y-78414876D03*
X85220550Y-63414876D03*
X86220550Y-74414876D03*
X87220550Y-64414876D03*
X101220550Y-78414876D03*
X105220550Y-57414876D03*
X117220550Y-57414876D03*
X134747000Y-64008000D03*
X136220550Y-55414876D03*
X137220550Y-66414876D03*
X138220550Y-54414876D03*
X139220550Y-67414876D03*
X139220550Y-71414876D03*
X83220550Y-80414876D03*
X87220550Y-66414876D03*
X107220550Y-59414876D03*
X117220550Y-59414876D03*
X119220550Y-61414876D03*
X126220550Y-61414876D03*
X128143000Y-69342000D03*
X126492000Y-71120000D03*
%TD*%
D13*
%TO.N,GND*%
X140035819Y-50421555D02*
X140127596Y-50496407D01*
X140203091Y-50587664D01*
X140259419Y-50691844D01*
X140294440Y-50804976D01*
X140310001Y-50953031D01*
X140310001Y-56822822D01*
X139023750Y-56825000D01*
X138865000Y-56983750D01*
X138865000Y-58008000D01*
X138885000Y-58008000D01*
X138885000Y-58262000D01*
X138865000Y-58262000D01*
X138865000Y-59286250D01*
X139023750Y-59445000D01*
X140310001Y-59447178D01*
X140310001Y-62472822D01*
X139023750Y-62475000D01*
X138865000Y-62633750D01*
X138865000Y-63658000D01*
X138885000Y-63658000D01*
X138885000Y-63912000D01*
X138865000Y-63912000D01*
X138865000Y-64936250D01*
X139023750Y-65095000D01*
X140310001Y-65097178D01*
X140310001Y-69764623D01*
X140178485Y-81648875D01*
X140130594Y-81707595D01*
X140110159Y-81724500D01*
X82139456Y-81724500D01*
X82122405Y-81710594D01*
X82046909Y-81619335D01*
X81990581Y-81515160D01*
X81955560Y-81402024D01*
X81940000Y-81253979D01*
X81940000Y-78290495D01*
X84121000Y-78290495D01*
X84121000Y-78681505D01*
X84197282Y-79065003D01*
X84346915Y-79426250D01*
X84564149Y-79751364D01*
X84840636Y-80027851D01*
X85165750Y-80245085D01*
X85526997Y-80394718D01*
X85910495Y-80471000D01*
X86301505Y-80471000D01*
X86685003Y-80394718D01*
X87046250Y-80245085D01*
X87371364Y-80027851D01*
X87647851Y-79751364D01*
X87865085Y-79426250D01*
X88014718Y-79065003D01*
X88091000Y-78681505D01*
X88091000Y-78290495D01*
X88015215Y-77909495D01*
X132635000Y-77909495D01*
X132635000Y-78300505D01*
X132711282Y-78684003D01*
X132860915Y-79045250D01*
X133078149Y-79370364D01*
X133354636Y-79646851D01*
X133679750Y-79864085D01*
X134040997Y-80013718D01*
X134424495Y-80090000D01*
X134815505Y-80090000D01*
X135199003Y-80013718D01*
X135560250Y-79864085D01*
X135885364Y-79646851D01*
X136161851Y-79370364D01*
X136379085Y-79045250D01*
X136528718Y-78684003D01*
X136605000Y-78300505D01*
X136605000Y-77909495D01*
X136528718Y-77525997D01*
X136379085Y-77164750D01*
X136161851Y-76839636D01*
X135885364Y-76563149D01*
X135560250Y-76345915D01*
X135199003Y-76196282D01*
X134815505Y-76120000D01*
X134424495Y-76120000D01*
X134040997Y-76196282D01*
X133679750Y-76345915D01*
X133354636Y-76563149D01*
X133078149Y-76839636D01*
X132860915Y-77164750D01*
X132711282Y-77525997D01*
X132635000Y-77909495D01*
X88015215Y-77909495D01*
X88014718Y-77906997D01*
X87865085Y-77545750D01*
X87647851Y-77220636D01*
X87371364Y-76944149D01*
X87046250Y-76726915D01*
X86685003Y-76577282D01*
X86301505Y-76501000D01*
X85910495Y-76501000D01*
X85526997Y-76577282D01*
X85165750Y-76726915D01*
X84840636Y-76944149D01*
X84564149Y-77220636D01*
X84346915Y-77545750D01*
X84197282Y-77906997D01*
X84121000Y-78290495D01*
X81940000Y-78290495D01*
X81940000Y-76724046D01*
X81984342Y-72717103D01*
X83226250Y-72715000D01*
X83385000Y-72556250D01*
X83385000Y-71532000D01*
X83639000Y-71532000D01*
X83639000Y-72556250D01*
X83797750Y-72715000D01*
X85612000Y-72718072D01*
X85736482Y-72705812D01*
X85856180Y-72669502D01*
X85966494Y-72610537D01*
X86063185Y-72531185D01*
X86142537Y-72434494D01*
X86201502Y-72324180D01*
X86237812Y-72204482D01*
X86250072Y-72080000D01*
X86247000Y-71690750D01*
X86088250Y-71532000D01*
X83639000Y-71532000D01*
X83385000Y-71532000D01*
X83365000Y-71532000D01*
X83365000Y-71278000D01*
X83385000Y-71278000D01*
X83385000Y-70253750D01*
X83639000Y-70253750D01*
X83639000Y-71278000D01*
X86088250Y-71278000D01*
X86247000Y-71119250D01*
X86250072Y-70730000D01*
X86237812Y-70605518D01*
X86201502Y-70485820D01*
X86142537Y-70375506D01*
X86063185Y-70278815D01*
X85966494Y-70199463D01*
X85856180Y-70140498D01*
X85736482Y-70104188D01*
X85612000Y-70091928D01*
X83797750Y-70095000D01*
X83639000Y-70253750D01*
X83385000Y-70253750D01*
X83226250Y-70095000D01*
X82013382Y-70092946D01*
X82046869Y-67066997D01*
X83226250Y-67065000D01*
X83385000Y-66906250D01*
X83385000Y-65882000D01*
X83639000Y-65882000D01*
X83639000Y-66906250D01*
X83797750Y-67065000D01*
X85612000Y-67068072D01*
X85736482Y-67055812D01*
X85856180Y-67019502D01*
X85966494Y-66960537D01*
X86063185Y-66881185D01*
X86142537Y-66784494D01*
X86201502Y-66674180D01*
X86237812Y-66554482D01*
X86250072Y-66430000D01*
X86247000Y-66040750D01*
X86088250Y-65882000D01*
X83639000Y-65882000D01*
X83385000Y-65882000D01*
X83365000Y-65882000D01*
X83365000Y-65628000D01*
X83385000Y-65628000D01*
X83385000Y-64603750D01*
X83639000Y-64603750D01*
X83639000Y-65628000D01*
X86088250Y-65628000D01*
X86247000Y-65469250D01*
X86250072Y-65080000D01*
X86237812Y-64955518D01*
X86201502Y-64835820D01*
X86142537Y-64725506D01*
X86063185Y-64628815D01*
X85966494Y-64549463D01*
X85856180Y-64490498D01*
X85755642Y-64460000D01*
X135999928Y-64460000D01*
X136012188Y-64584482D01*
X136048498Y-64704180D01*
X136107463Y-64814494D01*
X136186815Y-64911185D01*
X136283506Y-64990537D01*
X136393820Y-65049502D01*
X136513518Y-65085812D01*
X136638000Y-65098072D01*
X138452250Y-65095000D01*
X138611000Y-64936250D01*
X138611000Y-63912000D01*
X136161750Y-63912000D01*
X136003000Y-64070750D01*
X135999928Y-64460000D01*
X85755642Y-64460000D01*
X85736482Y-64454188D01*
X85612000Y-64441928D01*
X83797750Y-64445000D01*
X83639000Y-64603750D01*
X83385000Y-64603750D01*
X83226250Y-64445000D01*
X82075906Y-64443052D01*
X82090658Y-63110000D01*
X135999928Y-63110000D01*
X136003000Y-63499250D01*
X136161750Y-63658000D01*
X138611000Y-63658000D01*
X138611000Y-62633750D01*
X138452250Y-62475000D01*
X136638000Y-62471928D01*
X136513518Y-62484188D01*
X136393820Y-62520498D01*
X136283506Y-62579463D01*
X136186815Y-62658815D01*
X136107463Y-62755506D01*
X136048498Y-62865820D01*
X136012188Y-62985518D01*
X135999928Y-63110000D01*
X82090658Y-63110000D01*
X82161588Y-56700495D01*
X82851000Y-56700495D01*
X82851000Y-57091505D01*
X82927282Y-57475003D01*
X83076915Y-57836250D01*
X83294149Y-58161364D01*
X83570636Y-58437851D01*
X83895750Y-58655085D01*
X84256997Y-58804718D01*
X84640495Y-58881000D01*
X85031505Y-58881000D01*
X85415003Y-58804718D01*
X85776250Y-58655085D01*
X86101364Y-58437851D01*
X86377851Y-58161364D01*
X86595085Y-57836250D01*
X86744718Y-57475003D01*
X86821000Y-57091505D01*
X86821000Y-56700495D01*
X86744718Y-56316997D01*
X86595085Y-55955750D01*
X86377851Y-55630636D01*
X86101364Y-55354149D01*
X85776250Y-55136915D01*
X85415003Y-54987282D01*
X85031505Y-54911000D01*
X84640495Y-54911000D01*
X84256997Y-54987282D01*
X83895750Y-55136915D01*
X83570636Y-55354149D01*
X83294149Y-55630636D01*
X83076915Y-55955750D01*
X82927282Y-56316997D01*
X82851000Y-56700495D01*
X82161588Y-56700495D01*
X82182630Y-54799000D01*
X106195928Y-54799000D01*
X106195928Y-56549000D01*
X106225001Y-56844186D01*
X106311104Y-57128028D01*
X106450927Y-57389618D01*
X106639097Y-57618903D01*
X106868382Y-57807073D01*
X107129972Y-57946896D01*
X107413814Y-58032999D01*
X107709000Y-58062072D01*
X109459000Y-58062072D01*
X109754186Y-58032999D01*
X110038028Y-57946896D01*
X110299618Y-57807073D01*
X110528903Y-57618903D01*
X110717073Y-57389618D01*
X110856896Y-57128028D01*
X110895928Y-56999357D01*
X110895928Y-60424000D01*
X110908188Y-60548482D01*
X110944498Y-60668180D01*
X111003463Y-60778494D01*
X111082815Y-60875185D01*
X111179506Y-60954537D01*
X111289820Y-61013502D01*
X111409518Y-61049812D01*
X111534000Y-61062072D01*
X115034000Y-61062072D01*
X115158482Y-61049812D01*
X115278180Y-61013502D01*
X115388494Y-60954537D01*
X115485185Y-60875185D01*
X115564537Y-60778494D01*
X115623502Y-60668180D01*
X115659812Y-60548482D01*
X115672072Y-60424000D01*
X115672072Y-58810000D01*
X135999928Y-58810000D01*
X136012188Y-58934482D01*
X136048498Y-59054180D01*
X136107463Y-59164494D01*
X136186815Y-59261185D01*
X136283506Y-59340537D01*
X136393820Y-59399502D01*
X136513518Y-59435812D01*
X136638000Y-59448072D01*
X138452250Y-59445000D01*
X138611000Y-59286250D01*
X138611000Y-58262000D01*
X136161750Y-58262000D01*
X136003000Y-58420750D01*
X135999928Y-58810000D01*
X115672072Y-58810000D01*
X115672072Y-57460000D01*
X135999928Y-57460000D01*
X136003000Y-57849250D01*
X136161750Y-58008000D01*
X138611000Y-58008000D01*
X138611000Y-56983750D01*
X138452250Y-56825000D01*
X136638000Y-56821928D01*
X136513518Y-56834188D01*
X136393820Y-56870498D01*
X136283506Y-56929463D01*
X136186815Y-57008815D01*
X136107463Y-57105506D01*
X136048498Y-57215820D01*
X136012188Y-57335518D01*
X135999928Y-57460000D01*
X115672072Y-57460000D01*
X115672072Y-56924000D01*
X115659812Y-56799518D01*
X115623502Y-56679820D01*
X115564537Y-56569506D01*
X115485185Y-56472815D01*
X115388494Y-56393463D01*
X115278180Y-56334498D01*
X115158482Y-56298188D01*
X115034000Y-56285928D01*
X111534000Y-56285928D01*
X111409518Y-56298188D01*
X111289820Y-56334498D01*
X111179506Y-56393463D01*
X111082815Y-56472815D01*
X111003463Y-56569506D01*
X110962506Y-56646131D01*
X110972072Y-56549000D01*
X110972072Y-54799000D01*
X110942999Y-54503814D01*
X110856896Y-54219972D01*
X110832324Y-54174000D01*
X110895928Y-54174000D01*
X110908188Y-54298482D01*
X110944498Y-54418180D01*
X111003463Y-54528494D01*
X111082815Y-54625185D01*
X111179506Y-54704537D01*
X111289820Y-54763502D01*
X111409518Y-54799812D01*
X111534000Y-54812072D01*
X112998250Y-54809000D01*
X113157000Y-54650250D01*
X113157000Y-52801000D01*
X113411000Y-52801000D01*
X113411000Y-54650250D01*
X113569750Y-54809000D01*
X115034000Y-54812072D01*
X115158482Y-54799812D01*
X115278180Y-54763502D01*
X115388494Y-54704537D01*
X115485185Y-54625185D01*
X115564537Y-54528494D01*
X115623502Y-54418180D01*
X115659812Y-54298482D01*
X115672072Y-54174000D01*
X115669000Y-52959750D01*
X115510250Y-52801000D01*
X113411000Y-52801000D01*
X113157000Y-52801000D01*
X111057750Y-52801000D01*
X110899000Y-52959750D01*
X110895928Y-54174000D01*
X110832324Y-54174000D01*
X110717073Y-53958382D01*
X110528903Y-53729097D01*
X110299618Y-53540927D01*
X110038028Y-53401104D01*
X109754186Y-53315001D01*
X109459000Y-53285928D01*
X107709000Y-53285928D01*
X107413814Y-53315001D01*
X107129972Y-53401104D01*
X106868382Y-53540927D01*
X106639097Y-53729097D01*
X106450927Y-53958382D01*
X106311104Y-54219972D01*
X106225001Y-54503814D01*
X106195928Y-54799000D01*
X82182630Y-54799000D01*
X82222746Y-51174000D01*
X110895928Y-51174000D01*
X110899000Y-52388250D01*
X111057750Y-52547000D01*
X113157000Y-52547000D01*
X113157000Y-50697750D01*
X113411000Y-50697750D01*
X113411000Y-52547000D01*
X115510250Y-52547000D01*
X115669000Y-52388250D01*
X115672072Y-51174000D01*
X115659812Y-51049518D01*
X115623502Y-50929820D01*
X115564537Y-50819506D01*
X115485185Y-50722815D01*
X115388494Y-50643463D01*
X115278180Y-50584498D01*
X115158482Y-50548188D01*
X115034000Y-50535928D01*
X113569750Y-50539000D01*
X113411000Y-50697750D01*
X113157000Y-50697750D01*
X112998250Y-50539000D01*
X111534000Y-50535928D01*
X111409518Y-50548188D01*
X111289820Y-50584498D01*
X111179506Y-50643463D01*
X111082815Y-50722815D01*
X111003463Y-50819506D01*
X110944498Y-50929820D01*
X110908188Y-51049518D01*
X110895928Y-51174000D01*
X82222746Y-51174000D01*
X82231102Y-50419000D01*
X140031014Y-50419000D01*
X140035819Y-50421555D01*
%TA.AperFunction,Conductor*%
D14*
G36*
X140035819Y-50421555D02*
G01*
X140127596Y-50496407D01*
X140203091Y-50587664D01*
X140259419Y-50691844D01*
X140294440Y-50804976D01*
X140310001Y-50953031D01*
X140310001Y-56822822D01*
X139023750Y-56825000D01*
X138865000Y-56983750D01*
X138865000Y-58008000D01*
X138885000Y-58008000D01*
X138885000Y-58262000D01*
X138865000Y-58262000D01*
X138865000Y-59286250D01*
X139023750Y-59445000D01*
X140310001Y-59447178D01*
X140310001Y-62472822D01*
X139023750Y-62475000D01*
X138865000Y-62633750D01*
X138865000Y-63658000D01*
X138885000Y-63658000D01*
X138885000Y-63912000D01*
X138865000Y-63912000D01*
X138865000Y-64936250D01*
X139023750Y-65095000D01*
X140310001Y-65097178D01*
X140310001Y-69764623D01*
X140178485Y-81648875D01*
X140130594Y-81707595D01*
X140110159Y-81724500D01*
X82139456Y-81724500D01*
X82122405Y-81710594D01*
X82046909Y-81619335D01*
X81990581Y-81515160D01*
X81955560Y-81402024D01*
X81940000Y-81253979D01*
X81940000Y-78290495D01*
X84121000Y-78290495D01*
X84121000Y-78681505D01*
X84197282Y-79065003D01*
X84346915Y-79426250D01*
X84564149Y-79751364D01*
X84840636Y-80027851D01*
X85165750Y-80245085D01*
X85526997Y-80394718D01*
X85910495Y-80471000D01*
X86301505Y-80471000D01*
X86685003Y-80394718D01*
X87046250Y-80245085D01*
X87371364Y-80027851D01*
X87647851Y-79751364D01*
X87865085Y-79426250D01*
X88014718Y-79065003D01*
X88091000Y-78681505D01*
X88091000Y-78290495D01*
X88015215Y-77909495D01*
X132635000Y-77909495D01*
X132635000Y-78300505D01*
X132711282Y-78684003D01*
X132860915Y-79045250D01*
X133078149Y-79370364D01*
X133354636Y-79646851D01*
X133679750Y-79864085D01*
X134040997Y-80013718D01*
X134424495Y-80090000D01*
X134815505Y-80090000D01*
X135199003Y-80013718D01*
X135560250Y-79864085D01*
X135885364Y-79646851D01*
X136161851Y-79370364D01*
X136379085Y-79045250D01*
X136528718Y-78684003D01*
X136605000Y-78300505D01*
X136605000Y-77909495D01*
X136528718Y-77525997D01*
X136379085Y-77164750D01*
X136161851Y-76839636D01*
X135885364Y-76563149D01*
X135560250Y-76345915D01*
X135199003Y-76196282D01*
X134815505Y-76120000D01*
X134424495Y-76120000D01*
X134040997Y-76196282D01*
X133679750Y-76345915D01*
X133354636Y-76563149D01*
X133078149Y-76839636D01*
X132860915Y-77164750D01*
X132711282Y-77525997D01*
X132635000Y-77909495D01*
X88015215Y-77909495D01*
X88014718Y-77906997D01*
X87865085Y-77545750D01*
X87647851Y-77220636D01*
X87371364Y-76944149D01*
X87046250Y-76726915D01*
X86685003Y-76577282D01*
X86301505Y-76501000D01*
X85910495Y-76501000D01*
X85526997Y-76577282D01*
X85165750Y-76726915D01*
X84840636Y-76944149D01*
X84564149Y-77220636D01*
X84346915Y-77545750D01*
X84197282Y-77906997D01*
X84121000Y-78290495D01*
X81940000Y-78290495D01*
X81940000Y-76724046D01*
X81984342Y-72717103D01*
X83226250Y-72715000D01*
X83385000Y-72556250D01*
X83385000Y-71532000D01*
X83639000Y-71532000D01*
X83639000Y-72556250D01*
X83797750Y-72715000D01*
X85612000Y-72718072D01*
X85736482Y-72705812D01*
X85856180Y-72669502D01*
X85966494Y-72610537D01*
X86063185Y-72531185D01*
X86142537Y-72434494D01*
X86201502Y-72324180D01*
X86237812Y-72204482D01*
X86250072Y-72080000D01*
X86247000Y-71690750D01*
X86088250Y-71532000D01*
X83639000Y-71532000D01*
X83385000Y-71532000D01*
X83365000Y-71532000D01*
X83365000Y-71278000D01*
X83385000Y-71278000D01*
X83385000Y-70253750D01*
X83639000Y-70253750D01*
X83639000Y-71278000D01*
X86088250Y-71278000D01*
X86247000Y-71119250D01*
X86250072Y-70730000D01*
X86237812Y-70605518D01*
X86201502Y-70485820D01*
X86142537Y-70375506D01*
X86063185Y-70278815D01*
X85966494Y-70199463D01*
X85856180Y-70140498D01*
X85736482Y-70104188D01*
X85612000Y-70091928D01*
X83797750Y-70095000D01*
X83639000Y-70253750D01*
X83385000Y-70253750D01*
X83226250Y-70095000D01*
X82013382Y-70092946D01*
X82046869Y-67066997D01*
X83226250Y-67065000D01*
X83385000Y-66906250D01*
X83385000Y-65882000D01*
X83639000Y-65882000D01*
X83639000Y-66906250D01*
X83797750Y-67065000D01*
X85612000Y-67068072D01*
X85736482Y-67055812D01*
X85856180Y-67019502D01*
X85966494Y-66960537D01*
X86063185Y-66881185D01*
X86142537Y-66784494D01*
X86201502Y-66674180D01*
X86237812Y-66554482D01*
X86250072Y-66430000D01*
X86247000Y-66040750D01*
X86088250Y-65882000D01*
X83639000Y-65882000D01*
X83385000Y-65882000D01*
X83365000Y-65882000D01*
X83365000Y-65628000D01*
X83385000Y-65628000D01*
X83385000Y-64603750D01*
X83639000Y-64603750D01*
X83639000Y-65628000D01*
X86088250Y-65628000D01*
X86247000Y-65469250D01*
X86250072Y-65080000D01*
X86237812Y-64955518D01*
X86201502Y-64835820D01*
X86142537Y-64725506D01*
X86063185Y-64628815D01*
X85966494Y-64549463D01*
X85856180Y-64490498D01*
X85755642Y-64460000D01*
X135999928Y-64460000D01*
X136012188Y-64584482D01*
X136048498Y-64704180D01*
X136107463Y-64814494D01*
X136186815Y-64911185D01*
X136283506Y-64990537D01*
X136393820Y-65049502D01*
X136513518Y-65085812D01*
X136638000Y-65098072D01*
X138452250Y-65095000D01*
X138611000Y-64936250D01*
X138611000Y-63912000D01*
X136161750Y-63912000D01*
X136003000Y-64070750D01*
X135999928Y-64460000D01*
X85755642Y-64460000D01*
X85736482Y-64454188D01*
X85612000Y-64441928D01*
X83797750Y-64445000D01*
X83639000Y-64603750D01*
X83385000Y-64603750D01*
X83226250Y-64445000D01*
X82075906Y-64443052D01*
X82090658Y-63110000D01*
X135999928Y-63110000D01*
X136003000Y-63499250D01*
X136161750Y-63658000D01*
X138611000Y-63658000D01*
X138611000Y-62633750D01*
X138452250Y-62475000D01*
X136638000Y-62471928D01*
X136513518Y-62484188D01*
X136393820Y-62520498D01*
X136283506Y-62579463D01*
X136186815Y-62658815D01*
X136107463Y-62755506D01*
X136048498Y-62865820D01*
X136012188Y-62985518D01*
X135999928Y-63110000D01*
X82090658Y-63110000D01*
X82161588Y-56700495D01*
X82851000Y-56700495D01*
X82851000Y-57091505D01*
X82927282Y-57475003D01*
X83076915Y-57836250D01*
X83294149Y-58161364D01*
X83570636Y-58437851D01*
X83895750Y-58655085D01*
X84256997Y-58804718D01*
X84640495Y-58881000D01*
X85031505Y-58881000D01*
X85415003Y-58804718D01*
X85776250Y-58655085D01*
X86101364Y-58437851D01*
X86377851Y-58161364D01*
X86595085Y-57836250D01*
X86744718Y-57475003D01*
X86821000Y-57091505D01*
X86821000Y-56700495D01*
X86744718Y-56316997D01*
X86595085Y-55955750D01*
X86377851Y-55630636D01*
X86101364Y-55354149D01*
X85776250Y-55136915D01*
X85415003Y-54987282D01*
X85031505Y-54911000D01*
X84640495Y-54911000D01*
X84256997Y-54987282D01*
X83895750Y-55136915D01*
X83570636Y-55354149D01*
X83294149Y-55630636D01*
X83076915Y-55955750D01*
X82927282Y-56316997D01*
X82851000Y-56700495D01*
X82161588Y-56700495D01*
X82182630Y-54799000D01*
X106195928Y-54799000D01*
X106195928Y-56549000D01*
X106225001Y-56844186D01*
X106311104Y-57128028D01*
X106450927Y-57389618D01*
X106639097Y-57618903D01*
X106868382Y-57807073D01*
X107129972Y-57946896D01*
X107413814Y-58032999D01*
X107709000Y-58062072D01*
X109459000Y-58062072D01*
X109754186Y-58032999D01*
X110038028Y-57946896D01*
X110299618Y-57807073D01*
X110528903Y-57618903D01*
X110717073Y-57389618D01*
X110856896Y-57128028D01*
X110895928Y-56999357D01*
X110895928Y-60424000D01*
X110908188Y-60548482D01*
X110944498Y-60668180D01*
X111003463Y-60778494D01*
X111082815Y-60875185D01*
X111179506Y-60954537D01*
X111289820Y-61013502D01*
X111409518Y-61049812D01*
X111534000Y-61062072D01*
X115034000Y-61062072D01*
X115158482Y-61049812D01*
X115278180Y-61013502D01*
X115388494Y-60954537D01*
X115485185Y-60875185D01*
X115564537Y-60778494D01*
X115623502Y-60668180D01*
X115659812Y-60548482D01*
X115672072Y-60424000D01*
X115672072Y-58810000D01*
X135999928Y-58810000D01*
X136012188Y-58934482D01*
X136048498Y-59054180D01*
X136107463Y-59164494D01*
X136186815Y-59261185D01*
X136283506Y-59340537D01*
X136393820Y-59399502D01*
X136513518Y-59435812D01*
X136638000Y-59448072D01*
X138452250Y-59445000D01*
X138611000Y-59286250D01*
X138611000Y-58262000D01*
X136161750Y-58262000D01*
X136003000Y-58420750D01*
X135999928Y-58810000D01*
X115672072Y-58810000D01*
X115672072Y-57460000D01*
X135999928Y-57460000D01*
X136003000Y-57849250D01*
X136161750Y-58008000D01*
X138611000Y-58008000D01*
X138611000Y-56983750D01*
X138452250Y-56825000D01*
X136638000Y-56821928D01*
X136513518Y-56834188D01*
X136393820Y-56870498D01*
X136283506Y-56929463D01*
X136186815Y-57008815D01*
X136107463Y-57105506D01*
X136048498Y-57215820D01*
X136012188Y-57335518D01*
X135999928Y-57460000D01*
X115672072Y-57460000D01*
X115672072Y-56924000D01*
X115659812Y-56799518D01*
X115623502Y-56679820D01*
X115564537Y-56569506D01*
X115485185Y-56472815D01*
X115388494Y-56393463D01*
X115278180Y-56334498D01*
X115158482Y-56298188D01*
X115034000Y-56285928D01*
X111534000Y-56285928D01*
X111409518Y-56298188D01*
X111289820Y-56334498D01*
X111179506Y-56393463D01*
X111082815Y-56472815D01*
X111003463Y-56569506D01*
X110962506Y-56646131D01*
X110972072Y-56549000D01*
X110972072Y-54799000D01*
X110942999Y-54503814D01*
X110856896Y-54219972D01*
X110832324Y-54174000D01*
X110895928Y-54174000D01*
X110908188Y-54298482D01*
X110944498Y-54418180D01*
X111003463Y-54528494D01*
X111082815Y-54625185D01*
X111179506Y-54704537D01*
X111289820Y-54763502D01*
X111409518Y-54799812D01*
X111534000Y-54812072D01*
X112998250Y-54809000D01*
X113157000Y-54650250D01*
X113157000Y-52801000D01*
X113411000Y-52801000D01*
X113411000Y-54650250D01*
X113569750Y-54809000D01*
X115034000Y-54812072D01*
X115158482Y-54799812D01*
X115278180Y-54763502D01*
X115388494Y-54704537D01*
X115485185Y-54625185D01*
X115564537Y-54528494D01*
X115623502Y-54418180D01*
X115659812Y-54298482D01*
X115672072Y-54174000D01*
X115669000Y-52959750D01*
X115510250Y-52801000D01*
X113411000Y-52801000D01*
X113157000Y-52801000D01*
X111057750Y-52801000D01*
X110899000Y-52959750D01*
X110895928Y-54174000D01*
X110832324Y-54174000D01*
X110717073Y-53958382D01*
X110528903Y-53729097D01*
X110299618Y-53540927D01*
X110038028Y-53401104D01*
X109754186Y-53315001D01*
X109459000Y-53285928D01*
X107709000Y-53285928D01*
X107413814Y-53315001D01*
X107129972Y-53401104D01*
X106868382Y-53540927D01*
X106639097Y-53729097D01*
X106450927Y-53958382D01*
X106311104Y-54219972D01*
X106225001Y-54503814D01*
X106195928Y-54799000D01*
X82182630Y-54799000D01*
X82222746Y-51174000D01*
X110895928Y-51174000D01*
X110899000Y-52388250D01*
X111057750Y-52547000D01*
X113157000Y-52547000D01*
X113157000Y-50697750D01*
X113411000Y-50697750D01*
X113411000Y-52547000D01*
X115510250Y-52547000D01*
X115669000Y-52388250D01*
X115672072Y-51174000D01*
X115659812Y-51049518D01*
X115623502Y-50929820D01*
X115564537Y-50819506D01*
X115485185Y-50722815D01*
X115388494Y-50643463D01*
X115278180Y-50584498D01*
X115158482Y-50548188D01*
X115034000Y-50535928D01*
X113569750Y-50539000D01*
X113411000Y-50697750D01*
X113157000Y-50697750D01*
X112998250Y-50539000D01*
X111534000Y-50535928D01*
X111409518Y-50548188D01*
X111289820Y-50584498D01*
X111179506Y-50643463D01*
X111082815Y-50722815D01*
X111003463Y-50819506D01*
X110944498Y-50929820D01*
X110908188Y-51049518D01*
X110895928Y-51174000D01*
X82222746Y-51174000D01*
X82231102Y-50419000D01*
X140031014Y-50419000D01*
X140035819Y-50421555D01*
G37*
%TD.AperFunction*%
%TD*%
M02*
