%TF.GenerationSoftware,KiCad,Pcbnew,(5.1.9)-1*%
%TF.CreationDate,2021-02-06T16:32:04-05:00*%
%TF.ProjectId,LNA_1,4c4e415f-312e-46b6-9963-61645f706362,rev?*%
%TF.SameCoordinates,Original*%
%TF.FileFunction,Copper,L2,Bot*%
%TF.FilePolarity,Positive*%
%FSLAX46Y46*%
G04 Gerber Fmt 4.6, Leading zero omitted, Abs format (unit mm)*
G04 Created by KiCad (PCBNEW (5.1.9)-1) date 2021-02-06 16:32:04*
%MOMM*%
%LPD*%
G01*
G04 APERTURE LIST*
%TA.AperFunction,SMDPad,CuDef*%
%ADD10R,4.200000X1.350000*%
%TD*%
%TA.AperFunction,ComponentPad*%
%ADD11R,3.500000X3.500000*%
%TD*%
%TA.AperFunction,ViaPad*%
%ADD12C,0.800000*%
%TD*%
%TA.AperFunction,Conductor*%
%ADD13C,0.254000*%
%TD*%
%TA.AperFunction,Conductor*%
%ADD14C,0.100000*%
%TD*%
G04 APERTURE END LIST*
D10*
%TO.P,J2,3_2*%
%TO.N,GND*%
X138738000Y-60167000D03*
%TO.P,J2,2_2*%
X138738000Y-65817000D03*
%TD*%
%TO.P,J1,3_2*%
%TO.N,GND*%
X83512000Y-71405000D03*
%TO.P,J1,2_2*%
X83512000Y-65755000D03*
%TD*%
%TO.P,J3,3*%
%TO.N,N/C*%
%TA.AperFunction,ComponentPad*%
G36*
G01*
X107201000Y-50114000D02*
X108951000Y-50114000D01*
G75*
G02*
X109826000Y-50989000I0J-875000D01*
G01*
X109826000Y-52739000D01*
G75*
G02*
X108951000Y-53614000I-875000J0D01*
G01*
X107201000Y-53614000D01*
G75*
G02*
X106326000Y-52739000I0J875000D01*
G01*
X106326000Y-50989000D01*
G75*
G02*
X107201000Y-50114000I875000J0D01*
G01*
G37*
%TD.AperFunction*%
%TO.P,J3,2*%
%TO.N,GND*%
%TA.AperFunction,ComponentPad*%
G36*
G01*
X111776000Y-47364000D02*
X113776000Y-47364000D01*
G75*
G02*
X114526000Y-48114000I0J-750000D01*
G01*
X114526000Y-49614000D01*
G75*
G02*
X113776000Y-50364000I-750000J0D01*
G01*
X111776000Y-50364000D01*
G75*
G02*
X111026000Y-49614000I0J750000D01*
G01*
X111026000Y-48114000D01*
G75*
G02*
X111776000Y-47364000I750000J0D01*
G01*
G37*
%TD.AperFunction*%
D11*
%TO.P,J3,1*%
%TO.N,VCC*%
X112776000Y-54864000D03*
%TD*%
D12*
%TO.N,GND*%
X83220550Y-48112905D03*
X83220550Y-52112905D03*
X83220550Y-60112905D03*
X83220550Y-74112905D03*
X83220550Y-78112905D03*
X84220550Y-63112905D03*
X85220550Y-50112905D03*
X86220550Y-53112905D03*
X86220550Y-61112905D03*
X86220550Y-75112905D03*
X87220550Y-48112905D03*
X87220550Y-64112905D03*
X87220550Y-71112905D03*
X88220550Y-51112905D03*
X88220550Y-55112905D03*
X88220550Y-59112905D03*
X89220550Y-62112905D03*
X89220550Y-66112905D03*
X89220550Y-73112905D03*
X89220550Y-77112905D03*
X90220550Y-49112905D03*
X90220550Y-53112905D03*
X90220550Y-57112905D03*
X90220550Y-80112905D03*
X91220550Y-60112905D03*
X91220550Y-64112905D03*
X91220550Y-70112905D03*
X91220550Y-75112905D03*
X92220550Y-51112905D03*
X92220550Y-55112905D03*
X92220550Y-78112905D03*
X93220550Y-48112905D03*
X93220550Y-58112905D03*
X93220550Y-72112905D03*
X94220550Y-65112905D03*
X94220550Y-80112905D03*
X95220550Y-70112905D03*
X96220550Y-78112905D03*
X97220550Y-72112905D03*
X98220550Y-80112905D03*
X99220550Y-63112905D03*
X99220550Y-67112905D03*
X100220550Y-70112905D03*
X101220550Y-65112905D03*
X101092000Y-78232000D03*
X102220550Y-80112905D03*
X105220550Y-69112905D03*
X105156000Y-78232000D03*
X106220550Y-59112905D03*
X106220550Y-80112905D03*
X107220550Y-48112905D03*
X107220550Y-56112905D03*
X107220550Y-71112905D03*
X108220550Y-61112905D03*
X108220550Y-65112905D03*
X108220550Y-78112905D03*
X109220550Y-58112905D03*
X109220550Y-69112905D03*
X110220550Y-80112905D03*
X111220550Y-64112905D03*
X111220550Y-71112905D03*
X112220550Y-78112905D03*
X112522000Y-65786000D03*
X113220550Y-73112905D03*
X114220550Y-69112905D03*
X114220550Y-76112905D03*
X114220550Y-80112905D03*
X115220550Y-59112905D03*
X116220550Y-48112905D03*
X116220550Y-52112905D03*
X116220550Y-56112905D03*
X116220550Y-71112905D03*
X116220550Y-78112905D03*
X117220550Y-74112905D03*
X118220550Y-50112905D03*
X118220550Y-54112905D03*
X118220550Y-58112905D03*
X118220550Y-69112905D03*
X118220550Y-80112905D03*
X119220550Y-72112905D03*
X119220550Y-76112905D03*
X120220550Y-48112905D03*
X120220550Y-52112905D03*
X120220550Y-56112905D03*
X120220550Y-60112905D03*
X121220550Y-78112905D03*
X122220550Y-50112905D03*
X122220550Y-54112905D03*
X122220550Y-58112905D03*
X123220550Y-76112905D03*
X123220550Y-80112905D03*
X124220550Y-48112905D03*
X124220550Y-52112905D03*
X124220550Y-56112905D03*
X125220550Y-69112905D03*
X125220550Y-73112905D03*
X125220550Y-78112905D03*
X126220550Y-50112905D03*
X126220550Y-54112905D03*
X126220550Y-58112905D03*
X127220550Y-61112905D03*
X127220550Y-71112905D03*
X127220550Y-75112905D03*
X127220550Y-80112905D03*
X128220550Y-48112905D03*
X128220550Y-52112905D03*
X128220550Y-56112905D03*
X129220550Y-59112905D03*
X129220550Y-73112905D03*
X129220550Y-77112905D03*
X130220550Y-50112905D03*
X130220550Y-54112905D03*
X131220550Y-57112905D03*
X131220550Y-61112905D03*
X131220550Y-71112905D03*
X131220550Y-75112905D03*
X131220550Y-79112905D03*
X132220550Y-48112905D03*
X132220550Y-52112905D03*
X133220550Y-55112905D03*
X133220550Y-59112905D03*
X133220550Y-73112905D03*
X134220550Y-50112905D03*
X135220550Y-53112905D03*
X135220550Y-57112905D03*
X135220550Y-61112905D03*
X135220550Y-68112905D03*
X135220550Y-75112905D03*
X136220550Y-48112905D03*
X136220550Y-71112905D03*
X137220550Y-51112905D03*
X137220550Y-55112905D03*
X137220550Y-80112905D03*
X138220550Y-69112905D03*
X138220550Y-73112905D03*
X138220550Y-77112905D03*
X139220550Y-49112905D03*
X139220550Y-53112905D03*
X139220550Y-57112905D03*
X104220550Y-57112905D03*
X104220550Y-53112905D03*
X104220550Y-49112905D03*
X95220550Y-50112905D03*
X94220550Y-53112905D03*
X95220550Y-56112905D03*
X102220550Y-51112905D03*
X101220550Y-48112905D03*
X97220550Y-48112905D03*
X97220550Y-52112905D03*
X98220550Y-55112905D03*
X100220550Y-57112905D03*
X102220550Y-55112905D03*
X100220550Y-53112905D03*
X99220550Y-50112905D03*
X83220550Y-76112905D03*
X83220550Y-80112905D03*
X85220550Y-48112905D03*
X87220550Y-66112905D03*
X87220550Y-73112905D03*
X88220550Y-53112905D03*
X88220550Y-57112905D03*
X89220550Y-64112905D03*
X89220550Y-71112905D03*
X89220550Y-75112905D03*
X90220550Y-51112905D03*
X90220550Y-55112905D03*
X91220550Y-62112905D03*
X91220550Y-73112905D03*
X92220550Y-53112905D03*
X92220550Y-80112905D03*
X93220550Y-60112905D03*
X93220550Y-70112905D03*
X93220550Y-75112905D03*
X94220550Y-67112905D03*
X95220550Y-48112905D03*
X95220550Y-58112905D03*
X95220550Y-72112905D03*
X96220550Y-54112905D03*
X96220550Y-80112905D03*
X97220550Y-50112905D03*
X97220550Y-70112905D03*
X98220550Y-57112905D03*
X99220550Y-48112905D03*
X99220550Y-65112905D03*
X99220550Y-72112905D03*
X100220550Y-55112905D03*
X100220550Y-80112905D03*
X101220550Y-62112905D03*
X102220550Y-53112905D03*
X102220550Y-57112905D03*
X104220550Y-51112905D03*
X104220550Y-55112905D03*
X104220550Y-80112905D03*
X105220550Y-71112905D03*
X107220550Y-69112905D03*
X108220550Y-80112905D03*
X109220550Y-48112905D03*
X109220550Y-56112905D03*
X109220550Y-71112905D03*
X111220550Y-69112905D03*
X112220550Y-80112905D03*
X113220550Y-71112905D03*
X114220550Y-78112905D03*
X115220550Y-62112905D03*
X115220550Y-73112905D03*
X116220550Y-50112905D03*
X116220550Y-54112905D03*
X116220550Y-69112905D03*
X116220550Y-76112905D03*
X116220550Y-80112905D03*
X117220550Y-64112905D03*
X118220550Y-48112905D03*
X118220550Y-52112905D03*
X118220550Y-56112905D03*
X118220550Y-78112905D03*
X119220550Y-74112905D03*
X120220550Y-50112905D03*
X120220550Y-54112905D03*
X120220550Y-58112905D03*
X120220550Y-65112905D03*
X120220550Y-69112905D03*
X120220550Y-80112905D03*
X121220550Y-76112905D03*
X122220550Y-48112905D03*
X122220550Y-52112905D03*
X122220550Y-56112905D03*
X123220550Y-78112905D03*
X124220550Y-50112905D03*
X124220550Y-54112905D03*
X124220550Y-58112905D03*
X125220550Y-61112905D03*
X125220550Y-71112905D03*
X125220550Y-75112905D03*
X125220550Y-80112905D03*
X126220550Y-48112905D03*
X126220550Y-52112905D03*
X126220550Y-56112905D03*
X127220550Y-63112905D03*
X127220550Y-69112905D03*
X127220550Y-73112905D03*
X127220550Y-77112905D03*
X128220550Y-50112905D03*
X128220550Y-54112905D03*
X129220550Y-61112905D03*
X129220550Y-71112905D03*
X129220550Y-75112905D03*
X129220550Y-79112905D03*
X130220550Y-48112905D03*
X130220550Y-52112905D03*
X131220550Y-59112905D03*
X131220550Y-73112905D03*
X131220550Y-77112905D03*
X132220550Y-50112905D03*
X133220550Y-57112905D03*
X133220550Y-61112905D03*
X133220550Y-71112905D03*
X133220550Y-75112905D03*
X134220550Y-48112905D03*
X135220550Y-55112905D03*
X135220550Y-59112905D03*
X135220550Y-73112905D03*
X137220550Y-53112905D03*
X137220550Y-57112905D03*
X137220550Y-75112905D03*
X138220550Y-71112905D03*
%TD*%
D13*
%TO.N,GND*%
X139817869Y-46648722D02*
X139931246Y-46682953D01*
X140035819Y-46738555D01*
X140081791Y-46776049D01*
X140114320Y-58855153D01*
X139023750Y-58857000D01*
X138865000Y-59015750D01*
X138865000Y-60040000D01*
X138885000Y-60040000D01*
X138885000Y-60294000D01*
X138865000Y-60294000D01*
X138865000Y-61318250D01*
X139023750Y-61477000D01*
X140121386Y-61478859D01*
X140129535Y-64505128D01*
X139023750Y-64507000D01*
X138865000Y-64665750D01*
X138865000Y-65690000D01*
X138885000Y-65690000D01*
X138885000Y-65944000D01*
X138865000Y-65944000D01*
X138865000Y-66968250D01*
X139023750Y-67127000D01*
X140136601Y-67128884D01*
X140175712Y-81652274D01*
X140130594Y-81707595D01*
X140110159Y-81724500D01*
X82139456Y-81724500D01*
X82122405Y-81710594D01*
X82046909Y-81619335D01*
X81990581Y-81515160D01*
X81955560Y-81402024D01*
X81940000Y-81253979D01*
X81940000Y-78290495D01*
X84121000Y-78290495D01*
X84121000Y-78681505D01*
X84197282Y-79065003D01*
X84346915Y-79426250D01*
X84564149Y-79751364D01*
X84840636Y-80027851D01*
X85165750Y-80245085D01*
X85526997Y-80394718D01*
X85910495Y-80471000D01*
X86301505Y-80471000D01*
X86685003Y-80394718D01*
X87046250Y-80245085D01*
X87371364Y-80027851D01*
X87647851Y-79751364D01*
X87865085Y-79426250D01*
X88014718Y-79065003D01*
X88091000Y-78681505D01*
X88091000Y-78290495D01*
X88015215Y-77909495D01*
X132635000Y-77909495D01*
X132635000Y-78300505D01*
X132711282Y-78684003D01*
X132860915Y-79045250D01*
X133078149Y-79370364D01*
X133354636Y-79646851D01*
X133679750Y-79864085D01*
X134040997Y-80013718D01*
X134424495Y-80090000D01*
X134815505Y-80090000D01*
X135199003Y-80013718D01*
X135560250Y-79864085D01*
X135885364Y-79646851D01*
X136161851Y-79370364D01*
X136379085Y-79045250D01*
X136528718Y-78684003D01*
X136605000Y-78300505D01*
X136605000Y-77909495D01*
X136528718Y-77525997D01*
X136379085Y-77164750D01*
X136161851Y-76839636D01*
X135885364Y-76563149D01*
X135560250Y-76345915D01*
X135199003Y-76196282D01*
X134815505Y-76120000D01*
X134424495Y-76120000D01*
X134040997Y-76196282D01*
X133679750Y-76345915D01*
X133354636Y-76563149D01*
X133078149Y-76839636D01*
X132860915Y-77164750D01*
X132711282Y-77525997D01*
X132635000Y-77909495D01*
X88015215Y-77909495D01*
X88014718Y-77906997D01*
X87865085Y-77545750D01*
X87647851Y-77220636D01*
X87371364Y-76944149D01*
X87046250Y-76726915D01*
X86685003Y-76577282D01*
X86301505Y-76501000D01*
X85910495Y-76501000D01*
X85526997Y-76577282D01*
X85165750Y-76726915D01*
X84840636Y-76944149D01*
X84564149Y-77220636D01*
X84346915Y-77545750D01*
X84197282Y-77906997D01*
X84121000Y-78290495D01*
X81940000Y-78290495D01*
X81940000Y-72755717D01*
X81940240Y-72717178D01*
X83226250Y-72715000D01*
X83385000Y-72556250D01*
X83385000Y-71532000D01*
X83639000Y-71532000D01*
X83639000Y-72556250D01*
X83797750Y-72715000D01*
X85612000Y-72718072D01*
X85736482Y-72705812D01*
X85856180Y-72669502D01*
X85966494Y-72610537D01*
X86063185Y-72531185D01*
X86142537Y-72434494D01*
X86201502Y-72324180D01*
X86237812Y-72204482D01*
X86250072Y-72080000D01*
X86247000Y-71690750D01*
X86088250Y-71532000D01*
X83639000Y-71532000D01*
X83385000Y-71532000D01*
X83365000Y-71532000D01*
X83365000Y-71278000D01*
X83385000Y-71278000D01*
X83385000Y-70253750D01*
X83639000Y-70253750D01*
X83639000Y-71278000D01*
X86088250Y-71278000D01*
X86247000Y-71119250D01*
X86250072Y-70730000D01*
X86237812Y-70605518D01*
X86201502Y-70485820D01*
X86142537Y-70375506D01*
X86063185Y-70278815D01*
X85966494Y-70199463D01*
X85856180Y-70140498D01*
X85736482Y-70104188D01*
X85612000Y-70091928D01*
X83797750Y-70095000D01*
X83639000Y-70253750D01*
X83385000Y-70253750D01*
X83226250Y-70095000D01*
X81956613Y-70092850D01*
X81975490Y-67067118D01*
X83226250Y-67065000D01*
X83385000Y-66906250D01*
X83385000Y-65882000D01*
X83639000Y-65882000D01*
X83639000Y-66906250D01*
X83797750Y-67065000D01*
X85612000Y-67068072D01*
X85736482Y-67055812D01*
X85856180Y-67019502D01*
X85966494Y-66960537D01*
X86063185Y-66881185D01*
X86142537Y-66784494D01*
X86201502Y-66674180D01*
X86237812Y-66554482D01*
X86243965Y-66492000D01*
X135999928Y-66492000D01*
X136012188Y-66616482D01*
X136048498Y-66736180D01*
X136107463Y-66846494D01*
X136186815Y-66943185D01*
X136283506Y-67022537D01*
X136393820Y-67081502D01*
X136513518Y-67117812D01*
X136638000Y-67130072D01*
X138452250Y-67127000D01*
X138611000Y-66968250D01*
X138611000Y-65944000D01*
X136161750Y-65944000D01*
X136003000Y-66102750D01*
X135999928Y-66492000D01*
X86243965Y-66492000D01*
X86250072Y-66430000D01*
X86247000Y-66040750D01*
X86088250Y-65882000D01*
X83639000Y-65882000D01*
X83385000Y-65882000D01*
X83365000Y-65882000D01*
X83365000Y-65628000D01*
X83385000Y-65628000D01*
X83385000Y-64603750D01*
X83639000Y-64603750D01*
X83639000Y-65628000D01*
X86088250Y-65628000D01*
X86247000Y-65469250D01*
X86249582Y-65142000D01*
X135999928Y-65142000D01*
X136003000Y-65531250D01*
X136161750Y-65690000D01*
X138611000Y-65690000D01*
X138611000Y-64665750D01*
X138452250Y-64507000D01*
X136638000Y-64503928D01*
X136513518Y-64516188D01*
X136393820Y-64552498D01*
X136283506Y-64611463D01*
X136186815Y-64690815D01*
X136107463Y-64787506D01*
X136048498Y-64897820D01*
X136012188Y-65017518D01*
X135999928Y-65142000D01*
X86249582Y-65142000D01*
X86250072Y-65080000D01*
X86237812Y-64955518D01*
X86201502Y-64835820D01*
X86142537Y-64725506D01*
X86063185Y-64628815D01*
X85966494Y-64549463D01*
X85856180Y-64490498D01*
X85736482Y-64454188D01*
X85612000Y-64441928D01*
X83797750Y-64445000D01*
X83639000Y-64603750D01*
X83385000Y-64603750D01*
X83226250Y-64445000D01*
X81991862Y-64442910D01*
X82014327Y-60842000D01*
X135999928Y-60842000D01*
X136012188Y-60966482D01*
X136048498Y-61086180D01*
X136107463Y-61196494D01*
X136186815Y-61293185D01*
X136283506Y-61372537D01*
X136393820Y-61431502D01*
X136513518Y-61467812D01*
X136638000Y-61480072D01*
X138452250Y-61477000D01*
X138611000Y-61318250D01*
X138611000Y-60294000D01*
X136161750Y-60294000D01*
X136003000Y-60452750D01*
X135999928Y-60842000D01*
X82014327Y-60842000D01*
X82022749Y-59492000D01*
X135999928Y-59492000D01*
X136003000Y-59881250D01*
X136161750Y-60040000D01*
X138611000Y-60040000D01*
X138611000Y-59015750D01*
X138452250Y-58857000D01*
X136638000Y-58853928D01*
X136513518Y-58866188D01*
X136393820Y-58902498D01*
X136283506Y-58961463D01*
X136186815Y-59040815D01*
X136107463Y-59137506D01*
X136048498Y-59247820D01*
X136012188Y-59367518D01*
X135999928Y-59492000D01*
X82022749Y-59492000D01*
X82040165Y-56700495D01*
X82851000Y-56700495D01*
X82851000Y-57091505D01*
X82927282Y-57475003D01*
X83076915Y-57836250D01*
X83294149Y-58161364D01*
X83570636Y-58437851D01*
X83895750Y-58655085D01*
X84256997Y-58804718D01*
X84640495Y-58881000D01*
X85031505Y-58881000D01*
X85415003Y-58804718D01*
X85776250Y-58655085D01*
X86101364Y-58437851D01*
X86377851Y-58161364D01*
X86595085Y-57836250D01*
X86744718Y-57475003D01*
X86821000Y-57091505D01*
X86821000Y-56700495D01*
X86744718Y-56316997D01*
X86595085Y-55955750D01*
X86377851Y-55630636D01*
X86101364Y-55354149D01*
X85776250Y-55136915D01*
X85415003Y-54987282D01*
X85031505Y-54911000D01*
X84640495Y-54911000D01*
X84256997Y-54987282D01*
X83895750Y-55136915D01*
X83570636Y-55354149D01*
X83294149Y-55630636D01*
X83076915Y-55955750D01*
X82927282Y-56316997D01*
X82851000Y-56700495D01*
X82040165Y-56700495D01*
X82075798Y-50989000D01*
X105687928Y-50989000D01*
X105687928Y-52739000D01*
X105717001Y-53034186D01*
X105803104Y-53318028D01*
X105942927Y-53579618D01*
X106131097Y-53808903D01*
X106360382Y-53997073D01*
X106621972Y-54136896D01*
X106905814Y-54222999D01*
X107201000Y-54252072D01*
X108951000Y-54252072D01*
X109246186Y-54222999D01*
X109530028Y-54136896D01*
X109791618Y-53997073D01*
X110020903Y-53808903D01*
X110209073Y-53579618D01*
X110348896Y-53318028D01*
X110387928Y-53189357D01*
X110387928Y-56614000D01*
X110400188Y-56738482D01*
X110436498Y-56858180D01*
X110495463Y-56968494D01*
X110574815Y-57065185D01*
X110671506Y-57144537D01*
X110781820Y-57203502D01*
X110901518Y-57239812D01*
X111026000Y-57252072D01*
X114526000Y-57252072D01*
X114650482Y-57239812D01*
X114770180Y-57203502D01*
X114880494Y-57144537D01*
X114977185Y-57065185D01*
X115056537Y-56968494D01*
X115115502Y-56858180D01*
X115151812Y-56738482D01*
X115164072Y-56614000D01*
X115164072Y-53114000D01*
X115151812Y-52989518D01*
X115115502Y-52869820D01*
X115056537Y-52759506D01*
X114977185Y-52662815D01*
X114880494Y-52583463D01*
X114770180Y-52524498D01*
X114650482Y-52488188D01*
X114526000Y-52475928D01*
X111026000Y-52475928D01*
X110901518Y-52488188D01*
X110781820Y-52524498D01*
X110671506Y-52583463D01*
X110574815Y-52662815D01*
X110495463Y-52759506D01*
X110454506Y-52836131D01*
X110464072Y-52739000D01*
X110464072Y-50989000D01*
X110434999Y-50693814D01*
X110348896Y-50409972D01*
X110324324Y-50364000D01*
X110387928Y-50364000D01*
X110400188Y-50488482D01*
X110436498Y-50608180D01*
X110495463Y-50718494D01*
X110574815Y-50815185D01*
X110671506Y-50894537D01*
X110781820Y-50953502D01*
X110901518Y-50989812D01*
X111026000Y-51002072D01*
X112490250Y-50999000D01*
X112649000Y-50840250D01*
X112649000Y-48991000D01*
X112903000Y-48991000D01*
X112903000Y-50840250D01*
X113061750Y-50999000D01*
X114526000Y-51002072D01*
X114650482Y-50989812D01*
X114770180Y-50953502D01*
X114880494Y-50894537D01*
X114977185Y-50815185D01*
X115056537Y-50718494D01*
X115115502Y-50608180D01*
X115151812Y-50488482D01*
X115164072Y-50364000D01*
X115161000Y-49149750D01*
X115002250Y-48991000D01*
X112903000Y-48991000D01*
X112649000Y-48991000D01*
X110549750Y-48991000D01*
X110391000Y-49149750D01*
X110387928Y-50364000D01*
X110324324Y-50364000D01*
X110209073Y-50148382D01*
X110020903Y-49919097D01*
X109791618Y-49730927D01*
X109530028Y-49591104D01*
X109246186Y-49505001D01*
X108951000Y-49475928D01*
X107201000Y-49475928D01*
X106905814Y-49505001D01*
X106621972Y-49591104D01*
X106360382Y-49730927D01*
X106131097Y-49919097D01*
X105942927Y-50148382D01*
X105803104Y-50409972D01*
X105717001Y-50693814D01*
X105687928Y-50989000D01*
X82075798Y-50989000D01*
X82098414Y-47364000D01*
X110387928Y-47364000D01*
X110391000Y-48578250D01*
X110549750Y-48737000D01*
X112649000Y-48737000D01*
X112649000Y-46887750D01*
X112903000Y-46887750D01*
X112903000Y-48737000D01*
X115002250Y-48737000D01*
X115161000Y-48578250D01*
X115164072Y-47364000D01*
X115151812Y-47239518D01*
X115115502Y-47119820D01*
X115056537Y-47009506D01*
X114977185Y-46912815D01*
X114880494Y-46833463D01*
X114770180Y-46774498D01*
X114650482Y-46738188D01*
X114526000Y-46725928D01*
X113061750Y-46729000D01*
X112903000Y-46887750D01*
X112649000Y-46887750D01*
X112490250Y-46729000D01*
X111026000Y-46725928D01*
X110901518Y-46738188D01*
X110781820Y-46774498D01*
X110671506Y-46833463D01*
X110574815Y-46912815D01*
X110495463Y-47009506D01*
X110436498Y-47119820D01*
X110400188Y-47239518D01*
X110387928Y-47364000D01*
X82098414Y-47364000D01*
X82101696Y-46838119D01*
X82119407Y-46816404D01*
X82210664Y-46740909D01*
X82314844Y-46684581D01*
X82427976Y-46649560D01*
X82576022Y-46634000D01*
X139667721Y-46634000D01*
X139817869Y-46648722D01*
%TA.AperFunction,Conductor*%
D14*
G36*
X139817869Y-46648722D02*
G01*
X139931246Y-46682953D01*
X140035819Y-46738555D01*
X140081791Y-46776049D01*
X140114320Y-58855153D01*
X139023750Y-58857000D01*
X138865000Y-59015750D01*
X138865000Y-60040000D01*
X138885000Y-60040000D01*
X138885000Y-60294000D01*
X138865000Y-60294000D01*
X138865000Y-61318250D01*
X139023750Y-61477000D01*
X140121386Y-61478859D01*
X140129535Y-64505128D01*
X139023750Y-64507000D01*
X138865000Y-64665750D01*
X138865000Y-65690000D01*
X138885000Y-65690000D01*
X138885000Y-65944000D01*
X138865000Y-65944000D01*
X138865000Y-66968250D01*
X139023750Y-67127000D01*
X140136601Y-67128884D01*
X140175712Y-81652274D01*
X140130594Y-81707595D01*
X140110159Y-81724500D01*
X82139456Y-81724500D01*
X82122405Y-81710594D01*
X82046909Y-81619335D01*
X81990581Y-81515160D01*
X81955560Y-81402024D01*
X81940000Y-81253979D01*
X81940000Y-78290495D01*
X84121000Y-78290495D01*
X84121000Y-78681505D01*
X84197282Y-79065003D01*
X84346915Y-79426250D01*
X84564149Y-79751364D01*
X84840636Y-80027851D01*
X85165750Y-80245085D01*
X85526997Y-80394718D01*
X85910495Y-80471000D01*
X86301505Y-80471000D01*
X86685003Y-80394718D01*
X87046250Y-80245085D01*
X87371364Y-80027851D01*
X87647851Y-79751364D01*
X87865085Y-79426250D01*
X88014718Y-79065003D01*
X88091000Y-78681505D01*
X88091000Y-78290495D01*
X88015215Y-77909495D01*
X132635000Y-77909495D01*
X132635000Y-78300505D01*
X132711282Y-78684003D01*
X132860915Y-79045250D01*
X133078149Y-79370364D01*
X133354636Y-79646851D01*
X133679750Y-79864085D01*
X134040997Y-80013718D01*
X134424495Y-80090000D01*
X134815505Y-80090000D01*
X135199003Y-80013718D01*
X135560250Y-79864085D01*
X135885364Y-79646851D01*
X136161851Y-79370364D01*
X136379085Y-79045250D01*
X136528718Y-78684003D01*
X136605000Y-78300505D01*
X136605000Y-77909495D01*
X136528718Y-77525997D01*
X136379085Y-77164750D01*
X136161851Y-76839636D01*
X135885364Y-76563149D01*
X135560250Y-76345915D01*
X135199003Y-76196282D01*
X134815505Y-76120000D01*
X134424495Y-76120000D01*
X134040997Y-76196282D01*
X133679750Y-76345915D01*
X133354636Y-76563149D01*
X133078149Y-76839636D01*
X132860915Y-77164750D01*
X132711282Y-77525997D01*
X132635000Y-77909495D01*
X88015215Y-77909495D01*
X88014718Y-77906997D01*
X87865085Y-77545750D01*
X87647851Y-77220636D01*
X87371364Y-76944149D01*
X87046250Y-76726915D01*
X86685003Y-76577282D01*
X86301505Y-76501000D01*
X85910495Y-76501000D01*
X85526997Y-76577282D01*
X85165750Y-76726915D01*
X84840636Y-76944149D01*
X84564149Y-77220636D01*
X84346915Y-77545750D01*
X84197282Y-77906997D01*
X84121000Y-78290495D01*
X81940000Y-78290495D01*
X81940000Y-72755717D01*
X81940240Y-72717178D01*
X83226250Y-72715000D01*
X83385000Y-72556250D01*
X83385000Y-71532000D01*
X83639000Y-71532000D01*
X83639000Y-72556250D01*
X83797750Y-72715000D01*
X85612000Y-72718072D01*
X85736482Y-72705812D01*
X85856180Y-72669502D01*
X85966494Y-72610537D01*
X86063185Y-72531185D01*
X86142537Y-72434494D01*
X86201502Y-72324180D01*
X86237812Y-72204482D01*
X86250072Y-72080000D01*
X86247000Y-71690750D01*
X86088250Y-71532000D01*
X83639000Y-71532000D01*
X83385000Y-71532000D01*
X83365000Y-71532000D01*
X83365000Y-71278000D01*
X83385000Y-71278000D01*
X83385000Y-70253750D01*
X83639000Y-70253750D01*
X83639000Y-71278000D01*
X86088250Y-71278000D01*
X86247000Y-71119250D01*
X86250072Y-70730000D01*
X86237812Y-70605518D01*
X86201502Y-70485820D01*
X86142537Y-70375506D01*
X86063185Y-70278815D01*
X85966494Y-70199463D01*
X85856180Y-70140498D01*
X85736482Y-70104188D01*
X85612000Y-70091928D01*
X83797750Y-70095000D01*
X83639000Y-70253750D01*
X83385000Y-70253750D01*
X83226250Y-70095000D01*
X81956613Y-70092850D01*
X81975490Y-67067118D01*
X83226250Y-67065000D01*
X83385000Y-66906250D01*
X83385000Y-65882000D01*
X83639000Y-65882000D01*
X83639000Y-66906250D01*
X83797750Y-67065000D01*
X85612000Y-67068072D01*
X85736482Y-67055812D01*
X85856180Y-67019502D01*
X85966494Y-66960537D01*
X86063185Y-66881185D01*
X86142537Y-66784494D01*
X86201502Y-66674180D01*
X86237812Y-66554482D01*
X86243965Y-66492000D01*
X135999928Y-66492000D01*
X136012188Y-66616482D01*
X136048498Y-66736180D01*
X136107463Y-66846494D01*
X136186815Y-66943185D01*
X136283506Y-67022537D01*
X136393820Y-67081502D01*
X136513518Y-67117812D01*
X136638000Y-67130072D01*
X138452250Y-67127000D01*
X138611000Y-66968250D01*
X138611000Y-65944000D01*
X136161750Y-65944000D01*
X136003000Y-66102750D01*
X135999928Y-66492000D01*
X86243965Y-66492000D01*
X86250072Y-66430000D01*
X86247000Y-66040750D01*
X86088250Y-65882000D01*
X83639000Y-65882000D01*
X83385000Y-65882000D01*
X83365000Y-65882000D01*
X83365000Y-65628000D01*
X83385000Y-65628000D01*
X83385000Y-64603750D01*
X83639000Y-64603750D01*
X83639000Y-65628000D01*
X86088250Y-65628000D01*
X86247000Y-65469250D01*
X86249582Y-65142000D01*
X135999928Y-65142000D01*
X136003000Y-65531250D01*
X136161750Y-65690000D01*
X138611000Y-65690000D01*
X138611000Y-64665750D01*
X138452250Y-64507000D01*
X136638000Y-64503928D01*
X136513518Y-64516188D01*
X136393820Y-64552498D01*
X136283506Y-64611463D01*
X136186815Y-64690815D01*
X136107463Y-64787506D01*
X136048498Y-64897820D01*
X136012188Y-65017518D01*
X135999928Y-65142000D01*
X86249582Y-65142000D01*
X86250072Y-65080000D01*
X86237812Y-64955518D01*
X86201502Y-64835820D01*
X86142537Y-64725506D01*
X86063185Y-64628815D01*
X85966494Y-64549463D01*
X85856180Y-64490498D01*
X85736482Y-64454188D01*
X85612000Y-64441928D01*
X83797750Y-64445000D01*
X83639000Y-64603750D01*
X83385000Y-64603750D01*
X83226250Y-64445000D01*
X81991862Y-64442910D01*
X82014327Y-60842000D01*
X135999928Y-60842000D01*
X136012188Y-60966482D01*
X136048498Y-61086180D01*
X136107463Y-61196494D01*
X136186815Y-61293185D01*
X136283506Y-61372537D01*
X136393820Y-61431502D01*
X136513518Y-61467812D01*
X136638000Y-61480072D01*
X138452250Y-61477000D01*
X138611000Y-61318250D01*
X138611000Y-60294000D01*
X136161750Y-60294000D01*
X136003000Y-60452750D01*
X135999928Y-60842000D01*
X82014327Y-60842000D01*
X82022749Y-59492000D01*
X135999928Y-59492000D01*
X136003000Y-59881250D01*
X136161750Y-60040000D01*
X138611000Y-60040000D01*
X138611000Y-59015750D01*
X138452250Y-58857000D01*
X136638000Y-58853928D01*
X136513518Y-58866188D01*
X136393820Y-58902498D01*
X136283506Y-58961463D01*
X136186815Y-59040815D01*
X136107463Y-59137506D01*
X136048498Y-59247820D01*
X136012188Y-59367518D01*
X135999928Y-59492000D01*
X82022749Y-59492000D01*
X82040165Y-56700495D01*
X82851000Y-56700495D01*
X82851000Y-57091505D01*
X82927282Y-57475003D01*
X83076915Y-57836250D01*
X83294149Y-58161364D01*
X83570636Y-58437851D01*
X83895750Y-58655085D01*
X84256997Y-58804718D01*
X84640495Y-58881000D01*
X85031505Y-58881000D01*
X85415003Y-58804718D01*
X85776250Y-58655085D01*
X86101364Y-58437851D01*
X86377851Y-58161364D01*
X86595085Y-57836250D01*
X86744718Y-57475003D01*
X86821000Y-57091505D01*
X86821000Y-56700495D01*
X86744718Y-56316997D01*
X86595085Y-55955750D01*
X86377851Y-55630636D01*
X86101364Y-55354149D01*
X85776250Y-55136915D01*
X85415003Y-54987282D01*
X85031505Y-54911000D01*
X84640495Y-54911000D01*
X84256997Y-54987282D01*
X83895750Y-55136915D01*
X83570636Y-55354149D01*
X83294149Y-55630636D01*
X83076915Y-55955750D01*
X82927282Y-56316997D01*
X82851000Y-56700495D01*
X82040165Y-56700495D01*
X82075798Y-50989000D01*
X105687928Y-50989000D01*
X105687928Y-52739000D01*
X105717001Y-53034186D01*
X105803104Y-53318028D01*
X105942927Y-53579618D01*
X106131097Y-53808903D01*
X106360382Y-53997073D01*
X106621972Y-54136896D01*
X106905814Y-54222999D01*
X107201000Y-54252072D01*
X108951000Y-54252072D01*
X109246186Y-54222999D01*
X109530028Y-54136896D01*
X109791618Y-53997073D01*
X110020903Y-53808903D01*
X110209073Y-53579618D01*
X110348896Y-53318028D01*
X110387928Y-53189357D01*
X110387928Y-56614000D01*
X110400188Y-56738482D01*
X110436498Y-56858180D01*
X110495463Y-56968494D01*
X110574815Y-57065185D01*
X110671506Y-57144537D01*
X110781820Y-57203502D01*
X110901518Y-57239812D01*
X111026000Y-57252072D01*
X114526000Y-57252072D01*
X114650482Y-57239812D01*
X114770180Y-57203502D01*
X114880494Y-57144537D01*
X114977185Y-57065185D01*
X115056537Y-56968494D01*
X115115502Y-56858180D01*
X115151812Y-56738482D01*
X115164072Y-56614000D01*
X115164072Y-53114000D01*
X115151812Y-52989518D01*
X115115502Y-52869820D01*
X115056537Y-52759506D01*
X114977185Y-52662815D01*
X114880494Y-52583463D01*
X114770180Y-52524498D01*
X114650482Y-52488188D01*
X114526000Y-52475928D01*
X111026000Y-52475928D01*
X110901518Y-52488188D01*
X110781820Y-52524498D01*
X110671506Y-52583463D01*
X110574815Y-52662815D01*
X110495463Y-52759506D01*
X110454506Y-52836131D01*
X110464072Y-52739000D01*
X110464072Y-50989000D01*
X110434999Y-50693814D01*
X110348896Y-50409972D01*
X110324324Y-50364000D01*
X110387928Y-50364000D01*
X110400188Y-50488482D01*
X110436498Y-50608180D01*
X110495463Y-50718494D01*
X110574815Y-50815185D01*
X110671506Y-50894537D01*
X110781820Y-50953502D01*
X110901518Y-50989812D01*
X111026000Y-51002072D01*
X112490250Y-50999000D01*
X112649000Y-50840250D01*
X112649000Y-48991000D01*
X112903000Y-48991000D01*
X112903000Y-50840250D01*
X113061750Y-50999000D01*
X114526000Y-51002072D01*
X114650482Y-50989812D01*
X114770180Y-50953502D01*
X114880494Y-50894537D01*
X114977185Y-50815185D01*
X115056537Y-50718494D01*
X115115502Y-50608180D01*
X115151812Y-50488482D01*
X115164072Y-50364000D01*
X115161000Y-49149750D01*
X115002250Y-48991000D01*
X112903000Y-48991000D01*
X112649000Y-48991000D01*
X110549750Y-48991000D01*
X110391000Y-49149750D01*
X110387928Y-50364000D01*
X110324324Y-50364000D01*
X110209073Y-50148382D01*
X110020903Y-49919097D01*
X109791618Y-49730927D01*
X109530028Y-49591104D01*
X109246186Y-49505001D01*
X108951000Y-49475928D01*
X107201000Y-49475928D01*
X106905814Y-49505001D01*
X106621972Y-49591104D01*
X106360382Y-49730927D01*
X106131097Y-49919097D01*
X105942927Y-50148382D01*
X105803104Y-50409972D01*
X105717001Y-50693814D01*
X105687928Y-50989000D01*
X82075798Y-50989000D01*
X82098414Y-47364000D01*
X110387928Y-47364000D01*
X110391000Y-48578250D01*
X110549750Y-48737000D01*
X112649000Y-48737000D01*
X112649000Y-46887750D01*
X112903000Y-46887750D01*
X112903000Y-48737000D01*
X115002250Y-48737000D01*
X115161000Y-48578250D01*
X115164072Y-47364000D01*
X115151812Y-47239518D01*
X115115502Y-47119820D01*
X115056537Y-47009506D01*
X114977185Y-46912815D01*
X114880494Y-46833463D01*
X114770180Y-46774498D01*
X114650482Y-46738188D01*
X114526000Y-46725928D01*
X113061750Y-46729000D01*
X112903000Y-46887750D01*
X112649000Y-46887750D01*
X112490250Y-46729000D01*
X111026000Y-46725928D01*
X110901518Y-46738188D01*
X110781820Y-46774498D01*
X110671506Y-46833463D01*
X110574815Y-46912815D01*
X110495463Y-47009506D01*
X110436498Y-47119820D01*
X110400188Y-47239518D01*
X110387928Y-47364000D01*
X82098414Y-47364000D01*
X82101696Y-46838119D01*
X82119407Y-46816404D01*
X82210664Y-46740909D01*
X82314844Y-46684581D01*
X82427976Y-46649560D01*
X82576022Y-46634000D01*
X139667721Y-46634000D01*
X139817869Y-46648722D01*
G37*
%TD.AperFunction*%
%TD*%
M02*
