M48
; DRILL file {KiCad (5.1.9)-1} date 01/26/21 13:47:25
; FORMAT={-:-/ absolute / inch / decimal}
; #@! TF.CreationDate,2021-01-26T13:47:25-05:00
; #@! TF.GenerationSoftware,Kicad,Pcbnew,(5.1.9)-1
; #@! TF.FileFunction,Plated,1,2,PTH
FMAT,2
INCH
T1C0.0157
T2C0.0394
%
G90
G05
T1
X3.25Y-2.585
X3.255Y-2.81
X3.2764Y-2.4573
X3.2764Y-2.9297
X3.2764Y-3.0872
X3.2764Y-3.1659
X3.2896Y-2.0536
X3.2896Y-2.3685
X3.2896Y-2.9985
X3.295Y-2.585
X3.3Y-2.81
X3.34Y-2.585
X3.345Y-2.81
X3.3551Y-2.4966
X3.3683Y-2.0929
X3.3683Y-2.4079
X3.3945Y-2.9297
X3.4339Y-2.536
X3.4339Y-2.6148
X3.447Y-2.0536
X3.447Y-2.1717
X3.447Y-2.3292
X3.4864Y-2.2504
X3.4864Y-2.4079
X3.4864Y-2.8016
X3.4864Y-2.9197
X3.5258Y-2.0929
X3.5258Y-2.4866
X3.5258Y-2.6048
X3.5258Y-2.9985
X3.5258Y-3.1166
X3.5652Y-2.1717
X3.5652Y-2.2898
X3.5652Y-2.841
X3.6045Y-2.0536
X3.6045Y-2.3685
X3.6045Y-2.7622
X3.6045Y-2.9197
X3.6045Y-3.0378
X3.6045Y-3.1559
X3.6439Y-2.1323
X3.6439Y-2.2504
X3.6833Y-2.3292
X3.6833Y-2.8016
X3.6833Y-3.0772
X3.7226Y-2.0536
X3.7226Y-2.1717
X3.7226Y-2.5654
X3.7226Y-3.1559
X3.762Y-2.2504
X3.762Y-2.6441
X3.762Y-2.7622
X3.8014Y-2.0929
X3.8014Y-2.841
X3.8014Y-3.0772
X3.8407Y-2.1717
X3.8407Y-3.1559
X3.8801Y-2.0536
X3.8801Y-2.2504
X3.8801Y-2.7622
X3.9195Y-2.1323
X3.9195Y-2.4473
X3.9195Y-2.841
X3.925Y-2.55
X3.9589Y-2.2111
X3.9589Y-3.1559
X3.98Y-2.555
X3.985Y-2.4866
X3.9851Y-3.0872
X3.9982Y-2.0536
X4.0376Y-2.1323
X4.0376Y-2.2504
X4.077Y-3.1559
X4.1163Y-2.0536
X4.1163Y-2.1717
X4.1163Y-2.841
X4.1163Y-3.0772
X4.1425Y-2.2604
X4.1951Y-2.7622
X4.1951Y-3.1559
X4.2213Y-2.3392
X4.2344Y-2.0536
X4.2344Y-2.526
X4.2344Y-2.841
X4.2738Y-2.7229
X4.2738Y-3.0772
X4.29Y-2.41
X4.3132Y-2.5654
X4.3132Y-2.8016
X4.3132Y-3.1559
X4.3919Y-2.526
X4.3919Y-2.7229
X4.3919Y-2.841
X4.4313Y-2.9197
X4.4313Y-3.0378
X4.4313Y-3.1559
X4.4707Y-2.7622
X4.51Y-2.841
X4.51Y-2.9591
X4.51Y-3.0772
X4.5494Y-2.7229
X4.5494Y-3.1559
X4.5888Y-2.8016
X4.5888Y-2.9197
X4.5888Y-3.0378
X4.595Y-2.415
X4.615Y-2.2604
X4.615Y-2.3392
X4.6281Y-2.0536
X4.6281Y-2.1717
X4.6281Y-2.526
X4.6281Y-3.1166
X4.6675Y-2.7229
X4.6675Y-2.841
X4.6675Y-2.9591
X4.6937Y-2.4179
X4.7069Y-2.0929
X4.7069Y-2.2111
X4.7069Y-2.3292
X4.7069Y-2.5654
X4.7069Y-3.0378
X4.7069Y-3.1559
X4.7463Y-2.7622
X4.7463Y-2.8804
X4.7856Y-2.0536
X4.7856Y-2.1717
X4.7856Y-2.2898
X4.7856Y-2.526
X4.7856Y-2.9985
X4.7856Y-3.1166
X4.8644Y-2.0929
X4.8644Y-2.2111
X4.8644Y-3.0378
X4.8644Y-3.1559
X4.9037Y-2.841
X4.9037Y-2.9591
X4.935Y-2.73
X4.9431Y-2.0536
X4.9431Y-2.1717
X4.9431Y-2.2898
X4.9431Y-3.0772
X4.9693Y-2.4179
X4.98Y-2.8
X4.9825Y-2.8804
X4.9825Y-2.9985
X4.9825Y-3.1559
X5.0219Y-2.0929
X5.0219Y-2.2111
X5.0219Y-2.3292
X5.045Y-2.73
X5.0612Y-2.8016
X5.0612Y-2.9197
X5.0612Y-3.0378
X5.1006Y-2.0536
X5.1006Y-2.1717
X5.1006Y-2.2898
X5.1006Y-3.1166
X5.14Y-2.7229
X5.14Y-2.841
X5.14Y-2.9591
X5.1793Y-2.0929
X5.1793Y-2.2111
X5.1793Y-3.0378
X5.1793Y-3.1559
X5.2187Y-2.7622
X5.2187Y-2.8804
X5.2581Y-2.0536
X5.2581Y-2.1717
X5.2581Y-2.2898
X5.2581Y-2.9591
X5.2974Y-2.6048
X5.2974Y-2.7229
X5.2974Y-2.841
X5.305Y-2.52
X5.3368Y-2.0929
X5.3368Y-2.9197
X5.363Y-2.1817
X5.3762Y-2.6835
X5.3762Y-2.8016
X5.4024Y-2.6148
X5.415Y-2.29
X5.415Y-2.51
X5.4156Y-2.0536
X5.4156Y-2.8804
X5.4156Y-2.9985
X5.4156Y-3.1166
X5.4418Y-2.1423
X5.4549Y-2.7229
X5.465Y-2.29
X5.465Y-2.51
X5.4811Y-2.6541
X5.4811Y-2.8116
X5.51Y-2.51
X5.515Y-2.29
T2
G00X4.275Y-2.1525
M15
G01X4.275Y-2.2313
M16
G05
G00X4.4994Y-2.0738
M15
G01X4.4206Y-2.0738
M16
G05
G00X4.4994Y-2.31
M15
G01X4.4206Y-2.31
M16
G05
T0
M30
