%TF.GenerationSoftware,KiCad,Pcbnew,(5.1.9)-1*%
%TF.CreationDate,2021-02-06T16:32:04-05:00*%
%TF.ProjectId,LNA_1,4c4e415f-312e-46b6-9963-61645f706362,rev?*%
%TF.SameCoordinates,Original*%
%TF.FileFunction,Copper,L1,Top*%
%TF.FilePolarity,Positive*%
%FSLAX46Y46*%
G04 Gerber Fmt 4.6, Leading zero omitted, Abs format (unit mm)*
G04 Created by KiCad (PCBNEW (5.1.9)-1) date 2021-02-06 16:32:04*
%MOMM*%
%LPD*%
G01*
G04 APERTURE LIST*
%TA.AperFunction,SMDPad,CuDef*%
%ADD10R,4.200000X1.350000*%
%TD*%
%TA.AperFunction,SMDPad,CuDef*%
%ADD11R,3.600000X1.270000*%
%TD*%
%TA.AperFunction,SMDPad,CuDef*%
%ADD12R,0.450000X0.700000*%
%TD*%
%TA.AperFunction,ComponentPad*%
%ADD13R,3.500000X3.500000*%
%TD*%
%TA.AperFunction,SMDPad,CuDef*%
%ADD14R,0.600000X0.800000*%
%TD*%
%TA.AperFunction,SMDPad,CuDef*%
%ADD15R,0.900000X0.800000*%
%TD*%
%TA.AperFunction,ViaPad*%
%ADD16C,0.800000*%
%TD*%
%TA.AperFunction,Conductor*%
%ADD17C,1.500000*%
%TD*%
%TA.AperFunction,Conductor*%
%ADD18C,0.500000*%
%TD*%
%TA.AperFunction,Conductor*%
%ADD19C,0.250000*%
%TD*%
%TA.AperFunction,Conductor*%
%ADD20C,0.254000*%
%TD*%
%TA.AperFunction,Conductor*%
%ADD21C,0.100000*%
%TD*%
G04 APERTURE END LIST*
D10*
%TO.P,J2,3_1*%
%TO.N,GND*%
X138738000Y-60167000D03*
%TO.P,J2,2_1*%
X138738000Y-65817000D03*
D11*
%TO.P,J2,1*%
%TO.N,Net-(CC5-Pad2)*%
X138938000Y-62992000D03*
%TD*%
D10*
%TO.P,J1,3_1*%
%TO.N,GND*%
X83512000Y-71405000D03*
%TO.P,J1,2_1*%
X83512000Y-65755000D03*
D11*
%TO.P,J1,1*%
%TO.N,Net-(CC1-Pad1)*%
X83312000Y-68580000D03*
%TD*%
%TO.P,CC10,2*%
%TO.N,VCC*%
%TA.AperFunction,SMDPad,CuDef*%
G36*
G01*
X112660000Y-60860001D02*
X112660000Y-59559999D01*
G75*
G02*
X112909999Y-59310000I249999J0D01*
G01*
X113560001Y-59310000D01*
G75*
G02*
X113810000Y-59559999I0J-249999D01*
G01*
X113810000Y-60860001D01*
G75*
G02*
X113560001Y-61110000I-249999J0D01*
G01*
X112909999Y-61110000D01*
G75*
G02*
X112660000Y-60860001I0J249999D01*
G01*
G37*
%TD.AperFunction*%
%TO.P,CC10,1*%
%TO.N,GND*%
%TA.AperFunction,SMDPad,CuDef*%
G36*
G01*
X109710000Y-60860001D02*
X109710000Y-59559999D01*
G75*
G02*
X109959999Y-59310000I249999J0D01*
G01*
X110610001Y-59310000D01*
G75*
G02*
X110860000Y-59559999I0J-249999D01*
G01*
X110860000Y-60860001D01*
G75*
G02*
X110610001Y-61110000I-249999J0D01*
G01*
X109959999Y-61110000D01*
G75*
G02*
X109710000Y-60860001I0J249999D01*
G01*
G37*
%TD.AperFunction*%
%TD*%
D12*
%TO.P,Q1,3*%
%TO.N,VCC*%
X125920000Y-65250000D03*
%TO.P,Q1,2*%
%TO.N,Net-(Q1-Pad2)*%
X126570000Y-67250000D03*
%TO.P,Q1,1*%
%TO.N,Net-(Q1-Pad1)*%
X125270000Y-67250000D03*
%TD*%
%TO.P,J3,3*%
%TO.N,N/C*%
%TA.AperFunction,ComponentPad*%
G36*
G01*
X107201000Y-50114000D02*
X108951000Y-50114000D01*
G75*
G02*
X109826000Y-50989000I0J-875000D01*
G01*
X109826000Y-52739000D01*
G75*
G02*
X108951000Y-53614000I-875000J0D01*
G01*
X107201000Y-53614000D01*
G75*
G02*
X106326000Y-52739000I0J875000D01*
G01*
X106326000Y-50989000D01*
G75*
G02*
X107201000Y-50114000I875000J0D01*
G01*
G37*
%TD.AperFunction*%
%TO.P,J3,2*%
%TO.N,GND*%
%TA.AperFunction,ComponentPad*%
G36*
G01*
X111776000Y-47364000D02*
X113776000Y-47364000D01*
G75*
G02*
X114526000Y-48114000I0J-750000D01*
G01*
X114526000Y-49614000D01*
G75*
G02*
X113776000Y-50364000I-750000J0D01*
G01*
X111776000Y-50364000D01*
G75*
G02*
X111026000Y-49614000I0J750000D01*
G01*
X111026000Y-48114000D01*
G75*
G02*
X111776000Y-47364000I750000J0D01*
G01*
G37*
%TD.AperFunction*%
D13*
%TO.P,J3,1*%
%TO.N,VCC*%
X112776000Y-54864000D03*
%TD*%
%TO.P,CC1,1*%
%TO.N,Net-(CC1-Pad1)*%
%TA.AperFunction,SMDPad,CuDef*%
G36*
G01*
X87450000Y-69055000D02*
X87450000Y-68105000D01*
G75*
G02*
X87700000Y-67855000I250000J0D01*
G01*
X88200000Y-67855000D01*
G75*
G02*
X88450000Y-68105000I0J-250000D01*
G01*
X88450000Y-69055000D01*
G75*
G02*
X88200000Y-69305000I-250000J0D01*
G01*
X87700000Y-69305000D01*
G75*
G02*
X87450000Y-69055000I0J250000D01*
G01*
G37*
%TD.AperFunction*%
%TO.P,CC1,2*%
%TO.N,Net-(CC1-Pad2)*%
%TA.AperFunction,SMDPad,CuDef*%
G36*
G01*
X89350000Y-69055000D02*
X89350000Y-68105000D01*
G75*
G02*
X89600000Y-67855000I250000J0D01*
G01*
X90100000Y-67855000D01*
G75*
G02*
X90350000Y-68105000I0J-250000D01*
G01*
X90350000Y-69055000D01*
G75*
G02*
X90100000Y-69305000I-250000J0D01*
G01*
X89600000Y-69305000D01*
G75*
G02*
X89350000Y-69055000I0J250000D01*
G01*
G37*
%TD.AperFunction*%
%TD*%
%TO.P,CC2,2*%
%TO.N,Net-(CC1-Pad2)*%
%TA.AperFunction,SMDPad,CuDef*%
G36*
G01*
X97061000Y-68080000D02*
X98011000Y-68080000D01*
G75*
G02*
X98261000Y-68330000I0J-250000D01*
G01*
X98261000Y-68830000D01*
G75*
G02*
X98011000Y-69080000I-250000J0D01*
G01*
X97061000Y-69080000D01*
G75*
G02*
X96811000Y-68830000I0J250000D01*
G01*
X96811000Y-68330000D01*
G75*
G02*
X97061000Y-68080000I250000J0D01*
G01*
G37*
%TD.AperFunction*%
%TO.P,CC2,1*%
%TO.N,Net-(CC2-Pad1)*%
%TA.AperFunction,SMDPad,CuDef*%
G36*
G01*
X97061000Y-66180000D02*
X98011000Y-66180000D01*
G75*
G02*
X98261000Y-66430000I0J-250000D01*
G01*
X98261000Y-66930000D01*
G75*
G02*
X98011000Y-67180000I-250000J0D01*
G01*
X97061000Y-67180000D01*
G75*
G02*
X96811000Y-66930000I0J250000D01*
G01*
X96811000Y-66430000D01*
G75*
G02*
X97061000Y-66180000I250000J0D01*
G01*
G37*
%TD.AperFunction*%
%TD*%
%TO.P,CC3,1*%
%TO.N,Net-(CC3-Pad1)*%
%TA.AperFunction,SMDPad,CuDef*%
G36*
G01*
X107516000Y-67785000D02*
X107516000Y-66835000D01*
G75*
G02*
X107766000Y-66585000I250000J0D01*
G01*
X108266000Y-66585000D01*
G75*
G02*
X108516000Y-66835000I0J-250000D01*
G01*
X108516000Y-67785000D01*
G75*
G02*
X108266000Y-68035000I-250000J0D01*
G01*
X107766000Y-68035000D01*
G75*
G02*
X107516000Y-67785000I0J250000D01*
G01*
G37*
%TD.AperFunction*%
%TO.P,CC3,2*%
%TO.N,Net-(CC3-Pad2)*%
%TA.AperFunction,SMDPad,CuDef*%
G36*
G01*
X109416000Y-67785000D02*
X109416000Y-66835000D01*
G75*
G02*
X109666000Y-66585000I250000J0D01*
G01*
X110166000Y-66585000D01*
G75*
G02*
X110416000Y-66835000I0J-250000D01*
G01*
X110416000Y-67785000D01*
G75*
G02*
X110166000Y-68035000I-250000J0D01*
G01*
X109666000Y-68035000D01*
G75*
G02*
X109416000Y-67785000I0J250000D01*
G01*
G37*
%TD.AperFunction*%
%TD*%
%TO.P,CC4,2*%
%TO.N,GND*%
%TA.AperFunction,SMDPad,CuDef*%
G36*
G01*
X123411000Y-60764000D02*
X122461000Y-60764000D01*
G75*
G02*
X122211000Y-60514000I0J250000D01*
G01*
X122211000Y-60014000D01*
G75*
G02*
X122461000Y-59764000I250000J0D01*
G01*
X123411000Y-59764000D01*
G75*
G02*
X123661000Y-60014000I0J-250000D01*
G01*
X123661000Y-60514000D01*
G75*
G02*
X123411000Y-60764000I-250000J0D01*
G01*
G37*
%TD.AperFunction*%
%TO.P,CC4,1*%
%TO.N,VCC*%
%TA.AperFunction,SMDPad,CuDef*%
G36*
G01*
X123411000Y-62664000D02*
X122461000Y-62664000D01*
G75*
G02*
X122211000Y-62414000I0J250000D01*
G01*
X122211000Y-61914000D01*
G75*
G02*
X122461000Y-61664000I250000J0D01*
G01*
X123411000Y-61664000D01*
G75*
G02*
X123661000Y-61914000I0J-250000D01*
G01*
X123661000Y-62414000D01*
G75*
G02*
X123411000Y-62664000I-250000J0D01*
G01*
G37*
%TD.AperFunction*%
%TD*%
%TO.P,CC5,1*%
%TO.N,Net-(CC5-Pad1)*%
%TA.AperFunction,SMDPad,CuDef*%
G36*
G01*
X130197000Y-63425000D02*
X130197000Y-62475000D01*
G75*
G02*
X130447000Y-62225000I250000J0D01*
G01*
X130947000Y-62225000D01*
G75*
G02*
X131197000Y-62475000I0J-250000D01*
G01*
X131197000Y-63425000D01*
G75*
G02*
X130947000Y-63675000I-250000J0D01*
G01*
X130447000Y-63675000D01*
G75*
G02*
X130197000Y-63425000I0J250000D01*
G01*
G37*
%TD.AperFunction*%
%TO.P,CC5,2*%
%TO.N,Net-(CC5-Pad2)*%
%TA.AperFunction,SMDPad,CuDef*%
G36*
G01*
X132097000Y-63425000D02*
X132097000Y-62475000D01*
G75*
G02*
X132347000Y-62225000I250000J0D01*
G01*
X132847000Y-62225000D01*
G75*
G02*
X133097000Y-62475000I0J-250000D01*
G01*
X133097000Y-63425000D01*
G75*
G02*
X132847000Y-63675000I-250000J0D01*
G01*
X132347000Y-63675000D01*
G75*
G02*
X132097000Y-63425000I0J250000D01*
G01*
G37*
%TD.AperFunction*%
%TD*%
%TO.P,Csh2,2*%
%TO.N,Net-(Csh2-Pad2)*%
%TA.AperFunction,SMDPad,CuDef*%
G36*
G01*
X123157000Y-71620000D02*
X122207000Y-71620000D01*
G75*
G02*
X121957000Y-71370000I0J250000D01*
G01*
X121957000Y-70870000D01*
G75*
G02*
X122207000Y-70620000I250000J0D01*
G01*
X123157000Y-70620000D01*
G75*
G02*
X123407000Y-70870000I0J-250000D01*
G01*
X123407000Y-71370000D01*
G75*
G02*
X123157000Y-71620000I-250000J0D01*
G01*
G37*
%TD.AperFunction*%
%TO.P,Csh2,1*%
%TO.N,GND*%
%TA.AperFunction,SMDPad,CuDef*%
G36*
G01*
X123157000Y-73520000D02*
X122207000Y-73520000D01*
G75*
G02*
X121957000Y-73270000I0J250000D01*
G01*
X121957000Y-72770000D01*
G75*
G02*
X122207000Y-72520000I250000J0D01*
G01*
X123157000Y-72520000D01*
G75*
G02*
X123407000Y-72770000I0J-250000D01*
G01*
X123407000Y-73270000D01*
G75*
G02*
X123157000Y-73520000I-250000J0D01*
G01*
G37*
%TD.AperFunction*%
%TD*%
%TO.P,LFB1,1*%
%TO.N,Net-(LFB1-Pad1)*%
%TA.AperFunction,SMDPad,CuDef*%
G36*
G01*
X102418500Y-59943750D02*
X102418500Y-60706250D01*
G75*
G02*
X102199750Y-60925000I-218750J0D01*
G01*
X101762250Y-60925000D01*
G75*
G02*
X101543500Y-60706250I0J218750D01*
G01*
X101543500Y-59943750D01*
G75*
G02*
X101762250Y-59725000I218750J0D01*
G01*
X102199750Y-59725000D01*
G75*
G02*
X102418500Y-59943750I0J-218750D01*
G01*
G37*
%TD.AperFunction*%
%TO.P,LFB1,2*%
%TO.N,Net-(LFB1-Pad2)*%
%TA.AperFunction,SMDPad,CuDef*%
G36*
G01*
X100293500Y-59943750D02*
X100293500Y-60706250D01*
G75*
G02*
X100074750Y-60925000I-218750J0D01*
G01*
X99637250Y-60925000D01*
G75*
G02*
X99418500Y-60706250I0J218750D01*
G01*
X99418500Y-59943750D01*
G75*
G02*
X99637250Y-59725000I218750J0D01*
G01*
X100074750Y-59725000D01*
G75*
G02*
X100293500Y-59943750I0J-218750D01*
G01*
G37*
%TD.AperFunction*%
%TD*%
%TO.P,RB2,2*%
%TO.N,VCC*%
%TA.AperFunction,SMDPad,CuDef*%
G36*
G01*
X115512002Y-65997500D02*
X114611998Y-65997500D01*
G75*
G02*
X114362000Y-65747502I0J249998D01*
G01*
X114362000Y-65222498D01*
G75*
G02*
X114611998Y-64972500I249998J0D01*
G01*
X115512002Y-64972500D01*
G75*
G02*
X115762000Y-65222498I0J-249998D01*
G01*
X115762000Y-65747502D01*
G75*
G02*
X115512002Y-65997500I-249998J0D01*
G01*
G37*
%TD.AperFunction*%
%TO.P,RB2,1*%
%TO.N,Net-(CC3-Pad2)*%
%TA.AperFunction,SMDPad,CuDef*%
G36*
G01*
X115512002Y-67822500D02*
X114611998Y-67822500D01*
G75*
G02*
X114362000Y-67572502I0J249998D01*
G01*
X114362000Y-67047498D01*
G75*
G02*
X114611998Y-66797500I249998J0D01*
G01*
X115512002Y-66797500D01*
G75*
G02*
X115762000Y-67047498I0J-249998D01*
G01*
X115762000Y-67572502D01*
G75*
G02*
X115512002Y-67822500I-249998J0D01*
G01*
G37*
%TD.AperFunction*%
%TD*%
%TO.P,RB1A1,2*%
%TO.N,VCC*%
%TA.AperFunction,SMDPad,CuDef*%
G36*
G01*
X92906002Y-67267500D02*
X92005998Y-67267500D01*
G75*
G02*
X91756000Y-67017502I0J249998D01*
G01*
X91756000Y-66492498D01*
G75*
G02*
X92005998Y-66242500I249998J0D01*
G01*
X92906002Y-66242500D01*
G75*
G02*
X93156000Y-66492498I0J-249998D01*
G01*
X93156000Y-67017502D01*
G75*
G02*
X92906002Y-67267500I-249998J0D01*
G01*
G37*
%TD.AperFunction*%
%TO.P,RB1A1,1*%
%TO.N,Net-(CC1-Pad2)*%
%TA.AperFunction,SMDPad,CuDef*%
G36*
G01*
X92906002Y-69092500D02*
X92005998Y-69092500D01*
G75*
G02*
X91756000Y-68842502I0J249998D01*
G01*
X91756000Y-68317498D01*
G75*
G02*
X92005998Y-68067500I249998J0D01*
G01*
X92906002Y-68067500D01*
G75*
G02*
X93156000Y-68317498I0J-249998D01*
G01*
X93156000Y-68842502D01*
G75*
G02*
X92906002Y-69092500I-249998J0D01*
G01*
G37*
%TD.AperFunction*%
%TD*%
%TO.P,RC1,1*%
%TO.N,Net-(CC3-Pad1)*%
%TA.AperFunction,SMDPad,CuDef*%
G36*
G01*
X106368002Y-67822500D02*
X105467998Y-67822500D01*
G75*
G02*
X105218000Y-67572502I0J249998D01*
G01*
X105218000Y-67047498D01*
G75*
G02*
X105467998Y-66797500I249998J0D01*
G01*
X106368002Y-66797500D01*
G75*
G02*
X106618000Y-67047498I0J-249998D01*
G01*
X106618000Y-67572502D01*
G75*
G02*
X106368002Y-67822500I-249998J0D01*
G01*
G37*
%TD.AperFunction*%
%TO.P,RC1,2*%
%TO.N,VCC*%
%TA.AperFunction,SMDPad,CuDef*%
G36*
G01*
X106368002Y-65997500D02*
X105467998Y-65997500D01*
G75*
G02*
X105218000Y-65747502I0J249998D01*
G01*
X105218000Y-65222498D01*
G75*
G02*
X105467998Y-64972500I249998J0D01*
G01*
X106368002Y-64972500D01*
G75*
G02*
X106618000Y-65222498I0J-249998D01*
G01*
X106618000Y-65747502D01*
G75*
G02*
X106368002Y-65997500I-249998J0D01*
G01*
G37*
%TD.AperFunction*%
%TD*%
%TO.P,RE1,1*%
%TO.N,GND*%
%TA.AperFunction,SMDPad,CuDef*%
G36*
G01*
X96716002Y-76632500D02*
X95815998Y-76632500D01*
G75*
G02*
X95566000Y-76382502I0J249998D01*
G01*
X95566000Y-75857498D01*
G75*
G02*
X95815998Y-75607500I249998J0D01*
G01*
X96716002Y-75607500D01*
G75*
G02*
X96966000Y-75857498I0J-249998D01*
G01*
X96966000Y-76382502D01*
G75*
G02*
X96716002Y-76632500I-249998J0D01*
G01*
G37*
%TD.AperFunction*%
%TO.P,RE1,2*%
%TO.N,Net-(RE1-Pad2)*%
%TA.AperFunction,SMDPad,CuDef*%
G36*
G01*
X96716002Y-74807500D02*
X95815998Y-74807500D01*
G75*
G02*
X95566000Y-74557502I0J249998D01*
G01*
X95566000Y-74032498D01*
G75*
G02*
X95815998Y-73782500I249998J0D01*
G01*
X96716002Y-73782500D01*
G75*
G02*
X96966000Y-74032498I0J-249998D01*
G01*
X96966000Y-74557502D01*
G75*
G02*
X96716002Y-74807500I-249998J0D01*
G01*
G37*
%TD.AperFunction*%
%TD*%
%TO.P,RE12,2*%
%TO.N,Net-(RE1-Pad2)*%
%TA.AperFunction,SMDPad,CuDef*%
G36*
G01*
X99891002Y-74807500D02*
X98990998Y-74807500D01*
G75*
G02*
X98741000Y-74557502I0J249998D01*
G01*
X98741000Y-74032498D01*
G75*
G02*
X98990998Y-73782500I249998J0D01*
G01*
X99891002Y-73782500D01*
G75*
G02*
X100141000Y-74032498I0J-249998D01*
G01*
X100141000Y-74557502D01*
G75*
G02*
X99891002Y-74807500I-249998J0D01*
G01*
G37*
%TD.AperFunction*%
%TO.P,RE12,1*%
%TO.N,GND*%
%TA.AperFunction,SMDPad,CuDef*%
G36*
G01*
X99891002Y-76632500D02*
X98990998Y-76632500D01*
G75*
G02*
X98741000Y-76382502I0J249998D01*
G01*
X98741000Y-75857498D01*
G75*
G02*
X98990998Y-75607500I249998J0D01*
G01*
X99891002Y-75607500D01*
G75*
G02*
X100141000Y-75857498I0J-249998D01*
G01*
X100141000Y-76382502D01*
G75*
G02*
X99891002Y-76632500I-249998J0D01*
G01*
G37*
%TD.AperFunction*%
%TD*%
%TO.P,RE13,1*%
%TO.N,GND*%
%TA.AperFunction,SMDPad,CuDef*%
G36*
G01*
X103701002Y-76632500D02*
X102800998Y-76632500D01*
G75*
G02*
X102551000Y-76382502I0J249998D01*
G01*
X102551000Y-75857498D01*
G75*
G02*
X102800998Y-75607500I249998J0D01*
G01*
X103701002Y-75607500D01*
G75*
G02*
X103951000Y-75857498I0J-249998D01*
G01*
X103951000Y-76382502D01*
G75*
G02*
X103701002Y-76632500I-249998J0D01*
G01*
G37*
%TD.AperFunction*%
%TO.P,RE13,2*%
%TO.N,Net-(RE1-Pad2)*%
%TA.AperFunction,SMDPad,CuDef*%
G36*
G01*
X103701002Y-74807500D02*
X102800998Y-74807500D01*
G75*
G02*
X102551000Y-74557502I0J249998D01*
G01*
X102551000Y-74032498D01*
G75*
G02*
X102800998Y-73782500I249998J0D01*
G01*
X103701002Y-73782500D01*
G75*
G02*
X103951000Y-74032498I0J-249998D01*
G01*
X103951000Y-74557502D01*
G75*
G02*
X103701002Y-74807500I-249998J0D01*
G01*
G37*
%TD.AperFunction*%
%TD*%
%TO.P,RE14,1*%
%TO.N,GND*%
%TA.AperFunction,SMDPad,CuDef*%
G36*
G01*
X107511002Y-76632500D02*
X106610998Y-76632500D01*
G75*
G02*
X106361000Y-76382502I0J249998D01*
G01*
X106361000Y-75857498D01*
G75*
G02*
X106610998Y-75607500I249998J0D01*
G01*
X107511002Y-75607500D01*
G75*
G02*
X107761000Y-75857498I0J-249998D01*
G01*
X107761000Y-76382502D01*
G75*
G02*
X107511002Y-76632500I-249998J0D01*
G01*
G37*
%TD.AperFunction*%
%TO.P,RE14,2*%
%TO.N,Net-(RE1-Pad2)*%
%TA.AperFunction,SMDPad,CuDef*%
G36*
G01*
X107511002Y-74807500D02*
X106610998Y-74807500D01*
G75*
G02*
X106361000Y-74557502I0J249998D01*
G01*
X106361000Y-74032498D01*
G75*
G02*
X106610998Y-73782500I249998J0D01*
G01*
X107511002Y-73782500D01*
G75*
G02*
X107761000Y-74032498I0J-249998D01*
G01*
X107761000Y-74557502D01*
G75*
G02*
X107511002Y-74807500I-249998J0D01*
G01*
G37*
%TD.AperFunction*%
%TD*%
%TO.P,RE15,2*%
%TO.N,Net-(RE1-Pad2)*%
%TA.AperFunction,SMDPad,CuDef*%
G36*
G01*
X111321002Y-74807500D02*
X110420998Y-74807500D01*
G75*
G02*
X110171000Y-74557502I0J249998D01*
G01*
X110171000Y-74032498D01*
G75*
G02*
X110420998Y-73782500I249998J0D01*
G01*
X111321002Y-73782500D01*
G75*
G02*
X111571000Y-74032498I0J-249998D01*
G01*
X111571000Y-74557502D01*
G75*
G02*
X111321002Y-74807500I-249998J0D01*
G01*
G37*
%TD.AperFunction*%
%TO.P,RE15,1*%
%TO.N,GND*%
%TA.AperFunction,SMDPad,CuDef*%
G36*
G01*
X111321002Y-76632500D02*
X110420998Y-76632500D01*
G75*
G02*
X110171000Y-76382502I0J249998D01*
G01*
X110171000Y-75857498D01*
G75*
G02*
X110420998Y-75607500I249998J0D01*
G01*
X111321002Y-75607500D01*
G75*
G02*
X111571000Y-75857498I0J-249998D01*
G01*
X111571000Y-76382502D01*
G75*
G02*
X111321002Y-76632500I-249998J0D01*
G01*
G37*
%TD.AperFunction*%
%TD*%
%TO.P,RE21,1*%
%TO.N,GND*%
%TA.AperFunction,SMDPad,CuDef*%
G36*
G01*
X133659500Y-68664998D02*
X133659500Y-69565002D01*
G75*
G02*
X133409502Y-69815000I-249998J0D01*
G01*
X132884498Y-69815000D01*
G75*
G02*
X132634500Y-69565002I0J249998D01*
G01*
X132634500Y-68664998D01*
G75*
G02*
X132884498Y-68415000I249998J0D01*
G01*
X133409502Y-68415000D01*
G75*
G02*
X133659500Y-68664998I0J-249998D01*
G01*
G37*
%TD.AperFunction*%
%TO.P,RE21,2*%
%TO.N,Net-(Q1-Pad2)*%
%TA.AperFunction,SMDPad,CuDef*%
G36*
G01*
X131834500Y-68664998D02*
X131834500Y-69565002D01*
G75*
G02*
X131584502Y-69815000I-249998J0D01*
G01*
X131059498Y-69815000D01*
G75*
G02*
X130809500Y-69565002I0J249998D01*
G01*
X130809500Y-68664998D01*
G75*
G02*
X131059498Y-68415000I249998J0D01*
G01*
X131584502Y-68415000D01*
G75*
G02*
X131834500Y-68664998I0J-249998D01*
G01*
G37*
%TD.AperFunction*%
%TD*%
%TO.P,RE22,2*%
%TO.N,Net-(Q1-Pad2)*%
%TA.AperFunction,SMDPad,CuDef*%
G36*
G01*
X131834500Y-65489998D02*
X131834500Y-66390002D01*
G75*
G02*
X131584502Y-66640000I-249998J0D01*
G01*
X131059498Y-66640000D01*
G75*
G02*
X130809500Y-66390002I0J249998D01*
G01*
X130809500Y-65489998D01*
G75*
G02*
X131059498Y-65240000I249998J0D01*
G01*
X131584502Y-65240000D01*
G75*
G02*
X131834500Y-65489998I0J-249998D01*
G01*
G37*
%TD.AperFunction*%
%TO.P,RE22,1*%
%TO.N,GND*%
%TA.AperFunction,SMDPad,CuDef*%
G36*
G01*
X133659500Y-65489998D02*
X133659500Y-66390002D01*
G75*
G02*
X133409502Y-66640000I-249998J0D01*
G01*
X132884498Y-66640000D01*
G75*
G02*
X132634500Y-66390002I0J249998D01*
G01*
X132634500Y-65489998D01*
G75*
G02*
X132884498Y-65240000I249998J0D01*
G01*
X133409502Y-65240000D01*
G75*
G02*
X133659500Y-65489998I0J-249998D01*
G01*
G37*
%TD.AperFunction*%
%TD*%
%TO.P,RFB1,2*%
%TO.N,Net-(LFB1-Pad2)*%
%TA.AperFunction,SMDPad,CuDef*%
G36*
G01*
X97986002Y-62742500D02*
X97085998Y-62742500D01*
G75*
G02*
X96836000Y-62492502I0J249998D01*
G01*
X96836000Y-61967498D01*
G75*
G02*
X97085998Y-61717500I249998J0D01*
G01*
X97986002Y-61717500D01*
G75*
G02*
X98236000Y-61967498I0J-249998D01*
G01*
X98236000Y-62492502D01*
G75*
G02*
X97986002Y-62742500I-249998J0D01*
G01*
G37*
%TD.AperFunction*%
%TO.P,RFB1,1*%
%TO.N,Net-(CC2-Pad1)*%
%TA.AperFunction,SMDPad,CuDef*%
G36*
G01*
X97986002Y-64567500D02*
X97085998Y-64567500D01*
G75*
G02*
X96836000Y-64317502I0J249998D01*
G01*
X96836000Y-63792498D01*
G75*
G02*
X97085998Y-63542500I249998J0D01*
G01*
X97986002Y-63542500D01*
G75*
G02*
X98236000Y-63792498I0J-249998D01*
G01*
X98236000Y-64317502D01*
G75*
G02*
X97986002Y-64567500I-249998J0D01*
G01*
G37*
%TD.AperFunction*%
%TD*%
%TO.P,RFB2,1*%
%TO.N,Net-(LFB1-Pad1)*%
%TA.AperFunction,SMDPad,CuDef*%
G36*
G01*
X102800998Y-62987500D02*
X103701002Y-62987500D01*
G75*
G02*
X103951000Y-63237498I0J-249998D01*
G01*
X103951000Y-63762502D01*
G75*
G02*
X103701002Y-64012500I-249998J0D01*
G01*
X102800998Y-64012500D01*
G75*
G02*
X102551000Y-63762502I0J249998D01*
G01*
X102551000Y-63237498D01*
G75*
G02*
X102800998Y-62987500I249998J0D01*
G01*
G37*
%TD.AperFunction*%
%TO.P,RFB2,2*%
%TO.N,Net-(CC3-Pad1)*%
%TA.AperFunction,SMDPad,CuDef*%
G36*
G01*
X102800998Y-64812500D02*
X103701002Y-64812500D01*
G75*
G02*
X103951000Y-65062498I0J-249998D01*
G01*
X103951000Y-65587502D01*
G75*
G02*
X103701002Y-65837500I-249998J0D01*
G01*
X102800998Y-65837500D01*
G75*
G02*
X102551000Y-65587502I0J249998D01*
G01*
X102551000Y-65062498D01*
G75*
G02*
X102800998Y-64812500I249998J0D01*
G01*
G37*
%TD.AperFunction*%
%TD*%
%TO.P,Ri2,1*%
%TO.N,Net-(Q1-Pad1)*%
%TA.AperFunction,SMDPad,CuDef*%
G36*
G01*
X120574500Y-66859998D02*
X120574500Y-67760002D01*
G75*
G02*
X120324502Y-68010000I-249998J0D01*
G01*
X119799498Y-68010000D01*
G75*
G02*
X119549500Y-67760002I0J249998D01*
G01*
X119549500Y-66859998D01*
G75*
G02*
X119799498Y-66610000I249998J0D01*
G01*
X120324502Y-66610000D01*
G75*
G02*
X120574500Y-66859998I0J-249998D01*
G01*
G37*
%TD.AperFunction*%
%TO.P,Ri2,2*%
%TO.N,Net-(CC3-Pad2)*%
%TA.AperFunction,SMDPad,CuDef*%
G36*
G01*
X118749500Y-66859998D02*
X118749500Y-67760002D01*
G75*
G02*
X118499502Y-68010000I-249998J0D01*
G01*
X117974498Y-68010000D01*
G75*
G02*
X117724500Y-67760002I0J249998D01*
G01*
X117724500Y-66859998D01*
G75*
G02*
X117974498Y-66610000I249998J0D01*
G01*
X118499502Y-66610000D01*
G75*
G02*
X118749500Y-66859998I0J-249998D01*
G01*
G37*
%TD.AperFunction*%
%TD*%
%TO.P,Ro1,1*%
%TO.N,Net-(CC5-Pad1)*%
%TA.AperFunction,SMDPad,CuDef*%
G36*
G01*
X128327998Y-64869000D02*
X129228002Y-64869000D01*
G75*
G02*
X129478000Y-65118998I0J-249998D01*
G01*
X129478000Y-65644002D01*
G75*
G02*
X129228002Y-65894000I-249998J0D01*
G01*
X128327998Y-65894000D01*
G75*
G02*
X128078000Y-65644002I0J249998D01*
G01*
X128078000Y-65118998D01*
G75*
G02*
X128327998Y-64869000I249998J0D01*
G01*
G37*
%TD.AperFunction*%
%TO.P,Ro1,2*%
%TO.N,Net-(Q1-Pad2)*%
%TA.AperFunction,SMDPad,CuDef*%
G36*
G01*
X128327998Y-66694000D02*
X129228002Y-66694000D01*
G75*
G02*
X129478000Y-66943998I0J-249998D01*
G01*
X129478000Y-67469002D01*
G75*
G02*
X129228002Y-67719000I-249998J0D01*
G01*
X128327998Y-67719000D01*
G75*
G02*
X128078000Y-67469002I0J249998D01*
G01*
X128078000Y-66943998D01*
G75*
G02*
X128327998Y-66694000I249998J0D01*
G01*
G37*
%TD.AperFunction*%
%TD*%
%TO.P,Rsh2,2*%
%TO.N,Net-(Csh2-Pad2)*%
%TA.AperFunction,SMDPad,CuDef*%
G36*
G01*
X122231998Y-68622500D02*
X123132002Y-68622500D01*
G75*
G02*
X123382000Y-68872498I0J-249998D01*
G01*
X123382000Y-69397502D01*
G75*
G02*
X123132002Y-69647500I-249998J0D01*
G01*
X122231998Y-69647500D01*
G75*
G02*
X121982000Y-69397502I0J249998D01*
G01*
X121982000Y-68872498D01*
G75*
G02*
X122231998Y-68622500I249998J0D01*
G01*
G37*
%TD.AperFunction*%
%TO.P,Rsh2,1*%
%TO.N,Net-(Q1-Pad1)*%
%TA.AperFunction,SMDPad,CuDef*%
G36*
G01*
X122231998Y-66797500D02*
X123132002Y-66797500D01*
G75*
G02*
X123382000Y-67047498I0J-249998D01*
G01*
X123382000Y-67572502D01*
G75*
G02*
X123132002Y-67822500I-249998J0D01*
G01*
X122231998Y-67822500D01*
G75*
G02*
X121982000Y-67572502I0J249998D01*
G01*
X121982000Y-67047498D01*
G75*
G02*
X122231998Y-66797500I249998J0D01*
G01*
G37*
%TD.AperFunction*%
%TD*%
D14*
%TO.P,U1,2*%
%TO.N,Net-(CC1-Pad2)*%
X101951000Y-68910000D03*
D15*
%TO.P,U1,1*%
%TO.N,Net-(RE1-Pad2)*%
X103101000Y-68910000D03*
D14*
%TO.P,U1,4*%
%TO.N,Net-(CC3-Pad1)*%
X103251000Y-67310000D03*
%TO.P,U1,3*%
%TO.N,Net-(RE1-Pad2)*%
X101951000Y-67310000D03*
%TD*%
D16*
%TO.N,GND*%
X83220550Y-48112905D03*
X83220550Y-52112905D03*
X83220550Y-60112905D03*
X83220550Y-74112905D03*
X83220550Y-78112905D03*
X84220550Y-63112905D03*
X85220550Y-50112905D03*
X86220550Y-53112905D03*
X86220550Y-61112905D03*
X86220550Y-75112905D03*
X87220550Y-48112905D03*
X87220550Y-64112905D03*
X87220550Y-71112905D03*
X88220550Y-51112905D03*
X88220550Y-55112905D03*
X88220550Y-59112905D03*
X89220550Y-62112905D03*
X89220550Y-66112905D03*
X89220550Y-73112905D03*
X89220550Y-77112905D03*
X90220550Y-49112905D03*
X90220550Y-53112905D03*
X90220550Y-57112905D03*
X90220550Y-80112905D03*
X91220550Y-60112905D03*
X91220550Y-64112905D03*
X91220550Y-70112905D03*
X91220550Y-75112905D03*
X92220550Y-51112905D03*
X92220550Y-55112905D03*
X92220550Y-78112905D03*
X93220550Y-48112905D03*
X93220550Y-58112905D03*
X93220550Y-72112905D03*
X94220550Y-65112905D03*
X94220550Y-80112905D03*
X95220550Y-70112905D03*
X96220550Y-78112905D03*
X97220550Y-72112905D03*
X98220550Y-80112905D03*
X99220550Y-63112905D03*
X99220550Y-67112905D03*
X100220550Y-70112905D03*
X101220550Y-65112905D03*
X101092000Y-78232000D03*
X102220550Y-80112905D03*
X105220550Y-69112905D03*
X105156000Y-78232000D03*
X106220550Y-59112905D03*
X106220550Y-80112905D03*
X107220550Y-48112905D03*
X107220550Y-56112905D03*
X107220550Y-71112905D03*
X108220550Y-61112905D03*
X108220550Y-65112905D03*
X108220550Y-78112905D03*
X109220550Y-58112905D03*
X109220550Y-69112905D03*
X110220550Y-80112905D03*
X111220550Y-64112905D03*
X111220550Y-71112905D03*
X112220550Y-78112905D03*
X112522000Y-65786000D03*
X113220550Y-73112905D03*
X114220550Y-69112905D03*
X114220550Y-76112905D03*
X114220550Y-80112905D03*
X115220550Y-59112905D03*
X116220550Y-48112905D03*
X116220550Y-52112905D03*
X116220550Y-56112905D03*
X116220550Y-71112905D03*
X116220550Y-78112905D03*
X117220550Y-74112905D03*
X118220550Y-50112905D03*
X118220550Y-54112905D03*
X118220550Y-58112905D03*
X118220550Y-69112905D03*
X118220550Y-80112905D03*
X119220550Y-72112905D03*
X119220550Y-76112905D03*
X120220550Y-48112905D03*
X120220550Y-52112905D03*
X120220550Y-56112905D03*
X120220550Y-60112905D03*
X121220550Y-78112905D03*
X122220550Y-50112905D03*
X122220550Y-54112905D03*
X122220550Y-58112905D03*
X123220550Y-76112905D03*
X123220550Y-80112905D03*
X124220550Y-48112905D03*
X124220550Y-52112905D03*
X124220550Y-56112905D03*
X125220550Y-69112905D03*
X125220550Y-73112905D03*
X125220550Y-78112905D03*
X126220550Y-50112905D03*
X126220550Y-54112905D03*
X126220550Y-58112905D03*
X127220550Y-61112905D03*
X127220550Y-71112905D03*
X127220550Y-75112905D03*
X127220550Y-80112905D03*
X128220550Y-48112905D03*
X128220550Y-52112905D03*
X128220550Y-56112905D03*
X129220550Y-59112905D03*
X129220550Y-73112905D03*
X129220550Y-77112905D03*
X130220550Y-50112905D03*
X130220550Y-54112905D03*
X131220550Y-57112905D03*
X131220550Y-61112905D03*
X131220550Y-71112905D03*
X131220550Y-75112905D03*
X131220550Y-79112905D03*
X132220550Y-48112905D03*
X132220550Y-52112905D03*
X133220550Y-55112905D03*
X133220550Y-59112905D03*
X133220550Y-73112905D03*
X134220550Y-50112905D03*
X135220550Y-53112905D03*
X135220550Y-57112905D03*
X135220550Y-61112905D03*
X135220550Y-68112905D03*
X135220550Y-75112905D03*
X136220550Y-48112905D03*
X136220550Y-71112905D03*
X137220550Y-51112905D03*
X137220550Y-55112905D03*
X137220550Y-80112905D03*
X138220550Y-69112905D03*
X138220550Y-73112905D03*
X138220550Y-77112905D03*
X139220550Y-49112905D03*
X139220550Y-53112905D03*
X139220550Y-57112905D03*
X104220550Y-57112905D03*
X104220550Y-53112905D03*
X104220550Y-49112905D03*
X95220550Y-50112905D03*
X94220550Y-53112905D03*
X95220550Y-56112905D03*
X102220550Y-51112905D03*
X101220550Y-48112905D03*
X97220550Y-48112905D03*
X97220550Y-52112905D03*
X98220550Y-55112905D03*
X100220550Y-57112905D03*
X102220550Y-55112905D03*
X100220550Y-53112905D03*
X99220550Y-50112905D03*
X83220550Y-76112905D03*
X83220550Y-80112905D03*
X85220550Y-48112905D03*
X87220550Y-66112905D03*
X87220550Y-73112905D03*
X88220550Y-53112905D03*
X88220550Y-57112905D03*
X89220550Y-64112905D03*
X89220550Y-71112905D03*
X89220550Y-75112905D03*
X90220550Y-51112905D03*
X90220550Y-55112905D03*
X91220550Y-62112905D03*
X91220550Y-73112905D03*
X92220550Y-53112905D03*
X92220550Y-80112905D03*
X93220550Y-60112905D03*
X93220550Y-70112905D03*
X93220550Y-75112905D03*
X94220550Y-67112905D03*
X95220550Y-48112905D03*
X95220550Y-58112905D03*
X95220550Y-72112905D03*
X96220550Y-54112905D03*
X96220550Y-80112905D03*
X97220550Y-50112905D03*
X97220550Y-70112905D03*
X98220550Y-57112905D03*
X99220550Y-48112905D03*
X99220550Y-65112905D03*
X99220550Y-72112905D03*
X100220550Y-55112905D03*
X100220550Y-80112905D03*
X101220550Y-62112905D03*
X102220550Y-53112905D03*
X102220550Y-57112905D03*
X104220550Y-51112905D03*
X104220550Y-55112905D03*
X104220550Y-80112905D03*
X105220550Y-71112905D03*
X107220550Y-69112905D03*
X108220550Y-80112905D03*
X109220550Y-48112905D03*
X109220550Y-56112905D03*
X109220550Y-71112905D03*
X111220550Y-69112905D03*
X112220550Y-80112905D03*
X113220550Y-71112905D03*
X114220550Y-78112905D03*
X115220550Y-62112905D03*
X115220550Y-73112905D03*
X116220550Y-50112905D03*
X116220550Y-54112905D03*
X116220550Y-69112905D03*
X116220550Y-76112905D03*
X116220550Y-80112905D03*
X117220550Y-64112905D03*
X118220550Y-48112905D03*
X118220550Y-52112905D03*
X118220550Y-56112905D03*
X118220550Y-78112905D03*
X119220550Y-74112905D03*
X120220550Y-50112905D03*
X120220550Y-54112905D03*
X120220550Y-58112905D03*
X120220550Y-65112905D03*
X120220550Y-69112905D03*
X120220550Y-80112905D03*
X121220550Y-76112905D03*
X122220550Y-48112905D03*
X122220550Y-52112905D03*
X122220550Y-56112905D03*
X123220550Y-78112905D03*
X124220550Y-50112905D03*
X124220550Y-54112905D03*
X124220550Y-58112905D03*
X125220550Y-61112905D03*
X125220550Y-71112905D03*
X125220550Y-75112905D03*
X125220550Y-80112905D03*
X126220550Y-48112905D03*
X126220550Y-52112905D03*
X126220550Y-56112905D03*
X127220550Y-63112905D03*
X127220550Y-69112905D03*
X127220550Y-73112905D03*
X127220550Y-77112905D03*
X128220550Y-50112905D03*
X128220550Y-54112905D03*
X129220550Y-61112905D03*
X129220550Y-71112905D03*
X129220550Y-75112905D03*
X129220550Y-79112905D03*
X130220550Y-48112905D03*
X130220550Y-52112905D03*
X131220550Y-59112905D03*
X131220550Y-73112905D03*
X131220550Y-77112905D03*
X132220550Y-50112905D03*
X133220550Y-57112905D03*
X133220550Y-61112905D03*
X133220550Y-71112905D03*
X133220550Y-75112905D03*
X134220550Y-48112905D03*
X135220550Y-55112905D03*
X135220550Y-59112905D03*
X135220550Y-73112905D03*
X137220550Y-53112905D03*
X137220550Y-57112905D03*
X137220550Y-75112905D03*
X138220550Y-71112905D03*
%TD*%
D17*
%TO.N,Net-(CC1-Pad1)*%
X83185000Y-68580000D02*
X87630000Y-68580000D01*
D18*
%TO.N,Net-(CC1-Pad2)*%
X95250000Y-68580000D02*
X89850000Y-68580000D01*
X92456000Y-68580000D02*
X97536000Y-68580000D01*
X101621000Y-68580000D02*
X101951000Y-68910000D01*
X97536000Y-68580000D02*
X101621000Y-68580000D01*
%TO.N,Net-(CC2-Pad1)*%
X97536000Y-66680000D02*
X97536000Y-64055000D01*
%TO.N,Net-(CC3-Pad1)*%
X103251000Y-67310000D02*
X103251000Y-65325000D01*
X103251000Y-67310000D02*
X108077000Y-67310000D01*
%TO.N,Net-(CC3-Pad2)*%
X115062000Y-67310000D02*
X118237000Y-67310000D01*
X109916000Y-67310000D02*
X114871500Y-67310000D01*
%TO.N,GND*%
X94996000Y-76120000D02*
X94996000Y-77379999D01*
X94996000Y-78740000D02*
X94996000Y-77379999D01*
X99441000Y-76120000D02*
X99441000Y-78740000D01*
X103251000Y-76120000D02*
X103251000Y-78740000D01*
X107061000Y-76120000D02*
X107061000Y-78740000D01*
X110871000Y-76120000D02*
X110871000Y-78740000D01*
X122682000Y-73020000D02*
X122682000Y-74930000D01*
%TO.N,VCC*%
X115062000Y-64770000D02*
X115062000Y-65485000D01*
X107569000Y-62865000D02*
X109601000Y-62865000D01*
X108966000Y-62865000D02*
X109601000Y-62865000D01*
X107569000Y-62865000D02*
X107823000Y-62865000D01*
X92456000Y-66755000D02*
X92409000Y-66755000D01*
X92409000Y-66755000D02*
X92202000Y-66548000D01*
X105918000Y-61214000D02*
X105664000Y-60960000D01*
X105664000Y-60960000D02*
X107569000Y-62865000D01*
X105918000Y-65485000D02*
X105918000Y-61214000D01*
X103759000Y-59055000D02*
X105664000Y-60960000D01*
X92456000Y-64135000D02*
X92456000Y-66802000D01*
X103759000Y-59055000D02*
X103251000Y-59055000D01*
X113289000Y-61717000D02*
X113284000Y-61722000D01*
X113284000Y-58674000D02*
X113284000Y-61722000D01*
X113030000Y-62865000D02*
X113284000Y-62611000D01*
X109601000Y-62865000D02*
X113030000Y-62865000D01*
X113284000Y-62357000D02*
X113284000Y-62992000D01*
X113284000Y-61722000D02*
X113284000Y-62357000D01*
X113284000Y-62992000D02*
X115062000Y-64770000D01*
X113284000Y-62357000D02*
X113284000Y-62611000D01*
X113284000Y-58674000D02*
X113284000Y-56134000D01*
D19*
X112830000Y-55680000D02*
X112976000Y-55680000D01*
X112976000Y-55680000D02*
X113284000Y-55988000D01*
D18*
X97536000Y-59055000D02*
X92456000Y-64135000D01*
X103251000Y-59055000D02*
X97536000Y-59055000D01*
X113220000Y-60210000D02*
X115074000Y-60210000D01*
X115074000Y-60210000D02*
X117106000Y-60210000D01*
X117106000Y-60210000D02*
X119126000Y-62230000D01*
X119126000Y-62230000D02*
X122936000Y-62230000D01*
X122936000Y-62230000D02*
X125984000Y-65278000D01*
%TO.N,Net-(CC5-Pad1)*%
X130057000Y-62950000D02*
X130697000Y-62950000D01*
X128787000Y-64220000D02*
X130057000Y-62950000D01*
X128787000Y-65085500D02*
X128787000Y-64220000D01*
D17*
%TO.N,Net-(CC5-Pad2)*%
X139709000Y-62950000D02*
X135010000Y-62950000D01*
X135010000Y-62950000D02*
X132724000Y-62950000D01*
D18*
%TO.N,Net-(LFB1-Pad1)*%
X101981000Y-60325000D02*
X102616000Y-60325000D01*
X103251000Y-60960000D02*
X103251000Y-63500000D01*
X102616000Y-60325000D02*
X103251000Y-60960000D01*
%TO.N,Net-(LFB1-Pad2)*%
X97536000Y-62230000D02*
X97536000Y-61595000D01*
X98806000Y-60325000D02*
X99856000Y-60325000D01*
X97536000Y-61595000D02*
X98806000Y-60325000D01*
%TO.N,Net-(RE1-Pad2)*%
X103101000Y-68460000D02*
X103101000Y-68910000D01*
D19*
X101951000Y-67310000D02*
X103101000Y-68460000D01*
D18*
X103101000Y-74145000D02*
X103251000Y-74295000D01*
X103101000Y-68910000D02*
X103101000Y-74145000D01*
X96266000Y-74295000D02*
X110871000Y-74295000D01*
%TO.N,Net-(Csh2-Pad2)*%
X122682000Y-69135000D02*
X122682000Y-71120000D01*
%TO.N,Net-(Q1-Pad2)*%
X129662000Y-67395000D02*
X131217000Y-65840000D01*
X129662000Y-67395000D02*
X131357000Y-69090000D01*
X126570000Y-67250000D02*
X127580000Y-67250000D01*
X127580000Y-67250000D02*
X128718000Y-67250000D01*
X129473500Y-67206500D02*
X129662000Y-67395000D01*
X128778000Y-67206500D02*
X129473500Y-67206500D01*
%TO.N,Net-(Q1-Pad1)*%
X120062000Y-67310000D02*
X122682000Y-67310000D01*
D19*
X122682000Y-67310000D02*
X124460000Y-67310000D01*
D18*
X124460000Y-67310000D02*
X125200000Y-67310000D01*
X125200000Y-67310000D02*
X125180000Y-67330000D01*
X125180000Y-67330000D02*
X122620000Y-67330000D01*
%TD*%
D20*
%TO.N,GND*%
X131719038Y-64052962D02*
X131853614Y-64163405D01*
X132007150Y-64245472D01*
X132173746Y-64296008D01*
X132347000Y-64313072D01*
X132446269Y-64313072D01*
X132452493Y-64314960D01*
X132655963Y-64335000D01*
X139777037Y-64335000D01*
X139980507Y-64314960D01*
X140081000Y-64284476D01*
X140081000Y-64505210D01*
X139023750Y-64507000D01*
X138865000Y-64665750D01*
X138865000Y-65690000D01*
X138885000Y-65690000D01*
X138885000Y-65944000D01*
X138865000Y-65944000D01*
X138865000Y-66968250D01*
X139023750Y-67127000D01*
X140081000Y-67128790D01*
X140081000Y-81661275D01*
X82217102Y-81786998D01*
X82214183Y-81785446D01*
X82122405Y-81710594D01*
X82046909Y-81619335D01*
X81990581Y-81515160D01*
X81955560Y-81402024D01*
X81940000Y-81253979D01*
X81940000Y-78290495D01*
X84121000Y-78290495D01*
X84121000Y-78681505D01*
X84197282Y-79065003D01*
X84346915Y-79426250D01*
X84564149Y-79751364D01*
X84840636Y-80027851D01*
X85165750Y-80245085D01*
X85526997Y-80394718D01*
X85910495Y-80471000D01*
X86301505Y-80471000D01*
X86685003Y-80394718D01*
X87046250Y-80245085D01*
X87371364Y-80027851D01*
X87647851Y-79751364D01*
X87865085Y-79426250D01*
X88014718Y-79065003D01*
X88091000Y-78681505D01*
X88091000Y-78290495D01*
X88015215Y-77909495D01*
X132635000Y-77909495D01*
X132635000Y-78300505D01*
X132711282Y-78684003D01*
X132860915Y-79045250D01*
X133078149Y-79370364D01*
X133354636Y-79646851D01*
X133679750Y-79864085D01*
X134040997Y-80013718D01*
X134424495Y-80090000D01*
X134815505Y-80090000D01*
X135199003Y-80013718D01*
X135560250Y-79864085D01*
X135885364Y-79646851D01*
X136161851Y-79370364D01*
X136379085Y-79045250D01*
X136528718Y-78684003D01*
X136605000Y-78300505D01*
X136605000Y-77909495D01*
X136528718Y-77525997D01*
X136379085Y-77164750D01*
X136161851Y-76839636D01*
X135885364Y-76563149D01*
X135560250Y-76345915D01*
X135199003Y-76196282D01*
X134815505Y-76120000D01*
X134424495Y-76120000D01*
X134040997Y-76196282D01*
X133679750Y-76345915D01*
X133354636Y-76563149D01*
X133078149Y-76839636D01*
X132860915Y-77164750D01*
X132711282Y-77525997D01*
X132635000Y-77909495D01*
X88015215Y-77909495D01*
X88014718Y-77906997D01*
X87865085Y-77545750D01*
X87647851Y-77220636D01*
X87371364Y-76944149D01*
X87046250Y-76726915D01*
X86818312Y-76632500D01*
X94927928Y-76632500D01*
X94940188Y-76756982D01*
X94976498Y-76876680D01*
X95035463Y-76986994D01*
X95114815Y-77083685D01*
X95211506Y-77163037D01*
X95321820Y-77222002D01*
X95441518Y-77258312D01*
X95566000Y-77270572D01*
X95980250Y-77267500D01*
X96139000Y-77108750D01*
X96139000Y-76247000D01*
X96393000Y-76247000D01*
X96393000Y-77108750D01*
X96551750Y-77267500D01*
X96966000Y-77270572D01*
X97090482Y-77258312D01*
X97210180Y-77222002D01*
X97320494Y-77163037D01*
X97417185Y-77083685D01*
X97496537Y-76986994D01*
X97555502Y-76876680D01*
X97591812Y-76756982D01*
X97604072Y-76632500D01*
X98102928Y-76632500D01*
X98115188Y-76756982D01*
X98151498Y-76876680D01*
X98210463Y-76986994D01*
X98289815Y-77083685D01*
X98386506Y-77163037D01*
X98496820Y-77222002D01*
X98616518Y-77258312D01*
X98741000Y-77270572D01*
X99155250Y-77267500D01*
X99314000Y-77108750D01*
X99314000Y-76247000D01*
X99568000Y-76247000D01*
X99568000Y-77108750D01*
X99726750Y-77267500D01*
X100141000Y-77270572D01*
X100265482Y-77258312D01*
X100385180Y-77222002D01*
X100495494Y-77163037D01*
X100592185Y-77083685D01*
X100671537Y-76986994D01*
X100730502Y-76876680D01*
X100766812Y-76756982D01*
X100779072Y-76632500D01*
X101912928Y-76632500D01*
X101925188Y-76756982D01*
X101961498Y-76876680D01*
X102020463Y-76986994D01*
X102099815Y-77083685D01*
X102196506Y-77163037D01*
X102306820Y-77222002D01*
X102426518Y-77258312D01*
X102551000Y-77270572D01*
X102965250Y-77267500D01*
X103124000Y-77108750D01*
X103124000Y-76247000D01*
X103378000Y-76247000D01*
X103378000Y-77108750D01*
X103536750Y-77267500D01*
X103951000Y-77270572D01*
X104075482Y-77258312D01*
X104195180Y-77222002D01*
X104305494Y-77163037D01*
X104402185Y-77083685D01*
X104481537Y-76986994D01*
X104540502Y-76876680D01*
X104576812Y-76756982D01*
X104589072Y-76632500D01*
X105722928Y-76632500D01*
X105735188Y-76756982D01*
X105771498Y-76876680D01*
X105830463Y-76986994D01*
X105909815Y-77083685D01*
X106006506Y-77163037D01*
X106116820Y-77222002D01*
X106236518Y-77258312D01*
X106361000Y-77270572D01*
X106775250Y-77267500D01*
X106934000Y-77108750D01*
X106934000Y-76247000D01*
X107188000Y-76247000D01*
X107188000Y-77108750D01*
X107346750Y-77267500D01*
X107761000Y-77270572D01*
X107885482Y-77258312D01*
X108005180Y-77222002D01*
X108115494Y-77163037D01*
X108212185Y-77083685D01*
X108291537Y-76986994D01*
X108350502Y-76876680D01*
X108386812Y-76756982D01*
X108399072Y-76632500D01*
X109532928Y-76632500D01*
X109545188Y-76756982D01*
X109581498Y-76876680D01*
X109640463Y-76986994D01*
X109719815Y-77083685D01*
X109816506Y-77163037D01*
X109926820Y-77222002D01*
X110046518Y-77258312D01*
X110171000Y-77270572D01*
X110585250Y-77267500D01*
X110744000Y-77108750D01*
X110744000Y-76247000D01*
X110998000Y-76247000D01*
X110998000Y-77108750D01*
X111156750Y-77267500D01*
X111571000Y-77270572D01*
X111695482Y-77258312D01*
X111815180Y-77222002D01*
X111925494Y-77163037D01*
X112022185Y-77083685D01*
X112101537Y-76986994D01*
X112160502Y-76876680D01*
X112196812Y-76756982D01*
X112209072Y-76632500D01*
X112206000Y-76405750D01*
X112047250Y-76247000D01*
X110998000Y-76247000D01*
X110744000Y-76247000D01*
X109694750Y-76247000D01*
X109536000Y-76405750D01*
X109532928Y-76632500D01*
X108399072Y-76632500D01*
X108396000Y-76405750D01*
X108237250Y-76247000D01*
X107188000Y-76247000D01*
X106934000Y-76247000D01*
X105884750Y-76247000D01*
X105726000Y-76405750D01*
X105722928Y-76632500D01*
X104589072Y-76632500D01*
X104586000Y-76405750D01*
X104427250Y-76247000D01*
X103378000Y-76247000D01*
X103124000Y-76247000D01*
X102074750Y-76247000D01*
X101916000Y-76405750D01*
X101912928Y-76632500D01*
X100779072Y-76632500D01*
X100776000Y-76405750D01*
X100617250Y-76247000D01*
X99568000Y-76247000D01*
X99314000Y-76247000D01*
X98264750Y-76247000D01*
X98106000Y-76405750D01*
X98102928Y-76632500D01*
X97604072Y-76632500D01*
X97601000Y-76405750D01*
X97442250Y-76247000D01*
X96393000Y-76247000D01*
X96139000Y-76247000D01*
X95089750Y-76247000D01*
X94931000Y-76405750D01*
X94927928Y-76632500D01*
X86818312Y-76632500D01*
X86685003Y-76577282D01*
X86301505Y-76501000D01*
X85910495Y-76501000D01*
X85526997Y-76577282D01*
X85165750Y-76726915D01*
X84840636Y-76944149D01*
X84564149Y-77220636D01*
X84346915Y-77545750D01*
X84197282Y-77906997D01*
X84121000Y-78290495D01*
X81940000Y-78290495D01*
X81940000Y-74828049D01*
X81956902Y-72717149D01*
X83226250Y-72715000D01*
X83385000Y-72556250D01*
X83385000Y-71532000D01*
X83639000Y-71532000D01*
X83639000Y-72556250D01*
X83797750Y-72715000D01*
X85612000Y-72718072D01*
X85736482Y-72705812D01*
X85856180Y-72669502D01*
X85966494Y-72610537D01*
X86063185Y-72531185D01*
X86142537Y-72434494D01*
X86201502Y-72324180D01*
X86237812Y-72204482D01*
X86250072Y-72080000D01*
X86247000Y-71690750D01*
X86088250Y-71532000D01*
X83639000Y-71532000D01*
X83385000Y-71532000D01*
X83365000Y-71532000D01*
X83365000Y-71278000D01*
X83385000Y-71278000D01*
X83385000Y-70253750D01*
X83639000Y-70253750D01*
X83639000Y-71278000D01*
X86088250Y-71278000D01*
X86247000Y-71119250D01*
X86250072Y-70730000D01*
X86237812Y-70605518D01*
X86201502Y-70485820D01*
X86142537Y-70375506D01*
X86063185Y-70278815D01*
X85966494Y-70199463D01*
X85856180Y-70140498D01*
X85736482Y-70104188D01*
X85612000Y-70091928D01*
X83797750Y-70095000D01*
X83639000Y-70253750D01*
X83385000Y-70253750D01*
X83226250Y-70095000D01*
X81977915Y-70092886D01*
X81979835Y-69853072D01*
X82628674Y-69853072D01*
X82652419Y-69865764D01*
X82913493Y-69944960D01*
X83116963Y-69965000D01*
X87698037Y-69965000D01*
X87901507Y-69944960D01*
X87907731Y-69943072D01*
X88200000Y-69943072D01*
X88373254Y-69926008D01*
X88539850Y-69875472D01*
X88693386Y-69793405D01*
X88827962Y-69682962D01*
X88900000Y-69595183D01*
X88972038Y-69682962D01*
X89106614Y-69793405D01*
X89260150Y-69875472D01*
X89426746Y-69926008D01*
X89600000Y-69943072D01*
X90100000Y-69943072D01*
X90273254Y-69926008D01*
X90439850Y-69875472D01*
X90593386Y-69793405D01*
X90727962Y-69682962D01*
X90838405Y-69548386D01*
X90882976Y-69465000D01*
X91373555Y-69465000D01*
X91378038Y-69470462D01*
X91512613Y-69580905D01*
X91666148Y-69662972D01*
X91832744Y-69713508D01*
X92005998Y-69730572D01*
X92906002Y-69730572D01*
X93079256Y-69713508D01*
X93245852Y-69662972D01*
X93399387Y-69580905D01*
X93533962Y-69470462D01*
X93538445Y-69465000D01*
X96441614Y-69465000D01*
X96567614Y-69568405D01*
X96721150Y-69650472D01*
X96887746Y-69701008D01*
X97061000Y-69718072D01*
X98011000Y-69718072D01*
X98184254Y-69701008D01*
X98350850Y-69650472D01*
X98504386Y-69568405D01*
X98630386Y-69465000D01*
X101034446Y-69465000D01*
X101061498Y-69554180D01*
X101120463Y-69664494D01*
X101199815Y-69761185D01*
X101296506Y-69840537D01*
X101406820Y-69899502D01*
X101526518Y-69935812D01*
X101651000Y-69948072D01*
X102216000Y-69948072D01*
X102216001Y-73369279D01*
X102173038Y-73404538D01*
X102168555Y-73410000D01*
X100523445Y-73410000D01*
X100518962Y-73404538D01*
X100384387Y-73294095D01*
X100230852Y-73212028D01*
X100064256Y-73161492D01*
X99891002Y-73144428D01*
X98990998Y-73144428D01*
X98817744Y-73161492D01*
X98651148Y-73212028D01*
X98497613Y-73294095D01*
X98363038Y-73404538D01*
X98358555Y-73410000D01*
X97348445Y-73410000D01*
X97343962Y-73404538D01*
X97209387Y-73294095D01*
X97055852Y-73212028D01*
X96889256Y-73161492D01*
X96716002Y-73144428D01*
X95815998Y-73144428D01*
X95642744Y-73161492D01*
X95476148Y-73212028D01*
X95322613Y-73294095D01*
X95188038Y-73404538D01*
X95077595Y-73539113D01*
X94995528Y-73692648D01*
X94944992Y-73859244D01*
X94927928Y-74032498D01*
X94927928Y-74557502D01*
X94944992Y-74730756D01*
X94995528Y-74897352D01*
X95077595Y-75050887D01*
X95144276Y-75132137D01*
X95114815Y-75156315D01*
X95035463Y-75253006D01*
X94976498Y-75363320D01*
X94940188Y-75483018D01*
X94927928Y-75607500D01*
X94931000Y-75834250D01*
X95089750Y-75993000D01*
X96139000Y-75993000D01*
X96139000Y-75973000D01*
X96393000Y-75973000D01*
X96393000Y-75993000D01*
X97442250Y-75993000D01*
X97601000Y-75834250D01*
X97604072Y-75607500D01*
X97591812Y-75483018D01*
X97555502Y-75363320D01*
X97496537Y-75253006D01*
X97436623Y-75180000D01*
X98270377Y-75180000D01*
X98210463Y-75253006D01*
X98151498Y-75363320D01*
X98115188Y-75483018D01*
X98102928Y-75607500D01*
X98106000Y-75834250D01*
X98264750Y-75993000D01*
X99314000Y-75993000D01*
X99314000Y-75973000D01*
X99568000Y-75973000D01*
X99568000Y-75993000D01*
X100617250Y-75993000D01*
X100776000Y-75834250D01*
X100779072Y-75607500D01*
X100766812Y-75483018D01*
X100730502Y-75363320D01*
X100671537Y-75253006D01*
X100611623Y-75180000D01*
X102080377Y-75180000D01*
X102020463Y-75253006D01*
X101961498Y-75363320D01*
X101925188Y-75483018D01*
X101912928Y-75607500D01*
X101916000Y-75834250D01*
X102074750Y-75993000D01*
X103124000Y-75993000D01*
X103124000Y-75973000D01*
X103378000Y-75973000D01*
X103378000Y-75993000D01*
X104427250Y-75993000D01*
X104586000Y-75834250D01*
X104589072Y-75607500D01*
X104576812Y-75483018D01*
X104540502Y-75363320D01*
X104481537Y-75253006D01*
X104421623Y-75180000D01*
X105890377Y-75180000D01*
X105830463Y-75253006D01*
X105771498Y-75363320D01*
X105735188Y-75483018D01*
X105722928Y-75607500D01*
X105726000Y-75834250D01*
X105884750Y-75993000D01*
X106934000Y-75993000D01*
X106934000Y-75973000D01*
X107188000Y-75973000D01*
X107188000Y-75993000D01*
X108237250Y-75993000D01*
X108396000Y-75834250D01*
X108399072Y-75607500D01*
X108386812Y-75483018D01*
X108350502Y-75363320D01*
X108291537Y-75253006D01*
X108231623Y-75180000D01*
X109700377Y-75180000D01*
X109640463Y-75253006D01*
X109581498Y-75363320D01*
X109545188Y-75483018D01*
X109532928Y-75607500D01*
X109536000Y-75834250D01*
X109694750Y-75993000D01*
X110744000Y-75993000D01*
X110744000Y-75973000D01*
X110998000Y-75973000D01*
X110998000Y-75993000D01*
X112047250Y-75993000D01*
X112206000Y-75834250D01*
X112209072Y-75607500D01*
X112196812Y-75483018D01*
X112160502Y-75363320D01*
X112101537Y-75253006D01*
X112022185Y-75156315D01*
X111992724Y-75132137D01*
X112059405Y-75050887D01*
X112141472Y-74897352D01*
X112192008Y-74730756D01*
X112209072Y-74557502D01*
X112209072Y-74032498D01*
X112192008Y-73859244D01*
X112141472Y-73692648D01*
X112059405Y-73539113D01*
X112043720Y-73520000D01*
X121318928Y-73520000D01*
X121331188Y-73644482D01*
X121367498Y-73764180D01*
X121426463Y-73874494D01*
X121505815Y-73971185D01*
X121602506Y-74050537D01*
X121712820Y-74109502D01*
X121832518Y-74145812D01*
X121957000Y-74158072D01*
X122396250Y-74155000D01*
X122555000Y-73996250D01*
X122555000Y-73147000D01*
X122809000Y-73147000D01*
X122809000Y-73996250D01*
X122967750Y-74155000D01*
X123407000Y-74158072D01*
X123531482Y-74145812D01*
X123651180Y-74109502D01*
X123761494Y-74050537D01*
X123858185Y-73971185D01*
X123937537Y-73874494D01*
X123996502Y-73764180D01*
X124032812Y-73644482D01*
X124045072Y-73520000D01*
X124042000Y-73305750D01*
X123883250Y-73147000D01*
X122809000Y-73147000D01*
X122555000Y-73147000D01*
X121480750Y-73147000D01*
X121322000Y-73305750D01*
X121318928Y-73520000D01*
X112043720Y-73520000D01*
X111948962Y-73404538D01*
X111814387Y-73294095D01*
X111660852Y-73212028D01*
X111494256Y-73161492D01*
X111321002Y-73144428D01*
X110420998Y-73144428D01*
X110247744Y-73161492D01*
X110081148Y-73212028D01*
X109927613Y-73294095D01*
X109793038Y-73404538D01*
X109788555Y-73410000D01*
X108143445Y-73410000D01*
X108138962Y-73404538D01*
X108004387Y-73294095D01*
X107850852Y-73212028D01*
X107684256Y-73161492D01*
X107511002Y-73144428D01*
X106610998Y-73144428D01*
X106437744Y-73161492D01*
X106271148Y-73212028D01*
X106117613Y-73294095D01*
X105983038Y-73404538D01*
X105978555Y-73410000D01*
X104333445Y-73410000D01*
X104328962Y-73404538D01*
X104194387Y-73294095D01*
X104040852Y-73212028D01*
X103986000Y-73195389D01*
X103986000Y-69774468D01*
X104002185Y-69761185D01*
X104081537Y-69664494D01*
X104140502Y-69554180D01*
X104176812Y-69434482D01*
X104189072Y-69310000D01*
X104189072Y-68510000D01*
X104176812Y-68385518D01*
X104140502Y-68265820D01*
X104102647Y-68195000D01*
X104835555Y-68195000D01*
X104840038Y-68200462D01*
X104974613Y-68310905D01*
X105128148Y-68392972D01*
X105294744Y-68443508D01*
X105467998Y-68460572D01*
X106368002Y-68460572D01*
X106541256Y-68443508D01*
X106707852Y-68392972D01*
X106861387Y-68310905D01*
X106988998Y-68206177D01*
X107027595Y-68278386D01*
X107138038Y-68412962D01*
X107272614Y-68523405D01*
X107426150Y-68605472D01*
X107592746Y-68656008D01*
X107766000Y-68673072D01*
X108266000Y-68673072D01*
X108439254Y-68656008D01*
X108605850Y-68605472D01*
X108759386Y-68523405D01*
X108893962Y-68412962D01*
X108966000Y-68325183D01*
X109038038Y-68412962D01*
X109172614Y-68523405D01*
X109326150Y-68605472D01*
X109492746Y-68656008D01*
X109666000Y-68673072D01*
X110166000Y-68673072D01*
X110339254Y-68656008D01*
X110505850Y-68605472D01*
X110659386Y-68523405D01*
X110793962Y-68412962D01*
X110904405Y-68278386D01*
X110948976Y-68195000D01*
X113979555Y-68195000D01*
X113984038Y-68200462D01*
X114118613Y-68310905D01*
X114272148Y-68392972D01*
X114438744Y-68443508D01*
X114611998Y-68460572D01*
X115512002Y-68460572D01*
X115685256Y-68443508D01*
X115851852Y-68392972D01*
X116005387Y-68310905D01*
X116139962Y-68200462D01*
X116144445Y-68195000D01*
X117204886Y-68195000D01*
X117236095Y-68253387D01*
X117346538Y-68387962D01*
X117481113Y-68498405D01*
X117634648Y-68580472D01*
X117801244Y-68631008D01*
X117974498Y-68648072D01*
X118499502Y-68648072D01*
X118672756Y-68631008D01*
X118839352Y-68580472D01*
X118992887Y-68498405D01*
X119127462Y-68387962D01*
X119149500Y-68361109D01*
X119171538Y-68387962D01*
X119306113Y-68498405D01*
X119459648Y-68580472D01*
X119626244Y-68631008D01*
X119799498Y-68648072D01*
X120324502Y-68648072D01*
X120497756Y-68631008D01*
X120664352Y-68580472D01*
X120817887Y-68498405D01*
X120952462Y-68387962D01*
X121062905Y-68253387D01*
X121094114Y-68195000D01*
X121599555Y-68195000D01*
X121604038Y-68200462D01*
X121630891Y-68222500D01*
X121604038Y-68244538D01*
X121493595Y-68379113D01*
X121411528Y-68532648D01*
X121360992Y-68699244D01*
X121343928Y-68872498D01*
X121343928Y-69397502D01*
X121360992Y-69570756D01*
X121411528Y-69737352D01*
X121493595Y-69890887D01*
X121604038Y-70025462D01*
X121725573Y-70125203D01*
X121713614Y-70131595D01*
X121579038Y-70242038D01*
X121468595Y-70376614D01*
X121386528Y-70530150D01*
X121335992Y-70696746D01*
X121318928Y-70870000D01*
X121318928Y-71370000D01*
X121335992Y-71543254D01*
X121386528Y-71709850D01*
X121468595Y-71863386D01*
X121579038Y-71997962D01*
X121585594Y-72003342D01*
X121505815Y-72068815D01*
X121426463Y-72165506D01*
X121367498Y-72275820D01*
X121331188Y-72395518D01*
X121318928Y-72520000D01*
X121322000Y-72734250D01*
X121480750Y-72893000D01*
X122555000Y-72893000D01*
X122555000Y-72873000D01*
X122809000Y-72873000D01*
X122809000Y-72893000D01*
X123883250Y-72893000D01*
X124042000Y-72734250D01*
X124045072Y-72520000D01*
X124032812Y-72395518D01*
X123996502Y-72275820D01*
X123937537Y-72165506D01*
X123858185Y-72068815D01*
X123778406Y-72003342D01*
X123784962Y-71997962D01*
X123895405Y-71863386D01*
X123977472Y-71709850D01*
X124028008Y-71543254D01*
X124045072Y-71370000D01*
X124045072Y-70870000D01*
X124028008Y-70696746D01*
X123977472Y-70530150D01*
X123895405Y-70376614D01*
X123784962Y-70242038D01*
X123650386Y-70131595D01*
X123638427Y-70125203D01*
X123759962Y-70025462D01*
X123870405Y-69890887D01*
X123952472Y-69737352D01*
X124003008Y-69570756D01*
X124020072Y-69397502D01*
X124020072Y-68872498D01*
X124003008Y-68699244D01*
X123952472Y-68532648D01*
X123870405Y-68379113D01*
X123759962Y-68244538D01*
X123733109Y-68222500D01*
X123742247Y-68215000D01*
X124884876Y-68215000D01*
X124920518Y-68225812D01*
X125045000Y-68238072D01*
X125495000Y-68238072D01*
X125619482Y-68225812D01*
X125739180Y-68189502D01*
X125849494Y-68130537D01*
X125920000Y-68072674D01*
X125990506Y-68130537D01*
X126100820Y-68189502D01*
X126220518Y-68225812D01*
X126345000Y-68238072D01*
X126795000Y-68238072D01*
X126919482Y-68225812D01*
X127039180Y-68189502D01*
X127141144Y-68135000D01*
X127746387Y-68135000D01*
X127834613Y-68207405D01*
X127988148Y-68289472D01*
X128154744Y-68340008D01*
X128327998Y-68357072D01*
X129228002Y-68357072D01*
X129359539Y-68344117D01*
X130171428Y-69156007D01*
X130171428Y-69565002D01*
X130188492Y-69738256D01*
X130239028Y-69904852D01*
X130321095Y-70058387D01*
X130431538Y-70192962D01*
X130566113Y-70303405D01*
X130719648Y-70385472D01*
X130886244Y-70436008D01*
X131059498Y-70453072D01*
X131584502Y-70453072D01*
X131757756Y-70436008D01*
X131924352Y-70385472D01*
X132077887Y-70303405D01*
X132159137Y-70236724D01*
X132183315Y-70266185D01*
X132280006Y-70345537D01*
X132390320Y-70404502D01*
X132510018Y-70440812D01*
X132634500Y-70453072D01*
X132861250Y-70450000D01*
X133020000Y-70291250D01*
X133020000Y-69242000D01*
X133274000Y-69242000D01*
X133274000Y-70291250D01*
X133432750Y-70450000D01*
X133659500Y-70453072D01*
X133783982Y-70440812D01*
X133903680Y-70404502D01*
X134013994Y-70345537D01*
X134110685Y-70266185D01*
X134190037Y-70169494D01*
X134249002Y-70059180D01*
X134285312Y-69939482D01*
X134297572Y-69815000D01*
X134294500Y-69400750D01*
X134135750Y-69242000D01*
X133274000Y-69242000D01*
X133020000Y-69242000D01*
X133000000Y-69242000D01*
X133000000Y-68988000D01*
X133020000Y-68988000D01*
X133020000Y-67938750D01*
X133274000Y-67938750D01*
X133274000Y-68988000D01*
X134135750Y-68988000D01*
X134294500Y-68829250D01*
X134297572Y-68415000D01*
X134285312Y-68290518D01*
X134249002Y-68170820D01*
X134190037Y-68060506D01*
X134110685Y-67963815D01*
X134013994Y-67884463D01*
X133903680Y-67825498D01*
X133783982Y-67789188D01*
X133659500Y-67776928D01*
X133432750Y-67780000D01*
X133274000Y-67938750D01*
X133020000Y-67938750D01*
X132861250Y-67780000D01*
X132634500Y-67776928D01*
X132510018Y-67789188D01*
X132390320Y-67825498D01*
X132280006Y-67884463D01*
X132183315Y-67963815D01*
X132159137Y-67993276D01*
X132077887Y-67926595D01*
X131924352Y-67844528D01*
X131757756Y-67793992D01*
X131584502Y-67776928D01*
X131295507Y-67776928D01*
X130913578Y-67395000D01*
X131033106Y-67275473D01*
X131059498Y-67278072D01*
X131584502Y-67278072D01*
X131757756Y-67261008D01*
X131924352Y-67210472D01*
X132077887Y-67128405D01*
X132159137Y-67061724D01*
X132183315Y-67091185D01*
X132280006Y-67170537D01*
X132390320Y-67229502D01*
X132510018Y-67265812D01*
X132634500Y-67278072D01*
X132861250Y-67275000D01*
X133020000Y-67116250D01*
X133020000Y-66067000D01*
X133274000Y-66067000D01*
X133274000Y-67116250D01*
X133432750Y-67275000D01*
X133659500Y-67278072D01*
X133783982Y-67265812D01*
X133903680Y-67229502D01*
X134013994Y-67170537D01*
X134110685Y-67091185D01*
X134190037Y-66994494D01*
X134249002Y-66884180D01*
X134285312Y-66764482D01*
X134297572Y-66640000D01*
X134296475Y-66492000D01*
X135999928Y-66492000D01*
X136012188Y-66616482D01*
X136048498Y-66736180D01*
X136107463Y-66846494D01*
X136186815Y-66943185D01*
X136283506Y-67022537D01*
X136393820Y-67081502D01*
X136513518Y-67117812D01*
X136638000Y-67130072D01*
X138452250Y-67127000D01*
X138611000Y-66968250D01*
X138611000Y-65944000D01*
X136161750Y-65944000D01*
X136003000Y-66102750D01*
X135999928Y-66492000D01*
X134296475Y-66492000D01*
X134294500Y-66225750D01*
X134135750Y-66067000D01*
X133274000Y-66067000D01*
X133020000Y-66067000D01*
X133000000Y-66067000D01*
X133000000Y-65813000D01*
X133020000Y-65813000D01*
X133020000Y-64763750D01*
X133274000Y-64763750D01*
X133274000Y-65813000D01*
X134135750Y-65813000D01*
X134294500Y-65654250D01*
X134297572Y-65240000D01*
X134287921Y-65142000D01*
X135999928Y-65142000D01*
X136003000Y-65531250D01*
X136161750Y-65690000D01*
X138611000Y-65690000D01*
X138611000Y-64665750D01*
X138452250Y-64507000D01*
X136638000Y-64503928D01*
X136513518Y-64516188D01*
X136393820Y-64552498D01*
X136283506Y-64611463D01*
X136186815Y-64690815D01*
X136107463Y-64787506D01*
X136048498Y-64897820D01*
X136012188Y-65017518D01*
X135999928Y-65142000D01*
X134287921Y-65142000D01*
X134285312Y-65115518D01*
X134249002Y-64995820D01*
X134190037Y-64885506D01*
X134110685Y-64788815D01*
X134013994Y-64709463D01*
X133903680Y-64650498D01*
X133783982Y-64614188D01*
X133659500Y-64601928D01*
X133432750Y-64605000D01*
X133274000Y-64763750D01*
X133020000Y-64763750D01*
X132861250Y-64605000D01*
X132634500Y-64601928D01*
X132510018Y-64614188D01*
X132390320Y-64650498D01*
X132280006Y-64709463D01*
X132183315Y-64788815D01*
X132159137Y-64818276D01*
X132077887Y-64751595D01*
X131924352Y-64669528D01*
X131757756Y-64618992D01*
X131584502Y-64601928D01*
X131059498Y-64601928D01*
X130886244Y-64618992D01*
X130719648Y-64669528D01*
X130566113Y-64751595D01*
X130431538Y-64862038D01*
X130321095Y-64996613D01*
X130239028Y-65150148D01*
X130188492Y-65316744D01*
X130171428Y-65489998D01*
X130171428Y-65633993D01*
X130111118Y-65694304D01*
X130116072Y-65644002D01*
X130116072Y-65118998D01*
X130099008Y-64945744D01*
X130048472Y-64779148D01*
X129966405Y-64625613D01*
X129855962Y-64491038D01*
X129807397Y-64451182D01*
X130045864Y-64212714D01*
X130107150Y-64245472D01*
X130273746Y-64296008D01*
X130447000Y-64313072D01*
X130947000Y-64313072D01*
X131120254Y-64296008D01*
X131286850Y-64245472D01*
X131440386Y-64163405D01*
X131574962Y-64052962D01*
X131647000Y-63965183D01*
X131719038Y-64052962D01*
%TA.AperFunction,Conductor*%
D21*
G36*
X131719038Y-64052962D02*
G01*
X131853614Y-64163405D01*
X132007150Y-64245472D01*
X132173746Y-64296008D01*
X132347000Y-64313072D01*
X132446269Y-64313072D01*
X132452493Y-64314960D01*
X132655963Y-64335000D01*
X139777037Y-64335000D01*
X139980507Y-64314960D01*
X140081000Y-64284476D01*
X140081000Y-64505210D01*
X139023750Y-64507000D01*
X138865000Y-64665750D01*
X138865000Y-65690000D01*
X138885000Y-65690000D01*
X138885000Y-65944000D01*
X138865000Y-65944000D01*
X138865000Y-66968250D01*
X139023750Y-67127000D01*
X140081000Y-67128790D01*
X140081000Y-81661275D01*
X82217102Y-81786998D01*
X82214183Y-81785446D01*
X82122405Y-81710594D01*
X82046909Y-81619335D01*
X81990581Y-81515160D01*
X81955560Y-81402024D01*
X81940000Y-81253979D01*
X81940000Y-78290495D01*
X84121000Y-78290495D01*
X84121000Y-78681505D01*
X84197282Y-79065003D01*
X84346915Y-79426250D01*
X84564149Y-79751364D01*
X84840636Y-80027851D01*
X85165750Y-80245085D01*
X85526997Y-80394718D01*
X85910495Y-80471000D01*
X86301505Y-80471000D01*
X86685003Y-80394718D01*
X87046250Y-80245085D01*
X87371364Y-80027851D01*
X87647851Y-79751364D01*
X87865085Y-79426250D01*
X88014718Y-79065003D01*
X88091000Y-78681505D01*
X88091000Y-78290495D01*
X88015215Y-77909495D01*
X132635000Y-77909495D01*
X132635000Y-78300505D01*
X132711282Y-78684003D01*
X132860915Y-79045250D01*
X133078149Y-79370364D01*
X133354636Y-79646851D01*
X133679750Y-79864085D01*
X134040997Y-80013718D01*
X134424495Y-80090000D01*
X134815505Y-80090000D01*
X135199003Y-80013718D01*
X135560250Y-79864085D01*
X135885364Y-79646851D01*
X136161851Y-79370364D01*
X136379085Y-79045250D01*
X136528718Y-78684003D01*
X136605000Y-78300505D01*
X136605000Y-77909495D01*
X136528718Y-77525997D01*
X136379085Y-77164750D01*
X136161851Y-76839636D01*
X135885364Y-76563149D01*
X135560250Y-76345915D01*
X135199003Y-76196282D01*
X134815505Y-76120000D01*
X134424495Y-76120000D01*
X134040997Y-76196282D01*
X133679750Y-76345915D01*
X133354636Y-76563149D01*
X133078149Y-76839636D01*
X132860915Y-77164750D01*
X132711282Y-77525997D01*
X132635000Y-77909495D01*
X88015215Y-77909495D01*
X88014718Y-77906997D01*
X87865085Y-77545750D01*
X87647851Y-77220636D01*
X87371364Y-76944149D01*
X87046250Y-76726915D01*
X86818312Y-76632500D01*
X94927928Y-76632500D01*
X94940188Y-76756982D01*
X94976498Y-76876680D01*
X95035463Y-76986994D01*
X95114815Y-77083685D01*
X95211506Y-77163037D01*
X95321820Y-77222002D01*
X95441518Y-77258312D01*
X95566000Y-77270572D01*
X95980250Y-77267500D01*
X96139000Y-77108750D01*
X96139000Y-76247000D01*
X96393000Y-76247000D01*
X96393000Y-77108750D01*
X96551750Y-77267500D01*
X96966000Y-77270572D01*
X97090482Y-77258312D01*
X97210180Y-77222002D01*
X97320494Y-77163037D01*
X97417185Y-77083685D01*
X97496537Y-76986994D01*
X97555502Y-76876680D01*
X97591812Y-76756982D01*
X97604072Y-76632500D01*
X98102928Y-76632500D01*
X98115188Y-76756982D01*
X98151498Y-76876680D01*
X98210463Y-76986994D01*
X98289815Y-77083685D01*
X98386506Y-77163037D01*
X98496820Y-77222002D01*
X98616518Y-77258312D01*
X98741000Y-77270572D01*
X99155250Y-77267500D01*
X99314000Y-77108750D01*
X99314000Y-76247000D01*
X99568000Y-76247000D01*
X99568000Y-77108750D01*
X99726750Y-77267500D01*
X100141000Y-77270572D01*
X100265482Y-77258312D01*
X100385180Y-77222002D01*
X100495494Y-77163037D01*
X100592185Y-77083685D01*
X100671537Y-76986994D01*
X100730502Y-76876680D01*
X100766812Y-76756982D01*
X100779072Y-76632500D01*
X101912928Y-76632500D01*
X101925188Y-76756982D01*
X101961498Y-76876680D01*
X102020463Y-76986994D01*
X102099815Y-77083685D01*
X102196506Y-77163037D01*
X102306820Y-77222002D01*
X102426518Y-77258312D01*
X102551000Y-77270572D01*
X102965250Y-77267500D01*
X103124000Y-77108750D01*
X103124000Y-76247000D01*
X103378000Y-76247000D01*
X103378000Y-77108750D01*
X103536750Y-77267500D01*
X103951000Y-77270572D01*
X104075482Y-77258312D01*
X104195180Y-77222002D01*
X104305494Y-77163037D01*
X104402185Y-77083685D01*
X104481537Y-76986994D01*
X104540502Y-76876680D01*
X104576812Y-76756982D01*
X104589072Y-76632500D01*
X105722928Y-76632500D01*
X105735188Y-76756982D01*
X105771498Y-76876680D01*
X105830463Y-76986994D01*
X105909815Y-77083685D01*
X106006506Y-77163037D01*
X106116820Y-77222002D01*
X106236518Y-77258312D01*
X106361000Y-77270572D01*
X106775250Y-77267500D01*
X106934000Y-77108750D01*
X106934000Y-76247000D01*
X107188000Y-76247000D01*
X107188000Y-77108750D01*
X107346750Y-77267500D01*
X107761000Y-77270572D01*
X107885482Y-77258312D01*
X108005180Y-77222002D01*
X108115494Y-77163037D01*
X108212185Y-77083685D01*
X108291537Y-76986994D01*
X108350502Y-76876680D01*
X108386812Y-76756982D01*
X108399072Y-76632500D01*
X109532928Y-76632500D01*
X109545188Y-76756982D01*
X109581498Y-76876680D01*
X109640463Y-76986994D01*
X109719815Y-77083685D01*
X109816506Y-77163037D01*
X109926820Y-77222002D01*
X110046518Y-77258312D01*
X110171000Y-77270572D01*
X110585250Y-77267500D01*
X110744000Y-77108750D01*
X110744000Y-76247000D01*
X110998000Y-76247000D01*
X110998000Y-77108750D01*
X111156750Y-77267500D01*
X111571000Y-77270572D01*
X111695482Y-77258312D01*
X111815180Y-77222002D01*
X111925494Y-77163037D01*
X112022185Y-77083685D01*
X112101537Y-76986994D01*
X112160502Y-76876680D01*
X112196812Y-76756982D01*
X112209072Y-76632500D01*
X112206000Y-76405750D01*
X112047250Y-76247000D01*
X110998000Y-76247000D01*
X110744000Y-76247000D01*
X109694750Y-76247000D01*
X109536000Y-76405750D01*
X109532928Y-76632500D01*
X108399072Y-76632500D01*
X108396000Y-76405750D01*
X108237250Y-76247000D01*
X107188000Y-76247000D01*
X106934000Y-76247000D01*
X105884750Y-76247000D01*
X105726000Y-76405750D01*
X105722928Y-76632500D01*
X104589072Y-76632500D01*
X104586000Y-76405750D01*
X104427250Y-76247000D01*
X103378000Y-76247000D01*
X103124000Y-76247000D01*
X102074750Y-76247000D01*
X101916000Y-76405750D01*
X101912928Y-76632500D01*
X100779072Y-76632500D01*
X100776000Y-76405750D01*
X100617250Y-76247000D01*
X99568000Y-76247000D01*
X99314000Y-76247000D01*
X98264750Y-76247000D01*
X98106000Y-76405750D01*
X98102928Y-76632500D01*
X97604072Y-76632500D01*
X97601000Y-76405750D01*
X97442250Y-76247000D01*
X96393000Y-76247000D01*
X96139000Y-76247000D01*
X95089750Y-76247000D01*
X94931000Y-76405750D01*
X94927928Y-76632500D01*
X86818312Y-76632500D01*
X86685003Y-76577282D01*
X86301505Y-76501000D01*
X85910495Y-76501000D01*
X85526997Y-76577282D01*
X85165750Y-76726915D01*
X84840636Y-76944149D01*
X84564149Y-77220636D01*
X84346915Y-77545750D01*
X84197282Y-77906997D01*
X84121000Y-78290495D01*
X81940000Y-78290495D01*
X81940000Y-74828049D01*
X81956902Y-72717149D01*
X83226250Y-72715000D01*
X83385000Y-72556250D01*
X83385000Y-71532000D01*
X83639000Y-71532000D01*
X83639000Y-72556250D01*
X83797750Y-72715000D01*
X85612000Y-72718072D01*
X85736482Y-72705812D01*
X85856180Y-72669502D01*
X85966494Y-72610537D01*
X86063185Y-72531185D01*
X86142537Y-72434494D01*
X86201502Y-72324180D01*
X86237812Y-72204482D01*
X86250072Y-72080000D01*
X86247000Y-71690750D01*
X86088250Y-71532000D01*
X83639000Y-71532000D01*
X83385000Y-71532000D01*
X83365000Y-71532000D01*
X83365000Y-71278000D01*
X83385000Y-71278000D01*
X83385000Y-70253750D01*
X83639000Y-70253750D01*
X83639000Y-71278000D01*
X86088250Y-71278000D01*
X86247000Y-71119250D01*
X86250072Y-70730000D01*
X86237812Y-70605518D01*
X86201502Y-70485820D01*
X86142537Y-70375506D01*
X86063185Y-70278815D01*
X85966494Y-70199463D01*
X85856180Y-70140498D01*
X85736482Y-70104188D01*
X85612000Y-70091928D01*
X83797750Y-70095000D01*
X83639000Y-70253750D01*
X83385000Y-70253750D01*
X83226250Y-70095000D01*
X81977915Y-70092886D01*
X81979835Y-69853072D01*
X82628674Y-69853072D01*
X82652419Y-69865764D01*
X82913493Y-69944960D01*
X83116963Y-69965000D01*
X87698037Y-69965000D01*
X87901507Y-69944960D01*
X87907731Y-69943072D01*
X88200000Y-69943072D01*
X88373254Y-69926008D01*
X88539850Y-69875472D01*
X88693386Y-69793405D01*
X88827962Y-69682962D01*
X88900000Y-69595183D01*
X88972038Y-69682962D01*
X89106614Y-69793405D01*
X89260150Y-69875472D01*
X89426746Y-69926008D01*
X89600000Y-69943072D01*
X90100000Y-69943072D01*
X90273254Y-69926008D01*
X90439850Y-69875472D01*
X90593386Y-69793405D01*
X90727962Y-69682962D01*
X90838405Y-69548386D01*
X90882976Y-69465000D01*
X91373555Y-69465000D01*
X91378038Y-69470462D01*
X91512613Y-69580905D01*
X91666148Y-69662972D01*
X91832744Y-69713508D01*
X92005998Y-69730572D01*
X92906002Y-69730572D01*
X93079256Y-69713508D01*
X93245852Y-69662972D01*
X93399387Y-69580905D01*
X93533962Y-69470462D01*
X93538445Y-69465000D01*
X96441614Y-69465000D01*
X96567614Y-69568405D01*
X96721150Y-69650472D01*
X96887746Y-69701008D01*
X97061000Y-69718072D01*
X98011000Y-69718072D01*
X98184254Y-69701008D01*
X98350850Y-69650472D01*
X98504386Y-69568405D01*
X98630386Y-69465000D01*
X101034446Y-69465000D01*
X101061498Y-69554180D01*
X101120463Y-69664494D01*
X101199815Y-69761185D01*
X101296506Y-69840537D01*
X101406820Y-69899502D01*
X101526518Y-69935812D01*
X101651000Y-69948072D01*
X102216000Y-69948072D01*
X102216001Y-73369279D01*
X102173038Y-73404538D01*
X102168555Y-73410000D01*
X100523445Y-73410000D01*
X100518962Y-73404538D01*
X100384387Y-73294095D01*
X100230852Y-73212028D01*
X100064256Y-73161492D01*
X99891002Y-73144428D01*
X98990998Y-73144428D01*
X98817744Y-73161492D01*
X98651148Y-73212028D01*
X98497613Y-73294095D01*
X98363038Y-73404538D01*
X98358555Y-73410000D01*
X97348445Y-73410000D01*
X97343962Y-73404538D01*
X97209387Y-73294095D01*
X97055852Y-73212028D01*
X96889256Y-73161492D01*
X96716002Y-73144428D01*
X95815998Y-73144428D01*
X95642744Y-73161492D01*
X95476148Y-73212028D01*
X95322613Y-73294095D01*
X95188038Y-73404538D01*
X95077595Y-73539113D01*
X94995528Y-73692648D01*
X94944992Y-73859244D01*
X94927928Y-74032498D01*
X94927928Y-74557502D01*
X94944992Y-74730756D01*
X94995528Y-74897352D01*
X95077595Y-75050887D01*
X95144276Y-75132137D01*
X95114815Y-75156315D01*
X95035463Y-75253006D01*
X94976498Y-75363320D01*
X94940188Y-75483018D01*
X94927928Y-75607500D01*
X94931000Y-75834250D01*
X95089750Y-75993000D01*
X96139000Y-75993000D01*
X96139000Y-75973000D01*
X96393000Y-75973000D01*
X96393000Y-75993000D01*
X97442250Y-75993000D01*
X97601000Y-75834250D01*
X97604072Y-75607500D01*
X97591812Y-75483018D01*
X97555502Y-75363320D01*
X97496537Y-75253006D01*
X97436623Y-75180000D01*
X98270377Y-75180000D01*
X98210463Y-75253006D01*
X98151498Y-75363320D01*
X98115188Y-75483018D01*
X98102928Y-75607500D01*
X98106000Y-75834250D01*
X98264750Y-75993000D01*
X99314000Y-75993000D01*
X99314000Y-75973000D01*
X99568000Y-75973000D01*
X99568000Y-75993000D01*
X100617250Y-75993000D01*
X100776000Y-75834250D01*
X100779072Y-75607500D01*
X100766812Y-75483018D01*
X100730502Y-75363320D01*
X100671537Y-75253006D01*
X100611623Y-75180000D01*
X102080377Y-75180000D01*
X102020463Y-75253006D01*
X101961498Y-75363320D01*
X101925188Y-75483018D01*
X101912928Y-75607500D01*
X101916000Y-75834250D01*
X102074750Y-75993000D01*
X103124000Y-75993000D01*
X103124000Y-75973000D01*
X103378000Y-75973000D01*
X103378000Y-75993000D01*
X104427250Y-75993000D01*
X104586000Y-75834250D01*
X104589072Y-75607500D01*
X104576812Y-75483018D01*
X104540502Y-75363320D01*
X104481537Y-75253006D01*
X104421623Y-75180000D01*
X105890377Y-75180000D01*
X105830463Y-75253006D01*
X105771498Y-75363320D01*
X105735188Y-75483018D01*
X105722928Y-75607500D01*
X105726000Y-75834250D01*
X105884750Y-75993000D01*
X106934000Y-75993000D01*
X106934000Y-75973000D01*
X107188000Y-75973000D01*
X107188000Y-75993000D01*
X108237250Y-75993000D01*
X108396000Y-75834250D01*
X108399072Y-75607500D01*
X108386812Y-75483018D01*
X108350502Y-75363320D01*
X108291537Y-75253006D01*
X108231623Y-75180000D01*
X109700377Y-75180000D01*
X109640463Y-75253006D01*
X109581498Y-75363320D01*
X109545188Y-75483018D01*
X109532928Y-75607500D01*
X109536000Y-75834250D01*
X109694750Y-75993000D01*
X110744000Y-75993000D01*
X110744000Y-75973000D01*
X110998000Y-75973000D01*
X110998000Y-75993000D01*
X112047250Y-75993000D01*
X112206000Y-75834250D01*
X112209072Y-75607500D01*
X112196812Y-75483018D01*
X112160502Y-75363320D01*
X112101537Y-75253006D01*
X112022185Y-75156315D01*
X111992724Y-75132137D01*
X112059405Y-75050887D01*
X112141472Y-74897352D01*
X112192008Y-74730756D01*
X112209072Y-74557502D01*
X112209072Y-74032498D01*
X112192008Y-73859244D01*
X112141472Y-73692648D01*
X112059405Y-73539113D01*
X112043720Y-73520000D01*
X121318928Y-73520000D01*
X121331188Y-73644482D01*
X121367498Y-73764180D01*
X121426463Y-73874494D01*
X121505815Y-73971185D01*
X121602506Y-74050537D01*
X121712820Y-74109502D01*
X121832518Y-74145812D01*
X121957000Y-74158072D01*
X122396250Y-74155000D01*
X122555000Y-73996250D01*
X122555000Y-73147000D01*
X122809000Y-73147000D01*
X122809000Y-73996250D01*
X122967750Y-74155000D01*
X123407000Y-74158072D01*
X123531482Y-74145812D01*
X123651180Y-74109502D01*
X123761494Y-74050537D01*
X123858185Y-73971185D01*
X123937537Y-73874494D01*
X123996502Y-73764180D01*
X124032812Y-73644482D01*
X124045072Y-73520000D01*
X124042000Y-73305750D01*
X123883250Y-73147000D01*
X122809000Y-73147000D01*
X122555000Y-73147000D01*
X121480750Y-73147000D01*
X121322000Y-73305750D01*
X121318928Y-73520000D01*
X112043720Y-73520000D01*
X111948962Y-73404538D01*
X111814387Y-73294095D01*
X111660852Y-73212028D01*
X111494256Y-73161492D01*
X111321002Y-73144428D01*
X110420998Y-73144428D01*
X110247744Y-73161492D01*
X110081148Y-73212028D01*
X109927613Y-73294095D01*
X109793038Y-73404538D01*
X109788555Y-73410000D01*
X108143445Y-73410000D01*
X108138962Y-73404538D01*
X108004387Y-73294095D01*
X107850852Y-73212028D01*
X107684256Y-73161492D01*
X107511002Y-73144428D01*
X106610998Y-73144428D01*
X106437744Y-73161492D01*
X106271148Y-73212028D01*
X106117613Y-73294095D01*
X105983038Y-73404538D01*
X105978555Y-73410000D01*
X104333445Y-73410000D01*
X104328962Y-73404538D01*
X104194387Y-73294095D01*
X104040852Y-73212028D01*
X103986000Y-73195389D01*
X103986000Y-69774468D01*
X104002185Y-69761185D01*
X104081537Y-69664494D01*
X104140502Y-69554180D01*
X104176812Y-69434482D01*
X104189072Y-69310000D01*
X104189072Y-68510000D01*
X104176812Y-68385518D01*
X104140502Y-68265820D01*
X104102647Y-68195000D01*
X104835555Y-68195000D01*
X104840038Y-68200462D01*
X104974613Y-68310905D01*
X105128148Y-68392972D01*
X105294744Y-68443508D01*
X105467998Y-68460572D01*
X106368002Y-68460572D01*
X106541256Y-68443508D01*
X106707852Y-68392972D01*
X106861387Y-68310905D01*
X106988998Y-68206177D01*
X107027595Y-68278386D01*
X107138038Y-68412962D01*
X107272614Y-68523405D01*
X107426150Y-68605472D01*
X107592746Y-68656008D01*
X107766000Y-68673072D01*
X108266000Y-68673072D01*
X108439254Y-68656008D01*
X108605850Y-68605472D01*
X108759386Y-68523405D01*
X108893962Y-68412962D01*
X108966000Y-68325183D01*
X109038038Y-68412962D01*
X109172614Y-68523405D01*
X109326150Y-68605472D01*
X109492746Y-68656008D01*
X109666000Y-68673072D01*
X110166000Y-68673072D01*
X110339254Y-68656008D01*
X110505850Y-68605472D01*
X110659386Y-68523405D01*
X110793962Y-68412962D01*
X110904405Y-68278386D01*
X110948976Y-68195000D01*
X113979555Y-68195000D01*
X113984038Y-68200462D01*
X114118613Y-68310905D01*
X114272148Y-68392972D01*
X114438744Y-68443508D01*
X114611998Y-68460572D01*
X115512002Y-68460572D01*
X115685256Y-68443508D01*
X115851852Y-68392972D01*
X116005387Y-68310905D01*
X116139962Y-68200462D01*
X116144445Y-68195000D01*
X117204886Y-68195000D01*
X117236095Y-68253387D01*
X117346538Y-68387962D01*
X117481113Y-68498405D01*
X117634648Y-68580472D01*
X117801244Y-68631008D01*
X117974498Y-68648072D01*
X118499502Y-68648072D01*
X118672756Y-68631008D01*
X118839352Y-68580472D01*
X118992887Y-68498405D01*
X119127462Y-68387962D01*
X119149500Y-68361109D01*
X119171538Y-68387962D01*
X119306113Y-68498405D01*
X119459648Y-68580472D01*
X119626244Y-68631008D01*
X119799498Y-68648072D01*
X120324502Y-68648072D01*
X120497756Y-68631008D01*
X120664352Y-68580472D01*
X120817887Y-68498405D01*
X120952462Y-68387962D01*
X121062905Y-68253387D01*
X121094114Y-68195000D01*
X121599555Y-68195000D01*
X121604038Y-68200462D01*
X121630891Y-68222500D01*
X121604038Y-68244538D01*
X121493595Y-68379113D01*
X121411528Y-68532648D01*
X121360992Y-68699244D01*
X121343928Y-68872498D01*
X121343928Y-69397502D01*
X121360992Y-69570756D01*
X121411528Y-69737352D01*
X121493595Y-69890887D01*
X121604038Y-70025462D01*
X121725573Y-70125203D01*
X121713614Y-70131595D01*
X121579038Y-70242038D01*
X121468595Y-70376614D01*
X121386528Y-70530150D01*
X121335992Y-70696746D01*
X121318928Y-70870000D01*
X121318928Y-71370000D01*
X121335992Y-71543254D01*
X121386528Y-71709850D01*
X121468595Y-71863386D01*
X121579038Y-71997962D01*
X121585594Y-72003342D01*
X121505815Y-72068815D01*
X121426463Y-72165506D01*
X121367498Y-72275820D01*
X121331188Y-72395518D01*
X121318928Y-72520000D01*
X121322000Y-72734250D01*
X121480750Y-72893000D01*
X122555000Y-72893000D01*
X122555000Y-72873000D01*
X122809000Y-72873000D01*
X122809000Y-72893000D01*
X123883250Y-72893000D01*
X124042000Y-72734250D01*
X124045072Y-72520000D01*
X124032812Y-72395518D01*
X123996502Y-72275820D01*
X123937537Y-72165506D01*
X123858185Y-72068815D01*
X123778406Y-72003342D01*
X123784962Y-71997962D01*
X123895405Y-71863386D01*
X123977472Y-71709850D01*
X124028008Y-71543254D01*
X124045072Y-71370000D01*
X124045072Y-70870000D01*
X124028008Y-70696746D01*
X123977472Y-70530150D01*
X123895405Y-70376614D01*
X123784962Y-70242038D01*
X123650386Y-70131595D01*
X123638427Y-70125203D01*
X123759962Y-70025462D01*
X123870405Y-69890887D01*
X123952472Y-69737352D01*
X124003008Y-69570756D01*
X124020072Y-69397502D01*
X124020072Y-68872498D01*
X124003008Y-68699244D01*
X123952472Y-68532648D01*
X123870405Y-68379113D01*
X123759962Y-68244538D01*
X123733109Y-68222500D01*
X123742247Y-68215000D01*
X124884876Y-68215000D01*
X124920518Y-68225812D01*
X125045000Y-68238072D01*
X125495000Y-68238072D01*
X125619482Y-68225812D01*
X125739180Y-68189502D01*
X125849494Y-68130537D01*
X125920000Y-68072674D01*
X125990506Y-68130537D01*
X126100820Y-68189502D01*
X126220518Y-68225812D01*
X126345000Y-68238072D01*
X126795000Y-68238072D01*
X126919482Y-68225812D01*
X127039180Y-68189502D01*
X127141144Y-68135000D01*
X127746387Y-68135000D01*
X127834613Y-68207405D01*
X127988148Y-68289472D01*
X128154744Y-68340008D01*
X128327998Y-68357072D01*
X129228002Y-68357072D01*
X129359539Y-68344117D01*
X130171428Y-69156007D01*
X130171428Y-69565002D01*
X130188492Y-69738256D01*
X130239028Y-69904852D01*
X130321095Y-70058387D01*
X130431538Y-70192962D01*
X130566113Y-70303405D01*
X130719648Y-70385472D01*
X130886244Y-70436008D01*
X131059498Y-70453072D01*
X131584502Y-70453072D01*
X131757756Y-70436008D01*
X131924352Y-70385472D01*
X132077887Y-70303405D01*
X132159137Y-70236724D01*
X132183315Y-70266185D01*
X132280006Y-70345537D01*
X132390320Y-70404502D01*
X132510018Y-70440812D01*
X132634500Y-70453072D01*
X132861250Y-70450000D01*
X133020000Y-70291250D01*
X133020000Y-69242000D01*
X133274000Y-69242000D01*
X133274000Y-70291250D01*
X133432750Y-70450000D01*
X133659500Y-70453072D01*
X133783982Y-70440812D01*
X133903680Y-70404502D01*
X134013994Y-70345537D01*
X134110685Y-70266185D01*
X134190037Y-70169494D01*
X134249002Y-70059180D01*
X134285312Y-69939482D01*
X134297572Y-69815000D01*
X134294500Y-69400750D01*
X134135750Y-69242000D01*
X133274000Y-69242000D01*
X133020000Y-69242000D01*
X133000000Y-69242000D01*
X133000000Y-68988000D01*
X133020000Y-68988000D01*
X133020000Y-67938750D01*
X133274000Y-67938750D01*
X133274000Y-68988000D01*
X134135750Y-68988000D01*
X134294500Y-68829250D01*
X134297572Y-68415000D01*
X134285312Y-68290518D01*
X134249002Y-68170820D01*
X134190037Y-68060506D01*
X134110685Y-67963815D01*
X134013994Y-67884463D01*
X133903680Y-67825498D01*
X133783982Y-67789188D01*
X133659500Y-67776928D01*
X133432750Y-67780000D01*
X133274000Y-67938750D01*
X133020000Y-67938750D01*
X132861250Y-67780000D01*
X132634500Y-67776928D01*
X132510018Y-67789188D01*
X132390320Y-67825498D01*
X132280006Y-67884463D01*
X132183315Y-67963815D01*
X132159137Y-67993276D01*
X132077887Y-67926595D01*
X131924352Y-67844528D01*
X131757756Y-67793992D01*
X131584502Y-67776928D01*
X131295507Y-67776928D01*
X130913578Y-67395000D01*
X131033106Y-67275473D01*
X131059498Y-67278072D01*
X131584502Y-67278072D01*
X131757756Y-67261008D01*
X131924352Y-67210472D01*
X132077887Y-67128405D01*
X132159137Y-67061724D01*
X132183315Y-67091185D01*
X132280006Y-67170537D01*
X132390320Y-67229502D01*
X132510018Y-67265812D01*
X132634500Y-67278072D01*
X132861250Y-67275000D01*
X133020000Y-67116250D01*
X133020000Y-66067000D01*
X133274000Y-66067000D01*
X133274000Y-67116250D01*
X133432750Y-67275000D01*
X133659500Y-67278072D01*
X133783982Y-67265812D01*
X133903680Y-67229502D01*
X134013994Y-67170537D01*
X134110685Y-67091185D01*
X134190037Y-66994494D01*
X134249002Y-66884180D01*
X134285312Y-66764482D01*
X134297572Y-66640000D01*
X134296475Y-66492000D01*
X135999928Y-66492000D01*
X136012188Y-66616482D01*
X136048498Y-66736180D01*
X136107463Y-66846494D01*
X136186815Y-66943185D01*
X136283506Y-67022537D01*
X136393820Y-67081502D01*
X136513518Y-67117812D01*
X136638000Y-67130072D01*
X138452250Y-67127000D01*
X138611000Y-66968250D01*
X138611000Y-65944000D01*
X136161750Y-65944000D01*
X136003000Y-66102750D01*
X135999928Y-66492000D01*
X134296475Y-66492000D01*
X134294500Y-66225750D01*
X134135750Y-66067000D01*
X133274000Y-66067000D01*
X133020000Y-66067000D01*
X133000000Y-66067000D01*
X133000000Y-65813000D01*
X133020000Y-65813000D01*
X133020000Y-64763750D01*
X133274000Y-64763750D01*
X133274000Y-65813000D01*
X134135750Y-65813000D01*
X134294500Y-65654250D01*
X134297572Y-65240000D01*
X134287921Y-65142000D01*
X135999928Y-65142000D01*
X136003000Y-65531250D01*
X136161750Y-65690000D01*
X138611000Y-65690000D01*
X138611000Y-64665750D01*
X138452250Y-64507000D01*
X136638000Y-64503928D01*
X136513518Y-64516188D01*
X136393820Y-64552498D01*
X136283506Y-64611463D01*
X136186815Y-64690815D01*
X136107463Y-64787506D01*
X136048498Y-64897820D01*
X136012188Y-65017518D01*
X135999928Y-65142000D01*
X134287921Y-65142000D01*
X134285312Y-65115518D01*
X134249002Y-64995820D01*
X134190037Y-64885506D01*
X134110685Y-64788815D01*
X134013994Y-64709463D01*
X133903680Y-64650498D01*
X133783982Y-64614188D01*
X133659500Y-64601928D01*
X133432750Y-64605000D01*
X133274000Y-64763750D01*
X133020000Y-64763750D01*
X132861250Y-64605000D01*
X132634500Y-64601928D01*
X132510018Y-64614188D01*
X132390320Y-64650498D01*
X132280006Y-64709463D01*
X132183315Y-64788815D01*
X132159137Y-64818276D01*
X132077887Y-64751595D01*
X131924352Y-64669528D01*
X131757756Y-64618992D01*
X131584502Y-64601928D01*
X131059498Y-64601928D01*
X130886244Y-64618992D01*
X130719648Y-64669528D01*
X130566113Y-64751595D01*
X130431538Y-64862038D01*
X130321095Y-64996613D01*
X130239028Y-65150148D01*
X130188492Y-65316744D01*
X130171428Y-65489998D01*
X130171428Y-65633993D01*
X130111118Y-65694304D01*
X130116072Y-65644002D01*
X130116072Y-65118998D01*
X130099008Y-64945744D01*
X130048472Y-64779148D01*
X129966405Y-64625613D01*
X129855962Y-64491038D01*
X129807397Y-64451182D01*
X130045864Y-64212714D01*
X130107150Y-64245472D01*
X130273746Y-64296008D01*
X130447000Y-64313072D01*
X130947000Y-64313072D01*
X131120254Y-64296008D01*
X131286850Y-64245472D01*
X131440386Y-64163405D01*
X131574962Y-64052962D01*
X131647000Y-63965183D01*
X131719038Y-64052962D01*
G37*
%TD.AperFunction*%
D20*
X100921892Y-60873408D02*
X100970650Y-61034142D01*
X101049829Y-61182275D01*
X101156385Y-61312115D01*
X101286225Y-61418671D01*
X101434358Y-61497850D01*
X101595092Y-61546608D01*
X101762250Y-61563072D01*
X102199750Y-61563072D01*
X102366000Y-61546697D01*
X102366001Y-62467886D01*
X102307613Y-62499095D01*
X102173038Y-62609538D01*
X102062595Y-62744113D01*
X101980528Y-62897648D01*
X101929992Y-63064244D01*
X101912928Y-63237498D01*
X101912928Y-63762502D01*
X101929992Y-63935756D01*
X101980528Y-64102352D01*
X102062595Y-64255887D01*
X102173038Y-64390462D01*
X102199891Y-64412500D01*
X102173038Y-64434538D01*
X102062595Y-64569113D01*
X101980528Y-64722648D01*
X101929992Y-64889244D01*
X101912928Y-65062498D01*
X101912928Y-65587502D01*
X101929992Y-65760756D01*
X101980528Y-65927352D01*
X102062595Y-66080887D01*
X102173038Y-66215462D01*
X102241842Y-66271928D01*
X101651000Y-66271928D01*
X101526518Y-66284188D01*
X101406820Y-66320498D01*
X101296506Y-66379463D01*
X101199815Y-66458815D01*
X101120463Y-66555506D01*
X101061498Y-66665820D01*
X101025188Y-66785518D01*
X101012928Y-66910000D01*
X101012928Y-67695000D01*
X98630386Y-67695000D01*
X98551183Y-67630000D01*
X98638962Y-67557962D01*
X98749405Y-67423386D01*
X98831472Y-67269850D01*
X98882008Y-67103254D01*
X98899072Y-66930000D01*
X98899072Y-66430000D01*
X98882008Y-66256746D01*
X98831472Y-66090150D01*
X98749405Y-65936614D01*
X98638962Y-65802038D01*
X98504386Y-65691595D01*
X98421000Y-65647024D01*
X98421000Y-65087114D01*
X98479387Y-65055905D01*
X98613962Y-64945462D01*
X98724405Y-64810887D01*
X98806472Y-64657352D01*
X98857008Y-64490756D01*
X98874072Y-64317502D01*
X98874072Y-63792498D01*
X98857008Y-63619244D01*
X98806472Y-63452648D01*
X98724405Y-63299113D01*
X98613962Y-63164538D01*
X98587109Y-63142500D01*
X98613962Y-63120462D01*
X98724405Y-62985887D01*
X98806472Y-62832352D01*
X98857008Y-62665756D01*
X98874072Y-62492502D01*
X98874072Y-61967498D01*
X98857008Y-61794244D01*
X98806472Y-61627648D01*
X98788519Y-61594060D01*
X99052849Y-61329730D01*
X99161225Y-61418671D01*
X99309358Y-61497850D01*
X99470092Y-61546608D01*
X99637250Y-61563072D01*
X100074750Y-61563072D01*
X100241908Y-61546608D01*
X100402642Y-61497850D01*
X100550775Y-61418671D01*
X100680615Y-61312115D01*
X100787171Y-61182275D01*
X100866350Y-61034142D01*
X100915108Y-60873408D01*
X100918500Y-60838969D01*
X100921892Y-60873408D01*
%TA.AperFunction,Conductor*%
D21*
G36*
X100921892Y-60873408D02*
G01*
X100970650Y-61034142D01*
X101049829Y-61182275D01*
X101156385Y-61312115D01*
X101286225Y-61418671D01*
X101434358Y-61497850D01*
X101595092Y-61546608D01*
X101762250Y-61563072D01*
X102199750Y-61563072D01*
X102366000Y-61546697D01*
X102366001Y-62467886D01*
X102307613Y-62499095D01*
X102173038Y-62609538D01*
X102062595Y-62744113D01*
X101980528Y-62897648D01*
X101929992Y-63064244D01*
X101912928Y-63237498D01*
X101912928Y-63762502D01*
X101929992Y-63935756D01*
X101980528Y-64102352D01*
X102062595Y-64255887D01*
X102173038Y-64390462D01*
X102199891Y-64412500D01*
X102173038Y-64434538D01*
X102062595Y-64569113D01*
X101980528Y-64722648D01*
X101929992Y-64889244D01*
X101912928Y-65062498D01*
X101912928Y-65587502D01*
X101929992Y-65760756D01*
X101980528Y-65927352D01*
X102062595Y-66080887D01*
X102173038Y-66215462D01*
X102241842Y-66271928D01*
X101651000Y-66271928D01*
X101526518Y-66284188D01*
X101406820Y-66320498D01*
X101296506Y-66379463D01*
X101199815Y-66458815D01*
X101120463Y-66555506D01*
X101061498Y-66665820D01*
X101025188Y-66785518D01*
X101012928Y-66910000D01*
X101012928Y-67695000D01*
X98630386Y-67695000D01*
X98551183Y-67630000D01*
X98638962Y-67557962D01*
X98749405Y-67423386D01*
X98831472Y-67269850D01*
X98882008Y-67103254D01*
X98899072Y-66930000D01*
X98899072Y-66430000D01*
X98882008Y-66256746D01*
X98831472Y-66090150D01*
X98749405Y-65936614D01*
X98638962Y-65802038D01*
X98504386Y-65691595D01*
X98421000Y-65647024D01*
X98421000Y-65087114D01*
X98479387Y-65055905D01*
X98613962Y-64945462D01*
X98724405Y-64810887D01*
X98806472Y-64657352D01*
X98857008Y-64490756D01*
X98874072Y-64317502D01*
X98874072Y-63792498D01*
X98857008Y-63619244D01*
X98806472Y-63452648D01*
X98724405Y-63299113D01*
X98613962Y-63164538D01*
X98587109Y-63142500D01*
X98613962Y-63120462D01*
X98724405Y-62985887D01*
X98806472Y-62832352D01*
X98857008Y-62665756D01*
X98874072Y-62492502D01*
X98874072Y-61967498D01*
X98857008Y-61794244D01*
X98806472Y-61627648D01*
X98788519Y-61594060D01*
X99052849Y-61329730D01*
X99161225Y-61418671D01*
X99309358Y-61497850D01*
X99470092Y-61546608D01*
X99637250Y-61563072D01*
X100074750Y-61563072D01*
X100241908Y-61546608D01*
X100402642Y-61497850D01*
X100550775Y-61418671D01*
X100680615Y-61312115D01*
X100787171Y-61182275D01*
X100866350Y-61034142D01*
X100915108Y-60873408D01*
X100918500Y-60838969D01*
X100921892Y-60873408D01*
G37*
%TD.AperFunction*%
D20*
X96265528Y-61627648D02*
X96214992Y-61794244D01*
X96197928Y-61967498D01*
X96197928Y-62492502D01*
X96214992Y-62665756D01*
X96265528Y-62832352D01*
X96347595Y-62985887D01*
X96458038Y-63120462D01*
X96484891Y-63142500D01*
X96458038Y-63164538D01*
X96347595Y-63299113D01*
X96265528Y-63452648D01*
X96214992Y-63619244D01*
X96197928Y-63792498D01*
X96197928Y-64317502D01*
X96214992Y-64490756D01*
X96265528Y-64657352D01*
X96347595Y-64810887D01*
X96458038Y-64945462D01*
X96592613Y-65055905D01*
X96651001Y-65087114D01*
X96651000Y-65647024D01*
X96567614Y-65691595D01*
X96433038Y-65802038D01*
X96322595Y-65936614D01*
X96240528Y-66090150D01*
X96189992Y-66256746D01*
X96172928Y-66430000D01*
X96172928Y-66930000D01*
X96189992Y-67103254D01*
X96240528Y-67269850D01*
X96322595Y-67423386D01*
X96433038Y-67557962D01*
X96520817Y-67630000D01*
X96441614Y-67695000D01*
X93538445Y-67695000D01*
X93533962Y-67689538D01*
X93507109Y-67667500D01*
X93533962Y-67645462D01*
X93644405Y-67510887D01*
X93726472Y-67357352D01*
X93777008Y-67190756D01*
X93794072Y-67017502D01*
X93794072Y-66492498D01*
X93777008Y-66319244D01*
X93726472Y-66152648D01*
X93644405Y-65999113D01*
X93533962Y-65864538D01*
X93399387Y-65754095D01*
X93341000Y-65722886D01*
X93341000Y-64501578D01*
X96323629Y-61518949D01*
X96265528Y-61627648D01*
%TA.AperFunction,Conductor*%
D21*
G36*
X96265528Y-61627648D02*
G01*
X96214992Y-61794244D01*
X96197928Y-61967498D01*
X96197928Y-62492502D01*
X96214992Y-62665756D01*
X96265528Y-62832352D01*
X96347595Y-62985887D01*
X96458038Y-63120462D01*
X96484891Y-63142500D01*
X96458038Y-63164538D01*
X96347595Y-63299113D01*
X96265528Y-63452648D01*
X96214992Y-63619244D01*
X96197928Y-63792498D01*
X96197928Y-64317502D01*
X96214992Y-64490756D01*
X96265528Y-64657352D01*
X96347595Y-64810887D01*
X96458038Y-64945462D01*
X96592613Y-65055905D01*
X96651001Y-65087114D01*
X96651000Y-65647024D01*
X96567614Y-65691595D01*
X96433038Y-65802038D01*
X96322595Y-65936614D01*
X96240528Y-66090150D01*
X96189992Y-66256746D01*
X96172928Y-66430000D01*
X96172928Y-66930000D01*
X96189992Y-67103254D01*
X96240528Y-67269850D01*
X96322595Y-67423386D01*
X96433038Y-67557962D01*
X96520817Y-67630000D01*
X96441614Y-67695000D01*
X93538445Y-67695000D01*
X93533962Y-67689538D01*
X93507109Y-67667500D01*
X93533962Y-67645462D01*
X93644405Y-67510887D01*
X93726472Y-67357352D01*
X93777008Y-67190756D01*
X93794072Y-67017502D01*
X93794072Y-66492498D01*
X93777008Y-66319244D01*
X93726472Y-66152648D01*
X93644405Y-65999113D01*
X93533962Y-65864538D01*
X93399387Y-65754095D01*
X93341000Y-65722886D01*
X93341000Y-64501578D01*
X96323629Y-61518949D01*
X96265528Y-61627648D01*
G37*
%TD.AperFunction*%
D20*
X139817869Y-46648722D02*
X139931246Y-46682953D01*
X140035819Y-46738555D01*
X140081000Y-46775404D01*
X140081000Y-58855210D01*
X139023750Y-58857000D01*
X138865000Y-59015750D01*
X138865000Y-60040000D01*
X138885000Y-60040000D01*
X138885000Y-60294000D01*
X138865000Y-60294000D01*
X138865000Y-61318250D01*
X139023750Y-61477000D01*
X140081000Y-61478790D01*
X140081000Y-61615524D01*
X139980507Y-61585040D01*
X139777037Y-61565000D01*
X132655963Y-61565000D01*
X132452493Y-61585040D01*
X132446269Y-61586928D01*
X132347000Y-61586928D01*
X132173746Y-61603992D01*
X132007150Y-61654528D01*
X131853614Y-61736595D01*
X131719038Y-61847038D01*
X131647000Y-61934817D01*
X131574962Y-61847038D01*
X131440386Y-61736595D01*
X131286850Y-61654528D01*
X131120254Y-61603992D01*
X130947000Y-61586928D01*
X130447000Y-61586928D01*
X130273746Y-61603992D01*
X130107150Y-61654528D01*
X129953614Y-61736595D01*
X129819038Y-61847038D01*
X129708595Y-61981614D01*
X129626528Y-62135150D01*
X129611521Y-62184623D01*
X129562941Y-62210589D01*
X129556276Y-62216059D01*
X129461953Y-62293468D01*
X129461951Y-62293470D01*
X129428183Y-62321183D01*
X129400470Y-62354951D01*
X128191951Y-63563471D01*
X128158184Y-63591183D01*
X128130471Y-63624951D01*
X128130468Y-63624954D01*
X128047590Y-63725941D01*
X127965412Y-63879687D01*
X127914805Y-64046510D01*
X127908832Y-64107157D01*
X127902000Y-64176523D01*
X127902000Y-64176531D01*
X127897719Y-64220000D01*
X127902000Y-64263469D01*
X127902000Y-64344576D01*
X127834613Y-64380595D01*
X127700038Y-64491038D01*
X127589595Y-64625613D01*
X127507528Y-64779148D01*
X127456992Y-64945744D01*
X127439928Y-65118998D01*
X127439928Y-65644002D01*
X127456992Y-65817256D01*
X127507528Y-65983852D01*
X127589595Y-66137387D01*
X127700038Y-66271962D01*
X127726891Y-66294000D01*
X127700038Y-66316038D01*
X127659856Y-66365000D01*
X127141144Y-66365000D01*
X127039180Y-66310498D01*
X126919482Y-66274188D01*
X126795000Y-66261928D01*
X126345000Y-66261928D01*
X126220518Y-66274188D01*
X126100820Y-66310498D01*
X125990506Y-66369463D01*
X125920000Y-66427326D01*
X125849494Y-66369463D01*
X125739180Y-66310498D01*
X125619482Y-66274188D01*
X125495000Y-66261928D01*
X125045000Y-66261928D01*
X124920518Y-66274188D01*
X124800820Y-66310498D01*
X124690506Y-66369463D01*
X124622834Y-66425000D01*
X124416523Y-66425000D01*
X124286510Y-66437805D01*
X124262792Y-66445000D01*
X123780858Y-66445000D01*
X123759962Y-66419538D01*
X123625387Y-66309095D01*
X123471852Y-66227028D01*
X123305256Y-66176492D01*
X123132002Y-66159428D01*
X122231998Y-66159428D01*
X122058744Y-66176492D01*
X121892148Y-66227028D01*
X121738613Y-66309095D01*
X121604038Y-66419538D01*
X121599555Y-66425000D01*
X121094114Y-66425000D01*
X121062905Y-66366613D01*
X120952462Y-66232038D01*
X120817887Y-66121595D01*
X120664352Y-66039528D01*
X120497756Y-65988992D01*
X120324502Y-65971928D01*
X119799498Y-65971928D01*
X119626244Y-65988992D01*
X119459648Y-66039528D01*
X119306113Y-66121595D01*
X119171538Y-66232038D01*
X119149500Y-66258891D01*
X119127462Y-66232038D01*
X118992887Y-66121595D01*
X118839352Y-66039528D01*
X118672756Y-65988992D01*
X118499502Y-65971928D01*
X117974498Y-65971928D01*
X117801244Y-65988992D01*
X117634648Y-66039528D01*
X117481113Y-66121595D01*
X117346538Y-66232038D01*
X117236095Y-66366613D01*
X117204886Y-66425000D01*
X116144445Y-66425000D01*
X116139962Y-66419538D01*
X116113109Y-66397500D01*
X116139962Y-66375462D01*
X116250405Y-66240887D01*
X116332472Y-66087352D01*
X116383008Y-65920756D01*
X116400072Y-65747502D01*
X116400072Y-65222498D01*
X116383008Y-65049244D01*
X116332472Y-64882648D01*
X116250405Y-64729113D01*
X116139962Y-64594538D01*
X116005387Y-64484095D01*
X115875586Y-64414714D01*
X115801411Y-64275941D01*
X115768438Y-64235764D01*
X115718532Y-64174953D01*
X115718530Y-64174951D01*
X115690817Y-64141183D01*
X115657050Y-64113471D01*
X114171604Y-62628026D01*
X114173281Y-62611001D01*
X114169000Y-62567535D01*
X114169000Y-61811234D01*
X114178281Y-61717001D01*
X114169000Y-61622767D01*
X114169000Y-61503524D01*
X114187962Y-61487962D01*
X114298405Y-61353387D01*
X114380472Y-61199851D01*
X114412278Y-61095000D01*
X116739422Y-61095000D01*
X118469470Y-62825049D01*
X118497183Y-62858817D01*
X118530951Y-62886530D01*
X118530953Y-62886532D01*
X118556364Y-62907386D01*
X118631941Y-62969411D01*
X118785687Y-63051589D01*
X118952510Y-63102195D01*
X119082523Y-63115000D01*
X119082533Y-63115000D01*
X119125999Y-63119281D01*
X119169465Y-63115000D01*
X121922036Y-63115000D01*
X121967614Y-63152405D01*
X122121150Y-63234472D01*
X122287746Y-63285008D01*
X122461000Y-63302072D01*
X122756494Y-63302072D01*
X125057202Y-65602781D01*
X125069188Y-65724482D01*
X125105498Y-65844180D01*
X125164463Y-65954494D01*
X125243815Y-66051185D01*
X125340506Y-66130537D01*
X125450820Y-66189502D01*
X125570518Y-66225812D01*
X125695000Y-66238072D01*
X126145000Y-66238072D01*
X126269482Y-66225812D01*
X126389180Y-66189502D01*
X126499494Y-66130537D01*
X126596185Y-66051185D01*
X126675537Y-65954494D01*
X126734502Y-65844180D01*
X126770812Y-65724482D01*
X126775775Y-65674090D01*
X126805588Y-65618313D01*
X126856195Y-65451490D01*
X126873281Y-65278000D01*
X126856195Y-65104509D01*
X126805588Y-64937686D01*
X126782536Y-64894559D01*
X126770812Y-64775518D01*
X126734502Y-64655820D01*
X126675537Y-64545506D01*
X126596185Y-64448815D01*
X126499494Y-64369463D01*
X126389180Y-64310498D01*
X126269482Y-64274188D01*
X126227647Y-64270068D01*
X124299072Y-62341494D01*
X124299072Y-61914000D01*
X124282008Y-61740746D01*
X124231472Y-61574150D01*
X124149405Y-61420614D01*
X124038962Y-61286038D01*
X124032406Y-61280658D01*
X124112185Y-61215185D01*
X124191537Y-61118494D01*
X124250502Y-61008180D01*
X124286812Y-60888482D01*
X124291389Y-60842000D01*
X135999928Y-60842000D01*
X136012188Y-60966482D01*
X136048498Y-61086180D01*
X136107463Y-61196494D01*
X136186815Y-61293185D01*
X136283506Y-61372537D01*
X136393820Y-61431502D01*
X136513518Y-61467812D01*
X136638000Y-61480072D01*
X138452250Y-61477000D01*
X138611000Y-61318250D01*
X138611000Y-60294000D01*
X136161750Y-60294000D01*
X136003000Y-60452750D01*
X135999928Y-60842000D01*
X124291389Y-60842000D01*
X124299072Y-60764000D01*
X124296000Y-60549750D01*
X124137250Y-60391000D01*
X123063000Y-60391000D01*
X123063000Y-60411000D01*
X122809000Y-60411000D01*
X122809000Y-60391000D01*
X121734750Y-60391000D01*
X121576000Y-60549750D01*
X121572928Y-60764000D01*
X121585188Y-60888482D01*
X121621498Y-61008180D01*
X121680463Y-61118494D01*
X121759815Y-61215185D01*
X121839594Y-61280658D01*
X121833038Y-61286038D01*
X121784649Y-61345000D01*
X119492579Y-61345000D01*
X117911579Y-59764000D01*
X121572928Y-59764000D01*
X121576000Y-59978250D01*
X121734750Y-60137000D01*
X122809000Y-60137000D01*
X122809000Y-59287750D01*
X123063000Y-59287750D01*
X123063000Y-60137000D01*
X124137250Y-60137000D01*
X124296000Y-59978250D01*
X124299072Y-59764000D01*
X124286812Y-59639518D01*
X124250502Y-59519820D01*
X124235632Y-59492000D01*
X135999928Y-59492000D01*
X136003000Y-59881250D01*
X136161750Y-60040000D01*
X138611000Y-60040000D01*
X138611000Y-59015750D01*
X138452250Y-58857000D01*
X136638000Y-58853928D01*
X136513518Y-58866188D01*
X136393820Y-58902498D01*
X136283506Y-58961463D01*
X136186815Y-59040815D01*
X136107463Y-59137506D01*
X136048498Y-59247820D01*
X136012188Y-59367518D01*
X135999928Y-59492000D01*
X124235632Y-59492000D01*
X124191537Y-59409506D01*
X124112185Y-59312815D01*
X124015494Y-59233463D01*
X123905180Y-59174498D01*
X123785482Y-59138188D01*
X123661000Y-59125928D01*
X123221750Y-59129000D01*
X123063000Y-59287750D01*
X122809000Y-59287750D01*
X122650250Y-59129000D01*
X122211000Y-59125928D01*
X122086518Y-59138188D01*
X121966820Y-59174498D01*
X121856506Y-59233463D01*
X121759815Y-59312815D01*
X121680463Y-59409506D01*
X121621498Y-59519820D01*
X121585188Y-59639518D01*
X121572928Y-59764000D01*
X117911579Y-59764000D01*
X117762534Y-59614956D01*
X117734817Y-59581183D01*
X117600059Y-59470589D01*
X117446313Y-59388411D01*
X117279490Y-59337805D01*
X117149477Y-59325000D01*
X117149469Y-59325000D01*
X117106000Y-59320719D01*
X117062531Y-59325000D01*
X114412278Y-59325000D01*
X114380472Y-59220149D01*
X114298405Y-59066613D01*
X114187962Y-58932038D01*
X114169000Y-58916476D01*
X114169000Y-57252072D01*
X114526000Y-57252072D01*
X114650482Y-57239812D01*
X114770180Y-57203502D01*
X114880494Y-57144537D01*
X114977185Y-57065185D01*
X115056537Y-56968494D01*
X115115502Y-56858180D01*
X115151812Y-56738482D01*
X115164072Y-56614000D01*
X115164072Y-53114000D01*
X115151812Y-52989518D01*
X115115502Y-52869820D01*
X115056537Y-52759506D01*
X114977185Y-52662815D01*
X114880494Y-52583463D01*
X114770180Y-52524498D01*
X114650482Y-52488188D01*
X114526000Y-52475928D01*
X111026000Y-52475928D01*
X110901518Y-52488188D01*
X110781820Y-52524498D01*
X110671506Y-52583463D01*
X110574815Y-52662815D01*
X110495463Y-52759506D01*
X110454506Y-52836131D01*
X110464072Y-52739000D01*
X110464072Y-50989000D01*
X110434999Y-50693814D01*
X110348896Y-50409972D01*
X110324324Y-50364000D01*
X110387928Y-50364000D01*
X110400188Y-50488482D01*
X110436498Y-50608180D01*
X110495463Y-50718494D01*
X110574815Y-50815185D01*
X110671506Y-50894537D01*
X110781820Y-50953502D01*
X110901518Y-50989812D01*
X111026000Y-51002072D01*
X112490250Y-50999000D01*
X112649000Y-50840250D01*
X112649000Y-48991000D01*
X112903000Y-48991000D01*
X112903000Y-50840250D01*
X113061750Y-50999000D01*
X114526000Y-51002072D01*
X114650482Y-50989812D01*
X114770180Y-50953502D01*
X114880494Y-50894537D01*
X114977185Y-50815185D01*
X115056537Y-50718494D01*
X115115502Y-50608180D01*
X115151812Y-50488482D01*
X115164072Y-50364000D01*
X115161000Y-49149750D01*
X115002250Y-48991000D01*
X112903000Y-48991000D01*
X112649000Y-48991000D01*
X110549750Y-48991000D01*
X110391000Y-49149750D01*
X110387928Y-50364000D01*
X110324324Y-50364000D01*
X110209073Y-50148382D01*
X110020903Y-49919097D01*
X109791618Y-49730927D01*
X109530028Y-49591104D01*
X109246186Y-49505001D01*
X108951000Y-49475928D01*
X107201000Y-49475928D01*
X106905814Y-49505001D01*
X106621972Y-49591104D01*
X106360382Y-49730927D01*
X106131097Y-49919097D01*
X105942927Y-50148382D01*
X105803104Y-50409972D01*
X105717001Y-50693814D01*
X105687928Y-50989000D01*
X105687928Y-52739000D01*
X105717001Y-53034186D01*
X105803104Y-53318028D01*
X105942927Y-53579618D01*
X106131097Y-53808903D01*
X106360382Y-53997073D01*
X106621972Y-54136896D01*
X106905814Y-54222999D01*
X107201000Y-54252072D01*
X108951000Y-54252072D01*
X109246186Y-54222999D01*
X109530028Y-54136896D01*
X109791618Y-53997073D01*
X110020903Y-53808903D01*
X110209073Y-53579618D01*
X110348896Y-53318028D01*
X110387928Y-53189357D01*
X110387928Y-56614000D01*
X110400188Y-56738482D01*
X110436498Y-56858180D01*
X110495463Y-56968494D01*
X110574815Y-57065185D01*
X110671506Y-57144537D01*
X110781820Y-57203502D01*
X110901518Y-57239812D01*
X111026000Y-57252072D01*
X112399001Y-57252072D01*
X112399000Y-58630523D01*
X112399000Y-58836050D01*
X112282038Y-58932038D01*
X112171595Y-59066613D01*
X112089528Y-59220149D01*
X112038992Y-59386745D01*
X112021928Y-59559999D01*
X112021928Y-60860001D01*
X112038992Y-61033255D01*
X112089528Y-61199851D01*
X112171595Y-61353387D01*
X112282038Y-61487962D01*
X112399001Y-61583951D01*
X112399001Y-61678514D01*
X112399000Y-61678524D01*
X112399000Y-61678531D01*
X112394719Y-61722000D01*
X112399000Y-61765469D01*
X112399000Y-61980000D01*
X107935579Y-61980000D01*
X107065579Y-61110000D01*
X109071928Y-61110000D01*
X109084188Y-61234482D01*
X109120498Y-61354180D01*
X109179463Y-61464494D01*
X109258815Y-61561185D01*
X109355506Y-61640537D01*
X109465820Y-61699502D01*
X109585518Y-61735812D01*
X109710000Y-61748072D01*
X109999250Y-61745000D01*
X110158000Y-61586250D01*
X110158000Y-60337000D01*
X110412000Y-60337000D01*
X110412000Y-61586250D01*
X110570750Y-61745000D01*
X110860000Y-61748072D01*
X110984482Y-61735812D01*
X111104180Y-61699502D01*
X111214494Y-61640537D01*
X111311185Y-61561185D01*
X111390537Y-61464494D01*
X111449502Y-61354180D01*
X111485812Y-61234482D01*
X111498072Y-61110000D01*
X111495000Y-60495750D01*
X111336250Y-60337000D01*
X110412000Y-60337000D01*
X110158000Y-60337000D01*
X109233750Y-60337000D01*
X109075000Y-60495750D01*
X109071928Y-61110000D01*
X107065579Y-61110000D01*
X106574532Y-60618954D01*
X106546817Y-60585183D01*
X106513045Y-60557466D01*
X106320536Y-60364958D01*
X106320532Y-60364953D01*
X105265579Y-59310000D01*
X109071928Y-59310000D01*
X109075000Y-59924250D01*
X109233750Y-60083000D01*
X110158000Y-60083000D01*
X110158000Y-58833750D01*
X110412000Y-58833750D01*
X110412000Y-60083000D01*
X111336250Y-60083000D01*
X111495000Y-59924250D01*
X111498072Y-59310000D01*
X111485812Y-59185518D01*
X111449502Y-59065820D01*
X111390537Y-58955506D01*
X111311185Y-58858815D01*
X111214494Y-58779463D01*
X111104180Y-58720498D01*
X110984482Y-58684188D01*
X110860000Y-58671928D01*
X110570750Y-58675000D01*
X110412000Y-58833750D01*
X110158000Y-58833750D01*
X109999250Y-58675000D01*
X109710000Y-58671928D01*
X109585518Y-58684188D01*
X109465820Y-58720498D01*
X109355506Y-58779463D01*
X109258815Y-58858815D01*
X109179463Y-58955506D01*
X109120498Y-59065820D01*
X109084188Y-59185518D01*
X109071928Y-59310000D01*
X105265579Y-59310000D01*
X104415534Y-58459956D01*
X104387817Y-58426183D01*
X104253059Y-58315589D01*
X104099313Y-58233411D01*
X103932490Y-58182805D01*
X103802477Y-58170000D01*
X103802469Y-58170000D01*
X103759000Y-58165719D01*
X103715531Y-58170000D01*
X97579469Y-58170000D01*
X97536000Y-58165719D01*
X97492531Y-58170000D01*
X97492523Y-58170000D01*
X97362510Y-58182805D01*
X97195687Y-58233411D01*
X97041941Y-58315589D01*
X96940953Y-58398468D01*
X96940951Y-58398470D01*
X96907183Y-58426183D01*
X96879470Y-58459951D01*
X91860956Y-63478466D01*
X91827183Y-63506183D01*
X91716589Y-63640942D01*
X91634411Y-63794688D01*
X91583805Y-63961511D01*
X91571000Y-64091524D01*
X91571000Y-64091531D01*
X91566719Y-64135000D01*
X91571000Y-64178469D01*
X91571001Y-65722886D01*
X91512613Y-65754095D01*
X91378038Y-65864538D01*
X91267595Y-65999113D01*
X91185528Y-66152648D01*
X91134992Y-66319244D01*
X91117928Y-66492498D01*
X91117928Y-67017502D01*
X91134992Y-67190756D01*
X91185528Y-67357352D01*
X91267595Y-67510887D01*
X91378038Y-67645462D01*
X91404891Y-67667500D01*
X91378038Y-67689538D01*
X91373555Y-67695000D01*
X90882976Y-67695000D01*
X90838405Y-67611614D01*
X90727962Y-67477038D01*
X90593386Y-67366595D01*
X90439850Y-67284528D01*
X90273254Y-67233992D01*
X90100000Y-67216928D01*
X89600000Y-67216928D01*
X89426746Y-67233992D01*
X89260150Y-67284528D01*
X89106614Y-67366595D01*
X88972038Y-67477038D01*
X88900000Y-67564817D01*
X88827962Y-67477038D01*
X88693386Y-67366595D01*
X88539850Y-67284528D01*
X88373254Y-67233992D01*
X88200000Y-67216928D01*
X87907731Y-67216928D01*
X87901507Y-67215040D01*
X87698037Y-67195000D01*
X83116963Y-67195000D01*
X82913493Y-67215040D01*
X82652419Y-67294236D01*
X82628674Y-67306928D01*
X82000223Y-67306928D01*
X82002143Y-67067073D01*
X83226250Y-67065000D01*
X83385000Y-66906250D01*
X83385000Y-65882000D01*
X83639000Y-65882000D01*
X83639000Y-66906250D01*
X83797750Y-67065000D01*
X85612000Y-67068072D01*
X85736482Y-67055812D01*
X85856180Y-67019502D01*
X85966494Y-66960537D01*
X86063185Y-66881185D01*
X86142537Y-66784494D01*
X86201502Y-66674180D01*
X86237812Y-66554482D01*
X86250072Y-66430000D01*
X86247000Y-66040750D01*
X86088250Y-65882000D01*
X83639000Y-65882000D01*
X83385000Y-65882000D01*
X83365000Y-65882000D01*
X83365000Y-65628000D01*
X83385000Y-65628000D01*
X83385000Y-64603750D01*
X83639000Y-64603750D01*
X83639000Y-65628000D01*
X86088250Y-65628000D01*
X86247000Y-65469250D01*
X86250072Y-65080000D01*
X86237812Y-64955518D01*
X86201502Y-64835820D01*
X86142537Y-64725506D01*
X86063185Y-64628815D01*
X85966494Y-64549463D01*
X85856180Y-64490498D01*
X85736482Y-64454188D01*
X85612000Y-64441928D01*
X83797750Y-64445000D01*
X83639000Y-64603750D01*
X83385000Y-64603750D01*
X83226250Y-64445000D01*
X82023155Y-64442963D01*
X82085149Y-56700495D01*
X82851000Y-56700495D01*
X82851000Y-57091505D01*
X82927282Y-57475003D01*
X83076915Y-57836250D01*
X83294149Y-58161364D01*
X83570636Y-58437851D01*
X83895750Y-58655085D01*
X84256997Y-58804718D01*
X84640495Y-58881000D01*
X85031505Y-58881000D01*
X85415003Y-58804718D01*
X85776250Y-58655085D01*
X86101364Y-58437851D01*
X86377851Y-58161364D01*
X86595085Y-57836250D01*
X86744718Y-57475003D01*
X86821000Y-57091505D01*
X86821000Y-56700495D01*
X86744718Y-56316997D01*
X86595085Y-55955750D01*
X86377851Y-55630636D01*
X86101364Y-55354149D01*
X85776250Y-55136915D01*
X85415003Y-54987282D01*
X85031505Y-54911000D01*
X84640495Y-54911000D01*
X84256997Y-54987282D01*
X83895750Y-55136915D01*
X83570636Y-55354149D01*
X83294149Y-55630636D01*
X83076915Y-55955750D01*
X82927282Y-56316997D01*
X82851000Y-56700495D01*
X82085149Y-56700495D01*
X82159907Y-47364000D01*
X110387928Y-47364000D01*
X110391000Y-48578250D01*
X110549750Y-48737000D01*
X112649000Y-48737000D01*
X112649000Y-46887750D01*
X112903000Y-46887750D01*
X112903000Y-48737000D01*
X115002250Y-48737000D01*
X115161000Y-48578250D01*
X115164072Y-47364000D01*
X115151812Y-47239518D01*
X115115502Y-47119820D01*
X115056537Y-47009506D01*
X114977185Y-46912815D01*
X114880494Y-46833463D01*
X114770180Y-46774498D01*
X114650482Y-46738188D01*
X114526000Y-46725928D01*
X113061750Y-46729000D01*
X112903000Y-46887750D01*
X112649000Y-46887750D01*
X112490250Y-46729000D01*
X111026000Y-46725928D01*
X110901518Y-46738188D01*
X110781820Y-46774498D01*
X110671506Y-46833463D01*
X110574815Y-46912815D01*
X110495463Y-47009506D01*
X110436498Y-47119820D01*
X110400188Y-47239518D01*
X110387928Y-47364000D01*
X82159907Y-47364000D01*
X82164592Y-46779023D01*
X82210664Y-46740909D01*
X82314844Y-46684581D01*
X82427976Y-46649560D01*
X82576022Y-46634000D01*
X139667721Y-46634000D01*
X139817869Y-46648722D01*
%TA.AperFunction,Conductor*%
D21*
G36*
X139817869Y-46648722D02*
G01*
X139931246Y-46682953D01*
X140035819Y-46738555D01*
X140081000Y-46775404D01*
X140081000Y-58855210D01*
X139023750Y-58857000D01*
X138865000Y-59015750D01*
X138865000Y-60040000D01*
X138885000Y-60040000D01*
X138885000Y-60294000D01*
X138865000Y-60294000D01*
X138865000Y-61318250D01*
X139023750Y-61477000D01*
X140081000Y-61478790D01*
X140081000Y-61615524D01*
X139980507Y-61585040D01*
X139777037Y-61565000D01*
X132655963Y-61565000D01*
X132452493Y-61585040D01*
X132446269Y-61586928D01*
X132347000Y-61586928D01*
X132173746Y-61603992D01*
X132007150Y-61654528D01*
X131853614Y-61736595D01*
X131719038Y-61847038D01*
X131647000Y-61934817D01*
X131574962Y-61847038D01*
X131440386Y-61736595D01*
X131286850Y-61654528D01*
X131120254Y-61603992D01*
X130947000Y-61586928D01*
X130447000Y-61586928D01*
X130273746Y-61603992D01*
X130107150Y-61654528D01*
X129953614Y-61736595D01*
X129819038Y-61847038D01*
X129708595Y-61981614D01*
X129626528Y-62135150D01*
X129611521Y-62184623D01*
X129562941Y-62210589D01*
X129556276Y-62216059D01*
X129461953Y-62293468D01*
X129461951Y-62293470D01*
X129428183Y-62321183D01*
X129400470Y-62354951D01*
X128191951Y-63563471D01*
X128158184Y-63591183D01*
X128130471Y-63624951D01*
X128130468Y-63624954D01*
X128047590Y-63725941D01*
X127965412Y-63879687D01*
X127914805Y-64046510D01*
X127908832Y-64107157D01*
X127902000Y-64176523D01*
X127902000Y-64176531D01*
X127897719Y-64220000D01*
X127902000Y-64263469D01*
X127902000Y-64344576D01*
X127834613Y-64380595D01*
X127700038Y-64491038D01*
X127589595Y-64625613D01*
X127507528Y-64779148D01*
X127456992Y-64945744D01*
X127439928Y-65118998D01*
X127439928Y-65644002D01*
X127456992Y-65817256D01*
X127507528Y-65983852D01*
X127589595Y-66137387D01*
X127700038Y-66271962D01*
X127726891Y-66294000D01*
X127700038Y-66316038D01*
X127659856Y-66365000D01*
X127141144Y-66365000D01*
X127039180Y-66310498D01*
X126919482Y-66274188D01*
X126795000Y-66261928D01*
X126345000Y-66261928D01*
X126220518Y-66274188D01*
X126100820Y-66310498D01*
X125990506Y-66369463D01*
X125920000Y-66427326D01*
X125849494Y-66369463D01*
X125739180Y-66310498D01*
X125619482Y-66274188D01*
X125495000Y-66261928D01*
X125045000Y-66261928D01*
X124920518Y-66274188D01*
X124800820Y-66310498D01*
X124690506Y-66369463D01*
X124622834Y-66425000D01*
X124416523Y-66425000D01*
X124286510Y-66437805D01*
X124262792Y-66445000D01*
X123780858Y-66445000D01*
X123759962Y-66419538D01*
X123625387Y-66309095D01*
X123471852Y-66227028D01*
X123305256Y-66176492D01*
X123132002Y-66159428D01*
X122231998Y-66159428D01*
X122058744Y-66176492D01*
X121892148Y-66227028D01*
X121738613Y-66309095D01*
X121604038Y-66419538D01*
X121599555Y-66425000D01*
X121094114Y-66425000D01*
X121062905Y-66366613D01*
X120952462Y-66232038D01*
X120817887Y-66121595D01*
X120664352Y-66039528D01*
X120497756Y-65988992D01*
X120324502Y-65971928D01*
X119799498Y-65971928D01*
X119626244Y-65988992D01*
X119459648Y-66039528D01*
X119306113Y-66121595D01*
X119171538Y-66232038D01*
X119149500Y-66258891D01*
X119127462Y-66232038D01*
X118992887Y-66121595D01*
X118839352Y-66039528D01*
X118672756Y-65988992D01*
X118499502Y-65971928D01*
X117974498Y-65971928D01*
X117801244Y-65988992D01*
X117634648Y-66039528D01*
X117481113Y-66121595D01*
X117346538Y-66232038D01*
X117236095Y-66366613D01*
X117204886Y-66425000D01*
X116144445Y-66425000D01*
X116139962Y-66419538D01*
X116113109Y-66397500D01*
X116139962Y-66375462D01*
X116250405Y-66240887D01*
X116332472Y-66087352D01*
X116383008Y-65920756D01*
X116400072Y-65747502D01*
X116400072Y-65222498D01*
X116383008Y-65049244D01*
X116332472Y-64882648D01*
X116250405Y-64729113D01*
X116139962Y-64594538D01*
X116005387Y-64484095D01*
X115875586Y-64414714D01*
X115801411Y-64275941D01*
X115768438Y-64235764D01*
X115718532Y-64174953D01*
X115718530Y-64174951D01*
X115690817Y-64141183D01*
X115657050Y-64113471D01*
X114171604Y-62628026D01*
X114173281Y-62611001D01*
X114169000Y-62567535D01*
X114169000Y-61811234D01*
X114178281Y-61717001D01*
X114169000Y-61622767D01*
X114169000Y-61503524D01*
X114187962Y-61487962D01*
X114298405Y-61353387D01*
X114380472Y-61199851D01*
X114412278Y-61095000D01*
X116739422Y-61095000D01*
X118469470Y-62825049D01*
X118497183Y-62858817D01*
X118530951Y-62886530D01*
X118530953Y-62886532D01*
X118556364Y-62907386D01*
X118631941Y-62969411D01*
X118785687Y-63051589D01*
X118952510Y-63102195D01*
X119082523Y-63115000D01*
X119082533Y-63115000D01*
X119125999Y-63119281D01*
X119169465Y-63115000D01*
X121922036Y-63115000D01*
X121967614Y-63152405D01*
X122121150Y-63234472D01*
X122287746Y-63285008D01*
X122461000Y-63302072D01*
X122756494Y-63302072D01*
X125057202Y-65602781D01*
X125069188Y-65724482D01*
X125105498Y-65844180D01*
X125164463Y-65954494D01*
X125243815Y-66051185D01*
X125340506Y-66130537D01*
X125450820Y-66189502D01*
X125570518Y-66225812D01*
X125695000Y-66238072D01*
X126145000Y-66238072D01*
X126269482Y-66225812D01*
X126389180Y-66189502D01*
X126499494Y-66130537D01*
X126596185Y-66051185D01*
X126675537Y-65954494D01*
X126734502Y-65844180D01*
X126770812Y-65724482D01*
X126775775Y-65674090D01*
X126805588Y-65618313D01*
X126856195Y-65451490D01*
X126873281Y-65278000D01*
X126856195Y-65104509D01*
X126805588Y-64937686D01*
X126782536Y-64894559D01*
X126770812Y-64775518D01*
X126734502Y-64655820D01*
X126675537Y-64545506D01*
X126596185Y-64448815D01*
X126499494Y-64369463D01*
X126389180Y-64310498D01*
X126269482Y-64274188D01*
X126227647Y-64270068D01*
X124299072Y-62341494D01*
X124299072Y-61914000D01*
X124282008Y-61740746D01*
X124231472Y-61574150D01*
X124149405Y-61420614D01*
X124038962Y-61286038D01*
X124032406Y-61280658D01*
X124112185Y-61215185D01*
X124191537Y-61118494D01*
X124250502Y-61008180D01*
X124286812Y-60888482D01*
X124291389Y-60842000D01*
X135999928Y-60842000D01*
X136012188Y-60966482D01*
X136048498Y-61086180D01*
X136107463Y-61196494D01*
X136186815Y-61293185D01*
X136283506Y-61372537D01*
X136393820Y-61431502D01*
X136513518Y-61467812D01*
X136638000Y-61480072D01*
X138452250Y-61477000D01*
X138611000Y-61318250D01*
X138611000Y-60294000D01*
X136161750Y-60294000D01*
X136003000Y-60452750D01*
X135999928Y-60842000D01*
X124291389Y-60842000D01*
X124299072Y-60764000D01*
X124296000Y-60549750D01*
X124137250Y-60391000D01*
X123063000Y-60391000D01*
X123063000Y-60411000D01*
X122809000Y-60411000D01*
X122809000Y-60391000D01*
X121734750Y-60391000D01*
X121576000Y-60549750D01*
X121572928Y-60764000D01*
X121585188Y-60888482D01*
X121621498Y-61008180D01*
X121680463Y-61118494D01*
X121759815Y-61215185D01*
X121839594Y-61280658D01*
X121833038Y-61286038D01*
X121784649Y-61345000D01*
X119492579Y-61345000D01*
X117911579Y-59764000D01*
X121572928Y-59764000D01*
X121576000Y-59978250D01*
X121734750Y-60137000D01*
X122809000Y-60137000D01*
X122809000Y-59287750D01*
X123063000Y-59287750D01*
X123063000Y-60137000D01*
X124137250Y-60137000D01*
X124296000Y-59978250D01*
X124299072Y-59764000D01*
X124286812Y-59639518D01*
X124250502Y-59519820D01*
X124235632Y-59492000D01*
X135999928Y-59492000D01*
X136003000Y-59881250D01*
X136161750Y-60040000D01*
X138611000Y-60040000D01*
X138611000Y-59015750D01*
X138452250Y-58857000D01*
X136638000Y-58853928D01*
X136513518Y-58866188D01*
X136393820Y-58902498D01*
X136283506Y-58961463D01*
X136186815Y-59040815D01*
X136107463Y-59137506D01*
X136048498Y-59247820D01*
X136012188Y-59367518D01*
X135999928Y-59492000D01*
X124235632Y-59492000D01*
X124191537Y-59409506D01*
X124112185Y-59312815D01*
X124015494Y-59233463D01*
X123905180Y-59174498D01*
X123785482Y-59138188D01*
X123661000Y-59125928D01*
X123221750Y-59129000D01*
X123063000Y-59287750D01*
X122809000Y-59287750D01*
X122650250Y-59129000D01*
X122211000Y-59125928D01*
X122086518Y-59138188D01*
X121966820Y-59174498D01*
X121856506Y-59233463D01*
X121759815Y-59312815D01*
X121680463Y-59409506D01*
X121621498Y-59519820D01*
X121585188Y-59639518D01*
X121572928Y-59764000D01*
X117911579Y-59764000D01*
X117762534Y-59614956D01*
X117734817Y-59581183D01*
X117600059Y-59470589D01*
X117446313Y-59388411D01*
X117279490Y-59337805D01*
X117149477Y-59325000D01*
X117149469Y-59325000D01*
X117106000Y-59320719D01*
X117062531Y-59325000D01*
X114412278Y-59325000D01*
X114380472Y-59220149D01*
X114298405Y-59066613D01*
X114187962Y-58932038D01*
X114169000Y-58916476D01*
X114169000Y-57252072D01*
X114526000Y-57252072D01*
X114650482Y-57239812D01*
X114770180Y-57203502D01*
X114880494Y-57144537D01*
X114977185Y-57065185D01*
X115056537Y-56968494D01*
X115115502Y-56858180D01*
X115151812Y-56738482D01*
X115164072Y-56614000D01*
X115164072Y-53114000D01*
X115151812Y-52989518D01*
X115115502Y-52869820D01*
X115056537Y-52759506D01*
X114977185Y-52662815D01*
X114880494Y-52583463D01*
X114770180Y-52524498D01*
X114650482Y-52488188D01*
X114526000Y-52475928D01*
X111026000Y-52475928D01*
X110901518Y-52488188D01*
X110781820Y-52524498D01*
X110671506Y-52583463D01*
X110574815Y-52662815D01*
X110495463Y-52759506D01*
X110454506Y-52836131D01*
X110464072Y-52739000D01*
X110464072Y-50989000D01*
X110434999Y-50693814D01*
X110348896Y-50409972D01*
X110324324Y-50364000D01*
X110387928Y-50364000D01*
X110400188Y-50488482D01*
X110436498Y-50608180D01*
X110495463Y-50718494D01*
X110574815Y-50815185D01*
X110671506Y-50894537D01*
X110781820Y-50953502D01*
X110901518Y-50989812D01*
X111026000Y-51002072D01*
X112490250Y-50999000D01*
X112649000Y-50840250D01*
X112649000Y-48991000D01*
X112903000Y-48991000D01*
X112903000Y-50840250D01*
X113061750Y-50999000D01*
X114526000Y-51002072D01*
X114650482Y-50989812D01*
X114770180Y-50953502D01*
X114880494Y-50894537D01*
X114977185Y-50815185D01*
X115056537Y-50718494D01*
X115115502Y-50608180D01*
X115151812Y-50488482D01*
X115164072Y-50364000D01*
X115161000Y-49149750D01*
X115002250Y-48991000D01*
X112903000Y-48991000D01*
X112649000Y-48991000D01*
X110549750Y-48991000D01*
X110391000Y-49149750D01*
X110387928Y-50364000D01*
X110324324Y-50364000D01*
X110209073Y-50148382D01*
X110020903Y-49919097D01*
X109791618Y-49730927D01*
X109530028Y-49591104D01*
X109246186Y-49505001D01*
X108951000Y-49475928D01*
X107201000Y-49475928D01*
X106905814Y-49505001D01*
X106621972Y-49591104D01*
X106360382Y-49730927D01*
X106131097Y-49919097D01*
X105942927Y-50148382D01*
X105803104Y-50409972D01*
X105717001Y-50693814D01*
X105687928Y-50989000D01*
X105687928Y-52739000D01*
X105717001Y-53034186D01*
X105803104Y-53318028D01*
X105942927Y-53579618D01*
X106131097Y-53808903D01*
X106360382Y-53997073D01*
X106621972Y-54136896D01*
X106905814Y-54222999D01*
X107201000Y-54252072D01*
X108951000Y-54252072D01*
X109246186Y-54222999D01*
X109530028Y-54136896D01*
X109791618Y-53997073D01*
X110020903Y-53808903D01*
X110209073Y-53579618D01*
X110348896Y-53318028D01*
X110387928Y-53189357D01*
X110387928Y-56614000D01*
X110400188Y-56738482D01*
X110436498Y-56858180D01*
X110495463Y-56968494D01*
X110574815Y-57065185D01*
X110671506Y-57144537D01*
X110781820Y-57203502D01*
X110901518Y-57239812D01*
X111026000Y-57252072D01*
X112399001Y-57252072D01*
X112399000Y-58630523D01*
X112399000Y-58836050D01*
X112282038Y-58932038D01*
X112171595Y-59066613D01*
X112089528Y-59220149D01*
X112038992Y-59386745D01*
X112021928Y-59559999D01*
X112021928Y-60860001D01*
X112038992Y-61033255D01*
X112089528Y-61199851D01*
X112171595Y-61353387D01*
X112282038Y-61487962D01*
X112399001Y-61583951D01*
X112399001Y-61678514D01*
X112399000Y-61678524D01*
X112399000Y-61678531D01*
X112394719Y-61722000D01*
X112399000Y-61765469D01*
X112399000Y-61980000D01*
X107935579Y-61980000D01*
X107065579Y-61110000D01*
X109071928Y-61110000D01*
X109084188Y-61234482D01*
X109120498Y-61354180D01*
X109179463Y-61464494D01*
X109258815Y-61561185D01*
X109355506Y-61640537D01*
X109465820Y-61699502D01*
X109585518Y-61735812D01*
X109710000Y-61748072D01*
X109999250Y-61745000D01*
X110158000Y-61586250D01*
X110158000Y-60337000D01*
X110412000Y-60337000D01*
X110412000Y-61586250D01*
X110570750Y-61745000D01*
X110860000Y-61748072D01*
X110984482Y-61735812D01*
X111104180Y-61699502D01*
X111214494Y-61640537D01*
X111311185Y-61561185D01*
X111390537Y-61464494D01*
X111449502Y-61354180D01*
X111485812Y-61234482D01*
X111498072Y-61110000D01*
X111495000Y-60495750D01*
X111336250Y-60337000D01*
X110412000Y-60337000D01*
X110158000Y-60337000D01*
X109233750Y-60337000D01*
X109075000Y-60495750D01*
X109071928Y-61110000D01*
X107065579Y-61110000D01*
X106574532Y-60618954D01*
X106546817Y-60585183D01*
X106513045Y-60557466D01*
X106320536Y-60364958D01*
X106320532Y-60364953D01*
X105265579Y-59310000D01*
X109071928Y-59310000D01*
X109075000Y-59924250D01*
X109233750Y-60083000D01*
X110158000Y-60083000D01*
X110158000Y-58833750D01*
X110412000Y-58833750D01*
X110412000Y-60083000D01*
X111336250Y-60083000D01*
X111495000Y-59924250D01*
X111498072Y-59310000D01*
X111485812Y-59185518D01*
X111449502Y-59065820D01*
X111390537Y-58955506D01*
X111311185Y-58858815D01*
X111214494Y-58779463D01*
X111104180Y-58720498D01*
X110984482Y-58684188D01*
X110860000Y-58671928D01*
X110570750Y-58675000D01*
X110412000Y-58833750D01*
X110158000Y-58833750D01*
X109999250Y-58675000D01*
X109710000Y-58671928D01*
X109585518Y-58684188D01*
X109465820Y-58720498D01*
X109355506Y-58779463D01*
X109258815Y-58858815D01*
X109179463Y-58955506D01*
X109120498Y-59065820D01*
X109084188Y-59185518D01*
X109071928Y-59310000D01*
X105265579Y-59310000D01*
X104415534Y-58459956D01*
X104387817Y-58426183D01*
X104253059Y-58315589D01*
X104099313Y-58233411D01*
X103932490Y-58182805D01*
X103802477Y-58170000D01*
X103802469Y-58170000D01*
X103759000Y-58165719D01*
X103715531Y-58170000D01*
X97579469Y-58170000D01*
X97536000Y-58165719D01*
X97492531Y-58170000D01*
X97492523Y-58170000D01*
X97362510Y-58182805D01*
X97195687Y-58233411D01*
X97041941Y-58315589D01*
X96940953Y-58398468D01*
X96940951Y-58398470D01*
X96907183Y-58426183D01*
X96879470Y-58459951D01*
X91860956Y-63478466D01*
X91827183Y-63506183D01*
X91716589Y-63640942D01*
X91634411Y-63794688D01*
X91583805Y-63961511D01*
X91571000Y-64091524D01*
X91571000Y-64091531D01*
X91566719Y-64135000D01*
X91571000Y-64178469D01*
X91571001Y-65722886D01*
X91512613Y-65754095D01*
X91378038Y-65864538D01*
X91267595Y-65999113D01*
X91185528Y-66152648D01*
X91134992Y-66319244D01*
X91117928Y-66492498D01*
X91117928Y-67017502D01*
X91134992Y-67190756D01*
X91185528Y-67357352D01*
X91267595Y-67510887D01*
X91378038Y-67645462D01*
X91404891Y-67667500D01*
X91378038Y-67689538D01*
X91373555Y-67695000D01*
X90882976Y-67695000D01*
X90838405Y-67611614D01*
X90727962Y-67477038D01*
X90593386Y-67366595D01*
X90439850Y-67284528D01*
X90273254Y-67233992D01*
X90100000Y-67216928D01*
X89600000Y-67216928D01*
X89426746Y-67233992D01*
X89260150Y-67284528D01*
X89106614Y-67366595D01*
X88972038Y-67477038D01*
X88900000Y-67564817D01*
X88827962Y-67477038D01*
X88693386Y-67366595D01*
X88539850Y-67284528D01*
X88373254Y-67233992D01*
X88200000Y-67216928D01*
X87907731Y-67216928D01*
X87901507Y-67215040D01*
X87698037Y-67195000D01*
X83116963Y-67195000D01*
X82913493Y-67215040D01*
X82652419Y-67294236D01*
X82628674Y-67306928D01*
X82000223Y-67306928D01*
X82002143Y-67067073D01*
X83226250Y-67065000D01*
X83385000Y-66906250D01*
X83385000Y-65882000D01*
X83639000Y-65882000D01*
X83639000Y-66906250D01*
X83797750Y-67065000D01*
X85612000Y-67068072D01*
X85736482Y-67055812D01*
X85856180Y-67019502D01*
X85966494Y-66960537D01*
X86063185Y-66881185D01*
X86142537Y-66784494D01*
X86201502Y-66674180D01*
X86237812Y-66554482D01*
X86250072Y-66430000D01*
X86247000Y-66040750D01*
X86088250Y-65882000D01*
X83639000Y-65882000D01*
X83385000Y-65882000D01*
X83365000Y-65882000D01*
X83365000Y-65628000D01*
X83385000Y-65628000D01*
X83385000Y-64603750D01*
X83639000Y-64603750D01*
X83639000Y-65628000D01*
X86088250Y-65628000D01*
X86247000Y-65469250D01*
X86250072Y-65080000D01*
X86237812Y-64955518D01*
X86201502Y-64835820D01*
X86142537Y-64725506D01*
X86063185Y-64628815D01*
X85966494Y-64549463D01*
X85856180Y-64490498D01*
X85736482Y-64454188D01*
X85612000Y-64441928D01*
X83797750Y-64445000D01*
X83639000Y-64603750D01*
X83385000Y-64603750D01*
X83226250Y-64445000D01*
X82023155Y-64442963D01*
X82085149Y-56700495D01*
X82851000Y-56700495D01*
X82851000Y-57091505D01*
X82927282Y-57475003D01*
X83076915Y-57836250D01*
X83294149Y-58161364D01*
X83570636Y-58437851D01*
X83895750Y-58655085D01*
X84256997Y-58804718D01*
X84640495Y-58881000D01*
X85031505Y-58881000D01*
X85415003Y-58804718D01*
X85776250Y-58655085D01*
X86101364Y-58437851D01*
X86377851Y-58161364D01*
X86595085Y-57836250D01*
X86744718Y-57475003D01*
X86821000Y-57091505D01*
X86821000Y-56700495D01*
X86744718Y-56316997D01*
X86595085Y-55955750D01*
X86377851Y-55630636D01*
X86101364Y-55354149D01*
X85776250Y-55136915D01*
X85415003Y-54987282D01*
X85031505Y-54911000D01*
X84640495Y-54911000D01*
X84256997Y-54987282D01*
X83895750Y-55136915D01*
X83570636Y-55354149D01*
X83294149Y-55630636D01*
X83076915Y-55955750D01*
X82927282Y-56316997D01*
X82851000Y-56700495D01*
X82085149Y-56700495D01*
X82159907Y-47364000D01*
X110387928Y-47364000D01*
X110391000Y-48578250D01*
X110549750Y-48737000D01*
X112649000Y-48737000D01*
X112649000Y-46887750D01*
X112903000Y-46887750D01*
X112903000Y-48737000D01*
X115002250Y-48737000D01*
X115161000Y-48578250D01*
X115164072Y-47364000D01*
X115151812Y-47239518D01*
X115115502Y-47119820D01*
X115056537Y-47009506D01*
X114977185Y-46912815D01*
X114880494Y-46833463D01*
X114770180Y-46774498D01*
X114650482Y-46738188D01*
X114526000Y-46725928D01*
X113061750Y-46729000D01*
X112903000Y-46887750D01*
X112649000Y-46887750D01*
X112490250Y-46729000D01*
X111026000Y-46725928D01*
X110901518Y-46738188D01*
X110781820Y-46774498D01*
X110671506Y-46833463D01*
X110574815Y-46912815D01*
X110495463Y-47009506D01*
X110436498Y-47119820D01*
X110400188Y-47239518D01*
X110387928Y-47364000D01*
X82159907Y-47364000D01*
X82164592Y-46779023D01*
X82210664Y-46740909D01*
X82314844Y-46684581D01*
X82427976Y-46649560D01*
X82576022Y-46634000D01*
X139667721Y-46634000D01*
X139817869Y-46648722D01*
G37*
%TD.AperFunction*%
D20*
X106912470Y-63460049D02*
X106940183Y-63493817D01*
X106973951Y-63521530D01*
X106973953Y-63521532D01*
X107000693Y-63543477D01*
X107074941Y-63604411D01*
X107228687Y-63686589D01*
X107395510Y-63737195D01*
X107525523Y-63750000D01*
X107525531Y-63750000D01*
X107569000Y-63754281D01*
X107612469Y-63750000D01*
X112790422Y-63750000D01*
X113837348Y-64796926D01*
X113791528Y-64882648D01*
X113740992Y-65049244D01*
X113723928Y-65222498D01*
X113723928Y-65747502D01*
X113740992Y-65920756D01*
X113791528Y-66087352D01*
X113873595Y-66240887D01*
X113984038Y-66375462D01*
X114010891Y-66397500D01*
X113984038Y-66419538D01*
X113979555Y-66425000D01*
X110948976Y-66425000D01*
X110904405Y-66341614D01*
X110793962Y-66207038D01*
X110659386Y-66096595D01*
X110505850Y-66014528D01*
X110339254Y-65963992D01*
X110166000Y-65946928D01*
X109666000Y-65946928D01*
X109492746Y-65963992D01*
X109326150Y-66014528D01*
X109172614Y-66096595D01*
X109038038Y-66207038D01*
X108966000Y-66294817D01*
X108893962Y-66207038D01*
X108759386Y-66096595D01*
X108605850Y-66014528D01*
X108439254Y-65963992D01*
X108266000Y-65946928D01*
X107766000Y-65946928D01*
X107592746Y-65963992D01*
X107426150Y-66014528D01*
X107272614Y-66096595D01*
X107138038Y-66207038D01*
X107027595Y-66341614D01*
X106988998Y-66413823D01*
X106969109Y-66397500D01*
X106995962Y-66375462D01*
X107106405Y-66240887D01*
X107188472Y-66087352D01*
X107239008Y-65920756D01*
X107256072Y-65747502D01*
X107256072Y-65222498D01*
X107239008Y-65049244D01*
X107188472Y-64882648D01*
X107106405Y-64729113D01*
X106995962Y-64594538D01*
X106861387Y-64484095D01*
X106803000Y-64452886D01*
X106803000Y-63350579D01*
X106912470Y-63460049D01*
%TA.AperFunction,Conductor*%
D21*
G36*
X106912470Y-63460049D02*
G01*
X106940183Y-63493817D01*
X106973951Y-63521530D01*
X106973953Y-63521532D01*
X107000693Y-63543477D01*
X107074941Y-63604411D01*
X107228687Y-63686589D01*
X107395510Y-63737195D01*
X107525523Y-63750000D01*
X107525531Y-63750000D01*
X107569000Y-63754281D01*
X107612469Y-63750000D01*
X112790422Y-63750000D01*
X113837348Y-64796926D01*
X113791528Y-64882648D01*
X113740992Y-65049244D01*
X113723928Y-65222498D01*
X113723928Y-65747502D01*
X113740992Y-65920756D01*
X113791528Y-66087352D01*
X113873595Y-66240887D01*
X113984038Y-66375462D01*
X114010891Y-66397500D01*
X113984038Y-66419538D01*
X113979555Y-66425000D01*
X110948976Y-66425000D01*
X110904405Y-66341614D01*
X110793962Y-66207038D01*
X110659386Y-66096595D01*
X110505850Y-66014528D01*
X110339254Y-65963992D01*
X110166000Y-65946928D01*
X109666000Y-65946928D01*
X109492746Y-65963992D01*
X109326150Y-66014528D01*
X109172614Y-66096595D01*
X109038038Y-66207038D01*
X108966000Y-66294817D01*
X108893962Y-66207038D01*
X108759386Y-66096595D01*
X108605850Y-66014528D01*
X108439254Y-65963992D01*
X108266000Y-65946928D01*
X107766000Y-65946928D01*
X107592746Y-65963992D01*
X107426150Y-66014528D01*
X107272614Y-66096595D01*
X107138038Y-66207038D01*
X107027595Y-66341614D01*
X106988998Y-66413823D01*
X106969109Y-66397500D01*
X106995962Y-66375462D01*
X107106405Y-66240887D01*
X107188472Y-66087352D01*
X107239008Y-65920756D01*
X107256072Y-65747502D01*
X107256072Y-65222498D01*
X107239008Y-65049244D01*
X107188472Y-64882648D01*
X107106405Y-64729113D01*
X106995962Y-64594538D01*
X106861387Y-64484095D01*
X106803000Y-64452886D01*
X106803000Y-63350579D01*
X106912470Y-63460049D01*
G37*
%TD.AperFunction*%
%TD*%
M02*
