%TF.GenerationSoftware,KiCad,Pcbnew,(5.1.9)-1*%
%TF.CreationDate,2021-02-06T16:32:04-05:00*%
%TF.ProjectId,LNA_1,4c4e415f-312e-46b6-9963-61645f706362,rev?*%
%TF.SameCoordinates,Original*%
%TF.FileFunction,Legend,Top*%
%TF.FilePolarity,Positive*%
%FSLAX46Y46*%
G04 Gerber Fmt 4.6, Leading zero omitted, Abs format (unit mm)*
G04 Created by KiCad (PCBNEW (5.1.9)-1) date 2021-02-06 16:32:04*
%MOMM*%
%LPD*%
G01*
G04 APERTURE LIST*
%ADD10C,0.150000*%
%ADD11C,0.120000*%
%ADD12C,0.015000*%
G04 APERTURE END LIST*
D10*
X122174666Y-52586000D02*
X122079428Y-52538380D01*
X121936571Y-52538380D01*
X121793714Y-52586000D01*
X121698476Y-52681238D01*
X121650857Y-52776476D01*
X121603238Y-52966952D01*
X121603238Y-53109809D01*
X121650857Y-53300285D01*
X121698476Y-53395523D01*
X121793714Y-53490761D01*
X121936571Y-53538380D01*
X122031809Y-53538380D01*
X122174666Y-53490761D01*
X122222285Y-53443142D01*
X122222285Y-53109809D01*
X122031809Y-53109809D01*
X122508000Y-52538380D02*
X123079428Y-52538380D01*
X122793714Y-53538380D02*
X122793714Y-52538380D01*
X123984190Y-53538380D02*
X123650857Y-53062190D01*
X123412761Y-53538380D02*
X123412761Y-52538380D01*
X123793714Y-52538380D01*
X123888952Y-52586000D01*
X123936571Y-52633619D01*
X123984190Y-52728857D01*
X123984190Y-52871714D01*
X123936571Y-52966952D01*
X123888952Y-53014571D01*
X123793714Y-53062190D01*
X123412761Y-53062190D01*
X124746095Y-53014571D02*
X124412761Y-53014571D01*
X124412761Y-53538380D02*
X124412761Y-52538380D01*
X124888952Y-52538380D01*
X126508000Y-53538380D02*
X126031809Y-53538380D01*
X126031809Y-52538380D01*
X126841333Y-53538380D02*
X126841333Y-52538380D01*
X127412761Y-53538380D01*
X127412761Y-52538380D01*
X127841333Y-53252666D02*
X128317523Y-53252666D01*
X127746095Y-53538380D02*
X128079428Y-52538380D01*
X128412761Y-53538380D01*
X130079428Y-53538380D02*
X129746095Y-53062190D01*
X129508000Y-53538380D02*
X129508000Y-52538380D01*
X129888952Y-52538380D01*
X129984190Y-52586000D01*
X130031809Y-52633619D01*
X130079428Y-52728857D01*
X130079428Y-52871714D01*
X130031809Y-52966952D01*
X129984190Y-53014571D01*
X129888952Y-53062190D01*
X129508000Y-53062190D01*
X130888952Y-53490761D02*
X130793714Y-53538380D01*
X130603238Y-53538380D01*
X130508000Y-53490761D01*
X130460380Y-53395523D01*
X130460380Y-53014571D01*
X130508000Y-52919333D01*
X130603238Y-52871714D01*
X130793714Y-52871714D01*
X130888952Y-52919333D01*
X130936571Y-53014571D01*
X130936571Y-53109809D01*
X130460380Y-53205047D01*
X131269904Y-52871714D02*
X131508000Y-53538380D01*
X131746095Y-52871714D01*
X133412761Y-53538380D02*
X132841333Y-53538380D01*
X133127047Y-53538380D02*
X133127047Y-52538380D01*
X133031809Y-52681238D01*
X132936571Y-52776476D01*
X132841333Y-52824095D01*
D11*
%TO.C,CC10*%
X111048748Y-61120000D02*
X112471252Y-61120000D01*
X111048748Y-59300000D02*
X112471252Y-59300000D01*
%TO.C,Q1*%
X127080000Y-66930000D02*
X127080000Y-65520000D01*
X124760000Y-65520000D02*
X124760000Y-67550000D01*
X124760000Y-65520000D02*
X125420000Y-65520000D01*
X126420000Y-65520000D02*
X127080000Y-65520000D01*
%TO.C,J3*%
X117376000Y-55764000D02*
X114776000Y-55764000D01*
X117376000Y-41064000D02*
X117376000Y-55764000D01*
X108176000Y-55764000D02*
X108176000Y-53864000D01*
X110876000Y-55764000D02*
X108176000Y-55764000D01*
X108176000Y-41064000D02*
X117376000Y-41064000D01*
X108176000Y-49864000D02*
X108176000Y-41064000D01*
X117576000Y-54914000D02*
X117576000Y-55964000D01*
X116526000Y-55964000D02*
X117576000Y-55964000D01*
%TO.C,CC1*%
X88638748Y-67845000D02*
X89161252Y-67845000D01*
X88638748Y-69315000D02*
X89161252Y-69315000D01*
%TO.C,CC2*%
X96801000Y-67368748D02*
X96801000Y-67891252D01*
X98271000Y-67368748D02*
X98271000Y-67891252D01*
%TO.C,CC3*%
X108704748Y-66575000D02*
X109227252Y-66575000D01*
X108704748Y-68045000D02*
X109227252Y-68045000D01*
%TO.C,CC4*%
X123671000Y-61475252D02*
X123671000Y-60952748D01*
X122201000Y-61475252D02*
X122201000Y-60952748D01*
%TO.C,CC5*%
X131385748Y-62215000D02*
X131908252Y-62215000D01*
X131385748Y-63685000D02*
X131908252Y-63685000D01*
%TO.C,Csh2*%
X123417000Y-72331252D02*
X123417000Y-71808748D01*
X121947000Y-72331252D02*
X121947000Y-71808748D01*
%TO.C,LFB1*%
X101318122Y-60885000D02*
X100518878Y-60885000D01*
X101318122Y-59765000D02*
X100518878Y-59765000D01*
%TO.C,RB2*%
X115797000Y-66624564D02*
X115797000Y-66170436D01*
X114327000Y-66624564D02*
X114327000Y-66170436D01*
%TO.C,RB1A1*%
X93191000Y-67894564D02*
X93191000Y-67440436D01*
X91721000Y-67894564D02*
X91721000Y-67440436D01*
%TO.C,RC1*%
X105183000Y-66624564D02*
X105183000Y-66170436D01*
X106653000Y-66624564D02*
X106653000Y-66170436D01*
%TO.C,RE1*%
X95531000Y-75434564D02*
X95531000Y-74980436D01*
X97001000Y-75434564D02*
X97001000Y-74980436D01*
%TO.C,RE12*%
X100176000Y-75434564D02*
X100176000Y-74980436D01*
X98706000Y-75434564D02*
X98706000Y-74980436D01*
%TO.C,RE13*%
X102516000Y-75434564D02*
X102516000Y-74980436D01*
X103986000Y-75434564D02*
X103986000Y-74980436D01*
%TO.C,RE14*%
X106326000Y-75434564D02*
X106326000Y-74980436D01*
X107796000Y-75434564D02*
X107796000Y-74980436D01*
%TO.C,RE15*%
X111606000Y-75434564D02*
X111606000Y-74980436D01*
X110136000Y-75434564D02*
X110136000Y-74980436D01*
%TO.C,RE21*%
X132461564Y-69850000D02*
X132007436Y-69850000D01*
X132461564Y-68380000D02*
X132007436Y-68380000D01*
%TO.C,RE22*%
X132461564Y-65205000D02*
X132007436Y-65205000D01*
X132461564Y-66675000D02*
X132007436Y-66675000D01*
%TO.C,RFB1*%
X98271000Y-63369564D02*
X98271000Y-62915436D01*
X96801000Y-63369564D02*
X96801000Y-62915436D01*
%TO.C,RFB2*%
X103986000Y-64185436D02*
X103986000Y-64639564D01*
X102516000Y-64185436D02*
X102516000Y-64639564D01*
%TO.C,Ri2*%
X119376564Y-68045000D02*
X118922436Y-68045000D01*
X119376564Y-66575000D02*
X118922436Y-66575000D01*
%TO.C,Ro1*%
X129513000Y-66066936D02*
X129513000Y-66521064D01*
X128043000Y-66066936D02*
X128043000Y-66521064D01*
%TO.C,Rsh2*%
X121947000Y-67995436D02*
X121947000Y-68449564D01*
X123417000Y-67995436D02*
X123417000Y-68449564D01*
%TO.C,J2*%
D12*
X134720710Y-63666383D02*
X135434996Y-63666383D01*
X135577853Y-63714002D01*
X135673091Y-63809240D01*
X135720710Y-63952097D01*
X135720710Y-64047335D01*
X134815949Y-63237811D02*
X134768330Y-63190192D01*
X134720710Y-63094954D01*
X134720710Y-62856859D01*
X134768330Y-62761621D01*
X134815949Y-62714002D01*
X134911187Y-62666383D01*
X135006425Y-62666383D01*
X135149282Y-62714002D01*
X135720710Y-63285430D01*
X135720710Y-62666383D01*
%TO.C,J1*%
X86434050Y-68572283D02*
X87148336Y-68572283D01*
X87291193Y-68619902D01*
X87386431Y-68715140D01*
X87434050Y-68857997D01*
X87434050Y-68953235D01*
X87434050Y-67572283D02*
X87434050Y-68143711D01*
X87434050Y-67857997D02*
X86434050Y-67857997D01*
X86576908Y-67953235D01*
X86672146Y-68048473D01*
X86719765Y-68143711D01*
%TO.C,CC10*%
D10*
X110617142Y-58717142D02*
X110569523Y-58764761D01*
X110426666Y-58812380D01*
X110331428Y-58812380D01*
X110188571Y-58764761D01*
X110093333Y-58669523D01*
X110045714Y-58574285D01*
X109998095Y-58383809D01*
X109998095Y-58240952D01*
X110045714Y-58050476D01*
X110093333Y-57955238D01*
X110188571Y-57860000D01*
X110331428Y-57812380D01*
X110426666Y-57812380D01*
X110569523Y-57860000D01*
X110617142Y-57907619D01*
X111617142Y-58717142D02*
X111569523Y-58764761D01*
X111426666Y-58812380D01*
X111331428Y-58812380D01*
X111188571Y-58764761D01*
X111093333Y-58669523D01*
X111045714Y-58574285D01*
X110998095Y-58383809D01*
X110998095Y-58240952D01*
X111045714Y-58050476D01*
X111093333Y-57955238D01*
X111188571Y-57860000D01*
X111331428Y-57812380D01*
X111426666Y-57812380D01*
X111569523Y-57860000D01*
X111617142Y-57907619D01*
X112569523Y-58812380D02*
X111998095Y-58812380D01*
X112283809Y-58812380D02*
X112283809Y-57812380D01*
X112188571Y-57955238D01*
X112093333Y-58050476D01*
X111998095Y-58098095D01*
X113188571Y-57812380D02*
X113283809Y-57812380D01*
X113379047Y-57860000D01*
X113426666Y-57907619D01*
X113474285Y-58002857D01*
X113521904Y-58193333D01*
X113521904Y-58431428D01*
X113474285Y-58621904D01*
X113426666Y-58717142D01*
X113379047Y-58764761D01*
X113283809Y-58812380D01*
X113188571Y-58812380D01*
X113093333Y-58764761D01*
X113045714Y-58717142D01*
X112998095Y-58621904D01*
X112950476Y-58431428D01*
X112950476Y-58193333D01*
X112998095Y-58002857D01*
X113045714Y-57907619D01*
X113093333Y-57860000D01*
X113188571Y-57812380D01*
%TO.C,Q1*%
X124517619Y-66395238D02*
X124470000Y-66490476D01*
X124374761Y-66585714D01*
X124231904Y-66728571D01*
X124184285Y-66823809D01*
X124184285Y-66919047D01*
X124422380Y-66871428D02*
X124374761Y-66966666D01*
X124279523Y-67061904D01*
X124089047Y-67109523D01*
X123755714Y-67109523D01*
X123565238Y-67061904D01*
X123470000Y-66966666D01*
X123422380Y-66871428D01*
X123422380Y-66680952D01*
X123470000Y-66585714D01*
X123565238Y-66490476D01*
X123755714Y-66442857D01*
X124089047Y-66442857D01*
X124279523Y-66490476D01*
X124374761Y-66585714D01*
X124422380Y-66680952D01*
X124422380Y-66871428D01*
X124422380Y-65490476D02*
X124422380Y-66061904D01*
X124422380Y-65776190D02*
X123422380Y-65776190D01*
X123565238Y-65871428D01*
X123660476Y-65966666D01*
X123708095Y-66061904D01*
%TO.C,J3*%
X106478380Y-46747333D02*
X107192666Y-46747333D01*
X107335523Y-46794952D01*
X107430761Y-46890190D01*
X107478380Y-47033047D01*
X107478380Y-47128285D01*
X106478380Y-46366380D02*
X106478380Y-45747333D01*
X106859333Y-46080666D01*
X106859333Y-45937809D01*
X106906952Y-45842571D01*
X106954571Y-45794952D01*
X107049809Y-45747333D01*
X107287904Y-45747333D01*
X107383142Y-45794952D01*
X107430761Y-45842571D01*
X107478380Y-45937809D01*
X107478380Y-46223523D01*
X107430761Y-46318761D01*
X107383142Y-46366380D01*
%TO.C,REF\u002A\u002A*%
X133286666Y-74857380D02*
X132953333Y-74381190D01*
X132715238Y-74857380D02*
X132715238Y-73857380D01*
X133096190Y-73857380D01*
X133191428Y-73905000D01*
X133239047Y-73952619D01*
X133286666Y-74047857D01*
X133286666Y-74190714D01*
X133239047Y-74285952D01*
X133191428Y-74333571D01*
X133096190Y-74381190D01*
X132715238Y-74381190D01*
X133715238Y-74333571D02*
X134048571Y-74333571D01*
X134191428Y-74857380D02*
X133715238Y-74857380D01*
X133715238Y-73857380D01*
X134191428Y-73857380D01*
X134953333Y-74333571D02*
X134620000Y-74333571D01*
X134620000Y-74857380D02*
X134620000Y-73857380D01*
X135096190Y-73857380D01*
X135620000Y-73857380D02*
X135620000Y-74095476D01*
X135381904Y-74000238D02*
X135620000Y-74095476D01*
X135858095Y-74000238D01*
X135477142Y-74285952D02*
X135620000Y-74095476D01*
X135762857Y-74285952D01*
X136381904Y-73857380D02*
X136381904Y-74095476D01*
X136143809Y-74000238D02*
X136381904Y-74095476D01*
X136620000Y-74000238D01*
X136239047Y-74285952D02*
X136381904Y-74095476D01*
X136524761Y-74285952D01*
X84772666Y-75238380D02*
X84439333Y-74762190D01*
X84201238Y-75238380D02*
X84201238Y-74238380D01*
X84582190Y-74238380D01*
X84677428Y-74286000D01*
X84725047Y-74333619D01*
X84772666Y-74428857D01*
X84772666Y-74571714D01*
X84725047Y-74666952D01*
X84677428Y-74714571D01*
X84582190Y-74762190D01*
X84201238Y-74762190D01*
X85201238Y-74714571D02*
X85534571Y-74714571D01*
X85677428Y-75238380D02*
X85201238Y-75238380D01*
X85201238Y-74238380D01*
X85677428Y-74238380D01*
X86439333Y-74714571D02*
X86106000Y-74714571D01*
X86106000Y-75238380D02*
X86106000Y-74238380D01*
X86582190Y-74238380D01*
X87106000Y-74238380D02*
X87106000Y-74476476D01*
X86867904Y-74381238D02*
X87106000Y-74476476D01*
X87344095Y-74381238D01*
X86963142Y-74666952D02*
X87106000Y-74476476D01*
X87248857Y-74666952D01*
X87867904Y-74238380D02*
X87867904Y-74476476D01*
X87629809Y-74381238D02*
X87867904Y-74476476D01*
X88106000Y-74381238D01*
X87725047Y-74666952D02*
X87867904Y-74476476D01*
X88010761Y-74666952D01*
X83502666Y-53648380D02*
X83169333Y-53172190D01*
X82931238Y-53648380D02*
X82931238Y-52648380D01*
X83312190Y-52648380D01*
X83407428Y-52696000D01*
X83455047Y-52743619D01*
X83502666Y-52838857D01*
X83502666Y-52981714D01*
X83455047Y-53076952D01*
X83407428Y-53124571D01*
X83312190Y-53172190D01*
X82931238Y-53172190D01*
X83931238Y-53124571D02*
X84264571Y-53124571D01*
X84407428Y-53648380D02*
X83931238Y-53648380D01*
X83931238Y-52648380D01*
X84407428Y-52648380D01*
X85169333Y-53124571D02*
X84836000Y-53124571D01*
X84836000Y-53648380D02*
X84836000Y-52648380D01*
X85312190Y-52648380D01*
X85836000Y-52648380D02*
X85836000Y-52886476D01*
X85597904Y-52791238D02*
X85836000Y-52886476D01*
X86074095Y-52791238D01*
X85693142Y-53076952D02*
X85836000Y-52886476D01*
X85978857Y-53076952D01*
X86597904Y-52648380D02*
X86597904Y-52886476D01*
X86359809Y-52791238D02*
X86597904Y-52886476D01*
X86836000Y-52791238D01*
X86455047Y-53076952D02*
X86597904Y-52886476D01*
X86740761Y-53076952D01*
%TO.C,CC1*%
X88233333Y-67257142D02*
X88185714Y-67304761D01*
X88042857Y-67352380D01*
X87947619Y-67352380D01*
X87804761Y-67304761D01*
X87709523Y-67209523D01*
X87661904Y-67114285D01*
X87614285Y-66923809D01*
X87614285Y-66780952D01*
X87661904Y-66590476D01*
X87709523Y-66495238D01*
X87804761Y-66400000D01*
X87947619Y-66352380D01*
X88042857Y-66352380D01*
X88185714Y-66400000D01*
X88233333Y-66447619D01*
X89233333Y-67257142D02*
X89185714Y-67304761D01*
X89042857Y-67352380D01*
X88947619Y-67352380D01*
X88804761Y-67304761D01*
X88709523Y-67209523D01*
X88661904Y-67114285D01*
X88614285Y-66923809D01*
X88614285Y-66780952D01*
X88661904Y-66590476D01*
X88709523Y-66495238D01*
X88804761Y-66400000D01*
X88947619Y-66352380D01*
X89042857Y-66352380D01*
X89185714Y-66400000D01*
X89233333Y-66447619D01*
X90185714Y-67352380D02*
X89614285Y-67352380D01*
X89900000Y-67352380D02*
X89900000Y-66352380D01*
X89804761Y-66495238D01*
X89709523Y-66590476D01*
X89614285Y-66638095D01*
%TO.C,CC2*%
X99573142Y-68296666D02*
X99620761Y-68344285D01*
X99668380Y-68487142D01*
X99668380Y-68582380D01*
X99620761Y-68725238D01*
X99525523Y-68820476D01*
X99430285Y-68868095D01*
X99239809Y-68915714D01*
X99096952Y-68915714D01*
X98906476Y-68868095D01*
X98811238Y-68820476D01*
X98716000Y-68725238D01*
X98668380Y-68582380D01*
X98668380Y-68487142D01*
X98716000Y-68344285D01*
X98763619Y-68296666D01*
X99573142Y-67296666D02*
X99620761Y-67344285D01*
X99668380Y-67487142D01*
X99668380Y-67582380D01*
X99620761Y-67725238D01*
X99525523Y-67820476D01*
X99430285Y-67868095D01*
X99239809Y-67915714D01*
X99096952Y-67915714D01*
X98906476Y-67868095D01*
X98811238Y-67820476D01*
X98716000Y-67725238D01*
X98668380Y-67582380D01*
X98668380Y-67487142D01*
X98716000Y-67344285D01*
X98763619Y-67296666D01*
X98763619Y-66915714D02*
X98716000Y-66868095D01*
X98668380Y-66772857D01*
X98668380Y-66534761D01*
X98716000Y-66439523D01*
X98763619Y-66391904D01*
X98858857Y-66344285D01*
X98954095Y-66344285D01*
X99096952Y-66391904D01*
X99668380Y-66963333D01*
X99668380Y-66344285D01*
%TO.C,CC3*%
X108299333Y-65987142D02*
X108251714Y-66034761D01*
X108108857Y-66082380D01*
X108013619Y-66082380D01*
X107870761Y-66034761D01*
X107775523Y-65939523D01*
X107727904Y-65844285D01*
X107680285Y-65653809D01*
X107680285Y-65510952D01*
X107727904Y-65320476D01*
X107775523Y-65225238D01*
X107870761Y-65130000D01*
X108013619Y-65082380D01*
X108108857Y-65082380D01*
X108251714Y-65130000D01*
X108299333Y-65177619D01*
X109299333Y-65987142D02*
X109251714Y-66034761D01*
X109108857Y-66082380D01*
X109013619Y-66082380D01*
X108870761Y-66034761D01*
X108775523Y-65939523D01*
X108727904Y-65844285D01*
X108680285Y-65653809D01*
X108680285Y-65510952D01*
X108727904Y-65320476D01*
X108775523Y-65225238D01*
X108870761Y-65130000D01*
X109013619Y-65082380D01*
X109108857Y-65082380D01*
X109251714Y-65130000D01*
X109299333Y-65177619D01*
X109632666Y-65082380D02*
X110251714Y-65082380D01*
X109918380Y-65463333D01*
X110061238Y-65463333D01*
X110156476Y-65510952D01*
X110204095Y-65558571D01*
X110251714Y-65653809D01*
X110251714Y-65891904D01*
X110204095Y-65987142D01*
X110156476Y-66034761D01*
X110061238Y-66082380D01*
X109775523Y-66082380D01*
X109680285Y-66034761D01*
X109632666Y-65987142D01*
%TO.C,CC4*%
X121613142Y-61880666D02*
X121660761Y-61928285D01*
X121708380Y-62071142D01*
X121708380Y-62166380D01*
X121660761Y-62309238D01*
X121565523Y-62404476D01*
X121470285Y-62452095D01*
X121279809Y-62499714D01*
X121136952Y-62499714D01*
X120946476Y-62452095D01*
X120851238Y-62404476D01*
X120756000Y-62309238D01*
X120708380Y-62166380D01*
X120708380Y-62071142D01*
X120756000Y-61928285D01*
X120803619Y-61880666D01*
X121613142Y-60880666D02*
X121660761Y-60928285D01*
X121708380Y-61071142D01*
X121708380Y-61166380D01*
X121660761Y-61309238D01*
X121565523Y-61404476D01*
X121470285Y-61452095D01*
X121279809Y-61499714D01*
X121136952Y-61499714D01*
X120946476Y-61452095D01*
X120851238Y-61404476D01*
X120756000Y-61309238D01*
X120708380Y-61166380D01*
X120708380Y-61071142D01*
X120756000Y-60928285D01*
X120803619Y-60880666D01*
X121041714Y-60023523D02*
X121708380Y-60023523D01*
X120660761Y-60261619D02*
X121375047Y-60499714D01*
X121375047Y-59880666D01*
%TO.C,CC5*%
X130980333Y-61627142D02*
X130932714Y-61674761D01*
X130789857Y-61722380D01*
X130694619Y-61722380D01*
X130551761Y-61674761D01*
X130456523Y-61579523D01*
X130408904Y-61484285D01*
X130361285Y-61293809D01*
X130361285Y-61150952D01*
X130408904Y-60960476D01*
X130456523Y-60865238D01*
X130551761Y-60770000D01*
X130694619Y-60722380D01*
X130789857Y-60722380D01*
X130932714Y-60770000D01*
X130980333Y-60817619D01*
X131980333Y-61627142D02*
X131932714Y-61674761D01*
X131789857Y-61722380D01*
X131694619Y-61722380D01*
X131551761Y-61674761D01*
X131456523Y-61579523D01*
X131408904Y-61484285D01*
X131361285Y-61293809D01*
X131361285Y-61150952D01*
X131408904Y-60960476D01*
X131456523Y-60865238D01*
X131551761Y-60770000D01*
X131694619Y-60722380D01*
X131789857Y-60722380D01*
X131932714Y-60770000D01*
X131980333Y-60817619D01*
X132885095Y-60722380D02*
X132408904Y-60722380D01*
X132361285Y-61198571D01*
X132408904Y-61150952D01*
X132504142Y-61103333D01*
X132742238Y-61103333D01*
X132837476Y-61150952D01*
X132885095Y-61198571D01*
X132932714Y-61293809D01*
X132932714Y-61531904D01*
X132885095Y-61627142D01*
X132837476Y-61674761D01*
X132742238Y-61722380D01*
X132504142Y-61722380D01*
X132408904Y-61674761D01*
X132361285Y-61627142D01*
%TO.C,Csh2*%
X121359142Y-73093809D02*
X121406761Y-73141428D01*
X121454380Y-73284285D01*
X121454380Y-73379523D01*
X121406761Y-73522380D01*
X121311523Y-73617619D01*
X121216285Y-73665238D01*
X121025809Y-73712857D01*
X120882952Y-73712857D01*
X120692476Y-73665238D01*
X120597238Y-73617619D01*
X120502000Y-73522380D01*
X120454380Y-73379523D01*
X120454380Y-73284285D01*
X120502000Y-73141428D01*
X120549619Y-73093809D01*
X121406761Y-72712857D02*
X121454380Y-72617619D01*
X121454380Y-72427142D01*
X121406761Y-72331904D01*
X121311523Y-72284285D01*
X121263904Y-72284285D01*
X121168666Y-72331904D01*
X121121047Y-72427142D01*
X121121047Y-72570000D01*
X121073428Y-72665238D01*
X120978190Y-72712857D01*
X120930571Y-72712857D01*
X120835333Y-72665238D01*
X120787714Y-72570000D01*
X120787714Y-72427142D01*
X120835333Y-72331904D01*
X121454380Y-71855714D02*
X120454380Y-71855714D01*
X121454380Y-71427142D02*
X120930571Y-71427142D01*
X120835333Y-71474761D01*
X120787714Y-71570000D01*
X120787714Y-71712857D01*
X120835333Y-71808095D01*
X120882952Y-71855714D01*
X120549619Y-70998571D02*
X120502000Y-70950952D01*
X120454380Y-70855714D01*
X120454380Y-70617619D01*
X120502000Y-70522380D01*
X120549619Y-70474761D01*
X120644857Y-70427142D01*
X120740095Y-70427142D01*
X120882952Y-70474761D01*
X121454380Y-71046190D01*
X121454380Y-70427142D01*
%TO.C,LFB1*%
X99823261Y-62327380D02*
X99347071Y-62327380D01*
X99347071Y-61327380D01*
X100489928Y-61803571D02*
X100156595Y-61803571D01*
X100156595Y-62327380D02*
X100156595Y-61327380D01*
X100632785Y-61327380D01*
X101347071Y-61803571D02*
X101489928Y-61851190D01*
X101537547Y-61898809D01*
X101585166Y-61994047D01*
X101585166Y-62136904D01*
X101537547Y-62232142D01*
X101489928Y-62279761D01*
X101394690Y-62327380D01*
X101013738Y-62327380D01*
X101013738Y-61327380D01*
X101347071Y-61327380D01*
X101442309Y-61375000D01*
X101489928Y-61422619D01*
X101537547Y-61517857D01*
X101537547Y-61613095D01*
X101489928Y-61708333D01*
X101442309Y-61755952D01*
X101347071Y-61803571D01*
X101013738Y-61803571D01*
X102537547Y-62327380D02*
X101966119Y-62327380D01*
X102251833Y-62327380D02*
X102251833Y-61327380D01*
X102156595Y-61470238D01*
X102061357Y-61565476D01*
X101966119Y-61613095D01*
%TO.C,RB2*%
X113864380Y-67064166D02*
X113388190Y-67397500D01*
X113864380Y-67635595D02*
X112864380Y-67635595D01*
X112864380Y-67254642D01*
X112912000Y-67159404D01*
X112959619Y-67111785D01*
X113054857Y-67064166D01*
X113197714Y-67064166D01*
X113292952Y-67111785D01*
X113340571Y-67159404D01*
X113388190Y-67254642D01*
X113388190Y-67635595D01*
X113340571Y-66302261D02*
X113388190Y-66159404D01*
X113435809Y-66111785D01*
X113531047Y-66064166D01*
X113673904Y-66064166D01*
X113769142Y-66111785D01*
X113816761Y-66159404D01*
X113864380Y-66254642D01*
X113864380Y-66635595D01*
X112864380Y-66635595D01*
X112864380Y-66302261D01*
X112912000Y-66207023D01*
X112959619Y-66159404D01*
X113054857Y-66111785D01*
X113150095Y-66111785D01*
X113245333Y-66159404D01*
X113292952Y-66207023D01*
X113340571Y-66302261D01*
X113340571Y-66635595D01*
X112959619Y-65683214D02*
X112912000Y-65635595D01*
X112864380Y-65540357D01*
X112864380Y-65302261D01*
X112912000Y-65207023D01*
X112959619Y-65159404D01*
X113054857Y-65111785D01*
X113150095Y-65111785D01*
X113292952Y-65159404D01*
X113864380Y-65730833D01*
X113864380Y-65111785D01*
%TO.C,RB1A1*%
X90884571Y-65222380D02*
X90551238Y-64746190D01*
X90313142Y-65222380D02*
X90313142Y-64222380D01*
X90694095Y-64222380D01*
X90789333Y-64270000D01*
X90836952Y-64317619D01*
X90884571Y-64412857D01*
X90884571Y-64555714D01*
X90836952Y-64650952D01*
X90789333Y-64698571D01*
X90694095Y-64746190D01*
X90313142Y-64746190D01*
X91646476Y-64698571D02*
X91789333Y-64746190D01*
X91836952Y-64793809D01*
X91884571Y-64889047D01*
X91884571Y-65031904D01*
X91836952Y-65127142D01*
X91789333Y-65174761D01*
X91694095Y-65222380D01*
X91313142Y-65222380D01*
X91313142Y-64222380D01*
X91646476Y-64222380D01*
X91741714Y-64270000D01*
X91789333Y-64317619D01*
X91836952Y-64412857D01*
X91836952Y-64508095D01*
X91789333Y-64603333D01*
X91741714Y-64650952D01*
X91646476Y-64698571D01*
X91313142Y-64698571D01*
X92836952Y-65222380D02*
X92265523Y-65222380D01*
X92551238Y-65222380D02*
X92551238Y-64222380D01*
X92456000Y-64365238D01*
X92360761Y-64460476D01*
X92265523Y-64508095D01*
X93217904Y-64936666D02*
X93694095Y-64936666D01*
X93122666Y-65222380D02*
X93456000Y-64222380D01*
X93789333Y-65222380D01*
X94646476Y-65222380D02*
X94075047Y-65222380D01*
X94360761Y-65222380D02*
X94360761Y-64222380D01*
X94265523Y-64365238D01*
X94170285Y-64460476D01*
X94075047Y-64508095D01*
%TO.C,RC1*%
X104720380Y-67064166D02*
X104244190Y-67397500D01*
X104720380Y-67635595D02*
X103720380Y-67635595D01*
X103720380Y-67254642D01*
X103768000Y-67159404D01*
X103815619Y-67111785D01*
X103910857Y-67064166D01*
X104053714Y-67064166D01*
X104148952Y-67111785D01*
X104196571Y-67159404D01*
X104244190Y-67254642D01*
X104244190Y-67635595D01*
X104625142Y-66064166D02*
X104672761Y-66111785D01*
X104720380Y-66254642D01*
X104720380Y-66349880D01*
X104672761Y-66492738D01*
X104577523Y-66587976D01*
X104482285Y-66635595D01*
X104291809Y-66683214D01*
X104148952Y-66683214D01*
X103958476Y-66635595D01*
X103863238Y-66587976D01*
X103768000Y-66492738D01*
X103720380Y-66349880D01*
X103720380Y-66254642D01*
X103768000Y-66111785D01*
X103815619Y-66064166D01*
X104720380Y-65111785D02*
X104720380Y-65683214D01*
X104720380Y-65397500D02*
X103720380Y-65397500D01*
X103863238Y-65492738D01*
X103958476Y-65587976D01*
X104006095Y-65683214D01*
%TO.C,RE1*%
X95068380Y-75826547D02*
X94592190Y-76159880D01*
X95068380Y-76397976D02*
X94068380Y-76397976D01*
X94068380Y-76017023D01*
X94116000Y-75921785D01*
X94163619Y-75874166D01*
X94258857Y-75826547D01*
X94401714Y-75826547D01*
X94496952Y-75874166D01*
X94544571Y-75921785D01*
X94592190Y-76017023D01*
X94592190Y-76397976D01*
X94544571Y-75397976D02*
X94544571Y-75064642D01*
X95068380Y-74921785D02*
X95068380Y-75397976D01*
X94068380Y-75397976D01*
X94068380Y-74921785D01*
X95068380Y-73969404D02*
X95068380Y-74540833D01*
X95068380Y-74255119D02*
X94068380Y-74255119D01*
X94211238Y-74350357D01*
X94306476Y-74445595D01*
X94354095Y-74540833D01*
%TO.C,RE12*%
X98243380Y-76302738D02*
X97767190Y-76636071D01*
X98243380Y-76874166D02*
X97243380Y-76874166D01*
X97243380Y-76493214D01*
X97291000Y-76397976D01*
X97338619Y-76350357D01*
X97433857Y-76302738D01*
X97576714Y-76302738D01*
X97671952Y-76350357D01*
X97719571Y-76397976D01*
X97767190Y-76493214D01*
X97767190Y-76874166D01*
X97719571Y-75874166D02*
X97719571Y-75540833D01*
X98243380Y-75397976D02*
X98243380Y-75874166D01*
X97243380Y-75874166D01*
X97243380Y-75397976D01*
X98243380Y-74445595D02*
X98243380Y-75017023D01*
X98243380Y-74731309D02*
X97243380Y-74731309D01*
X97386238Y-74826547D01*
X97481476Y-74921785D01*
X97529095Y-75017023D01*
X97338619Y-74064642D02*
X97291000Y-74017023D01*
X97243380Y-73921785D01*
X97243380Y-73683690D01*
X97291000Y-73588452D01*
X97338619Y-73540833D01*
X97433857Y-73493214D01*
X97529095Y-73493214D01*
X97671952Y-73540833D01*
X98243380Y-74112261D01*
X98243380Y-73493214D01*
%TO.C,RE13*%
X102053380Y-76302738D02*
X101577190Y-76636071D01*
X102053380Y-76874166D02*
X101053380Y-76874166D01*
X101053380Y-76493214D01*
X101101000Y-76397976D01*
X101148619Y-76350357D01*
X101243857Y-76302738D01*
X101386714Y-76302738D01*
X101481952Y-76350357D01*
X101529571Y-76397976D01*
X101577190Y-76493214D01*
X101577190Y-76874166D01*
X101529571Y-75874166D02*
X101529571Y-75540833D01*
X102053380Y-75397976D02*
X102053380Y-75874166D01*
X101053380Y-75874166D01*
X101053380Y-75397976D01*
X102053380Y-74445595D02*
X102053380Y-75017023D01*
X102053380Y-74731309D02*
X101053380Y-74731309D01*
X101196238Y-74826547D01*
X101291476Y-74921785D01*
X101339095Y-75017023D01*
X101053380Y-74112261D02*
X101053380Y-73493214D01*
X101434333Y-73826547D01*
X101434333Y-73683690D01*
X101481952Y-73588452D01*
X101529571Y-73540833D01*
X101624809Y-73493214D01*
X101862904Y-73493214D01*
X101958142Y-73540833D01*
X102005761Y-73588452D01*
X102053380Y-73683690D01*
X102053380Y-73969404D01*
X102005761Y-74064642D01*
X101958142Y-74112261D01*
%TO.C,RE14*%
X105863380Y-76302738D02*
X105387190Y-76636071D01*
X105863380Y-76874166D02*
X104863380Y-76874166D01*
X104863380Y-76493214D01*
X104911000Y-76397976D01*
X104958619Y-76350357D01*
X105053857Y-76302738D01*
X105196714Y-76302738D01*
X105291952Y-76350357D01*
X105339571Y-76397976D01*
X105387190Y-76493214D01*
X105387190Y-76874166D01*
X105339571Y-75874166D02*
X105339571Y-75540833D01*
X105863380Y-75397976D02*
X105863380Y-75874166D01*
X104863380Y-75874166D01*
X104863380Y-75397976D01*
X105863380Y-74445595D02*
X105863380Y-75017023D01*
X105863380Y-74731309D02*
X104863380Y-74731309D01*
X105006238Y-74826547D01*
X105101476Y-74921785D01*
X105149095Y-75017023D01*
X105196714Y-73588452D02*
X105863380Y-73588452D01*
X104815761Y-73826547D02*
X105530047Y-74064642D01*
X105530047Y-73445595D01*
%TO.C,RE15*%
X109673380Y-76302738D02*
X109197190Y-76636071D01*
X109673380Y-76874166D02*
X108673380Y-76874166D01*
X108673380Y-76493214D01*
X108721000Y-76397976D01*
X108768619Y-76350357D01*
X108863857Y-76302738D01*
X109006714Y-76302738D01*
X109101952Y-76350357D01*
X109149571Y-76397976D01*
X109197190Y-76493214D01*
X109197190Y-76874166D01*
X109149571Y-75874166D02*
X109149571Y-75540833D01*
X109673380Y-75397976D02*
X109673380Y-75874166D01*
X108673380Y-75874166D01*
X108673380Y-75397976D01*
X109673380Y-74445595D02*
X109673380Y-75017023D01*
X109673380Y-74731309D02*
X108673380Y-74731309D01*
X108816238Y-74826547D01*
X108911476Y-74921785D01*
X108959095Y-75017023D01*
X108673380Y-73540833D02*
X108673380Y-74017023D01*
X109149571Y-74064642D01*
X109101952Y-74017023D01*
X109054333Y-73921785D01*
X109054333Y-73683690D01*
X109101952Y-73588452D01*
X109149571Y-73540833D01*
X109244809Y-73493214D01*
X109482904Y-73493214D01*
X109578142Y-73540833D01*
X109625761Y-73588452D01*
X109673380Y-73683690D01*
X109673380Y-73921785D01*
X109625761Y-74017023D01*
X109578142Y-74064642D01*
%TO.C,RE21*%
X131139261Y-71217380D02*
X130805928Y-70741190D01*
X130567833Y-71217380D02*
X130567833Y-70217380D01*
X130948785Y-70217380D01*
X131044023Y-70265000D01*
X131091642Y-70312619D01*
X131139261Y-70407857D01*
X131139261Y-70550714D01*
X131091642Y-70645952D01*
X131044023Y-70693571D01*
X130948785Y-70741190D01*
X130567833Y-70741190D01*
X131567833Y-70693571D02*
X131901166Y-70693571D01*
X132044023Y-71217380D02*
X131567833Y-71217380D01*
X131567833Y-70217380D01*
X132044023Y-70217380D01*
X132424976Y-70312619D02*
X132472595Y-70265000D01*
X132567833Y-70217380D01*
X132805928Y-70217380D01*
X132901166Y-70265000D01*
X132948785Y-70312619D01*
X132996404Y-70407857D01*
X132996404Y-70503095D01*
X132948785Y-70645952D01*
X132377357Y-71217380D01*
X132996404Y-71217380D01*
X133948785Y-71217380D02*
X133377357Y-71217380D01*
X133663071Y-71217380D02*
X133663071Y-70217380D01*
X133567833Y-70360238D01*
X133472595Y-70455476D01*
X133377357Y-70503095D01*
%TO.C,RE22*%
X131139261Y-68042380D02*
X130805928Y-67566190D01*
X130567833Y-68042380D02*
X130567833Y-67042380D01*
X130948785Y-67042380D01*
X131044023Y-67090000D01*
X131091642Y-67137619D01*
X131139261Y-67232857D01*
X131139261Y-67375714D01*
X131091642Y-67470952D01*
X131044023Y-67518571D01*
X130948785Y-67566190D01*
X130567833Y-67566190D01*
X131567833Y-67518571D02*
X131901166Y-67518571D01*
X132044023Y-68042380D02*
X131567833Y-68042380D01*
X131567833Y-67042380D01*
X132044023Y-67042380D01*
X132424976Y-67137619D02*
X132472595Y-67090000D01*
X132567833Y-67042380D01*
X132805928Y-67042380D01*
X132901166Y-67090000D01*
X132948785Y-67137619D01*
X132996404Y-67232857D01*
X132996404Y-67328095D01*
X132948785Y-67470952D01*
X132377357Y-68042380D01*
X132996404Y-68042380D01*
X133377357Y-67137619D02*
X133424976Y-67090000D01*
X133520214Y-67042380D01*
X133758309Y-67042380D01*
X133853547Y-67090000D01*
X133901166Y-67137619D01*
X133948785Y-67232857D01*
X133948785Y-67328095D01*
X133901166Y-67470952D01*
X133329738Y-68042380D01*
X133948785Y-68042380D01*
%TO.C,RFB1*%
X96338380Y-64237738D02*
X95862190Y-64571071D01*
X96338380Y-64809166D02*
X95338380Y-64809166D01*
X95338380Y-64428214D01*
X95386000Y-64332976D01*
X95433619Y-64285357D01*
X95528857Y-64237738D01*
X95671714Y-64237738D01*
X95766952Y-64285357D01*
X95814571Y-64332976D01*
X95862190Y-64428214D01*
X95862190Y-64809166D01*
X95814571Y-63475833D02*
X95814571Y-63809166D01*
X96338380Y-63809166D02*
X95338380Y-63809166D01*
X95338380Y-63332976D01*
X95814571Y-62618690D02*
X95862190Y-62475833D01*
X95909809Y-62428214D01*
X96005047Y-62380595D01*
X96147904Y-62380595D01*
X96243142Y-62428214D01*
X96290761Y-62475833D01*
X96338380Y-62571071D01*
X96338380Y-62952023D01*
X95338380Y-62952023D01*
X95338380Y-62618690D01*
X95386000Y-62523452D01*
X95433619Y-62475833D01*
X95528857Y-62428214D01*
X95624095Y-62428214D01*
X95719333Y-62475833D01*
X95766952Y-62523452D01*
X95814571Y-62618690D01*
X95814571Y-62952023D01*
X96338380Y-61428214D02*
X96338380Y-61999642D01*
X96338380Y-61713928D02*
X95338380Y-61713928D01*
X95481238Y-61809166D01*
X95576476Y-61904404D01*
X95624095Y-61999642D01*
%TO.C,RFB2*%
X105353380Y-65507738D02*
X104877190Y-65841071D01*
X105353380Y-66079166D02*
X104353380Y-66079166D01*
X104353380Y-65698214D01*
X104401000Y-65602976D01*
X104448619Y-65555357D01*
X104543857Y-65507738D01*
X104686714Y-65507738D01*
X104781952Y-65555357D01*
X104829571Y-65602976D01*
X104877190Y-65698214D01*
X104877190Y-66079166D01*
X104829571Y-64745833D02*
X104829571Y-65079166D01*
X105353380Y-65079166D02*
X104353380Y-65079166D01*
X104353380Y-64602976D01*
X104829571Y-63888690D02*
X104877190Y-63745833D01*
X104924809Y-63698214D01*
X105020047Y-63650595D01*
X105162904Y-63650595D01*
X105258142Y-63698214D01*
X105305761Y-63745833D01*
X105353380Y-63841071D01*
X105353380Y-64222023D01*
X104353380Y-64222023D01*
X104353380Y-63888690D01*
X104401000Y-63793452D01*
X104448619Y-63745833D01*
X104543857Y-63698214D01*
X104639095Y-63698214D01*
X104734333Y-63745833D01*
X104781952Y-63793452D01*
X104829571Y-63888690D01*
X104829571Y-64222023D01*
X104448619Y-63269642D02*
X104401000Y-63222023D01*
X104353380Y-63126785D01*
X104353380Y-62888690D01*
X104401000Y-62793452D01*
X104448619Y-62745833D01*
X104543857Y-62698214D01*
X104639095Y-62698214D01*
X104781952Y-62745833D01*
X105353380Y-63317261D01*
X105353380Y-62698214D01*
%TO.C,Ri2*%
X118744738Y-69412380D02*
X118411404Y-68936190D01*
X118173309Y-69412380D02*
X118173309Y-68412380D01*
X118554261Y-68412380D01*
X118649500Y-68460000D01*
X118697119Y-68507619D01*
X118744738Y-68602857D01*
X118744738Y-68745714D01*
X118697119Y-68840952D01*
X118649500Y-68888571D01*
X118554261Y-68936190D01*
X118173309Y-68936190D01*
X119173309Y-69412380D02*
X119173309Y-68745714D01*
X119173309Y-68412380D02*
X119125690Y-68460000D01*
X119173309Y-68507619D01*
X119220928Y-68460000D01*
X119173309Y-68412380D01*
X119173309Y-68507619D01*
X119601880Y-68507619D02*
X119649500Y-68460000D01*
X119744738Y-68412380D01*
X119982833Y-68412380D01*
X120078071Y-68460000D01*
X120125690Y-68507619D01*
X120173309Y-68602857D01*
X120173309Y-68698095D01*
X120125690Y-68840952D01*
X119554261Y-69412380D01*
X120173309Y-69412380D01*
%TO.C,Ro1*%
X130880380Y-66913047D02*
X130404190Y-67246380D01*
X130880380Y-67484476D02*
X129880380Y-67484476D01*
X129880380Y-67103523D01*
X129928000Y-67008285D01*
X129975619Y-66960666D01*
X130070857Y-66913047D01*
X130213714Y-66913047D01*
X130308952Y-66960666D01*
X130356571Y-67008285D01*
X130404190Y-67103523D01*
X130404190Y-67484476D01*
X130880380Y-66341619D02*
X130832761Y-66436857D01*
X130785142Y-66484476D01*
X130689904Y-66532095D01*
X130404190Y-66532095D01*
X130308952Y-66484476D01*
X130261333Y-66436857D01*
X130213714Y-66341619D01*
X130213714Y-66198761D01*
X130261333Y-66103523D01*
X130308952Y-66055904D01*
X130404190Y-66008285D01*
X130689904Y-66008285D01*
X130785142Y-66055904D01*
X130832761Y-66103523D01*
X130880380Y-66198761D01*
X130880380Y-66341619D01*
X130880380Y-65055904D02*
X130880380Y-65627333D01*
X130880380Y-65341619D02*
X129880380Y-65341619D01*
X130023238Y-65436857D01*
X130118476Y-65532095D01*
X130166095Y-65627333D01*
%TO.C,Rsh2*%
X124784380Y-69246309D02*
X124308190Y-69579642D01*
X124784380Y-69817738D02*
X123784380Y-69817738D01*
X123784380Y-69436785D01*
X123832000Y-69341547D01*
X123879619Y-69293928D01*
X123974857Y-69246309D01*
X124117714Y-69246309D01*
X124212952Y-69293928D01*
X124260571Y-69341547D01*
X124308190Y-69436785D01*
X124308190Y-69817738D01*
X124736761Y-68865357D02*
X124784380Y-68770119D01*
X124784380Y-68579642D01*
X124736761Y-68484404D01*
X124641523Y-68436785D01*
X124593904Y-68436785D01*
X124498666Y-68484404D01*
X124451047Y-68579642D01*
X124451047Y-68722500D01*
X124403428Y-68817738D01*
X124308190Y-68865357D01*
X124260571Y-68865357D01*
X124165333Y-68817738D01*
X124117714Y-68722500D01*
X124117714Y-68579642D01*
X124165333Y-68484404D01*
X124784380Y-68008214D02*
X123784380Y-68008214D01*
X124784380Y-67579642D02*
X124260571Y-67579642D01*
X124165333Y-67627261D01*
X124117714Y-67722500D01*
X124117714Y-67865357D01*
X124165333Y-67960595D01*
X124212952Y-68008214D01*
X123879619Y-67151071D02*
X123832000Y-67103452D01*
X123784380Y-67008214D01*
X123784380Y-66770119D01*
X123832000Y-66674880D01*
X123879619Y-66627261D01*
X123974857Y-66579642D01*
X124070095Y-66579642D01*
X124212952Y-66627261D01*
X124784380Y-67198690D01*
X124784380Y-66579642D01*
%TO.C,U1*%
D12*
X104051049Y-67997519D02*
X104051049Y-68252490D01*
X104066048Y-68282487D01*
X104081046Y-68297485D01*
X104111043Y-68312484D01*
X104171036Y-68312484D01*
X104201033Y-68297485D01*
X104216031Y-68282487D01*
X104231029Y-68252490D01*
X104231029Y-67997519D01*
X104545994Y-68312484D02*
X104366014Y-68312484D01*
X104456004Y-68312484D02*
X104456004Y-67997519D01*
X104426008Y-68042514D01*
X104396011Y-68072510D01*
X104366014Y-68087509D01*
%TD*%
M02*
