%TF.GenerationSoftware,KiCad,Pcbnew,(5.1.9)-1*%
%TF.CreationDate,2021-02-11T15:09:38-05:00*%
%TF.ProjectId,LNA_1,4c4e415f-312e-46b6-9963-61645f706362,rev?*%
%TF.SameCoordinates,Original*%
%TF.FileFunction,Copper,L1,Top*%
%TF.FilePolarity,Positive*%
%FSLAX46Y46*%
G04 Gerber Fmt 4.6, Leading zero omitted, Abs format (unit mm)*
G04 Created by KiCad (PCBNEW (5.1.9)-1) date 2021-02-11 15:09:38*
%MOMM*%
%LPD*%
G01*
G04 APERTURE LIST*
%TA.AperFunction,SMDPad,CuDef*%
%ADD10R,4.200000X1.750000*%
%TD*%
%TA.AperFunction,SMDPad,CuDef*%
%ADD11R,3.600000X1.270000*%
%TD*%
%TA.AperFunction,SMDPad,CuDef*%
%ADD12R,0.450000X0.700000*%
%TD*%
%TA.AperFunction,ComponentPad*%
%ADD13R,3.500000X3.500000*%
%TD*%
%TA.AperFunction,SMDPad,CuDef*%
%ADD14R,0.600000X0.800000*%
%TD*%
%TA.AperFunction,SMDPad,CuDef*%
%ADD15R,0.900000X0.800000*%
%TD*%
%TA.AperFunction,ViaPad*%
%ADD16C,0.800000*%
%TD*%
%TA.AperFunction,Conductor*%
%ADD17C,1.500000*%
%TD*%
%TA.AperFunction,Conductor*%
%ADD18C,0.500000*%
%TD*%
%TA.AperFunction,Conductor*%
%ADD19C,0.250000*%
%TD*%
%TA.AperFunction,Conductor*%
%ADD20C,0.254000*%
%TD*%
%TA.AperFunction,Conductor*%
%ADD21C,0.100000*%
%TD*%
G04 APERTURE END LIST*
%TO.P,CC10,2*%
%TO.N,VCC*%
%TA.AperFunction,SMDPad,CuDef*%
G36*
G01*
X141633000Y-57440000D02*
X141633000Y-55590000D01*
G75*
G02*
X141883000Y-55340000I250000J0D01*
G01*
X143458000Y-55340000D01*
G75*
G02*
X143708000Y-55590000I0J-250000D01*
G01*
X143708000Y-57440000D01*
G75*
G02*
X143458000Y-57690000I-250000J0D01*
G01*
X141883000Y-57690000D01*
G75*
G02*
X141633000Y-57440000I0J250000D01*
G01*
G37*
%TD.AperFunction*%
%TO.P,CC10,1*%
%TO.N,GND*%
%TA.AperFunction,SMDPad,CuDef*%
G36*
G01*
X136708000Y-57440000D02*
X136708000Y-55590000D01*
G75*
G02*
X136958000Y-55340000I250000J0D01*
G01*
X138533000Y-55340000D01*
G75*
G02*
X138783000Y-55590000I0J-250000D01*
G01*
X138783000Y-57440000D01*
G75*
G02*
X138533000Y-57690000I-250000J0D01*
G01*
X136958000Y-57690000D01*
G75*
G02*
X136708000Y-57440000I0J250000D01*
G01*
G37*
%TD.AperFunction*%
%TD*%
D10*
%TO.P,J2,3_1*%
%TO.N,GND*%
X168202000Y-58897000D03*
%TO.P,J2,2_1*%
X168202000Y-64547000D03*
D11*
%TO.P,J2,1*%
%TO.N,Net-(CC5-Pad2)*%
X168402000Y-61722000D03*
%TD*%
D10*
%TO.P,J1,3_1*%
%TO.N,GND*%
X112976000Y-70135000D03*
%TO.P,J1,2_1*%
X112976000Y-64485000D03*
D11*
%TO.P,J1,1*%
%TO.N,Net-(CC1-Pad1)*%
X112776000Y-67310000D03*
%TD*%
D12*
%TO.P,Q1,3*%
%TO.N,VCC*%
X155384000Y-63980000D03*
%TO.P,Q1,2*%
%TO.N,Net-(Q1-Pad2)*%
X156034000Y-65980000D03*
%TO.P,Q1,1*%
%TO.N,Net-(Q1-Pad1)*%
X154734000Y-65980000D03*
%TD*%
%TO.P,J3,3*%
%TO.N,N/C*%
%TA.AperFunction,ComponentPad*%
G36*
G01*
X136665000Y-46050000D02*
X138415000Y-46050000D01*
G75*
G02*
X139290000Y-46925000I0J-875000D01*
G01*
X139290000Y-48675000D01*
G75*
G02*
X138415000Y-49550000I-875000J0D01*
G01*
X136665000Y-49550000D01*
G75*
G02*
X135790000Y-48675000I0J875000D01*
G01*
X135790000Y-46925000D01*
G75*
G02*
X136665000Y-46050000I875000J0D01*
G01*
G37*
%TD.AperFunction*%
%TO.P,J3,2*%
%TO.N,GND*%
%TA.AperFunction,ComponentPad*%
G36*
G01*
X141240000Y-43300000D02*
X143240000Y-43300000D01*
G75*
G02*
X143990000Y-44050000I0J-750000D01*
G01*
X143990000Y-45550000D01*
G75*
G02*
X143240000Y-46300000I-750000J0D01*
G01*
X141240000Y-46300000D01*
G75*
G02*
X140490000Y-45550000I0J750000D01*
G01*
X140490000Y-44050000D01*
G75*
G02*
X141240000Y-43300000I750000J0D01*
G01*
G37*
%TD.AperFunction*%
D13*
%TO.P,J3,1*%
%TO.N,VCC*%
X142240000Y-50800000D03*
%TD*%
%TO.P,CC1,1*%
%TO.N,Net-(CC1-Pad1)*%
%TA.AperFunction,SMDPad,CuDef*%
G36*
G01*
X116914000Y-67785000D02*
X116914000Y-66835000D01*
G75*
G02*
X117164000Y-66585000I250000J0D01*
G01*
X117664000Y-66585000D01*
G75*
G02*
X117914000Y-66835000I0J-250000D01*
G01*
X117914000Y-67785000D01*
G75*
G02*
X117664000Y-68035000I-250000J0D01*
G01*
X117164000Y-68035000D01*
G75*
G02*
X116914000Y-67785000I0J250000D01*
G01*
G37*
%TD.AperFunction*%
%TO.P,CC1,2*%
%TO.N,Net-(CC1-Pad2)*%
%TA.AperFunction,SMDPad,CuDef*%
G36*
G01*
X118814000Y-67785000D02*
X118814000Y-66835000D01*
G75*
G02*
X119064000Y-66585000I250000J0D01*
G01*
X119564000Y-66585000D01*
G75*
G02*
X119814000Y-66835000I0J-250000D01*
G01*
X119814000Y-67785000D01*
G75*
G02*
X119564000Y-68035000I-250000J0D01*
G01*
X119064000Y-68035000D01*
G75*
G02*
X118814000Y-67785000I0J250000D01*
G01*
G37*
%TD.AperFunction*%
%TD*%
%TO.P,CC2,2*%
%TO.N,Net-(CC1-Pad2)*%
%TA.AperFunction,SMDPad,CuDef*%
G36*
G01*
X126525000Y-66810000D02*
X127475000Y-66810000D01*
G75*
G02*
X127725000Y-67060000I0J-250000D01*
G01*
X127725000Y-67560000D01*
G75*
G02*
X127475000Y-67810000I-250000J0D01*
G01*
X126525000Y-67810000D01*
G75*
G02*
X126275000Y-67560000I0J250000D01*
G01*
X126275000Y-67060000D01*
G75*
G02*
X126525000Y-66810000I250000J0D01*
G01*
G37*
%TD.AperFunction*%
%TO.P,CC2,1*%
%TO.N,Net-(CC2-Pad1)*%
%TA.AperFunction,SMDPad,CuDef*%
G36*
G01*
X126525000Y-64910000D02*
X127475000Y-64910000D01*
G75*
G02*
X127725000Y-65160000I0J-250000D01*
G01*
X127725000Y-65660000D01*
G75*
G02*
X127475000Y-65910000I-250000J0D01*
G01*
X126525000Y-65910000D01*
G75*
G02*
X126275000Y-65660000I0J250000D01*
G01*
X126275000Y-65160000D01*
G75*
G02*
X126525000Y-64910000I250000J0D01*
G01*
G37*
%TD.AperFunction*%
%TD*%
%TO.P,CC3,1*%
%TO.N,Net-(CC3-Pad1)*%
%TA.AperFunction,SMDPad,CuDef*%
G36*
G01*
X136980000Y-66515000D02*
X136980000Y-65565000D01*
G75*
G02*
X137230000Y-65315000I250000J0D01*
G01*
X137730000Y-65315000D01*
G75*
G02*
X137980000Y-65565000I0J-250000D01*
G01*
X137980000Y-66515000D01*
G75*
G02*
X137730000Y-66765000I-250000J0D01*
G01*
X137230000Y-66765000D01*
G75*
G02*
X136980000Y-66515000I0J250000D01*
G01*
G37*
%TD.AperFunction*%
%TO.P,CC3,2*%
%TO.N,Net-(CC3-Pad2)*%
%TA.AperFunction,SMDPad,CuDef*%
G36*
G01*
X138880000Y-66515000D02*
X138880000Y-65565000D01*
G75*
G02*
X139130000Y-65315000I250000J0D01*
G01*
X139630000Y-65315000D01*
G75*
G02*
X139880000Y-65565000I0J-250000D01*
G01*
X139880000Y-66515000D01*
G75*
G02*
X139630000Y-66765000I-250000J0D01*
G01*
X139130000Y-66765000D01*
G75*
G02*
X138880000Y-66515000I0J250000D01*
G01*
G37*
%TD.AperFunction*%
%TD*%
%TO.P,CC4,2*%
%TO.N,GND*%
%TA.AperFunction,SMDPad,CuDef*%
G36*
G01*
X152875000Y-59494000D02*
X151925000Y-59494000D01*
G75*
G02*
X151675000Y-59244000I0J250000D01*
G01*
X151675000Y-58744000D01*
G75*
G02*
X151925000Y-58494000I250000J0D01*
G01*
X152875000Y-58494000D01*
G75*
G02*
X153125000Y-58744000I0J-250000D01*
G01*
X153125000Y-59244000D01*
G75*
G02*
X152875000Y-59494000I-250000J0D01*
G01*
G37*
%TD.AperFunction*%
%TO.P,CC4,1*%
%TO.N,VCC*%
%TA.AperFunction,SMDPad,CuDef*%
G36*
G01*
X152875000Y-61394000D02*
X151925000Y-61394000D01*
G75*
G02*
X151675000Y-61144000I0J250000D01*
G01*
X151675000Y-60644000D01*
G75*
G02*
X151925000Y-60394000I250000J0D01*
G01*
X152875000Y-60394000D01*
G75*
G02*
X153125000Y-60644000I0J-250000D01*
G01*
X153125000Y-61144000D01*
G75*
G02*
X152875000Y-61394000I-250000J0D01*
G01*
G37*
%TD.AperFunction*%
%TD*%
%TO.P,CC5,1*%
%TO.N,Net-(CC5-Pad1)*%
%TA.AperFunction,SMDPad,CuDef*%
G36*
G01*
X159661000Y-62155000D02*
X159661000Y-61205000D01*
G75*
G02*
X159911000Y-60955000I250000J0D01*
G01*
X160411000Y-60955000D01*
G75*
G02*
X160661000Y-61205000I0J-250000D01*
G01*
X160661000Y-62155000D01*
G75*
G02*
X160411000Y-62405000I-250000J0D01*
G01*
X159911000Y-62405000D01*
G75*
G02*
X159661000Y-62155000I0J250000D01*
G01*
G37*
%TD.AperFunction*%
%TO.P,CC5,2*%
%TO.N,Net-(CC5-Pad2)*%
%TA.AperFunction,SMDPad,CuDef*%
G36*
G01*
X161561000Y-62155000D02*
X161561000Y-61205000D01*
G75*
G02*
X161811000Y-60955000I250000J0D01*
G01*
X162311000Y-60955000D01*
G75*
G02*
X162561000Y-61205000I0J-250000D01*
G01*
X162561000Y-62155000D01*
G75*
G02*
X162311000Y-62405000I-250000J0D01*
G01*
X161811000Y-62405000D01*
G75*
G02*
X161561000Y-62155000I0J250000D01*
G01*
G37*
%TD.AperFunction*%
%TD*%
%TO.P,Csh2,2*%
%TO.N,Net-(Csh2-Pad2)*%
%TA.AperFunction,SMDPad,CuDef*%
G36*
G01*
X152621000Y-70350000D02*
X151671000Y-70350000D01*
G75*
G02*
X151421000Y-70100000I0J250000D01*
G01*
X151421000Y-69600000D01*
G75*
G02*
X151671000Y-69350000I250000J0D01*
G01*
X152621000Y-69350000D01*
G75*
G02*
X152871000Y-69600000I0J-250000D01*
G01*
X152871000Y-70100000D01*
G75*
G02*
X152621000Y-70350000I-250000J0D01*
G01*
G37*
%TD.AperFunction*%
%TO.P,Csh2,1*%
%TO.N,GND*%
%TA.AperFunction,SMDPad,CuDef*%
G36*
G01*
X152621000Y-72250000D02*
X151671000Y-72250000D01*
G75*
G02*
X151421000Y-72000000I0J250000D01*
G01*
X151421000Y-71500000D01*
G75*
G02*
X151671000Y-71250000I250000J0D01*
G01*
X152621000Y-71250000D01*
G75*
G02*
X152871000Y-71500000I0J-250000D01*
G01*
X152871000Y-72000000D01*
G75*
G02*
X152621000Y-72250000I-250000J0D01*
G01*
G37*
%TD.AperFunction*%
%TD*%
%TO.P,LFB1,1*%
%TO.N,Net-(LFB1-Pad1)*%
%TA.AperFunction,SMDPad,CuDef*%
G36*
G01*
X131882500Y-58673750D02*
X131882500Y-59436250D01*
G75*
G02*
X131663750Y-59655000I-218750J0D01*
G01*
X131226250Y-59655000D01*
G75*
G02*
X131007500Y-59436250I0J218750D01*
G01*
X131007500Y-58673750D01*
G75*
G02*
X131226250Y-58455000I218750J0D01*
G01*
X131663750Y-58455000D01*
G75*
G02*
X131882500Y-58673750I0J-218750D01*
G01*
G37*
%TD.AperFunction*%
%TO.P,LFB1,2*%
%TO.N,Net-(LFB1-Pad2)*%
%TA.AperFunction,SMDPad,CuDef*%
G36*
G01*
X129757500Y-58673750D02*
X129757500Y-59436250D01*
G75*
G02*
X129538750Y-59655000I-218750J0D01*
G01*
X129101250Y-59655000D01*
G75*
G02*
X128882500Y-59436250I0J218750D01*
G01*
X128882500Y-58673750D01*
G75*
G02*
X129101250Y-58455000I218750J0D01*
G01*
X129538750Y-58455000D01*
G75*
G02*
X129757500Y-58673750I0J-218750D01*
G01*
G37*
%TD.AperFunction*%
%TD*%
%TO.P,RB2,2*%
%TO.N,VCC*%
%TA.AperFunction,SMDPad,CuDef*%
G36*
G01*
X144976002Y-64727500D02*
X144075998Y-64727500D01*
G75*
G02*
X143826000Y-64477502I0J249998D01*
G01*
X143826000Y-63952498D01*
G75*
G02*
X144075998Y-63702500I249998J0D01*
G01*
X144976002Y-63702500D01*
G75*
G02*
X145226000Y-63952498I0J-249998D01*
G01*
X145226000Y-64477502D01*
G75*
G02*
X144976002Y-64727500I-249998J0D01*
G01*
G37*
%TD.AperFunction*%
%TO.P,RB2,1*%
%TO.N,Net-(CC3-Pad2)*%
%TA.AperFunction,SMDPad,CuDef*%
G36*
G01*
X144976002Y-66552500D02*
X144075998Y-66552500D01*
G75*
G02*
X143826000Y-66302502I0J249998D01*
G01*
X143826000Y-65777498D01*
G75*
G02*
X144075998Y-65527500I249998J0D01*
G01*
X144976002Y-65527500D01*
G75*
G02*
X145226000Y-65777498I0J-249998D01*
G01*
X145226000Y-66302502D01*
G75*
G02*
X144976002Y-66552500I-249998J0D01*
G01*
G37*
%TD.AperFunction*%
%TD*%
%TO.P,RB1A1,2*%
%TO.N,VCC*%
%TA.AperFunction,SMDPad,CuDef*%
G36*
G01*
X122370002Y-65997500D02*
X121469998Y-65997500D01*
G75*
G02*
X121220000Y-65747502I0J249998D01*
G01*
X121220000Y-65222498D01*
G75*
G02*
X121469998Y-64972500I249998J0D01*
G01*
X122370002Y-64972500D01*
G75*
G02*
X122620000Y-65222498I0J-249998D01*
G01*
X122620000Y-65747502D01*
G75*
G02*
X122370002Y-65997500I-249998J0D01*
G01*
G37*
%TD.AperFunction*%
%TO.P,RB1A1,1*%
%TO.N,Net-(CC1-Pad2)*%
%TA.AperFunction,SMDPad,CuDef*%
G36*
G01*
X122370002Y-67822500D02*
X121469998Y-67822500D01*
G75*
G02*
X121220000Y-67572502I0J249998D01*
G01*
X121220000Y-67047498D01*
G75*
G02*
X121469998Y-66797500I249998J0D01*
G01*
X122370002Y-66797500D01*
G75*
G02*
X122620000Y-67047498I0J-249998D01*
G01*
X122620000Y-67572502D01*
G75*
G02*
X122370002Y-67822500I-249998J0D01*
G01*
G37*
%TD.AperFunction*%
%TD*%
%TO.P,RC1,1*%
%TO.N,Net-(CC3-Pad1)*%
%TA.AperFunction,SMDPad,CuDef*%
G36*
G01*
X135832002Y-66552500D02*
X134931998Y-66552500D01*
G75*
G02*
X134682000Y-66302502I0J249998D01*
G01*
X134682000Y-65777498D01*
G75*
G02*
X134931998Y-65527500I249998J0D01*
G01*
X135832002Y-65527500D01*
G75*
G02*
X136082000Y-65777498I0J-249998D01*
G01*
X136082000Y-66302502D01*
G75*
G02*
X135832002Y-66552500I-249998J0D01*
G01*
G37*
%TD.AperFunction*%
%TO.P,RC1,2*%
%TO.N,VCC*%
%TA.AperFunction,SMDPad,CuDef*%
G36*
G01*
X135832002Y-64727500D02*
X134931998Y-64727500D01*
G75*
G02*
X134682000Y-64477502I0J249998D01*
G01*
X134682000Y-63952498D01*
G75*
G02*
X134931998Y-63702500I249998J0D01*
G01*
X135832002Y-63702500D01*
G75*
G02*
X136082000Y-63952498I0J-249998D01*
G01*
X136082000Y-64477502D01*
G75*
G02*
X135832002Y-64727500I-249998J0D01*
G01*
G37*
%TD.AperFunction*%
%TD*%
%TO.P,RE1,1*%
%TO.N,GND*%
%TA.AperFunction,SMDPad,CuDef*%
G36*
G01*
X126180002Y-75362500D02*
X125279998Y-75362500D01*
G75*
G02*
X125030000Y-75112502I0J249998D01*
G01*
X125030000Y-74587498D01*
G75*
G02*
X125279998Y-74337500I249998J0D01*
G01*
X126180002Y-74337500D01*
G75*
G02*
X126430000Y-74587498I0J-249998D01*
G01*
X126430000Y-75112502D01*
G75*
G02*
X126180002Y-75362500I-249998J0D01*
G01*
G37*
%TD.AperFunction*%
%TO.P,RE1,2*%
%TO.N,Net-(RE1-Pad2)*%
%TA.AperFunction,SMDPad,CuDef*%
G36*
G01*
X126180002Y-73537500D02*
X125279998Y-73537500D01*
G75*
G02*
X125030000Y-73287502I0J249998D01*
G01*
X125030000Y-72762498D01*
G75*
G02*
X125279998Y-72512500I249998J0D01*
G01*
X126180002Y-72512500D01*
G75*
G02*
X126430000Y-72762498I0J-249998D01*
G01*
X126430000Y-73287502D01*
G75*
G02*
X126180002Y-73537500I-249998J0D01*
G01*
G37*
%TD.AperFunction*%
%TD*%
%TO.P,RE12,2*%
%TO.N,Net-(RE1-Pad2)*%
%TA.AperFunction,SMDPad,CuDef*%
G36*
G01*
X129355002Y-73537500D02*
X128454998Y-73537500D01*
G75*
G02*
X128205000Y-73287502I0J249998D01*
G01*
X128205000Y-72762498D01*
G75*
G02*
X128454998Y-72512500I249998J0D01*
G01*
X129355002Y-72512500D01*
G75*
G02*
X129605000Y-72762498I0J-249998D01*
G01*
X129605000Y-73287502D01*
G75*
G02*
X129355002Y-73537500I-249998J0D01*
G01*
G37*
%TD.AperFunction*%
%TO.P,RE12,1*%
%TO.N,GND*%
%TA.AperFunction,SMDPad,CuDef*%
G36*
G01*
X129355002Y-75362500D02*
X128454998Y-75362500D01*
G75*
G02*
X128205000Y-75112502I0J249998D01*
G01*
X128205000Y-74587498D01*
G75*
G02*
X128454998Y-74337500I249998J0D01*
G01*
X129355002Y-74337500D01*
G75*
G02*
X129605000Y-74587498I0J-249998D01*
G01*
X129605000Y-75112502D01*
G75*
G02*
X129355002Y-75362500I-249998J0D01*
G01*
G37*
%TD.AperFunction*%
%TD*%
%TO.P,RE13,1*%
%TO.N,GND*%
%TA.AperFunction,SMDPad,CuDef*%
G36*
G01*
X133165002Y-75362500D02*
X132264998Y-75362500D01*
G75*
G02*
X132015000Y-75112502I0J249998D01*
G01*
X132015000Y-74587498D01*
G75*
G02*
X132264998Y-74337500I249998J0D01*
G01*
X133165002Y-74337500D01*
G75*
G02*
X133415000Y-74587498I0J-249998D01*
G01*
X133415000Y-75112502D01*
G75*
G02*
X133165002Y-75362500I-249998J0D01*
G01*
G37*
%TD.AperFunction*%
%TO.P,RE13,2*%
%TO.N,Net-(RE1-Pad2)*%
%TA.AperFunction,SMDPad,CuDef*%
G36*
G01*
X133165002Y-73537500D02*
X132264998Y-73537500D01*
G75*
G02*
X132015000Y-73287502I0J249998D01*
G01*
X132015000Y-72762498D01*
G75*
G02*
X132264998Y-72512500I249998J0D01*
G01*
X133165002Y-72512500D01*
G75*
G02*
X133415000Y-72762498I0J-249998D01*
G01*
X133415000Y-73287502D01*
G75*
G02*
X133165002Y-73537500I-249998J0D01*
G01*
G37*
%TD.AperFunction*%
%TD*%
%TO.P,RE14,1*%
%TO.N,GND*%
%TA.AperFunction,SMDPad,CuDef*%
G36*
G01*
X136975002Y-75362500D02*
X136074998Y-75362500D01*
G75*
G02*
X135825000Y-75112502I0J249998D01*
G01*
X135825000Y-74587498D01*
G75*
G02*
X136074998Y-74337500I249998J0D01*
G01*
X136975002Y-74337500D01*
G75*
G02*
X137225000Y-74587498I0J-249998D01*
G01*
X137225000Y-75112502D01*
G75*
G02*
X136975002Y-75362500I-249998J0D01*
G01*
G37*
%TD.AperFunction*%
%TO.P,RE14,2*%
%TO.N,Net-(RE1-Pad2)*%
%TA.AperFunction,SMDPad,CuDef*%
G36*
G01*
X136975002Y-73537500D02*
X136074998Y-73537500D01*
G75*
G02*
X135825000Y-73287502I0J249998D01*
G01*
X135825000Y-72762498D01*
G75*
G02*
X136074998Y-72512500I249998J0D01*
G01*
X136975002Y-72512500D01*
G75*
G02*
X137225000Y-72762498I0J-249998D01*
G01*
X137225000Y-73287502D01*
G75*
G02*
X136975002Y-73537500I-249998J0D01*
G01*
G37*
%TD.AperFunction*%
%TD*%
%TO.P,RE15,2*%
%TO.N,Net-(RE1-Pad2)*%
%TA.AperFunction,SMDPad,CuDef*%
G36*
G01*
X140785002Y-73537500D02*
X139884998Y-73537500D01*
G75*
G02*
X139635000Y-73287502I0J249998D01*
G01*
X139635000Y-72762498D01*
G75*
G02*
X139884998Y-72512500I249998J0D01*
G01*
X140785002Y-72512500D01*
G75*
G02*
X141035000Y-72762498I0J-249998D01*
G01*
X141035000Y-73287502D01*
G75*
G02*
X140785002Y-73537500I-249998J0D01*
G01*
G37*
%TD.AperFunction*%
%TO.P,RE15,1*%
%TO.N,GND*%
%TA.AperFunction,SMDPad,CuDef*%
G36*
G01*
X140785002Y-75362500D02*
X139884998Y-75362500D01*
G75*
G02*
X139635000Y-75112502I0J249998D01*
G01*
X139635000Y-74587498D01*
G75*
G02*
X139884998Y-74337500I249998J0D01*
G01*
X140785002Y-74337500D01*
G75*
G02*
X141035000Y-74587498I0J-249998D01*
G01*
X141035000Y-75112502D01*
G75*
G02*
X140785002Y-75362500I-249998J0D01*
G01*
G37*
%TD.AperFunction*%
%TD*%
%TO.P,RE21,1*%
%TO.N,GND*%
%TA.AperFunction,SMDPad,CuDef*%
G36*
G01*
X163123500Y-67394998D02*
X163123500Y-68295002D01*
G75*
G02*
X162873502Y-68545000I-249998J0D01*
G01*
X162348498Y-68545000D01*
G75*
G02*
X162098500Y-68295002I0J249998D01*
G01*
X162098500Y-67394998D01*
G75*
G02*
X162348498Y-67145000I249998J0D01*
G01*
X162873502Y-67145000D01*
G75*
G02*
X163123500Y-67394998I0J-249998D01*
G01*
G37*
%TD.AperFunction*%
%TO.P,RE21,2*%
%TO.N,Net-(Q1-Pad2)*%
%TA.AperFunction,SMDPad,CuDef*%
G36*
G01*
X161298500Y-67394998D02*
X161298500Y-68295002D01*
G75*
G02*
X161048502Y-68545000I-249998J0D01*
G01*
X160523498Y-68545000D01*
G75*
G02*
X160273500Y-68295002I0J249998D01*
G01*
X160273500Y-67394998D01*
G75*
G02*
X160523498Y-67145000I249998J0D01*
G01*
X161048502Y-67145000D01*
G75*
G02*
X161298500Y-67394998I0J-249998D01*
G01*
G37*
%TD.AperFunction*%
%TD*%
%TO.P,RE22,2*%
%TO.N,Net-(Q1-Pad2)*%
%TA.AperFunction,SMDPad,CuDef*%
G36*
G01*
X161298500Y-64219998D02*
X161298500Y-65120002D01*
G75*
G02*
X161048502Y-65370000I-249998J0D01*
G01*
X160523498Y-65370000D01*
G75*
G02*
X160273500Y-65120002I0J249998D01*
G01*
X160273500Y-64219998D01*
G75*
G02*
X160523498Y-63970000I249998J0D01*
G01*
X161048502Y-63970000D01*
G75*
G02*
X161298500Y-64219998I0J-249998D01*
G01*
G37*
%TD.AperFunction*%
%TO.P,RE22,1*%
%TO.N,GND*%
%TA.AperFunction,SMDPad,CuDef*%
G36*
G01*
X163123500Y-64219998D02*
X163123500Y-65120002D01*
G75*
G02*
X162873502Y-65370000I-249998J0D01*
G01*
X162348498Y-65370000D01*
G75*
G02*
X162098500Y-65120002I0J249998D01*
G01*
X162098500Y-64219998D01*
G75*
G02*
X162348498Y-63970000I249998J0D01*
G01*
X162873502Y-63970000D01*
G75*
G02*
X163123500Y-64219998I0J-249998D01*
G01*
G37*
%TD.AperFunction*%
%TD*%
%TO.P,RFB1,2*%
%TO.N,Net-(LFB1-Pad2)*%
%TA.AperFunction,SMDPad,CuDef*%
G36*
G01*
X127450002Y-61472500D02*
X126549998Y-61472500D01*
G75*
G02*
X126300000Y-61222502I0J249998D01*
G01*
X126300000Y-60697498D01*
G75*
G02*
X126549998Y-60447500I249998J0D01*
G01*
X127450002Y-60447500D01*
G75*
G02*
X127700000Y-60697498I0J-249998D01*
G01*
X127700000Y-61222502D01*
G75*
G02*
X127450002Y-61472500I-249998J0D01*
G01*
G37*
%TD.AperFunction*%
%TO.P,RFB1,1*%
%TO.N,Net-(CC2-Pad1)*%
%TA.AperFunction,SMDPad,CuDef*%
G36*
G01*
X127450002Y-63297500D02*
X126549998Y-63297500D01*
G75*
G02*
X126300000Y-63047502I0J249998D01*
G01*
X126300000Y-62522498D01*
G75*
G02*
X126549998Y-62272500I249998J0D01*
G01*
X127450002Y-62272500D01*
G75*
G02*
X127700000Y-62522498I0J-249998D01*
G01*
X127700000Y-63047502D01*
G75*
G02*
X127450002Y-63297500I-249998J0D01*
G01*
G37*
%TD.AperFunction*%
%TD*%
%TO.P,RFB2,1*%
%TO.N,Net-(LFB1-Pad1)*%
%TA.AperFunction,SMDPad,CuDef*%
G36*
G01*
X132264998Y-61717500D02*
X133165002Y-61717500D01*
G75*
G02*
X133415000Y-61967498I0J-249998D01*
G01*
X133415000Y-62492502D01*
G75*
G02*
X133165002Y-62742500I-249998J0D01*
G01*
X132264998Y-62742500D01*
G75*
G02*
X132015000Y-62492502I0J249998D01*
G01*
X132015000Y-61967498D01*
G75*
G02*
X132264998Y-61717500I249998J0D01*
G01*
G37*
%TD.AperFunction*%
%TO.P,RFB2,2*%
%TO.N,Net-(CC3-Pad1)*%
%TA.AperFunction,SMDPad,CuDef*%
G36*
G01*
X132264998Y-63542500D02*
X133165002Y-63542500D01*
G75*
G02*
X133415000Y-63792498I0J-249998D01*
G01*
X133415000Y-64317502D01*
G75*
G02*
X133165002Y-64567500I-249998J0D01*
G01*
X132264998Y-64567500D01*
G75*
G02*
X132015000Y-64317502I0J249998D01*
G01*
X132015000Y-63792498D01*
G75*
G02*
X132264998Y-63542500I249998J0D01*
G01*
G37*
%TD.AperFunction*%
%TD*%
%TO.P,Ri2,1*%
%TO.N,Net-(Q1-Pad1)*%
%TA.AperFunction,SMDPad,CuDef*%
G36*
G01*
X150038500Y-65589998D02*
X150038500Y-66490002D01*
G75*
G02*
X149788502Y-66740000I-249998J0D01*
G01*
X149263498Y-66740000D01*
G75*
G02*
X149013500Y-66490002I0J249998D01*
G01*
X149013500Y-65589998D01*
G75*
G02*
X149263498Y-65340000I249998J0D01*
G01*
X149788502Y-65340000D01*
G75*
G02*
X150038500Y-65589998I0J-249998D01*
G01*
G37*
%TD.AperFunction*%
%TO.P,Ri2,2*%
%TO.N,Net-(CC3-Pad2)*%
%TA.AperFunction,SMDPad,CuDef*%
G36*
G01*
X148213500Y-65589998D02*
X148213500Y-66490002D01*
G75*
G02*
X147963502Y-66740000I-249998J0D01*
G01*
X147438498Y-66740000D01*
G75*
G02*
X147188500Y-66490002I0J249998D01*
G01*
X147188500Y-65589998D01*
G75*
G02*
X147438498Y-65340000I249998J0D01*
G01*
X147963502Y-65340000D01*
G75*
G02*
X148213500Y-65589998I0J-249998D01*
G01*
G37*
%TD.AperFunction*%
%TD*%
%TO.P,Ro1,1*%
%TO.N,Net-(CC5-Pad1)*%
%TA.AperFunction,SMDPad,CuDef*%
G36*
G01*
X157791998Y-63599000D02*
X158692002Y-63599000D01*
G75*
G02*
X158942000Y-63848998I0J-249998D01*
G01*
X158942000Y-64374002D01*
G75*
G02*
X158692002Y-64624000I-249998J0D01*
G01*
X157791998Y-64624000D01*
G75*
G02*
X157542000Y-64374002I0J249998D01*
G01*
X157542000Y-63848998D01*
G75*
G02*
X157791998Y-63599000I249998J0D01*
G01*
G37*
%TD.AperFunction*%
%TO.P,Ro1,2*%
%TO.N,Net-(Q1-Pad2)*%
%TA.AperFunction,SMDPad,CuDef*%
G36*
G01*
X157791998Y-65424000D02*
X158692002Y-65424000D01*
G75*
G02*
X158942000Y-65673998I0J-249998D01*
G01*
X158942000Y-66199002D01*
G75*
G02*
X158692002Y-66449000I-249998J0D01*
G01*
X157791998Y-66449000D01*
G75*
G02*
X157542000Y-66199002I0J249998D01*
G01*
X157542000Y-65673998D01*
G75*
G02*
X157791998Y-65424000I249998J0D01*
G01*
G37*
%TD.AperFunction*%
%TD*%
%TO.P,Rsh2,2*%
%TO.N,Net-(Csh2-Pad2)*%
%TA.AperFunction,SMDPad,CuDef*%
G36*
G01*
X151695998Y-67352500D02*
X152596002Y-67352500D01*
G75*
G02*
X152846000Y-67602498I0J-249998D01*
G01*
X152846000Y-68127502D01*
G75*
G02*
X152596002Y-68377500I-249998J0D01*
G01*
X151695998Y-68377500D01*
G75*
G02*
X151446000Y-68127502I0J249998D01*
G01*
X151446000Y-67602498D01*
G75*
G02*
X151695998Y-67352500I249998J0D01*
G01*
G37*
%TD.AperFunction*%
%TO.P,Rsh2,1*%
%TO.N,Net-(Q1-Pad1)*%
%TA.AperFunction,SMDPad,CuDef*%
G36*
G01*
X151695998Y-65527500D02*
X152596002Y-65527500D01*
G75*
G02*
X152846000Y-65777498I0J-249998D01*
G01*
X152846000Y-66302502D01*
G75*
G02*
X152596002Y-66552500I-249998J0D01*
G01*
X151695998Y-66552500D01*
G75*
G02*
X151446000Y-66302502I0J249998D01*
G01*
X151446000Y-65777498D01*
G75*
G02*
X151695998Y-65527500I249998J0D01*
G01*
G37*
%TD.AperFunction*%
%TD*%
D14*
%TO.P,U1,2*%
%TO.N,Net-(CC1-Pad2)*%
X131415000Y-67640000D03*
D15*
%TO.P,U1,1*%
%TO.N,Net-(RE1-Pad2)*%
X132565000Y-67640000D03*
D14*
%TO.P,U1,4*%
%TO.N,Net-(CC3-Pad1)*%
X132715000Y-66040000D03*
%TO.P,U1,3*%
%TO.N,Net-(RE1-Pad2)*%
X131415000Y-66040000D03*
%TD*%
D16*
%TO.N,GND*%
X112684550Y-46842905D03*
X112684550Y-50842905D03*
X112684550Y-58842905D03*
X112684550Y-72842905D03*
X112684550Y-76842905D03*
X113684550Y-61842905D03*
X114684550Y-48842905D03*
X115684550Y-51842905D03*
X115684550Y-59842905D03*
X115684550Y-73842905D03*
X116684550Y-46842905D03*
X116684550Y-62842905D03*
X116684550Y-69842905D03*
X117684550Y-49842905D03*
X117684550Y-53842905D03*
X117684550Y-57842905D03*
X118684550Y-60842905D03*
X118684550Y-64842905D03*
X118684550Y-71842905D03*
X118684550Y-75842905D03*
X119684550Y-47842905D03*
X119684550Y-51842905D03*
X119684550Y-55842905D03*
X119684550Y-78842905D03*
X120684550Y-58842905D03*
X120684550Y-62842905D03*
X120684550Y-68842905D03*
X120684550Y-73842905D03*
X121684550Y-49842905D03*
X121684550Y-53842905D03*
X121684550Y-76842905D03*
X122684550Y-46842905D03*
X122684550Y-56842905D03*
X122684550Y-70842905D03*
X123684550Y-63842905D03*
X123684550Y-78842905D03*
X124684550Y-68842905D03*
X125684550Y-76842905D03*
X126684550Y-70842905D03*
X127684550Y-78842905D03*
X128684550Y-61842905D03*
X128684550Y-65842905D03*
X129684550Y-68842905D03*
X130684550Y-63842905D03*
X130556000Y-76962000D03*
X131684550Y-78842905D03*
X134684550Y-67842905D03*
X134620000Y-76962000D03*
X135684550Y-78842905D03*
X136684550Y-69842905D03*
X137684550Y-63842905D03*
X137684550Y-76842905D03*
X138684550Y-67842905D03*
X139684550Y-78842905D03*
X140684550Y-62842905D03*
X140684550Y-69842905D03*
X141684550Y-76842905D03*
X141986000Y-64516000D03*
X142684550Y-71842905D03*
X143684550Y-67842905D03*
X143684550Y-74842905D03*
X143684550Y-78842905D03*
X144684550Y-57842905D03*
X145684550Y-54842905D03*
X145684550Y-69842905D03*
X145684550Y-76842905D03*
X146684550Y-72842905D03*
X147684550Y-48842905D03*
X147684550Y-52842905D03*
X147684550Y-56842905D03*
X147684550Y-67842905D03*
X147684550Y-78842905D03*
X148684550Y-70842905D03*
X148684550Y-74842905D03*
X149684550Y-46842905D03*
X149684550Y-50842905D03*
X149684550Y-54842905D03*
X149684550Y-58842905D03*
X150684550Y-76842905D03*
X151684550Y-48842905D03*
X151684550Y-52842905D03*
X151684550Y-56842905D03*
X152684550Y-74842905D03*
X152684550Y-78842905D03*
X153684550Y-46842905D03*
X153684550Y-50842905D03*
X153684550Y-54842905D03*
X154684550Y-67842905D03*
X154684550Y-71842905D03*
X154684550Y-76842905D03*
X155684550Y-48842905D03*
X155684550Y-52842905D03*
X155684550Y-56842905D03*
X156684550Y-59842905D03*
X156684550Y-69842905D03*
X156684550Y-73842905D03*
X156684550Y-78842905D03*
X157684550Y-46842905D03*
X157684550Y-50842905D03*
X157684550Y-54842905D03*
X158684550Y-57842905D03*
X158684550Y-71842905D03*
X158684550Y-75842905D03*
X159684550Y-48842905D03*
X159684550Y-52842905D03*
X160684550Y-55842905D03*
X160684550Y-59842905D03*
X160684550Y-69842905D03*
X160684550Y-73842905D03*
X160684550Y-77842905D03*
X161684550Y-46842905D03*
X161684550Y-50842905D03*
X162684550Y-53842905D03*
X162684550Y-57842905D03*
X162684550Y-71842905D03*
X163684550Y-48842905D03*
X164684550Y-51842905D03*
X164684550Y-55842905D03*
X164684550Y-59842905D03*
X164684550Y-66842905D03*
X164684550Y-73842905D03*
X165684550Y-46842905D03*
X165684550Y-69842905D03*
X166684550Y-49842905D03*
X166684550Y-53842905D03*
X166684550Y-78842905D03*
X167684550Y-67842905D03*
X167684550Y-71842905D03*
X167684550Y-75842905D03*
X168684550Y-47842905D03*
X168684550Y-51842905D03*
X168684550Y-55842905D03*
X133684550Y-55842905D03*
X133684550Y-51842905D03*
X133684550Y-47842905D03*
X124684550Y-48842905D03*
X123684550Y-51842905D03*
X124684550Y-54842905D03*
X131684550Y-49842905D03*
X130684550Y-46842905D03*
X126684550Y-46842905D03*
X126684550Y-50842905D03*
X127684550Y-53842905D03*
X129684550Y-55842905D03*
X131684550Y-53842905D03*
X129684550Y-51842905D03*
X128684550Y-48842905D03*
X112684550Y-74842905D03*
X112684550Y-78842905D03*
X114684550Y-46842905D03*
X116684550Y-64842905D03*
X116684550Y-71842905D03*
X117684550Y-51842905D03*
X117684550Y-55842905D03*
X118684550Y-62842905D03*
X118684550Y-69842905D03*
X118684550Y-73842905D03*
X119684550Y-49842905D03*
X119684550Y-53842905D03*
X120684550Y-60842905D03*
X120684550Y-71842905D03*
X121684550Y-51842905D03*
X121684550Y-78842905D03*
X122684550Y-58842905D03*
X122684550Y-68842905D03*
X122684550Y-73842905D03*
X123684550Y-65842905D03*
X124684550Y-46842905D03*
X124684550Y-56842905D03*
X124684550Y-70842905D03*
X125684550Y-52842905D03*
X125684550Y-78842905D03*
X126684550Y-48842905D03*
X126684550Y-68842905D03*
X127684550Y-55842905D03*
X128684550Y-46842905D03*
X128684550Y-63842905D03*
X128684550Y-70842905D03*
X129684550Y-53842905D03*
X129684550Y-78842905D03*
X130684550Y-60842905D03*
X131684550Y-51842905D03*
X131684550Y-55842905D03*
X133684550Y-49842905D03*
X133684550Y-53842905D03*
X133684550Y-78842905D03*
X134684550Y-69842905D03*
X136684550Y-67842905D03*
X137684550Y-78842905D03*
X138684550Y-69842905D03*
X140684550Y-67842905D03*
X141684550Y-78842905D03*
X142684550Y-69842905D03*
X143684550Y-76842905D03*
X144684550Y-60842905D03*
X144684550Y-71842905D03*
X145684550Y-67842905D03*
X145684550Y-74842905D03*
X145684550Y-78842905D03*
X146684550Y-62842905D03*
X147684550Y-46842905D03*
X147684550Y-50842905D03*
X147684550Y-54842905D03*
X147684550Y-76842905D03*
X148684550Y-72842905D03*
X149684550Y-48842905D03*
X149684550Y-52842905D03*
X149684550Y-56842905D03*
X149684550Y-63842905D03*
X149684550Y-67842905D03*
X149684550Y-78842905D03*
X150684550Y-74842905D03*
X151684550Y-46842905D03*
X151684550Y-50842905D03*
X151684550Y-54842905D03*
X152684550Y-76842905D03*
X153684550Y-48842905D03*
X153684550Y-52842905D03*
X153684550Y-56842905D03*
X154684550Y-59842905D03*
X154684550Y-69842905D03*
X154684550Y-73842905D03*
X154684550Y-78842905D03*
X155684550Y-46842905D03*
X155684550Y-50842905D03*
X155684550Y-54842905D03*
X156684550Y-61842905D03*
X156684550Y-67842905D03*
X156684550Y-71842905D03*
X156684550Y-75842905D03*
X157684550Y-48842905D03*
X157684550Y-52842905D03*
X158684550Y-59842905D03*
X158684550Y-69842905D03*
X158684550Y-73842905D03*
X158684550Y-77842905D03*
X159684550Y-46842905D03*
X159684550Y-50842905D03*
X160684550Y-57842905D03*
X160684550Y-71842905D03*
X160684550Y-75842905D03*
X161684550Y-48842905D03*
X162684550Y-55842905D03*
X162684550Y-59842905D03*
X162684550Y-69842905D03*
X162684550Y-73842905D03*
X163684550Y-46842905D03*
X164684550Y-53842905D03*
X164684550Y-57842905D03*
X164684550Y-71842905D03*
X166684550Y-51842905D03*
X166684550Y-55842905D03*
X166684550Y-73842905D03*
X167684550Y-69842905D03*
X112684550Y-41286905D03*
X113684550Y-44286905D03*
X115684550Y-42286905D03*
X117684550Y-44286905D03*
X118684550Y-41286905D03*
X120684550Y-43286905D03*
X122684550Y-41286905D03*
X123684550Y-44286905D03*
X125684550Y-42286905D03*
X127684550Y-44286905D03*
X127684550Y-76286905D03*
X128684550Y-41286905D03*
X130684550Y-43286905D03*
X130684550Y-71286905D03*
X132684550Y-41286905D03*
X132684550Y-45286905D03*
X134684550Y-43286905D03*
X134684550Y-74286905D03*
X138684550Y-74286905D03*
X147684550Y-42286905D03*
X149684550Y-44286905D03*
X150684550Y-41286905D03*
X151684550Y-63286905D03*
X152684550Y-43286905D03*
X154684550Y-41286905D03*
X155684550Y-44286905D03*
X157684550Y-42286905D03*
X159684550Y-44286905D03*
X160684550Y-41286905D03*
X162684550Y-43286905D03*
X164684550Y-41286905D03*
X165684550Y-44286905D03*
X167684550Y-42286905D03*
%TD*%
D17*
%TO.N,Net-(CC1-Pad1)*%
X112649000Y-67310000D02*
X117094000Y-67310000D01*
D18*
%TO.N,Net-(CC1-Pad2)*%
X124714000Y-67310000D02*
X119314000Y-67310000D01*
X121920000Y-67310000D02*
X127000000Y-67310000D01*
X131085000Y-67310000D02*
X131415000Y-67640000D01*
X127000000Y-67310000D02*
X131085000Y-67310000D01*
%TO.N,Net-(CC2-Pad1)*%
X127000000Y-65410000D02*
X127000000Y-62785000D01*
%TO.N,Net-(CC3-Pad1)*%
X132715000Y-66040000D02*
X132715000Y-64055000D01*
X132715000Y-66040000D02*
X137541000Y-66040000D01*
%TO.N,Net-(CC3-Pad2)*%
X144526000Y-66040000D02*
X147701000Y-66040000D01*
X139380000Y-66040000D02*
X144335500Y-66040000D01*
%TO.N,GND*%
X124460000Y-74850000D02*
X124460000Y-76109999D01*
X124460000Y-77470000D02*
X124460000Y-76109999D01*
X128905000Y-74850000D02*
X128905000Y-77470000D01*
X132715000Y-74850000D02*
X132715000Y-77470000D01*
X136525000Y-74850000D02*
X136525000Y-77470000D01*
X140335000Y-74850000D02*
X140335000Y-77470000D01*
X152146000Y-71750000D02*
X152146000Y-73660000D01*
%TO.N,VCC*%
X144526000Y-63500000D02*
X144526000Y-64215000D01*
X137033000Y-61595000D02*
X139065000Y-61595000D01*
X138430000Y-61595000D02*
X139065000Y-61595000D01*
X137033000Y-61595000D02*
X137287000Y-61595000D01*
X121920000Y-65485000D02*
X121873000Y-65485000D01*
X121873000Y-65485000D02*
X121666000Y-65278000D01*
X135382000Y-59944000D02*
X135128000Y-59690000D01*
X135128000Y-59690000D02*
X137033000Y-61595000D01*
X135382000Y-64215000D02*
X135382000Y-59944000D01*
X133223000Y-57785000D02*
X135128000Y-59690000D01*
X121920000Y-62865000D02*
X121920000Y-65532000D01*
X133223000Y-57785000D02*
X132715000Y-57785000D01*
X142753000Y-60447000D02*
X142748000Y-60452000D01*
X142748000Y-57404000D02*
X142748000Y-60452000D01*
X142494000Y-61595000D02*
X142748000Y-61341000D01*
X139065000Y-61595000D02*
X142494000Y-61595000D01*
X142748000Y-61087000D02*
X142748000Y-61722000D01*
X142748000Y-60452000D02*
X142748000Y-61087000D01*
X142748000Y-61722000D02*
X144526000Y-63500000D01*
X142748000Y-61087000D02*
X142748000Y-61341000D01*
X142748000Y-57404000D02*
X142748000Y-54864000D01*
X127000000Y-57785000D02*
X121920000Y-62865000D01*
X132715000Y-57785000D02*
X127000000Y-57785000D01*
X142684000Y-58940000D02*
X144538000Y-58940000D01*
X144538000Y-58940000D02*
X146570000Y-58940000D01*
X146570000Y-58940000D02*
X148590000Y-60960000D01*
X148590000Y-60960000D02*
X152400000Y-60960000D01*
X152400000Y-60960000D02*
X155448000Y-64008000D01*
X142748000Y-54864000D02*
X142748000Y-51943000D01*
X142748000Y-51943000D02*
X142621000Y-52070000D01*
%TO.N,Net-(CC5-Pad1)*%
X159521000Y-61680000D02*
X160161000Y-61680000D01*
X158251000Y-62950000D02*
X159521000Y-61680000D01*
X158251000Y-63815500D02*
X158251000Y-62950000D01*
D17*
%TO.N,Net-(CC5-Pad2)*%
X169173000Y-61680000D02*
X164474000Y-61680000D01*
X164474000Y-61680000D02*
X162188000Y-61680000D01*
D18*
%TO.N,Net-(LFB1-Pad1)*%
X131445000Y-59055000D02*
X132080000Y-59055000D01*
X132715000Y-59690000D02*
X132715000Y-62230000D01*
X132080000Y-59055000D02*
X132715000Y-59690000D01*
%TO.N,Net-(LFB1-Pad2)*%
X127000000Y-60960000D02*
X127000000Y-60325000D01*
X128270000Y-59055000D02*
X129320000Y-59055000D01*
X127000000Y-60325000D02*
X128270000Y-59055000D01*
%TO.N,Net-(RE1-Pad2)*%
X132565000Y-67190000D02*
X132565000Y-67640000D01*
D19*
X131415000Y-66040000D02*
X132565000Y-67190000D01*
D18*
X132565000Y-72875000D02*
X132715000Y-73025000D01*
X132565000Y-67640000D02*
X132565000Y-72875000D01*
X125730000Y-73025000D02*
X140335000Y-73025000D01*
%TO.N,Net-(Csh2-Pad2)*%
X152146000Y-67865000D02*
X152146000Y-69850000D01*
%TO.N,Net-(Q1-Pad2)*%
X159126000Y-66125000D02*
X160681000Y-64570000D01*
X159126000Y-66125000D02*
X160821000Y-67820000D01*
X156034000Y-65980000D02*
X157044000Y-65980000D01*
X157044000Y-65980000D02*
X158182000Y-65980000D01*
X158937500Y-65936500D02*
X159126000Y-66125000D01*
X158242000Y-65936500D02*
X158937500Y-65936500D01*
%TO.N,Net-(Q1-Pad1)*%
X149526000Y-66040000D02*
X152146000Y-66040000D01*
D19*
X152146000Y-66040000D02*
X153924000Y-66040000D01*
D18*
X153924000Y-66040000D02*
X154664000Y-66040000D01*
X154664000Y-66040000D02*
X154644000Y-66060000D01*
X154644000Y-66060000D02*
X152084000Y-66060000D01*
%TD*%
D20*
%TO.N,GND*%
X161183038Y-62782962D02*
X161317614Y-62893405D01*
X161471150Y-62975472D01*
X161637746Y-63026008D01*
X161811000Y-63043072D01*
X161910269Y-63043072D01*
X161916493Y-63044960D01*
X162119963Y-63065000D01*
X165915503Y-63065000D01*
X165857820Y-63082498D01*
X165747506Y-63141463D01*
X165650815Y-63220815D01*
X165571463Y-63317506D01*
X165512498Y-63427820D01*
X165476188Y-63547518D01*
X165463928Y-63672000D01*
X165467000Y-64261250D01*
X165625750Y-64420000D01*
X168075000Y-64420000D01*
X168075000Y-64400000D01*
X168329000Y-64400000D01*
X168329000Y-64420000D01*
X168349000Y-64420000D01*
X168349000Y-64674000D01*
X168329000Y-64674000D01*
X168329000Y-65898250D01*
X168487750Y-66057000D01*
X169678874Y-66059017D01*
X169546168Y-80391273D01*
X111681102Y-80516998D01*
X111678183Y-80515446D01*
X111586405Y-80440594D01*
X111510909Y-80349335D01*
X111454581Y-80245160D01*
X111419560Y-80132024D01*
X111404000Y-79983979D01*
X111404000Y-77020495D01*
X113585000Y-77020495D01*
X113585000Y-77411505D01*
X113661282Y-77795003D01*
X113810915Y-78156250D01*
X114028149Y-78481364D01*
X114304636Y-78757851D01*
X114629750Y-78975085D01*
X114990997Y-79124718D01*
X115374495Y-79201000D01*
X115765505Y-79201000D01*
X116149003Y-79124718D01*
X116510250Y-78975085D01*
X116835364Y-78757851D01*
X117111851Y-78481364D01*
X117329085Y-78156250D01*
X117478718Y-77795003D01*
X117555000Y-77411505D01*
X117555000Y-77020495D01*
X117479215Y-76639495D01*
X162099000Y-76639495D01*
X162099000Y-77030505D01*
X162175282Y-77414003D01*
X162324915Y-77775250D01*
X162542149Y-78100364D01*
X162818636Y-78376851D01*
X163143750Y-78594085D01*
X163504997Y-78743718D01*
X163888495Y-78820000D01*
X164279505Y-78820000D01*
X164663003Y-78743718D01*
X165024250Y-78594085D01*
X165349364Y-78376851D01*
X165625851Y-78100364D01*
X165843085Y-77775250D01*
X165992718Y-77414003D01*
X166069000Y-77030505D01*
X166069000Y-76639495D01*
X165992718Y-76255997D01*
X165843085Y-75894750D01*
X165625851Y-75569636D01*
X165349364Y-75293149D01*
X165024250Y-75075915D01*
X164663003Y-74926282D01*
X164279505Y-74850000D01*
X163888495Y-74850000D01*
X163504997Y-74926282D01*
X163143750Y-75075915D01*
X162818636Y-75293149D01*
X162542149Y-75569636D01*
X162324915Y-75894750D01*
X162175282Y-76255997D01*
X162099000Y-76639495D01*
X117479215Y-76639495D01*
X117478718Y-76636997D01*
X117329085Y-76275750D01*
X117111851Y-75950636D01*
X116835364Y-75674149D01*
X116510250Y-75456915D01*
X116282312Y-75362500D01*
X124391928Y-75362500D01*
X124404188Y-75486982D01*
X124440498Y-75606680D01*
X124499463Y-75716994D01*
X124578815Y-75813685D01*
X124675506Y-75893037D01*
X124785820Y-75952002D01*
X124905518Y-75988312D01*
X125030000Y-76000572D01*
X125444250Y-75997500D01*
X125603000Y-75838750D01*
X125603000Y-74977000D01*
X125857000Y-74977000D01*
X125857000Y-75838750D01*
X126015750Y-75997500D01*
X126430000Y-76000572D01*
X126554482Y-75988312D01*
X126674180Y-75952002D01*
X126784494Y-75893037D01*
X126881185Y-75813685D01*
X126960537Y-75716994D01*
X127019502Y-75606680D01*
X127055812Y-75486982D01*
X127068072Y-75362500D01*
X127566928Y-75362500D01*
X127579188Y-75486982D01*
X127615498Y-75606680D01*
X127674463Y-75716994D01*
X127753815Y-75813685D01*
X127850506Y-75893037D01*
X127960820Y-75952002D01*
X128080518Y-75988312D01*
X128205000Y-76000572D01*
X128619250Y-75997500D01*
X128778000Y-75838750D01*
X128778000Y-74977000D01*
X129032000Y-74977000D01*
X129032000Y-75838750D01*
X129190750Y-75997500D01*
X129605000Y-76000572D01*
X129729482Y-75988312D01*
X129849180Y-75952002D01*
X129959494Y-75893037D01*
X130056185Y-75813685D01*
X130135537Y-75716994D01*
X130194502Y-75606680D01*
X130230812Y-75486982D01*
X130243072Y-75362500D01*
X131376928Y-75362500D01*
X131389188Y-75486982D01*
X131425498Y-75606680D01*
X131484463Y-75716994D01*
X131563815Y-75813685D01*
X131660506Y-75893037D01*
X131770820Y-75952002D01*
X131890518Y-75988312D01*
X132015000Y-76000572D01*
X132429250Y-75997500D01*
X132588000Y-75838750D01*
X132588000Y-74977000D01*
X132842000Y-74977000D01*
X132842000Y-75838750D01*
X133000750Y-75997500D01*
X133415000Y-76000572D01*
X133539482Y-75988312D01*
X133659180Y-75952002D01*
X133769494Y-75893037D01*
X133866185Y-75813685D01*
X133945537Y-75716994D01*
X134004502Y-75606680D01*
X134040812Y-75486982D01*
X134053072Y-75362500D01*
X135186928Y-75362500D01*
X135199188Y-75486982D01*
X135235498Y-75606680D01*
X135294463Y-75716994D01*
X135373815Y-75813685D01*
X135470506Y-75893037D01*
X135580820Y-75952002D01*
X135700518Y-75988312D01*
X135825000Y-76000572D01*
X136239250Y-75997500D01*
X136398000Y-75838750D01*
X136398000Y-74977000D01*
X136652000Y-74977000D01*
X136652000Y-75838750D01*
X136810750Y-75997500D01*
X137225000Y-76000572D01*
X137349482Y-75988312D01*
X137469180Y-75952002D01*
X137579494Y-75893037D01*
X137676185Y-75813685D01*
X137755537Y-75716994D01*
X137814502Y-75606680D01*
X137850812Y-75486982D01*
X137863072Y-75362500D01*
X138996928Y-75362500D01*
X139009188Y-75486982D01*
X139045498Y-75606680D01*
X139104463Y-75716994D01*
X139183815Y-75813685D01*
X139280506Y-75893037D01*
X139390820Y-75952002D01*
X139510518Y-75988312D01*
X139635000Y-76000572D01*
X140049250Y-75997500D01*
X140208000Y-75838750D01*
X140208000Y-74977000D01*
X140462000Y-74977000D01*
X140462000Y-75838750D01*
X140620750Y-75997500D01*
X141035000Y-76000572D01*
X141159482Y-75988312D01*
X141279180Y-75952002D01*
X141389494Y-75893037D01*
X141486185Y-75813685D01*
X141565537Y-75716994D01*
X141624502Y-75606680D01*
X141660812Y-75486982D01*
X141673072Y-75362500D01*
X141670000Y-75135750D01*
X141511250Y-74977000D01*
X140462000Y-74977000D01*
X140208000Y-74977000D01*
X139158750Y-74977000D01*
X139000000Y-75135750D01*
X138996928Y-75362500D01*
X137863072Y-75362500D01*
X137860000Y-75135750D01*
X137701250Y-74977000D01*
X136652000Y-74977000D01*
X136398000Y-74977000D01*
X135348750Y-74977000D01*
X135190000Y-75135750D01*
X135186928Y-75362500D01*
X134053072Y-75362500D01*
X134050000Y-75135750D01*
X133891250Y-74977000D01*
X132842000Y-74977000D01*
X132588000Y-74977000D01*
X131538750Y-74977000D01*
X131380000Y-75135750D01*
X131376928Y-75362500D01*
X130243072Y-75362500D01*
X130240000Y-75135750D01*
X130081250Y-74977000D01*
X129032000Y-74977000D01*
X128778000Y-74977000D01*
X127728750Y-74977000D01*
X127570000Y-75135750D01*
X127566928Y-75362500D01*
X127068072Y-75362500D01*
X127065000Y-75135750D01*
X126906250Y-74977000D01*
X125857000Y-74977000D01*
X125603000Y-74977000D01*
X124553750Y-74977000D01*
X124395000Y-75135750D01*
X124391928Y-75362500D01*
X116282312Y-75362500D01*
X116149003Y-75307282D01*
X115765505Y-75231000D01*
X115374495Y-75231000D01*
X114990997Y-75307282D01*
X114629750Y-75456915D01*
X114304636Y-75674149D01*
X114028149Y-75950636D01*
X113810915Y-76275750D01*
X113661282Y-76636997D01*
X113585000Y-77020495D01*
X111404000Y-77020495D01*
X111404000Y-71647178D01*
X112690250Y-71645000D01*
X112849000Y-71486250D01*
X112849000Y-70262000D01*
X113103000Y-70262000D01*
X113103000Y-71486250D01*
X113261750Y-71645000D01*
X115076000Y-71648072D01*
X115200482Y-71635812D01*
X115320180Y-71599502D01*
X115430494Y-71540537D01*
X115527185Y-71461185D01*
X115606537Y-71364494D01*
X115665502Y-71254180D01*
X115701812Y-71134482D01*
X115714072Y-71010000D01*
X115711000Y-70420750D01*
X115552250Y-70262000D01*
X113103000Y-70262000D01*
X112849000Y-70262000D01*
X112829000Y-70262000D01*
X112829000Y-70008000D01*
X112849000Y-70008000D01*
X112849000Y-69988000D01*
X113103000Y-69988000D01*
X113103000Y-70008000D01*
X115552250Y-70008000D01*
X115711000Y-69849250D01*
X115714072Y-69260000D01*
X115701812Y-69135518D01*
X115665502Y-69015820D01*
X115606537Y-68905506D01*
X115527185Y-68808815D01*
X115430494Y-68729463D01*
X115366019Y-68695000D01*
X117162037Y-68695000D01*
X117365507Y-68674960D01*
X117371731Y-68673072D01*
X117664000Y-68673072D01*
X117837254Y-68656008D01*
X118003850Y-68605472D01*
X118157386Y-68523405D01*
X118291962Y-68412962D01*
X118364000Y-68325183D01*
X118436038Y-68412962D01*
X118570614Y-68523405D01*
X118724150Y-68605472D01*
X118890746Y-68656008D01*
X119064000Y-68673072D01*
X119564000Y-68673072D01*
X119737254Y-68656008D01*
X119903850Y-68605472D01*
X120057386Y-68523405D01*
X120191962Y-68412962D01*
X120302405Y-68278386D01*
X120346976Y-68195000D01*
X120837555Y-68195000D01*
X120842038Y-68200462D01*
X120976613Y-68310905D01*
X121130148Y-68392972D01*
X121296744Y-68443508D01*
X121469998Y-68460572D01*
X122370002Y-68460572D01*
X122543256Y-68443508D01*
X122709852Y-68392972D01*
X122863387Y-68310905D01*
X122997962Y-68200462D01*
X123002445Y-68195000D01*
X125905614Y-68195000D01*
X126031614Y-68298405D01*
X126185150Y-68380472D01*
X126351746Y-68431008D01*
X126525000Y-68448072D01*
X127475000Y-68448072D01*
X127648254Y-68431008D01*
X127814850Y-68380472D01*
X127968386Y-68298405D01*
X128094386Y-68195000D01*
X130498446Y-68195000D01*
X130525498Y-68284180D01*
X130584463Y-68394494D01*
X130663815Y-68491185D01*
X130760506Y-68570537D01*
X130870820Y-68629502D01*
X130990518Y-68665812D01*
X131115000Y-68678072D01*
X131680000Y-68678072D01*
X131680001Y-72099279D01*
X131637038Y-72134538D01*
X131632555Y-72140000D01*
X129987445Y-72140000D01*
X129982962Y-72134538D01*
X129848387Y-72024095D01*
X129694852Y-71942028D01*
X129528256Y-71891492D01*
X129355002Y-71874428D01*
X128454998Y-71874428D01*
X128281744Y-71891492D01*
X128115148Y-71942028D01*
X127961613Y-72024095D01*
X127827038Y-72134538D01*
X127822555Y-72140000D01*
X126812445Y-72140000D01*
X126807962Y-72134538D01*
X126673387Y-72024095D01*
X126519852Y-71942028D01*
X126353256Y-71891492D01*
X126180002Y-71874428D01*
X125279998Y-71874428D01*
X125106744Y-71891492D01*
X124940148Y-71942028D01*
X124786613Y-72024095D01*
X124652038Y-72134538D01*
X124541595Y-72269113D01*
X124459528Y-72422648D01*
X124408992Y-72589244D01*
X124391928Y-72762498D01*
X124391928Y-73287502D01*
X124408992Y-73460756D01*
X124459528Y-73627352D01*
X124541595Y-73780887D01*
X124608276Y-73862137D01*
X124578815Y-73886315D01*
X124499463Y-73983006D01*
X124440498Y-74093320D01*
X124404188Y-74213018D01*
X124391928Y-74337500D01*
X124395000Y-74564250D01*
X124553750Y-74723000D01*
X125603000Y-74723000D01*
X125603000Y-74703000D01*
X125857000Y-74703000D01*
X125857000Y-74723000D01*
X126906250Y-74723000D01*
X127065000Y-74564250D01*
X127068072Y-74337500D01*
X127055812Y-74213018D01*
X127019502Y-74093320D01*
X126960537Y-73983006D01*
X126900623Y-73910000D01*
X127734377Y-73910000D01*
X127674463Y-73983006D01*
X127615498Y-74093320D01*
X127579188Y-74213018D01*
X127566928Y-74337500D01*
X127570000Y-74564250D01*
X127728750Y-74723000D01*
X128778000Y-74723000D01*
X128778000Y-74703000D01*
X129032000Y-74703000D01*
X129032000Y-74723000D01*
X130081250Y-74723000D01*
X130240000Y-74564250D01*
X130243072Y-74337500D01*
X130230812Y-74213018D01*
X130194502Y-74093320D01*
X130135537Y-73983006D01*
X130075623Y-73910000D01*
X131544377Y-73910000D01*
X131484463Y-73983006D01*
X131425498Y-74093320D01*
X131389188Y-74213018D01*
X131376928Y-74337500D01*
X131380000Y-74564250D01*
X131538750Y-74723000D01*
X132588000Y-74723000D01*
X132588000Y-74703000D01*
X132842000Y-74703000D01*
X132842000Y-74723000D01*
X133891250Y-74723000D01*
X134050000Y-74564250D01*
X134053072Y-74337500D01*
X134040812Y-74213018D01*
X134004502Y-74093320D01*
X133945537Y-73983006D01*
X133885623Y-73910000D01*
X135354377Y-73910000D01*
X135294463Y-73983006D01*
X135235498Y-74093320D01*
X135199188Y-74213018D01*
X135186928Y-74337500D01*
X135190000Y-74564250D01*
X135348750Y-74723000D01*
X136398000Y-74723000D01*
X136398000Y-74703000D01*
X136652000Y-74703000D01*
X136652000Y-74723000D01*
X137701250Y-74723000D01*
X137860000Y-74564250D01*
X137863072Y-74337500D01*
X137850812Y-74213018D01*
X137814502Y-74093320D01*
X137755537Y-73983006D01*
X137695623Y-73910000D01*
X139164377Y-73910000D01*
X139104463Y-73983006D01*
X139045498Y-74093320D01*
X139009188Y-74213018D01*
X138996928Y-74337500D01*
X139000000Y-74564250D01*
X139158750Y-74723000D01*
X140208000Y-74723000D01*
X140208000Y-74703000D01*
X140462000Y-74703000D01*
X140462000Y-74723000D01*
X141511250Y-74723000D01*
X141670000Y-74564250D01*
X141673072Y-74337500D01*
X141660812Y-74213018D01*
X141624502Y-74093320D01*
X141565537Y-73983006D01*
X141486185Y-73886315D01*
X141456724Y-73862137D01*
X141523405Y-73780887D01*
X141605472Y-73627352D01*
X141656008Y-73460756D01*
X141673072Y-73287502D01*
X141673072Y-72762498D01*
X141656008Y-72589244D01*
X141605472Y-72422648D01*
X141523405Y-72269113D01*
X141507720Y-72250000D01*
X150782928Y-72250000D01*
X150795188Y-72374482D01*
X150831498Y-72494180D01*
X150890463Y-72604494D01*
X150969815Y-72701185D01*
X151066506Y-72780537D01*
X151176820Y-72839502D01*
X151296518Y-72875812D01*
X151421000Y-72888072D01*
X151860250Y-72885000D01*
X152019000Y-72726250D01*
X152019000Y-71877000D01*
X152273000Y-71877000D01*
X152273000Y-72726250D01*
X152431750Y-72885000D01*
X152871000Y-72888072D01*
X152995482Y-72875812D01*
X153115180Y-72839502D01*
X153225494Y-72780537D01*
X153322185Y-72701185D01*
X153401537Y-72604494D01*
X153460502Y-72494180D01*
X153496812Y-72374482D01*
X153509072Y-72250000D01*
X153506000Y-72035750D01*
X153347250Y-71877000D01*
X152273000Y-71877000D01*
X152019000Y-71877000D01*
X150944750Y-71877000D01*
X150786000Y-72035750D01*
X150782928Y-72250000D01*
X141507720Y-72250000D01*
X141412962Y-72134538D01*
X141278387Y-72024095D01*
X141124852Y-71942028D01*
X140958256Y-71891492D01*
X140785002Y-71874428D01*
X139884998Y-71874428D01*
X139711744Y-71891492D01*
X139545148Y-71942028D01*
X139391613Y-72024095D01*
X139257038Y-72134538D01*
X139252555Y-72140000D01*
X137607445Y-72140000D01*
X137602962Y-72134538D01*
X137468387Y-72024095D01*
X137314852Y-71942028D01*
X137148256Y-71891492D01*
X136975002Y-71874428D01*
X136074998Y-71874428D01*
X135901744Y-71891492D01*
X135735148Y-71942028D01*
X135581613Y-72024095D01*
X135447038Y-72134538D01*
X135442555Y-72140000D01*
X133797445Y-72140000D01*
X133792962Y-72134538D01*
X133658387Y-72024095D01*
X133504852Y-71942028D01*
X133450000Y-71925389D01*
X133450000Y-68504468D01*
X133466185Y-68491185D01*
X133545537Y-68394494D01*
X133604502Y-68284180D01*
X133640812Y-68164482D01*
X133653072Y-68040000D01*
X133653072Y-67240000D01*
X133640812Y-67115518D01*
X133604502Y-66995820D01*
X133566647Y-66925000D01*
X134299555Y-66925000D01*
X134304038Y-66930462D01*
X134438613Y-67040905D01*
X134592148Y-67122972D01*
X134758744Y-67173508D01*
X134931998Y-67190572D01*
X135832002Y-67190572D01*
X136005256Y-67173508D01*
X136171852Y-67122972D01*
X136325387Y-67040905D01*
X136452998Y-66936177D01*
X136491595Y-67008386D01*
X136602038Y-67142962D01*
X136736614Y-67253405D01*
X136890150Y-67335472D01*
X137056746Y-67386008D01*
X137230000Y-67403072D01*
X137730000Y-67403072D01*
X137903254Y-67386008D01*
X138069850Y-67335472D01*
X138223386Y-67253405D01*
X138357962Y-67142962D01*
X138430000Y-67055183D01*
X138502038Y-67142962D01*
X138636614Y-67253405D01*
X138790150Y-67335472D01*
X138956746Y-67386008D01*
X139130000Y-67403072D01*
X139630000Y-67403072D01*
X139803254Y-67386008D01*
X139969850Y-67335472D01*
X140123386Y-67253405D01*
X140257962Y-67142962D01*
X140368405Y-67008386D01*
X140412976Y-66925000D01*
X143443555Y-66925000D01*
X143448038Y-66930462D01*
X143582613Y-67040905D01*
X143736148Y-67122972D01*
X143902744Y-67173508D01*
X144075998Y-67190572D01*
X144976002Y-67190572D01*
X145149256Y-67173508D01*
X145315852Y-67122972D01*
X145469387Y-67040905D01*
X145603962Y-66930462D01*
X145608445Y-66925000D01*
X146668886Y-66925000D01*
X146700095Y-66983387D01*
X146810538Y-67117962D01*
X146945113Y-67228405D01*
X147098648Y-67310472D01*
X147265244Y-67361008D01*
X147438498Y-67378072D01*
X147963502Y-67378072D01*
X148136756Y-67361008D01*
X148303352Y-67310472D01*
X148456887Y-67228405D01*
X148591462Y-67117962D01*
X148613500Y-67091109D01*
X148635538Y-67117962D01*
X148770113Y-67228405D01*
X148923648Y-67310472D01*
X149090244Y-67361008D01*
X149263498Y-67378072D01*
X149788502Y-67378072D01*
X149961756Y-67361008D01*
X150128352Y-67310472D01*
X150281887Y-67228405D01*
X150416462Y-67117962D01*
X150526905Y-66983387D01*
X150558114Y-66925000D01*
X151063555Y-66925000D01*
X151068038Y-66930462D01*
X151094891Y-66952500D01*
X151068038Y-66974538D01*
X150957595Y-67109113D01*
X150875528Y-67262648D01*
X150824992Y-67429244D01*
X150807928Y-67602498D01*
X150807928Y-68127502D01*
X150824992Y-68300756D01*
X150875528Y-68467352D01*
X150957595Y-68620887D01*
X151068038Y-68755462D01*
X151189573Y-68855203D01*
X151177614Y-68861595D01*
X151043038Y-68972038D01*
X150932595Y-69106614D01*
X150850528Y-69260150D01*
X150799992Y-69426746D01*
X150782928Y-69600000D01*
X150782928Y-70100000D01*
X150799992Y-70273254D01*
X150850528Y-70439850D01*
X150932595Y-70593386D01*
X151043038Y-70727962D01*
X151049594Y-70733342D01*
X150969815Y-70798815D01*
X150890463Y-70895506D01*
X150831498Y-71005820D01*
X150795188Y-71125518D01*
X150782928Y-71250000D01*
X150786000Y-71464250D01*
X150944750Y-71623000D01*
X152019000Y-71623000D01*
X152019000Y-71603000D01*
X152273000Y-71603000D01*
X152273000Y-71623000D01*
X153347250Y-71623000D01*
X153506000Y-71464250D01*
X153509072Y-71250000D01*
X153496812Y-71125518D01*
X153460502Y-71005820D01*
X153401537Y-70895506D01*
X153322185Y-70798815D01*
X153242406Y-70733342D01*
X153248962Y-70727962D01*
X153359405Y-70593386D01*
X153441472Y-70439850D01*
X153492008Y-70273254D01*
X153509072Y-70100000D01*
X153509072Y-69600000D01*
X153492008Y-69426746D01*
X153441472Y-69260150D01*
X153359405Y-69106614D01*
X153248962Y-68972038D01*
X153114386Y-68861595D01*
X153102427Y-68855203D01*
X153223962Y-68755462D01*
X153334405Y-68620887D01*
X153416472Y-68467352D01*
X153467008Y-68300756D01*
X153484072Y-68127502D01*
X153484072Y-67602498D01*
X153467008Y-67429244D01*
X153416472Y-67262648D01*
X153334405Y-67109113D01*
X153223962Y-66974538D01*
X153197109Y-66952500D01*
X153206247Y-66945000D01*
X154348876Y-66945000D01*
X154384518Y-66955812D01*
X154509000Y-66968072D01*
X154959000Y-66968072D01*
X155083482Y-66955812D01*
X155203180Y-66919502D01*
X155313494Y-66860537D01*
X155384000Y-66802674D01*
X155454506Y-66860537D01*
X155564820Y-66919502D01*
X155684518Y-66955812D01*
X155809000Y-66968072D01*
X156259000Y-66968072D01*
X156383482Y-66955812D01*
X156503180Y-66919502D01*
X156605144Y-66865000D01*
X157210387Y-66865000D01*
X157298613Y-66937405D01*
X157452148Y-67019472D01*
X157618744Y-67070008D01*
X157791998Y-67087072D01*
X158692002Y-67087072D01*
X158823539Y-67074117D01*
X159635428Y-67886007D01*
X159635428Y-68295002D01*
X159652492Y-68468256D01*
X159703028Y-68634852D01*
X159785095Y-68788387D01*
X159895538Y-68922962D01*
X160030113Y-69033405D01*
X160183648Y-69115472D01*
X160350244Y-69166008D01*
X160523498Y-69183072D01*
X161048502Y-69183072D01*
X161221756Y-69166008D01*
X161388352Y-69115472D01*
X161541887Y-69033405D01*
X161623137Y-68966724D01*
X161647315Y-68996185D01*
X161744006Y-69075537D01*
X161854320Y-69134502D01*
X161974018Y-69170812D01*
X162098500Y-69183072D01*
X162325250Y-69180000D01*
X162484000Y-69021250D01*
X162484000Y-67972000D01*
X162738000Y-67972000D01*
X162738000Y-69021250D01*
X162896750Y-69180000D01*
X163123500Y-69183072D01*
X163247982Y-69170812D01*
X163367680Y-69134502D01*
X163477994Y-69075537D01*
X163574685Y-68996185D01*
X163654037Y-68899494D01*
X163713002Y-68789180D01*
X163749312Y-68669482D01*
X163761572Y-68545000D01*
X163758500Y-68130750D01*
X163599750Y-67972000D01*
X162738000Y-67972000D01*
X162484000Y-67972000D01*
X162464000Y-67972000D01*
X162464000Y-67718000D01*
X162484000Y-67718000D01*
X162484000Y-66668750D01*
X162738000Y-66668750D01*
X162738000Y-67718000D01*
X163599750Y-67718000D01*
X163758500Y-67559250D01*
X163761572Y-67145000D01*
X163749312Y-67020518D01*
X163713002Y-66900820D01*
X163654037Y-66790506D01*
X163574685Y-66693815D01*
X163477994Y-66614463D01*
X163367680Y-66555498D01*
X163247982Y-66519188D01*
X163123500Y-66506928D01*
X162896750Y-66510000D01*
X162738000Y-66668750D01*
X162484000Y-66668750D01*
X162325250Y-66510000D01*
X162098500Y-66506928D01*
X161974018Y-66519188D01*
X161854320Y-66555498D01*
X161744006Y-66614463D01*
X161647315Y-66693815D01*
X161623137Y-66723276D01*
X161541887Y-66656595D01*
X161388352Y-66574528D01*
X161221756Y-66523992D01*
X161048502Y-66506928D01*
X160759507Y-66506928D01*
X160377578Y-66125000D01*
X160497106Y-66005473D01*
X160523498Y-66008072D01*
X161048502Y-66008072D01*
X161221756Y-65991008D01*
X161388352Y-65940472D01*
X161541887Y-65858405D01*
X161623137Y-65791724D01*
X161647315Y-65821185D01*
X161744006Y-65900537D01*
X161854320Y-65959502D01*
X161974018Y-65995812D01*
X162098500Y-66008072D01*
X162325250Y-66005000D01*
X162484000Y-65846250D01*
X162484000Y-64797000D01*
X162738000Y-64797000D01*
X162738000Y-65846250D01*
X162896750Y-66005000D01*
X163123500Y-66008072D01*
X163247982Y-65995812D01*
X163367680Y-65959502D01*
X163477994Y-65900537D01*
X163574685Y-65821185D01*
X163654037Y-65724494D01*
X163713002Y-65614180D01*
X163749312Y-65494482D01*
X163756450Y-65422000D01*
X165463928Y-65422000D01*
X165476188Y-65546482D01*
X165512498Y-65666180D01*
X165571463Y-65776494D01*
X165650815Y-65873185D01*
X165747506Y-65952537D01*
X165857820Y-66011502D01*
X165977518Y-66047812D01*
X166102000Y-66060072D01*
X167916250Y-66057000D01*
X168075000Y-65898250D01*
X168075000Y-64674000D01*
X165625750Y-64674000D01*
X165467000Y-64832750D01*
X165463928Y-65422000D01*
X163756450Y-65422000D01*
X163761572Y-65370000D01*
X163758500Y-64955750D01*
X163599750Y-64797000D01*
X162738000Y-64797000D01*
X162484000Y-64797000D01*
X162464000Y-64797000D01*
X162464000Y-64543000D01*
X162484000Y-64543000D01*
X162484000Y-63493750D01*
X162738000Y-63493750D01*
X162738000Y-64543000D01*
X163599750Y-64543000D01*
X163758500Y-64384250D01*
X163761572Y-63970000D01*
X163749312Y-63845518D01*
X163713002Y-63725820D01*
X163654037Y-63615506D01*
X163574685Y-63518815D01*
X163477994Y-63439463D01*
X163367680Y-63380498D01*
X163247982Y-63344188D01*
X163123500Y-63331928D01*
X162896750Y-63335000D01*
X162738000Y-63493750D01*
X162484000Y-63493750D01*
X162325250Y-63335000D01*
X162098500Y-63331928D01*
X161974018Y-63344188D01*
X161854320Y-63380498D01*
X161744006Y-63439463D01*
X161647315Y-63518815D01*
X161623137Y-63548276D01*
X161541887Y-63481595D01*
X161388352Y-63399528D01*
X161221756Y-63348992D01*
X161048502Y-63331928D01*
X160523498Y-63331928D01*
X160350244Y-63348992D01*
X160183648Y-63399528D01*
X160030113Y-63481595D01*
X159895538Y-63592038D01*
X159785095Y-63726613D01*
X159703028Y-63880148D01*
X159652492Y-64046744D01*
X159635428Y-64219998D01*
X159635428Y-64363993D01*
X159575118Y-64424304D01*
X159580072Y-64374002D01*
X159580072Y-63848998D01*
X159563008Y-63675744D01*
X159512472Y-63509148D01*
X159430405Y-63355613D01*
X159319962Y-63221038D01*
X159271397Y-63181182D01*
X159509864Y-62942714D01*
X159571150Y-62975472D01*
X159737746Y-63026008D01*
X159911000Y-63043072D01*
X160411000Y-63043072D01*
X160584254Y-63026008D01*
X160750850Y-62975472D01*
X160904386Y-62893405D01*
X161038962Y-62782962D01*
X161111000Y-62695183D01*
X161183038Y-62782962D01*
%TA.AperFunction,Conductor*%
D21*
G36*
X161183038Y-62782962D02*
G01*
X161317614Y-62893405D01*
X161471150Y-62975472D01*
X161637746Y-63026008D01*
X161811000Y-63043072D01*
X161910269Y-63043072D01*
X161916493Y-63044960D01*
X162119963Y-63065000D01*
X165915503Y-63065000D01*
X165857820Y-63082498D01*
X165747506Y-63141463D01*
X165650815Y-63220815D01*
X165571463Y-63317506D01*
X165512498Y-63427820D01*
X165476188Y-63547518D01*
X165463928Y-63672000D01*
X165467000Y-64261250D01*
X165625750Y-64420000D01*
X168075000Y-64420000D01*
X168075000Y-64400000D01*
X168329000Y-64400000D01*
X168329000Y-64420000D01*
X168349000Y-64420000D01*
X168349000Y-64674000D01*
X168329000Y-64674000D01*
X168329000Y-65898250D01*
X168487750Y-66057000D01*
X169678874Y-66059017D01*
X169546168Y-80391273D01*
X111681102Y-80516998D01*
X111678183Y-80515446D01*
X111586405Y-80440594D01*
X111510909Y-80349335D01*
X111454581Y-80245160D01*
X111419560Y-80132024D01*
X111404000Y-79983979D01*
X111404000Y-77020495D01*
X113585000Y-77020495D01*
X113585000Y-77411505D01*
X113661282Y-77795003D01*
X113810915Y-78156250D01*
X114028149Y-78481364D01*
X114304636Y-78757851D01*
X114629750Y-78975085D01*
X114990997Y-79124718D01*
X115374495Y-79201000D01*
X115765505Y-79201000D01*
X116149003Y-79124718D01*
X116510250Y-78975085D01*
X116835364Y-78757851D01*
X117111851Y-78481364D01*
X117329085Y-78156250D01*
X117478718Y-77795003D01*
X117555000Y-77411505D01*
X117555000Y-77020495D01*
X117479215Y-76639495D01*
X162099000Y-76639495D01*
X162099000Y-77030505D01*
X162175282Y-77414003D01*
X162324915Y-77775250D01*
X162542149Y-78100364D01*
X162818636Y-78376851D01*
X163143750Y-78594085D01*
X163504997Y-78743718D01*
X163888495Y-78820000D01*
X164279505Y-78820000D01*
X164663003Y-78743718D01*
X165024250Y-78594085D01*
X165349364Y-78376851D01*
X165625851Y-78100364D01*
X165843085Y-77775250D01*
X165992718Y-77414003D01*
X166069000Y-77030505D01*
X166069000Y-76639495D01*
X165992718Y-76255997D01*
X165843085Y-75894750D01*
X165625851Y-75569636D01*
X165349364Y-75293149D01*
X165024250Y-75075915D01*
X164663003Y-74926282D01*
X164279505Y-74850000D01*
X163888495Y-74850000D01*
X163504997Y-74926282D01*
X163143750Y-75075915D01*
X162818636Y-75293149D01*
X162542149Y-75569636D01*
X162324915Y-75894750D01*
X162175282Y-76255997D01*
X162099000Y-76639495D01*
X117479215Y-76639495D01*
X117478718Y-76636997D01*
X117329085Y-76275750D01*
X117111851Y-75950636D01*
X116835364Y-75674149D01*
X116510250Y-75456915D01*
X116282312Y-75362500D01*
X124391928Y-75362500D01*
X124404188Y-75486982D01*
X124440498Y-75606680D01*
X124499463Y-75716994D01*
X124578815Y-75813685D01*
X124675506Y-75893037D01*
X124785820Y-75952002D01*
X124905518Y-75988312D01*
X125030000Y-76000572D01*
X125444250Y-75997500D01*
X125603000Y-75838750D01*
X125603000Y-74977000D01*
X125857000Y-74977000D01*
X125857000Y-75838750D01*
X126015750Y-75997500D01*
X126430000Y-76000572D01*
X126554482Y-75988312D01*
X126674180Y-75952002D01*
X126784494Y-75893037D01*
X126881185Y-75813685D01*
X126960537Y-75716994D01*
X127019502Y-75606680D01*
X127055812Y-75486982D01*
X127068072Y-75362500D01*
X127566928Y-75362500D01*
X127579188Y-75486982D01*
X127615498Y-75606680D01*
X127674463Y-75716994D01*
X127753815Y-75813685D01*
X127850506Y-75893037D01*
X127960820Y-75952002D01*
X128080518Y-75988312D01*
X128205000Y-76000572D01*
X128619250Y-75997500D01*
X128778000Y-75838750D01*
X128778000Y-74977000D01*
X129032000Y-74977000D01*
X129032000Y-75838750D01*
X129190750Y-75997500D01*
X129605000Y-76000572D01*
X129729482Y-75988312D01*
X129849180Y-75952002D01*
X129959494Y-75893037D01*
X130056185Y-75813685D01*
X130135537Y-75716994D01*
X130194502Y-75606680D01*
X130230812Y-75486982D01*
X130243072Y-75362500D01*
X131376928Y-75362500D01*
X131389188Y-75486982D01*
X131425498Y-75606680D01*
X131484463Y-75716994D01*
X131563815Y-75813685D01*
X131660506Y-75893037D01*
X131770820Y-75952002D01*
X131890518Y-75988312D01*
X132015000Y-76000572D01*
X132429250Y-75997500D01*
X132588000Y-75838750D01*
X132588000Y-74977000D01*
X132842000Y-74977000D01*
X132842000Y-75838750D01*
X133000750Y-75997500D01*
X133415000Y-76000572D01*
X133539482Y-75988312D01*
X133659180Y-75952002D01*
X133769494Y-75893037D01*
X133866185Y-75813685D01*
X133945537Y-75716994D01*
X134004502Y-75606680D01*
X134040812Y-75486982D01*
X134053072Y-75362500D01*
X135186928Y-75362500D01*
X135199188Y-75486982D01*
X135235498Y-75606680D01*
X135294463Y-75716994D01*
X135373815Y-75813685D01*
X135470506Y-75893037D01*
X135580820Y-75952002D01*
X135700518Y-75988312D01*
X135825000Y-76000572D01*
X136239250Y-75997500D01*
X136398000Y-75838750D01*
X136398000Y-74977000D01*
X136652000Y-74977000D01*
X136652000Y-75838750D01*
X136810750Y-75997500D01*
X137225000Y-76000572D01*
X137349482Y-75988312D01*
X137469180Y-75952002D01*
X137579494Y-75893037D01*
X137676185Y-75813685D01*
X137755537Y-75716994D01*
X137814502Y-75606680D01*
X137850812Y-75486982D01*
X137863072Y-75362500D01*
X138996928Y-75362500D01*
X139009188Y-75486982D01*
X139045498Y-75606680D01*
X139104463Y-75716994D01*
X139183815Y-75813685D01*
X139280506Y-75893037D01*
X139390820Y-75952002D01*
X139510518Y-75988312D01*
X139635000Y-76000572D01*
X140049250Y-75997500D01*
X140208000Y-75838750D01*
X140208000Y-74977000D01*
X140462000Y-74977000D01*
X140462000Y-75838750D01*
X140620750Y-75997500D01*
X141035000Y-76000572D01*
X141159482Y-75988312D01*
X141279180Y-75952002D01*
X141389494Y-75893037D01*
X141486185Y-75813685D01*
X141565537Y-75716994D01*
X141624502Y-75606680D01*
X141660812Y-75486982D01*
X141673072Y-75362500D01*
X141670000Y-75135750D01*
X141511250Y-74977000D01*
X140462000Y-74977000D01*
X140208000Y-74977000D01*
X139158750Y-74977000D01*
X139000000Y-75135750D01*
X138996928Y-75362500D01*
X137863072Y-75362500D01*
X137860000Y-75135750D01*
X137701250Y-74977000D01*
X136652000Y-74977000D01*
X136398000Y-74977000D01*
X135348750Y-74977000D01*
X135190000Y-75135750D01*
X135186928Y-75362500D01*
X134053072Y-75362500D01*
X134050000Y-75135750D01*
X133891250Y-74977000D01*
X132842000Y-74977000D01*
X132588000Y-74977000D01*
X131538750Y-74977000D01*
X131380000Y-75135750D01*
X131376928Y-75362500D01*
X130243072Y-75362500D01*
X130240000Y-75135750D01*
X130081250Y-74977000D01*
X129032000Y-74977000D01*
X128778000Y-74977000D01*
X127728750Y-74977000D01*
X127570000Y-75135750D01*
X127566928Y-75362500D01*
X127068072Y-75362500D01*
X127065000Y-75135750D01*
X126906250Y-74977000D01*
X125857000Y-74977000D01*
X125603000Y-74977000D01*
X124553750Y-74977000D01*
X124395000Y-75135750D01*
X124391928Y-75362500D01*
X116282312Y-75362500D01*
X116149003Y-75307282D01*
X115765505Y-75231000D01*
X115374495Y-75231000D01*
X114990997Y-75307282D01*
X114629750Y-75456915D01*
X114304636Y-75674149D01*
X114028149Y-75950636D01*
X113810915Y-76275750D01*
X113661282Y-76636997D01*
X113585000Y-77020495D01*
X111404000Y-77020495D01*
X111404000Y-71647178D01*
X112690250Y-71645000D01*
X112849000Y-71486250D01*
X112849000Y-70262000D01*
X113103000Y-70262000D01*
X113103000Y-71486250D01*
X113261750Y-71645000D01*
X115076000Y-71648072D01*
X115200482Y-71635812D01*
X115320180Y-71599502D01*
X115430494Y-71540537D01*
X115527185Y-71461185D01*
X115606537Y-71364494D01*
X115665502Y-71254180D01*
X115701812Y-71134482D01*
X115714072Y-71010000D01*
X115711000Y-70420750D01*
X115552250Y-70262000D01*
X113103000Y-70262000D01*
X112849000Y-70262000D01*
X112829000Y-70262000D01*
X112829000Y-70008000D01*
X112849000Y-70008000D01*
X112849000Y-69988000D01*
X113103000Y-69988000D01*
X113103000Y-70008000D01*
X115552250Y-70008000D01*
X115711000Y-69849250D01*
X115714072Y-69260000D01*
X115701812Y-69135518D01*
X115665502Y-69015820D01*
X115606537Y-68905506D01*
X115527185Y-68808815D01*
X115430494Y-68729463D01*
X115366019Y-68695000D01*
X117162037Y-68695000D01*
X117365507Y-68674960D01*
X117371731Y-68673072D01*
X117664000Y-68673072D01*
X117837254Y-68656008D01*
X118003850Y-68605472D01*
X118157386Y-68523405D01*
X118291962Y-68412962D01*
X118364000Y-68325183D01*
X118436038Y-68412962D01*
X118570614Y-68523405D01*
X118724150Y-68605472D01*
X118890746Y-68656008D01*
X119064000Y-68673072D01*
X119564000Y-68673072D01*
X119737254Y-68656008D01*
X119903850Y-68605472D01*
X120057386Y-68523405D01*
X120191962Y-68412962D01*
X120302405Y-68278386D01*
X120346976Y-68195000D01*
X120837555Y-68195000D01*
X120842038Y-68200462D01*
X120976613Y-68310905D01*
X121130148Y-68392972D01*
X121296744Y-68443508D01*
X121469998Y-68460572D01*
X122370002Y-68460572D01*
X122543256Y-68443508D01*
X122709852Y-68392972D01*
X122863387Y-68310905D01*
X122997962Y-68200462D01*
X123002445Y-68195000D01*
X125905614Y-68195000D01*
X126031614Y-68298405D01*
X126185150Y-68380472D01*
X126351746Y-68431008D01*
X126525000Y-68448072D01*
X127475000Y-68448072D01*
X127648254Y-68431008D01*
X127814850Y-68380472D01*
X127968386Y-68298405D01*
X128094386Y-68195000D01*
X130498446Y-68195000D01*
X130525498Y-68284180D01*
X130584463Y-68394494D01*
X130663815Y-68491185D01*
X130760506Y-68570537D01*
X130870820Y-68629502D01*
X130990518Y-68665812D01*
X131115000Y-68678072D01*
X131680000Y-68678072D01*
X131680001Y-72099279D01*
X131637038Y-72134538D01*
X131632555Y-72140000D01*
X129987445Y-72140000D01*
X129982962Y-72134538D01*
X129848387Y-72024095D01*
X129694852Y-71942028D01*
X129528256Y-71891492D01*
X129355002Y-71874428D01*
X128454998Y-71874428D01*
X128281744Y-71891492D01*
X128115148Y-71942028D01*
X127961613Y-72024095D01*
X127827038Y-72134538D01*
X127822555Y-72140000D01*
X126812445Y-72140000D01*
X126807962Y-72134538D01*
X126673387Y-72024095D01*
X126519852Y-71942028D01*
X126353256Y-71891492D01*
X126180002Y-71874428D01*
X125279998Y-71874428D01*
X125106744Y-71891492D01*
X124940148Y-71942028D01*
X124786613Y-72024095D01*
X124652038Y-72134538D01*
X124541595Y-72269113D01*
X124459528Y-72422648D01*
X124408992Y-72589244D01*
X124391928Y-72762498D01*
X124391928Y-73287502D01*
X124408992Y-73460756D01*
X124459528Y-73627352D01*
X124541595Y-73780887D01*
X124608276Y-73862137D01*
X124578815Y-73886315D01*
X124499463Y-73983006D01*
X124440498Y-74093320D01*
X124404188Y-74213018D01*
X124391928Y-74337500D01*
X124395000Y-74564250D01*
X124553750Y-74723000D01*
X125603000Y-74723000D01*
X125603000Y-74703000D01*
X125857000Y-74703000D01*
X125857000Y-74723000D01*
X126906250Y-74723000D01*
X127065000Y-74564250D01*
X127068072Y-74337500D01*
X127055812Y-74213018D01*
X127019502Y-74093320D01*
X126960537Y-73983006D01*
X126900623Y-73910000D01*
X127734377Y-73910000D01*
X127674463Y-73983006D01*
X127615498Y-74093320D01*
X127579188Y-74213018D01*
X127566928Y-74337500D01*
X127570000Y-74564250D01*
X127728750Y-74723000D01*
X128778000Y-74723000D01*
X128778000Y-74703000D01*
X129032000Y-74703000D01*
X129032000Y-74723000D01*
X130081250Y-74723000D01*
X130240000Y-74564250D01*
X130243072Y-74337500D01*
X130230812Y-74213018D01*
X130194502Y-74093320D01*
X130135537Y-73983006D01*
X130075623Y-73910000D01*
X131544377Y-73910000D01*
X131484463Y-73983006D01*
X131425498Y-74093320D01*
X131389188Y-74213018D01*
X131376928Y-74337500D01*
X131380000Y-74564250D01*
X131538750Y-74723000D01*
X132588000Y-74723000D01*
X132588000Y-74703000D01*
X132842000Y-74703000D01*
X132842000Y-74723000D01*
X133891250Y-74723000D01*
X134050000Y-74564250D01*
X134053072Y-74337500D01*
X134040812Y-74213018D01*
X134004502Y-74093320D01*
X133945537Y-73983006D01*
X133885623Y-73910000D01*
X135354377Y-73910000D01*
X135294463Y-73983006D01*
X135235498Y-74093320D01*
X135199188Y-74213018D01*
X135186928Y-74337500D01*
X135190000Y-74564250D01*
X135348750Y-74723000D01*
X136398000Y-74723000D01*
X136398000Y-74703000D01*
X136652000Y-74703000D01*
X136652000Y-74723000D01*
X137701250Y-74723000D01*
X137860000Y-74564250D01*
X137863072Y-74337500D01*
X137850812Y-74213018D01*
X137814502Y-74093320D01*
X137755537Y-73983006D01*
X137695623Y-73910000D01*
X139164377Y-73910000D01*
X139104463Y-73983006D01*
X139045498Y-74093320D01*
X139009188Y-74213018D01*
X138996928Y-74337500D01*
X139000000Y-74564250D01*
X139158750Y-74723000D01*
X140208000Y-74723000D01*
X140208000Y-74703000D01*
X140462000Y-74703000D01*
X140462000Y-74723000D01*
X141511250Y-74723000D01*
X141670000Y-74564250D01*
X141673072Y-74337500D01*
X141660812Y-74213018D01*
X141624502Y-74093320D01*
X141565537Y-73983006D01*
X141486185Y-73886315D01*
X141456724Y-73862137D01*
X141523405Y-73780887D01*
X141605472Y-73627352D01*
X141656008Y-73460756D01*
X141673072Y-73287502D01*
X141673072Y-72762498D01*
X141656008Y-72589244D01*
X141605472Y-72422648D01*
X141523405Y-72269113D01*
X141507720Y-72250000D01*
X150782928Y-72250000D01*
X150795188Y-72374482D01*
X150831498Y-72494180D01*
X150890463Y-72604494D01*
X150969815Y-72701185D01*
X151066506Y-72780537D01*
X151176820Y-72839502D01*
X151296518Y-72875812D01*
X151421000Y-72888072D01*
X151860250Y-72885000D01*
X152019000Y-72726250D01*
X152019000Y-71877000D01*
X152273000Y-71877000D01*
X152273000Y-72726250D01*
X152431750Y-72885000D01*
X152871000Y-72888072D01*
X152995482Y-72875812D01*
X153115180Y-72839502D01*
X153225494Y-72780537D01*
X153322185Y-72701185D01*
X153401537Y-72604494D01*
X153460502Y-72494180D01*
X153496812Y-72374482D01*
X153509072Y-72250000D01*
X153506000Y-72035750D01*
X153347250Y-71877000D01*
X152273000Y-71877000D01*
X152019000Y-71877000D01*
X150944750Y-71877000D01*
X150786000Y-72035750D01*
X150782928Y-72250000D01*
X141507720Y-72250000D01*
X141412962Y-72134538D01*
X141278387Y-72024095D01*
X141124852Y-71942028D01*
X140958256Y-71891492D01*
X140785002Y-71874428D01*
X139884998Y-71874428D01*
X139711744Y-71891492D01*
X139545148Y-71942028D01*
X139391613Y-72024095D01*
X139257038Y-72134538D01*
X139252555Y-72140000D01*
X137607445Y-72140000D01*
X137602962Y-72134538D01*
X137468387Y-72024095D01*
X137314852Y-71942028D01*
X137148256Y-71891492D01*
X136975002Y-71874428D01*
X136074998Y-71874428D01*
X135901744Y-71891492D01*
X135735148Y-71942028D01*
X135581613Y-72024095D01*
X135447038Y-72134538D01*
X135442555Y-72140000D01*
X133797445Y-72140000D01*
X133792962Y-72134538D01*
X133658387Y-72024095D01*
X133504852Y-71942028D01*
X133450000Y-71925389D01*
X133450000Y-68504468D01*
X133466185Y-68491185D01*
X133545537Y-68394494D01*
X133604502Y-68284180D01*
X133640812Y-68164482D01*
X133653072Y-68040000D01*
X133653072Y-67240000D01*
X133640812Y-67115518D01*
X133604502Y-66995820D01*
X133566647Y-66925000D01*
X134299555Y-66925000D01*
X134304038Y-66930462D01*
X134438613Y-67040905D01*
X134592148Y-67122972D01*
X134758744Y-67173508D01*
X134931998Y-67190572D01*
X135832002Y-67190572D01*
X136005256Y-67173508D01*
X136171852Y-67122972D01*
X136325387Y-67040905D01*
X136452998Y-66936177D01*
X136491595Y-67008386D01*
X136602038Y-67142962D01*
X136736614Y-67253405D01*
X136890150Y-67335472D01*
X137056746Y-67386008D01*
X137230000Y-67403072D01*
X137730000Y-67403072D01*
X137903254Y-67386008D01*
X138069850Y-67335472D01*
X138223386Y-67253405D01*
X138357962Y-67142962D01*
X138430000Y-67055183D01*
X138502038Y-67142962D01*
X138636614Y-67253405D01*
X138790150Y-67335472D01*
X138956746Y-67386008D01*
X139130000Y-67403072D01*
X139630000Y-67403072D01*
X139803254Y-67386008D01*
X139969850Y-67335472D01*
X140123386Y-67253405D01*
X140257962Y-67142962D01*
X140368405Y-67008386D01*
X140412976Y-66925000D01*
X143443555Y-66925000D01*
X143448038Y-66930462D01*
X143582613Y-67040905D01*
X143736148Y-67122972D01*
X143902744Y-67173508D01*
X144075998Y-67190572D01*
X144976002Y-67190572D01*
X145149256Y-67173508D01*
X145315852Y-67122972D01*
X145469387Y-67040905D01*
X145603962Y-66930462D01*
X145608445Y-66925000D01*
X146668886Y-66925000D01*
X146700095Y-66983387D01*
X146810538Y-67117962D01*
X146945113Y-67228405D01*
X147098648Y-67310472D01*
X147265244Y-67361008D01*
X147438498Y-67378072D01*
X147963502Y-67378072D01*
X148136756Y-67361008D01*
X148303352Y-67310472D01*
X148456887Y-67228405D01*
X148591462Y-67117962D01*
X148613500Y-67091109D01*
X148635538Y-67117962D01*
X148770113Y-67228405D01*
X148923648Y-67310472D01*
X149090244Y-67361008D01*
X149263498Y-67378072D01*
X149788502Y-67378072D01*
X149961756Y-67361008D01*
X150128352Y-67310472D01*
X150281887Y-67228405D01*
X150416462Y-67117962D01*
X150526905Y-66983387D01*
X150558114Y-66925000D01*
X151063555Y-66925000D01*
X151068038Y-66930462D01*
X151094891Y-66952500D01*
X151068038Y-66974538D01*
X150957595Y-67109113D01*
X150875528Y-67262648D01*
X150824992Y-67429244D01*
X150807928Y-67602498D01*
X150807928Y-68127502D01*
X150824992Y-68300756D01*
X150875528Y-68467352D01*
X150957595Y-68620887D01*
X151068038Y-68755462D01*
X151189573Y-68855203D01*
X151177614Y-68861595D01*
X151043038Y-68972038D01*
X150932595Y-69106614D01*
X150850528Y-69260150D01*
X150799992Y-69426746D01*
X150782928Y-69600000D01*
X150782928Y-70100000D01*
X150799992Y-70273254D01*
X150850528Y-70439850D01*
X150932595Y-70593386D01*
X151043038Y-70727962D01*
X151049594Y-70733342D01*
X150969815Y-70798815D01*
X150890463Y-70895506D01*
X150831498Y-71005820D01*
X150795188Y-71125518D01*
X150782928Y-71250000D01*
X150786000Y-71464250D01*
X150944750Y-71623000D01*
X152019000Y-71623000D01*
X152019000Y-71603000D01*
X152273000Y-71603000D01*
X152273000Y-71623000D01*
X153347250Y-71623000D01*
X153506000Y-71464250D01*
X153509072Y-71250000D01*
X153496812Y-71125518D01*
X153460502Y-71005820D01*
X153401537Y-70895506D01*
X153322185Y-70798815D01*
X153242406Y-70733342D01*
X153248962Y-70727962D01*
X153359405Y-70593386D01*
X153441472Y-70439850D01*
X153492008Y-70273254D01*
X153509072Y-70100000D01*
X153509072Y-69600000D01*
X153492008Y-69426746D01*
X153441472Y-69260150D01*
X153359405Y-69106614D01*
X153248962Y-68972038D01*
X153114386Y-68861595D01*
X153102427Y-68855203D01*
X153223962Y-68755462D01*
X153334405Y-68620887D01*
X153416472Y-68467352D01*
X153467008Y-68300756D01*
X153484072Y-68127502D01*
X153484072Y-67602498D01*
X153467008Y-67429244D01*
X153416472Y-67262648D01*
X153334405Y-67109113D01*
X153223962Y-66974538D01*
X153197109Y-66952500D01*
X153206247Y-66945000D01*
X154348876Y-66945000D01*
X154384518Y-66955812D01*
X154509000Y-66968072D01*
X154959000Y-66968072D01*
X155083482Y-66955812D01*
X155203180Y-66919502D01*
X155313494Y-66860537D01*
X155384000Y-66802674D01*
X155454506Y-66860537D01*
X155564820Y-66919502D01*
X155684518Y-66955812D01*
X155809000Y-66968072D01*
X156259000Y-66968072D01*
X156383482Y-66955812D01*
X156503180Y-66919502D01*
X156605144Y-66865000D01*
X157210387Y-66865000D01*
X157298613Y-66937405D01*
X157452148Y-67019472D01*
X157618744Y-67070008D01*
X157791998Y-67087072D01*
X158692002Y-67087072D01*
X158823539Y-67074117D01*
X159635428Y-67886007D01*
X159635428Y-68295002D01*
X159652492Y-68468256D01*
X159703028Y-68634852D01*
X159785095Y-68788387D01*
X159895538Y-68922962D01*
X160030113Y-69033405D01*
X160183648Y-69115472D01*
X160350244Y-69166008D01*
X160523498Y-69183072D01*
X161048502Y-69183072D01*
X161221756Y-69166008D01*
X161388352Y-69115472D01*
X161541887Y-69033405D01*
X161623137Y-68966724D01*
X161647315Y-68996185D01*
X161744006Y-69075537D01*
X161854320Y-69134502D01*
X161974018Y-69170812D01*
X162098500Y-69183072D01*
X162325250Y-69180000D01*
X162484000Y-69021250D01*
X162484000Y-67972000D01*
X162738000Y-67972000D01*
X162738000Y-69021250D01*
X162896750Y-69180000D01*
X163123500Y-69183072D01*
X163247982Y-69170812D01*
X163367680Y-69134502D01*
X163477994Y-69075537D01*
X163574685Y-68996185D01*
X163654037Y-68899494D01*
X163713002Y-68789180D01*
X163749312Y-68669482D01*
X163761572Y-68545000D01*
X163758500Y-68130750D01*
X163599750Y-67972000D01*
X162738000Y-67972000D01*
X162484000Y-67972000D01*
X162464000Y-67972000D01*
X162464000Y-67718000D01*
X162484000Y-67718000D01*
X162484000Y-66668750D01*
X162738000Y-66668750D01*
X162738000Y-67718000D01*
X163599750Y-67718000D01*
X163758500Y-67559250D01*
X163761572Y-67145000D01*
X163749312Y-67020518D01*
X163713002Y-66900820D01*
X163654037Y-66790506D01*
X163574685Y-66693815D01*
X163477994Y-66614463D01*
X163367680Y-66555498D01*
X163247982Y-66519188D01*
X163123500Y-66506928D01*
X162896750Y-66510000D01*
X162738000Y-66668750D01*
X162484000Y-66668750D01*
X162325250Y-66510000D01*
X162098500Y-66506928D01*
X161974018Y-66519188D01*
X161854320Y-66555498D01*
X161744006Y-66614463D01*
X161647315Y-66693815D01*
X161623137Y-66723276D01*
X161541887Y-66656595D01*
X161388352Y-66574528D01*
X161221756Y-66523992D01*
X161048502Y-66506928D01*
X160759507Y-66506928D01*
X160377578Y-66125000D01*
X160497106Y-66005473D01*
X160523498Y-66008072D01*
X161048502Y-66008072D01*
X161221756Y-65991008D01*
X161388352Y-65940472D01*
X161541887Y-65858405D01*
X161623137Y-65791724D01*
X161647315Y-65821185D01*
X161744006Y-65900537D01*
X161854320Y-65959502D01*
X161974018Y-65995812D01*
X162098500Y-66008072D01*
X162325250Y-66005000D01*
X162484000Y-65846250D01*
X162484000Y-64797000D01*
X162738000Y-64797000D01*
X162738000Y-65846250D01*
X162896750Y-66005000D01*
X163123500Y-66008072D01*
X163247982Y-65995812D01*
X163367680Y-65959502D01*
X163477994Y-65900537D01*
X163574685Y-65821185D01*
X163654037Y-65724494D01*
X163713002Y-65614180D01*
X163749312Y-65494482D01*
X163756450Y-65422000D01*
X165463928Y-65422000D01*
X165476188Y-65546482D01*
X165512498Y-65666180D01*
X165571463Y-65776494D01*
X165650815Y-65873185D01*
X165747506Y-65952537D01*
X165857820Y-66011502D01*
X165977518Y-66047812D01*
X166102000Y-66060072D01*
X167916250Y-66057000D01*
X168075000Y-65898250D01*
X168075000Y-64674000D01*
X165625750Y-64674000D01*
X165467000Y-64832750D01*
X165463928Y-65422000D01*
X163756450Y-65422000D01*
X163761572Y-65370000D01*
X163758500Y-64955750D01*
X163599750Y-64797000D01*
X162738000Y-64797000D01*
X162484000Y-64797000D01*
X162464000Y-64797000D01*
X162464000Y-64543000D01*
X162484000Y-64543000D01*
X162484000Y-63493750D01*
X162738000Y-63493750D01*
X162738000Y-64543000D01*
X163599750Y-64543000D01*
X163758500Y-64384250D01*
X163761572Y-63970000D01*
X163749312Y-63845518D01*
X163713002Y-63725820D01*
X163654037Y-63615506D01*
X163574685Y-63518815D01*
X163477994Y-63439463D01*
X163367680Y-63380498D01*
X163247982Y-63344188D01*
X163123500Y-63331928D01*
X162896750Y-63335000D01*
X162738000Y-63493750D01*
X162484000Y-63493750D01*
X162325250Y-63335000D01*
X162098500Y-63331928D01*
X161974018Y-63344188D01*
X161854320Y-63380498D01*
X161744006Y-63439463D01*
X161647315Y-63518815D01*
X161623137Y-63548276D01*
X161541887Y-63481595D01*
X161388352Y-63399528D01*
X161221756Y-63348992D01*
X161048502Y-63331928D01*
X160523498Y-63331928D01*
X160350244Y-63348992D01*
X160183648Y-63399528D01*
X160030113Y-63481595D01*
X159895538Y-63592038D01*
X159785095Y-63726613D01*
X159703028Y-63880148D01*
X159652492Y-64046744D01*
X159635428Y-64219998D01*
X159635428Y-64363993D01*
X159575118Y-64424304D01*
X159580072Y-64374002D01*
X159580072Y-63848998D01*
X159563008Y-63675744D01*
X159512472Y-63509148D01*
X159430405Y-63355613D01*
X159319962Y-63221038D01*
X159271397Y-63181182D01*
X159509864Y-62942714D01*
X159571150Y-62975472D01*
X159737746Y-63026008D01*
X159911000Y-63043072D01*
X160411000Y-63043072D01*
X160584254Y-63026008D01*
X160750850Y-62975472D01*
X160904386Y-62893405D01*
X161038962Y-62782962D01*
X161111000Y-62695183D01*
X161183038Y-62782962D01*
G37*
%TD.AperFunction*%
D20*
X130385892Y-59603408D02*
X130434650Y-59764142D01*
X130513829Y-59912275D01*
X130620385Y-60042115D01*
X130750225Y-60148671D01*
X130898358Y-60227850D01*
X131059092Y-60276608D01*
X131226250Y-60293072D01*
X131663750Y-60293072D01*
X131830000Y-60276697D01*
X131830001Y-61197886D01*
X131771613Y-61229095D01*
X131637038Y-61339538D01*
X131526595Y-61474113D01*
X131444528Y-61627648D01*
X131393992Y-61794244D01*
X131376928Y-61967498D01*
X131376928Y-62492502D01*
X131393992Y-62665756D01*
X131444528Y-62832352D01*
X131526595Y-62985887D01*
X131637038Y-63120462D01*
X131663891Y-63142500D01*
X131637038Y-63164538D01*
X131526595Y-63299113D01*
X131444528Y-63452648D01*
X131393992Y-63619244D01*
X131376928Y-63792498D01*
X131376928Y-64317502D01*
X131393992Y-64490756D01*
X131444528Y-64657352D01*
X131526595Y-64810887D01*
X131637038Y-64945462D01*
X131705842Y-65001928D01*
X131115000Y-65001928D01*
X130990518Y-65014188D01*
X130870820Y-65050498D01*
X130760506Y-65109463D01*
X130663815Y-65188815D01*
X130584463Y-65285506D01*
X130525498Y-65395820D01*
X130489188Y-65515518D01*
X130476928Y-65640000D01*
X130476928Y-66425000D01*
X128094386Y-66425000D01*
X128015183Y-66360000D01*
X128102962Y-66287962D01*
X128213405Y-66153386D01*
X128295472Y-65999850D01*
X128346008Y-65833254D01*
X128363072Y-65660000D01*
X128363072Y-65160000D01*
X128346008Y-64986746D01*
X128295472Y-64820150D01*
X128213405Y-64666614D01*
X128102962Y-64532038D01*
X127968386Y-64421595D01*
X127885000Y-64377024D01*
X127885000Y-63817114D01*
X127943387Y-63785905D01*
X128077962Y-63675462D01*
X128188405Y-63540887D01*
X128270472Y-63387352D01*
X128321008Y-63220756D01*
X128338072Y-63047502D01*
X128338072Y-62522498D01*
X128321008Y-62349244D01*
X128270472Y-62182648D01*
X128188405Y-62029113D01*
X128077962Y-61894538D01*
X128051109Y-61872500D01*
X128077962Y-61850462D01*
X128188405Y-61715887D01*
X128270472Y-61562352D01*
X128321008Y-61395756D01*
X128338072Y-61222502D01*
X128338072Y-60697498D01*
X128321008Y-60524244D01*
X128270472Y-60357648D01*
X128252519Y-60324060D01*
X128516849Y-60059730D01*
X128625225Y-60148671D01*
X128773358Y-60227850D01*
X128934092Y-60276608D01*
X129101250Y-60293072D01*
X129538750Y-60293072D01*
X129705908Y-60276608D01*
X129866642Y-60227850D01*
X130014775Y-60148671D01*
X130144615Y-60042115D01*
X130251171Y-59912275D01*
X130330350Y-59764142D01*
X130379108Y-59603408D01*
X130382500Y-59568969D01*
X130385892Y-59603408D01*
%TA.AperFunction,Conductor*%
D21*
G36*
X130385892Y-59603408D02*
G01*
X130434650Y-59764142D01*
X130513829Y-59912275D01*
X130620385Y-60042115D01*
X130750225Y-60148671D01*
X130898358Y-60227850D01*
X131059092Y-60276608D01*
X131226250Y-60293072D01*
X131663750Y-60293072D01*
X131830000Y-60276697D01*
X131830001Y-61197886D01*
X131771613Y-61229095D01*
X131637038Y-61339538D01*
X131526595Y-61474113D01*
X131444528Y-61627648D01*
X131393992Y-61794244D01*
X131376928Y-61967498D01*
X131376928Y-62492502D01*
X131393992Y-62665756D01*
X131444528Y-62832352D01*
X131526595Y-62985887D01*
X131637038Y-63120462D01*
X131663891Y-63142500D01*
X131637038Y-63164538D01*
X131526595Y-63299113D01*
X131444528Y-63452648D01*
X131393992Y-63619244D01*
X131376928Y-63792498D01*
X131376928Y-64317502D01*
X131393992Y-64490756D01*
X131444528Y-64657352D01*
X131526595Y-64810887D01*
X131637038Y-64945462D01*
X131705842Y-65001928D01*
X131115000Y-65001928D01*
X130990518Y-65014188D01*
X130870820Y-65050498D01*
X130760506Y-65109463D01*
X130663815Y-65188815D01*
X130584463Y-65285506D01*
X130525498Y-65395820D01*
X130489188Y-65515518D01*
X130476928Y-65640000D01*
X130476928Y-66425000D01*
X128094386Y-66425000D01*
X128015183Y-66360000D01*
X128102962Y-66287962D01*
X128213405Y-66153386D01*
X128295472Y-65999850D01*
X128346008Y-65833254D01*
X128363072Y-65660000D01*
X128363072Y-65160000D01*
X128346008Y-64986746D01*
X128295472Y-64820150D01*
X128213405Y-64666614D01*
X128102962Y-64532038D01*
X127968386Y-64421595D01*
X127885000Y-64377024D01*
X127885000Y-63817114D01*
X127943387Y-63785905D01*
X128077962Y-63675462D01*
X128188405Y-63540887D01*
X128270472Y-63387352D01*
X128321008Y-63220756D01*
X128338072Y-63047502D01*
X128338072Y-62522498D01*
X128321008Y-62349244D01*
X128270472Y-62182648D01*
X128188405Y-62029113D01*
X128077962Y-61894538D01*
X128051109Y-61872500D01*
X128077962Y-61850462D01*
X128188405Y-61715887D01*
X128270472Y-61562352D01*
X128321008Y-61395756D01*
X128338072Y-61222502D01*
X128338072Y-60697498D01*
X128321008Y-60524244D01*
X128270472Y-60357648D01*
X128252519Y-60324060D01*
X128516849Y-60059730D01*
X128625225Y-60148671D01*
X128773358Y-60227850D01*
X128934092Y-60276608D01*
X129101250Y-60293072D01*
X129538750Y-60293072D01*
X129705908Y-60276608D01*
X129866642Y-60227850D01*
X130014775Y-60148671D01*
X130144615Y-60042115D01*
X130251171Y-59912275D01*
X130330350Y-59764142D01*
X130379108Y-59603408D01*
X130382500Y-59568969D01*
X130385892Y-59603408D01*
G37*
%TD.AperFunction*%
D20*
X169281869Y-40044722D02*
X169395246Y-40078953D01*
X169499819Y-40134555D01*
X169591596Y-40209407D01*
X169667091Y-40300664D01*
X169723419Y-40404844D01*
X169758440Y-40517976D01*
X169774001Y-40666031D01*
X169774000Y-47022418D01*
X169774001Y-47022428D01*
X169774001Y-55785265D01*
X169759190Y-57384847D01*
X168487750Y-57387000D01*
X168329000Y-57545750D01*
X168329000Y-58770000D01*
X168349000Y-58770000D01*
X168349000Y-59024000D01*
X168329000Y-59024000D01*
X168329000Y-59044000D01*
X168075000Y-59044000D01*
X168075000Y-59024000D01*
X165625750Y-59024000D01*
X165467000Y-59182750D01*
X165463928Y-59772000D01*
X165476188Y-59896482D01*
X165512498Y-60016180D01*
X165571463Y-60126494D01*
X165650815Y-60223185D01*
X165738322Y-60295000D01*
X162119963Y-60295000D01*
X161916493Y-60315040D01*
X161910269Y-60316928D01*
X161811000Y-60316928D01*
X161637746Y-60333992D01*
X161471150Y-60384528D01*
X161317614Y-60466595D01*
X161183038Y-60577038D01*
X161111000Y-60664817D01*
X161038962Y-60577038D01*
X160904386Y-60466595D01*
X160750850Y-60384528D01*
X160584254Y-60333992D01*
X160411000Y-60316928D01*
X159911000Y-60316928D01*
X159737746Y-60333992D01*
X159571150Y-60384528D01*
X159417614Y-60466595D01*
X159283038Y-60577038D01*
X159172595Y-60711614D01*
X159090528Y-60865150D01*
X159075521Y-60914623D01*
X159026941Y-60940589D01*
X159020276Y-60946059D01*
X158925953Y-61023468D01*
X158925951Y-61023470D01*
X158892183Y-61051183D01*
X158864470Y-61084951D01*
X157655951Y-62293471D01*
X157622184Y-62321183D01*
X157594471Y-62354951D01*
X157594468Y-62354954D01*
X157511590Y-62455941D01*
X157429412Y-62609687D01*
X157378805Y-62776510D01*
X157372832Y-62837157D01*
X157366000Y-62906523D01*
X157366000Y-62906531D01*
X157361719Y-62950000D01*
X157366000Y-62993469D01*
X157366000Y-63074576D01*
X157298613Y-63110595D01*
X157164038Y-63221038D01*
X157053595Y-63355613D01*
X156971528Y-63509148D01*
X156920992Y-63675744D01*
X156903928Y-63848998D01*
X156903928Y-64374002D01*
X156920992Y-64547256D01*
X156971528Y-64713852D01*
X157053595Y-64867387D01*
X157164038Y-65001962D01*
X157190891Y-65024000D01*
X157164038Y-65046038D01*
X157123856Y-65095000D01*
X156605144Y-65095000D01*
X156503180Y-65040498D01*
X156383482Y-65004188D01*
X156259000Y-64991928D01*
X155809000Y-64991928D01*
X155684518Y-65004188D01*
X155564820Y-65040498D01*
X155454506Y-65099463D01*
X155384000Y-65157326D01*
X155313494Y-65099463D01*
X155203180Y-65040498D01*
X155083482Y-65004188D01*
X154959000Y-64991928D01*
X154509000Y-64991928D01*
X154384518Y-65004188D01*
X154264820Y-65040498D01*
X154154506Y-65099463D01*
X154086834Y-65155000D01*
X153880523Y-65155000D01*
X153750510Y-65167805D01*
X153726792Y-65175000D01*
X153244858Y-65175000D01*
X153223962Y-65149538D01*
X153089387Y-65039095D01*
X152935852Y-64957028D01*
X152769256Y-64906492D01*
X152596002Y-64889428D01*
X151695998Y-64889428D01*
X151522744Y-64906492D01*
X151356148Y-64957028D01*
X151202613Y-65039095D01*
X151068038Y-65149538D01*
X151063555Y-65155000D01*
X150558114Y-65155000D01*
X150526905Y-65096613D01*
X150416462Y-64962038D01*
X150281887Y-64851595D01*
X150128352Y-64769528D01*
X149961756Y-64718992D01*
X149788502Y-64701928D01*
X149263498Y-64701928D01*
X149090244Y-64718992D01*
X148923648Y-64769528D01*
X148770113Y-64851595D01*
X148635538Y-64962038D01*
X148613500Y-64988891D01*
X148591462Y-64962038D01*
X148456887Y-64851595D01*
X148303352Y-64769528D01*
X148136756Y-64718992D01*
X147963502Y-64701928D01*
X147438498Y-64701928D01*
X147265244Y-64718992D01*
X147098648Y-64769528D01*
X146945113Y-64851595D01*
X146810538Y-64962038D01*
X146700095Y-65096613D01*
X146668886Y-65155000D01*
X145608445Y-65155000D01*
X145603962Y-65149538D01*
X145577109Y-65127500D01*
X145603962Y-65105462D01*
X145714405Y-64970887D01*
X145796472Y-64817352D01*
X145847008Y-64650756D01*
X145864072Y-64477502D01*
X145864072Y-63952498D01*
X145847008Y-63779244D01*
X145796472Y-63612648D01*
X145714405Y-63459113D01*
X145603962Y-63324538D01*
X145469387Y-63214095D01*
X145339586Y-63144714D01*
X145265411Y-63005941D01*
X145232438Y-62965764D01*
X145182532Y-62904953D01*
X145182530Y-62904951D01*
X145154817Y-62871183D01*
X145121050Y-62843471D01*
X143635604Y-61358026D01*
X143637281Y-61341001D01*
X143633000Y-61297535D01*
X143633000Y-60541234D01*
X143642281Y-60447001D01*
X143633000Y-60352767D01*
X143633000Y-59825000D01*
X146203422Y-59825000D01*
X147933470Y-61555049D01*
X147961183Y-61588817D01*
X147994951Y-61616530D01*
X147994953Y-61616532D01*
X148020364Y-61637386D01*
X148095941Y-61699411D01*
X148249687Y-61781589D01*
X148416510Y-61832195D01*
X148546523Y-61845000D01*
X148546533Y-61845000D01*
X148589999Y-61849281D01*
X148633465Y-61845000D01*
X151386036Y-61845000D01*
X151431614Y-61882405D01*
X151585150Y-61964472D01*
X151751746Y-62015008D01*
X151925000Y-62032072D01*
X152220494Y-62032072D01*
X154521202Y-64332781D01*
X154533188Y-64454482D01*
X154569498Y-64574180D01*
X154628463Y-64684494D01*
X154707815Y-64781185D01*
X154804506Y-64860537D01*
X154914820Y-64919502D01*
X155034518Y-64955812D01*
X155159000Y-64968072D01*
X155609000Y-64968072D01*
X155733482Y-64955812D01*
X155853180Y-64919502D01*
X155963494Y-64860537D01*
X156060185Y-64781185D01*
X156139537Y-64684494D01*
X156198502Y-64574180D01*
X156234812Y-64454482D01*
X156239775Y-64404090D01*
X156269588Y-64348313D01*
X156320195Y-64181490D01*
X156337281Y-64008000D01*
X156320195Y-63834509D01*
X156269588Y-63667686D01*
X156246536Y-63624559D01*
X156234812Y-63505518D01*
X156198502Y-63385820D01*
X156139537Y-63275506D01*
X156060185Y-63178815D01*
X155963494Y-63099463D01*
X155853180Y-63040498D01*
X155733482Y-63004188D01*
X155691647Y-63000068D01*
X153763072Y-61071494D01*
X153763072Y-60644000D01*
X153746008Y-60470746D01*
X153695472Y-60304150D01*
X153613405Y-60150614D01*
X153502962Y-60016038D01*
X153496406Y-60010658D01*
X153576185Y-59945185D01*
X153655537Y-59848494D01*
X153714502Y-59738180D01*
X153750812Y-59618482D01*
X153763072Y-59494000D01*
X153760000Y-59279750D01*
X153601250Y-59121000D01*
X152527000Y-59121000D01*
X152527000Y-59141000D01*
X152273000Y-59141000D01*
X152273000Y-59121000D01*
X151198750Y-59121000D01*
X151040000Y-59279750D01*
X151036928Y-59494000D01*
X151049188Y-59618482D01*
X151085498Y-59738180D01*
X151144463Y-59848494D01*
X151223815Y-59945185D01*
X151303594Y-60010658D01*
X151297038Y-60016038D01*
X151248649Y-60075000D01*
X148956579Y-60075000D01*
X147375579Y-58494000D01*
X151036928Y-58494000D01*
X151040000Y-58708250D01*
X151198750Y-58867000D01*
X152273000Y-58867000D01*
X152273000Y-58017750D01*
X152527000Y-58017750D01*
X152527000Y-58867000D01*
X153601250Y-58867000D01*
X153760000Y-58708250D01*
X153763072Y-58494000D01*
X153750812Y-58369518D01*
X153714502Y-58249820D01*
X153655537Y-58139506D01*
X153576185Y-58042815D01*
X153550822Y-58022000D01*
X165463928Y-58022000D01*
X165467000Y-58611250D01*
X165625750Y-58770000D01*
X168075000Y-58770000D01*
X168075000Y-57545750D01*
X167916250Y-57387000D01*
X166102000Y-57383928D01*
X165977518Y-57396188D01*
X165857820Y-57432498D01*
X165747506Y-57491463D01*
X165650815Y-57570815D01*
X165571463Y-57667506D01*
X165512498Y-57777820D01*
X165476188Y-57897518D01*
X165463928Y-58022000D01*
X153550822Y-58022000D01*
X153479494Y-57963463D01*
X153369180Y-57904498D01*
X153249482Y-57868188D01*
X153125000Y-57855928D01*
X152685750Y-57859000D01*
X152527000Y-58017750D01*
X152273000Y-58017750D01*
X152114250Y-57859000D01*
X151675000Y-57855928D01*
X151550518Y-57868188D01*
X151430820Y-57904498D01*
X151320506Y-57963463D01*
X151223815Y-58042815D01*
X151144463Y-58139506D01*
X151085498Y-58249820D01*
X151049188Y-58369518D01*
X151036928Y-58494000D01*
X147375579Y-58494000D01*
X147226534Y-58344956D01*
X147198817Y-58311183D01*
X147064059Y-58200589D01*
X146910313Y-58118411D01*
X146743490Y-58067805D01*
X146613477Y-58055000D01*
X146613469Y-58055000D01*
X146570000Y-58050719D01*
X146526531Y-58055000D01*
X144096600Y-58055000D01*
X144196405Y-57933386D01*
X144278472Y-57779850D01*
X144329008Y-57613254D01*
X144346072Y-57440000D01*
X144346072Y-55590000D01*
X144329008Y-55416746D01*
X144278472Y-55250150D01*
X144196405Y-55096614D01*
X144085962Y-54962038D01*
X143951386Y-54851595D01*
X143797850Y-54769528D01*
X143633000Y-54719522D01*
X143633000Y-53188072D01*
X143990000Y-53188072D01*
X144114482Y-53175812D01*
X144234180Y-53139502D01*
X144344494Y-53080537D01*
X144441185Y-53001185D01*
X144520537Y-52904494D01*
X144579502Y-52794180D01*
X144615812Y-52674482D01*
X144628072Y-52550000D01*
X144628072Y-49050000D01*
X144615812Y-48925518D01*
X144579502Y-48805820D01*
X144520537Y-48695506D01*
X144441185Y-48598815D01*
X144344494Y-48519463D01*
X144234180Y-48460498D01*
X144114482Y-48424188D01*
X143990000Y-48411928D01*
X140490000Y-48411928D01*
X140365518Y-48424188D01*
X140245820Y-48460498D01*
X140135506Y-48519463D01*
X140038815Y-48598815D01*
X139959463Y-48695506D01*
X139918506Y-48772131D01*
X139928072Y-48675000D01*
X139928072Y-46925000D01*
X139898999Y-46629814D01*
X139812896Y-46345972D01*
X139788324Y-46300000D01*
X139851928Y-46300000D01*
X139864188Y-46424482D01*
X139900498Y-46544180D01*
X139959463Y-46654494D01*
X140038815Y-46751185D01*
X140135506Y-46830537D01*
X140245820Y-46889502D01*
X140365518Y-46925812D01*
X140490000Y-46938072D01*
X141954250Y-46935000D01*
X142113000Y-46776250D01*
X142113000Y-44927000D01*
X142367000Y-44927000D01*
X142367000Y-46776250D01*
X142525750Y-46935000D01*
X143990000Y-46938072D01*
X144114482Y-46925812D01*
X144234180Y-46889502D01*
X144344494Y-46830537D01*
X144441185Y-46751185D01*
X144520537Y-46654494D01*
X144579502Y-46544180D01*
X144615812Y-46424482D01*
X144628072Y-46300000D01*
X144625000Y-45085750D01*
X144466250Y-44927000D01*
X142367000Y-44927000D01*
X142113000Y-44927000D01*
X140013750Y-44927000D01*
X139855000Y-45085750D01*
X139851928Y-46300000D01*
X139788324Y-46300000D01*
X139673073Y-46084382D01*
X139484903Y-45855097D01*
X139255618Y-45666927D01*
X138994028Y-45527104D01*
X138710186Y-45441001D01*
X138415000Y-45411928D01*
X136665000Y-45411928D01*
X136369814Y-45441001D01*
X136085972Y-45527104D01*
X135824382Y-45666927D01*
X135595097Y-45855097D01*
X135406927Y-46084382D01*
X135267104Y-46345972D01*
X135181001Y-46629814D01*
X135151928Y-46925000D01*
X135151928Y-48675000D01*
X135181001Y-48970186D01*
X135267104Y-49254028D01*
X135406927Y-49515618D01*
X135595097Y-49744903D01*
X135824382Y-49933073D01*
X136085972Y-50072896D01*
X136369814Y-50158999D01*
X136665000Y-50188072D01*
X138415000Y-50188072D01*
X138710186Y-50158999D01*
X138994028Y-50072896D01*
X139255618Y-49933073D01*
X139484903Y-49744903D01*
X139673073Y-49515618D01*
X139812896Y-49254028D01*
X139851928Y-49125357D01*
X139851928Y-52550000D01*
X139864188Y-52674482D01*
X139900498Y-52794180D01*
X139959463Y-52904494D01*
X140038815Y-53001185D01*
X140135506Y-53080537D01*
X140245820Y-53139502D01*
X140365518Y-53175812D01*
X140490000Y-53188072D01*
X141863001Y-53188072D01*
X141863000Y-54703898D01*
X141709746Y-54718992D01*
X141543150Y-54769528D01*
X141389614Y-54851595D01*
X141255038Y-54962038D01*
X141144595Y-55096614D01*
X141062528Y-55250150D01*
X141011992Y-55416746D01*
X140994928Y-55590000D01*
X140994928Y-57440000D01*
X141011992Y-57613254D01*
X141062528Y-57779850D01*
X141144595Y-57933386D01*
X141255038Y-58067962D01*
X141389614Y-58178405D01*
X141543150Y-58260472D01*
X141709746Y-58311008D01*
X141863000Y-58326102D01*
X141863000Y-58598584D01*
X141862411Y-58599687D01*
X141811805Y-58766510D01*
X141794718Y-58940000D01*
X141811805Y-59113490D01*
X141862411Y-59280313D01*
X141863001Y-59281416D01*
X141863001Y-60408514D01*
X141863000Y-60408524D01*
X141863000Y-60408531D01*
X141858719Y-60452000D01*
X141863000Y-60495469D01*
X141863000Y-60710000D01*
X137399579Y-60710000D01*
X136038532Y-59348954D01*
X136010817Y-59315183D01*
X135977045Y-59287466D01*
X135784536Y-59094958D01*
X135784532Y-59094953D01*
X134379579Y-57690000D01*
X136069928Y-57690000D01*
X136082188Y-57814482D01*
X136118498Y-57934180D01*
X136177463Y-58044494D01*
X136256815Y-58141185D01*
X136353506Y-58220537D01*
X136463820Y-58279502D01*
X136583518Y-58315812D01*
X136708000Y-58328072D01*
X137459750Y-58325000D01*
X137618500Y-58166250D01*
X137618500Y-56642000D01*
X137872500Y-56642000D01*
X137872500Y-58166250D01*
X138031250Y-58325000D01*
X138783000Y-58328072D01*
X138907482Y-58315812D01*
X139027180Y-58279502D01*
X139137494Y-58220537D01*
X139234185Y-58141185D01*
X139313537Y-58044494D01*
X139372502Y-57934180D01*
X139408812Y-57814482D01*
X139421072Y-57690000D01*
X139418000Y-56800750D01*
X139259250Y-56642000D01*
X137872500Y-56642000D01*
X137618500Y-56642000D01*
X136231750Y-56642000D01*
X136073000Y-56800750D01*
X136069928Y-57690000D01*
X134379579Y-57690000D01*
X133879534Y-57189956D01*
X133851817Y-57156183D01*
X133717059Y-57045589D01*
X133563313Y-56963411D01*
X133396490Y-56912805D01*
X133266477Y-56900000D01*
X133266469Y-56900000D01*
X133223000Y-56895719D01*
X133179531Y-56900000D01*
X127043469Y-56900000D01*
X127000000Y-56895719D01*
X126956531Y-56900000D01*
X126956523Y-56900000D01*
X126826510Y-56912805D01*
X126659687Y-56963411D01*
X126505941Y-57045589D01*
X126404953Y-57128468D01*
X126404951Y-57128470D01*
X126371183Y-57156183D01*
X126343470Y-57189951D01*
X121324956Y-62208466D01*
X121291183Y-62236183D01*
X121180589Y-62370942D01*
X121098411Y-62524688D01*
X121047805Y-62691511D01*
X121035000Y-62821524D01*
X121035000Y-62821531D01*
X121030719Y-62865000D01*
X121035000Y-62908469D01*
X121035001Y-64452886D01*
X120976613Y-64484095D01*
X120842038Y-64594538D01*
X120731595Y-64729113D01*
X120649528Y-64882648D01*
X120598992Y-65049244D01*
X120581928Y-65222498D01*
X120581928Y-65747502D01*
X120598992Y-65920756D01*
X120649528Y-66087352D01*
X120731595Y-66240887D01*
X120842038Y-66375462D01*
X120868891Y-66397500D01*
X120842038Y-66419538D01*
X120837555Y-66425000D01*
X120346976Y-66425000D01*
X120302405Y-66341614D01*
X120191962Y-66207038D01*
X120057386Y-66096595D01*
X119903850Y-66014528D01*
X119737254Y-65963992D01*
X119564000Y-65946928D01*
X119064000Y-65946928D01*
X118890746Y-65963992D01*
X118724150Y-66014528D01*
X118570614Y-66096595D01*
X118436038Y-66207038D01*
X118364000Y-66294817D01*
X118291962Y-66207038D01*
X118157386Y-66096595D01*
X118003850Y-66014528D01*
X117837254Y-65963992D01*
X117664000Y-65946928D01*
X117371731Y-65946928D01*
X117365507Y-65945040D01*
X117162037Y-65925000D01*
X115366019Y-65925000D01*
X115430494Y-65890537D01*
X115527185Y-65811185D01*
X115606537Y-65714494D01*
X115665502Y-65604180D01*
X115701812Y-65484482D01*
X115714072Y-65360000D01*
X115711000Y-64770750D01*
X115552250Y-64612000D01*
X113103000Y-64612000D01*
X113103000Y-64632000D01*
X112849000Y-64632000D01*
X112849000Y-64612000D01*
X112829000Y-64612000D01*
X112829000Y-64358000D01*
X112849000Y-64358000D01*
X112849000Y-63133750D01*
X113103000Y-63133750D01*
X113103000Y-64358000D01*
X115552250Y-64358000D01*
X115711000Y-64199250D01*
X115714072Y-63610000D01*
X115701812Y-63485518D01*
X115665502Y-63365820D01*
X115606537Y-63255506D01*
X115527185Y-63158815D01*
X115430494Y-63079463D01*
X115320180Y-63020498D01*
X115200482Y-62984188D01*
X115076000Y-62971928D01*
X113261750Y-62975000D01*
X113103000Y-63133750D01*
X112849000Y-63133750D01*
X112690250Y-62975000D01*
X111404000Y-62972822D01*
X111404000Y-55430495D01*
X112315000Y-55430495D01*
X112315000Y-55821505D01*
X112391282Y-56205003D01*
X112540915Y-56566250D01*
X112758149Y-56891364D01*
X113034636Y-57167851D01*
X113359750Y-57385085D01*
X113720997Y-57534718D01*
X114104495Y-57611000D01*
X114495505Y-57611000D01*
X114879003Y-57534718D01*
X115240250Y-57385085D01*
X115565364Y-57167851D01*
X115841851Y-56891364D01*
X116059085Y-56566250D01*
X116208718Y-56205003D01*
X116285000Y-55821505D01*
X116285000Y-55430495D01*
X116267000Y-55340000D01*
X136069928Y-55340000D01*
X136073000Y-56229250D01*
X136231750Y-56388000D01*
X137618500Y-56388000D01*
X137618500Y-54863750D01*
X137872500Y-54863750D01*
X137872500Y-56388000D01*
X139259250Y-56388000D01*
X139418000Y-56229250D01*
X139421072Y-55340000D01*
X139408812Y-55215518D01*
X139372502Y-55095820D01*
X139313537Y-54985506D01*
X139234185Y-54888815D01*
X139137494Y-54809463D01*
X139027180Y-54750498D01*
X138907482Y-54714188D01*
X138783000Y-54701928D01*
X138031250Y-54705000D01*
X137872500Y-54863750D01*
X137618500Y-54863750D01*
X137459750Y-54705000D01*
X136708000Y-54701928D01*
X136583518Y-54714188D01*
X136463820Y-54750498D01*
X136353506Y-54809463D01*
X136256815Y-54888815D01*
X136177463Y-54985506D01*
X136118498Y-55095820D01*
X136082188Y-55215518D01*
X136069928Y-55340000D01*
X116267000Y-55340000D01*
X116208718Y-55046997D01*
X116059085Y-54685750D01*
X115841851Y-54360636D01*
X115565364Y-54084149D01*
X115240250Y-53866915D01*
X114879003Y-53717282D01*
X114495505Y-53641000D01*
X114104495Y-53641000D01*
X113720997Y-53717282D01*
X113359750Y-53866915D01*
X113034636Y-54084149D01*
X112758149Y-54360636D01*
X112540915Y-54685750D01*
X112391282Y-55046997D01*
X112315000Y-55430495D01*
X111404000Y-55430495D01*
X111404000Y-43300000D01*
X139851928Y-43300000D01*
X139855000Y-44514250D01*
X140013750Y-44673000D01*
X142113000Y-44673000D01*
X142113000Y-42823750D01*
X142367000Y-42823750D01*
X142367000Y-44673000D01*
X144466250Y-44673000D01*
X144625000Y-44514250D01*
X144628072Y-43300000D01*
X144615812Y-43175518D01*
X144579502Y-43055820D01*
X144520537Y-42945506D01*
X144441185Y-42848815D01*
X144344494Y-42769463D01*
X144234180Y-42710498D01*
X144114482Y-42674188D01*
X143990000Y-42661928D01*
X142525750Y-42665000D01*
X142367000Y-42823750D01*
X142113000Y-42823750D01*
X141954250Y-42665000D01*
X140490000Y-42661928D01*
X140365518Y-42674188D01*
X140245820Y-42710498D01*
X140135506Y-42769463D01*
X140038815Y-42848815D01*
X139959463Y-42945506D01*
X139900498Y-43055820D01*
X139864188Y-43175518D01*
X139851928Y-43300000D01*
X111404000Y-43300000D01*
X111404000Y-40672279D01*
X111418722Y-40522131D01*
X111452953Y-40408754D01*
X111508555Y-40304181D01*
X111583407Y-40212404D01*
X111674664Y-40136909D01*
X111778844Y-40080581D01*
X111891976Y-40045560D01*
X112040022Y-40030000D01*
X169131721Y-40030000D01*
X169281869Y-40044722D01*
%TA.AperFunction,Conductor*%
D21*
G36*
X169281869Y-40044722D02*
G01*
X169395246Y-40078953D01*
X169499819Y-40134555D01*
X169591596Y-40209407D01*
X169667091Y-40300664D01*
X169723419Y-40404844D01*
X169758440Y-40517976D01*
X169774001Y-40666031D01*
X169774000Y-47022418D01*
X169774001Y-47022428D01*
X169774001Y-55785265D01*
X169759190Y-57384847D01*
X168487750Y-57387000D01*
X168329000Y-57545750D01*
X168329000Y-58770000D01*
X168349000Y-58770000D01*
X168349000Y-59024000D01*
X168329000Y-59024000D01*
X168329000Y-59044000D01*
X168075000Y-59044000D01*
X168075000Y-59024000D01*
X165625750Y-59024000D01*
X165467000Y-59182750D01*
X165463928Y-59772000D01*
X165476188Y-59896482D01*
X165512498Y-60016180D01*
X165571463Y-60126494D01*
X165650815Y-60223185D01*
X165738322Y-60295000D01*
X162119963Y-60295000D01*
X161916493Y-60315040D01*
X161910269Y-60316928D01*
X161811000Y-60316928D01*
X161637746Y-60333992D01*
X161471150Y-60384528D01*
X161317614Y-60466595D01*
X161183038Y-60577038D01*
X161111000Y-60664817D01*
X161038962Y-60577038D01*
X160904386Y-60466595D01*
X160750850Y-60384528D01*
X160584254Y-60333992D01*
X160411000Y-60316928D01*
X159911000Y-60316928D01*
X159737746Y-60333992D01*
X159571150Y-60384528D01*
X159417614Y-60466595D01*
X159283038Y-60577038D01*
X159172595Y-60711614D01*
X159090528Y-60865150D01*
X159075521Y-60914623D01*
X159026941Y-60940589D01*
X159020276Y-60946059D01*
X158925953Y-61023468D01*
X158925951Y-61023470D01*
X158892183Y-61051183D01*
X158864470Y-61084951D01*
X157655951Y-62293471D01*
X157622184Y-62321183D01*
X157594471Y-62354951D01*
X157594468Y-62354954D01*
X157511590Y-62455941D01*
X157429412Y-62609687D01*
X157378805Y-62776510D01*
X157372832Y-62837157D01*
X157366000Y-62906523D01*
X157366000Y-62906531D01*
X157361719Y-62950000D01*
X157366000Y-62993469D01*
X157366000Y-63074576D01*
X157298613Y-63110595D01*
X157164038Y-63221038D01*
X157053595Y-63355613D01*
X156971528Y-63509148D01*
X156920992Y-63675744D01*
X156903928Y-63848998D01*
X156903928Y-64374002D01*
X156920992Y-64547256D01*
X156971528Y-64713852D01*
X157053595Y-64867387D01*
X157164038Y-65001962D01*
X157190891Y-65024000D01*
X157164038Y-65046038D01*
X157123856Y-65095000D01*
X156605144Y-65095000D01*
X156503180Y-65040498D01*
X156383482Y-65004188D01*
X156259000Y-64991928D01*
X155809000Y-64991928D01*
X155684518Y-65004188D01*
X155564820Y-65040498D01*
X155454506Y-65099463D01*
X155384000Y-65157326D01*
X155313494Y-65099463D01*
X155203180Y-65040498D01*
X155083482Y-65004188D01*
X154959000Y-64991928D01*
X154509000Y-64991928D01*
X154384518Y-65004188D01*
X154264820Y-65040498D01*
X154154506Y-65099463D01*
X154086834Y-65155000D01*
X153880523Y-65155000D01*
X153750510Y-65167805D01*
X153726792Y-65175000D01*
X153244858Y-65175000D01*
X153223962Y-65149538D01*
X153089387Y-65039095D01*
X152935852Y-64957028D01*
X152769256Y-64906492D01*
X152596002Y-64889428D01*
X151695998Y-64889428D01*
X151522744Y-64906492D01*
X151356148Y-64957028D01*
X151202613Y-65039095D01*
X151068038Y-65149538D01*
X151063555Y-65155000D01*
X150558114Y-65155000D01*
X150526905Y-65096613D01*
X150416462Y-64962038D01*
X150281887Y-64851595D01*
X150128352Y-64769528D01*
X149961756Y-64718992D01*
X149788502Y-64701928D01*
X149263498Y-64701928D01*
X149090244Y-64718992D01*
X148923648Y-64769528D01*
X148770113Y-64851595D01*
X148635538Y-64962038D01*
X148613500Y-64988891D01*
X148591462Y-64962038D01*
X148456887Y-64851595D01*
X148303352Y-64769528D01*
X148136756Y-64718992D01*
X147963502Y-64701928D01*
X147438498Y-64701928D01*
X147265244Y-64718992D01*
X147098648Y-64769528D01*
X146945113Y-64851595D01*
X146810538Y-64962038D01*
X146700095Y-65096613D01*
X146668886Y-65155000D01*
X145608445Y-65155000D01*
X145603962Y-65149538D01*
X145577109Y-65127500D01*
X145603962Y-65105462D01*
X145714405Y-64970887D01*
X145796472Y-64817352D01*
X145847008Y-64650756D01*
X145864072Y-64477502D01*
X145864072Y-63952498D01*
X145847008Y-63779244D01*
X145796472Y-63612648D01*
X145714405Y-63459113D01*
X145603962Y-63324538D01*
X145469387Y-63214095D01*
X145339586Y-63144714D01*
X145265411Y-63005941D01*
X145232438Y-62965764D01*
X145182532Y-62904953D01*
X145182530Y-62904951D01*
X145154817Y-62871183D01*
X145121050Y-62843471D01*
X143635604Y-61358026D01*
X143637281Y-61341001D01*
X143633000Y-61297535D01*
X143633000Y-60541234D01*
X143642281Y-60447001D01*
X143633000Y-60352767D01*
X143633000Y-59825000D01*
X146203422Y-59825000D01*
X147933470Y-61555049D01*
X147961183Y-61588817D01*
X147994951Y-61616530D01*
X147994953Y-61616532D01*
X148020364Y-61637386D01*
X148095941Y-61699411D01*
X148249687Y-61781589D01*
X148416510Y-61832195D01*
X148546523Y-61845000D01*
X148546533Y-61845000D01*
X148589999Y-61849281D01*
X148633465Y-61845000D01*
X151386036Y-61845000D01*
X151431614Y-61882405D01*
X151585150Y-61964472D01*
X151751746Y-62015008D01*
X151925000Y-62032072D01*
X152220494Y-62032072D01*
X154521202Y-64332781D01*
X154533188Y-64454482D01*
X154569498Y-64574180D01*
X154628463Y-64684494D01*
X154707815Y-64781185D01*
X154804506Y-64860537D01*
X154914820Y-64919502D01*
X155034518Y-64955812D01*
X155159000Y-64968072D01*
X155609000Y-64968072D01*
X155733482Y-64955812D01*
X155853180Y-64919502D01*
X155963494Y-64860537D01*
X156060185Y-64781185D01*
X156139537Y-64684494D01*
X156198502Y-64574180D01*
X156234812Y-64454482D01*
X156239775Y-64404090D01*
X156269588Y-64348313D01*
X156320195Y-64181490D01*
X156337281Y-64008000D01*
X156320195Y-63834509D01*
X156269588Y-63667686D01*
X156246536Y-63624559D01*
X156234812Y-63505518D01*
X156198502Y-63385820D01*
X156139537Y-63275506D01*
X156060185Y-63178815D01*
X155963494Y-63099463D01*
X155853180Y-63040498D01*
X155733482Y-63004188D01*
X155691647Y-63000068D01*
X153763072Y-61071494D01*
X153763072Y-60644000D01*
X153746008Y-60470746D01*
X153695472Y-60304150D01*
X153613405Y-60150614D01*
X153502962Y-60016038D01*
X153496406Y-60010658D01*
X153576185Y-59945185D01*
X153655537Y-59848494D01*
X153714502Y-59738180D01*
X153750812Y-59618482D01*
X153763072Y-59494000D01*
X153760000Y-59279750D01*
X153601250Y-59121000D01*
X152527000Y-59121000D01*
X152527000Y-59141000D01*
X152273000Y-59141000D01*
X152273000Y-59121000D01*
X151198750Y-59121000D01*
X151040000Y-59279750D01*
X151036928Y-59494000D01*
X151049188Y-59618482D01*
X151085498Y-59738180D01*
X151144463Y-59848494D01*
X151223815Y-59945185D01*
X151303594Y-60010658D01*
X151297038Y-60016038D01*
X151248649Y-60075000D01*
X148956579Y-60075000D01*
X147375579Y-58494000D01*
X151036928Y-58494000D01*
X151040000Y-58708250D01*
X151198750Y-58867000D01*
X152273000Y-58867000D01*
X152273000Y-58017750D01*
X152527000Y-58017750D01*
X152527000Y-58867000D01*
X153601250Y-58867000D01*
X153760000Y-58708250D01*
X153763072Y-58494000D01*
X153750812Y-58369518D01*
X153714502Y-58249820D01*
X153655537Y-58139506D01*
X153576185Y-58042815D01*
X153550822Y-58022000D01*
X165463928Y-58022000D01*
X165467000Y-58611250D01*
X165625750Y-58770000D01*
X168075000Y-58770000D01*
X168075000Y-57545750D01*
X167916250Y-57387000D01*
X166102000Y-57383928D01*
X165977518Y-57396188D01*
X165857820Y-57432498D01*
X165747506Y-57491463D01*
X165650815Y-57570815D01*
X165571463Y-57667506D01*
X165512498Y-57777820D01*
X165476188Y-57897518D01*
X165463928Y-58022000D01*
X153550822Y-58022000D01*
X153479494Y-57963463D01*
X153369180Y-57904498D01*
X153249482Y-57868188D01*
X153125000Y-57855928D01*
X152685750Y-57859000D01*
X152527000Y-58017750D01*
X152273000Y-58017750D01*
X152114250Y-57859000D01*
X151675000Y-57855928D01*
X151550518Y-57868188D01*
X151430820Y-57904498D01*
X151320506Y-57963463D01*
X151223815Y-58042815D01*
X151144463Y-58139506D01*
X151085498Y-58249820D01*
X151049188Y-58369518D01*
X151036928Y-58494000D01*
X147375579Y-58494000D01*
X147226534Y-58344956D01*
X147198817Y-58311183D01*
X147064059Y-58200589D01*
X146910313Y-58118411D01*
X146743490Y-58067805D01*
X146613477Y-58055000D01*
X146613469Y-58055000D01*
X146570000Y-58050719D01*
X146526531Y-58055000D01*
X144096600Y-58055000D01*
X144196405Y-57933386D01*
X144278472Y-57779850D01*
X144329008Y-57613254D01*
X144346072Y-57440000D01*
X144346072Y-55590000D01*
X144329008Y-55416746D01*
X144278472Y-55250150D01*
X144196405Y-55096614D01*
X144085962Y-54962038D01*
X143951386Y-54851595D01*
X143797850Y-54769528D01*
X143633000Y-54719522D01*
X143633000Y-53188072D01*
X143990000Y-53188072D01*
X144114482Y-53175812D01*
X144234180Y-53139502D01*
X144344494Y-53080537D01*
X144441185Y-53001185D01*
X144520537Y-52904494D01*
X144579502Y-52794180D01*
X144615812Y-52674482D01*
X144628072Y-52550000D01*
X144628072Y-49050000D01*
X144615812Y-48925518D01*
X144579502Y-48805820D01*
X144520537Y-48695506D01*
X144441185Y-48598815D01*
X144344494Y-48519463D01*
X144234180Y-48460498D01*
X144114482Y-48424188D01*
X143990000Y-48411928D01*
X140490000Y-48411928D01*
X140365518Y-48424188D01*
X140245820Y-48460498D01*
X140135506Y-48519463D01*
X140038815Y-48598815D01*
X139959463Y-48695506D01*
X139918506Y-48772131D01*
X139928072Y-48675000D01*
X139928072Y-46925000D01*
X139898999Y-46629814D01*
X139812896Y-46345972D01*
X139788324Y-46300000D01*
X139851928Y-46300000D01*
X139864188Y-46424482D01*
X139900498Y-46544180D01*
X139959463Y-46654494D01*
X140038815Y-46751185D01*
X140135506Y-46830537D01*
X140245820Y-46889502D01*
X140365518Y-46925812D01*
X140490000Y-46938072D01*
X141954250Y-46935000D01*
X142113000Y-46776250D01*
X142113000Y-44927000D01*
X142367000Y-44927000D01*
X142367000Y-46776250D01*
X142525750Y-46935000D01*
X143990000Y-46938072D01*
X144114482Y-46925812D01*
X144234180Y-46889502D01*
X144344494Y-46830537D01*
X144441185Y-46751185D01*
X144520537Y-46654494D01*
X144579502Y-46544180D01*
X144615812Y-46424482D01*
X144628072Y-46300000D01*
X144625000Y-45085750D01*
X144466250Y-44927000D01*
X142367000Y-44927000D01*
X142113000Y-44927000D01*
X140013750Y-44927000D01*
X139855000Y-45085750D01*
X139851928Y-46300000D01*
X139788324Y-46300000D01*
X139673073Y-46084382D01*
X139484903Y-45855097D01*
X139255618Y-45666927D01*
X138994028Y-45527104D01*
X138710186Y-45441001D01*
X138415000Y-45411928D01*
X136665000Y-45411928D01*
X136369814Y-45441001D01*
X136085972Y-45527104D01*
X135824382Y-45666927D01*
X135595097Y-45855097D01*
X135406927Y-46084382D01*
X135267104Y-46345972D01*
X135181001Y-46629814D01*
X135151928Y-46925000D01*
X135151928Y-48675000D01*
X135181001Y-48970186D01*
X135267104Y-49254028D01*
X135406927Y-49515618D01*
X135595097Y-49744903D01*
X135824382Y-49933073D01*
X136085972Y-50072896D01*
X136369814Y-50158999D01*
X136665000Y-50188072D01*
X138415000Y-50188072D01*
X138710186Y-50158999D01*
X138994028Y-50072896D01*
X139255618Y-49933073D01*
X139484903Y-49744903D01*
X139673073Y-49515618D01*
X139812896Y-49254028D01*
X139851928Y-49125357D01*
X139851928Y-52550000D01*
X139864188Y-52674482D01*
X139900498Y-52794180D01*
X139959463Y-52904494D01*
X140038815Y-53001185D01*
X140135506Y-53080537D01*
X140245820Y-53139502D01*
X140365518Y-53175812D01*
X140490000Y-53188072D01*
X141863001Y-53188072D01*
X141863000Y-54703898D01*
X141709746Y-54718992D01*
X141543150Y-54769528D01*
X141389614Y-54851595D01*
X141255038Y-54962038D01*
X141144595Y-55096614D01*
X141062528Y-55250150D01*
X141011992Y-55416746D01*
X140994928Y-55590000D01*
X140994928Y-57440000D01*
X141011992Y-57613254D01*
X141062528Y-57779850D01*
X141144595Y-57933386D01*
X141255038Y-58067962D01*
X141389614Y-58178405D01*
X141543150Y-58260472D01*
X141709746Y-58311008D01*
X141863000Y-58326102D01*
X141863000Y-58598584D01*
X141862411Y-58599687D01*
X141811805Y-58766510D01*
X141794718Y-58940000D01*
X141811805Y-59113490D01*
X141862411Y-59280313D01*
X141863001Y-59281416D01*
X141863001Y-60408514D01*
X141863000Y-60408524D01*
X141863000Y-60408531D01*
X141858719Y-60452000D01*
X141863000Y-60495469D01*
X141863000Y-60710000D01*
X137399579Y-60710000D01*
X136038532Y-59348954D01*
X136010817Y-59315183D01*
X135977045Y-59287466D01*
X135784536Y-59094958D01*
X135784532Y-59094953D01*
X134379579Y-57690000D01*
X136069928Y-57690000D01*
X136082188Y-57814482D01*
X136118498Y-57934180D01*
X136177463Y-58044494D01*
X136256815Y-58141185D01*
X136353506Y-58220537D01*
X136463820Y-58279502D01*
X136583518Y-58315812D01*
X136708000Y-58328072D01*
X137459750Y-58325000D01*
X137618500Y-58166250D01*
X137618500Y-56642000D01*
X137872500Y-56642000D01*
X137872500Y-58166250D01*
X138031250Y-58325000D01*
X138783000Y-58328072D01*
X138907482Y-58315812D01*
X139027180Y-58279502D01*
X139137494Y-58220537D01*
X139234185Y-58141185D01*
X139313537Y-58044494D01*
X139372502Y-57934180D01*
X139408812Y-57814482D01*
X139421072Y-57690000D01*
X139418000Y-56800750D01*
X139259250Y-56642000D01*
X137872500Y-56642000D01*
X137618500Y-56642000D01*
X136231750Y-56642000D01*
X136073000Y-56800750D01*
X136069928Y-57690000D01*
X134379579Y-57690000D01*
X133879534Y-57189956D01*
X133851817Y-57156183D01*
X133717059Y-57045589D01*
X133563313Y-56963411D01*
X133396490Y-56912805D01*
X133266477Y-56900000D01*
X133266469Y-56900000D01*
X133223000Y-56895719D01*
X133179531Y-56900000D01*
X127043469Y-56900000D01*
X127000000Y-56895719D01*
X126956531Y-56900000D01*
X126956523Y-56900000D01*
X126826510Y-56912805D01*
X126659687Y-56963411D01*
X126505941Y-57045589D01*
X126404953Y-57128468D01*
X126404951Y-57128470D01*
X126371183Y-57156183D01*
X126343470Y-57189951D01*
X121324956Y-62208466D01*
X121291183Y-62236183D01*
X121180589Y-62370942D01*
X121098411Y-62524688D01*
X121047805Y-62691511D01*
X121035000Y-62821524D01*
X121035000Y-62821531D01*
X121030719Y-62865000D01*
X121035000Y-62908469D01*
X121035001Y-64452886D01*
X120976613Y-64484095D01*
X120842038Y-64594538D01*
X120731595Y-64729113D01*
X120649528Y-64882648D01*
X120598992Y-65049244D01*
X120581928Y-65222498D01*
X120581928Y-65747502D01*
X120598992Y-65920756D01*
X120649528Y-66087352D01*
X120731595Y-66240887D01*
X120842038Y-66375462D01*
X120868891Y-66397500D01*
X120842038Y-66419538D01*
X120837555Y-66425000D01*
X120346976Y-66425000D01*
X120302405Y-66341614D01*
X120191962Y-66207038D01*
X120057386Y-66096595D01*
X119903850Y-66014528D01*
X119737254Y-65963992D01*
X119564000Y-65946928D01*
X119064000Y-65946928D01*
X118890746Y-65963992D01*
X118724150Y-66014528D01*
X118570614Y-66096595D01*
X118436038Y-66207038D01*
X118364000Y-66294817D01*
X118291962Y-66207038D01*
X118157386Y-66096595D01*
X118003850Y-66014528D01*
X117837254Y-65963992D01*
X117664000Y-65946928D01*
X117371731Y-65946928D01*
X117365507Y-65945040D01*
X117162037Y-65925000D01*
X115366019Y-65925000D01*
X115430494Y-65890537D01*
X115527185Y-65811185D01*
X115606537Y-65714494D01*
X115665502Y-65604180D01*
X115701812Y-65484482D01*
X115714072Y-65360000D01*
X115711000Y-64770750D01*
X115552250Y-64612000D01*
X113103000Y-64612000D01*
X113103000Y-64632000D01*
X112849000Y-64632000D01*
X112849000Y-64612000D01*
X112829000Y-64612000D01*
X112829000Y-64358000D01*
X112849000Y-64358000D01*
X112849000Y-63133750D01*
X113103000Y-63133750D01*
X113103000Y-64358000D01*
X115552250Y-64358000D01*
X115711000Y-64199250D01*
X115714072Y-63610000D01*
X115701812Y-63485518D01*
X115665502Y-63365820D01*
X115606537Y-63255506D01*
X115527185Y-63158815D01*
X115430494Y-63079463D01*
X115320180Y-63020498D01*
X115200482Y-62984188D01*
X115076000Y-62971928D01*
X113261750Y-62975000D01*
X113103000Y-63133750D01*
X112849000Y-63133750D01*
X112690250Y-62975000D01*
X111404000Y-62972822D01*
X111404000Y-55430495D01*
X112315000Y-55430495D01*
X112315000Y-55821505D01*
X112391282Y-56205003D01*
X112540915Y-56566250D01*
X112758149Y-56891364D01*
X113034636Y-57167851D01*
X113359750Y-57385085D01*
X113720997Y-57534718D01*
X114104495Y-57611000D01*
X114495505Y-57611000D01*
X114879003Y-57534718D01*
X115240250Y-57385085D01*
X115565364Y-57167851D01*
X115841851Y-56891364D01*
X116059085Y-56566250D01*
X116208718Y-56205003D01*
X116285000Y-55821505D01*
X116285000Y-55430495D01*
X116267000Y-55340000D01*
X136069928Y-55340000D01*
X136073000Y-56229250D01*
X136231750Y-56388000D01*
X137618500Y-56388000D01*
X137618500Y-54863750D01*
X137872500Y-54863750D01*
X137872500Y-56388000D01*
X139259250Y-56388000D01*
X139418000Y-56229250D01*
X139421072Y-55340000D01*
X139408812Y-55215518D01*
X139372502Y-55095820D01*
X139313537Y-54985506D01*
X139234185Y-54888815D01*
X139137494Y-54809463D01*
X139027180Y-54750498D01*
X138907482Y-54714188D01*
X138783000Y-54701928D01*
X138031250Y-54705000D01*
X137872500Y-54863750D01*
X137618500Y-54863750D01*
X137459750Y-54705000D01*
X136708000Y-54701928D01*
X136583518Y-54714188D01*
X136463820Y-54750498D01*
X136353506Y-54809463D01*
X136256815Y-54888815D01*
X136177463Y-54985506D01*
X136118498Y-55095820D01*
X136082188Y-55215518D01*
X136069928Y-55340000D01*
X116267000Y-55340000D01*
X116208718Y-55046997D01*
X116059085Y-54685750D01*
X115841851Y-54360636D01*
X115565364Y-54084149D01*
X115240250Y-53866915D01*
X114879003Y-53717282D01*
X114495505Y-53641000D01*
X114104495Y-53641000D01*
X113720997Y-53717282D01*
X113359750Y-53866915D01*
X113034636Y-54084149D01*
X112758149Y-54360636D01*
X112540915Y-54685750D01*
X112391282Y-55046997D01*
X112315000Y-55430495D01*
X111404000Y-55430495D01*
X111404000Y-43300000D01*
X139851928Y-43300000D01*
X139855000Y-44514250D01*
X140013750Y-44673000D01*
X142113000Y-44673000D01*
X142113000Y-42823750D01*
X142367000Y-42823750D01*
X142367000Y-44673000D01*
X144466250Y-44673000D01*
X144625000Y-44514250D01*
X144628072Y-43300000D01*
X144615812Y-43175518D01*
X144579502Y-43055820D01*
X144520537Y-42945506D01*
X144441185Y-42848815D01*
X144344494Y-42769463D01*
X144234180Y-42710498D01*
X144114482Y-42674188D01*
X143990000Y-42661928D01*
X142525750Y-42665000D01*
X142367000Y-42823750D01*
X142113000Y-42823750D01*
X141954250Y-42665000D01*
X140490000Y-42661928D01*
X140365518Y-42674188D01*
X140245820Y-42710498D01*
X140135506Y-42769463D01*
X140038815Y-42848815D01*
X139959463Y-42945506D01*
X139900498Y-43055820D01*
X139864188Y-43175518D01*
X139851928Y-43300000D01*
X111404000Y-43300000D01*
X111404000Y-40672279D01*
X111418722Y-40522131D01*
X111452953Y-40408754D01*
X111508555Y-40304181D01*
X111583407Y-40212404D01*
X111674664Y-40136909D01*
X111778844Y-40080581D01*
X111891976Y-40045560D01*
X112040022Y-40030000D01*
X169131721Y-40030000D01*
X169281869Y-40044722D01*
G37*
%TD.AperFunction*%
D20*
X125729528Y-60357648D02*
X125678992Y-60524244D01*
X125661928Y-60697498D01*
X125661928Y-61222502D01*
X125678992Y-61395756D01*
X125729528Y-61562352D01*
X125811595Y-61715887D01*
X125922038Y-61850462D01*
X125948891Y-61872500D01*
X125922038Y-61894538D01*
X125811595Y-62029113D01*
X125729528Y-62182648D01*
X125678992Y-62349244D01*
X125661928Y-62522498D01*
X125661928Y-63047502D01*
X125678992Y-63220756D01*
X125729528Y-63387352D01*
X125811595Y-63540887D01*
X125922038Y-63675462D01*
X126056613Y-63785905D01*
X126115001Y-63817114D01*
X126115000Y-64377024D01*
X126031614Y-64421595D01*
X125897038Y-64532038D01*
X125786595Y-64666614D01*
X125704528Y-64820150D01*
X125653992Y-64986746D01*
X125636928Y-65160000D01*
X125636928Y-65660000D01*
X125653992Y-65833254D01*
X125704528Y-65999850D01*
X125786595Y-66153386D01*
X125897038Y-66287962D01*
X125984817Y-66360000D01*
X125905614Y-66425000D01*
X123002445Y-66425000D01*
X122997962Y-66419538D01*
X122971109Y-66397500D01*
X122997962Y-66375462D01*
X123108405Y-66240887D01*
X123190472Y-66087352D01*
X123241008Y-65920756D01*
X123258072Y-65747502D01*
X123258072Y-65222498D01*
X123241008Y-65049244D01*
X123190472Y-64882648D01*
X123108405Y-64729113D01*
X122997962Y-64594538D01*
X122863387Y-64484095D01*
X122805000Y-64452886D01*
X122805000Y-63231578D01*
X125787629Y-60248949D01*
X125729528Y-60357648D01*
%TA.AperFunction,Conductor*%
D21*
G36*
X125729528Y-60357648D02*
G01*
X125678992Y-60524244D01*
X125661928Y-60697498D01*
X125661928Y-61222502D01*
X125678992Y-61395756D01*
X125729528Y-61562352D01*
X125811595Y-61715887D01*
X125922038Y-61850462D01*
X125948891Y-61872500D01*
X125922038Y-61894538D01*
X125811595Y-62029113D01*
X125729528Y-62182648D01*
X125678992Y-62349244D01*
X125661928Y-62522498D01*
X125661928Y-63047502D01*
X125678992Y-63220756D01*
X125729528Y-63387352D01*
X125811595Y-63540887D01*
X125922038Y-63675462D01*
X126056613Y-63785905D01*
X126115001Y-63817114D01*
X126115000Y-64377024D01*
X126031614Y-64421595D01*
X125897038Y-64532038D01*
X125786595Y-64666614D01*
X125704528Y-64820150D01*
X125653992Y-64986746D01*
X125636928Y-65160000D01*
X125636928Y-65660000D01*
X125653992Y-65833254D01*
X125704528Y-65999850D01*
X125786595Y-66153386D01*
X125897038Y-66287962D01*
X125984817Y-66360000D01*
X125905614Y-66425000D01*
X123002445Y-66425000D01*
X122997962Y-66419538D01*
X122971109Y-66397500D01*
X122997962Y-66375462D01*
X123108405Y-66240887D01*
X123190472Y-66087352D01*
X123241008Y-65920756D01*
X123258072Y-65747502D01*
X123258072Y-65222498D01*
X123241008Y-65049244D01*
X123190472Y-64882648D01*
X123108405Y-64729113D01*
X122997962Y-64594538D01*
X122863387Y-64484095D01*
X122805000Y-64452886D01*
X122805000Y-63231578D01*
X125787629Y-60248949D01*
X125729528Y-60357648D01*
G37*
%TD.AperFunction*%
D20*
X136376470Y-62190049D02*
X136404183Y-62223817D01*
X136437951Y-62251530D01*
X136437953Y-62251532D01*
X136464693Y-62273477D01*
X136538941Y-62334411D01*
X136692687Y-62416589D01*
X136859510Y-62467195D01*
X136989523Y-62480000D01*
X136989531Y-62480000D01*
X137033000Y-62484281D01*
X137076469Y-62480000D01*
X142254422Y-62480000D01*
X143301348Y-63526926D01*
X143255528Y-63612648D01*
X143204992Y-63779244D01*
X143187928Y-63952498D01*
X143187928Y-64477502D01*
X143204992Y-64650756D01*
X143255528Y-64817352D01*
X143337595Y-64970887D01*
X143448038Y-65105462D01*
X143474891Y-65127500D01*
X143448038Y-65149538D01*
X143443555Y-65155000D01*
X140412976Y-65155000D01*
X140368405Y-65071614D01*
X140257962Y-64937038D01*
X140123386Y-64826595D01*
X139969850Y-64744528D01*
X139803254Y-64693992D01*
X139630000Y-64676928D01*
X139130000Y-64676928D01*
X138956746Y-64693992D01*
X138790150Y-64744528D01*
X138636614Y-64826595D01*
X138502038Y-64937038D01*
X138430000Y-65024817D01*
X138357962Y-64937038D01*
X138223386Y-64826595D01*
X138069850Y-64744528D01*
X137903254Y-64693992D01*
X137730000Y-64676928D01*
X137230000Y-64676928D01*
X137056746Y-64693992D01*
X136890150Y-64744528D01*
X136736614Y-64826595D01*
X136602038Y-64937038D01*
X136491595Y-65071614D01*
X136452998Y-65143823D01*
X136433109Y-65127500D01*
X136459962Y-65105462D01*
X136570405Y-64970887D01*
X136652472Y-64817352D01*
X136703008Y-64650756D01*
X136720072Y-64477502D01*
X136720072Y-63952498D01*
X136703008Y-63779244D01*
X136652472Y-63612648D01*
X136570405Y-63459113D01*
X136459962Y-63324538D01*
X136325387Y-63214095D01*
X136267000Y-63182886D01*
X136267000Y-62080579D01*
X136376470Y-62190049D01*
%TA.AperFunction,Conductor*%
D21*
G36*
X136376470Y-62190049D02*
G01*
X136404183Y-62223817D01*
X136437951Y-62251530D01*
X136437953Y-62251532D01*
X136464693Y-62273477D01*
X136538941Y-62334411D01*
X136692687Y-62416589D01*
X136859510Y-62467195D01*
X136989523Y-62480000D01*
X136989531Y-62480000D01*
X137033000Y-62484281D01*
X137076469Y-62480000D01*
X142254422Y-62480000D01*
X143301348Y-63526926D01*
X143255528Y-63612648D01*
X143204992Y-63779244D01*
X143187928Y-63952498D01*
X143187928Y-64477502D01*
X143204992Y-64650756D01*
X143255528Y-64817352D01*
X143337595Y-64970887D01*
X143448038Y-65105462D01*
X143474891Y-65127500D01*
X143448038Y-65149538D01*
X143443555Y-65155000D01*
X140412976Y-65155000D01*
X140368405Y-65071614D01*
X140257962Y-64937038D01*
X140123386Y-64826595D01*
X139969850Y-64744528D01*
X139803254Y-64693992D01*
X139630000Y-64676928D01*
X139130000Y-64676928D01*
X138956746Y-64693992D01*
X138790150Y-64744528D01*
X138636614Y-64826595D01*
X138502038Y-64937038D01*
X138430000Y-65024817D01*
X138357962Y-64937038D01*
X138223386Y-64826595D01*
X138069850Y-64744528D01*
X137903254Y-64693992D01*
X137730000Y-64676928D01*
X137230000Y-64676928D01*
X137056746Y-64693992D01*
X136890150Y-64744528D01*
X136736614Y-64826595D01*
X136602038Y-64937038D01*
X136491595Y-65071614D01*
X136452998Y-65143823D01*
X136433109Y-65127500D01*
X136459962Y-65105462D01*
X136570405Y-64970887D01*
X136652472Y-64817352D01*
X136703008Y-64650756D01*
X136720072Y-64477502D01*
X136720072Y-63952498D01*
X136703008Y-63779244D01*
X136652472Y-63612648D01*
X136570405Y-63459113D01*
X136459962Y-63324538D01*
X136325387Y-63214095D01*
X136267000Y-63182886D01*
X136267000Y-62080579D01*
X136376470Y-62190049D01*
G37*
%TD.AperFunction*%
%TD*%
M02*
