M48
; DRILL file {KiCad (5.1.9)-1} date 01/21/21 16:18:06
; FORMAT={-:-/ absolute / inch / decimal}
; #@! TF.CreationDate,2021-01-21T16:18:06-05:00
; #@! TF.GenerationSoftware,Kicad,Pcbnew,(5.1.9)-1
; #@! TF.FileFunction,Plated,1,2,PTH
FMAT,2
INCH
T1C0.0157
T2C0.0394
%
G90
G05
T1
X3.48Y-2.42
X3.48Y-2.48
X3.48Y-2.54
X3.48Y-2.6
X3.52Y-2.78
X3.52Y-2.84
X3.54Y-2.42
X3.54Y-2.48
X3.54Y-2.54
X3.54Y-2.6
X3.54Y-2.92
X3.54Y-2.98
X3.54Y-3.04
X3.54Y-3.1
X3.58Y-2.78
X3.58Y-2.84
X3.65Y-2.78
X3.65Y-2.84
X3.71Y-2.78
X3.71Y-2.84
X3.77Y-2.78
X3.77Y-2.84
X3.83Y-2.78
X3.83Y-2.84
X3.89Y-2.78
X3.89Y-2.84
X4.17Y-2.76
X4.17Y-2.82
X4.23Y-2.76
X4.23Y-2.82
X4.29Y-2.76
X4.29Y-2.82
X4.35Y-2.76
X4.35Y-2.82
X4.41Y-2.76
X4.41Y-2.82
X4.45Y-2.3
X4.45Y-2.36
X4.47Y-2.76
X4.47Y-2.82
X4.47Y-2.92
X4.47Y-2.98
X4.47Y-3.04
X4.47Y-3.1
X4.51Y-2.3
X4.51Y-2.36
X4.53Y-2.76
X4.53Y-2.82
X4.53Y-2.92
X4.53Y-2.98
X4.53Y-3.04
X4.53Y-3.1
X4.57Y-2.3
X4.57Y-2.36
X4.59Y-2.76
X4.59Y-2.82
X4.59Y-2.92
X4.59Y-2.98
X4.59Y-3.04
X4.59Y-3.1
X4.63Y-2.3
X4.63Y-2.36
X4.69Y-2.3
X4.69Y-2.36
X4.75Y-2.3
X4.75Y-2.36
X4.77Y-3.04
X4.77Y-3.1
X4.81Y-2.3
X4.81Y-2.36
X4.83Y-3.04
X4.83Y-3.1
X4.89Y-3.04
X4.89Y-3.1
X4.95Y-3.04
X4.95Y-3.1
X4.9515Y-2.7494
X4.9515Y-2.7994
X4.9515Y-2.8594
X4.9515Y-2.9194
X4.9515Y-2.9794
X5.0085Y-2.7506
X5.0085Y-2.8
X5.0085Y-2.86
X5.0085Y-2.92
X5.0085Y-2.9806
X5.01Y-3.04
X5.01Y-3.1
X5.09Y-2.86
X5.09Y-2.92
X5.09Y-2.98
X5.09Y-3.04
X5.09Y-3.1
X5.0906Y-2.7615
X5.0906Y-2.8115
X5.15Y-2.86
X5.15Y-2.92
X5.15Y-2.98
X5.15Y-3.04
X5.15Y-3.1
X5.1506Y-2.7615
X5.1506Y-2.8115
X5.21Y-2.86
X5.21Y-2.92
X5.2106Y-2.7615
X5.2106Y-2.8115
X5.27Y-2.86
X5.27Y-2.92
X5.2706Y-2.7615
X5.2706Y-2.8115
X5.3106Y-2.6015
X5.3106Y-2.6515
X5.3106Y-2.7115
X5.33Y-2.7615
X5.33Y-2.8115
X5.33Y-2.86
X5.33Y-2.92
X5.37Y-2.6015
X5.37Y-2.6515
X5.37Y-2.7115
T2
X3.5475Y-2.325
X3.63Y-2.325
X3.74Y-3.1
X3.915Y-3.1
X4.065Y-3.1
X4.215Y-3.1
X4.365Y-3.1
X4.83Y-2.95
X4.9245Y-2.3331
T0
M30
