M48
; DRILL file {KiCad (5.1.9)-1} date 02/11/21 15:09:39
; FORMAT={-:-/ absolute / inch / decimal}
; #@! TF.CreationDate,2021-02-11T15:09:39-05:00
; #@! TF.GenerationSoftware,Kicad,Pcbnew,(5.1.9)-1
; #@! TF.FileFunction,Plated,1,2,PTH
FMAT,2
INCH
T1C0.0157
T2C0.0394
%
G90
G05
T1
X4.4364Y-1.6255
X4.4364Y-1.8442
X4.4364Y-2.0017
X4.4364Y-2.3166
X4.4364Y-2.8678
X4.4364Y-2.9466
X4.4364Y-3.0253
X4.4364Y-3.1041
X4.4758Y-1.7436
X4.4758Y-2.4348
X4.5151Y-1.8442
X4.5151Y-1.9229
X4.5545Y-1.6648
X4.5545Y-2.0411
X4.5545Y-2.356
X4.5545Y-2.9072
X4.5939Y-1.8442
X4.5939Y-2.4741
X4.5939Y-2.5529
X4.5939Y-2.7497
X4.5939Y-2.8285
X4.6333Y-1.7436
X4.6333Y-1.9623
X4.6333Y-2.0411
X4.6333Y-2.1198
X4.6333Y-2.1985
X4.6333Y-2.2773
X4.6726Y-1.6255
X4.6726Y-2.3954
X4.6726Y-2.4741
X4.6726Y-2.5529
X4.6726Y-2.7497
X4.6726Y-2.8285
X4.6726Y-2.9072
X4.6726Y-2.9859
X4.712Y-1.8836
X4.712Y-1.9623
X4.712Y-2.0411
X4.712Y-2.1198
X4.712Y-2.1985
X4.712Y-3.1041
X4.7514Y-1.7042
X4.7514Y-2.3166
X4.7514Y-2.3954
X4.7514Y-2.4741
X4.7514Y-2.7104
X4.7514Y-2.8285
X4.7514Y-2.9072
X4.7907Y-1.9623
X4.7907Y-2.0411
X4.7907Y-2.1198
X4.7907Y-3.0253
X4.7907Y-3.1041
X4.8301Y-1.6255
X4.8301Y-1.8442
X4.8301Y-2.2379
X4.8301Y-2.3166
X4.8301Y-2.7104
X4.8301Y-2.7891
X4.8301Y-2.9072
X4.8695Y-1.7436
X4.8695Y-2.0411
X4.8695Y-2.5135
X4.8695Y-2.5922
X4.8695Y-3.1041
X4.9088Y-1.8442
X4.9088Y-1.9229
X4.9088Y-2.1592
X4.9088Y-2.2379
X4.9088Y-2.7104
X4.9088Y-2.7891
X4.9482Y-1.6648
X4.9482Y-2.0804
X4.9482Y-3.0253
X4.9482Y-3.1041
X4.9876Y-1.8442
X4.9876Y-1.9229
X4.9876Y-2.0017
X4.9876Y-2.7104
X4.9876Y-2.7891
X5.027Y-1.7436
X5.027Y-2.1198
X5.027Y-2.1985
X5.027Y-3.0034
X5.027Y-3.1041
X5.0663Y-1.6255
X5.0663Y-1.8442
X5.0663Y-1.9229
X5.0663Y-2.4348
X5.0663Y-2.5135
X5.0663Y-2.5922
X5.0663Y-2.7891
X5.1057Y-2.0411
X5.1057Y-2.1198
X5.1057Y-2.1985
X5.1057Y-2.7104
X5.1057Y-3.1041
X5.14Y-3.03
X5.1451Y-1.7042
X5.1451Y-1.8442
X5.1451Y-2.3954
X5.1451Y-2.5135
X5.1451Y-2.8066
X5.1844Y-1.9623
X5.1844Y-2.0411
X5.1844Y-2.1198
X5.1844Y-2.1985
X5.1844Y-3.1041
X5.2238Y-1.6255
X5.2238Y-1.7829
X5.2632Y-1.8836
X5.2632Y-1.9623
X5.2632Y-2.0411
X5.2632Y-2.1198
X5.2632Y-2.1985
X5.2632Y-3.1041
X5.3Y-3.03
X5.3025Y-1.7042
X5.3025Y-2.671
X5.3025Y-2.7497
X5.3025Y-2.9247
X5.3419Y-3.1041
X5.3813Y-2.671
X5.3813Y-2.7497
X5.4207Y-2.5135
X5.4207Y-3.0253
X5.4207Y-3.1041
X5.46Y-2.671
X5.46Y-2.7497
X5.46Y-2.9247
X5.4994Y-3.1041
X5.5388Y-2.4741
X5.5388Y-2.671
X5.5388Y-2.7497
X5.5781Y-3.0253
X5.5781Y-3.1041
X5.59Y-2.54
X5.6175Y-2.7497
X5.6175Y-2.8285
X5.6569Y-2.671
X5.6569Y-2.9466
X5.6569Y-3.0253
X5.6569Y-3.1041
X5.6962Y-2.2773
X5.6962Y-2.3954
X5.6962Y-2.8285
X5.7356Y-2.1592
X5.7356Y-2.671
X5.7356Y-2.7497
X5.7356Y-2.9466
X5.7356Y-3.0253
X5.7356Y-3.1041
X5.775Y-2.4741
X5.775Y-2.8678
X5.8144Y-1.6648
X5.8144Y-1.8442
X5.8144Y-1.9229
X5.8144Y-2.0017
X5.8144Y-2.0804
X5.8144Y-2.1592
X5.8144Y-2.2379
X5.8144Y-2.671
X5.8144Y-3.0253
X5.8144Y-3.1041
X5.8537Y-2.7891
X5.8537Y-2.8678
X5.8537Y-2.9466
X5.8931Y-1.7436
X5.8931Y-1.8442
X5.8931Y-1.9229
X5.8931Y-2.0017
X5.8931Y-2.0804
X5.8931Y-2.1592
X5.8931Y-2.2379
X5.8931Y-2.3166
X5.8931Y-2.5135
X5.8931Y-2.671
X5.8931Y-3.1041
X5.9325Y-1.6255
X5.9325Y-2.9466
X5.9325Y-3.0253
X5.9718Y-1.8442
X5.9718Y-1.9229
X5.9718Y-2.0017
X5.9718Y-2.0804
X5.9718Y-2.1592
X5.9718Y-2.2379
X5.9718Y-2.4916
X6.0112Y-1.7042
X6.0112Y-2.9466
X6.0112Y-3.0253
X6.0112Y-3.1041
X6.0506Y-1.8442
X6.0506Y-1.9229
X6.0506Y-2.0017
X6.0506Y-2.0804
X6.0506Y-2.1592
X6.0506Y-2.2379
X6.0899Y-1.6255
X6.0899Y-2.356
X6.0899Y-2.671
X6.0899Y-2.7497
X6.0899Y-2.8285
X6.0899Y-2.9072
X6.0899Y-3.0253
X6.0899Y-3.1041
X6.1293Y-1.7436
X6.1293Y-1.8442
X6.1293Y-1.9229
X6.1293Y-2.0017
X6.1293Y-2.0804
X6.1293Y-2.1592
X6.1293Y-2.2379
X6.1687Y-2.356
X6.1687Y-2.4348
X6.1687Y-2.671
X6.1687Y-2.7497
X6.1687Y-2.8285
X6.1687Y-2.9072
X6.1687Y-2.9859
X6.1687Y-3.1041
X6.2081Y-1.6648
X6.2081Y-1.8442
X6.2081Y-1.9229
X6.2081Y-2.0017
X6.2081Y-2.0804
X6.2081Y-2.1592
X6.2474Y-2.2773
X6.2474Y-2.356
X6.2474Y-2.7497
X6.2474Y-2.8285
X6.2474Y-2.9072
X6.2474Y-2.9859
X6.2474Y-3.0647
X6.2868Y-1.7436
X6.2868Y-1.8442
X6.2868Y-1.9229
X6.2868Y-2.0017
X6.2868Y-2.0804
X6.3262Y-1.6255
X6.3262Y-2.1985
X6.3262Y-2.2773
X6.3262Y-2.356
X6.3262Y-2.7497
X6.3262Y-2.8285
X6.3262Y-2.9072
X6.3262Y-2.9859
X6.3262Y-3.0647
X6.3655Y-1.8442
X6.3655Y-1.9229
X6.3655Y-2.0017
X6.4049Y-1.7042
X6.4049Y-2.1198
X6.4049Y-2.1985
X6.4049Y-2.2773
X6.4049Y-2.356
X6.4049Y-2.7497
X6.4049Y-2.8285
X6.4049Y-2.9072
X6.4443Y-1.8442
X6.4443Y-1.9229
X6.4836Y-1.6255
X6.4836Y-2.0411
X6.4836Y-2.1198
X6.4836Y-2.1985
X6.4836Y-2.2773
X6.4836Y-2.356
X6.4836Y-2.6316
X6.4836Y-2.8285
X6.4836Y-2.9072
X6.523Y-1.7436
X6.523Y-1.8442
X6.523Y-2.7497
X6.5624Y-1.9623
X6.5624Y-2.0411
X6.5624Y-2.1198
X6.5624Y-2.1985
X6.5624Y-2.9072
X6.5624Y-3.1041
X6.6018Y-1.6648
X6.6018Y-2.671
X6.6018Y-2.7497
X6.6018Y-2.8285
X6.6018Y-2.9859
X6.6411Y-1.8836
X6.6411Y-2.0411
X6.6411Y-2.1985
T2
G00X5.415Y-1.8425
M15
G01X5.415Y-1.9213
M16
G05
G00X5.6394Y-1.7638
M15
G01X5.5606Y-1.7638
M16
G05
G00X5.6394Y-2.0
M15
G01X5.5606Y-2.0
M16
G05
T0
M30
