M48
; DRILL file {KiCad (5.1.9)-1} date 02/06/21 16:32:05
; FORMAT={-:-/ absolute / inch / decimal}
; #@! TF.CreationDate,2021-02-06T16:32:05-05:00
; #@! TF.GenerationSoftware,Kicad,Pcbnew,(5.1.9)-1
; #@! TF.FileFunction,Plated,1,2,PTH
FMAT,2
INCH
T1C0.0157
T2C0.0394
%
G90
G05
T1
X3.2764Y-1.8942
X3.2764Y-2.0517
X3.2764Y-2.3666
X3.2764Y-2.9178
X3.2764Y-2.9966
X3.2764Y-3.0753
X3.2764Y-3.1541
X3.3158Y-2.4848
X3.3551Y-1.8942
X3.3551Y-1.9729
X3.3945Y-2.0911
X3.3945Y-2.406
X3.3945Y-2.9572
X3.4339Y-1.8942
X3.4339Y-2.5241
X3.4339Y-2.6029
X3.4339Y-2.7997
X3.4339Y-2.8785
X3.4732Y-2.0123
X3.4732Y-2.0911
X3.4732Y-2.1698
X3.4732Y-2.2485
X3.4732Y-2.3273
X3.5126Y-2.4454
X3.5126Y-2.5241
X3.5126Y-2.6029
X3.5126Y-2.7997
X3.5126Y-2.8785
X3.5126Y-2.9572
X3.5126Y-3.0359
X3.552Y-1.9336
X3.552Y-2.0123
X3.552Y-2.0911
X3.552Y-2.1698
X3.552Y-2.2485
X3.552Y-3.1541
X3.5914Y-2.3666
X3.5914Y-2.4454
X3.5914Y-2.5241
X3.5914Y-2.7604
X3.5914Y-2.8785
X3.5914Y-2.9572
X3.6307Y-2.0123
X3.6307Y-2.0911
X3.6307Y-2.1698
X3.6307Y-3.0753
X3.6307Y-3.1541
X3.6701Y-1.8942
X3.6701Y-2.2879
X3.6701Y-2.3666
X3.6701Y-2.7604
X3.6701Y-2.8391
X3.6701Y-2.9572
X3.7095Y-2.0911
X3.7095Y-2.5635
X3.7095Y-2.6422
X3.7095Y-3.1541
X3.7488Y-1.8942
X3.7488Y-1.9729
X3.7488Y-2.2092
X3.7488Y-2.2879
X3.7488Y-2.7604
X3.7488Y-2.8391
X3.7882Y-2.1304
X3.7882Y-3.0753
X3.7882Y-3.1541
X3.8276Y-1.8942
X3.8276Y-1.9729
X3.8276Y-2.0517
X3.8276Y-2.7604
X3.8276Y-2.8391
X3.867Y-2.1698
X3.867Y-2.2485
X3.867Y-3.1541
X3.9063Y-1.8942
X3.9063Y-1.9729
X3.9063Y-2.4848
X3.9063Y-2.5635
X3.9063Y-2.6422
X3.9063Y-2.8391
X3.9457Y-2.0911
X3.9457Y-2.1698
X3.9457Y-2.2485
X3.9457Y-2.7604
X3.9457Y-3.1541
X3.98Y-3.08
X3.9851Y-1.8942
X3.9851Y-2.4454
X3.9851Y-2.5635
X4.0244Y-2.0123
X4.0244Y-2.0911
X4.0244Y-2.1698
X4.0244Y-2.2485
X4.0244Y-3.1541
X4.1032Y-1.9336
X4.1032Y-2.0123
X4.1032Y-2.0911
X4.1032Y-2.1698
X4.1032Y-2.2485
X4.1032Y-3.1541
X4.14Y-3.08
X4.1425Y-2.721
X4.1425Y-2.7997
X4.1819Y-2.3273
X4.1819Y-3.1541
X4.2213Y-1.8942
X4.2213Y-2.2092
X4.2213Y-2.721
X4.2213Y-2.7997
X4.2607Y-2.406
X4.2607Y-2.5635
X4.2607Y-3.0753
X4.2607Y-3.1541
X4.3Y-1.8942
X4.3Y-2.2092
X4.3Y-2.2879
X4.3Y-2.721
X4.3Y-2.7997
X4.3394Y-3.1541
X4.3788Y-2.5241
X4.3788Y-2.721
X4.3788Y-2.7997
X4.4181Y-3.0753
X4.4181Y-3.1541
X4.43Y-2.59
X4.4575Y-2.7997
X4.4575Y-2.8785
X4.4969Y-2.721
X4.4969Y-2.9966
X4.4969Y-3.0753
X4.4969Y-3.1541
X4.5362Y-2.3273
X4.5362Y-2.4454
X4.5362Y-2.8785
X4.5756Y-1.8942
X4.5756Y-1.9729
X4.5756Y-2.0517
X4.5756Y-2.1304
X4.5756Y-2.2092
X4.5756Y-2.721
X4.5756Y-2.7997
X4.5756Y-2.9966
X4.5756Y-3.0753
X4.5756Y-3.1541
X4.615Y-2.5241
X4.615Y-2.9178
X4.6544Y-1.8942
X4.6544Y-1.9729
X4.6544Y-2.0517
X4.6544Y-2.1304
X4.6544Y-2.2092
X4.6544Y-2.2879
X4.6544Y-2.721
X4.6544Y-3.0753
X4.6544Y-3.1541
X4.6937Y-2.8391
X4.6937Y-2.9178
X4.6937Y-2.9966
X4.7331Y-1.8942
X4.7331Y-1.9729
X4.7331Y-2.0517
X4.7331Y-2.1304
X4.7331Y-2.2092
X4.7331Y-2.2879
X4.7331Y-2.3666
X4.7331Y-2.5635
X4.7331Y-2.721
X4.7331Y-3.1541
X4.7725Y-2.9966
X4.7725Y-3.0753
X4.8118Y-1.8942
X4.8118Y-1.9729
X4.8118Y-2.0517
X4.8118Y-2.1304
X4.8118Y-2.2092
X4.8118Y-2.2879
X4.8512Y-2.9966
X4.8512Y-3.0753
X4.8512Y-3.1541
X4.8906Y-1.8942
X4.8906Y-1.9729
X4.8906Y-2.0517
X4.8906Y-2.1304
X4.8906Y-2.2092
X4.8906Y-2.2879
X4.9299Y-2.406
X4.9299Y-2.721
X4.9299Y-2.7997
X4.9299Y-2.8785
X4.9299Y-2.9572
X4.9299Y-3.0753
X4.9299Y-3.1541
X4.9693Y-1.8942
X4.9693Y-1.9729
X4.9693Y-2.0517
X4.9693Y-2.1304
X4.9693Y-2.2092
X4.9693Y-2.2879
X5.0087Y-2.406
X5.0087Y-2.4848
X5.0087Y-2.721
X5.0087Y-2.7997
X5.0087Y-2.8785
X5.0087Y-2.9572
X5.0087Y-3.0359
X5.0087Y-3.1541
X5.0481Y-1.8942
X5.0481Y-1.9729
X5.0481Y-2.0517
X5.0481Y-2.1304
X5.0481Y-2.2092
X5.0874Y-2.3273
X5.0874Y-2.406
X5.0874Y-2.7997
X5.0874Y-2.8785
X5.0874Y-2.9572
X5.0874Y-3.0359
X5.0874Y-3.1147
X5.1268Y-1.8942
X5.1268Y-1.9729
X5.1268Y-2.0517
X5.1268Y-2.1304
X5.1662Y-2.2485
X5.1662Y-2.3273
X5.1662Y-2.406
X5.1662Y-2.7997
X5.1662Y-2.8785
X5.1662Y-2.9572
X5.1662Y-3.0359
X5.1662Y-3.1147
X5.2055Y-1.8942
X5.2055Y-1.9729
X5.2055Y-2.0517
X5.2449Y-2.1698
X5.2449Y-2.2485
X5.2449Y-2.3273
X5.2449Y-2.406
X5.2449Y-2.7997
X5.2449Y-2.8785
X5.2449Y-2.9572
X5.2843Y-1.8942
X5.2843Y-1.9729
X5.3236Y-2.0911
X5.3236Y-2.1698
X5.3236Y-2.2485
X5.3236Y-2.3273
X5.3236Y-2.406
X5.3236Y-2.6816
X5.3236Y-2.8785
X5.3236Y-2.9572
X5.363Y-1.8942
X5.363Y-2.7997
X5.4024Y-2.0123
X5.4024Y-2.0911
X5.4024Y-2.1698
X5.4024Y-2.2485
X5.4024Y-2.9572
X5.4024Y-3.1541
X5.4418Y-2.721
X5.4418Y-2.7997
X5.4418Y-2.8785
X5.4418Y-3.0359
X5.4811Y-1.9336
X5.4811Y-2.0911
X5.4811Y-2.2485
T2
G00X4.255Y-2.0025
M15
G01X4.255Y-2.0813
M16
G05
G00X4.4794Y-1.9238
M15
G01X4.4006Y-1.9238
M16
G05
G00X4.4794Y-2.16
M15
G01X4.4006Y-2.16
M16
G05
T0
M30
