%TF.GenerationSoftware,KiCad,Pcbnew,(5.1.9)-1*%
%TF.CreationDate,2021-01-26T13:47:22-05:00*%
%TF.ProjectId,LNA_1,4c4e415f-312e-46b6-9963-61645f706362,rev?*%
%TF.SameCoordinates,Original*%
%TF.FileFunction,Copper,L1,Top*%
%TF.FilePolarity,Positive*%
%FSLAX46Y46*%
G04 Gerber Fmt 4.6, Leading zero omitted, Abs format (unit mm)*
G04 Created by KiCad (PCBNEW (5.1.9)-1) date 2021-01-26 13:47:22*
%MOMM*%
%LPD*%
G01*
G04 APERTURE LIST*
%TA.AperFunction,SMDPad,CuDef*%
%ADD10R,4.200000X1.350000*%
%TD*%
%TA.AperFunction,SMDPad,CuDef*%
%ADD11R,3.600000X1.270000*%
%TD*%
%TA.AperFunction,ComponentPad*%
%ADD12R,3.500000X3.500000*%
%TD*%
%TA.AperFunction,SMDPad,CuDef*%
%ADD13R,0.900000X0.800000*%
%TD*%
%TA.AperFunction,SMDPad,CuDef*%
%ADD14R,0.600000X0.800000*%
%TD*%
%TA.AperFunction,ViaPad*%
%ADD15C,0.800000*%
%TD*%
%TA.AperFunction,Conductor*%
%ADD16C,1.500000*%
%TD*%
%TA.AperFunction,Conductor*%
%ADD17C,0.500000*%
%TD*%
%TA.AperFunction,Conductor*%
%ADD18C,0.250000*%
%TD*%
%TA.AperFunction,Conductor*%
%ADD19C,0.254000*%
%TD*%
%TA.AperFunction,Conductor*%
%ADD20C,0.100000*%
%TD*%
G04 APERTURE END LIST*
D10*
%TO.P,J2,3_1*%
%TO.N,GND*%
X138738000Y-58135000D03*
%TO.P,J2,2_1*%
X138738000Y-63785000D03*
D11*
%TO.P,J2,1*%
%TO.N,Net-(CC5-Pad2)*%
X138938000Y-60960000D03*
%TD*%
D10*
%TO.P,J1,3_1*%
%TO.N,GND*%
X83512000Y-71405000D03*
%TO.P,J1,2_1*%
X83512000Y-65755000D03*
D11*
%TO.P,J1,1*%
%TO.N,Net-(CC1-Pad1)*%
X83312000Y-68580000D03*
%TD*%
%TO.P,J3,3*%
%TO.N,N/C*%
%TA.AperFunction,ComponentPad*%
G36*
G01*
X107709000Y-53924000D02*
X109459000Y-53924000D01*
G75*
G02*
X110334000Y-54799000I0J-875000D01*
G01*
X110334000Y-56549000D01*
G75*
G02*
X109459000Y-57424000I-875000J0D01*
G01*
X107709000Y-57424000D01*
G75*
G02*
X106834000Y-56549000I0J875000D01*
G01*
X106834000Y-54799000D01*
G75*
G02*
X107709000Y-53924000I875000J0D01*
G01*
G37*
%TD.AperFunction*%
%TO.P,J3,2*%
%TO.N,GND*%
%TA.AperFunction,ComponentPad*%
G36*
G01*
X112284000Y-51174000D02*
X114284000Y-51174000D01*
G75*
G02*
X115034000Y-51924000I0J-750000D01*
G01*
X115034000Y-53424000D01*
G75*
G02*
X114284000Y-54174000I-750000J0D01*
G01*
X112284000Y-54174000D01*
G75*
G02*
X111534000Y-53424000I0J750000D01*
G01*
X111534000Y-51924000D01*
G75*
G02*
X112284000Y-51174000I750000J0D01*
G01*
G37*
%TD.AperFunction*%
D12*
%TO.P,J3,1*%
%TO.N,VCC*%
X113284000Y-58674000D03*
%TD*%
%TO.P,CC1,1*%
%TO.N,Net-(CC1-Pad1)*%
%TA.AperFunction,SMDPad,CuDef*%
G36*
G01*
X87450000Y-69055000D02*
X87450000Y-68105000D01*
G75*
G02*
X87700000Y-67855000I250000J0D01*
G01*
X88200000Y-67855000D01*
G75*
G02*
X88450000Y-68105000I0J-250000D01*
G01*
X88450000Y-69055000D01*
G75*
G02*
X88200000Y-69305000I-250000J0D01*
G01*
X87700000Y-69305000D01*
G75*
G02*
X87450000Y-69055000I0J250000D01*
G01*
G37*
%TD.AperFunction*%
%TO.P,CC1,2*%
%TO.N,Net-(CC1-Pad2)*%
%TA.AperFunction,SMDPad,CuDef*%
G36*
G01*
X89350000Y-69055000D02*
X89350000Y-68105000D01*
G75*
G02*
X89600000Y-67855000I250000J0D01*
G01*
X90100000Y-67855000D01*
G75*
G02*
X90350000Y-68105000I0J-250000D01*
G01*
X90350000Y-69055000D01*
G75*
G02*
X90100000Y-69305000I-250000J0D01*
G01*
X89600000Y-69305000D01*
G75*
G02*
X89350000Y-69055000I0J250000D01*
G01*
G37*
%TD.AperFunction*%
%TD*%
%TO.P,CC2,2*%
%TO.N,Net-(CC1-Pad2)*%
%TA.AperFunction,SMDPad,CuDef*%
G36*
G01*
X97061000Y-68080000D02*
X98011000Y-68080000D01*
G75*
G02*
X98261000Y-68330000I0J-250000D01*
G01*
X98261000Y-68830000D01*
G75*
G02*
X98011000Y-69080000I-250000J0D01*
G01*
X97061000Y-69080000D01*
G75*
G02*
X96811000Y-68830000I0J250000D01*
G01*
X96811000Y-68330000D01*
G75*
G02*
X97061000Y-68080000I250000J0D01*
G01*
G37*
%TD.AperFunction*%
%TO.P,CC2,1*%
%TO.N,Net-(CC2-Pad1)*%
%TA.AperFunction,SMDPad,CuDef*%
G36*
G01*
X97061000Y-66180000D02*
X98011000Y-66180000D01*
G75*
G02*
X98261000Y-66430000I0J-250000D01*
G01*
X98261000Y-66930000D01*
G75*
G02*
X98011000Y-67180000I-250000J0D01*
G01*
X97061000Y-67180000D01*
G75*
G02*
X96811000Y-66930000I0J250000D01*
G01*
X96811000Y-66430000D01*
G75*
G02*
X97061000Y-66180000I250000J0D01*
G01*
G37*
%TD.AperFunction*%
%TD*%
%TO.P,CC3,1*%
%TO.N,Net-(CC3-Pad1)*%
%TA.AperFunction,SMDPad,CuDef*%
G36*
G01*
X107516000Y-67785000D02*
X107516000Y-66835000D01*
G75*
G02*
X107766000Y-66585000I250000J0D01*
G01*
X108266000Y-66585000D01*
G75*
G02*
X108516000Y-66835000I0J-250000D01*
G01*
X108516000Y-67785000D01*
G75*
G02*
X108266000Y-68035000I-250000J0D01*
G01*
X107766000Y-68035000D01*
G75*
G02*
X107516000Y-67785000I0J250000D01*
G01*
G37*
%TD.AperFunction*%
%TO.P,CC3,2*%
%TO.N,Net-(CC3-Pad2)*%
%TA.AperFunction,SMDPad,CuDef*%
G36*
G01*
X109416000Y-67785000D02*
X109416000Y-66835000D01*
G75*
G02*
X109666000Y-66585000I250000J0D01*
G01*
X110166000Y-66585000D01*
G75*
G02*
X110416000Y-66835000I0J-250000D01*
G01*
X110416000Y-67785000D01*
G75*
G02*
X110166000Y-68035000I-250000J0D01*
G01*
X109666000Y-68035000D01*
G75*
G02*
X109416000Y-67785000I0J250000D01*
G01*
G37*
%TD.AperFunction*%
%TD*%
%TO.P,CC4,2*%
%TO.N,GND*%
%TA.AperFunction,SMDPad,CuDef*%
G36*
G01*
X124173000Y-61399000D02*
X123223000Y-61399000D01*
G75*
G02*
X122973000Y-61149000I0J250000D01*
G01*
X122973000Y-60649000D01*
G75*
G02*
X123223000Y-60399000I250000J0D01*
G01*
X124173000Y-60399000D01*
G75*
G02*
X124423000Y-60649000I0J-250000D01*
G01*
X124423000Y-61149000D01*
G75*
G02*
X124173000Y-61399000I-250000J0D01*
G01*
G37*
%TD.AperFunction*%
%TO.P,CC4,1*%
%TO.N,VCC*%
%TA.AperFunction,SMDPad,CuDef*%
G36*
G01*
X124173000Y-63299000D02*
X123223000Y-63299000D01*
G75*
G02*
X122973000Y-63049000I0J250000D01*
G01*
X122973000Y-62549000D01*
G75*
G02*
X123223000Y-62299000I250000J0D01*
G01*
X124173000Y-62299000D01*
G75*
G02*
X124423000Y-62549000I0J-250000D01*
G01*
X124423000Y-63049000D01*
G75*
G02*
X124173000Y-63299000I-250000J0D01*
G01*
G37*
%TD.AperFunction*%
%TD*%
%TO.P,CC5,1*%
%TO.N,Net-(CC5-Pad1)*%
%TA.AperFunction,SMDPad,CuDef*%
G36*
G01*
X129807000Y-61435000D02*
X129807000Y-60485000D01*
G75*
G02*
X130057000Y-60235000I250000J0D01*
G01*
X130557000Y-60235000D01*
G75*
G02*
X130807000Y-60485000I0J-250000D01*
G01*
X130807000Y-61435000D01*
G75*
G02*
X130557000Y-61685000I-250000J0D01*
G01*
X130057000Y-61685000D01*
G75*
G02*
X129807000Y-61435000I0J250000D01*
G01*
G37*
%TD.AperFunction*%
%TO.P,CC5,2*%
%TO.N,Net-(CC5-Pad2)*%
%TA.AperFunction,SMDPad,CuDef*%
G36*
G01*
X131707000Y-61435000D02*
X131707000Y-60485000D01*
G75*
G02*
X131957000Y-60235000I250000J0D01*
G01*
X132457000Y-60235000D01*
G75*
G02*
X132707000Y-60485000I0J-250000D01*
G01*
X132707000Y-61435000D01*
G75*
G02*
X132457000Y-61685000I-250000J0D01*
G01*
X131957000Y-61685000D01*
G75*
G02*
X131707000Y-61435000I0J250000D01*
G01*
G37*
%TD.AperFunction*%
%TD*%
%TO.P,Csh2,2*%
%TO.N,Net-(Csh2-Pad2)*%
%TA.AperFunction,SMDPad,CuDef*%
G36*
G01*
X123157000Y-71620000D02*
X122207000Y-71620000D01*
G75*
G02*
X121957000Y-71370000I0J250000D01*
G01*
X121957000Y-70870000D01*
G75*
G02*
X122207000Y-70620000I250000J0D01*
G01*
X123157000Y-70620000D01*
G75*
G02*
X123407000Y-70870000I0J-250000D01*
G01*
X123407000Y-71370000D01*
G75*
G02*
X123157000Y-71620000I-250000J0D01*
G01*
G37*
%TD.AperFunction*%
%TO.P,Csh2,1*%
%TO.N,GND*%
%TA.AperFunction,SMDPad,CuDef*%
G36*
G01*
X123157000Y-73520000D02*
X122207000Y-73520000D01*
G75*
G02*
X121957000Y-73270000I0J250000D01*
G01*
X121957000Y-72770000D01*
G75*
G02*
X122207000Y-72520000I250000J0D01*
G01*
X123157000Y-72520000D01*
G75*
G02*
X123407000Y-72770000I0J-250000D01*
G01*
X123407000Y-73270000D01*
G75*
G02*
X123157000Y-73520000I-250000J0D01*
G01*
G37*
%TD.AperFunction*%
%TD*%
%TO.P,LFB1,1*%
%TO.N,Net-(LFB1-Pad1)*%
%TA.AperFunction,SMDPad,CuDef*%
G36*
G01*
X102418500Y-59943750D02*
X102418500Y-60706250D01*
G75*
G02*
X102199750Y-60925000I-218750J0D01*
G01*
X101762250Y-60925000D01*
G75*
G02*
X101543500Y-60706250I0J218750D01*
G01*
X101543500Y-59943750D01*
G75*
G02*
X101762250Y-59725000I218750J0D01*
G01*
X102199750Y-59725000D01*
G75*
G02*
X102418500Y-59943750I0J-218750D01*
G01*
G37*
%TD.AperFunction*%
%TO.P,LFB1,2*%
%TO.N,Net-(LFB1-Pad2)*%
%TA.AperFunction,SMDPad,CuDef*%
G36*
G01*
X100293500Y-59943750D02*
X100293500Y-60706250D01*
G75*
G02*
X100074750Y-60925000I-218750J0D01*
G01*
X99637250Y-60925000D01*
G75*
G02*
X99418500Y-60706250I0J218750D01*
G01*
X99418500Y-59943750D01*
G75*
G02*
X99637250Y-59725000I218750J0D01*
G01*
X100074750Y-59725000D01*
G75*
G02*
X100293500Y-59943750I0J-218750D01*
G01*
G37*
%TD.AperFunction*%
%TD*%
D13*
%TO.P,Q2,1*%
%TO.N,Net-(Q2-Pad1)*%
X126730000Y-67225000D03*
%TO.P,Q2,2*%
%TO.N,VCC*%
X126730000Y-65325000D03*
%TO.P,Q2,3*%
%TO.N,Net-(Q2-Pad3)*%
X124730000Y-66275000D03*
%TD*%
%TO.P,RB2,2*%
%TO.N,VCC*%
%TA.AperFunction,SMDPad,CuDef*%
G36*
G01*
X115512002Y-65997500D02*
X114611998Y-65997500D01*
G75*
G02*
X114362000Y-65747502I0J249998D01*
G01*
X114362000Y-65222498D01*
G75*
G02*
X114611998Y-64972500I249998J0D01*
G01*
X115512002Y-64972500D01*
G75*
G02*
X115762000Y-65222498I0J-249998D01*
G01*
X115762000Y-65747502D01*
G75*
G02*
X115512002Y-65997500I-249998J0D01*
G01*
G37*
%TD.AperFunction*%
%TO.P,RB2,1*%
%TO.N,Net-(CC3-Pad2)*%
%TA.AperFunction,SMDPad,CuDef*%
G36*
G01*
X115512002Y-67822500D02*
X114611998Y-67822500D01*
G75*
G02*
X114362000Y-67572502I0J249998D01*
G01*
X114362000Y-67047498D01*
G75*
G02*
X114611998Y-66797500I249998J0D01*
G01*
X115512002Y-66797500D01*
G75*
G02*
X115762000Y-67047498I0J-249998D01*
G01*
X115762000Y-67572502D01*
G75*
G02*
X115512002Y-67822500I-249998J0D01*
G01*
G37*
%TD.AperFunction*%
%TD*%
%TO.P,RB1A1,2*%
%TO.N,VCC*%
%TA.AperFunction,SMDPad,CuDef*%
G36*
G01*
X92906002Y-67267500D02*
X92005998Y-67267500D01*
G75*
G02*
X91756000Y-67017502I0J249998D01*
G01*
X91756000Y-66492498D01*
G75*
G02*
X92005998Y-66242500I249998J0D01*
G01*
X92906002Y-66242500D01*
G75*
G02*
X93156000Y-66492498I0J-249998D01*
G01*
X93156000Y-67017502D01*
G75*
G02*
X92906002Y-67267500I-249998J0D01*
G01*
G37*
%TD.AperFunction*%
%TO.P,RB1A1,1*%
%TO.N,Net-(CC1-Pad2)*%
%TA.AperFunction,SMDPad,CuDef*%
G36*
G01*
X92906002Y-69092500D02*
X92005998Y-69092500D01*
G75*
G02*
X91756000Y-68842502I0J249998D01*
G01*
X91756000Y-68317498D01*
G75*
G02*
X92005998Y-68067500I249998J0D01*
G01*
X92906002Y-68067500D01*
G75*
G02*
X93156000Y-68317498I0J-249998D01*
G01*
X93156000Y-68842502D01*
G75*
G02*
X92906002Y-69092500I-249998J0D01*
G01*
G37*
%TD.AperFunction*%
%TD*%
%TO.P,RC1,1*%
%TO.N,Net-(CC3-Pad1)*%
%TA.AperFunction,SMDPad,CuDef*%
G36*
G01*
X106368002Y-67822500D02*
X105467998Y-67822500D01*
G75*
G02*
X105218000Y-67572502I0J249998D01*
G01*
X105218000Y-67047498D01*
G75*
G02*
X105467998Y-66797500I249998J0D01*
G01*
X106368002Y-66797500D01*
G75*
G02*
X106618000Y-67047498I0J-249998D01*
G01*
X106618000Y-67572502D01*
G75*
G02*
X106368002Y-67822500I-249998J0D01*
G01*
G37*
%TD.AperFunction*%
%TO.P,RC1,2*%
%TO.N,VCC*%
%TA.AperFunction,SMDPad,CuDef*%
G36*
G01*
X106368002Y-65997500D02*
X105467998Y-65997500D01*
G75*
G02*
X105218000Y-65747502I0J249998D01*
G01*
X105218000Y-65222498D01*
G75*
G02*
X105467998Y-64972500I249998J0D01*
G01*
X106368002Y-64972500D01*
G75*
G02*
X106618000Y-65222498I0J-249998D01*
G01*
X106618000Y-65747502D01*
G75*
G02*
X106368002Y-65997500I-249998J0D01*
G01*
G37*
%TD.AperFunction*%
%TD*%
%TO.P,RE1,1*%
%TO.N,GND*%
%TA.AperFunction,SMDPad,CuDef*%
G36*
G01*
X95446002Y-76632500D02*
X94545998Y-76632500D01*
G75*
G02*
X94296000Y-76382502I0J249998D01*
G01*
X94296000Y-75857498D01*
G75*
G02*
X94545998Y-75607500I249998J0D01*
G01*
X95446002Y-75607500D01*
G75*
G02*
X95696000Y-75857498I0J-249998D01*
G01*
X95696000Y-76382502D01*
G75*
G02*
X95446002Y-76632500I-249998J0D01*
G01*
G37*
%TD.AperFunction*%
%TO.P,RE1,2*%
%TO.N,Net-(RE1-Pad2)*%
%TA.AperFunction,SMDPad,CuDef*%
G36*
G01*
X95446002Y-74807500D02*
X94545998Y-74807500D01*
G75*
G02*
X94296000Y-74557502I0J249998D01*
G01*
X94296000Y-74032498D01*
G75*
G02*
X94545998Y-73782500I249998J0D01*
G01*
X95446002Y-73782500D01*
G75*
G02*
X95696000Y-74032498I0J-249998D01*
G01*
X95696000Y-74557502D01*
G75*
G02*
X95446002Y-74807500I-249998J0D01*
G01*
G37*
%TD.AperFunction*%
%TD*%
%TO.P,RE12,2*%
%TO.N,Net-(RE1-Pad2)*%
%TA.AperFunction,SMDPad,CuDef*%
G36*
G01*
X99891002Y-74807500D02*
X98990998Y-74807500D01*
G75*
G02*
X98741000Y-74557502I0J249998D01*
G01*
X98741000Y-74032498D01*
G75*
G02*
X98990998Y-73782500I249998J0D01*
G01*
X99891002Y-73782500D01*
G75*
G02*
X100141000Y-74032498I0J-249998D01*
G01*
X100141000Y-74557502D01*
G75*
G02*
X99891002Y-74807500I-249998J0D01*
G01*
G37*
%TD.AperFunction*%
%TO.P,RE12,1*%
%TO.N,GND*%
%TA.AperFunction,SMDPad,CuDef*%
G36*
G01*
X99891002Y-76632500D02*
X98990998Y-76632500D01*
G75*
G02*
X98741000Y-76382502I0J249998D01*
G01*
X98741000Y-75857498D01*
G75*
G02*
X98990998Y-75607500I249998J0D01*
G01*
X99891002Y-75607500D01*
G75*
G02*
X100141000Y-75857498I0J-249998D01*
G01*
X100141000Y-76382502D01*
G75*
G02*
X99891002Y-76632500I-249998J0D01*
G01*
G37*
%TD.AperFunction*%
%TD*%
%TO.P,RE13,1*%
%TO.N,GND*%
%TA.AperFunction,SMDPad,CuDef*%
G36*
G01*
X103701002Y-76632500D02*
X102800998Y-76632500D01*
G75*
G02*
X102551000Y-76382502I0J249998D01*
G01*
X102551000Y-75857498D01*
G75*
G02*
X102800998Y-75607500I249998J0D01*
G01*
X103701002Y-75607500D01*
G75*
G02*
X103951000Y-75857498I0J-249998D01*
G01*
X103951000Y-76382502D01*
G75*
G02*
X103701002Y-76632500I-249998J0D01*
G01*
G37*
%TD.AperFunction*%
%TO.P,RE13,2*%
%TO.N,Net-(RE1-Pad2)*%
%TA.AperFunction,SMDPad,CuDef*%
G36*
G01*
X103701002Y-74807500D02*
X102800998Y-74807500D01*
G75*
G02*
X102551000Y-74557502I0J249998D01*
G01*
X102551000Y-74032498D01*
G75*
G02*
X102800998Y-73782500I249998J0D01*
G01*
X103701002Y-73782500D01*
G75*
G02*
X103951000Y-74032498I0J-249998D01*
G01*
X103951000Y-74557502D01*
G75*
G02*
X103701002Y-74807500I-249998J0D01*
G01*
G37*
%TD.AperFunction*%
%TD*%
%TO.P,RE14,1*%
%TO.N,GND*%
%TA.AperFunction,SMDPad,CuDef*%
G36*
G01*
X107511002Y-76632500D02*
X106610998Y-76632500D01*
G75*
G02*
X106361000Y-76382502I0J249998D01*
G01*
X106361000Y-75857498D01*
G75*
G02*
X106610998Y-75607500I249998J0D01*
G01*
X107511002Y-75607500D01*
G75*
G02*
X107761000Y-75857498I0J-249998D01*
G01*
X107761000Y-76382502D01*
G75*
G02*
X107511002Y-76632500I-249998J0D01*
G01*
G37*
%TD.AperFunction*%
%TO.P,RE14,2*%
%TO.N,Net-(RE1-Pad2)*%
%TA.AperFunction,SMDPad,CuDef*%
G36*
G01*
X107511002Y-74807500D02*
X106610998Y-74807500D01*
G75*
G02*
X106361000Y-74557502I0J249998D01*
G01*
X106361000Y-74032498D01*
G75*
G02*
X106610998Y-73782500I249998J0D01*
G01*
X107511002Y-73782500D01*
G75*
G02*
X107761000Y-74032498I0J-249998D01*
G01*
X107761000Y-74557502D01*
G75*
G02*
X107511002Y-74807500I-249998J0D01*
G01*
G37*
%TD.AperFunction*%
%TD*%
%TO.P,RE15,2*%
%TO.N,Net-(RE1-Pad2)*%
%TA.AperFunction,SMDPad,CuDef*%
G36*
G01*
X111321002Y-74807500D02*
X110420998Y-74807500D01*
G75*
G02*
X110171000Y-74557502I0J249998D01*
G01*
X110171000Y-74032498D01*
G75*
G02*
X110420998Y-73782500I249998J0D01*
G01*
X111321002Y-73782500D01*
G75*
G02*
X111571000Y-74032498I0J-249998D01*
G01*
X111571000Y-74557502D01*
G75*
G02*
X111321002Y-74807500I-249998J0D01*
G01*
G37*
%TD.AperFunction*%
%TO.P,RE15,1*%
%TO.N,GND*%
%TA.AperFunction,SMDPad,CuDef*%
G36*
G01*
X111321002Y-76632500D02*
X110420998Y-76632500D01*
G75*
G02*
X110171000Y-76382502I0J249998D01*
G01*
X110171000Y-75857498D01*
G75*
G02*
X110420998Y-75607500I249998J0D01*
G01*
X111321002Y-75607500D01*
G75*
G02*
X111571000Y-75857498I0J-249998D01*
G01*
X111571000Y-76382502D01*
G75*
G02*
X111321002Y-76632500I-249998J0D01*
G01*
G37*
%TD.AperFunction*%
%TD*%
%TO.P,RE21,1*%
%TO.N,GND*%
%TA.AperFunction,SMDPad,CuDef*%
G36*
G01*
X133269500Y-66674998D02*
X133269500Y-67575002D01*
G75*
G02*
X133019502Y-67825000I-249998J0D01*
G01*
X132494498Y-67825000D01*
G75*
G02*
X132244500Y-67575002I0J249998D01*
G01*
X132244500Y-66674998D01*
G75*
G02*
X132494498Y-66425000I249998J0D01*
G01*
X133019502Y-66425000D01*
G75*
G02*
X133269500Y-66674998I0J-249998D01*
G01*
G37*
%TD.AperFunction*%
%TO.P,RE21,2*%
%TO.N,Net-(Q2-Pad3)*%
%TA.AperFunction,SMDPad,CuDef*%
G36*
G01*
X131444500Y-66674998D02*
X131444500Y-67575002D01*
G75*
G02*
X131194502Y-67825000I-249998J0D01*
G01*
X130669498Y-67825000D01*
G75*
G02*
X130419500Y-67575002I0J249998D01*
G01*
X130419500Y-66674998D01*
G75*
G02*
X130669498Y-66425000I249998J0D01*
G01*
X131194502Y-66425000D01*
G75*
G02*
X131444500Y-66674998I0J-249998D01*
G01*
G37*
%TD.AperFunction*%
%TD*%
%TO.P,RE22,2*%
%TO.N,Net-(Q2-Pad3)*%
%TA.AperFunction,SMDPad,CuDef*%
G36*
G01*
X131444500Y-63499998D02*
X131444500Y-64400002D01*
G75*
G02*
X131194502Y-64650000I-249998J0D01*
G01*
X130669498Y-64650000D01*
G75*
G02*
X130419500Y-64400002I0J249998D01*
G01*
X130419500Y-63499998D01*
G75*
G02*
X130669498Y-63250000I249998J0D01*
G01*
X131194502Y-63250000D01*
G75*
G02*
X131444500Y-63499998I0J-249998D01*
G01*
G37*
%TD.AperFunction*%
%TO.P,RE22,1*%
%TO.N,GND*%
%TA.AperFunction,SMDPad,CuDef*%
G36*
G01*
X133269500Y-63499998D02*
X133269500Y-64400002D01*
G75*
G02*
X133019502Y-64650000I-249998J0D01*
G01*
X132494498Y-64650000D01*
G75*
G02*
X132244500Y-64400002I0J249998D01*
G01*
X132244500Y-63499998D01*
G75*
G02*
X132494498Y-63250000I249998J0D01*
G01*
X133019502Y-63250000D01*
G75*
G02*
X133269500Y-63499998I0J-249998D01*
G01*
G37*
%TD.AperFunction*%
%TD*%
%TO.P,RFB1,2*%
%TO.N,Net-(LFB1-Pad2)*%
%TA.AperFunction,SMDPad,CuDef*%
G36*
G01*
X97986002Y-62742500D02*
X97085998Y-62742500D01*
G75*
G02*
X96836000Y-62492502I0J249998D01*
G01*
X96836000Y-61967498D01*
G75*
G02*
X97085998Y-61717500I249998J0D01*
G01*
X97986002Y-61717500D01*
G75*
G02*
X98236000Y-61967498I0J-249998D01*
G01*
X98236000Y-62492502D01*
G75*
G02*
X97986002Y-62742500I-249998J0D01*
G01*
G37*
%TD.AperFunction*%
%TO.P,RFB1,1*%
%TO.N,Net-(CC2-Pad1)*%
%TA.AperFunction,SMDPad,CuDef*%
G36*
G01*
X97986002Y-64567500D02*
X97085998Y-64567500D01*
G75*
G02*
X96836000Y-64317502I0J249998D01*
G01*
X96836000Y-63792498D01*
G75*
G02*
X97085998Y-63542500I249998J0D01*
G01*
X97986002Y-63542500D01*
G75*
G02*
X98236000Y-63792498I0J-249998D01*
G01*
X98236000Y-64317502D01*
G75*
G02*
X97986002Y-64567500I-249998J0D01*
G01*
G37*
%TD.AperFunction*%
%TD*%
%TO.P,RFB2,1*%
%TO.N,Net-(LFB1-Pad1)*%
%TA.AperFunction,SMDPad,CuDef*%
G36*
G01*
X102800998Y-62987500D02*
X103701002Y-62987500D01*
G75*
G02*
X103951000Y-63237498I0J-249998D01*
G01*
X103951000Y-63762502D01*
G75*
G02*
X103701002Y-64012500I-249998J0D01*
G01*
X102800998Y-64012500D01*
G75*
G02*
X102551000Y-63762502I0J249998D01*
G01*
X102551000Y-63237498D01*
G75*
G02*
X102800998Y-62987500I249998J0D01*
G01*
G37*
%TD.AperFunction*%
%TO.P,RFB2,2*%
%TO.N,Net-(CC3-Pad1)*%
%TA.AperFunction,SMDPad,CuDef*%
G36*
G01*
X102800998Y-64812500D02*
X103701002Y-64812500D01*
G75*
G02*
X103951000Y-65062498I0J-249998D01*
G01*
X103951000Y-65587502D01*
G75*
G02*
X103701002Y-65837500I-249998J0D01*
G01*
X102800998Y-65837500D01*
G75*
G02*
X102551000Y-65587502I0J249998D01*
G01*
X102551000Y-65062498D01*
G75*
G02*
X102800998Y-64812500I249998J0D01*
G01*
G37*
%TD.AperFunction*%
%TD*%
%TO.P,Ri2,1*%
%TO.N,Net-(Q2-Pad1)*%
%TA.AperFunction,SMDPad,CuDef*%
G36*
G01*
X120574500Y-66859998D02*
X120574500Y-67760002D01*
G75*
G02*
X120324502Y-68010000I-249998J0D01*
G01*
X119799498Y-68010000D01*
G75*
G02*
X119549500Y-67760002I0J249998D01*
G01*
X119549500Y-66859998D01*
G75*
G02*
X119799498Y-66610000I249998J0D01*
G01*
X120324502Y-66610000D01*
G75*
G02*
X120574500Y-66859998I0J-249998D01*
G01*
G37*
%TD.AperFunction*%
%TO.P,Ri2,2*%
%TO.N,Net-(CC3-Pad2)*%
%TA.AperFunction,SMDPad,CuDef*%
G36*
G01*
X118749500Y-66859998D02*
X118749500Y-67760002D01*
G75*
G02*
X118499502Y-68010000I-249998J0D01*
G01*
X117974498Y-68010000D01*
G75*
G02*
X117724500Y-67760002I0J249998D01*
G01*
X117724500Y-66859998D01*
G75*
G02*
X117974498Y-66610000I249998J0D01*
G01*
X118499502Y-66610000D01*
G75*
G02*
X118749500Y-66859998I0J-249998D01*
G01*
G37*
%TD.AperFunction*%
%TD*%
%TO.P,Ro1,1*%
%TO.N,Net-(CC5-Pad1)*%
%TA.AperFunction,SMDPad,CuDef*%
G36*
G01*
X127946998Y-63067500D02*
X128847002Y-63067500D01*
G75*
G02*
X129097000Y-63317498I0J-249998D01*
G01*
X129097000Y-63842502D01*
G75*
G02*
X128847002Y-64092500I-249998J0D01*
G01*
X127946998Y-64092500D01*
G75*
G02*
X127697000Y-63842502I0J249998D01*
G01*
X127697000Y-63317498D01*
G75*
G02*
X127946998Y-63067500I249998J0D01*
G01*
G37*
%TD.AperFunction*%
%TO.P,Ro1,2*%
%TO.N,Net-(Q2-Pad3)*%
%TA.AperFunction,SMDPad,CuDef*%
G36*
G01*
X127946998Y-64892500D02*
X128847002Y-64892500D01*
G75*
G02*
X129097000Y-65142498I0J-249998D01*
G01*
X129097000Y-65667502D01*
G75*
G02*
X128847002Y-65917500I-249998J0D01*
G01*
X127946998Y-65917500D01*
G75*
G02*
X127697000Y-65667502I0J249998D01*
G01*
X127697000Y-65142498D01*
G75*
G02*
X127946998Y-64892500I249998J0D01*
G01*
G37*
%TD.AperFunction*%
%TD*%
%TO.P,Rsh2,2*%
%TO.N,Net-(Csh2-Pad2)*%
%TA.AperFunction,SMDPad,CuDef*%
G36*
G01*
X122231998Y-68622500D02*
X123132002Y-68622500D01*
G75*
G02*
X123382000Y-68872498I0J-249998D01*
G01*
X123382000Y-69397502D01*
G75*
G02*
X123132002Y-69647500I-249998J0D01*
G01*
X122231998Y-69647500D01*
G75*
G02*
X121982000Y-69397502I0J249998D01*
G01*
X121982000Y-68872498D01*
G75*
G02*
X122231998Y-68622500I249998J0D01*
G01*
G37*
%TD.AperFunction*%
%TO.P,Rsh2,1*%
%TO.N,Net-(Q2-Pad1)*%
%TA.AperFunction,SMDPad,CuDef*%
G36*
G01*
X122231998Y-66797500D02*
X123132002Y-66797500D01*
G75*
G02*
X123382000Y-67047498I0J-249998D01*
G01*
X123382000Y-67572502D01*
G75*
G02*
X123132002Y-67822500I-249998J0D01*
G01*
X122231998Y-67822500D01*
G75*
G02*
X121982000Y-67572502I0J249998D01*
G01*
X121982000Y-67047498D01*
G75*
G02*
X122231998Y-66797500I249998J0D01*
G01*
G37*
%TD.AperFunction*%
%TD*%
D14*
%TO.P,U1,2*%
%TO.N,Net-(CC1-Pad2)*%
X101951000Y-68910000D03*
D13*
%TO.P,U1,1*%
%TO.N,Net-(RE1-Pad2)*%
X103101000Y-68910000D03*
D14*
%TO.P,U1,4*%
%TO.N,Net-(CC3-Pad1)*%
X103251000Y-67310000D03*
%TO.P,U1,3*%
%TO.N,Net-(RE1-Pad2)*%
X101951000Y-67310000D03*
%TD*%
D15*
%TO.N,GND*%
X137541000Y-63754000D03*
X138811000Y-63754000D03*
X139954000Y-63754000D03*
X140081000Y-58166000D03*
X138811000Y-58166000D03*
X137541000Y-58166000D03*
X84836000Y-65659000D03*
X83693000Y-65659000D03*
X82550000Y-65659000D03*
X84963000Y-71374000D03*
X83820000Y-71374000D03*
X82677000Y-71374000D03*
X83554999Y-52160905D03*
X83554999Y-60160905D03*
X83554999Y-76160905D03*
X85554999Y-53160905D03*
X85554999Y-61160905D03*
X87554999Y-52160905D03*
X87554999Y-55160905D03*
X87554999Y-59160905D03*
X88554999Y-57160905D03*
X88554999Y-61160905D03*
X88554999Y-71160905D03*
X88554999Y-74160905D03*
X89554999Y-53160905D03*
X89554999Y-63160905D03*
X89554999Y-66160905D03*
X89554999Y-76160905D03*
X89554999Y-79160905D03*
X90554999Y-55160905D03*
X90554999Y-58160905D03*
X90554999Y-72160905D03*
X91554999Y-52160905D03*
X91554999Y-60160905D03*
X91554999Y-70160905D03*
X91554999Y-74160905D03*
X91554999Y-77160905D03*
X91554999Y-80160905D03*
X92554999Y-54160905D03*
X92554999Y-57160905D03*
X93554999Y-59160905D03*
X93554999Y-71160905D03*
X93554999Y-78160905D03*
X94554999Y-52160905D03*
X94554999Y-55160905D03*
X94554999Y-65160905D03*
X94554999Y-80160905D03*
X95554999Y-57160905D03*
X95554999Y-67160905D03*
X95554999Y-70160905D03*
X96554999Y-53160905D03*
X96554999Y-72160905D03*
X96554999Y-78160905D03*
X97554999Y-55160905D03*
X97554999Y-80160905D03*
X98554999Y-52160905D03*
X98554999Y-57160905D03*
X98554999Y-70160905D03*
X99554999Y-54160905D03*
X99554999Y-62160905D03*
X99695000Y-64770000D03*
X99554999Y-72160905D03*
X100554999Y-56160905D03*
X101092000Y-64897000D03*
X100554999Y-80160905D03*
X101554999Y-52160905D03*
X101219000Y-63160905D03*
X102554999Y-54160905D03*
X102554999Y-57160905D03*
X103554999Y-80160905D03*
X104554999Y-52160905D03*
X104554999Y-55160905D03*
X104554999Y-72160905D03*
X104554999Y-78160905D03*
X106554999Y-70160905D03*
X106554999Y-80160905D03*
X107554999Y-52160905D03*
X107554999Y-64160905D03*
X107554999Y-72160905D03*
X108966000Y-61214000D03*
X108554999Y-69160905D03*
X108554999Y-78160905D03*
X109554999Y-65160905D03*
X109554999Y-71160905D03*
X109554999Y-80160905D03*
X111554999Y-64160905D03*
X111554999Y-69160905D03*
X111554999Y-72160905D03*
X112554999Y-74160905D03*
X112554999Y-77160905D03*
X112554999Y-80160905D03*
X113554999Y-70160905D03*
X114554999Y-72160905D03*
X114554999Y-75160905D03*
X114554999Y-78160905D03*
X115554999Y-69160905D03*
X115554999Y-80160905D03*
X116554999Y-71160905D03*
X116554999Y-74160905D03*
X116554999Y-77160905D03*
X117554999Y-52160905D03*
X117554999Y-55160905D03*
X116713000Y-61341000D03*
X117554999Y-64160905D03*
X117554999Y-79160905D03*
X118554999Y-69160905D03*
X118554999Y-72160905D03*
X118554999Y-75160905D03*
X119554999Y-53160905D03*
X119554999Y-56160905D03*
X119554999Y-59160905D03*
X119554999Y-65160905D03*
X119554999Y-77160905D03*
X119554999Y-80160905D03*
X120554999Y-70160905D03*
X120554999Y-73160905D03*
X121554999Y-52160905D03*
X121554999Y-55160905D03*
X121554999Y-58160905D03*
X121554999Y-64160905D03*
X121554999Y-76160905D03*
X121554999Y-79160905D03*
X123554999Y-53160905D03*
X123554999Y-56160905D03*
X123554999Y-77160905D03*
X123554999Y-80160905D03*
X124554999Y-72160905D03*
X124554999Y-75160905D03*
X125554999Y-52160905D03*
X125554999Y-55160905D03*
X125554999Y-58160905D03*
X125554999Y-78160905D03*
X125349000Y-69342000D03*
X126554999Y-73160905D03*
X126554999Y-76160905D03*
X126554999Y-80160905D03*
X127554999Y-53160905D03*
X127554999Y-56160905D03*
X127554999Y-59160905D03*
X128554999Y-71160905D03*
X128554999Y-74160905D03*
X128554999Y-77160905D03*
X129554999Y-52160905D03*
X129554999Y-55160905D03*
X129554999Y-58160905D03*
X129554999Y-79160905D03*
X130554999Y-69160905D03*
X130554999Y-72160905D03*
X130554999Y-75160905D03*
X131554999Y-53160905D03*
X131554999Y-56160905D03*
X131554999Y-77160905D03*
X131554999Y-80160905D03*
X132554999Y-70160905D03*
X132554999Y-73160905D03*
X133554999Y-52160905D03*
X133554999Y-55160905D03*
X133554999Y-58160905D03*
X133554999Y-75160905D03*
X134554999Y-66160905D03*
X134554999Y-69160905D03*
X134554999Y-72160905D03*
X135554999Y-53160905D03*
X135554999Y-74160905D03*
X136554999Y-68160905D03*
X136554999Y-71160905D03*
X137554999Y-52160905D03*
X137554999Y-73160905D03*
X137554999Y-76160905D03*
X137554999Y-79160905D03*
X138554999Y-69160905D03*
X83220550Y-62414876D03*
X83220550Y-74414876D03*
X83220550Y-78414876D03*
X85220550Y-63414876D03*
X86220550Y-74414876D03*
X87220550Y-64414876D03*
X101220550Y-78414876D03*
X105220550Y-57414876D03*
X117220550Y-57414876D03*
X134747000Y-64008000D03*
X136220550Y-55414876D03*
X137220550Y-66414876D03*
X138220550Y-54414876D03*
X139220550Y-67414876D03*
X139220550Y-71414876D03*
X83220550Y-80414876D03*
X87220550Y-66414876D03*
X107220550Y-59414876D03*
X117220550Y-59414876D03*
X119220550Y-61414876D03*
X126220550Y-61414876D03*
X128143000Y-69342000D03*
X126492000Y-71120000D03*
%TD*%
D16*
%TO.N,Net-(CC1-Pad1)*%
X83185000Y-68580000D02*
X87630000Y-68580000D01*
D17*
%TO.N,Net-(CC1-Pad2)*%
X95250000Y-68580000D02*
X89850000Y-68580000D01*
X92456000Y-68580000D02*
X97536000Y-68580000D01*
X101621000Y-68580000D02*
X101951000Y-68910000D01*
X97536000Y-68580000D02*
X101621000Y-68580000D01*
%TO.N,Net-(CC2-Pad1)*%
X97536000Y-66680000D02*
X97536000Y-64055000D01*
%TO.N,Net-(CC3-Pad1)*%
X103251000Y-67310000D02*
X103251000Y-65325000D01*
X103251000Y-67310000D02*
X108077000Y-67310000D01*
%TO.N,Net-(CC3-Pad2)*%
X115062000Y-67310000D02*
X118237000Y-67310000D01*
X109916000Y-67310000D02*
X114871500Y-67310000D01*
%TO.N,GND*%
X94996000Y-76120000D02*
X94996000Y-77379999D01*
X94996000Y-78740000D02*
X94996000Y-77379999D01*
X99441000Y-76120000D02*
X99441000Y-78740000D01*
X103251000Y-76120000D02*
X103251000Y-78740000D01*
X107061000Y-76120000D02*
X107061000Y-78740000D01*
X110871000Y-76120000D02*
X110871000Y-78740000D01*
X122682000Y-73020000D02*
X122682000Y-74930000D01*
%TO.N,VCC*%
X115062000Y-64770000D02*
X115062000Y-65485000D01*
X107569000Y-62865000D02*
X109601000Y-62865000D01*
X108966000Y-62865000D02*
X109601000Y-62865000D01*
X107569000Y-62865000D02*
X107823000Y-62865000D01*
X92456000Y-66755000D02*
X92409000Y-66755000D01*
X92409000Y-66755000D02*
X92202000Y-66548000D01*
X105918000Y-61214000D02*
X105664000Y-60960000D01*
X105664000Y-60960000D02*
X107569000Y-62865000D01*
X105918000Y-65485000D02*
X105918000Y-61214000D01*
X103759000Y-59055000D02*
X105664000Y-60960000D01*
X126730000Y-65325000D02*
X126742200Y-65325000D01*
X123907000Y-62865000D02*
X124079000Y-62865000D01*
X124079000Y-62865000D02*
X126593600Y-65379600D01*
X126593600Y-65379600D02*
X126796800Y-65379600D01*
X97536000Y-59055000D02*
X92456000Y-64135000D01*
X92456000Y-64135000D02*
X92456000Y-66802000D01*
X113157000Y-62865000D02*
X115062000Y-64770000D01*
X103759000Y-59055000D02*
X103251000Y-59055000D01*
X103251000Y-59055000D02*
X97536000Y-59055000D01*
X112776000Y-59055000D02*
X113284000Y-59563000D01*
X113284000Y-62611000D02*
X113538000Y-62865000D01*
X109601000Y-62865000D02*
X113538000Y-62865000D01*
X120396000Y-62865000D02*
X124079000Y-62865000D01*
X113538000Y-62865000D02*
X120396000Y-62865000D01*
D16*
X113284000Y-58674000D02*
X113284000Y-62611000D01*
D17*
%TO.N,Net-(CC5-Pad1)*%
X128397000Y-63580000D02*
X128397000Y-62230000D01*
X129667000Y-60960000D02*
X130307000Y-60960000D01*
X128397000Y-62230000D02*
X129667000Y-60960000D01*
D16*
%TO.N,Net-(CC5-Pad2)*%
X139319000Y-60960000D02*
X134620000Y-60960000D01*
X134620000Y-60960000D02*
X132334000Y-60960000D01*
D17*
%TO.N,Net-(LFB1-Pad1)*%
X101981000Y-60325000D02*
X102616000Y-60325000D01*
X103251000Y-60960000D02*
X103251000Y-63500000D01*
X102616000Y-60325000D02*
X103251000Y-60960000D01*
%TO.N,Net-(LFB1-Pad2)*%
X97536000Y-62230000D02*
X97536000Y-61595000D01*
X98806000Y-60325000D02*
X99856000Y-60325000D01*
X97536000Y-61595000D02*
X98806000Y-60325000D01*
%TO.N,Net-(Q2-Pad1)*%
X120062000Y-67310000D02*
X122682000Y-67310000D01*
X122682000Y-67310000D02*
X126382000Y-67310000D01*
X126382000Y-67310000D02*
X126417000Y-67275000D01*
%TO.N,Net-(Q2-Pad3)*%
X124442000Y-66275000D02*
X127492000Y-66275000D01*
X127492000Y-66275000D02*
X128392000Y-65375000D01*
X128397000Y-65405000D02*
X129272000Y-65405000D01*
X129272000Y-65405000D02*
X130827000Y-63850000D01*
X129272000Y-65405000D02*
X130967000Y-67100000D01*
%TO.N,Net-(RE1-Pad2)*%
X103101000Y-68460000D02*
X103101000Y-68910000D01*
D18*
X101951000Y-67310000D02*
X103101000Y-68460000D01*
D17*
X94996000Y-74295000D02*
X110871000Y-74295000D01*
X103101000Y-74145000D02*
X103251000Y-74295000D01*
X103101000Y-68910000D02*
X103101000Y-74145000D01*
%TO.N,Net-(Csh2-Pad2)*%
X122682000Y-69135000D02*
X122682000Y-71120000D01*
%TD*%
D19*
%TO.N,GND*%
X131329038Y-62062962D02*
X131463614Y-62173405D01*
X131617150Y-62255472D01*
X131783746Y-62306008D01*
X131957000Y-62323072D01*
X132056269Y-62323072D01*
X132062493Y-62324960D01*
X132265963Y-62345000D01*
X139387037Y-62345000D01*
X139590507Y-62324960D01*
X139851581Y-62245764D01*
X139875326Y-62233072D01*
X140310001Y-62233072D01*
X140310001Y-62472822D01*
X139023750Y-62475000D01*
X138865000Y-62633750D01*
X138865000Y-63658000D01*
X138885000Y-63658000D01*
X138885000Y-63912000D01*
X138865000Y-63912000D01*
X138865000Y-64936250D01*
X139023750Y-65095000D01*
X140310001Y-65097178D01*
X140310000Y-81247721D01*
X140295278Y-81397869D01*
X140261047Y-81511246D01*
X140205446Y-81615817D01*
X140130594Y-81707595D01*
X140109023Y-81725440D01*
X82218055Y-81787505D01*
X82214183Y-81785446D01*
X82122405Y-81710594D01*
X82046909Y-81619335D01*
X81990581Y-81515160D01*
X81955560Y-81402024D01*
X81940000Y-81253979D01*
X81940000Y-78290495D01*
X84121000Y-78290495D01*
X84121000Y-78681505D01*
X84197282Y-79065003D01*
X84346915Y-79426250D01*
X84564149Y-79751364D01*
X84840636Y-80027851D01*
X85165750Y-80245085D01*
X85526997Y-80394718D01*
X85910495Y-80471000D01*
X86301505Y-80471000D01*
X86685003Y-80394718D01*
X87046250Y-80245085D01*
X87371364Y-80027851D01*
X87647851Y-79751364D01*
X87865085Y-79426250D01*
X88014718Y-79065003D01*
X88091000Y-78681505D01*
X88091000Y-78290495D01*
X88015215Y-77909495D01*
X132635000Y-77909495D01*
X132635000Y-78300505D01*
X132711282Y-78684003D01*
X132860915Y-79045250D01*
X133078149Y-79370364D01*
X133354636Y-79646851D01*
X133679750Y-79864085D01*
X134040997Y-80013718D01*
X134424495Y-80090000D01*
X134815505Y-80090000D01*
X135199003Y-80013718D01*
X135560250Y-79864085D01*
X135885364Y-79646851D01*
X136161851Y-79370364D01*
X136379085Y-79045250D01*
X136528718Y-78684003D01*
X136605000Y-78300505D01*
X136605000Y-77909495D01*
X136528718Y-77525997D01*
X136379085Y-77164750D01*
X136161851Y-76839636D01*
X135885364Y-76563149D01*
X135560250Y-76345915D01*
X135199003Y-76196282D01*
X134815505Y-76120000D01*
X134424495Y-76120000D01*
X134040997Y-76196282D01*
X133679750Y-76345915D01*
X133354636Y-76563149D01*
X133078149Y-76839636D01*
X132860915Y-77164750D01*
X132711282Y-77525997D01*
X132635000Y-77909495D01*
X88015215Y-77909495D01*
X88014718Y-77906997D01*
X87865085Y-77545750D01*
X87647851Y-77220636D01*
X87371364Y-76944149D01*
X87046250Y-76726915D01*
X86818312Y-76632500D01*
X93657928Y-76632500D01*
X93670188Y-76756982D01*
X93706498Y-76876680D01*
X93765463Y-76986994D01*
X93844815Y-77083685D01*
X93941506Y-77163037D01*
X94051820Y-77222002D01*
X94171518Y-77258312D01*
X94296000Y-77270572D01*
X94710250Y-77267500D01*
X94869000Y-77108750D01*
X94869000Y-76247000D01*
X95123000Y-76247000D01*
X95123000Y-77108750D01*
X95281750Y-77267500D01*
X95696000Y-77270572D01*
X95820482Y-77258312D01*
X95940180Y-77222002D01*
X96050494Y-77163037D01*
X96147185Y-77083685D01*
X96226537Y-76986994D01*
X96285502Y-76876680D01*
X96321812Y-76756982D01*
X96334072Y-76632500D01*
X98102928Y-76632500D01*
X98115188Y-76756982D01*
X98151498Y-76876680D01*
X98210463Y-76986994D01*
X98289815Y-77083685D01*
X98386506Y-77163037D01*
X98496820Y-77222002D01*
X98616518Y-77258312D01*
X98741000Y-77270572D01*
X99155250Y-77267500D01*
X99314000Y-77108750D01*
X99314000Y-76247000D01*
X99568000Y-76247000D01*
X99568000Y-77108750D01*
X99726750Y-77267500D01*
X100141000Y-77270572D01*
X100265482Y-77258312D01*
X100385180Y-77222002D01*
X100495494Y-77163037D01*
X100592185Y-77083685D01*
X100671537Y-76986994D01*
X100730502Y-76876680D01*
X100766812Y-76756982D01*
X100779072Y-76632500D01*
X101912928Y-76632500D01*
X101925188Y-76756982D01*
X101961498Y-76876680D01*
X102020463Y-76986994D01*
X102099815Y-77083685D01*
X102196506Y-77163037D01*
X102306820Y-77222002D01*
X102426518Y-77258312D01*
X102551000Y-77270572D01*
X102965250Y-77267500D01*
X103124000Y-77108750D01*
X103124000Y-76247000D01*
X103378000Y-76247000D01*
X103378000Y-77108750D01*
X103536750Y-77267500D01*
X103951000Y-77270572D01*
X104075482Y-77258312D01*
X104195180Y-77222002D01*
X104305494Y-77163037D01*
X104402185Y-77083685D01*
X104481537Y-76986994D01*
X104540502Y-76876680D01*
X104576812Y-76756982D01*
X104589072Y-76632500D01*
X105722928Y-76632500D01*
X105735188Y-76756982D01*
X105771498Y-76876680D01*
X105830463Y-76986994D01*
X105909815Y-77083685D01*
X106006506Y-77163037D01*
X106116820Y-77222002D01*
X106236518Y-77258312D01*
X106361000Y-77270572D01*
X106775250Y-77267500D01*
X106934000Y-77108750D01*
X106934000Y-76247000D01*
X107188000Y-76247000D01*
X107188000Y-77108750D01*
X107346750Y-77267500D01*
X107761000Y-77270572D01*
X107885482Y-77258312D01*
X108005180Y-77222002D01*
X108115494Y-77163037D01*
X108212185Y-77083685D01*
X108291537Y-76986994D01*
X108350502Y-76876680D01*
X108386812Y-76756982D01*
X108399072Y-76632500D01*
X109532928Y-76632500D01*
X109545188Y-76756982D01*
X109581498Y-76876680D01*
X109640463Y-76986994D01*
X109719815Y-77083685D01*
X109816506Y-77163037D01*
X109926820Y-77222002D01*
X110046518Y-77258312D01*
X110171000Y-77270572D01*
X110585250Y-77267500D01*
X110744000Y-77108750D01*
X110744000Y-76247000D01*
X110998000Y-76247000D01*
X110998000Y-77108750D01*
X111156750Y-77267500D01*
X111571000Y-77270572D01*
X111695482Y-77258312D01*
X111815180Y-77222002D01*
X111925494Y-77163037D01*
X112022185Y-77083685D01*
X112101537Y-76986994D01*
X112160502Y-76876680D01*
X112196812Y-76756982D01*
X112209072Y-76632500D01*
X112206000Y-76405750D01*
X112047250Y-76247000D01*
X110998000Y-76247000D01*
X110744000Y-76247000D01*
X109694750Y-76247000D01*
X109536000Y-76405750D01*
X109532928Y-76632500D01*
X108399072Y-76632500D01*
X108396000Y-76405750D01*
X108237250Y-76247000D01*
X107188000Y-76247000D01*
X106934000Y-76247000D01*
X105884750Y-76247000D01*
X105726000Y-76405750D01*
X105722928Y-76632500D01*
X104589072Y-76632500D01*
X104586000Y-76405750D01*
X104427250Y-76247000D01*
X103378000Y-76247000D01*
X103124000Y-76247000D01*
X102074750Y-76247000D01*
X101916000Y-76405750D01*
X101912928Y-76632500D01*
X100779072Y-76632500D01*
X100776000Y-76405750D01*
X100617250Y-76247000D01*
X99568000Y-76247000D01*
X99314000Y-76247000D01*
X98264750Y-76247000D01*
X98106000Y-76405750D01*
X98102928Y-76632500D01*
X96334072Y-76632500D01*
X96331000Y-76405750D01*
X96172250Y-76247000D01*
X95123000Y-76247000D01*
X94869000Y-76247000D01*
X93819750Y-76247000D01*
X93661000Y-76405750D01*
X93657928Y-76632500D01*
X86818312Y-76632500D01*
X86685003Y-76577282D01*
X86301505Y-76501000D01*
X85910495Y-76501000D01*
X85526997Y-76577282D01*
X85165750Y-76726915D01*
X84840636Y-76944149D01*
X84564149Y-77220636D01*
X84346915Y-77545750D01*
X84197282Y-77906997D01*
X84121000Y-78290495D01*
X81940000Y-78290495D01*
X81940000Y-72717178D01*
X83226250Y-72715000D01*
X83385000Y-72556250D01*
X83385000Y-71532000D01*
X83639000Y-71532000D01*
X83639000Y-72556250D01*
X83797750Y-72715000D01*
X85612000Y-72718072D01*
X85736482Y-72705812D01*
X85856180Y-72669502D01*
X85966494Y-72610537D01*
X86063185Y-72531185D01*
X86142537Y-72434494D01*
X86201502Y-72324180D01*
X86237812Y-72204482D01*
X86250072Y-72080000D01*
X86247000Y-71690750D01*
X86088250Y-71532000D01*
X83639000Y-71532000D01*
X83385000Y-71532000D01*
X83365000Y-71532000D01*
X83365000Y-71278000D01*
X83385000Y-71278000D01*
X83385000Y-70253750D01*
X83639000Y-70253750D01*
X83639000Y-71278000D01*
X86088250Y-71278000D01*
X86247000Y-71119250D01*
X86250072Y-70730000D01*
X86237812Y-70605518D01*
X86201502Y-70485820D01*
X86142537Y-70375506D01*
X86063185Y-70278815D01*
X85966494Y-70199463D01*
X85856180Y-70140498D01*
X85736482Y-70104188D01*
X85612000Y-70091928D01*
X83797750Y-70095000D01*
X83639000Y-70253750D01*
X83385000Y-70253750D01*
X83226250Y-70095000D01*
X81940000Y-70092822D01*
X81940000Y-69853072D01*
X82628674Y-69853072D01*
X82652419Y-69865764D01*
X82913493Y-69944960D01*
X83116963Y-69965000D01*
X87698037Y-69965000D01*
X87901507Y-69944960D01*
X87907731Y-69943072D01*
X88200000Y-69943072D01*
X88373254Y-69926008D01*
X88539850Y-69875472D01*
X88693386Y-69793405D01*
X88827962Y-69682962D01*
X88900000Y-69595183D01*
X88972038Y-69682962D01*
X89106614Y-69793405D01*
X89260150Y-69875472D01*
X89426746Y-69926008D01*
X89600000Y-69943072D01*
X90100000Y-69943072D01*
X90273254Y-69926008D01*
X90439850Y-69875472D01*
X90593386Y-69793405D01*
X90727962Y-69682962D01*
X90838405Y-69548386D01*
X90882976Y-69465000D01*
X91373555Y-69465000D01*
X91378038Y-69470462D01*
X91512613Y-69580905D01*
X91666148Y-69662972D01*
X91832744Y-69713508D01*
X92005998Y-69730572D01*
X92906002Y-69730572D01*
X93079256Y-69713508D01*
X93245852Y-69662972D01*
X93399387Y-69580905D01*
X93533962Y-69470462D01*
X93538445Y-69465000D01*
X96441614Y-69465000D01*
X96567614Y-69568405D01*
X96721150Y-69650472D01*
X96887746Y-69701008D01*
X97061000Y-69718072D01*
X98011000Y-69718072D01*
X98184254Y-69701008D01*
X98350850Y-69650472D01*
X98504386Y-69568405D01*
X98630386Y-69465000D01*
X101034446Y-69465000D01*
X101061498Y-69554180D01*
X101120463Y-69664494D01*
X101199815Y-69761185D01*
X101296506Y-69840537D01*
X101406820Y-69899502D01*
X101526518Y-69935812D01*
X101651000Y-69948072D01*
X102216000Y-69948072D01*
X102216001Y-73369279D01*
X102173038Y-73404538D01*
X102168555Y-73410000D01*
X100523445Y-73410000D01*
X100518962Y-73404538D01*
X100384387Y-73294095D01*
X100230852Y-73212028D01*
X100064256Y-73161492D01*
X99891002Y-73144428D01*
X98990998Y-73144428D01*
X98817744Y-73161492D01*
X98651148Y-73212028D01*
X98497613Y-73294095D01*
X98363038Y-73404538D01*
X98358555Y-73410000D01*
X96078445Y-73410000D01*
X96073962Y-73404538D01*
X95939387Y-73294095D01*
X95785852Y-73212028D01*
X95619256Y-73161492D01*
X95446002Y-73144428D01*
X94545998Y-73144428D01*
X94372744Y-73161492D01*
X94206148Y-73212028D01*
X94052613Y-73294095D01*
X93918038Y-73404538D01*
X93807595Y-73539113D01*
X93725528Y-73692648D01*
X93674992Y-73859244D01*
X93657928Y-74032498D01*
X93657928Y-74557502D01*
X93674992Y-74730756D01*
X93725528Y-74897352D01*
X93807595Y-75050887D01*
X93874276Y-75132137D01*
X93844815Y-75156315D01*
X93765463Y-75253006D01*
X93706498Y-75363320D01*
X93670188Y-75483018D01*
X93657928Y-75607500D01*
X93661000Y-75834250D01*
X93819750Y-75993000D01*
X94869000Y-75993000D01*
X94869000Y-75973000D01*
X95123000Y-75973000D01*
X95123000Y-75993000D01*
X96172250Y-75993000D01*
X96331000Y-75834250D01*
X96334072Y-75607500D01*
X96321812Y-75483018D01*
X96285502Y-75363320D01*
X96226537Y-75253006D01*
X96166623Y-75180000D01*
X98270377Y-75180000D01*
X98210463Y-75253006D01*
X98151498Y-75363320D01*
X98115188Y-75483018D01*
X98102928Y-75607500D01*
X98106000Y-75834250D01*
X98264750Y-75993000D01*
X99314000Y-75993000D01*
X99314000Y-75973000D01*
X99568000Y-75973000D01*
X99568000Y-75993000D01*
X100617250Y-75993000D01*
X100776000Y-75834250D01*
X100779072Y-75607500D01*
X100766812Y-75483018D01*
X100730502Y-75363320D01*
X100671537Y-75253006D01*
X100611623Y-75180000D01*
X102080377Y-75180000D01*
X102020463Y-75253006D01*
X101961498Y-75363320D01*
X101925188Y-75483018D01*
X101912928Y-75607500D01*
X101916000Y-75834250D01*
X102074750Y-75993000D01*
X103124000Y-75993000D01*
X103124000Y-75973000D01*
X103378000Y-75973000D01*
X103378000Y-75993000D01*
X104427250Y-75993000D01*
X104586000Y-75834250D01*
X104589072Y-75607500D01*
X104576812Y-75483018D01*
X104540502Y-75363320D01*
X104481537Y-75253006D01*
X104421623Y-75180000D01*
X105890377Y-75180000D01*
X105830463Y-75253006D01*
X105771498Y-75363320D01*
X105735188Y-75483018D01*
X105722928Y-75607500D01*
X105726000Y-75834250D01*
X105884750Y-75993000D01*
X106934000Y-75993000D01*
X106934000Y-75973000D01*
X107188000Y-75973000D01*
X107188000Y-75993000D01*
X108237250Y-75993000D01*
X108396000Y-75834250D01*
X108399072Y-75607500D01*
X108386812Y-75483018D01*
X108350502Y-75363320D01*
X108291537Y-75253006D01*
X108231623Y-75180000D01*
X109700377Y-75180000D01*
X109640463Y-75253006D01*
X109581498Y-75363320D01*
X109545188Y-75483018D01*
X109532928Y-75607500D01*
X109536000Y-75834250D01*
X109694750Y-75993000D01*
X110744000Y-75993000D01*
X110744000Y-75973000D01*
X110998000Y-75973000D01*
X110998000Y-75993000D01*
X112047250Y-75993000D01*
X112206000Y-75834250D01*
X112209072Y-75607500D01*
X112196812Y-75483018D01*
X112160502Y-75363320D01*
X112101537Y-75253006D01*
X112022185Y-75156315D01*
X111992724Y-75132137D01*
X112059405Y-75050887D01*
X112141472Y-74897352D01*
X112192008Y-74730756D01*
X112209072Y-74557502D01*
X112209072Y-74032498D01*
X112192008Y-73859244D01*
X112141472Y-73692648D01*
X112059405Y-73539113D01*
X112043720Y-73520000D01*
X121318928Y-73520000D01*
X121331188Y-73644482D01*
X121367498Y-73764180D01*
X121426463Y-73874494D01*
X121505815Y-73971185D01*
X121602506Y-74050537D01*
X121712820Y-74109502D01*
X121832518Y-74145812D01*
X121957000Y-74158072D01*
X122396250Y-74155000D01*
X122555000Y-73996250D01*
X122555000Y-73147000D01*
X122809000Y-73147000D01*
X122809000Y-73996250D01*
X122967750Y-74155000D01*
X123407000Y-74158072D01*
X123531482Y-74145812D01*
X123651180Y-74109502D01*
X123761494Y-74050537D01*
X123858185Y-73971185D01*
X123937537Y-73874494D01*
X123996502Y-73764180D01*
X124032812Y-73644482D01*
X124045072Y-73520000D01*
X124042000Y-73305750D01*
X123883250Y-73147000D01*
X122809000Y-73147000D01*
X122555000Y-73147000D01*
X121480750Y-73147000D01*
X121322000Y-73305750D01*
X121318928Y-73520000D01*
X112043720Y-73520000D01*
X111948962Y-73404538D01*
X111814387Y-73294095D01*
X111660852Y-73212028D01*
X111494256Y-73161492D01*
X111321002Y-73144428D01*
X110420998Y-73144428D01*
X110247744Y-73161492D01*
X110081148Y-73212028D01*
X109927613Y-73294095D01*
X109793038Y-73404538D01*
X109788555Y-73410000D01*
X108143445Y-73410000D01*
X108138962Y-73404538D01*
X108004387Y-73294095D01*
X107850852Y-73212028D01*
X107684256Y-73161492D01*
X107511002Y-73144428D01*
X106610998Y-73144428D01*
X106437744Y-73161492D01*
X106271148Y-73212028D01*
X106117613Y-73294095D01*
X105983038Y-73404538D01*
X105978555Y-73410000D01*
X104333445Y-73410000D01*
X104328962Y-73404538D01*
X104194387Y-73294095D01*
X104040852Y-73212028D01*
X103986000Y-73195389D01*
X103986000Y-69774468D01*
X104002185Y-69761185D01*
X104081537Y-69664494D01*
X104140502Y-69554180D01*
X104176812Y-69434482D01*
X104189072Y-69310000D01*
X104189072Y-68510000D01*
X104176812Y-68385518D01*
X104140502Y-68265820D01*
X104102647Y-68195000D01*
X104835555Y-68195000D01*
X104840038Y-68200462D01*
X104974613Y-68310905D01*
X105128148Y-68392972D01*
X105294744Y-68443508D01*
X105467998Y-68460572D01*
X106368002Y-68460572D01*
X106541256Y-68443508D01*
X106707852Y-68392972D01*
X106861387Y-68310905D01*
X106988998Y-68206177D01*
X107027595Y-68278386D01*
X107138038Y-68412962D01*
X107272614Y-68523405D01*
X107426150Y-68605472D01*
X107592746Y-68656008D01*
X107766000Y-68673072D01*
X108266000Y-68673072D01*
X108439254Y-68656008D01*
X108605850Y-68605472D01*
X108759386Y-68523405D01*
X108893962Y-68412962D01*
X108966000Y-68325183D01*
X109038038Y-68412962D01*
X109172614Y-68523405D01*
X109326150Y-68605472D01*
X109492746Y-68656008D01*
X109666000Y-68673072D01*
X110166000Y-68673072D01*
X110339254Y-68656008D01*
X110505850Y-68605472D01*
X110659386Y-68523405D01*
X110793962Y-68412962D01*
X110904405Y-68278386D01*
X110948976Y-68195000D01*
X113979555Y-68195000D01*
X113984038Y-68200462D01*
X114118613Y-68310905D01*
X114272148Y-68392972D01*
X114438744Y-68443508D01*
X114611998Y-68460572D01*
X115512002Y-68460572D01*
X115685256Y-68443508D01*
X115851852Y-68392972D01*
X116005387Y-68310905D01*
X116139962Y-68200462D01*
X116144445Y-68195000D01*
X117204886Y-68195000D01*
X117236095Y-68253387D01*
X117346538Y-68387962D01*
X117481113Y-68498405D01*
X117634648Y-68580472D01*
X117801244Y-68631008D01*
X117974498Y-68648072D01*
X118499502Y-68648072D01*
X118672756Y-68631008D01*
X118839352Y-68580472D01*
X118992887Y-68498405D01*
X119127462Y-68387962D01*
X119149500Y-68361109D01*
X119171538Y-68387962D01*
X119306113Y-68498405D01*
X119459648Y-68580472D01*
X119626244Y-68631008D01*
X119799498Y-68648072D01*
X120324502Y-68648072D01*
X120497756Y-68631008D01*
X120664352Y-68580472D01*
X120817887Y-68498405D01*
X120952462Y-68387962D01*
X121062905Y-68253387D01*
X121094114Y-68195000D01*
X121599555Y-68195000D01*
X121604038Y-68200462D01*
X121630891Y-68222500D01*
X121604038Y-68244538D01*
X121493595Y-68379113D01*
X121411528Y-68532648D01*
X121360992Y-68699244D01*
X121343928Y-68872498D01*
X121343928Y-69397502D01*
X121360992Y-69570756D01*
X121411528Y-69737352D01*
X121493595Y-69890887D01*
X121604038Y-70025462D01*
X121725573Y-70125203D01*
X121713614Y-70131595D01*
X121579038Y-70242038D01*
X121468595Y-70376614D01*
X121386528Y-70530150D01*
X121335992Y-70696746D01*
X121318928Y-70870000D01*
X121318928Y-71370000D01*
X121335992Y-71543254D01*
X121386528Y-71709850D01*
X121468595Y-71863386D01*
X121579038Y-71997962D01*
X121585594Y-72003342D01*
X121505815Y-72068815D01*
X121426463Y-72165506D01*
X121367498Y-72275820D01*
X121331188Y-72395518D01*
X121318928Y-72520000D01*
X121322000Y-72734250D01*
X121480750Y-72893000D01*
X122555000Y-72893000D01*
X122555000Y-72873000D01*
X122809000Y-72873000D01*
X122809000Y-72893000D01*
X123883250Y-72893000D01*
X124042000Y-72734250D01*
X124045072Y-72520000D01*
X124032812Y-72395518D01*
X123996502Y-72275820D01*
X123937537Y-72165506D01*
X123858185Y-72068815D01*
X123778406Y-72003342D01*
X123784962Y-71997962D01*
X123895405Y-71863386D01*
X123977472Y-71709850D01*
X124028008Y-71543254D01*
X124045072Y-71370000D01*
X124045072Y-70870000D01*
X124028008Y-70696746D01*
X123977472Y-70530150D01*
X123895405Y-70376614D01*
X123784962Y-70242038D01*
X123650386Y-70131595D01*
X123638427Y-70125203D01*
X123759962Y-70025462D01*
X123870405Y-69890887D01*
X123952472Y-69737352D01*
X124003008Y-69570756D01*
X124020072Y-69397502D01*
X124020072Y-68872498D01*
X124003008Y-68699244D01*
X123952472Y-68532648D01*
X123870405Y-68379113D01*
X123759962Y-68244538D01*
X123733109Y-68222500D01*
X123759962Y-68200462D01*
X123764445Y-68195000D01*
X125999335Y-68195000D01*
X126035820Y-68214502D01*
X126155518Y-68250812D01*
X126280000Y-68263072D01*
X127180000Y-68263072D01*
X127304482Y-68250812D01*
X127424180Y-68214502D01*
X127534494Y-68155537D01*
X127631185Y-68076185D01*
X127710537Y-67979494D01*
X127769502Y-67869180D01*
X127805812Y-67749482D01*
X127818072Y-67625000D01*
X127818072Y-67100909D01*
X127832313Y-67096589D01*
X127986059Y-67014411D01*
X128120817Y-66903817D01*
X128148534Y-66870044D01*
X128463006Y-66555572D01*
X128847002Y-66555572D01*
X129020256Y-66538508D01*
X129122818Y-66507396D01*
X129781428Y-67166007D01*
X129781428Y-67575002D01*
X129798492Y-67748256D01*
X129849028Y-67914852D01*
X129931095Y-68068387D01*
X130041538Y-68202962D01*
X130176113Y-68313405D01*
X130329648Y-68395472D01*
X130496244Y-68446008D01*
X130669498Y-68463072D01*
X131194502Y-68463072D01*
X131367756Y-68446008D01*
X131534352Y-68395472D01*
X131687887Y-68313405D01*
X131769137Y-68246724D01*
X131793315Y-68276185D01*
X131890006Y-68355537D01*
X132000320Y-68414502D01*
X132120018Y-68450812D01*
X132244500Y-68463072D01*
X132471250Y-68460000D01*
X132630000Y-68301250D01*
X132630000Y-67252000D01*
X132884000Y-67252000D01*
X132884000Y-68301250D01*
X133042750Y-68460000D01*
X133269500Y-68463072D01*
X133393982Y-68450812D01*
X133513680Y-68414502D01*
X133623994Y-68355537D01*
X133720685Y-68276185D01*
X133800037Y-68179494D01*
X133859002Y-68069180D01*
X133895312Y-67949482D01*
X133907572Y-67825000D01*
X133904500Y-67410750D01*
X133745750Y-67252000D01*
X132884000Y-67252000D01*
X132630000Y-67252000D01*
X132610000Y-67252000D01*
X132610000Y-66998000D01*
X132630000Y-66998000D01*
X132630000Y-65948750D01*
X132884000Y-65948750D01*
X132884000Y-66998000D01*
X133745750Y-66998000D01*
X133904500Y-66839250D01*
X133907572Y-66425000D01*
X133895312Y-66300518D01*
X133859002Y-66180820D01*
X133800037Y-66070506D01*
X133720685Y-65973815D01*
X133623994Y-65894463D01*
X133513680Y-65835498D01*
X133393982Y-65799188D01*
X133269500Y-65786928D01*
X133042750Y-65790000D01*
X132884000Y-65948750D01*
X132630000Y-65948750D01*
X132471250Y-65790000D01*
X132244500Y-65786928D01*
X132120018Y-65799188D01*
X132000320Y-65835498D01*
X131890006Y-65894463D01*
X131793315Y-65973815D01*
X131769137Y-66003276D01*
X131687887Y-65936595D01*
X131534352Y-65854528D01*
X131367756Y-65803992D01*
X131194502Y-65786928D01*
X130905507Y-65786928D01*
X130523578Y-65405000D01*
X130643106Y-65285473D01*
X130669498Y-65288072D01*
X131194502Y-65288072D01*
X131367756Y-65271008D01*
X131534352Y-65220472D01*
X131687887Y-65138405D01*
X131769137Y-65071724D01*
X131793315Y-65101185D01*
X131890006Y-65180537D01*
X132000320Y-65239502D01*
X132120018Y-65275812D01*
X132244500Y-65288072D01*
X132471250Y-65285000D01*
X132630000Y-65126250D01*
X132630000Y-64077000D01*
X132884000Y-64077000D01*
X132884000Y-65126250D01*
X133042750Y-65285000D01*
X133269500Y-65288072D01*
X133393982Y-65275812D01*
X133513680Y-65239502D01*
X133623994Y-65180537D01*
X133720685Y-65101185D01*
X133800037Y-65004494D01*
X133859002Y-64894180D01*
X133895312Y-64774482D01*
X133907572Y-64650000D01*
X133906163Y-64460000D01*
X135999928Y-64460000D01*
X136012188Y-64584482D01*
X136048498Y-64704180D01*
X136107463Y-64814494D01*
X136186815Y-64911185D01*
X136283506Y-64990537D01*
X136393820Y-65049502D01*
X136513518Y-65085812D01*
X136638000Y-65098072D01*
X138452250Y-65095000D01*
X138611000Y-64936250D01*
X138611000Y-63912000D01*
X136161750Y-63912000D01*
X136003000Y-64070750D01*
X135999928Y-64460000D01*
X133906163Y-64460000D01*
X133904500Y-64235750D01*
X133745750Y-64077000D01*
X132884000Y-64077000D01*
X132630000Y-64077000D01*
X132610000Y-64077000D01*
X132610000Y-63823000D01*
X132630000Y-63823000D01*
X132630000Y-62773750D01*
X132884000Y-62773750D01*
X132884000Y-63823000D01*
X133745750Y-63823000D01*
X133904500Y-63664250D01*
X133907572Y-63250000D01*
X133895312Y-63125518D01*
X133890605Y-63110000D01*
X135999928Y-63110000D01*
X136003000Y-63499250D01*
X136161750Y-63658000D01*
X138611000Y-63658000D01*
X138611000Y-62633750D01*
X138452250Y-62475000D01*
X136638000Y-62471928D01*
X136513518Y-62484188D01*
X136393820Y-62520498D01*
X136283506Y-62579463D01*
X136186815Y-62658815D01*
X136107463Y-62755506D01*
X136048498Y-62865820D01*
X136012188Y-62985518D01*
X135999928Y-63110000D01*
X133890605Y-63110000D01*
X133859002Y-63005820D01*
X133800037Y-62895506D01*
X133720685Y-62798815D01*
X133623994Y-62719463D01*
X133513680Y-62660498D01*
X133393982Y-62624188D01*
X133269500Y-62611928D01*
X133042750Y-62615000D01*
X132884000Y-62773750D01*
X132630000Y-62773750D01*
X132471250Y-62615000D01*
X132244500Y-62611928D01*
X132120018Y-62624188D01*
X132000320Y-62660498D01*
X131890006Y-62719463D01*
X131793315Y-62798815D01*
X131769137Y-62828276D01*
X131687887Y-62761595D01*
X131534352Y-62679528D01*
X131367756Y-62628992D01*
X131194502Y-62611928D01*
X130669498Y-62611928D01*
X130496244Y-62628992D01*
X130329648Y-62679528D01*
X130176113Y-62761595D01*
X130041538Y-62872038D01*
X129931095Y-63006613D01*
X129849028Y-63160148D01*
X129798492Y-63326744D01*
X129781428Y-63499998D01*
X129781428Y-63643993D01*
X129735072Y-63690349D01*
X129735072Y-63317498D01*
X129718008Y-63144244D01*
X129667472Y-62977648D01*
X129585405Y-62824113D01*
X129474962Y-62689538D01*
X129340387Y-62579095D01*
X129313731Y-62564847D01*
X129655864Y-62222714D01*
X129717150Y-62255472D01*
X129883746Y-62306008D01*
X130057000Y-62323072D01*
X130557000Y-62323072D01*
X130730254Y-62306008D01*
X130896850Y-62255472D01*
X131050386Y-62173405D01*
X131184962Y-62062962D01*
X131257000Y-61975183D01*
X131329038Y-62062962D01*
%TA.AperFunction,Conductor*%
D20*
G36*
X131329038Y-62062962D02*
G01*
X131463614Y-62173405D01*
X131617150Y-62255472D01*
X131783746Y-62306008D01*
X131957000Y-62323072D01*
X132056269Y-62323072D01*
X132062493Y-62324960D01*
X132265963Y-62345000D01*
X139387037Y-62345000D01*
X139590507Y-62324960D01*
X139851581Y-62245764D01*
X139875326Y-62233072D01*
X140310001Y-62233072D01*
X140310001Y-62472822D01*
X139023750Y-62475000D01*
X138865000Y-62633750D01*
X138865000Y-63658000D01*
X138885000Y-63658000D01*
X138885000Y-63912000D01*
X138865000Y-63912000D01*
X138865000Y-64936250D01*
X139023750Y-65095000D01*
X140310001Y-65097178D01*
X140310000Y-81247721D01*
X140295278Y-81397869D01*
X140261047Y-81511246D01*
X140205446Y-81615817D01*
X140130594Y-81707595D01*
X140109023Y-81725440D01*
X82218055Y-81787505D01*
X82214183Y-81785446D01*
X82122405Y-81710594D01*
X82046909Y-81619335D01*
X81990581Y-81515160D01*
X81955560Y-81402024D01*
X81940000Y-81253979D01*
X81940000Y-78290495D01*
X84121000Y-78290495D01*
X84121000Y-78681505D01*
X84197282Y-79065003D01*
X84346915Y-79426250D01*
X84564149Y-79751364D01*
X84840636Y-80027851D01*
X85165750Y-80245085D01*
X85526997Y-80394718D01*
X85910495Y-80471000D01*
X86301505Y-80471000D01*
X86685003Y-80394718D01*
X87046250Y-80245085D01*
X87371364Y-80027851D01*
X87647851Y-79751364D01*
X87865085Y-79426250D01*
X88014718Y-79065003D01*
X88091000Y-78681505D01*
X88091000Y-78290495D01*
X88015215Y-77909495D01*
X132635000Y-77909495D01*
X132635000Y-78300505D01*
X132711282Y-78684003D01*
X132860915Y-79045250D01*
X133078149Y-79370364D01*
X133354636Y-79646851D01*
X133679750Y-79864085D01*
X134040997Y-80013718D01*
X134424495Y-80090000D01*
X134815505Y-80090000D01*
X135199003Y-80013718D01*
X135560250Y-79864085D01*
X135885364Y-79646851D01*
X136161851Y-79370364D01*
X136379085Y-79045250D01*
X136528718Y-78684003D01*
X136605000Y-78300505D01*
X136605000Y-77909495D01*
X136528718Y-77525997D01*
X136379085Y-77164750D01*
X136161851Y-76839636D01*
X135885364Y-76563149D01*
X135560250Y-76345915D01*
X135199003Y-76196282D01*
X134815505Y-76120000D01*
X134424495Y-76120000D01*
X134040997Y-76196282D01*
X133679750Y-76345915D01*
X133354636Y-76563149D01*
X133078149Y-76839636D01*
X132860915Y-77164750D01*
X132711282Y-77525997D01*
X132635000Y-77909495D01*
X88015215Y-77909495D01*
X88014718Y-77906997D01*
X87865085Y-77545750D01*
X87647851Y-77220636D01*
X87371364Y-76944149D01*
X87046250Y-76726915D01*
X86818312Y-76632500D01*
X93657928Y-76632500D01*
X93670188Y-76756982D01*
X93706498Y-76876680D01*
X93765463Y-76986994D01*
X93844815Y-77083685D01*
X93941506Y-77163037D01*
X94051820Y-77222002D01*
X94171518Y-77258312D01*
X94296000Y-77270572D01*
X94710250Y-77267500D01*
X94869000Y-77108750D01*
X94869000Y-76247000D01*
X95123000Y-76247000D01*
X95123000Y-77108750D01*
X95281750Y-77267500D01*
X95696000Y-77270572D01*
X95820482Y-77258312D01*
X95940180Y-77222002D01*
X96050494Y-77163037D01*
X96147185Y-77083685D01*
X96226537Y-76986994D01*
X96285502Y-76876680D01*
X96321812Y-76756982D01*
X96334072Y-76632500D01*
X98102928Y-76632500D01*
X98115188Y-76756982D01*
X98151498Y-76876680D01*
X98210463Y-76986994D01*
X98289815Y-77083685D01*
X98386506Y-77163037D01*
X98496820Y-77222002D01*
X98616518Y-77258312D01*
X98741000Y-77270572D01*
X99155250Y-77267500D01*
X99314000Y-77108750D01*
X99314000Y-76247000D01*
X99568000Y-76247000D01*
X99568000Y-77108750D01*
X99726750Y-77267500D01*
X100141000Y-77270572D01*
X100265482Y-77258312D01*
X100385180Y-77222002D01*
X100495494Y-77163037D01*
X100592185Y-77083685D01*
X100671537Y-76986994D01*
X100730502Y-76876680D01*
X100766812Y-76756982D01*
X100779072Y-76632500D01*
X101912928Y-76632500D01*
X101925188Y-76756982D01*
X101961498Y-76876680D01*
X102020463Y-76986994D01*
X102099815Y-77083685D01*
X102196506Y-77163037D01*
X102306820Y-77222002D01*
X102426518Y-77258312D01*
X102551000Y-77270572D01*
X102965250Y-77267500D01*
X103124000Y-77108750D01*
X103124000Y-76247000D01*
X103378000Y-76247000D01*
X103378000Y-77108750D01*
X103536750Y-77267500D01*
X103951000Y-77270572D01*
X104075482Y-77258312D01*
X104195180Y-77222002D01*
X104305494Y-77163037D01*
X104402185Y-77083685D01*
X104481537Y-76986994D01*
X104540502Y-76876680D01*
X104576812Y-76756982D01*
X104589072Y-76632500D01*
X105722928Y-76632500D01*
X105735188Y-76756982D01*
X105771498Y-76876680D01*
X105830463Y-76986994D01*
X105909815Y-77083685D01*
X106006506Y-77163037D01*
X106116820Y-77222002D01*
X106236518Y-77258312D01*
X106361000Y-77270572D01*
X106775250Y-77267500D01*
X106934000Y-77108750D01*
X106934000Y-76247000D01*
X107188000Y-76247000D01*
X107188000Y-77108750D01*
X107346750Y-77267500D01*
X107761000Y-77270572D01*
X107885482Y-77258312D01*
X108005180Y-77222002D01*
X108115494Y-77163037D01*
X108212185Y-77083685D01*
X108291537Y-76986994D01*
X108350502Y-76876680D01*
X108386812Y-76756982D01*
X108399072Y-76632500D01*
X109532928Y-76632500D01*
X109545188Y-76756982D01*
X109581498Y-76876680D01*
X109640463Y-76986994D01*
X109719815Y-77083685D01*
X109816506Y-77163037D01*
X109926820Y-77222002D01*
X110046518Y-77258312D01*
X110171000Y-77270572D01*
X110585250Y-77267500D01*
X110744000Y-77108750D01*
X110744000Y-76247000D01*
X110998000Y-76247000D01*
X110998000Y-77108750D01*
X111156750Y-77267500D01*
X111571000Y-77270572D01*
X111695482Y-77258312D01*
X111815180Y-77222002D01*
X111925494Y-77163037D01*
X112022185Y-77083685D01*
X112101537Y-76986994D01*
X112160502Y-76876680D01*
X112196812Y-76756982D01*
X112209072Y-76632500D01*
X112206000Y-76405750D01*
X112047250Y-76247000D01*
X110998000Y-76247000D01*
X110744000Y-76247000D01*
X109694750Y-76247000D01*
X109536000Y-76405750D01*
X109532928Y-76632500D01*
X108399072Y-76632500D01*
X108396000Y-76405750D01*
X108237250Y-76247000D01*
X107188000Y-76247000D01*
X106934000Y-76247000D01*
X105884750Y-76247000D01*
X105726000Y-76405750D01*
X105722928Y-76632500D01*
X104589072Y-76632500D01*
X104586000Y-76405750D01*
X104427250Y-76247000D01*
X103378000Y-76247000D01*
X103124000Y-76247000D01*
X102074750Y-76247000D01*
X101916000Y-76405750D01*
X101912928Y-76632500D01*
X100779072Y-76632500D01*
X100776000Y-76405750D01*
X100617250Y-76247000D01*
X99568000Y-76247000D01*
X99314000Y-76247000D01*
X98264750Y-76247000D01*
X98106000Y-76405750D01*
X98102928Y-76632500D01*
X96334072Y-76632500D01*
X96331000Y-76405750D01*
X96172250Y-76247000D01*
X95123000Y-76247000D01*
X94869000Y-76247000D01*
X93819750Y-76247000D01*
X93661000Y-76405750D01*
X93657928Y-76632500D01*
X86818312Y-76632500D01*
X86685003Y-76577282D01*
X86301505Y-76501000D01*
X85910495Y-76501000D01*
X85526997Y-76577282D01*
X85165750Y-76726915D01*
X84840636Y-76944149D01*
X84564149Y-77220636D01*
X84346915Y-77545750D01*
X84197282Y-77906997D01*
X84121000Y-78290495D01*
X81940000Y-78290495D01*
X81940000Y-72717178D01*
X83226250Y-72715000D01*
X83385000Y-72556250D01*
X83385000Y-71532000D01*
X83639000Y-71532000D01*
X83639000Y-72556250D01*
X83797750Y-72715000D01*
X85612000Y-72718072D01*
X85736482Y-72705812D01*
X85856180Y-72669502D01*
X85966494Y-72610537D01*
X86063185Y-72531185D01*
X86142537Y-72434494D01*
X86201502Y-72324180D01*
X86237812Y-72204482D01*
X86250072Y-72080000D01*
X86247000Y-71690750D01*
X86088250Y-71532000D01*
X83639000Y-71532000D01*
X83385000Y-71532000D01*
X83365000Y-71532000D01*
X83365000Y-71278000D01*
X83385000Y-71278000D01*
X83385000Y-70253750D01*
X83639000Y-70253750D01*
X83639000Y-71278000D01*
X86088250Y-71278000D01*
X86247000Y-71119250D01*
X86250072Y-70730000D01*
X86237812Y-70605518D01*
X86201502Y-70485820D01*
X86142537Y-70375506D01*
X86063185Y-70278815D01*
X85966494Y-70199463D01*
X85856180Y-70140498D01*
X85736482Y-70104188D01*
X85612000Y-70091928D01*
X83797750Y-70095000D01*
X83639000Y-70253750D01*
X83385000Y-70253750D01*
X83226250Y-70095000D01*
X81940000Y-70092822D01*
X81940000Y-69853072D01*
X82628674Y-69853072D01*
X82652419Y-69865764D01*
X82913493Y-69944960D01*
X83116963Y-69965000D01*
X87698037Y-69965000D01*
X87901507Y-69944960D01*
X87907731Y-69943072D01*
X88200000Y-69943072D01*
X88373254Y-69926008D01*
X88539850Y-69875472D01*
X88693386Y-69793405D01*
X88827962Y-69682962D01*
X88900000Y-69595183D01*
X88972038Y-69682962D01*
X89106614Y-69793405D01*
X89260150Y-69875472D01*
X89426746Y-69926008D01*
X89600000Y-69943072D01*
X90100000Y-69943072D01*
X90273254Y-69926008D01*
X90439850Y-69875472D01*
X90593386Y-69793405D01*
X90727962Y-69682962D01*
X90838405Y-69548386D01*
X90882976Y-69465000D01*
X91373555Y-69465000D01*
X91378038Y-69470462D01*
X91512613Y-69580905D01*
X91666148Y-69662972D01*
X91832744Y-69713508D01*
X92005998Y-69730572D01*
X92906002Y-69730572D01*
X93079256Y-69713508D01*
X93245852Y-69662972D01*
X93399387Y-69580905D01*
X93533962Y-69470462D01*
X93538445Y-69465000D01*
X96441614Y-69465000D01*
X96567614Y-69568405D01*
X96721150Y-69650472D01*
X96887746Y-69701008D01*
X97061000Y-69718072D01*
X98011000Y-69718072D01*
X98184254Y-69701008D01*
X98350850Y-69650472D01*
X98504386Y-69568405D01*
X98630386Y-69465000D01*
X101034446Y-69465000D01*
X101061498Y-69554180D01*
X101120463Y-69664494D01*
X101199815Y-69761185D01*
X101296506Y-69840537D01*
X101406820Y-69899502D01*
X101526518Y-69935812D01*
X101651000Y-69948072D01*
X102216000Y-69948072D01*
X102216001Y-73369279D01*
X102173038Y-73404538D01*
X102168555Y-73410000D01*
X100523445Y-73410000D01*
X100518962Y-73404538D01*
X100384387Y-73294095D01*
X100230852Y-73212028D01*
X100064256Y-73161492D01*
X99891002Y-73144428D01*
X98990998Y-73144428D01*
X98817744Y-73161492D01*
X98651148Y-73212028D01*
X98497613Y-73294095D01*
X98363038Y-73404538D01*
X98358555Y-73410000D01*
X96078445Y-73410000D01*
X96073962Y-73404538D01*
X95939387Y-73294095D01*
X95785852Y-73212028D01*
X95619256Y-73161492D01*
X95446002Y-73144428D01*
X94545998Y-73144428D01*
X94372744Y-73161492D01*
X94206148Y-73212028D01*
X94052613Y-73294095D01*
X93918038Y-73404538D01*
X93807595Y-73539113D01*
X93725528Y-73692648D01*
X93674992Y-73859244D01*
X93657928Y-74032498D01*
X93657928Y-74557502D01*
X93674992Y-74730756D01*
X93725528Y-74897352D01*
X93807595Y-75050887D01*
X93874276Y-75132137D01*
X93844815Y-75156315D01*
X93765463Y-75253006D01*
X93706498Y-75363320D01*
X93670188Y-75483018D01*
X93657928Y-75607500D01*
X93661000Y-75834250D01*
X93819750Y-75993000D01*
X94869000Y-75993000D01*
X94869000Y-75973000D01*
X95123000Y-75973000D01*
X95123000Y-75993000D01*
X96172250Y-75993000D01*
X96331000Y-75834250D01*
X96334072Y-75607500D01*
X96321812Y-75483018D01*
X96285502Y-75363320D01*
X96226537Y-75253006D01*
X96166623Y-75180000D01*
X98270377Y-75180000D01*
X98210463Y-75253006D01*
X98151498Y-75363320D01*
X98115188Y-75483018D01*
X98102928Y-75607500D01*
X98106000Y-75834250D01*
X98264750Y-75993000D01*
X99314000Y-75993000D01*
X99314000Y-75973000D01*
X99568000Y-75973000D01*
X99568000Y-75993000D01*
X100617250Y-75993000D01*
X100776000Y-75834250D01*
X100779072Y-75607500D01*
X100766812Y-75483018D01*
X100730502Y-75363320D01*
X100671537Y-75253006D01*
X100611623Y-75180000D01*
X102080377Y-75180000D01*
X102020463Y-75253006D01*
X101961498Y-75363320D01*
X101925188Y-75483018D01*
X101912928Y-75607500D01*
X101916000Y-75834250D01*
X102074750Y-75993000D01*
X103124000Y-75993000D01*
X103124000Y-75973000D01*
X103378000Y-75973000D01*
X103378000Y-75993000D01*
X104427250Y-75993000D01*
X104586000Y-75834250D01*
X104589072Y-75607500D01*
X104576812Y-75483018D01*
X104540502Y-75363320D01*
X104481537Y-75253006D01*
X104421623Y-75180000D01*
X105890377Y-75180000D01*
X105830463Y-75253006D01*
X105771498Y-75363320D01*
X105735188Y-75483018D01*
X105722928Y-75607500D01*
X105726000Y-75834250D01*
X105884750Y-75993000D01*
X106934000Y-75993000D01*
X106934000Y-75973000D01*
X107188000Y-75973000D01*
X107188000Y-75993000D01*
X108237250Y-75993000D01*
X108396000Y-75834250D01*
X108399072Y-75607500D01*
X108386812Y-75483018D01*
X108350502Y-75363320D01*
X108291537Y-75253006D01*
X108231623Y-75180000D01*
X109700377Y-75180000D01*
X109640463Y-75253006D01*
X109581498Y-75363320D01*
X109545188Y-75483018D01*
X109532928Y-75607500D01*
X109536000Y-75834250D01*
X109694750Y-75993000D01*
X110744000Y-75993000D01*
X110744000Y-75973000D01*
X110998000Y-75973000D01*
X110998000Y-75993000D01*
X112047250Y-75993000D01*
X112206000Y-75834250D01*
X112209072Y-75607500D01*
X112196812Y-75483018D01*
X112160502Y-75363320D01*
X112101537Y-75253006D01*
X112022185Y-75156315D01*
X111992724Y-75132137D01*
X112059405Y-75050887D01*
X112141472Y-74897352D01*
X112192008Y-74730756D01*
X112209072Y-74557502D01*
X112209072Y-74032498D01*
X112192008Y-73859244D01*
X112141472Y-73692648D01*
X112059405Y-73539113D01*
X112043720Y-73520000D01*
X121318928Y-73520000D01*
X121331188Y-73644482D01*
X121367498Y-73764180D01*
X121426463Y-73874494D01*
X121505815Y-73971185D01*
X121602506Y-74050537D01*
X121712820Y-74109502D01*
X121832518Y-74145812D01*
X121957000Y-74158072D01*
X122396250Y-74155000D01*
X122555000Y-73996250D01*
X122555000Y-73147000D01*
X122809000Y-73147000D01*
X122809000Y-73996250D01*
X122967750Y-74155000D01*
X123407000Y-74158072D01*
X123531482Y-74145812D01*
X123651180Y-74109502D01*
X123761494Y-74050537D01*
X123858185Y-73971185D01*
X123937537Y-73874494D01*
X123996502Y-73764180D01*
X124032812Y-73644482D01*
X124045072Y-73520000D01*
X124042000Y-73305750D01*
X123883250Y-73147000D01*
X122809000Y-73147000D01*
X122555000Y-73147000D01*
X121480750Y-73147000D01*
X121322000Y-73305750D01*
X121318928Y-73520000D01*
X112043720Y-73520000D01*
X111948962Y-73404538D01*
X111814387Y-73294095D01*
X111660852Y-73212028D01*
X111494256Y-73161492D01*
X111321002Y-73144428D01*
X110420998Y-73144428D01*
X110247744Y-73161492D01*
X110081148Y-73212028D01*
X109927613Y-73294095D01*
X109793038Y-73404538D01*
X109788555Y-73410000D01*
X108143445Y-73410000D01*
X108138962Y-73404538D01*
X108004387Y-73294095D01*
X107850852Y-73212028D01*
X107684256Y-73161492D01*
X107511002Y-73144428D01*
X106610998Y-73144428D01*
X106437744Y-73161492D01*
X106271148Y-73212028D01*
X106117613Y-73294095D01*
X105983038Y-73404538D01*
X105978555Y-73410000D01*
X104333445Y-73410000D01*
X104328962Y-73404538D01*
X104194387Y-73294095D01*
X104040852Y-73212028D01*
X103986000Y-73195389D01*
X103986000Y-69774468D01*
X104002185Y-69761185D01*
X104081537Y-69664494D01*
X104140502Y-69554180D01*
X104176812Y-69434482D01*
X104189072Y-69310000D01*
X104189072Y-68510000D01*
X104176812Y-68385518D01*
X104140502Y-68265820D01*
X104102647Y-68195000D01*
X104835555Y-68195000D01*
X104840038Y-68200462D01*
X104974613Y-68310905D01*
X105128148Y-68392972D01*
X105294744Y-68443508D01*
X105467998Y-68460572D01*
X106368002Y-68460572D01*
X106541256Y-68443508D01*
X106707852Y-68392972D01*
X106861387Y-68310905D01*
X106988998Y-68206177D01*
X107027595Y-68278386D01*
X107138038Y-68412962D01*
X107272614Y-68523405D01*
X107426150Y-68605472D01*
X107592746Y-68656008D01*
X107766000Y-68673072D01*
X108266000Y-68673072D01*
X108439254Y-68656008D01*
X108605850Y-68605472D01*
X108759386Y-68523405D01*
X108893962Y-68412962D01*
X108966000Y-68325183D01*
X109038038Y-68412962D01*
X109172614Y-68523405D01*
X109326150Y-68605472D01*
X109492746Y-68656008D01*
X109666000Y-68673072D01*
X110166000Y-68673072D01*
X110339254Y-68656008D01*
X110505850Y-68605472D01*
X110659386Y-68523405D01*
X110793962Y-68412962D01*
X110904405Y-68278386D01*
X110948976Y-68195000D01*
X113979555Y-68195000D01*
X113984038Y-68200462D01*
X114118613Y-68310905D01*
X114272148Y-68392972D01*
X114438744Y-68443508D01*
X114611998Y-68460572D01*
X115512002Y-68460572D01*
X115685256Y-68443508D01*
X115851852Y-68392972D01*
X116005387Y-68310905D01*
X116139962Y-68200462D01*
X116144445Y-68195000D01*
X117204886Y-68195000D01*
X117236095Y-68253387D01*
X117346538Y-68387962D01*
X117481113Y-68498405D01*
X117634648Y-68580472D01*
X117801244Y-68631008D01*
X117974498Y-68648072D01*
X118499502Y-68648072D01*
X118672756Y-68631008D01*
X118839352Y-68580472D01*
X118992887Y-68498405D01*
X119127462Y-68387962D01*
X119149500Y-68361109D01*
X119171538Y-68387962D01*
X119306113Y-68498405D01*
X119459648Y-68580472D01*
X119626244Y-68631008D01*
X119799498Y-68648072D01*
X120324502Y-68648072D01*
X120497756Y-68631008D01*
X120664352Y-68580472D01*
X120817887Y-68498405D01*
X120952462Y-68387962D01*
X121062905Y-68253387D01*
X121094114Y-68195000D01*
X121599555Y-68195000D01*
X121604038Y-68200462D01*
X121630891Y-68222500D01*
X121604038Y-68244538D01*
X121493595Y-68379113D01*
X121411528Y-68532648D01*
X121360992Y-68699244D01*
X121343928Y-68872498D01*
X121343928Y-69397502D01*
X121360992Y-69570756D01*
X121411528Y-69737352D01*
X121493595Y-69890887D01*
X121604038Y-70025462D01*
X121725573Y-70125203D01*
X121713614Y-70131595D01*
X121579038Y-70242038D01*
X121468595Y-70376614D01*
X121386528Y-70530150D01*
X121335992Y-70696746D01*
X121318928Y-70870000D01*
X121318928Y-71370000D01*
X121335992Y-71543254D01*
X121386528Y-71709850D01*
X121468595Y-71863386D01*
X121579038Y-71997962D01*
X121585594Y-72003342D01*
X121505815Y-72068815D01*
X121426463Y-72165506D01*
X121367498Y-72275820D01*
X121331188Y-72395518D01*
X121318928Y-72520000D01*
X121322000Y-72734250D01*
X121480750Y-72893000D01*
X122555000Y-72893000D01*
X122555000Y-72873000D01*
X122809000Y-72873000D01*
X122809000Y-72893000D01*
X123883250Y-72893000D01*
X124042000Y-72734250D01*
X124045072Y-72520000D01*
X124032812Y-72395518D01*
X123996502Y-72275820D01*
X123937537Y-72165506D01*
X123858185Y-72068815D01*
X123778406Y-72003342D01*
X123784962Y-71997962D01*
X123895405Y-71863386D01*
X123977472Y-71709850D01*
X124028008Y-71543254D01*
X124045072Y-71370000D01*
X124045072Y-70870000D01*
X124028008Y-70696746D01*
X123977472Y-70530150D01*
X123895405Y-70376614D01*
X123784962Y-70242038D01*
X123650386Y-70131595D01*
X123638427Y-70125203D01*
X123759962Y-70025462D01*
X123870405Y-69890887D01*
X123952472Y-69737352D01*
X124003008Y-69570756D01*
X124020072Y-69397502D01*
X124020072Y-68872498D01*
X124003008Y-68699244D01*
X123952472Y-68532648D01*
X123870405Y-68379113D01*
X123759962Y-68244538D01*
X123733109Y-68222500D01*
X123759962Y-68200462D01*
X123764445Y-68195000D01*
X125999335Y-68195000D01*
X126035820Y-68214502D01*
X126155518Y-68250812D01*
X126280000Y-68263072D01*
X127180000Y-68263072D01*
X127304482Y-68250812D01*
X127424180Y-68214502D01*
X127534494Y-68155537D01*
X127631185Y-68076185D01*
X127710537Y-67979494D01*
X127769502Y-67869180D01*
X127805812Y-67749482D01*
X127818072Y-67625000D01*
X127818072Y-67100909D01*
X127832313Y-67096589D01*
X127986059Y-67014411D01*
X128120817Y-66903817D01*
X128148534Y-66870044D01*
X128463006Y-66555572D01*
X128847002Y-66555572D01*
X129020256Y-66538508D01*
X129122818Y-66507396D01*
X129781428Y-67166007D01*
X129781428Y-67575002D01*
X129798492Y-67748256D01*
X129849028Y-67914852D01*
X129931095Y-68068387D01*
X130041538Y-68202962D01*
X130176113Y-68313405D01*
X130329648Y-68395472D01*
X130496244Y-68446008D01*
X130669498Y-68463072D01*
X131194502Y-68463072D01*
X131367756Y-68446008D01*
X131534352Y-68395472D01*
X131687887Y-68313405D01*
X131769137Y-68246724D01*
X131793315Y-68276185D01*
X131890006Y-68355537D01*
X132000320Y-68414502D01*
X132120018Y-68450812D01*
X132244500Y-68463072D01*
X132471250Y-68460000D01*
X132630000Y-68301250D01*
X132630000Y-67252000D01*
X132884000Y-67252000D01*
X132884000Y-68301250D01*
X133042750Y-68460000D01*
X133269500Y-68463072D01*
X133393982Y-68450812D01*
X133513680Y-68414502D01*
X133623994Y-68355537D01*
X133720685Y-68276185D01*
X133800037Y-68179494D01*
X133859002Y-68069180D01*
X133895312Y-67949482D01*
X133907572Y-67825000D01*
X133904500Y-67410750D01*
X133745750Y-67252000D01*
X132884000Y-67252000D01*
X132630000Y-67252000D01*
X132610000Y-67252000D01*
X132610000Y-66998000D01*
X132630000Y-66998000D01*
X132630000Y-65948750D01*
X132884000Y-65948750D01*
X132884000Y-66998000D01*
X133745750Y-66998000D01*
X133904500Y-66839250D01*
X133907572Y-66425000D01*
X133895312Y-66300518D01*
X133859002Y-66180820D01*
X133800037Y-66070506D01*
X133720685Y-65973815D01*
X133623994Y-65894463D01*
X133513680Y-65835498D01*
X133393982Y-65799188D01*
X133269500Y-65786928D01*
X133042750Y-65790000D01*
X132884000Y-65948750D01*
X132630000Y-65948750D01*
X132471250Y-65790000D01*
X132244500Y-65786928D01*
X132120018Y-65799188D01*
X132000320Y-65835498D01*
X131890006Y-65894463D01*
X131793315Y-65973815D01*
X131769137Y-66003276D01*
X131687887Y-65936595D01*
X131534352Y-65854528D01*
X131367756Y-65803992D01*
X131194502Y-65786928D01*
X130905507Y-65786928D01*
X130523578Y-65405000D01*
X130643106Y-65285473D01*
X130669498Y-65288072D01*
X131194502Y-65288072D01*
X131367756Y-65271008D01*
X131534352Y-65220472D01*
X131687887Y-65138405D01*
X131769137Y-65071724D01*
X131793315Y-65101185D01*
X131890006Y-65180537D01*
X132000320Y-65239502D01*
X132120018Y-65275812D01*
X132244500Y-65288072D01*
X132471250Y-65285000D01*
X132630000Y-65126250D01*
X132630000Y-64077000D01*
X132884000Y-64077000D01*
X132884000Y-65126250D01*
X133042750Y-65285000D01*
X133269500Y-65288072D01*
X133393982Y-65275812D01*
X133513680Y-65239502D01*
X133623994Y-65180537D01*
X133720685Y-65101185D01*
X133800037Y-65004494D01*
X133859002Y-64894180D01*
X133895312Y-64774482D01*
X133907572Y-64650000D01*
X133906163Y-64460000D01*
X135999928Y-64460000D01*
X136012188Y-64584482D01*
X136048498Y-64704180D01*
X136107463Y-64814494D01*
X136186815Y-64911185D01*
X136283506Y-64990537D01*
X136393820Y-65049502D01*
X136513518Y-65085812D01*
X136638000Y-65098072D01*
X138452250Y-65095000D01*
X138611000Y-64936250D01*
X138611000Y-63912000D01*
X136161750Y-63912000D01*
X136003000Y-64070750D01*
X135999928Y-64460000D01*
X133906163Y-64460000D01*
X133904500Y-64235750D01*
X133745750Y-64077000D01*
X132884000Y-64077000D01*
X132630000Y-64077000D01*
X132610000Y-64077000D01*
X132610000Y-63823000D01*
X132630000Y-63823000D01*
X132630000Y-62773750D01*
X132884000Y-62773750D01*
X132884000Y-63823000D01*
X133745750Y-63823000D01*
X133904500Y-63664250D01*
X133907572Y-63250000D01*
X133895312Y-63125518D01*
X133890605Y-63110000D01*
X135999928Y-63110000D01*
X136003000Y-63499250D01*
X136161750Y-63658000D01*
X138611000Y-63658000D01*
X138611000Y-62633750D01*
X138452250Y-62475000D01*
X136638000Y-62471928D01*
X136513518Y-62484188D01*
X136393820Y-62520498D01*
X136283506Y-62579463D01*
X136186815Y-62658815D01*
X136107463Y-62755506D01*
X136048498Y-62865820D01*
X136012188Y-62985518D01*
X135999928Y-63110000D01*
X133890605Y-63110000D01*
X133859002Y-63005820D01*
X133800037Y-62895506D01*
X133720685Y-62798815D01*
X133623994Y-62719463D01*
X133513680Y-62660498D01*
X133393982Y-62624188D01*
X133269500Y-62611928D01*
X133042750Y-62615000D01*
X132884000Y-62773750D01*
X132630000Y-62773750D01*
X132471250Y-62615000D01*
X132244500Y-62611928D01*
X132120018Y-62624188D01*
X132000320Y-62660498D01*
X131890006Y-62719463D01*
X131793315Y-62798815D01*
X131769137Y-62828276D01*
X131687887Y-62761595D01*
X131534352Y-62679528D01*
X131367756Y-62628992D01*
X131194502Y-62611928D01*
X130669498Y-62611928D01*
X130496244Y-62628992D01*
X130329648Y-62679528D01*
X130176113Y-62761595D01*
X130041538Y-62872038D01*
X129931095Y-63006613D01*
X129849028Y-63160148D01*
X129798492Y-63326744D01*
X129781428Y-63499998D01*
X129781428Y-63643993D01*
X129735072Y-63690349D01*
X129735072Y-63317498D01*
X129718008Y-63144244D01*
X129667472Y-62977648D01*
X129585405Y-62824113D01*
X129474962Y-62689538D01*
X129340387Y-62579095D01*
X129313731Y-62564847D01*
X129655864Y-62222714D01*
X129717150Y-62255472D01*
X129883746Y-62306008D01*
X130057000Y-62323072D01*
X130557000Y-62323072D01*
X130730254Y-62306008D01*
X130896850Y-62255472D01*
X131050386Y-62173405D01*
X131184962Y-62062962D01*
X131257000Y-61975183D01*
X131329038Y-62062962D01*
G37*
%TD.AperFunction*%
D19*
X140035819Y-50421555D02*
X140127596Y-50496407D01*
X140203091Y-50587664D01*
X140259419Y-50691844D01*
X140294440Y-50804976D01*
X140310001Y-50953031D01*
X140310001Y-56822822D01*
X139023750Y-56825000D01*
X138865000Y-56983750D01*
X138865000Y-58008000D01*
X138885000Y-58008000D01*
X138885000Y-58262000D01*
X138865000Y-58262000D01*
X138865000Y-59286250D01*
X139023750Y-59445000D01*
X140310001Y-59447178D01*
X140310001Y-59686928D01*
X139875326Y-59686928D01*
X139851581Y-59674236D01*
X139590507Y-59595040D01*
X139387037Y-59575000D01*
X132265963Y-59575000D01*
X132062493Y-59595040D01*
X132056269Y-59596928D01*
X131957000Y-59596928D01*
X131783746Y-59613992D01*
X131617150Y-59664528D01*
X131463614Y-59746595D01*
X131329038Y-59857038D01*
X131257000Y-59944817D01*
X131184962Y-59857038D01*
X131050386Y-59746595D01*
X130896850Y-59664528D01*
X130730254Y-59613992D01*
X130557000Y-59596928D01*
X130057000Y-59596928D01*
X129883746Y-59613992D01*
X129717150Y-59664528D01*
X129563614Y-59746595D01*
X129429038Y-59857038D01*
X129318595Y-59991614D01*
X129236528Y-60145150D01*
X129221521Y-60194623D01*
X129172941Y-60220589D01*
X129172939Y-60220590D01*
X129172940Y-60220590D01*
X129071953Y-60303468D01*
X129071951Y-60303470D01*
X129038183Y-60331183D01*
X129010470Y-60364951D01*
X127801951Y-61573471D01*
X127768184Y-61601183D01*
X127740471Y-61634951D01*
X127740468Y-61634954D01*
X127657590Y-61735941D01*
X127575412Y-61889687D01*
X127524805Y-62056510D01*
X127507719Y-62230000D01*
X127512001Y-62273476D01*
X127512001Y-62547886D01*
X127453613Y-62579095D01*
X127319038Y-62689538D01*
X127208595Y-62824113D01*
X127126528Y-62977648D01*
X127075992Y-63144244D01*
X127058928Y-63317498D01*
X127058928Y-63842502D01*
X127075992Y-64015756D01*
X127126528Y-64182352D01*
X127182560Y-64287180D01*
X127180000Y-64286928D01*
X126752507Y-64286928D01*
X125061072Y-62595494D01*
X125061072Y-62549000D01*
X125044008Y-62375746D01*
X124993472Y-62209150D01*
X124911405Y-62055614D01*
X124800962Y-61921038D01*
X124794406Y-61915658D01*
X124874185Y-61850185D01*
X124953537Y-61753494D01*
X125012502Y-61643180D01*
X125048812Y-61523482D01*
X125061072Y-61399000D01*
X125058000Y-61184750D01*
X124899250Y-61026000D01*
X123825000Y-61026000D01*
X123825000Y-61046000D01*
X123571000Y-61046000D01*
X123571000Y-61026000D01*
X122496750Y-61026000D01*
X122338000Y-61184750D01*
X122334928Y-61399000D01*
X122347188Y-61523482D01*
X122383498Y-61643180D01*
X122442463Y-61753494D01*
X122521815Y-61850185D01*
X122601594Y-61915658D01*
X122595038Y-61921038D01*
X122546649Y-61980000D01*
X114669000Y-61980000D01*
X114669000Y-61062072D01*
X115034000Y-61062072D01*
X115158482Y-61049812D01*
X115278180Y-61013502D01*
X115388494Y-60954537D01*
X115485185Y-60875185D01*
X115564537Y-60778494D01*
X115623502Y-60668180D01*
X115659812Y-60548482D01*
X115672072Y-60424000D01*
X115672072Y-60399000D01*
X122334928Y-60399000D01*
X122338000Y-60613250D01*
X122496750Y-60772000D01*
X123571000Y-60772000D01*
X123571000Y-59922750D01*
X123825000Y-59922750D01*
X123825000Y-60772000D01*
X124899250Y-60772000D01*
X125058000Y-60613250D01*
X125061072Y-60399000D01*
X125048812Y-60274518D01*
X125012502Y-60154820D01*
X124953537Y-60044506D01*
X124874185Y-59947815D01*
X124777494Y-59868463D01*
X124667180Y-59809498D01*
X124547482Y-59773188D01*
X124423000Y-59760928D01*
X123983750Y-59764000D01*
X123825000Y-59922750D01*
X123571000Y-59922750D01*
X123412250Y-59764000D01*
X122973000Y-59760928D01*
X122848518Y-59773188D01*
X122728820Y-59809498D01*
X122618506Y-59868463D01*
X122521815Y-59947815D01*
X122442463Y-60044506D01*
X122383498Y-60154820D01*
X122347188Y-60274518D01*
X122334928Y-60399000D01*
X115672072Y-60399000D01*
X115672072Y-58810000D01*
X135999928Y-58810000D01*
X136012188Y-58934482D01*
X136048498Y-59054180D01*
X136107463Y-59164494D01*
X136186815Y-59261185D01*
X136283506Y-59340537D01*
X136393820Y-59399502D01*
X136513518Y-59435812D01*
X136638000Y-59448072D01*
X138452250Y-59445000D01*
X138611000Y-59286250D01*
X138611000Y-58262000D01*
X136161750Y-58262000D01*
X136003000Y-58420750D01*
X135999928Y-58810000D01*
X115672072Y-58810000D01*
X115672072Y-57460000D01*
X135999928Y-57460000D01*
X136003000Y-57849250D01*
X136161750Y-58008000D01*
X138611000Y-58008000D01*
X138611000Y-56983750D01*
X138452250Y-56825000D01*
X136638000Y-56821928D01*
X136513518Y-56834188D01*
X136393820Y-56870498D01*
X136283506Y-56929463D01*
X136186815Y-57008815D01*
X136107463Y-57105506D01*
X136048498Y-57215820D01*
X136012188Y-57335518D01*
X135999928Y-57460000D01*
X115672072Y-57460000D01*
X115672072Y-56924000D01*
X115659812Y-56799518D01*
X115623502Y-56679820D01*
X115564537Y-56569506D01*
X115485185Y-56472815D01*
X115388494Y-56393463D01*
X115278180Y-56334498D01*
X115158482Y-56298188D01*
X115034000Y-56285928D01*
X111534000Y-56285928D01*
X111409518Y-56298188D01*
X111289820Y-56334498D01*
X111179506Y-56393463D01*
X111082815Y-56472815D01*
X111003463Y-56569506D01*
X110962506Y-56646131D01*
X110972072Y-56549000D01*
X110972072Y-54799000D01*
X110942999Y-54503814D01*
X110856896Y-54219972D01*
X110832324Y-54174000D01*
X110895928Y-54174000D01*
X110908188Y-54298482D01*
X110944498Y-54418180D01*
X111003463Y-54528494D01*
X111082815Y-54625185D01*
X111179506Y-54704537D01*
X111289820Y-54763502D01*
X111409518Y-54799812D01*
X111534000Y-54812072D01*
X112998250Y-54809000D01*
X113157000Y-54650250D01*
X113157000Y-52801000D01*
X113411000Y-52801000D01*
X113411000Y-54650250D01*
X113569750Y-54809000D01*
X115034000Y-54812072D01*
X115158482Y-54799812D01*
X115278180Y-54763502D01*
X115388494Y-54704537D01*
X115485185Y-54625185D01*
X115564537Y-54528494D01*
X115623502Y-54418180D01*
X115659812Y-54298482D01*
X115672072Y-54174000D01*
X115669000Y-52959750D01*
X115510250Y-52801000D01*
X113411000Y-52801000D01*
X113157000Y-52801000D01*
X111057750Y-52801000D01*
X110899000Y-52959750D01*
X110895928Y-54174000D01*
X110832324Y-54174000D01*
X110717073Y-53958382D01*
X110528903Y-53729097D01*
X110299618Y-53540927D01*
X110038028Y-53401104D01*
X109754186Y-53315001D01*
X109459000Y-53285928D01*
X107709000Y-53285928D01*
X107413814Y-53315001D01*
X107129972Y-53401104D01*
X106868382Y-53540927D01*
X106639097Y-53729097D01*
X106450927Y-53958382D01*
X106311104Y-54219972D01*
X106225001Y-54503814D01*
X106195928Y-54799000D01*
X106195928Y-56549000D01*
X106225001Y-56844186D01*
X106311104Y-57128028D01*
X106450927Y-57389618D01*
X106639097Y-57618903D01*
X106868382Y-57807073D01*
X107129972Y-57946896D01*
X107413814Y-58032999D01*
X107709000Y-58062072D01*
X109459000Y-58062072D01*
X109754186Y-58032999D01*
X110038028Y-57946896D01*
X110299618Y-57807073D01*
X110528903Y-57618903D01*
X110717073Y-57389618D01*
X110856896Y-57128028D01*
X110895928Y-56999357D01*
X110895928Y-60424000D01*
X110908188Y-60548482D01*
X110944498Y-60668180D01*
X111003463Y-60778494D01*
X111082815Y-60875185D01*
X111179506Y-60954537D01*
X111289820Y-61013502D01*
X111409518Y-61049812D01*
X111534000Y-61062072D01*
X111899001Y-61062072D01*
X111899001Y-61980000D01*
X107935579Y-61980000D01*
X106574532Y-60618954D01*
X106546817Y-60585183D01*
X106513045Y-60557466D01*
X106320536Y-60364958D01*
X106320532Y-60364953D01*
X104415534Y-58459956D01*
X104387817Y-58426183D01*
X104253059Y-58315589D01*
X104099313Y-58233411D01*
X103932490Y-58182805D01*
X103802477Y-58170000D01*
X103802469Y-58170000D01*
X103759000Y-58165719D01*
X103715531Y-58170000D01*
X97579469Y-58170000D01*
X97536000Y-58165719D01*
X97492531Y-58170000D01*
X97492523Y-58170000D01*
X97362510Y-58182805D01*
X97195687Y-58233411D01*
X97041941Y-58315589D01*
X96940953Y-58398468D01*
X96940951Y-58398470D01*
X96907183Y-58426183D01*
X96879470Y-58459951D01*
X91860956Y-63478466D01*
X91827183Y-63506183D01*
X91716589Y-63640942D01*
X91634411Y-63794688D01*
X91603446Y-63896764D01*
X91591219Y-63937072D01*
X91583805Y-63961511D01*
X91571000Y-64091524D01*
X91571000Y-64091531D01*
X91566719Y-64135000D01*
X91571000Y-64178469D01*
X91571001Y-65722886D01*
X91512613Y-65754095D01*
X91378038Y-65864538D01*
X91267595Y-65999113D01*
X91185528Y-66152648D01*
X91134992Y-66319244D01*
X91117928Y-66492498D01*
X91117928Y-67017502D01*
X91134992Y-67190756D01*
X91185528Y-67357352D01*
X91267595Y-67510887D01*
X91378038Y-67645462D01*
X91404891Y-67667500D01*
X91378038Y-67689538D01*
X91373555Y-67695000D01*
X90882976Y-67695000D01*
X90838405Y-67611614D01*
X90727962Y-67477038D01*
X90593386Y-67366595D01*
X90439850Y-67284528D01*
X90273254Y-67233992D01*
X90100000Y-67216928D01*
X89600000Y-67216928D01*
X89426746Y-67233992D01*
X89260150Y-67284528D01*
X89106614Y-67366595D01*
X88972038Y-67477038D01*
X88900000Y-67564817D01*
X88827962Y-67477038D01*
X88693386Y-67366595D01*
X88539850Y-67284528D01*
X88373254Y-67233992D01*
X88200000Y-67216928D01*
X87907731Y-67216928D01*
X87901507Y-67215040D01*
X87698037Y-67195000D01*
X83116963Y-67195000D01*
X82913493Y-67215040D01*
X82652419Y-67294236D01*
X82628674Y-67306928D01*
X81940000Y-67306928D01*
X81940000Y-67067178D01*
X83226250Y-67065000D01*
X83385000Y-66906250D01*
X83385000Y-65882000D01*
X83639000Y-65882000D01*
X83639000Y-66906250D01*
X83797750Y-67065000D01*
X85612000Y-67068072D01*
X85736482Y-67055812D01*
X85856180Y-67019502D01*
X85966494Y-66960537D01*
X86063185Y-66881185D01*
X86142537Y-66784494D01*
X86201502Y-66674180D01*
X86237812Y-66554482D01*
X86250072Y-66430000D01*
X86247000Y-66040750D01*
X86088250Y-65882000D01*
X83639000Y-65882000D01*
X83385000Y-65882000D01*
X83365000Y-65882000D01*
X83365000Y-65628000D01*
X83385000Y-65628000D01*
X83385000Y-64603750D01*
X83639000Y-64603750D01*
X83639000Y-65628000D01*
X86088250Y-65628000D01*
X86247000Y-65469250D01*
X86250072Y-65080000D01*
X86237812Y-64955518D01*
X86201502Y-64835820D01*
X86142537Y-64725506D01*
X86063185Y-64628815D01*
X85966494Y-64549463D01*
X85856180Y-64490498D01*
X85736482Y-64454188D01*
X85612000Y-64441928D01*
X83797750Y-64445000D01*
X83639000Y-64603750D01*
X83385000Y-64603750D01*
X83226250Y-64445000D01*
X81940000Y-64442822D01*
X81940000Y-56700495D01*
X82851000Y-56700495D01*
X82851000Y-57091505D01*
X82927282Y-57475003D01*
X83076915Y-57836250D01*
X83294149Y-58161364D01*
X83570636Y-58437851D01*
X83895750Y-58655085D01*
X84256997Y-58804718D01*
X84640495Y-58881000D01*
X85031505Y-58881000D01*
X85415003Y-58804718D01*
X85776250Y-58655085D01*
X86101364Y-58437851D01*
X86377851Y-58161364D01*
X86595085Y-57836250D01*
X86744718Y-57475003D01*
X86821000Y-57091505D01*
X86821000Y-56700495D01*
X86744718Y-56316997D01*
X86595085Y-55955750D01*
X86377851Y-55630636D01*
X86101364Y-55354149D01*
X85776250Y-55136915D01*
X85415003Y-54987282D01*
X85031505Y-54911000D01*
X84640495Y-54911000D01*
X84256997Y-54987282D01*
X83895750Y-55136915D01*
X83570636Y-55354149D01*
X83294149Y-55630636D01*
X83076915Y-55955750D01*
X82927282Y-56316997D01*
X82851000Y-56700495D01*
X81940000Y-56700495D01*
X81940000Y-51174000D01*
X110895928Y-51174000D01*
X110899000Y-52388250D01*
X111057750Y-52547000D01*
X113157000Y-52547000D01*
X113157000Y-50697750D01*
X113411000Y-50697750D01*
X113411000Y-52547000D01*
X115510250Y-52547000D01*
X115669000Y-52388250D01*
X115672072Y-51174000D01*
X115659812Y-51049518D01*
X115623502Y-50929820D01*
X115564537Y-50819506D01*
X115485185Y-50722815D01*
X115388494Y-50643463D01*
X115278180Y-50584498D01*
X115158482Y-50548188D01*
X115034000Y-50535928D01*
X113569750Y-50539000D01*
X113411000Y-50697750D01*
X113157000Y-50697750D01*
X112998250Y-50539000D01*
X111534000Y-50535928D01*
X111409518Y-50548188D01*
X111289820Y-50584498D01*
X111179506Y-50643463D01*
X111082815Y-50722815D01*
X111003463Y-50819506D01*
X110944498Y-50929820D01*
X110908188Y-51049518D01*
X110895928Y-51174000D01*
X81940000Y-51174000D01*
X81940000Y-50959279D01*
X81954722Y-50809131D01*
X81988953Y-50695754D01*
X82044555Y-50591181D01*
X82119407Y-50499404D01*
X82179137Y-50449991D01*
X139972767Y-50388030D01*
X140035819Y-50421555D01*
%TA.AperFunction,Conductor*%
D20*
G36*
X140035819Y-50421555D02*
G01*
X140127596Y-50496407D01*
X140203091Y-50587664D01*
X140259419Y-50691844D01*
X140294440Y-50804976D01*
X140310001Y-50953031D01*
X140310001Y-56822822D01*
X139023750Y-56825000D01*
X138865000Y-56983750D01*
X138865000Y-58008000D01*
X138885000Y-58008000D01*
X138885000Y-58262000D01*
X138865000Y-58262000D01*
X138865000Y-59286250D01*
X139023750Y-59445000D01*
X140310001Y-59447178D01*
X140310001Y-59686928D01*
X139875326Y-59686928D01*
X139851581Y-59674236D01*
X139590507Y-59595040D01*
X139387037Y-59575000D01*
X132265963Y-59575000D01*
X132062493Y-59595040D01*
X132056269Y-59596928D01*
X131957000Y-59596928D01*
X131783746Y-59613992D01*
X131617150Y-59664528D01*
X131463614Y-59746595D01*
X131329038Y-59857038D01*
X131257000Y-59944817D01*
X131184962Y-59857038D01*
X131050386Y-59746595D01*
X130896850Y-59664528D01*
X130730254Y-59613992D01*
X130557000Y-59596928D01*
X130057000Y-59596928D01*
X129883746Y-59613992D01*
X129717150Y-59664528D01*
X129563614Y-59746595D01*
X129429038Y-59857038D01*
X129318595Y-59991614D01*
X129236528Y-60145150D01*
X129221521Y-60194623D01*
X129172941Y-60220589D01*
X129172939Y-60220590D01*
X129172940Y-60220590D01*
X129071953Y-60303468D01*
X129071951Y-60303470D01*
X129038183Y-60331183D01*
X129010470Y-60364951D01*
X127801951Y-61573471D01*
X127768184Y-61601183D01*
X127740471Y-61634951D01*
X127740468Y-61634954D01*
X127657590Y-61735941D01*
X127575412Y-61889687D01*
X127524805Y-62056510D01*
X127507719Y-62230000D01*
X127512001Y-62273476D01*
X127512001Y-62547886D01*
X127453613Y-62579095D01*
X127319038Y-62689538D01*
X127208595Y-62824113D01*
X127126528Y-62977648D01*
X127075992Y-63144244D01*
X127058928Y-63317498D01*
X127058928Y-63842502D01*
X127075992Y-64015756D01*
X127126528Y-64182352D01*
X127182560Y-64287180D01*
X127180000Y-64286928D01*
X126752507Y-64286928D01*
X125061072Y-62595494D01*
X125061072Y-62549000D01*
X125044008Y-62375746D01*
X124993472Y-62209150D01*
X124911405Y-62055614D01*
X124800962Y-61921038D01*
X124794406Y-61915658D01*
X124874185Y-61850185D01*
X124953537Y-61753494D01*
X125012502Y-61643180D01*
X125048812Y-61523482D01*
X125061072Y-61399000D01*
X125058000Y-61184750D01*
X124899250Y-61026000D01*
X123825000Y-61026000D01*
X123825000Y-61046000D01*
X123571000Y-61046000D01*
X123571000Y-61026000D01*
X122496750Y-61026000D01*
X122338000Y-61184750D01*
X122334928Y-61399000D01*
X122347188Y-61523482D01*
X122383498Y-61643180D01*
X122442463Y-61753494D01*
X122521815Y-61850185D01*
X122601594Y-61915658D01*
X122595038Y-61921038D01*
X122546649Y-61980000D01*
X114669000Y-61980000D01*
X114669000Y-61062072D01*
X115034000Y-61062072D01*
X115158482Y-61049812D01*
X115278180Y-61013502D01*
X115388494Y-60954537D01*
X115485185Y-60875185D01*
X115564537Y-60778494D01*
X115623502Y-60668180D01*
X115659812Y-60548482D01*
X115672072Y-60424000D01*
X115672072Y-60399000D01*
X122334928Y-60399000D01*
X122338000Y-60613250D01*
X122496750Y-60772000D01*
X123571000Y-60772000D01*
X123571000Y-59922750D01*
X123825000Y-59922750D01*
X123825000Y-60772000D01*
X124899250Y-60772000D01*
X125058000Y-60613250D01*
X125061072Y-60399000D01*
X125048812Y-60274518D01*
X125012502Y-60154820D01*
X124953537Y-60044506D01*
X124874185Y-59947815D01*
X124777494Y-59868463D01*
X124667180Y-59809498D01*
X124547482Y-59773188D01*
X124423000Y-59760928D01*
X123983750Y-59764000D01*
X123825000Y-59922750D01*
X123571000Y-59922750D01*
X123412250Y-59764000D01*
X122973000Y-59760928D01*
X122848518Y-59773188D01*
X122728820Y-59809498D01*
X122618506Y-59868463D01*
X122521815Y-59947815D01*
X122442463Y-60044506D01*
X122383498Y-60154820D01*
X122347188Y-60274518D01*
X122334928Y-60399000D01*
X115672072Y-60399000D01*
X115672072Y-58810000D01*
X135999928Y-58810000D01*
X136012188Y-58934482D01*
X136048498Y-59054180D01*
X136107463Y-59164494D01*
X136186815Y-59261185D01*
X136283506Y-59340537D01*
X136393820Y-59399502D01*
X136513518Y-59435812D01*
X136638000Y-59448072D01*
X138452250Y-59445000D01*
X138611000Y-59286250D01*
X138611000Y-58262000D01*
X136161750Y-58262000D01*
X136003000Y-58420750D01*
X135999928Y-58810000D01*
X115672072Y-58810000D01*
X115672072Y-57460000D01*
X135999928Y-57460000D01*
X136003000Y-57849250D01*
X136161750Y-58008000D01*
X138611000Y-58008000D01*
X138611000Y-56983750D01*
X138452250Y-56825000D01*
X136638000Y-56821928D01*
X136513518Y-56834188D01*
X136393820Y-56870498D01*
X136283506Y-56929463D01*
X136186815Y-57008815D01*
X136107463Y-57105506D01*
X136048498Y-57215820D01*
X136012188Y-57335518D01*
X135999928Y-57460000D01*
X115672072Y-57460000D01*
X115672072Y-56924000D01*
X115659812Y-56799518D01*
X115623502Y-56679820D01*
X115564537Y-56569506D01*
X115485185Y-56472815D01*
X115388494Y-56393463D01*
X115278180Y-56334498D01*
X115158482Y-56298188D01*
X115034000Y-56285928D01*
X111534000Y-56285928D01*
X111409518Y-56298188D01*
X111289820Y-56334498D01*
X111179506Y-56393463D01*
X111082815Y-56472815D01*
X111003463Y-56569506D01*
X110962506Y-56646131D01*
X110972072Y-56549000D01*
X110972072Y-54799000D01*
X110942999Y-54503814D01*
X110856896Y-54219972D01*
X110832324Y-54174000D01*
X110895928Y-54174000D01*
X110908188Y-54298482D01*
X110944498Y-54418180D01*
X111003463Y-54528494D01*
X111082815Y-54625185D01*
X111179506Y-54704537D01*
X111289820Y-54763502D01*
X111409518Y-54799812D01*
X111534000Y-54812072D01*
X112998250Y-54809000D01*
X113157000Y-54650250D01*
X113157000Y-52801000D01*
X113411000Y-52801000D01*
X113411000Y-54650250D01*
X113569750Y-54809000D01*
X115034000Y-54812072D01*
X115158482Y-54799812D01*
X115278180Y-54763502D01*
X115388494Y-54704537D01*
X115485185Y-54625185D01*
X115564537Y-54528494D01*
X115623502Y-54418180D01*
X115659812Y-54298482D01*
X115672072Y-54174000D01*
X115669000Y-52959750D01*
X115510250Y-52801000D01*
X113411000Y-52801000D01*
X113157000Y-52801000D01*
X111057750Y-52801000D01*
X110899000Y-52959750D01*
X110895928Y-54174000D01*
X110832324Y-54174000D01*
X110717073Y-53958382D01*
X110528903Y-53729097D01*
X110299618Y-53540927D01*
X110038028Y-53401104D01*
X109754186Y-53315001D01*
X109459000Y-53285928D01*
X107709000Y-53285928D01*
X107413814Y-53315001D01*
X107129972Y-53401104D01*
X106868382Y-53540927D01*
X106639097Y-53729097D01*
X106450927Y-53958382D01*
X106311104Y-54219972D01*
X106225001Y-54503814D01*
X106195928Y-54799000D01*
X106195928Y-56549000D01*
X106225001Y-56844186D01*
X106311104Y-57128028D01*
X106450927Y-57389618D01*
X106639097Y-57618903D01*
X106868382Y-57807073D01*
X107129972Y-57946896D01*
X107413814Y-58032999D01*
X107709000Y-58062072D01*
X109459000Y-58062072D01*
X109754186Y-58032999D01*
X110038028Y-57946896D01*
X110299618Y-57807073D01*
X110528903Y-57618903D01*
X110717073Y-57389618D01*
X110856896Y-57128028D01*
X110895928Y-56999357D01*
X110895928Y-60424000D01*
X110908188Y-60548482D01*
X110944498Y-60668180D01*
X111003463Y-60778494D01*
X111082815Y-60875185D01*
X111179506Y-60954537D01*
X111289820Y-61013502D01*
X111409518Y-61049812D01*
X111534000Y-61062072D01*
X111899001Y-61062072D01*
X111899001Y-61980000D01*
X107935579Y-61980000D01*
X106574532Y-60618954D01*
X106546817Y-60585183D01*
X106513045Y-60557466D01*
X106320536Y-60364958D01*
X106320532Y-60364953D01*
X104415534Y-58459956D01*
X104387817Y-58426183D01*
X104253059Y-58315589D01*
X104099313Y-58233411D01*
X103932490Y-58182805D01*
X103802477Y-58170000D01*
X103802469Y-58170000D01*
X103759000Y-58165719D01*
X103715531Y-58170000D01*
X97579469Y-58170000D01*
X97536000Y-58165719D01*
X97492531Y-58170000D01*
X97492523Y-58170000D01*
X97362510Y-58182805D01*
X97195687Y-58233411D01*
X97041941Y-58315589D01*
X96940953Y-58398468D01*
X96940951Y-58398470D01*
X96907183Y-58426183D01*
X96879470Y-58459951D01*
X91860956Y-63478466D01*
X91827183Y-63506183D01*
X91716589Y-63640942D01*
X91634411Y-63794688D01*
X91603446Y-63896764D01*
X91591219Y-63937072D01*
X91583805Y-63961511D01*
X91571000Y-64091524D01*
X91571000Y-64091531D01*
X91566719Y-64135000D01*
X91571000Y-64178469D01*
X91571001Y-65722886D01*
X91512613Y-65754095D01*
X91378038Y-65864538D01*
X91267595Y-65999113D01*
X91185528Y-66152648D01*
X91134992Y-66319244D01*
X91117928Y-66492498D01*
X91117928Y-67017502D01*
X91134992Y-67190756D01*
X91185528Y-67357352D01*
X91267595Y-67510887D01*
X91378038Y-67645462D01*
X91404891Y-67667500D01*
X91378038Y-67689538D01*
X91373555Y-67695000D01*
X90882976Y-67695000D01*
X90838405Y-67611614D01*
X90727962Y-67477038D01*
X90593386Y-67366595D01*
X90439850Y-67284528D01*
X90273254Y-67233992D01*
X90100000Y-67216928D01*
X89600000Y-67216928D01*
X89426746Y-67233992D01*
X89260150Y-67284528D01*
X89106614Y-67366595D01*
X88972038Y-67477038D01*
X88900000Y-67564817D01*
X88827962Y-67477038D01*
X88693386Y-67366595D01*
X88539850Y-67284528D01*
X88373254Y-67233992D01*
X88200000Y-67216928D01*
X87907731Y-67216928D01*
X87901507Y-67215040D01*
X87698037Y-67195000D01*
X83116963Y-67195000D01*
X82913493Y-67215040D01*
X82652419Y-67294236D01*
X82628674Y-67306928D01*
X81940000Y-67306928D01*
X81940000Y-67067178D01*
X83226250Y-67065000D01*
X83385000Y-66906250D01*
X83385000Y-65882000D01*
X83639000Y-65882000D01*
X83639000Y-66906250D01*
X83797750Y-67065000D01*
X85612000Y-67068072D01*
X85736482Y-67055812D01*
X85856180Y-67019502D01*
X85966494Y-66960537D01*
X86063185Y-66881185D01*
X86142537Y-66784494D01*
X86201502Y-66674180D01*
X86237812Y-66554482D01*
X86250072Y-66430000D01*
X86247000Y-66040750D01*
X86088250Y-65882000D01*
X83639000Y-65882000D01*
X83385000Y-65882000D01*
X83365000Y-65882000D01*
X83365000Y-65628000D01*
X83385000Y-65628000D01*
X83385000Y-64603750D01*
X83639000Y-64603750D01*
X83639000Y-65628000D01*
X86088250Y-65628000D01*
X86247000Y-65469250D01*
X86250072Y-65080000D01*
X86237812Y-64955518D01*
X86201502Y-64835820D01*
X86142537Y-64725506D01*
X86063185Y-64628815D01*
X85966494Y-64549463D01*
X85856180Y-64490498D01*
X85736482Y-64454188D01*
X85612000Y-64441928D01*
X83797750Y-64445000D01*
X83639000Y-64603750D01*
X83385000Y-64603750D01*
X83226250Y-64445000D01*
X81940000Y-64442822D01*
X81940000Y-56700495D01*
X82851000Y-56700495D01*
X82851000Y-57091505D01*
X82927282Y-57475003D01*
X83076915Y-57836250D01*
X83294149Y-58161364D01*
X83570636Y-58437851D01*
X83895750Y-58655085D01*
X84256997Y-58804718D01*
X84640495Y-58881000D01*
X85031505Y-58881000D01*
X85415003Y-58804718D01*
X85776250Y-58655085D01*
X86101364Y-58437851D01*
X86377851Y-58161364D01*
X86595085Y-57836250D01*
X86744718Y-57475003D01*
X86821000Y-57091505D01*
X86821000Y-56700495D01*
X86744718Y-56316997D01*
X86595085Y-55955750D01*
X86377851Y-55630636D01*
X86101364Y-55354149D01*
X85776250Y-55136915D01*
X85415003Y-54987282D01*
X85031505Y-54911000D01*
X84640495Y-54911000D01*
X84256997Y-54987282D01*
X83895750Y-55136915D01*
X83570636Y-55354149D01*
X83294149Y-55630636D01*
X83076915Y-55955750D01*
X82927282Y-56316997D01*
X82851000Y-56700495D01*
X81940000Y-56700495D01*
X81940000Y-51174000D01*
X110895928Y-51174000D01*
X110899000Y-52388250D01*
X111057750Y-52547000D01*
X113157000Y-52547000D01*
X113157000Y-50697750D01*
X113411000Y-50697750D01*
X113411000Y-52547000D01*
X115510250Y-52547000D01*
X115669000Y-52388250D01*
X115672072Y-51174000D01*
X115659812Y-51049518D01*
X115623502Y-50929820D01*
X115564537Y-50819506D01*
X115485185Y-50722815D01*
X115388494Y-50643463D01*
X115278180Y-50584498D01*
X115158482Y-50548188D01*
X115034000Y-50535928D01*
X113569750Y-50539000D01*
X113411000Y-50697750D01*
X113157000Y-50697750D01*
X112998250Y-50539000D01*
X111534000Y-50535928D01*
X111409518Y-50548188D01*
X111289820Y-50584498D01*
X111179506Y-50643463D01*
X111082815Y-50722815D01*
X111003463Y-50819506D01*
X110944498Y-50929820D01*
X110908188Y-51049518D01*
X110895928Y-51174000D01*
X81940000Y-51174000D01*
X81940000Y-50959279D01*
X81954722Y-50809131D01*
X81988953Y-50695754D01*
X82044555Y-50591181D01*
X82119407Y-50499404D01*
X82179137Y-50449991D01*
X139972767Y-50388030D01*
X140035819Y-50421555D01*
G37*
%TD.AperFunction*%
D19*
X100921892Y-60873408D02*
X100970650Y-61034142D01*
X101049829Y-61182275D01*
X101156385Y-61312115D01*
X101286225Y-61418671D01*
X101434358Y-61497850D01*
X101595092Y-61546608D01*
X101762250Y-61563072D01*
X102199750Y-61563072D01*
X102366000Y-61546697D01*
X102366001Y-62467886D01*
X102307613Y-62499095D01*
X102173038Y-62609538D01*
X102062595Y-62744113D01*
X101980528Y-62897648D01*
X101929992Y-63064244D01*
X101912928Y-63237498D01*
X101912928Y-63762502D01*
X101929992Y-63935756D01*
X101980528Y-64102352D01*
X102062595Y-64255887D01*
X102173038Y-64390462D01*
X102199891Y-64412500D01*
X102173038Y-64434538D01*
X102062595Y-64569113D01*
X101980528Y-64722648D01*
X101929992Y-64889244D01*
X101912928Y-65062498D01*
X101912928Y-65587502D01*
X101929992Y-65760756D01*
X101980528Y-65927352D01*
X102062595Y-66080887D01*
X102173038Y-66215462D01*
X102241842Y-66271928D01*
X101651000Y-66271928D01*
X101526518Y-66284188D01*
X101406820Y-66320498D01*
X101296506Y-66379463D01*
X101199815Y-66458815D01*
X101120463Y-66555506D01*
X101061498Y-66665820D01*
X101025188Y-66785518D01*
X101012928Y-66910000D01*
X101012928Y-67695000D01*
X98630386Y-67695000D01*
X98551183Y-67630000D01*
X98638962Y-67557962D01*
X98749405Y-67423386D01*
X98831472Y-67269850D01*
X98882008Y-67103254D01*
X98899072Y-66930000D01*
X98899072Y-66430000D01*
X98882008Y-66256746D01*
X98831472Y-66090150D01*
X98749405Y-65936614D01*
X98638962Y-65802038D01*
X98504386Y-65691595D01*
X98421000Y-65647024D01*
X98421000Y-65087114D01*
X98479387Y-65055905D01*
X98613962Y-64945462D01*
X98724405Y-64810887D01*
X98806472Y-64657352D01*
X98857008Y-64490756D01*
X98874072Y-64317502D01*
X98874072Y-63792498D01*
X98857008Y-63619244D01*
X98806472Y-63452648D01*
X98724405Y-63299113D01*
X98613962Y-63164538D01*
X98587109Y-63142500D01*
X98613962Y-63120462D01*
X98724405Y-62985887D01*
X98806472Y-62832352D01*
X98857008Y-62665756D01*
X98874072Y-62492502D01*
X98874072Y-61967498D01*
X98857008Y-61794244D01*
X98806472Y-61627648D01*
X98788519Y-61594060D01*
X99052849Y-61329730D01*
X99161225Y-61418671D01*
X99309358Y-61497850D01*
X99470092Y-61546608D01*
X99637250Y-61563072D01*
X100074750Y-61563072D01*
X100241908Y-61546608D01*
X100402642Y-61497850D01*
X100550775Y-61418671D01*
X100680615Y-61312115D01*
X100787171Y-61182275D01*
X100866350Y-61034142D01*
X100915108Y-60873408D01*
X100918500Y-60838969D01*
X100921892Y-60873408D01*
%TA.AperFunction,Conductor*%
D20*
G36*
X100921892Y-60873408D02*
G01*
X100970650Y-61034142D01*
X101049829Y-61182275D01*
X101156385Y-61312115D01*
X101286225Y-61418671D01*
X101434358Y-61497850D01*
X101595092Y-61546608D01*
X101762250Y-61563072D01*
X102199750Y-61563072D01*
X102366000Y-61546697D01*
X102366001Y-62467886D01*
X102307613Y-62499095D01*
X102173038Y-62609538D01*
X102062595Y-62744113D01*
X101980528Y-62897648D01*
X101929992Y-63064244D01*
X101912928Y-63237498D01*
X101912928Y-63762502D01*
X101929992Y-63935756D01*
X101980528Y-64102352D01*
X102062595Y-64255887D01*
X102173038Y-64390462D01*
X102199891Y-64412500D01*
X102173038Y-64434538D01*
X102062595Y-64569113D01*
X101980528Y-64722648D01*
X101929992Y-64889244D01*
X101912928Y-65062498D01*
X101912928Y-65587502D01*
X101929992Y-65760756D01*
X101980528Y-65927352D01*
X102062595Y-66080887D01*
X102173038Y-66215462D01*
X102241842Y-66271928D01*
X101651000Y-66271928D01*
X101526518Y-66284188D01*
X101406820Y-66320498D01*
X101296506Y-66379463D01*
X101199815Y-66458815D01*
X101120463Y-66555506D01*
X101061498Y-66665820D01*
X101025188Y-66785518D01*
X101012928Y-66910000D01*
X101012928Y-67695000D01*
X98630386Y-67695000D01*
X98551183Y-67630000D01*
X98638962Y-67557962D01*
X98749405Y-67423386D01*
X98831472Y-67269850D01*
X98882008Y-67103254D01*
X98899072Y-66930000D01*
X98899072Y-66430000D01*
X98882008Y-66256746D01*
X98831472Y-66090150D01*
X98749405Y-65936614D01*
X98638962Y-65802038D01*
X98504386Y-65691595D01*
X98421000Y-65647024D01*
X98421000Y-65087114D01*
X98479387Y-65055905D01*
X98613962Y-64945462D01*
X98724405Y-64810887D01*
X98806472Y-64657352D01*
X98857008Y-64490756D01*
X98874072Y-64317502D01*
X98874072Y-63792498D01*
X98857008Y-63619244D01*
X98806472Y-63452648D01*
X98724405Y-63299113D01*
X98613962Y-63164538D01*
X98587109Y-63142500D01*
X98613962Y-63120462D01*
X98724405Y-62985887D01*
X98806472Y-62832352D01*
X98857008Y-62665756D01*
X98874072Y-62492502D01*
X98874072Y-61967498D01*
X98857008Y-61794244D01*
X98806472Y-61627648D01*
X98788519Y-61594060D01*
X99052849Y-61329730D01*
X99161225Y-61418671D01*
X99309358Y-61497850D01*
X99470092Y-61546608D01*
X99637250Y-61563072D01*
X100074750Y-61563072D01*
X100241908Y-61546608D01*
X100402642Y-61497850D01*
X100550775Y-61418671D01*
X100680615Y-61312115D01*
X100787171Y-61182275D01*
X100866350Y-61034142D01*
X100915108Y-60873408D01*
X100918500Y-60838969D01*
X100921892Y-60873408D01*
G37*
%TD.AperFunction*%
D19*
X96265528Y-61627648D02*
X96214992Y-61794244D01*
X96197928Y-61967498D01*
X96197928Y-62492502D01*
X96214992Y-62665756D01*
X96265528Y-62832352D01*
X96347595Y-62985887D01*
X96458038Y-63120462D01*
X96484891Y-63142500D01*
X96458038Y-63164538D01*
X96347595Y-63299113D01*
X96265528Y-63452648D01*
X96214992Y-63619244D01*
X96197928Y-63792498D01*
X96197928Y-64317502D01*
X96214992Y-64490756D01*
X96265528Y-64657352D01*
X96347595Y-64810887D01*
X96458038Y-64945462D01*
X96592613Y-65055905D01*
X96651001Y-65087114D01*
X96651000Y-65647024D01*
X96567614Y-65691595D01*
X96433038Y-65802038D01*
X96322595Y-65936614D01*
X96240528Y-66090150D01*
X96189992Y-66256746D01*
X96172928Y-66430000D01*
X96172928Y-66930000D01*
X96189992Y-67103254D01*
X96240528Y-67269850D01*
X96322595Y-67423386D01*
X96433038Y-67557962D01*
X96520817Y-67630000D01*
X96441614Y-67695000D01*
X93538445Y-67695000D01*
X93533962Y-67689538D01*
X93507109Y-67667500D01*
X93533962Y-67645462D01*
X93644405Y-67510887D01*
X93726472Y-67357352D01*
X93777008Y-67190756D01*
X93794072Y-67017502D01*
X93794072Y-66492498D01*
X93777008Y-66319244D01*
X93726472Y-66152648D01*
X93644405Y-65999113D01*
X93533962Y-65864538D01*
X93399387Y-65754095D01*
X93341000Y-65722886D01*
X93341000Y-64501578D01*
X96323629Y-61518949D01*
X96265528Y-61627648D01*
%TA.AperFunction,Conductor*%
D20*
G36*
X96265528Y-61627648D02*
G01*
X96214992Y-61794244D01*
X96197928Y-61967498D01*
X96197928Y-62492502D01*
X96214992Y-62665756D01*
X96265528Y-62832352D01*
X96347595Y-62985887D01*
X96458038Y-63120462D01*
X96484891Y-63142500D01*
X96458038Y-63164538D01*
X96347595Y-63299113D01*
X96265528Y-63452648D01*
X96214992Y-63619244D01*
X96197928Y-63792498D01*
X96197928Y-64317502D01*
X96214992Y-64490756D01*
X96265528Y-64657352D01*
X96347595Y-64810887D01*
X96458038Y-64945462D01*
X96592613Y-65055905D01*
X96651001Y-65087114D01*
X96651000Y-65647024D01*
X96567614Y-65691595D01*
X96433038Y-65802038D01*
X96322595Y-65936614D01*
X96240528Y-66090150D01*
X96189992Y-66256746D01*
X96172928Y-66430000D01*
X96172928Y-66930000D01*
X96189992Y-67103254D01*
X96240528Y-67269850D01*
X96322595Y-67423386D01*
X96433038Y-67557962D01*
X96520817Y-67630000D01*
X96441614Y-67695000D01*
X93538445Y-67695000D01*
X93533962Y-67689538D01*
X93507109Y-67667500D01*
X93533962Y-67645462D01*
X93644405Y-67510887D01*
X93726472Y-67357352D01*
X93777008Y-67190756D01*
X93794072Y-67017502D01*
X93794072Y-66492498D01*
X93777008Y-66319244D01*
X93726472Y-66152648D01*
X93644405Y-65999113D01*
X93533962Y-65864538D01*
X93399387Y-65754095D01*
X93341000Y-65722886D01*
X93341000Y-64501578D01*
X96323629Y-61518949D01*
X96265528Y-61627648D01*
G37*
%TD.AperFunction*%
D19*
X106912470Y-63460049D02*
X106940183Y-63493817D01*
X106973951Y-63521530D01*
X106973953Y-63521532D01*
X106999364Y-63542386D01*
X107074941Y-63604411D01*
X107228687Y-63686589D01*
X107395510Y-63737195D01*
X107525523Y-63750000D01*
X107525531Y-63750000D01*
X107569000Y-63754281D01*
X107612469Y-63750000D01*
X112488689Y-63750000D01*
X112510813Y-63768157D01*
X112751420Y-63896764D01*
X113012494Y-63975960D01*
X113016806Y-63976385D01*
X113837348Y-64796926D01*
X113791528Y-64882648D01*
X113740992Y-65049244D01*
X113723928Y-65222498D01*
X113723928Y-65747502D01*
X113740992Y-65920756D01*
X113791528Y-66087352D01*
X113873595Y-66240887D01*
X113984038Y-66375462D01*
X114010891Y-66397500D01*
X113984038Y-66419538D01*
X113979555Y-66425000D01*
X110948976Y-66425000D01*
X110904405Y-66341614D01*
X110793962Y-66207038D01*
X110659386Y-66096595D01*
X110505850Y-66014528D01*
X110339254Y-65963992D01*
X110166000Y-65946928D01*
X109666000Y-65946928D01*
X109492746Y-65963992D01*
X109326150Y-66014528D01*
X109172614Y-66096595D01*
X109038038Y-66207038D01*
X108966000Y-66294817D01*
X108893962Y-66207038D01*
X108759386Y-66096595D01*
X108605850Y-66014528D01*
X108439254Y-65963992D01*
X108266000Y-65946928D01*
X107766000Y-65946928D01*
X107592746Y-65963992D01*
X107426150Y-66014528D01*
X107272614Y-66096595D01*
X107138038Y-66207038D01*
X107027595Y-66341614D01*
X106988998Y-66413823D01*
X106969109Y-66397500D01*
X106995962Y-66375462D01*
X107106405Y-66240887D01*
X107188472Y-66087352D01*
X107239008Y-65920756D01*
X107256072Y-65747502D01*
X107256072Y-65222498D01*
X107239008Y-65049244D01*
X107188472Y-64882648D01*
X107106405Y-64729113D01*
X106995962Y-64594538D01*
X106861387Y-64484095D01*
X106803000Y-64452886D01*
X106803000Y-63350579D01*
X106912470Y-63460049D01*
%TA.AperFunction,Conductor*%
D20*
G36*
X106912470Y-63460049D02*
G01*
X106940183Y-63493817D01*
X106973951Y-63521530D01*
X106973953Y-63521532D01*
X106999364Y-63542386D01*
X107074941Y-63604411D01*
X107228687Y-63686589D01*
X107395510Y-63737195D01*
X107525523Y-63750000D01*
X107525531Y-63750000D01*
X107569000Y-63754281D01*
X107612469Y-63750000D01*
X112488689Y-63750000D01*
X112510813Y-63768157D01*
X112751420Y-63896764D01*
X113012494Y-63975960D01*
X113016806Y-63976385D01*
X113837348Y-64796926D01*
X113791528Y-64882648D01*
X113740992Y-65049244D01*
X113723928Y-65222498D01*
X113723928Y-65747502D01*
X113740992Y-65920756D01*
X113791528Y-66087352D01*
X113873595Y-66240887D01*
X113984038Y-66375462D01*
X114010891Y-66397500D01*
X113984038Y-66419538D01*
X113979555Y-66425000D01*
X110948976Y-66425000D01*
X110904405Y-66341614D01*
X110793962Y-66207038D01*
X110659386Y-66096595D01*
X110505850Y-66014528D01*
X110339254Y-65963992D01*
X110166000Y-65946928D01*
X109666000Y-65946928D01*
X109492746Y-65963992D01*
X109326150Y-66014528D01*
X109172614Y-66096595D01*
X109038038Y-66207038D01*
X108966000Y-66294817D01*
X108893962Y-66207038D01*
X108759386Y-66096595D01*
X108605850Y-66014528D01*
X108439254Y-65963992D01*
X108266000Y-65946928D01*
X107766000Y-65946928D01*
X107592746Y-65963992D01*
X107426150Y-66014528D01*
X107272614Y-66096595D01*
X107138038Y-66207038D01*
X107027595Y-66341614D01*
X106988998Y-66413823D01*
X106969109Y-66397500D01*
X106995962Y-66375462D01*
X107106405Y-66240887D01*
X107188472Y-66087352D01*
X107239008Y-65920756D01*
X107256072Y-65747502D01*
X107256072Y-65222498D01*
X107239008Y-65049244D01*
X107188472Y-64882648D01*
X107106405Y-64729113D01*
X106995962Y-64594538D01*
X106861387Y-64484095D01*
X106803000Y-64452886D01*
X106803000Y-63350579D01*
X106912470Y-63460049D01*
G37*
%TD.AperFunction*%
D19*
X122729614Y-63787405D02*
X122883150Y-63869472D01*
X123049746Y-63920008D01*
X123223000Y-63937072D01*
X123899494Y-63937072D01*
X125201463Y-65239042D01*
X125180000Y-65236928D01*
X124280000Y-65236928D01*
X124155518Y-65249188D01*
X124035820Y-65285498D01*
X123925506Y-65344463D01*
X123828815Y-65423815D01*
X123749463Y-65520506D01*
X123690498Y-65630820D01*
X123654188Y-65750518D01*
X123641928Y-65875000D01*
X123641928Y-65894431D01*
X123620411Y-65934687D01*
X123569805Y-66101510D01*
X123553162Y-66270490D01*
X123471852Y-66227028D01*
X123305256Y-66176492D01*
X123132002Y-66159428D01*
X122231998Y-66159428D01*
X122058744Y-66176492D01*
X121892148Y-66227028D01*
X121738613Y-66309095D01*
X121604038Y-66419538D01*
X121599555Y-66425000D01*
X121094114Y-66425000D01*
X121062905Y-66366613D01*
X120952462Y-66232038D01*
X120817887Y-66121595D01*
X120664352Y-66039528D01*
X120497756Y-65988992D01*
X120324502Y-65971928D01*
X119799498Y-65971928D01*
X119626244Y-65988992D01*
X119459648Y-66039528D01*
X119306113Y-66121595D01*
X119171538Y-66232038D01*
X119149500Y-66258891D01*
X119127462Y-66232038D01*
X118992887Y-66121595D01*
X118839352Y-66039528D01*
X118672756Y-65988992D01*
X118499502Y-65971928D01*
X117974498Y-65971928D01*
X117801244Y-65988992D01*
X117634648Y-66039528D01*
X117481113Y-66121595D01*
X117346538Y-66232038D01*
X117236095Y-66366613D01*
X117204886Y-66425000D01*
X116144445Y-66425000D01*
X116139962Y-66419538D01*
X116113109Y-66397500D01*
X116139962Y-66375462D01*
X116250405Y-66240887D01*
X116332472Y-66087352D01*
X116383008Y-65920756D01*
X116400072Y-65747502D01*
X116400072Y-65222498D01*
X116383008Y-65049244D01*
X116332472Y-64882648D01*
X116250405Y-64729113D01*
X116139962Y-64594538D01*
X116005387Y-64484095D01*
X115875586Y-64414714D01*
X115801411Y-64275941D01*
X115768427Y-64235750D01*
X115718532Y-64174953D01*
X115718530Y-64174951D01*
X115690817Y-64141183D01*
X115657050Y-64113471D01*
X115293579Y-63750000D01*
X122684036Y-63750000D01*
X122729614Y-63787405D01*
%TA.AperFunction,Conductor*%
D20*
G36*
X122729614Y-63787405D02*
G01*
X122883150Y-63869472D01*
X123049746Y-63920008D01*
X123223000Y-63937072D01*
X123899494Y-63937072D01*
X125201463Y-65239042D01*
X125180000Y-65236928D01*
X124280000Y-65236928D01*
X124155518Y-65249188D01*
X124035820Y-65285498D01*
X123925506Y-65344463D01*
X123828815Y-65423815D01*
X123749463Y-65520506D01*
X123690498Y-65630820D01*
X123654188Y-65750518D01*
X123641928Y-65875000D01*
X123641928Y-65894431D01*
X123620411Y-65934687D01*
X123569805Y-66101510D01*
X123553162Y-66270490D01*
X123471852Y-66227028D01*
X123305256Y-66176492D01*
X123132002Y-66159428D01*
X122231998Y-66159428D01*
X122058744Y-66176492D01*
X121892148Y-66227028D01*
X121738613Y-66309095D01*
X121604038Y-66419538D01*
X121599555Y-66425000D01*
X121094114Y-66425000D01*
X121062905Y-66366613D01*
X120952462Y-66232038D01*
X120817887Y-66121595D01*
X120664352Y-66039528D01*
X120497756Y-65988992D01*
X120324502Y-65971928D01*
X119799498Y-65971928D01*
X119626244Y-65988992D01*
X119459648Y-66039528D01*
X119306113Y-66121595D01*
X119171538Y-66232038D01*
X119149500Y-66258891D01*
X119127462Y-66232038D01*
X118992887Y-66121595D01*
X118839352Y-66039528D01*
X118672756Y-65988992D01*
X118499502Y-65971928D01*
X117974498Y-65971928D01*
X117801244Y-65988992D01*
X117634648Y-66039528D01*
X117481113Y-66121595D01*
X117346538Y-66232038D01*
X117236095Y-66366613D01*
X117204886Y-66425000D01*
X116144445Y-66425000D01*
X116139962Y-66419538D01*
X116113109Y-66397500D01*
X116139962Y-66375462D01*
X116250405Y-66240887D01*
X116332472Y-66087352D01*
X116383008Y-65920756D01*
X116400072Y-65747502D01*
X116400072Y-65222498D01*
X116383008Y-65049244D01*
X116332472Y-64882648D01*
X116250405Y-64729113D01*
X116139962Y-64594538D01*
X116005387Y-64484095D01*
X115875586Y-64414714D01*
X115801411Y-64275941D01*
X115768427Y-64235750D01*
X115718532Y-64174953D01*
X115718530Y-64174951D01*
X115690817Y-64141183D01*
X115657050Y-64113471D01*
X115293579Y-63750000D01*
X122684036Y-63750000D01*
X122729614Y-63787405D01*
G37*
%TD.AperFunction*%
%TD*%
M02*
