%TF.GenerationSoftware,KiCad,Pcbnew,(5.1.9)-1*%
%TF.CreationDate,2021-01-26T13:47:22-05:00*%
%TF.ProjectId,LNA_1,4c4e415f-312e-46b6-9963-61645f706362,rev?*%
%TF.SameCoordinates,Original*%
%TF.FileFunction,Legend,Top*%
%TF.FilePolarity,Positive*%
%FSLAX46Y46*%
G04 Gerber Fmt 4.6, Leading zero omitted, Abs format (unit mm)*
G04 Created by KiCad (PCBNEW (5.1.9)-1) date 2021-01-26 13:47:22*
%MOMM*%
%LPD*%
G01*
G04 APERTURE LIST*
%ADD10C,0.120000*%
%ADD11C,0.015000*%
%ADD12C,0.150000*%
G04 APERTURE END LIST*
D10*
%TO.C,J3*%
X117034000Y-59774000D02*
X118084000Y-59774000D01*
X118084000Y-58724000D02*
X118084000Y-59774000D01*
X108684000Y-53674000D02*
X108684000Y-44874000D01*
X108684000Y-44874000D02*
X117884000Y-44874000D01*
X111384000Y-59574000D02*
X108684000Y-59574000D01*
X108684000Y-59574000D02*
X108684000Y-57674000D01*
X117884000Y-44874000D02*
X117884000Y-59574000D01*
X117884000Y-59574000D02*
X115284000Y-59574000D01*
%TO.C,CC1*%
X88638748Y-69315000D02*
X89161252Y-69315000D01*
X88638748Y-67845000D02*
X89161252Y-67845000D01*
%TO.C,CC2*%
X98271000Y-67368748D02*
X98271000Y-67891252D01*
X96801000Y-67368748D02*
X96801000Y-67891252D01*
%TO.C,CC3*%
X108704748Y-68045000D02*
X109227252Y-68045000D01*
X108704748Y-66575000D02*
X109227252Y-66575000D01*
%TO.C,CC4*%
X122963000Y-62110252D02*
X122963000Y-61587748D01*
X124433000Y-62110252D02*
X124433000Y-61587748D01*
%TO.C,CC5*%
X130995748Y-61695000D02*
X131518252Y-61695000D01*
X130995748Y-60225000D02*
X131518252Y-60225000D01*
%TO.C,Csh2*%
X121947000Y-72331252D02*
X121947000Y-71808748D01*
X123417000Y-72331252D02*
X123417000Y-71808748D01*
%TO.C,LFB1*%
X101318122Y-59765000D02*
X100518878Y-59765000D01*
X101318122Y-60885000D02*
X100518878Y-60885000D01*
%TO.C,Q2*%
X124970000Y-64695000D02*
X126430000Y-64695000D01*
X124970000Y-67855000D02*
X127130000Y-67855000D01*
X124970000Y-67855000D02*
X124970000Y-66925000D01*
X124970000Y-64695000D02*
X124970000Y-65625000D01*
%TO.C,RB2*%
X114327000Y-66624564D02*
X114327000Y-66170436D01*
X115797000Y-66624564D02*
X115797000Y-66170436D01*
%TO.C,RB1A1*%
X91721000Y-67894564D02*
X91721000Y-67440436D01*
X93191000Y-67894564D02*
X93191000Y-67440436D01*
%TO.C,RC1*%
X106653000Y-66624564D02*
X106653000Y-66170436D01*
X105183000Y-66624564D02*
X105183000Y-66170436D01*
%TO.C,RE1*%
X95731000Y-75434564D02*
X95731000Y-74980436D01*
X94261000Y-75434564D02*
X94261000Y-74980436D01*
%TO.C,RE12*%
X98706000Y-75434564D02*
X98706000Y-74980436D01*
X100176000Y-75434564D02*
X100176000Y-74980436D01*
%TO.C,RE13*%
X103986000Y-75434564D02*
X103986000Y-74980436D01*
X102516000Y-75434564D02*
X102516000Y-74980436D01*
%TO.C,RE14*%
X107796000Y-75434564D02*
X107796000Y-74980436D01*
X106326000Y-75434564D02*
X106326000Y-74980436D01*
%TO.C,RE15*%
X110136000Y-75434564D02*
X110136000Y-74980436D01*
X111606000Y-75434564D02*
X111606000Y-74980436D01*
%TO.C,RE21*%
X132071564Y-66390000D02*
X131617436Y-66390000D01*
X132071564Y-67860000D02*
X131617436Y-67860000D01*
%TO.C,RE22*%
X132071564Y-64685000D02*
X131617436Y-64685000D01*
X132071564Y-63215000D02*
X131617436Y-63215000D01*
%TO.C,RFB1*%
X96801000Y-63369564D02*
X96801000Y-62915436D01*
X98271000Y-63369564D02*
X98271000Y-62915436D01*
%TO.C,RFB2*%
X102516000Y-64185436D02*
X102516000Y-64639564D01*
X103986000Y-64185436D02*
X103986000Y-64639564D01*
%TO.C,Ri2*%
X119376564Y-66575000D02*
X118922436Y-66575000D01*
X119376564Y-68045000D02*
X118922436Y-68045000D01*
%TO.C,Ro1*%
X127662000Y-64265436D02*
X127662000Y-64719564D01*
X129132000Y-64265436D02*
X129132000Y-64719564D01*
%TO.C,Rsh2*%
X123417000Y-67995436D02*
X123417000Y-68449564D01*
X121947000Y-67995436D02*
X121947000Y-68449564D01*
%TO.C,J2*%
D11*
X134720710Y-61634383D02*
X135434996Y-61634383D01*
X135577853Y-61682002D01*
X135673091Y-61777240D01*
X135720710Y-61920097D01*
X135720710Y-62015335D01*
X134815949Y-61205811D02*
X134768330Y-61158192D01*
X134720710Y-61062954D01*
X134720710Y-60824859D01*
X134768330Y-60729621D01*
X134815949Y-60682002D01*
X134911187Y-60634383D01*
X135006425Y-60634383D01*
X135149282Y-60682002D01*
X135720710Y-61253430D01*
X135720710Y-60634383D01*
%TO.C,J1*%
X86434050Y-68572283D02*
X87148336Y-68572283D01*
X87291193Y-68619902D01*
X87386431Y-68715140D01*
X87434050Y-68857997D01*
X87434050Y-68953235D01*
X87434050Y-67572283D02*
X87434050Y-68143711D01*
X87434050Y-67857997D02*
X86434050Y-67857997D01*
X86576908Y-67953235D01*
X86672146Y-68048473D01*
X86719765Y-68143711D01*
%TO.C,J3*%
D12*
X106986380Y-50557333D02*
X107700666Y-50557333D01*
X107843523Y-50604952D01*
X107938761Y-50700190D01*
X107986380Y-50843047D01*
X107986380Y-50938285D01*
X106986380Y-50176380D02*
X106986380Y-49557333D01*
X107367333Y-49890666D01*
X107367333Y-49747809D01*
X107414952Y-49652571D01*
X107462571Y-49604952D01*
X107557809Y-49557333D01*
X107795904Y-49557333D01*
X107891142Y-49604952D01*
X107938761Y-49652571D01*
X107986380Y-49747809D01*
X107986380Y-50033523D01*
X107938761Y-50128761D01*
X107891142Y-50176380D01*
%TO.C,REF\u002A\u002A*%
X133286666Y-74857380D02*
X132953333Y-74381190D01*
X132715238Y-74857380D02*
X132715238Y-73857380D01*
X133096190Y-73857380D01*
X133191428Y-73905000D01*
X133239047Y-73952619D01*
X133286666Y-74047857D01*
X133286666Y-74190714D01*
X133239047Y-74285952D01*
X133191428Y-74333571D01*
X133096190Y-74381190D01*
X132715238Y-74381190D01*
X133715238Y-74333571D02*
X134048571Y-74333571D01*
X134191428Y-74857380D02*
X133715238Y-74857380D01*
X133715238Y-73857380D01*
X134191428Y-73857380D01*
X134953333Y-74333571D02*
X134620000Y-74333571D01*
X134620000Y-74857380D02*
X134620000Y-73857380D01*
X135096190Y-73857380D01*
X135620000Y-73857380D02*
X135620000Y-74095476D01*
X135381904Y-74000238D02*
X135620000Y-74095476D01*
X135858095Y-74000238D01*
X135477142Y-74285952D02*
X135620000Y-74095476D01*
X135762857Y-74285952D01*
X136381904Y-73857380D02*
X136381904Y-74095476D01*
X136143809Y-74000238D02*
X136381904Y-74095476D01*
X136620000Y-74000238D01*
X136239047Y-74285952D02*
X136381904Y-74095476D01*
X136524761Y-74285952D01*
X84772666Y-75238380D02*
X84439333Y-74762190D01*
X84201238Y-75238380D02*
X84201238Y-74238380D01*
X84582190Y-74238380D01*
X84677428Y-74286000D01*
X84725047Y-74333619D01*
X84772666Y-74428857D01*
X84772666Y-74571714D01*
X84725047Y-74666952D01*
X84677428Y-74714571D01*
X84582190Y-74762190D01*
X84201238Y-74762190D01*
X85201238Y-74714571D02*
X85534571Y-74714571D01*
X85677428Y-75238380D02*
X85201238Y-75238380D01*
X85201238Y-74238380D01*
X85677428Y-74238380D01*
X86439333Y-74714571D02*
X86106000Y-74714571D01*
X86106000Y-75238380D02*
X86106000Y-74238380D01*
X86582190Y-74238380D01*
X87106000Y-74238380D02*
X87106000Y-74476476D01*
X86867904Y-74381238D02*
X87106000Y-74476476D01*
X87344095Y-74381238D01*
X86963142Y-74666952D02*
X87106000Y-74476476D01*
X87248857Y-74666952D01*
X87867904Y-74238380D02*
X87867904Y-74476476D01*
X87629809Y-74381238D02*
X87867904Y-74476476D01*
X88106000Y-74381238D01*
X87725047Y-74666952D02*
X87867904Y-74476476D01*
X88010761Y-74666952D01*
X83502666Y-53648380D02*
X83169333Y-53172190D01*
X82931238Y-53648380D02*
X82931238Y-52648380D01*
X83312190Y-52648380D01*
X83407428Y-52696000D01*
X83455047Y-52743619D01*
X83502666Y-52838857D01*
X83502666Y-52981714D01*
X83455047Y-53076952D01*
X83407428Y-53124571D01*
X83312190Y-53172190D01*
X82931238Y-53172190D01*
X83931238Y-53124571D02*
X84264571Y-53124571D01*
X84407428Y-53648380D02*
X83931238Y-53648380D01*
X83931238Y-52648380D01*
X84407428Y-52648380D01*
X85169333Y-53124571D02*
X84836000Y-53124571D01*
X84836000Y-53648380D02*
X84836000Y-52648380D01*
X85312190Y-52648380D01*
X85836000Y-52648380D02*
X85836000Y-52886476D01*
X85597904Y-52791238D02*
X85836000Y-52886476D01*
X86074095Y-52791238D01*
X85693142Y-53076952D02*
X85836000Y-52886476D01*
X85978857Y-53076952D01*
X86597904Y-52648380D02*
X86597904Y-52886476D01*
X86359809Y-52791238D02*
X86597904Y-52886476D01*
X86836000Y-52791238D01*
X86455047Y-53076952D02*
X86597904Y-52886476D01*
X86740761Y-53076952D01*
%TO.C,CC1*%
X88233333Y-67257142D02*
X88185714Y-67304761D01*
X88042857Y-67352380D01*
X87947619Y-67352380D01*
X87804761Y-67304761D01*
X87709523Y-67209523D01*
X87661904Y-67114285D01*
X87614285Y-66923809D01*
X87614285Y-66780952D01*
X87661904Y-66590476D01*
X87709523Y-66495238D01*
X87804761Y-66400000D01*
X87947619Y-66352380D01*
X88042857Y-66352380D01*
X88185714Y-66400000D01*
X88233333Y-66447619D01*
X89233333Y-67257142D02*
X89185714Y-67304761D01*
X89042857Y-67352380D01*
X88947619Y-67352380D01*
X88804761Y-67304761D01*
X88709523Y-67209523D01*
X88661904Y-67114285D01*
X88614285Y-66923809D01*
X88614285Y-66780952D01*
X88661904Y-66590476D01*
X88709523Y-66495238D01*
X88804761Y-66400000D01*
X88947619Y-66352380D01*
X89042857Y-66352380D01*
X89185714Y-66400000D01*
X89233333Y-66447619D01*
X90185714Y-67352380D02*
X89614285Y-67352380D01*
X89900000Y-67352380D02*
X89900000Y-66352380D01*
X89804761Y-66495238D01*
X89709523Y-66590476D01*
X89614285Y-66638095D01*
%TO.C,CC2*%
X99573142Y-68296666D02*
X99620761Y-68344285D01*
X99668380Y-68487142D01*
X99668380Y-68582380D01*
X99620761Y-68725238D01*
X99525523Y-68820476D01*
X99430285Y-68868095D01*
X99239809Y-68915714D01*
X99096952Y-68915714D01*
X98906476Y-68868095D01*
X98811238Y-68820476D01*
X98716000Y-68725238D01*
X98668380Y-68582380D01*
X98668380Y-68487142D01*
X98716000Y-68344285D01*
X98763619Y-68296666D01*
X99573142Y-67296666D02*
X99620761Y-67344285D01*
X99668380Y-67487142D01*
X99668380Y-67582380D01*
X99620761Y-67725238D01*
X99525523Y-67820476D01*
X99430285Y-67868095D01*
X99239809Y-67915714D01*
X99096952Y-67915714D01*
X98906476Y-67868095D01*
X98811238Y-67820476D01*
X98716000Y-67725238D01*
X98668380Y-67582380D01*
X98668380Y-67487142D01*
X98716000Y-67344285D01*
X98763619Y-67296666D01*
X98763619Y-66915714D02*
X98716000Y-66868095D01*
X98668380Y-66772857D01*
X98668380Y-66534761D01*
X98716000Y-66439523D01*
X98763619Y-66391904D01*
X98858857Y-66344285D01*
X98954095Y-66344285D01*
X99096952Y-66391904D01*
X99668380Y-66963333D01*
X99668380Y-66344285D01*
%TO.C,CC3*%
X108299333Y-65987142D02*
X108251714Y-66034761D01*
X108108857Y-66082380D01*
X108013619Y-66082380D01*
X107870761Y-66034761D01*
X107775523Y-65939523D01*
X107727904Y-65844285D01*
X107680285Y-65653809D01*
X107680285Y-65510952D01*
X107727904Y-65320476D01*
X107775523Y-65225238D01*
X107870761Y-65130000D01*
X108013619Y-65082380D01*
X108108857Y-65082380D01*
X108251714Y-65130000D01*
X108299333Y-65177619D01*
X109299333Y-65987142D02*
X109251714Y-66034761D01*
X109108857Y-66082380D01*
X109013619Y-66082380D01*
X108870761Y-66034761D01*
X108775523Y-65939523D01*
X108727904Y-65844285D01*
X108680285Y-65653809D01*
X108680285Y-65510952D01*
X108727904Y-65320476D01*
X108775523Y-65225238D01*
X108870761Y-65130000D01*
X109013619Y-65082380D01*
X109108857Y-65082380D01*
X109251714Y-65130000D01*
X109299333Y-65177619D01*
X109632666Y-65082380D02*
X110251714Y-65082380D01*
X109918380Y-65463333D01*
X110061238Y-65463333D01*
X110156476Y-65510952D01*
X110204095Y-65558571D01*
X110251714Y-65653809D01*
X110251714Y-65891904D01*
X110204095Y-65987142D01*
X110156476Y-66034761D01*
X110061238Y-66082380D01*
X109775523Y-66082380D01*
X109680285Y-66034761D01*
X109632666Y-65987142D01*
%TO.C,CC4*%
X122375142Y-62515666D02*
X122422761Y-62563285D01*
X122470380Y-62706142D01*
X122470380Y-62801380D01*
X122422761Y-62944238D01*
X122327523Y-63039476D01*
X122232285Y-63087095D01*
X122041809Y-63134714D01*
X121898952Y-63134714D01*
X121708476Y-63087095D01*
X121613238Y-63039476D01*
X121518000Y-62944238D01*
X121470380Y-62801380D01*
X121470380Y-62706142D01*
X121518000Y-62563285D01*
X121565619Y-62515666D01*
X122375142Y-61515666D02*
X122422761Y-61563285D01*
X122470380Y-61706142D01*
X122470380Y-61801380D01*
X122422761Y-61944238D01*
X122327523Y-62039476D01*
X122232285Y-62087095D01*
X122041809Y-62134714D01*
X121898952Y-62134714D01*
X121708476Y-62087095D01*
X121613238Y-62039476D01*
X121518000Y-61944238D01*
X121470380Y-61801380D01*
X121470380Y-61706142D01*
X121518000Y-61563285D01*
X121565619Y-61515666D01*
X121803714Y-60658523D02*
X122470380Y-60658523D01*
X121422761Y-60896619D02*
X122137047Y-61134714D01*
X122137047Y-60515666D01*
%TO.C,CC5*%
X130590333Y-59637142D02*
X130542714Y-59684761D01*
X130399857Y-59732380D01*
X130304619Y-59732380D01*
X130161761Y-59684761D01*
X130066523Y-59589523D01*
X130018904Y-59494285D01*
X129971285Y-59303809D01*
X129971285Y-59160952D01*
X130018904Y-58970476D01*
X130066523Y-58875238D01*
X130161761Y-58780000D01*
X130304619Y-58732380D01*
X130399857Y-58732380D01*
X130542714Y-58780000D01*
X130590333Y-58827619D01*
X131590333Y-59637142D02*
X131542714Y-59684761D01*
X131399857Y-59732380D01*
X131304619Y-59732380D01*
X131161761Y-59684761D01*
X131066523Y-59589523D01*
X131018904Y-59494285D01*
X130971285Y-59303809D01*
X130971285Y-59160952D01*
X131018904Y-58970476D01*
X131066523Y-58875238D01*
X131161761Y-58780000D01*
X131304619Y-58732380D01*
X131399857Y-58732380D01*
X131542714Y-58780000D01*
X131590333Y-58827619D01*
X132495095Y-58732380D02*
X132018904Y-58732380D01*
X131971285Y-59208571D01*
X132018904Y-59160952D01*
X132114142Y-59113333D01*
X132352238Y-59113333D01*
X132447476Y-59160952D01*
X132495095Y-59208571D01*
X132542714Y-59303809D01*
X132542714Y-59541904D01*
X132495095Y-59637142D01*
X132447476Y-59684761D01*
X132352238Y-59732380D01*
X132114142Y-59732380D01*
X132018904Y-59684761D01*
X131971285Y-59637142D01*
%TO.C,Csh2*%
X121359142Y-73093809D02*
X121406761Y-73141428D01*
X121454380Y-73284285D01*
X121454380Y-73379523D01*
X121406761Y-73522380D01*
X121311523Y-73617619D01*
X121216285Y-73665238D01*
X121025809Y-73712857D01*
X120882952Y-73712857D01*
X120692476Y-73665238D01*
X120597238Y-73617619D01*
X120502000Y-73522380D01*
X120454380Y-73379523D01*
X120454380Y-73284285D01*
X120502000Y-73141428D01*
X120549619Y-73093809D01*
X121406761Y-72712857D02*
X121454380Y-72617619D01*
X121454380Y-72427142D01*
X121406761Y-72331904D01*
X121311523Y-72284285D01*
X121263904Y-72284285D01*
X121168666Y-72331904D01*
X121121047Y-72427142D01*
X121121047Y-72570000D01*
X121073428Y-72665238D01*
X120978190Y-72712857D01*
X120930571Y-72712857D01*
X120835333Y-72665238D01*
X120787714Y-72570000D01*
X120787714Y-72427142D01*
X120835333Y-72331904D01*
X121454380Y-71855714D02*
X120454380Y-71855714D01*
X121454380Y-71427142D02*
X120930571Y-71427142D01*
X120835333Y-71474761D01*
X120787714Y-71570000D01*
X120787714Y-71712857D01*
X120835333Y-71808095D01*
X120882952Y-71855714D01*
X120549619Y-70998571D02*
X120502000Y-70950952D01*
X120454380Y-70855714D01*
X120454380Y-70617619D01*
X120502000Y-70522380D01*
X120549619Y-70474761D01*
X120644857Y-70427142D01*
X120740095Y-70427142D01*
X120882952Y-70474761D01*
X121454380Y-71046190D01*
X121454380Y-70427142D01*
%TO.C,LFB1*%
X99823261Y-62327380D02*
X99347071Y-62327380D01*
X99347071Y-61327380D01*
X100489928Y-61803571D02*
X100156595Y-61803571D01*
X100156595Y-62327380D02*
X100156595Y-61327380D01*
X100632785Y-61327380D01*
X101347071Y-61803571D02*
X101489928Y-61851190D01*
X101537547Y-61898809D01*
X101585166Y-61994047D01*
X101585166Y-62136904D01*
X101537547Y-62232142D01*
X101489928Y-62279761D01*
X101394690Y-62327380D01*
X101013738Y-62327380D01*
X101013738Y-61327380D01*
X101347071Y-61327380D01*
X101442309Y-61375000D01*
X101489928Y-61422619D01*
X101537547Y-61517857D01*
X101537547Y-61613095D01*
X101489928Y-61708333D01*
X101442309Y-61755952D01*
X101347071Y-61803571D01*
X101013738Y-61803571D01*
X102537547Y-62327380D02*
X101966119Y-62327380D01*
X102251833Y-62327380D02*
X102251833Y-61327380D01*
X102156595Y-61470238D01*
X102061357Y-61565476D01*
X101966119Y-61613095D01*
%TO.C,Q2*%
X125634761Y-69127619D02*
X125539523Y-69080000D01*
X125444285Y-68984761D01*
X125301428Y-68841904D01*
X125206190Y-68794285D01*
X125110952Y-68794285D01*
X125158571Y-69032380D02*
X125063333Y-68984761D01*
X124968095Y-68889523D01*
X124920476Y-68699047D01*
X124920476Y-68365714D01*
X124968095Y-68175238D01*
X125063333Y-68080000D01*
X125158571Y-68032380D01*
X125349047Y-68032380D01*
X125444285Y-68080000D01*
X125539523Y-68175238D01*
X125587142Y-68365714D01*
X125587142Y-68699047D01*
X125539523Y-68889523D01*
X125444285Y-68984761D01*
X125349047Y-69032380D01*
X125158571Y-69032380D01*
X125968095Y-68127619D02*
X126015714Y-68080000D01*
X126110952Y-68032380D01*
X126349047Y-68032380D01*
X126444285Y-68080000D01*
X126491904Y-68127619D01*
X126539523Y-68222857D01*
X126539523Y-68318095D01*
X126491904Y-68460952D01*
X125920476Y-69032380D01*
X126539523Y-69032380D01*
%TO.C,RB2*%
X113864380Y-67064166D02*
X113388190Y-67397500D01*
X113864380Y-67635595D02*
X112864380Y-67635595D01*
X112864380Y-67254642D01*
X112912000Y-67159404D01*
X112959619Y-67111785D01*
X113054857Y-67064166D01*
X113197714Y-67064166D01*
X113292952Y-67111785D01*
X113340571Y-67159404D01*
X113388190Y-67254642D01*
X113388190Y-67635595D01*
X113340571Y-66302261D02*
X113388190Y-66159404D01*
X113435809Y-66111785D01*
X113531047Y-66064166D01*
X113673904Y-66064166D01*
X113769142Y-66111785D01*
X113816761Y-66159404D01*
X113864380Y-66254642D01*
X113864380Y-66635595D01*
X112864380Y-66635595D01*
X112864380Y-66302261D01*
X112912000Y-66207023D01*
X112959619Y-66159404D01*
X113054857Y-66111785D01*
X113150095Y-66111785D01*
X113245333Y-66159404D01*
X113292952Y-66207023D01*
X113340571Y-66302261D01*
X113340571Y-66635595D01*
X112959619Y-65683214D02*
X112912000Y-65635595D01*
X112864380Y-65540357D01*
X112864380Y-65302261D01*
X112912000Y-65207023D01*
X112959619Y-65159404D01*
X113054857Y-65111785D01*
X113150095Y-65111785D01*
X113292952Y-65159404D01*
X113864380Y-65730833D01*
X113864380Y-65111785D01*
%TO.C,RB1A1*%
X90884571Y-65222380D02*
X90551238Y-64746190D01*
X90313142Y-65222380D02*
X90313142Y-64222380D01*
X90694095Y-64222380D01*
X90789333Y-64270000D01*
X90836952Y-64317619D01*
X90884571Y-64412857D01*
X90884571Y-64555714D01*
X90836952Y-64650952D01*
X90789333Y-64698571D01*
X90694095Y-64746190D01*
X90313142Y-64746190D01*
X91646476Y-64698571D02*
X91789333Y-64746190D01*
X91836952Y-64793809D01*
X91884571Y-64889047D01*
X91884571Y-65031904D01*
X91836952Y-65127142D01*
X91789333Y-65174761D01*
X91694095Y-65222380D01*
X91313142Y-65222380D01*
X91313142Y-64222380D01*
X91646476Y-64222380D01*
X91741714Y-64270000D01*
X91789333Y-64317619D01*
X91836952Y-64412857D01*
X91836952Y-64508095D01*
X91789333Y-64603333D01*
X91741714Y-64650952D01*
X91646476Y-64698571D01*
X91313142Y-64698571D01*
X92836952Y-65222380D02*
X92265523Y-65222380D01*
X92551238Y-65222380D02*
X92551238Y-64222380D01*
X92456000Y-64365238D01*
X92360761Y-64460476D01*
X92265523Y-64508095D01*
X93217904Y-64936666D02*
X93694095Y-64936666D01*
X93122666Y-65222380D02*
X93456000Y-64222380D01*
X93789333Y-65222380D01*
X94646476Y-65222380D02*
X94075047Y-65222380D01*
X94360761Y-65222380D02*
X94360761Y-64222380D01*
X94265523Y-64365238D01*
X94170285Y-64460476D01*
X94075047Y-64508095D01*
%TO.C,RC1*%
X104720380Y-67064166D02*
X104244190Y-67397500D01*
X104720380Y-67635595D02*
X103720380Y-67635595D01*
X103720380Y-67254642D01*
X103768000Y-67159404D01*
X103815619Y-67111785D01*
X103910857Y-67064166D01*
X104053714Y-67064166D01*
X104148952Y-67111785D01*
X104196571Y-67159404D01*
X104244190Y-67254642D01*
X104244190Y-67635595D01*
X104625142Y-66064166D02*
X104672761Y-66111785D01*
X104720380Y-66254642D01*
X104720380Y-66349880D01*
X104672761Y-66492738D01*
X104577523Y-66587976D01*
X104482285Y-66635595D01*
X104291809Y-66683214D01*
X104148952Y-66683214D01*
X103958476Y-66635595D01*
X103863238Y-66587976D01*
X103768000Y-66492738D01*
X103720380Y-66349880D01*
X103720380Y-66254642D01*
X103768000Y-66111785D01*
X103815619Y-66064166D01*
X104720380Y-65111785D02*
X104720380Y-65683214D01*
X104720380Y-65397500D02*
X103720380Y-65397500D01*
X103863238Y-65492738D01*
X103958476Y-65587976D01*
X104006095Y-65683214D01*
%TO.C,RE1*%
X93798380Y-75826547D02*
X93322190Y-76159880D01*
X93798380Y-76397976D02*
X92798380Y-76397976D01*
X92798380Y-76017023D01*
X92846000Y-75921785D01*
X92893619Y-75874166D01*
X92988857Y-75826547D01*
X93131714Y-75826547D01*
X93226952Y-75874166D01*
X93274571Y-75921785D01*
X93322190Y-76017023D01*
X93322190Y-76397976D01*
X93274571Y-75397976D02*
X93274571Y-75064642D01*
X93798380Y-74921785D02*
X93798380Y-75397976D01*
X92798380Y-75397976D01*
X92798380Y-74921785D01*
X93798380Y-73969404D02*
X93798380Y-74540833D01*
X93798380Y-74255119D02*
X92798380Y-74255119D01*
X92941238Y-74350357D01*
X93036476Y-74445595D01*
X93084095Y-74540833D01*
%TO.C,RE12*%
X98243380Y-76302738D02*
X97767190Y-76636071D01*
X98243380Y-76874166D02*
X97243380Y-76874166D01*
X97243380Y-76493214D01*
X97291000Y-76397976D01*
X97338619Y-76350357D01*
X97433857Y-76302738D01*
X97576714Y-76302738D01*
X97671952Y-76350357D01*
X97719571Y-76397976D01*
X97767190Y-76493214D01*
X97767190Y-76874166D01*
X97719571Y-75874166D02*
X97719571Y-75540833D01*
X98243380Y-75397976D02*
X98243380Y-75874166D01*
X97243380Y-75874166D01*
X97243380Y-75397976D01*
X98243380Y-74445595D02*
X98243380Y-75017023D01*
X98243380Y-74731309D02*
X97243380Y-74731309D01*
X97386238Y-74826547D01*
X97481476Y-74921785D01*
X97529095Y-75017023D01*
X97338619Y-74064642D02*
X97291000Y-74017023D01*
X97243380Y-73921785D01*
X97243380Y-73683690D01*
X97291000Y-73588452D01*
X97338619Y-73540833D01*
X97433857Y-73493214D01*
X97529095Y-73493214D01*
X97671952Y-73540833D01*
X98243380Y-74112261D01*
X98243380Y-73493214D01*
%TO.C,RE13*%
X102053380Y-76302738D02*
X101577190Y-76636071D01*
X102053380Y-76874166D02*
X101053380Y-76874166D01*
X101053380Y-76493214D01*
X101101000Y-76397976D01*
X101148619Y-76350357D01*
X101243857Y-76302738D01*
X101386714Y-76302738D01*
X101481952Y-76350357D01*
X101529571Y-76397976D01*
X101577190Y-76493214D01*
X101577190Y-76874166D01*
X101529571Y-75874166D02*
X101529571Y-75540833D01*
X102053380Y-75397976D02*
X102053380Y-75874166D01*
X101053380Y-75874166D01*
X101053380Y-75397976D01*
X102053380Y-74445595D02*
X102053380Y-75017023D01*
X102053380Y-74731309D02*
X101053380Y-74731309D01*
X101196238Y-74826547D01*
X101291476Y-74921785D01*
X101339095Y-75017023D01*
X101053380Y-74112261D02*
X101053380Y-73493214D01*
X101434333Y-73826547D01*
X101434333Y-73683690D01*
X101481952Y-73588452D01*
X101529571Y-73540833D01*
X101624809Y-73493214D01*
X101862904Y-73493214D01*
X101958142Y-73540833D01*
X102005761Y-73588452D01*
X102053380Y-73683690D01*
X102053380Y-73969404D01*
X102005761Y-74064642D01*
X101958142Y-74112261D01*
%TO.C,RE14*%
X105863380Y-76302738D02*
X105387190Y-76636071D01*
X105863380Y-76874166D02*
X104863380Y-76874166D01*
X104863380Y-76493214D01*
X104911000Y-76397976D01*
X104958619Y-76350357D01*
X105053857Y-76302738D01*
X105196714Y-76302738D01*
X105291952Y-76350357D01*
X105339571Y-76397976D01*
X105387190Y-76493214D01*
X105387190Y-76874166D01*
X105339571Y-75874166D02*
X105339571Y-75540833D01*
X105863380Y-75397976D02*
X105863380Y-75874166D01*
X104863380Y-75874166D01*
X104863380Y-75397976D01*
X105863380Y-74445595D02*
X105863380Y-75017023D01*
X105863380Y-74731309D02*
X104863380Y-74731309D01*
X105006238Y-74826547D01*
X105101476Y-74921785D01*
X105149095Y-75017023D01*
X105196714Y-73588452D02*
X105863380Y-73588452D01*
X104815761Y-73826547D02*
X105530047Y-74064642D01*
X105530047Y-73445595D01*
%TO.C,RE15*%
X109673380Y-76302738D02*
X109197190Y-76636071D01*
X109673380Y-76874166D02*
X108673380Y-76874166D01*
X108673380Y-76493214D01*
X108721000Y-76397976D01*
X108768619Y-76350357D01*
X108863857Y-76302738D01*
X109006714Y-76302738D01*
X109101952Y-76350357D01*
X109149571Y-76397976D01*
X109197190Y-76493214D01*
X109197190Y-76874166D01*
X109149571Y-75874166D02*
X109149571Y-75540833D01*
X109673380Y-75397976D02*
X109673380Y-75874166D01*
X108673380Y-75874166D01*
X108673380Y-75397976D01*
X109673380Y-74445595D02*
X109673380Y-75017023D01*
X109673380Y-74731309D02*
X108673380Y-74731309D01*
X108816238Y-74826547D01*
X108911476Y-74921785D01*
X108959095Y-75017023D01*
X108673380Y-73540833D02*
X108673380Y-74017023D01*
X109149571Y-74064642D01*
X109101952Y-74017023D01*
X109054333Y-73921785D01*
X109054333Y-73683690D01*
X109101952Y-73588452D01*
X109149571Y-73540833D01*
X109244809Y-73493214D01*
X109482904Y-73493214D01*
X109578142Y-73540833D01*
X109625761Y-73588452D01*
X109673380Y-73683690D01*
X109673380Y-73921785D01*
X109625761Y-74017023D01*
X109578142Y-74064642D01*
%TO.C,RE21*%
X130749261Y-69227380D02*
X130415928Y-68751190D01*
X130177833Y-69227380D02*
X130177833Y-68227380D01*
X130558785Y-68227380D01*
X130654023Y-68275000D01*
X130701642Y-68322619D01*
X130749261Y-68417857D01*
X130749261Y-68560714D01*
X130701642Y-68655952D01*
X130654023Y-68703571D01*
X130558785Y-68751190D01*
X130177833Y-68751190D01*
X131177833Y-68703571D02*
X131511166Y-68703571D01*
X131654023Y-69227380D02*
X131177833Y-69227380D01*
X131177833Y-68227380D01*
X131654023Y-68227380D01*
X132034976Y-68322619D02*
X132082595Y-68275000D01*
X132177833Y-68227380D01*
X132415928Y-68227380D01*
X132511166Y-68275000D01*
X132558785Y-68322619D01*
X132606404Y-68417857D01*
X132606404Y-68513095D01*
X132558785Y-68655952D01*
X131987357Y-69227380D01*
X132606404Y-69227380D01*
X133558785Y-69227380D02*
X132987357Y-69227380D01*
X133273071Y-69227380D02*
X133273071Y-68227380D01*
X133177833Y-68370238D01*
X133082595Y-68465476D01*
X132987357Y-68513095D01*
%TO.C,RE22*%
X130749261Y-66052380D02*
X130415928Y-65576190D01*
X130177833Y-66052380D02*
X130177833Y-65052380D01*
X130558785Y-65052380D01*
X130654023Y-65100000D01*
X130701642Y-65147619D01*
X130749261Y-65242857D01*
X130749261Y-65385714D01*
X130701642Y-65480952D01*
X130654023Y-65528571D01*
X130558785Y-65576190D01*
X130177833Y-65576190D01*
X131177833Y-65528571D02*
X131511166Y-65528571D01*
X131654023Y-66052380D02*
X131177833Y-66052380D01*
X131177833Y-65052380D01*
X131654023Y-65052380D01*
X132034976Y-65147619D02*
X132082595Y-65100000D01*
X132177833Y-65052380D01*
X132415928Y-65052380D01*
X132511166Y-65100000D01*
X132558785Y-65147619D01*
X132606404Y-65242857D01*
X132606404Y-65338095D01*
X132558785Y-65480952D01*
X131987357Y-66052380D01*
X132606404Y-66052380D01*
X132987357Y-65147619D02*
X133034976Y-65100000D01*
X133130214Y-65052380D01*
X133368309Y-65052380D01*
X133463547Y-65100000D01*
X133511166Y-65147619D01*
X133558785Y-65242857D01*
X133558785Y-65338095D01*
X133511166Y-65480952D01*
X132939738Y-66052380D01*
X133558785Y-66052380D01*
%TO.C,RFB1*%
X96338380Y-64237738D02*
X95862190Y-64571071D01*
X96338380Y-64809166D02*
X95338380Y-64809166D01*
X95338380Y-64428214D01*
X95386000Y-64332976D01*
X95433619Y-64285357D01*
X95528857Y-64237738D01*
X95671714Y-64237738D01*
X95766952Y-64285357D01*
X95814571Y-64332976D01*
X95862190Y-64428214D01*
X95862190Y-64809166D01*
X95814571Y-63475833D02*
X95814571Y-63809166D01*
X96338380Y-63809166D02*
X95338380Y-63809166D01*
X95338380Y-63332976D01*
X95814571Y-62618690D02*
X95862190Y-62475833D01*
X95909809Y-62428214D01*
X96005047Y-62380595D01*
X96147904Y-62380595D01*
X96243142Y-62428214D01*
X96290761Y-62475833D01*
X96338380Y-62571071D01*
X96338380Y-62952023D01*
X95338380Y-62952023D01*
X95338380Y-62618690D01*
X95386000Y-62523452D01*
X95433619Y-62475833D01*
X95528857Y-62428214D01*
X95624095Y-62428214D01*
X95719333Y-62475833D01*
X95766952Y-62523452D01*
X95814571Y-62618690D01*
X95814571Y-62952023D01*
X96338380Y-61428214D02*
X96338380Y-61999642D01*
X96338380Y-61713928D02*
X95338380Y-61713928D01*
X95481238Y-61809166D01*
X95576476Y-61904404D01*
X95624095Y-61999642D01*
%TO.C,RFB2*%
X105353380Y-65507738D02*
X104877190Y-65841071D01*
X105353380Y-66079166D02*
X104353380Y-66079166D01*
X104353380Y-65698214D01*
X104401000Y-65602976D01*
X104448619Y-65555357D01*
X104543857Y-65507738D01*
X104686714Y-65507738D01*
X104781952Y-65555357D01*
X104829571Y-65602976D01*
X104877190Y-65698214D01*
X104877190Y-66079166D01*
X104829571Y-64745833D02*
X104829571Y-65079166D01*
X105353380Y-65079166D02*
X104353380Y-65079166D01*
X104353380Y-64602976D01*
X104829571Y-63888690D02*
X104877190Y-63745833D01*
X104924809Y-63698214D01*
X105020047Y-63650595D01*
X105162904Y-63650595D01*
X105258142Y-63698214D01*
X105305761Y-63745833D01*
X105353380Y-63841071D01*
X105353380Y-64222023D01*
X104353380Y-64222023D01*
X104353380Y-63888690D01*
X104401000Y-63793452D01*
X104448619Y-63745833D01*
X104543857Y-63698214D01*
X104639095Y-63698214D01*
X104734333Y-63745833D01*
X104781952Y-63793452D01*
X104829571Y-63888690D01*
X104829571Y-64222023D01*
X104448619Y-63269642D02*
X104401000Y-63222023D01*
X104353380Y-63126785D01*
X104353380Y-62888690D01*
X104401000Y-62793452D01*
X104448619Y-62745833D01*
X104543857Y-62698214D01*
X104639095Y-62698214D01*
X104781952Y-62745833D01*
X105353380Y-63317261D01*
X105353380Y-62698214D01*
%TO.C,Ri2*%
X118744738Y-69412380D02*
X118411404Y-68936190D01*
X118173309Y-69412380D02*
X118173309Y-68412380D01*
X118554261Y-68412380D01*
X118649500Y-68460000D01*
X118697119Y-68507619D01*
X118744738Y-68602857D01*
X118744738Y-68745714D01*
X118697119Y-68840952D01*
X118649500Y-68888571D01*
X118554261Y-68936190D01*
X118173309Y-68936190D01*
X119173309Y-69412380D02*
X119173309Y-68745714D01*
X119173309Y-68412380D02*
X119125690Y-68460000D01*
X119173309Y-68507619D01*
X119220928Y-68460000D01*
X119173309Y-68412380D01*
X119173309Y-68507619D01*
X119601880Y-68507619D02*
X119649500Y-68460000D01*
X119744738Y-68412380D01*
X119982833Y-68412380D01*
X120078071Y-68460000D01*
X120125690Y-68507619D01*
X120173309Y-68602857D01*
X120173309Y-68698095D01*
X120125690Y-68840952D01*
X119554261Y-69412380D01*
X120173309Y-69412380D01*
%TO.C,Ro1*%
X130499380Y-65111547D02*
X130023190Y-65444880D01*
X130499380Y-65682976D02*
X129499380Y-65682976D01*
X129499380Y-65302023D01*
X129547000Y-65206785D01*
X129594619Y-65159166D01*
X129689857Y-65111547D01*
X129832714Y-65111547D01*
X129927952Y-65159166D01*
X129975571Y-65206785D01*
X130023190Y-65302023D01*
X130023190Y-65682976D01*
X130499380Y-64540119D02*
X130451761Y-64635357D01*
X130404142Y-64682976D01*
X130308904Y-64730595D01*
X130023190Y-64730595D01*
X129927952Y-64682976D01*
X129880333Y-64635357D01*
X129832714Y-64540119D01*
X129832714Y-64397261D01*
X129880333Y-64302023D01*
X129927952Y-64254404D01*
X130023190Y-64206785D01*
X130308904Y-64206785D01*
X130404142Y-64254404D01*
X130451761Y-64302023D01*
X130499380Y-64397261D01*
X130499380Y-64540119D01*
X130499380Y-63254404D02*
X130499380Y-63825833D01*
X130499380Y-63540119D02*
X129499380Y-63540119D01*
X129642238Y-63635357D01*
X129737476Y-63730595D01*
X129785095Y-63825833D01*
%TO.C,Rsh2*%
X124784380Y-69246309D02*
X124308190Y-69579642D01*
X124784380Y-69817738D02*
X123784380Y-69817738D01*
X123784380Y-69436785D01*
X123832000Y-69341547D01*
X123879619Y-69293928D01*
X123974857Y-69246309D01*
X124117714Y-69246309D01*
X124212952Y-69293928D01*
X124260571Y-69341547D01*
X124308190Y-69436785D01*
X124308190Y-69817738D01*
X124736761Y-68865357D02*
X124784380Y-68770119D01*
X124784380Y-68579642D01*
X124736761Y-68484404D01*
X124641523Y-68436785D01*
X124593904Y-68436785D01*
X124498666Y-68484404D01*
X124451047Y-68579642D01*
X124451047Y-68722500D01*
X124403428Y-68817738D01*
X124308190Y-68865357D01*
X124260571Y-68865357D01*
X124165333Y-68817738D01*
X124117714Y-68722500D01*
X124117714Y-68579642D01*
X124165333Y-68484404D01*
X124784380Y-68008214D02*
X123784380Y-68008214D01*
X124784380Y-67579642D02*
X124260571Y-67579642D01*
X124165333Y-67627261D01*
X124117714Y-67722500D01*
X124117714Y-67865357D01*
X124165333Y-67960595D01*
X124212952Y-68008214D01*
X123879619Y-67151071D02*
X123832000Y-67103452D01*
X123784380Y-67008214D01*
X123784380Y-66770119D01*
X123832000Y-66674880D01*
X123879619Y-66627261D01*
X123974857Y-66579642D01*
X124070095Y-66579642D01*
X124212952Y-66627261D01*
X124784380Y-67198690D01*
X124784380Y-66579642D01*
%TO.C,U1*%
D11*
X104051049Y-67997519D02*
X104051049Y-68252490D01*
X104066048Y-68282487D01*
X104081046Y-68297485D01*
X104111043Y-68312484D01*
X104171036Y-68312484D01*
X104201033Y-68297485D01*
X104216031Y-68282487D01*
X104231029Y-68252490D01*
X104231029Y-67997519D01*
X104545994Y-68312484D02*
X104366014Y-68312484D01*
X104456004Y-68312484D02*
X104456004Y-67997519D01*
X104426008Y-68042514D01*
X104396011Y-68072510D01*
X104366014Y-68087509D01*
%TD*%
M02*
