M48
; DRILL file {KiCad (5.1.9)-1} date 02/11/21 15:31:24
; FORMAT={-:-/ absolute / inch / decimal}
; #@! TF.CreationDate,2021-02-11T15:31:24-05:00
; #@! TF.GenerationSoftware,Kicad,Pcbnew,(5.1.9)-1
; #@! TF.FileFunction,Plated,1,2,PTH
FMAT,2
INCH
T1C0.0157
T2C0.0394
%
G90
G05
T1
X3.6164Y-2.3692
X3.6164Y-2.5267
X3.6164Y-2.6842
X3.6164Y-2.8417
X3.6558Y-3.3929
X3.6951Y-2.2905
X3.6951Y-2.448
X3.6951Y-2.6055
X3.6951Y-2.7629
X3.6951Y-2.9204
X3.7345Y-3.4716
X3.7739Y-2.3692
X3.7739Y-2.5267
X3.7739Y-2.6842
X3.7739Y-2.8417
X3.7739Y-2.9992
X3.7739Y-3.2354
X3.8133Y-3.3535
X3.8526Y-2.7629
X3.8526Y-2.9204
X3.8526Y-3.0779
X3.892Y-3.2747
X3.892Y-3.4322
X3.9707Y-3.3535
X4.0Y-3.09
X4.0101Y-2.3299
X4.0101Y-2.4873
X4.0101Y-2.6448
X4.0101Y-2.8417
X4.0101Y-3.4716
X4.02Y-3.05
X4.04Y-2.915
X4.0495Y-3.2747
X4.05Y-3.09
X4.0888Y-1.8181
X4.0888Y-1.9755
X4.0888Y-2.133
X4.0888Y-2.4086
X4.0888Y-2.5661
X4.0888Y-2.7236
X4.0888Y-3.3929
X4.1Y-3.09
X4.1676Y-1.7393
X4.1676Y-1.8968
X4.1676Y-2.0543
X4.1676Y-2.2118
X4.1676Y-2.4873
X4.1676Y-2.6448
X4.1676Y-3.2354
X4.207Y-2.3299
X4.207Y-2.7629
X4.207Y-3.3535
X4.2463Y-1.8181
X4.2463Y-1.9755
X4.2463Y-2.133
X4.2463Y-2.5661
X4.2463Y-2.881
X4.2463Y-3.0385
X4.2857Y-2.2511
X4.2857Y-2.4086
X4.2857Y-2.6842
X4.2857Y-3.2747
X4.2857Y-3.4322
X4.3251Y-1.7393
X4.3251Y-1.8968
X4.3251Y-2.0543
X4.3251Y-2.8023
X4.3251Y-2.9598
X4.3644Y-2.1724
X4.3644Y-2.3299
X4.3644Y-2.4873
X4.3644Y-3.0779
X4.3644Y-3.3535
X4.4038Y-1.8181
X4.4038Y-1.9755
X4.4038Y-2.6055
X4.4038Y-2.881
X4.4432Y-2.0936
X4.4432Y-2.2511
X4.4432Y-2.4086
X4.4432Y-2.7236
X4.4432Y-3.4322
X4.4825Y-1.7393
X4.4825Y-1.8968
X4.4825Y-2.5267
X4.5219Y-2.0149
X4.5219Y-2.1724
X4.5219Y-2.3299
X4.5219Y-2.6448
X4.5219Y-2.8023
T2
G00X3.6809Y-1.8843
M15
G01X3.6809Y-1.9631
M16
G05
G00X3.9053Y-1.8056
M15
G01X3.8265Y-1.8056
M16
G05
G00X3.9053Y-2.0418
M15
G01X3.8265Y-2.0418
M16
G05
T0
M30
