%TF.GenerationSoftware,KiCad,Pcbnew,(5.1.9)-1*%
%TF.CreationDate,2021-01-26T13:46:46-05:00*%
%TF.ProjectId,LNA2,4c4e4132-2e6b-4696-9361-645f70636258,rev?*%
%TF.SameCoordinates,Original*%
%TF.FileFunction,Copper,L2,Bot*%
%TF.FilePolarity,Positive*%
%FSLAX46Y46*%
G04 Gerber Fmt 4.6, Leading zero omitted, Abs format (unit mm)*
G04 Created by KiCad (PCBNEW (5.1.9)-1) date 2021-01-26 13:46:46*
%MOMM*%
%LPD*%
G01*
G04 APERTURE LIST*
%TA.AperFunction,SMDPad,CuDef*%
%ADD10R,4.200000X1.350000*%
%TD*%
%TA.AperFunction,ComponentPad*%
%ADD11O,1.700000X1.700000*%
%TD*%
%TA.AperFunction,ComponentPad*%
%ADD12R,1.700000X1.700000*%
%TD*%
%TA.AperFunction,ViaPad*%
%ADD13C,0.800000*%
%TD*%
%TA.AperFunction,Conductor*%
%ADD14C,0.254000*%
%TD*%
%TA.AperFunction,Conductor*%
%ADD15C,0.100000*%
%TD*%
G04 APERTURE END LIST*
D10*
%TO.P,J2,3_2*%
%TO.N,GND*%
X114227000Y-77439000D03*
%TO.P,J2,2_2*%
X114227000Y-83089000D03*
%TD*%
%TO.P,J1,3_2*%
%TO.N,GND*%
X92656000Y-83089000D03*
%TO.P,J1,2_2*%
X92656000Y-77439000D03*
%TD*%
D11*
%TO.P,J3,2*%
%TO.N,GND*%
X97536000Y-72898000D03*
D12*
%TO.P,J3,1*%
%TO.N,VCC*%
X100076000Y-72898000D03*
%TD*%
D13*
%TO.N,GND*%
X91440000Y-77343000D03*
X92710000Y-77470000D03*
X93980000Y-77470000D03*
X91440000Y-83058000D03*
X92710000Y-83185000D03*
X94107000Y-83058000D03*
X112776000Y-83185000D03*
X114046000Y-83185000D03*
X115443000Y-83185000D03*
X113157000Y-77470000D03*
X114300000Y-77470000D03*
X115316000Y-77470000D03*
X105664000Y-83566000D03*
X104140000Y-83566000D03*
X108458000Y-83566000D03*
X98552000Y-83566000D03*
X99822000Y-83566000D03*
X101346000Y-83566000D03*
X105664000Y-84836000D03*
X104140000Y-84836000D03*
X108458000Y-84836000D03*
X102616000Y-84836000D03*
X98552000Y-84836000D03*
X99822000Y-84836000D03*
X107188000Y-84836000D03*
X101346000Y-84836000D03*
X104140000Y-86106000D03*
X108458000Y-86106000D03*
X98552000Y-86106000D03*
X107188000Y-86106000D03*
X101346000Y-86106000D03*
X105664000Y-87376000D03*
X104140000Y-87376000D03*
X108458000Y-87376000D03*
X102616000Y-87376000D03*
X98552000Y-87376000D03*
X99822000Y-87376000D03*
X107188000Y-87376000D03*
X101346000Y-87376000D03*
X99060000Y-88646000D03*
X97536000Y-88646000D03*
X101854000Y-88646000D03*
X96012000Y-88646000D03*
X91948000Y-88646000D03*
X93218000Y-88646000D03*
X94742000Y-88646000D03*
X110490000Y-88646000D03*
X108966000Y-88646000D03*
X113284000Y-88646000D03*
X107442000Y-88646000D03*
X104648000Y-88646000D03*
X112014000Y-88646000D03*
X108204000Y-75184000D03*
X109728000Y-85344000D03*
X97028000Y-82296000D03*
X97028000Y-83820000D03*
X97028000Y-85344000D03*
X97028000Y-86868000D03*
X95758000Y-87122000D03*
X94742000Y-87122000D03*
X93472000Y-87122000D03*
X92202000Y-87122000D03*
X98552000Y-82296000D03*
X99822000Y-82296000D03*
X101346000Y-82296000D03*
X102616000Y-82296000D03*
X104140000Y-82296000D03*
X105664000Y-82296000D03*
X107188000Y-82296000D03*
X108458000Y-82296000D03*
X109728000Y-82296000D03*
X109728000Y-83820000D03*
X110236000Y-87122000D03*
X111760000Y-87122000D03*
X113030000Y-87122000D03*
X114300000Y-87122000D03*
X115316000Y-87122000D03*
X101600000Y-78486000D03*
X102870000Y-78486000D03*
X104140000Y-78486000D03*
X102108000Y-77470000D03*
X107950000Y-78232000D03*
X109220000Y-78232000D03*
X109982000Y-76962000D03*
X109982000Y-75438000D03*
X109982000Y-74168000D03*
X110998000Y-73406000D03*
X112268000Y-73406000D03*
X113538000Y-73406000D03*
X114808000Y-73406000D03*
X96774000Y-77978000D03*
X96774000Y-76708000D03*
X96774000Y-75184000D03*
X95504000Y-73152000D03*
X94488000Y-73152000D03*
X93218000Y-73152000D03*
X91948000Y-73152000D03*
X98298000Y-75184000D03*
X98298000Y-76708000D03*
X98298000Y-77978000D03*
X102108000Y-71120000D03*
X103378000Y-71120000D03*
X104902000Y-71120000D03*
X106426000Y-71628000D03*
X107442000Y-72390000D03*
X108204000Y-73406000D03*
X108204000Y-76708000D03*
X114808000Y-88646000D03*
X110998000Y-72136000D03*
X112268000Y-72136000D03*
X113538000Y-72136000D03*
X114808000Y-72136000D03*
X114808000Y-70866000D03*
X113538000Y-70866000D03*
X112268000Y-70866000D03*
X110998000Y-70866000D03*
X95504000Y-71628000D03*
X94488000Y-71628000D03*
X93218000Y-71628000D03*
X91948000Y-71628000D03*
X100584000Y-88646000D03*
X103378000Y-88646000D03*
X106172000Y-88646000D03*
X99822000Y-86106000D03*
X102616000Y-86106000D03*
X105664000Y-86106000D03*
X107188000Y-83566000D03*
X102616000Y-83566000D03*
X91440000Y-75311000D03*
X92837000Y-75311000D03*
X94107000Y-75311000D03*
X95504000Y-75311000D03*
X94488000Y-85090000D03*
X93091000Y-85090000D03*
X91694000Y-85090000D03*
X112141000Y-85217000D03*
X113665000Y-85217000D03*
X115062000Y-85217000D03*
X110871000Y-83058000D03*
X112268000Y-75184000D03*
X113665000Y-75184000D03*
X115062000Y-75184000D03*
X102616000Y-74041000D03*
%TD*%
D14*
%TO.N,GND*%
X115776237Y-76126861D02*
X114512750Y-76129000D01*
X114354000Y-76287750D01*
X114354000Y-77312000D01*
X114374000Y-77312000D01*
X114374000Y-77566000D01*
X114354000Y-77566000D01*
X114354000Y-78590250D01*
X114512750Y-78749000D01*
X115810768Y-78751198D01*
X115850578Y-81776734D01*
X114512750Y-81779000D01*
X114354000Y-81937750D01*
X114354000Y-82962000D01*
X114374000Y-82962000D01*
X114374000Y-83216000D01*
X114354000Y-83216000D01*
X114354000Y-84240250D01*
X114512750Y-84399000D01*
X115885112Y-84401324D01*
X115948998Y-89256642D01*
X90899119Y-89382838D01*
X90893987Y-89382335D01*
X90893500Y-89377699D01*
X90893500Y-84401501D01*
X92370250Y-84399000D01*
X92529000Y-84240250D01*
X92529000Y-83216000D01*
X92783000Y-83216000D01*
X92783000Y-84240250D01*
X92941750Y-84399000D01*
X94756000Y-84402072D01*
X94880482Y-84389812D01*
X95000180Y-84353502D01*
X95110494Y-84294537D01*
X95207185Y-84215185D01*
X95286537Y-84118494D01*
X95345502Y-84008180D01*
X95381812Y-83888482D01*
X95394072Y-83764000D01*
X111488928Y-83764000D01*
X111501188Y-83888482D01*
X111537498Y-84008180D01*
X111596463Y-84118494D01*
X111675815Y-84215185D01*
X111772506Y-84294537D01*
X111882820Y-84353502D01*
X112002518Y-84389812D01*
X112127000Y-84402072D01*
X113941250Y-84399000D01*
X114100000Y-84240250D01*
X114100000Y-83216000D01*
X111650750Y-83216000D01*
X111492000Y-83374750D01*
X111488928Y-83764000D01*
X95394072Y-83764000D01*
X95391000Y-83374750D01*
X95232250Y-83216000D01*
X92783000Y-83216000D01*
X92529000Y-83216000D01*
X92509000Y-83216000D01*
X92509000Y-82962000D01*
X92529000Y-82962000D01*
X92529000Y-81937750D01*
X92783000Y-81937750D01*
X92783000Y-82962000D01*
X95232250Y-82962000D01*
X95391000Y-82803250D01*
X95394072Y-82414000D01*
X111488928Y-82414000D01*
X111492000Y-82803250D01*
X111650750Y-82962000D01*
X114100000Y-82962000D01*
X114100000Y-81937750D01*
X113941250Y-81779000D01*
X112127000Y-81775928D01*
X112002518Y-81788188D01*
X111882820Y-81824498D01*
X111772506Y-81883463D01*
X111675815Y-81962815D01*
X111596463Y-82059506D01*
X111537498Y-82169820D01*
X111501188Y-82289518D01*
X111488928Y-82414000D01*
X95394072Y-82414000D01*
X95381812Y-82289518D01*
X95345502Y-82169820D01*
X95286537Y-82059506D01*
X95207185Y-81962815D01*
X95110494Y-81883463D01*
X95000180Y-81824498D01*
X94880482Y-81788188D01*
X94756000Y-81775928D01*
X92941750Y-81779000D01*
X92783000Y-81937750D01*
X92529000Y-81937750D01*
X92370250Y-81779000D01*
X90893500Y-81776499D01*
X90893500Y-78751501D01*
X92370250Y-78749000D01*
X92529000Y-78590250D01*
X92529000Y-77566000D01*
X92783000Y-77566000D01*
X92783000Y-78590250D01*
X92941750Y-78749000D01*
X94756000Y-78752072D01*
X94880482Y-78739812D01*
X95000180Y-78703502D01*
X95110494Y-78644537D01*
X95207185Y-78565185D01*
X95286537Y-78468494D01*
X95345502Y-78358180D01*
X95381812Y-78238482D01*
X95394072Y-78114000D01*
X111488928Y-78114000D01*
X111501188Y-78238482D01*
X111537498Y-78358180D01*
X111596463Y-78468494D01*
X111675815Y-78565185D01*
X111772506Y-78644537D01*
X111882820Y-78703502D01*
X112002518Y-78739812D01*
X112127000Y-78752072D01*
X113941250Y-78749000D01*
X114100000Y-78590250D01*
X114100000Y-77566000D01*
X111650750Y-77566000D01*
X111492000Y-77724750D01*
X111488928Y-78114000D01*
X95394072Y-78114000D01*
X95391000Y-77724750D01*
X95232250Y-77566000D01*
X92783000Y-77566000D01*
X92529000Y-77566000D01*
X92509000Y-77566000D01*
X92509000Y-77312000D01*
X92529000Y-77312000D01*
X92529000Y-76287750D01*
X92783000Y-76287750D01*
X92783000Y-77312000D01*
X95232250Y-77312000D01*
X95391000Y-77153250D01*
X95394072Y-76764000D01*
X111488928Y-76764000D01*
X111492000Y-77153250D01*
X111650750Y-77312000D01*
X114100000Y-77312000D01*
X114100000Y-76287750D01*
X113941250Y-76129000D01*
X112127000Y-76125928D01*
X112002518Y-76138188D01*
X111882820Y-76174498D01*
X111772506Y-76233463D01*
X111675815Y-76312815D01*
X111596463Y-76409506D01*
X111537498Y-76519820D01*
X111501188Y-76639518D01*
X111488928Y-76764000D01*
X95394072Y-76764000D01*
X95381812Y-76639518D01*
X95345502Y-76519820D01*
X95286537Y-76409506D01*
X95207185Y-76312815D01*
X95110494Y-76233463D01*
X95000180Y-76174498D01*
X94880482Y-76138188D01*
X94756000Y-76125928D01*
X92941750Y-76129000D01*
X92783000Y-76287750D01*
X92529000Y-76287750D01*
X92370250Y-76129000D01*
X90893500Y-76126499D01*
X90893500Y-73254891D01*
X96094519Y-73254891D01*
X96191843Y-73529252D01*
X96340822Y-73779355D01*
X96535731Y-73995588D01*
X96769080Y-74169641D01*
X97031901Y-74294825D01*
X97179110Y-74339476D01*
X97409000Y-74218155D01*
X97409000Y-73025000D01*
X96215186Y-73025000D01*
X96094519Y-73254891D01*
X90893500Y-73254891D01*
X90893500Y-72541109D01*
X96094519Y-72541109D01*
X96215186Y-72771000D01*
X97409000Y-72771000D01*
X97409000Y-71577845D01*
X97663000Y-71577845D01*
X97663000Y-72771000D01*
X97683000Y-72771000D01*
X97683000Y-73025000D01*
X97663000Y-73025000D01*
X97663000Y-74218155D01*
X97892890Y-74339476D01*
X98040099Y-74294825D01*
X98302920Y-74169641D01*
X98536269Y-73995588D01*
X98612034Y-73911534D01*
X98636498Y-73992180D01*
X98695463Y-74102494D01*
X98774815Y-74199185D01*
X98871506Y-74278537D01*
X98981820Y-74337502D01*
X99101518Y-74373812D01*
X99226000Y-74386072D01*
X100926000Y-74386072D01*
X101050482Y-74373812D01*
X101170180Y-74337502D01*
X101280494Y-74278537D01*
X101377185Y-74199185D01*
X101456537Y-74102494D01*
X101515502Y-73992180D01*
X101551812Y-73872482D01*
X101564072Y-73748000D01*
X101564072Y-72048000D01*
X101551812Y-71923518D01*
X101515502Y-71803820D01*
X101456537Y-71693506D01*
X101377185Y-71596815D01*
X101280494Y-71517463D01*
X101170180Y-71458498D01*
X101050482Y-71422188D01*
X100926000Y-71409928D01*
X99226000Y-71409928D01*
X99101518Y-71422188D01*
X98981820Y-71458498D01*
X98871506Y-71517463D01*
X98774815Y-71596815D01*
X98695463Y-71693506D01*
X98636498Y-71803820D01*
X98612034Y-71884466D01*
X98536269Y-71800412D01*
X98302920Y-71626359D01*
X98040099Y-71501175D01*
X97892890Y-71456524D01*
X97663000Y-71577845D01*
X97409000Y-71577845D01*
X97179110Y-71456524D01*
X97031901Y-71501175D01*
X96769080Y-71626359D01*
X96535731Y-71800412D01*
X96340822Y-72016645D01*
X96191843Y-72266748D01*
X96094519Y-72541109D01*
X90893500Y-72541109D01*
X90893500Y-70517275D01*
X90894166Y-70510487D01*
X90898801Y-70510000D01*
X115702331Y-70510000D01*
X115776237Y-76126861D01*
%TA.AperFunction,Conductor*%
D15*
G36*
X115776237Y-76126861D02*
G01*
X114512750Y-76129000D01*
X114354000Y-76287750D01*
X114354000Y-77312000D01*
X114374000Y-77312000D01*
X114374000Y-77566000D01*
X114354000Y-77566000D01*
X114354000Y-78590250D01*
X114512750Y-78749000D01*
X115810768Y-78751198D01*
X115850578Y-81776734D01*
X114512750Y-81779000D01*
X114354000Y-81937750D01*
X114354000Y-82962000D01*
X114374000Y-82962000D01*
X114374000Y-83216000D01*
X114354000Y-83216000D01*
X114354000Y-84240250D01*
X114512750Y-84399000D01*
X115885112Y-84401324D01*
X115948998Y-89256642D01*
X90899119Y-89382838D01*
X90893987Y-89382335D01*
X90893500Y-89377699D01*
X90893500Y-84401501D01*
X92370250Y-84399000D01*
X92529000Y-84240250D01*
X92529000Y-83216000D01*
X92783000Y-83216000D01*
X92783000Y-84240250D01*
X92941750Y-84399000D01*
X94756000Y-84402072D01*
X94880482Y-84389812D01*
X95000180Y-84353502D01*
X95110494Y-84294537D01*
X95207185Y-84215185D01*
X95286537Y-84118494D01*
X95345502Y-84008180D01*
X95381812Y-83888482D01*
X95394072Y-83764000D01*
X111488928Y-83764000D01*
X111501188Y-83888482D01*
X111537498Y-84008180D01*
X111596463Y-84118494D01*
X111675815Y-84215185D01*
X111772506Y-84294537D01*
X111882820Y-84353502D01*
X112002518Y-84389812D01*
X112127000Y-84402072D01*
X113941250Y-84399000D01*
X114100000Y-84240250D01*
X114100000Y-83216000D01*
X111650750Y-83216000D01*
X111492000Y-83374750D01*
X111488928Y-83764000D01*
X95394072Y-83764000D01*
X95391000Y-83374750D01*
X95232250Y-83216000D01*
X92783000Y-83216000D01*
X92529000Y-83216000D01*
X92509000Y-83216000D01*
X92509000Y-82962000D01*
X92529000Y-82962000D01*
X92529000Y-81937750D01*
X92783000Y-81937750D01*
X92783000Y-82962000D01*
X95232250Y-82962000D01*
X95391000Y-82803250D01*
X95394072Y-82414000D01*
X111488928Y-82414000D01*
X111492000Y-82803250D01*
X111650750Y-82962000D01*
X114100000Y-82962000D01*
X114100000Y-81937750D01*
X113941250Y-81779000D01*
X112127000Y-81775928D01*
X112002518Y-81788188D01*
X111882820Y-81824498D01*
X111772506Y-81883463D01*
X111675815Y-81962815D01*
X111596463Y-82059506D01*
X111537498Y-82169820D01*
X111501188Y-82289518D01*
X111488928Y-82414000D01*
X95394072Y-82414000D01*
X95381812Y-82289518D01*
X95345502Y-82169820D01*
X95286537Y-82059506D01*
X95207185Y-81962815D01*
X95110494Y-81883463D01*
X95000180Y-81824498D01*
X94880482Y-81788188D01*
X94756000Y-81775928D01*
X92941750Y-81779000D01*
X92783000Y-81937750D01*
X92529000Y-81937750D01*
X92370250Y-81779000D01*
X90893500Y-81776499D01*
X90893500Y-78751501D01*
X92370250Y-78749000D01*
X92529000Y-78590250D01*
X92529000Y-77566000D01*
X92783000Y-77566000D01*
X92783000Y-78590250D01*
X92941750Y-78749000D01*
X94756000Y-78752072D01*
X94880482Y-78739812D01*
X95000180Y-78703502D01*
X95110494Y-78644537D01*
X95207185Y-78565185D01*
X95286537Y-78468494D01*
X95345502Y-78358180D01*
X95381812Y-78238482D01*
X95394072Y-78114000D01*
X111488928Y-78114000D01*
X111501188Y-78238482D01*
X111537498Y-78358180D01*
X111596463Y-78468494D01*
X111675815Y-78565185D01*
X111772506Y-78644537D01*
X111882820Y-78703502D01*
X112002518Y-78739812D01*
X112127000Y-78752072D01*
X113941250Y-78749000D01*
X114100000Y-78590250D01*
X114100000Y-77566000D01*
X111650750Y-77566000D01*
X111492000Y-77724750D01*
X111488928Y-78114000D01*
X95394072Y-78114000D01*
X95391000Y-77724750D01*
X95232250Y-77566000D01*
X92783000Y-77566000D01*
X92529000Y-77566000D01*
X92509000Y-77566000D01*
X92509000Y-77312000D01*
X92529000Y-77312000D01*
X92529000Y-76287750D01*
X92783000Y-76287750D01*
X92783000Y-77312000D01*
X95232250Y-77312000D01*
X95391000Y-77153250D01*
X95394072Y-76764000D01*
X111488928Y-76764000D01*
X111492000Y-77153250D01*
X111650750Y-77312000D01*
X114100000Y-77312000D01*
X114100000Y-76287750D01*
X113941250Y-76129000D01*
X112127000Y-76125928D01*
X112002518Y-76138188D01*
X111882820Y-76174498D01*
X111772506Y-76233463D01*
X111675815Y-76312815D01*
X111596463Y-76409506D01*
X111537498Y-76519820D01*
X111501188Y-76639518D01*
X111488928Y-76764000D01*
X95394072Y-76764000D01*
X95381812Y-76639518D01*
X95345502Y-76519820D01*
X95286537Y-76409506D01*
X95207185Y-76312815D01*
X95110494Y-76233463D01*
X95000180Y-76174498D01*
X94880482Y-76138188D01*
X94756000Y-76125928D01*
X92941750Y-76129000D01*
X92783000Y-76287750D01*
X92529000Y-76287750D01*
X92370250Y-76129000D01*
X90893500Y-76126499D01*
X90893500Y-73254891D01*
X96094519Y-73254891D01*
X96191843Y-73529252D01*
X96340822Y-73779355D01*
X96535731Y-73995588D01*
X96769080Y-74169641D01*
X97031901Y-74294825D01*
X97179110Y-74339476D01*
X97409000Y-74218155D01*
X97409000Y-73025000D01*
X96215186Y-73025000D01*
X96094519Y-73254891D01*
X90893500Y-73254891D01*
X90893500Y-72541109D01*
X96094519Y-72541109D01*
X96215186Y-72771000D01*
X97409000Y-72771000D01*
X97409000Y-71577845D01*
X97663000Y-71577845D01*
X97663000Y-72771000D01*
X97683000Y-72771000D01*
X97683000Y-73025000D01*
X97663000Y-73025000D01*
X97663000Y-74218155D01*
X97892890Y-74339476D01*
X98040099Y-74294825D01*
X98302920Y-74169641D01*
X98536269Y-73995588D01*
X98612034Y-73911534D01*
X98636498Y-73992180D01*
X98695463Y-74102494D01*
X98774815Y-74199185D01*
X98871506Y-74278537D01*
X98981820Y-74337502D01*
X99101518Y-74373812D01*
X99226000Y-74386072D01*
X100926000Y-74386072D01*
X101050482Y-74373812D01*
X101170180Y-74337502D01*
X101280494Y-74278537D01*
X101377185Y-74199185D01*
X101456537Y-74102494D01*
X101515502Y-73992180D01*
X101551812Y-73872482D01*
X101564072Y-73748000D01*
X101564072Y-72048000D01*
X101551812Y-71923518D01*
X101515502Y-71803820D01*
X101456537Y-71693506D01*
X101377185Y-71596815D01*
X101280494Y-71517463D01*
X101170180Y-71458498D01*
X101050482Y-71422188D01*
X100926000Y-71409928D01*
X99226000Y-71409928D01*
X99101518Y-71422188D01*
X98981820Y-71458498D01*
X98871506Y-71517463D01*
X98774815Y-71596815D01*
X98695463Y-71693506D01*
X98636498Y-71803820D01*
X98612034Y-71884466D01*
X98536269Y-71800412D01*
X98302920Y-71626359D01*
X98040099Y-71501175D01*
X97892890Y-71456524D01*
X97663000Y-71577845D01*
X97409000Y-71577845D01*
X97179110Y-71456524D01*
X97031901Y-71501175D01*
X96769080Y-71626359D01*
X96535731Y-71800412D01*
X96340822Y-72016645D01*
X96191843Y-72266748D01*
X96094519Y-72541109D01*
X90893500Y-72541109D01*
X90893500Y-70517275D01*
X90894166Y-70510487D01*
X90898801Y-70510000D01*
X115702331Y-70510000D01*
X115776237Y-76126861D01*
G37*
%TD.AperFunction*%
%TD*%
M02*
