M48
; DRILL file {KiCad (5.1.9)-1} date 01/21/21 13:21:28
; FORMAT={-:-/ absolute / inch / decimal}
; #@! TF.CreationDate,2021-01-21T13:21:28-05:00
; #@! TF.GenerationSoftware,Kicad,Pcbnew,(5.1.9)-1
; #@! TF.FileFunction,Plated,1,2,PTH
FMAT,2
INCH
T1C0.0157
T2C0.0315
%
G90
G05
T1
X3.78Y-2.966
X3.78Y-3.026
X3.782Y-3.286
X3.782Y-3.346
X3.8396Y-2.9665
X3.84Y-3.026
X3.84Y-3.286
X3.84Y-3.346
X3.902Y-3.286
X3.902Y-3.346
X3.96Y-3.286
X3.96Y-3.346
X4.022Y-3.046
X4.022Y-3.088
X4.022Y-3.286
X4.022Y-3.346
X4.08Y-3.286
X4.08Y-3.346
X4.086Y-3.088
X4.142Y-3.286
X4.142Y-3.346
X4.2Y-3.286
X4.2Y-3.346
X4.262Y-3.286
X4.262Y-3.346
X4.28Y-2.96
X4.28Y-3.02
T2
X3.88Y-2.87
X3.94Y-2.87
T0
M30
