%TF.GenerationSoftware,KiCad,Pcbnew,(5.1.9)-1*%
%TF.CreationDate,2021-02-06T16:33:29-05:00*%
%TF.ProjectId,LNA2,4c4e4132-2e6b-4696-9361-645f70636258,rev?*%
%TF.SameCoordinates,Original*%
%TF.FileFunction,Soldermask,Top*%
%TF.FilePolarity,Negative*%
%FSLAX46Y46*%
G04 Gerber Fmt 4.6, Leading zero omitted, Abs format (unit mm)*
G04 Created by KiCad (PCBNEW (5.1.9)-1) date 2021-02-06 16:33:29*
%MOMM*%
%LPD*%
G01*
G04 APERTURE LIST*
%ADD10R,3.500000X3.500000*%
%ADD11R,0.500000X0.250000*%
%ADD12R,0.900000X1.600000*%
%ADD13R,3.600000X1.270000*%
%ADD14R,4.200000X1.350000*%
%ADD15R,0.650000X1.060000*%
G04 APERTURE END LIST*
%TO.C,CC3*%
G36*
G01*
X98795000Y-56372999D02*
X98795000Y-57673001D01*
G75*
G02*
X98545001Y-57923000I-249999J0D01*
G01*
X97894999Y-57923000D01*
G75*
G02*
X97645000Y-57673001I0J249999D01*
G01*
X97645000Y-56372999D01*
G75*
G02*
X97894999Y-56123000I249999J0D01*
G01*
X98545001Y-56123000D01*
G75*
G02*
X98795000Y-56372999I0J-249999D01*
G01*
G37*
G36*
G01*
X101745000Y-56372999D02*
X101745000Y-57673001D01*
G75*
G02*
X101495001Y-57923000I-249999J0D01*
G01*
X100844999Y-57923000D01*
G75*
G02*
X100595000Y-57673001I0J249999D01*
G01*
X100595000Y-56372999D01*
G75*
G02*
X100844999Y-56123000I249999J0D01*
G01*
X101495001Y-56123000D01*
G75*
G02*
X101745000Y-56372999I0J-249999D01*
G01*
G37*
%TD*%
%TO.C,J3*%
G36*
G01*
X92597000Y-47526000D02*
X94347000Y-47526000D01*
G75*
G02*
X95222000Y-48401000I0J-875000D01*
G01*
X95222000Y-50151000D01*
G75*
G02*
X94347000Y-51026000I-875000J0D01*
G01*
X92597000Y-51026000D01*
G75*
G02*
X91722000Y-50151000I0J875000D01*
G01*
X91722000Y-48401000D01*
G75*
G02*
X92597000Y-47526000I875000J0D01*
G01*
G37*
G36*
G01*
X97172000Y-44776000D02*
X99172000Y-44776000D01*
G75*
G02*
X99922000Y-45526000I0J-750000D01*
G01*
X99922000Y-47026000D01*
G75*
G02*
X99172000Y-47776000I-750000J0D01*
G01*
X97172000Y-47776000D01*
G75*
G02*
X96422000Y-47026000I0J750000D01*
G01*
X96422000Y-45526000D01*
G75*
G02*
X97172000Y-44776000I750000J0D01*
G01*
G37*
D10*
X98172000Y-52276000D03*
%TD*%
%TO.C,CC1*%
G36*
G01*
X99560000Y-79789000D02*
X99560000Y-80739000D01*
G75*
G02*
X99310000Y-80989000I-250000J0D01*
G01*
X98810000Y-80989000D01*
G75*
G02*
X98560000Y-80739000I0J250000D01*
G01*
X98560000Y-79789000D01*
G75*
G02*
X98810000Y-79539000I250000J0D01*
G01*
X99310000Y-79539000D01*
G75*
G02*
X99560000Y-79789000I0J-250000D01*
G01*
G37*
G36*
G01*
X97660000Y-79789000D02*
X97660000Y-80739000D01*
G75*
G02*
X97410000Y-80989000I-250000J0D01*
G01*
X96910000Y-80989000D01*
G75*
G02*
X96660000Y-80739000I0J250000D01*
G01*
X96660000Y-79789000D01*
G75*
G02*
X96910000Y-79539000I250000J0D01*
G01*
X97410000Y-79539000D01*
G75*
G02*
X97660000Y-79789000I0J-250000D01*
G01*
G37*
%TD*%
%TO.C,CC2*%
G36*
G01*
X108516000Y-79789000D02*
X108516000Y-80739000D01*
G75*
G02*
X108266000Y-80989000I-250000J0D01*
G01*
X107766000Y-80989000D01*
G75*
G02*
X107516000Y-80739000I0J250000D01*
G01*
X107516000Y-79789000D01*
G75*
G02*
X107766000Y-79539000I250000J0D01*
G01*
X108266000Y-79539000D01*
G75*
G02*
X108516000Y-79789000I0J-250000D01*
G01*
G37*
G36*
G01*
X110416000Y-79789000D02*
X110416000Y-80739000D01*
G75*
G02*
X110166000Y-80989000I-250000J0D01*
G01*
X109666000Y-80989000D01*
G75*
G02*
X109416000Y-80739000I0J250000D01*
G01*
X109416000Y-79789000D01*
G75*
G02*
X109666000Y-79539000I250000J0D01*
G01*
X110166000Y-79539000D01*
G75*
G02*
X110416000Y-79789000I0J-250000D01*
G01*
G37*
%TD*%
%TO.C,CDC1*%
G36*
G01*
X99515000Y-76167000D02*
X99515000Y-75217000D01*
G75*
G02*
X99765000Y-74967000I250000J0D01*
G01*
X100265000Y-74967000D01*
G75*
G02*
X100515000Y-75217000I0J-250000D01*
G01*
X100515000Y-76167000D01*
G75*
G02*
X100265000Y-76417000I-250000J0D01*
G01*
X99765000Y-76417000D01*
G75*
G02*
X99515000Y-76167000I0J250000D01*
G01*
G37*
G36*
G01*
X101415000Y-76167000D02*
X101415000Y-75217000D01*
G75*
G02*
X101665000Y-74967000I250000J0D01*
G01*
X102165000Y-74967000D01*
G75*
G02*
X102415000Y-75217000I0J-250000D01*
G01*
X102415000Y-76167000D01*
G75*
G02*
X102165000Y-76417000I-250000J0D01*
G01*
X101665000Y-76417000D01*
G75*
G02*
X101415000Y-76167000I0J250000D01*
G01*
G37*
%TD*%
%TO.C,CRF1*%
G36*
G01*
X104706000Y-75725000D02*
X104706000Y-76675000D01*
G75*
G02*
X104456000Y-76925000I-250000J0D01*
G01*
X103956000Y-76925000D01*
G75*
G02*
X103706000Y-76675000I0J250000D01*
G01*
X103706000Y-75725000D01*
G75*
G02*
X103956000Y-75475000I250000J0D01*
G01*
X104456000Y-75475000D01*
G75*
G02*
X104706000Y-75725000I0J-250000D01*
G01*
G37*
G36*
G01*
X106606000Y-75725000D02*
X106606000Y-76675000D01*
G75*
G02*
X106356000Y-76925000I-250000J0D01*
G01*
X105856000Y-76925000D01*
G75*
G02*
X105606000Y-76675000I0J250000D01*
G01*
X105606000Y-75725000D01*
G75*
G02*
X105856000Y-75475000I250000J0D01*
G01*
X106356000Y-75475000D01*
G75*
G02*
X106606000Y-75725000I0J-250000D01*
G01*
G37*
%TD*%
%TO.C,CRF2*%
G36*
G01*
X106672000Y-73693000D02*
X106672000Y-74643000D01*
G75*
G02*
X106422000Y-74893000I-250000J0D01*
G01*
X105922000Y-74893000D01*
G75*
G02*
X105672000Y-74643000I0J250000D01*
G01*
X105672000Y-73693000D01*
G75*
G02*
X105922000Y-73443000I250000J0D01*
G01*
X106422000Y-73443000D01*
G75*
G02*
X106672000Y-73693000I0J-250000D01*
G01*
G37*
G36*
G01*
X104772000Y-73693000D02*
X104772000Y-74643000D01*
G75*
G02*
X104522000Y-74893000I-250000J0D01*
G01*
X104022000Y-74893000D01*
G75*
G02*
X103772000Y-74643000I0J250000D01*
G01*
X103772000Y-73693000D01*
G75*
G02*
X104022000Y-73443000I250000J0D01*
G01*
X104522000Y-73443000D01*
G75*
G02*
X104772000Y-73693000I0J-250000D01*
G01*
G37*
%TD*%
%TO.C,LRF1*%
G36*
G01*
X105790750Y-77701500D02*
X106553250Y-77701500D01*
G75*
G02*
X106772000Y-77920250I0J-218750D01*
G01*
X106772000Y-78357750D01*
G75*
G02*
X106553250Y-78576500I-218750J0D01*
G01*
X105790750Y-78576500D01*
G75*
G02*
X105572000Y-78357750I0J218750D01*
G01*
X105572000Y-77920250D01*
G75*
G02*
X105790750Y-77701500I218750J0D01*
G01*
G37*
G36*
G01*
X105790750Y-79826500D02*
X106553250Y-79826500D01*
G75*
G02*
X106772000Y-80045250I0J-218750D01*
G01*
X106772000Y-80482750D01*
G75*
G02*
X106553250Y-80701500I-218750J0D01*
G01*
X105790750Y-80701500D01*
G75*
G02*
X105572000Y-80482750I0J218750D01*
G01*
X105572000Y-80045250D01*
G75*
G02*
X105790750Y-79826500I218750J0D01*
G01*
G37*
%TD*%
D11*
%TO.C,U1*%
X101234200Y-80768000D03*
X103134200Y-80268000D03*
X103134200Y-79768000D03*
D12*
X102184200Y-80518000D03*
D11*
X101234200Y-79768000D03*
X101234200Y-80268000D03*
X101234200Y-81268000D03*
X103134200Y-81268000D03*
X103134200Y-80768000D03*
%TD*%
%TO.C,Cin1*%
G36*
G01*
X98610000Y-59977000D02*
X98610000Y-60927000D01*
G75*
G02*
X98360000Y-61177000I-250000J0D01*
G01*
X97860000Y-61177000D01*
G75*
G02*
X97610000Y-60927000I0J250000D01*
G01*
X97610000Y-59977000D01*
G75*
G02*
X97860000Y-59727000I250000J0D01*
G01*
X98360000Y-59727000D01*
G75*
G02*
X98610000Y-59977000I0J-250000D01*
G01*
G37*
G36*
G01*
X100510000Y-59977000D02*
X100510000Y-60927000D01*
G75*
G02*
X100260000Y-61177000I-250000J0D01*
G01*
X99760000Y-61177000D01*
G75*
G02*
X99510000Y-60927000I0J250000D01*
G01*
X99510000Y-59977000D01*
G75*
G02*
X99760000Y-59727000I250000J0D01*
G01*
X100260000Y-59727000D01*
G75*
G02*
X100510000Y-59977000I0J-250000D01*
G01*
G37*
%TD*%
%TO.C,Co1*%
G36*
G01*
X102415000Y-68486000D02*
X102415000Y-69436000D01*
G75*
G02*
X102165000Y-69686000I-250000J0D01*
G01*
X101665000Y-69686000D01*
G75*
G02*
X101415000Y-69436000I0J250000D01*
G01*
X101415000Y-68486000D01*
G75*
G02*
X101665000Y-68236000I250000J0D01*
G01*
X102165000Y-68236000D01*
G75*
G02*
X102415000Y-68486000I0J-250000D01*
G01*
G37*
G36*
G01*
X100515000Y-68486000D02*
X100515000Y-69436000D01*
G75*
G02*
X100265000Y-69686000I-250000J0D01*
G01*
X99765000Y-69686000D01*
G75*
G02*
X99515000Y-69436000I0J250000D01*
G01*
X99515000Y-68486000D01*
G75*
G02*
X99765000Y-68236000I250000J0D01*
G01*
X100265000Y-68236000D01*
G75*
G02*
X100515000Y-68486000I0J-250000D01*
G01*
G37*
%TD*%
D13*
%TO.C,J1*%
X92456000Y-80264000D03*
D14*
X92656000Y-77439000D03*
X92656000Y-83089000D03*
%TD*%
%TO.C,J2*%
X114227000Y-77439000D03*
X114227000Y-83089000D03*
D13*
X114427000Y-80264000D03*
%TD*%
D15*
%TO.C,U2*%
X100010000Y-63670000D03*
X99060000Y-63670000D03*
X98110000Y-63670000D03*
X98110000Y-65870000D03*
X100010000Y-65870000D03*
%TD*%
M02*
