M48
; DRILL file {KiCad (5.1.9)-1} date 01/26/21 13:46:48
; FORMAT={-:-/ absolute / inch / decimal}
; #@! TF.CreationDate,2021-01-26T13:46:48-05:00
; #@! TF.GenerationSoftware,Kicad,Pcbnew,(5.1.9)-1
; #@! TF.FileFunction,Plated,1,2,PTH
FMAT,2
INCH
T1C0.0157
T2C0.0394
%
G90
G05
T1
X3.6Y-2.965
X3.6Y-3.045
X3.6Y-3.27
X3.61Y-3.35
X3.62Y-2.82
X3.62Y-2.88
X3.62Y-3.49
X3.63Y-3.43
X3.65Y-3.05
X3.65Y-3.275
X3.655Y-2.965
X3.665Y-3.35
X3.67Y-2.82
X3.67Y-2.88
X3.67Y-3.49
X3.68Y-3.43
X3.7Y-3.05
X3.705Y-2.965
X3.705Y-3.27
X3.72Y-2.82
X3.72Y-2.88
X3.72Y-3.35
X3.73Y-3.43
X3.73Y-3.49
X3.76Y-2.82
X3.76Y-2.88
X3.76Y-2.965
X3.77Y-3.43
X3.78Y-3.49
X3.81Y-2.96
X3.81Y-3.02
X3.81Y-3.07
X3.82Y-3.24
X3.82Y-3.3
X3.82Y-3.36
X3.82Y-3.42
X3.84Y-3.49
X3.87Y-2.96
X3.87Y-3.02
X3.87Y-3.07
X3.88Y-3.24
X3.88Y-3.29
X3.88Y-3.34
X3.88Y-3.39
X3.88Y-3.44
X3.9Y-3.49
X3.93Y-3.24
X3.93Y-3.29
X3.93Y-3.34
X3.93Y-3.39
X3.93Y-3.44
X3.96Y-3.49
X3.99Y-3.24
X3.99Y-3.29
X3.99Y-3.34
X3.99Y-3.39
X3.99Y-3.44
X4.0Y-3.09
X4.01Y-3.49
X4.02Y-2.8
X4.02Y-3.05
X4.04Y-2.915
X4.04Y-3.24
X4.04Y-3.29
X4.04Y-3.34
X4.04Y-3.39
X4.04Y-3.44
X4.05Y-3.09
X4.07Y-2.8
X4.07Y-3.49
X4.1Y-3.09
X4.1Y-3.24
X4.1Y-3.29
X4.1Y-3.34
X4.1Y-3.39
X4.1Y-3.44
X4.12Y-3.49
X4.13Y-2.8
X4.16Y-3.24
X4.16Y-3.29
X4.16Y-3.34
X4.16Y-3.39
X4.16Y-3.44
X4.18Y-3.49
X4.19Y-2.82
X4.22Y-3.24
X4.22Y-3.29
X4.22Y-3.34
X4.22Y-3.39
X4.22Y-3.44
X4.23Y-2.85
X4.23Y-3.49
X4.25Y-3.08
X4.26Y-2.89
X4.26Y-2.96
X4.26Y-3.02
X4.27Y-3.24
X4.27Y-3.29
X4.27Y-3.34
X4.27Y-3.39
X4.27Y-3.44
X4.29Y-3.49
X4.3Y-3.08
X4.32Y-3.24
X4.32Y-3.3
X4.32Y-3.36
X4.33Y-2.92
X4.33Y-2.97
X4.33Y-3.03
X4.34Y-3.43
X4.35Y-3.49
X4.365Y-3.27
X4.37Y-2.79
X4.37Y-2.84
X4.37Y-2.89
X4.4Y-3.43
X4.41Y-3.49
X4.415Y-3.355
X4.42Y-2.79
X4.42Y-2.84
X4.42Y-2.89
X4.42Y-2.96
X4.44Y-3.275
X4.45Y-3.43
X4.455Y-3.05
X4.46Y-3.49
X4.47Y-2.79
X4.47Y-2.84
X4.47Y-2.89
X4.475Y-2.96
X4.475Y-3.355
X4.49Y-3.275
X4.5Y-3.05
X4.5Y-3.43
X4.52Y-2.79
X4.52Y-2.84
X4.52Y-2.89
X4.52Y-3.49
X4.53Y-2.96
X4.53Y-3.355
X4.54Y-3.05
X4.54Y-3.43
X4.545Y-3.275
T2
X3.84Y-2.87
X3.94Y-2.87
T0
M30
