%TF.GenerationSoftware,KiCad,Pcbnew,(5.1.9)-1*%
%TF.CreationDate,2021-01-21T13:21:27-05:00*%
%TF.ProjectId,LNA2,4c4e4132-2e6b-4696-9361-645f70636258,rev?*%
%TF.SameCoordinates,Original*%
%TF.FileFunction,Soldermask,Top*%
%TF.FilePolarity,Negative*%
%FSLAX46Y46*%
G04 Gerber Fmt 4.6, Leading zero omitted, Abs format (unit mm)*
G04 Created by KiCad (PCBNEW (5.1.9)-1) date 2021-01-21 13:21:27*
%MOMM*%
%LPD*%
G01*
G04 APERTURE LIST*
%ADD10R,0.500000X0.250000*%
%ADD11R,0.900000X1.600000*%
%ADD12R,3.600000X1.270000*%
%ADD13R,4.200000X1.350000*%
G04 APERTURE END LIST*
%TO.C,CC1*%
G36*
G01*
X99560000Y-79789000D02*
X99560000Y-80739000D01*
G75*
G02*
X99310000Y-80989000I-250000J0D01*
G01*
X98810000Y-80989000D01*
G75*
G02*
X98560000Y-80739000I0J250000D01*
G01*
X98560000Y-79789000D01*
G75*
G02*
X98810000Y-79539000I250000J0D01*
G01*
X99310000Y-79539000D01*
G75*
G02*
X99560000Y-79789000I0J-250000D01*
G01*
G37*
G36*
G01*
X97660000Y-79789000D02*
X97660000Y-80739000D01*
G75*
G02*
X97410000Y-80989000I-250000J0D01*
G01*
X96910000Y-80989000D01*
G75*
G02*
X96660000Y-80739000I0J250000D01*
G01*
X96660000Y-79789000D01*
G75*
G02*
X96910000Y-79539000I250000J0D01*
G01*
X97410000Y-79539000D01*
G75*
G02*
X97660000Y-79789000I0J-250000D01*
G01*
G37*
%TD*%
%TO.C,CC2*%
G36*
G01*
X110228000Y-79789000D02*
X110228000Y-80739000D01*
G75*
G02*
X109978000Y-80989000I-250000J0D01*
G01*
X109478000Y-80989000D01*
G75*
G02*
X109228000Y-80739000I0J250000D01*
G01*
X109228000Y-79789000D01*
G75*
G02*
X109478000Y-79539000I250000J0D01*
G01*
X109978000Y-79539000D01*
G75*
G02*
X110228000Y-79789000I0J-250000D01*
G01*
G37*
G36*
G01*
X112128000Y-79789000D02*
X112128000Y-80739000D01*
G75*
G02*
X111878000Y-80989000I-250000J0D01*
G01*
X111378000Y-80989000D01*
G75*
G02*
X111128000Y-80739000I0J250000D01*
G01*
X111128000Y-79789000D01*
G75*
G02*
X111378000Y-79539000I250000J0D01*
G01*
X111878000Y-79539000D01*
G75*
G02*
X112128000Y-79789000I0J-250000D01*
G01*
G37*
%TD*%
%TO.C,CDC1*%
G36*
G01*
X99515000Y-76167000D02*
X99515000Y-75217000D01*
G75*
G02*
X99765000Y-74967000I250000J0D01*
G01*
X100265000Y-74967000D01*
G75*
G02*
X100515000Y-75217000I0J-250000D01*
G01*
X100515000Y-76167000D01*
G75*
G02*
X100265000Y-76417000I-250000J0D01*
G01*
X99765000Y-76417000D01*
G75*
G02*
X99515000Y-76167000I0J250000D01*
G01*
G37*
G36*
G01*
X101415000Y-76167000D02*
X101415000Y-75217000D01*
G75*
G02*
X101665000Y-74967000I250000J0D01*
G01*
X102165000Y-74967000D01*
G75*
G02*
X102415000Y-75217000I0J-250000D01*
G01*
X102415000Y-76167000D01*
G75*
G02*
X102165000Y-76417000I-250000J0D01*
G01*
X101665000Y-76417000D01*
G75*
G02*
X101415000Y-76167000I0J250000D01*
G01*
G37*
%TD*%
%TO.C,CRF1*%
G36*
G01*
X104706000Y-75725000D02*
X104706000Y-76675000D01*
G75*
G02*
X104456000Y-76925000I-250000J0D01*
G01*
X103956000Y-76925000D01*
G75*
G02*
X103706000Y-76675000I0J250000D01*
G01*
X103706000Y-75725000D01*
G75*
G02*
X103956000Y-75475000I250000J0D01*
G01*
X104456000Y-75475000D01*
G75*
G02*
X104706000Y-75725000I0J-250000D01*
G01*
G37*
G36*
G01*
X106606000Y-75725000D02*
X106606000Y-76675000D01*
G75*
G02*
X106356000Y-76925000I-250000J0D01*
G01*
X105856000Y-76925000D01*
G75*
G02*
X105606000Y-76675000I0J250000D01*
G01*
X105606000Y-75725000D01*
G75*
G02*
X105856000Y-75475000I250000J0D01*
G01*
X106356000Y-75475000D01*
G75*
G02*
X106606000Y-75725000I0J-250000D01*
G01*
G37*
%TD*%
%TO.C,CRF2*%
G36*
G01*
X106672000Y-73693000D02*
X106672000Y-74643000D01*
G75*
G02*
X106422000Y-74893000I-250000J0D01*
G01*
X105922000Y-74893000D01*
G75*
G02*
X105672000Y-74643000I0J250000D01*
G01*
X105672000Y-73693000D01*
G75*
G02*
X105922000Y-73443000I250000J0D01*
G01*
X106422000Y-73443000D01*
G75*
G02*
X106672000Y-73693000I0J-250000D01*
G01*
G37*
G36*
G01*
X104772000Y-73693000D02*
X104772000Y-74643000D01*
G75*
G02*
X104522000Y-74893000I-250000J0D01*
G01*
X104022000Y-74893000D01*
G75*
G02*
X103772000Y-74643000I0J250000D01*
G01*
X103772000Y-73693000D01*
G75*
G02*
X104022000Y-73443000I250000J0D01*
G01*
X104522000Y-73443000D01*
G75*
G02*
X104772000Y-73693000I0J-250000D01*
G01*
G37*
%TD*%
%TO.C,LRF1*%
G36*
G01*
X105790750Y-77701500D02*
X106553250Y-77701500D01*
G75*
G02*
X106772000Y-77920250I0J-218750D01*
G01*
X106772000Y-78357750D01*
G75*
G02*
X106553250Y-78576500I-218750J0D01*
G01*
X105790750Y-78576500D01*
G75*
G02*
X105572000Y-78357750I0J218750D01*
G01*
X105572000Y-77920250D01*
G75*
G02*
X105790750Y-77701500I218750J0D01*
G01*
G37*
G36*
G01*
X105790750Y-79826500D02*
X106553250Y-79826500D01*
G75*
G02*
X106772000Y-80045250I0J-218750D01*
G01*
X106772000Y-80482750D01*
G75*
G02*
X106553250Y-80701500I-218750J0D01*
G01*
X105790750Y-80701500D01*
G75*
G02*
X105572000Y-80482750I0J218750D01*
G01*
X105572000Y-80045250D01*
G75*
G02*
X105790750Y-79826500I218750J0D01*
G01*
G37*
%TD*%
D10*
%TO.C,U1*%
X101234200Y-80768000D03*
X103134200Y-80268000D03*
X103134200Y-79768000D03*
D11*
X102184200Y-80518000D03*
D10*
X101234200Y-79768000D03*
X101234200Y-80268000D03*
X101234200Y-81268000D03*
X103134200Y-81268000D03*
X103134200Y-80768000D03*
%TD*%
D12*
%TO.C,J1*%
X90424000Y-80264000D03*
D13*
X90624000Y-77439000D03*
X90624000Y-83089000D03*
%TD*%
%TO.C,J2*%
X117148000Y-77439000D03*
X117148000Y-83089000D03*
D12*
X117348000Y-80264000D03*
%TD*%
M02*
