%TF.GenerationSoftware,KiCad,Pcbnew,(5.1.9)-1*%
%TF.CreationDate,2021-02-11T15:31:23-05:00*%
%TF.ProjectId,LNA2,4c4e4132-2e6b-4696-9361-645f70636258,rev?*%
%TF.SameCoordinates,Original*%
%TF.FileFunction,Paste,Top*%
%TF.FilePolarity,Positive*%
%FSLAX46Y46*%
G04 Gerber Fmt 4.6, Leading zero omitted, Abs format (unit mm)*
G04 Created by KiCad (PCBNEW (5.1.9)-1) date 2021-02-11 15:31:23*
%MOMM*%
%LPD*%
G01*
G04 APERTURE LIST*
%ADD10R,4.200000X1.750000*%
%ADD11R,3.600000X1.270000*%
%ADD12R,0.500000X0.250000*%
%ADD13R,0.750000X0.650000*%
%ADD14R,0.650000X1.060000*%
G04 APERTURE END LIST*
D10*
%TO.C,J1*%
X92148000Y-83089000D03*
X92148000Y-77439000D03*
D11*
X91948000Y-80264000D03*
%TD*%
D10*
%TO.C,J2*%
X114735000Y-77439000D03*
X114735000Y-83089000D03*
D11*
X114935000Y-80264000D03*
%TD*%
%TO.C,CC3*%
G36*
G01*
X99362200Y-56021800D02*
X99362200Y-57871800D01*
G75*
G02*
X99112200Y-58121800I-250000J0D01*
G01*
X97537200Y-58121800D01*
G75*
G02*
X97287200Y-57871800I0J250000D01*
G01*
X97287200Y-56021800D01*
G75*
G02*
X97537200Y-55771800I250000J0D01*
G01*
X99112200Y-55771800D01*
G75*
G02*
X99362200Y-56021800I0J-250000D01*
G01*
G37*
G36*
G01*
X104287200Y-56021800D02*
X104287200Y-57871800D01*
G75*
G02*
X104037200Y-58121800I-250000J0D01*
G01*
X102462200Y-58121800D01*
G75*
G02*
X102212200Y-57871800I0J250000D01*
G01*
X102212200Y-56021800D01*
G75*
G02*
X102462200Y-55771800I250000J0D01*
G01*
X104037200Y-55771800D01*
G75*
G02*
X104287200Y-56021800I0J-250000D01*
G01*
G37*
%TD*%
%TO.C,CC1*%
G36*
G01*
X98732000Y-79789000D02*
X98732000Y-80739000D01*
G75*
G02*
X98482000Y-80989000I-250000J0D01*
G01*
X97982000Y-80989000D01*
G75*
G02*
X97732000Y-80739000I0J250000D01*
G01*
X97732000Y-79789000D01*
G75*
G02*
X97982000Y-79539000I250000J0D01*
G01*
X98482000Y-79539000D01*
G75*
G02*
X98732000Y-79789000I0J-250000D01*
G01*
G37*
G36*
G01*
X96832000Y-79789000D02*
X96832000Y-80739000D01*
G75*
G02*
X96582000Y-80989000I-250000J0D01*
G01*
X96082000Y-80989000D01*
G75*
G02*
X95832000Y-80739000I0J250000D01*
G01*
X95832000Y-79789000D01*
G75*
G02*
X96082000Y-79539000I250000J0D01*
G01*
X96582000Y-79539000D01*
G75*
G02*
X96832000Y-79789000I0J-250000D01*
G01*
G37*
%TD*%
%TO.C,CC2*%
G36*
G01*
X109405000Y-79789000D02*
X109405000Y-80739000D01*
G75*
G02*
X109155000Y-80989000I-250000J0D01*
G01*
X108655000Y-80989000D01*
G75*
G02*
X108405000Y-80739000I0J250000D01*
G01*
X108405000Y-79789000D01*
G75*
G02*
X108655000Y-79539000I250000J0D01*
G01*
X109155000Y-79539000D01*
G75*
G02*
X109405000Y-79789000I0J-250000D01*
G01*
G37*
G36*
G01*
X111305000Y-79789000D02*
X111305000Y-80739000D01*
G75*
G02*
X111055000Y-80989000I-250000J0D01*
G01*
X110555000Y-80989000D01*
G75*
G02*
X110305000Y-80739000I0J250000D01*
G01*
X110305000Y-79789000D01*
G75*
G02*
X110555000Y-79539000I250000J0D01*
G01*
X111055000Y-79539000D01*
G75*
G02*
X111305000Y-79789000I0J-250000D01*
G01*
G37*
%TD*%
%TO.C,CDC1*%
G36*
G01*
X99515000Y-76167000D02*
X99515000Y-75217000D01*
G75*
G02*
X99765000Y-74967000I250000J0D01*
G01*
X100265000Y-74967000D01*
G75*
G02*
X100515000Y-75217000I0J-250000D01*
G01*
X100515000Y-76167000D01*
G75*
G02*
X100265000Y-76417000I-250000J0D01*
G01*
X99765000Y-76417000D01*
G75*
G02*
X99515000Y-76167000I0J250000D01*
G01*
G37*
G36*
G01*
X101415000Y-76167000D02*
X101415000Y-75217000D01*
G75*
G02*
X101665000Y-74967000I250000J0D01*
G01*
X102165000Y-74967000D01*
G75*
G02*
X102415000Y-75217000I0J-250000D01*
G01*
X102415000Y-76167000D01*
G75*
G02*
X102165000Y-76417000I-250000J0D01*
G01*
X101665000Y-76417000D01*
G75*
G02*
X101415000Y-76167000I0J250000D01*
G01*
G37*
%TD*%
%TO.C,CRF1*%
G36*
G01*
X104706000Y-75090000D02*
X104706000Y-76040000D01*
G75*
G02*
X104456000Y-76290000I-250000J0D01*
G01*
X103956000Y-76290000D01*
G75*
G02*
X103706000Y-76040000I0J250000D01*
G01*
X103706000Y-75090000D01*
G75*
G02*
X103956000Y-74840000I250000J0D01*
G01*
X104456000Y-74840000D01*
G75*
G02*
X104706000Y-75090000I0J-250000D01*
G01*
G37*
G36*
G01*
X106606000Y-75090000D02*
X106606000Y-76040000D01*
G75*
G02*
X106356000Y-76290000I-250000J0D01*
G01*
X105856000Y-76290000D01*
G75*
G02*
X105606000Y-76040000I0J250000D01*
G01*
X105606000Y-75090000D01*
G75*
G02*
X105856000Y-74840000I250000J0D01*
G01*
X106356000Y-74840000D01*
G75*
G02*
X106606000Y-75090000I0J-250000D01*
G01*
G37*
%TD*%
%TO.C,CRF2*%
G36*
G01*
X106672000Y-72550000D02*
X106672000Y-73500000D01*
G75*
G02*
X106422000Y-73750000I-250000J0D01*
G01*
X105922000Y-73750000D01*
G75*
G02*
X105672000Y-73500000I0J250000D01*
G01*
X105672000Y-72550000D01*
G75*
G02*
X105922000Y-72300000I250000J0D01*
G01*
X106422000Y-72300000D01*
G75*
G02*
X106672000Y-72550000I0J-250000D01*
G01*
G37*
G36*
G01*
X104772000Y-72550000D02*
X104772000Y-73500000D01*
G75*
G02*
X104522000Y-73750000I-250000J0D01*
G01*
X104022000Y-73750000D01*
G75*
G02*
X103772000Y-73500000I0J250000D01*
G01*
X103772000Y-72550000D01*
G75*
G02*
X104022000Y-72300000I250000J0D01*
G01*
X104522000Y-72300000D01*
G75*
G02*
X104772000Y-72550000I0J-250000D01*
G01*
G37*
%TD*%
%TO.C,LRF1*%
G36*
G01*
X105790750Y-77701500D02*
X106553250Y-77701500D01*
G75*
G02*
X106772000Y-77920250I0J-218750D01*
G01*
X106772000Y-78357750D01*
G75*
G02*
X106553250Y-78576500I-218750J0D01*
G01*
X105790750Y-78576500D01*
G75*
G02*
X105572000Y-78357750I0J218750D01*
G01*
X105572000Y-77920250D01*
G75*
G02*
X105790750Y-77701500I218750J0D01*
G01*
G37*
G36*
G01*
X105790750Y-79826500D02*
X106553250Y-79826500D01*
G75*
G02*
X106772000Y-80045250I0J-218750D01*
G01*
X106772000Y-80482750D01*
G75*
G02*
X106553250Y-80701500I-218750J0D01*
G01*
X105790750Y-80701500D01*
G75*
G02*
X105572000Y-80482750I0J218750D01*
G01*
X105572000Y-80045250D01*
G75*
G02*
X105790750Y-79826500I218750J0D01*
G01*
G37*
%TD*%
D12*
%TO.C,U1*%
X101234200Y-80768000D03*
X103134200Y-80268000D03*
X103134200Y-79768000D03*
X101234200Y-79768000D03*
X101234200Y-80268000D03*
X101234200Y-81268000D03*
X103134200Y-81268000D03*
X103134200Y-80768000D03*
D13*
X102184200Y-80918000D03*
X102184200Y-80118000D03*
%TD*%
%TO.C,Cin1*%
G36*
G01*
X98673500Y-60231000D02*
X98673500Y-61181000D01*
G75*
G02*
X98423500Y-61431000I-250000J0D01*
G01*
X97923500Y-61431000D01*
G75*
G02*
X97673500Y-61181000I0J250000D01*
G01*
X97673500Y-60231000D01*
G75*
G02*
X97923500Y-59981000I250000J0D01*
G01*
X98423500Y-59981000D01*
G75*
G02*
X98673500Y-60231000I0J-250000D01*
G01*
G37*
G36*
G01*
X100573500Y-60231000D02*
X100573500Y-61181000D01*
G75*
G02*
X100323500Y-61431000I-250000J0D01*
G01*
X99823500Y-61431000D01*
G75*
G02*
X99573500Y-61181000I0J250000D01*
G01*
X99573500Y-60231000D01*
G75*
G02*
X99823500Y-59981000I250000J0D01*
G01*
X100323500Y-59981000D01*
G75*
G02*
X100573500Y-60231000I0J-250000D01*
G01*
G37*
%TD*%
%TO.C,Co1*%
G36*
G01*
X102415000Y-68486000D02*
X102415000Y-69436000D01*
G75*
G02*
X102165000Y-69686000I-250000J0D01*
G01*
X101665000Y-69686000D01*
G75*
G02*
X101415000Y-69436000I0J250000D01*
G01*
X101415000Y-68486000D01*
G75*
G02*
X101665000Y-68236000I250000J0D01*
G01*
X102165000Y-68236000D01*
G75*
G02*
X102415000Y-68486000I0J-250000D01*
G01*
G37*
G36*
G01*
X100515000Y-68486000D02*
X100515000Y-69436000D01*
G75*
G02*
X100265000Y-69686000I-250000J0D01*
G01*
X99765000Y-69686000D01*
G75*
G02*
X99515000Y-69436000I0J250000D01*
G01*
X99515000Y-68486000D01*
G75*
G02*
X99765000Y-68236000I250000J0D01*
G01*
X100265000Y-68236000D01*
G75*
G02*
X100515000Y-68486000I0J-250000D01*
G01*
G37*
%TD*%
D14*
%TO.C,U2*%
X100010000Y-63670000D03*
X99060000Y-63670000D03*
X98110000Y-63670000D03*
X98110000Y-65870000D03*
X100010000Y-65870000D03*
%TD*%
M02*
