%TF.GenerationSoftware,KiCad,Pcbnew,(5.1.9)-1*%
%TF.CreationDate,2021-02-06T16:33:29-05:00*%
%TF.ProjectId,LNA2,4c4e4132-2e6b-4696-9361-645f70636258,rev?*%
%TF.SameCoordinates,Original*%
%TF.FileFunction,Copper,L1,Top*%
%TF.FilePolarity,Positive*%
%FSLAX46Y46*%
G04 Gerber Fmt 4.6, Leading zero omitted, Abs format (unit mm)*
G04 Created by KiCad (PCBNEW (5.1.9)-1) date 2021-02-06 16:33:29*
%MOMM*%
%LPD*%
G01*
G04 APERTURE LIST*
%TA.AperFunction,ComponentPad*%
%ADD10R,3.500000X3.500000*%
%TD*%
%TA.AperFunction,SMDPad,CuDef*%
%ADD11R,0.500000X0.250000*%
%TD*%
%TA.AperFunction,SMDPad,CuDef*%
%ADD12R,0.900000X1.600000*%
%TD*%
%TA.AperFunction,SMDPad,CuDef*%
%ADD13R,3.600000X1.270000*%
%TD*%
%TA.AperFunction,SMDPad,CuDef*%
%ADD14R,4.200000X1.350000*%
%TD*%
%TA.AperFunction,SMDPad,CuDef*%
%ADD15R,0.650000X1.060000*%
%TD*%
%TA.AperFunction,ViaPad*%
%ADD16C,0.800000*%
%TD*%
%TA.AperFunction,Conductor*%
%ADD17C,0.250000*%
%TD*%
%TA.AperFunction,Conductor*%
%ADD18C,1.500000*%
%TD*%
%TA.AperFunction,Conductor*%
%ADD19C,0.500000*%
%TD*%
%TA.AperFunction,Conductor*%
%ADD20C,0.507000*%
%TD*%
%TA.AperFunction,Conductor*%
%ADD21C,0.100000*%
%TD*%
%TA.AperFunction,Conductor*%
%ADD22C,0.254000*%
%TD*%
G04 APERTURE END LIST*
%TO.P,CC3,2*%
%TO.N,VCC*%
%TA.AperFunction,SMDPad,CuDef*%
G36*
G01*
X98795000Y-56372999D02*
X98795000Y-57673001D01*
G75*
G02*
X98545001Y-57923000I-249999J0D01*
G01*
X97894999Y-57923000D01*
G75*
G02*
X97645000Y-57673001I0J249999D01*
G01*
X97645000Y-56372999D01*
G75*
G02*
X97894999Y-56123000I249999J0D01*
G01*
X98545001Y-56123000D01*
G75*
G02*
X98795000Y-56372999I0J-249999D01*
G01*
G37*
%TD.AperFunction*%
%TO.P,CC3,1*%
%TO.N,GND*%
%TA.AperFunction,SMDPad,CuDef*%
G36*
G01*
X101745000Y-56372999D02*
X101745000Y-57673001D01*
G75*
G02*
X101495001Y-57923000I-249999J0D01*
G01*
X100844999Y-57923000D01*
G75*
G02*
X100595000Y-57673001I0J249999D01*
G01*
X100595000Y-56372999D01*
G75*
G02*
X100844999Y-56123000I249999J0D01*
G01*
X101495001Y-56123000D01*
G75*
G02*
X101745000Y-56372999I0J-249999D01*
G01*
G37*
%TD.AperFunction*%
%TD*%
%TO.P,J3,3*%
%TO.N,N/C*%
%TA.AperFunction,ComponentPad*%
G36*
G01*
X92597000Y-47526000D02*
X94347000Y-47526000D01*
G75*
G02*
X95222000Y-48401000I0J-875000D01*
G01*
X95222000Y-50151000D01*
G75*
G02*
X94347000Y-51026000I-875000J0D01*
G01*
X92597000Y-51026000D01*
G75*
G02*
X91722000Y-50151000I0J875000D01*
G01*
X91722000Y-48401000D01*
G75*
G02*
X92597000Y-47526000I875000J0D01*
G01*
G37*
%TD.AperFunction*%
%TO.P,J3,2*%
%TO.N,GND*%
%TA.AperFunction,ComponentPad*%
G36*
G01*
X97172000Y-44776000D02*
X99172000Y-44776000D01*
G75*
G02*
X99922000Y-45526000I0J-750000D01*
G01*
X99922000Y-47026000D01*
G75*
G02*
X99172000Y-47776000I-750000J0D01*
G01*
X97172000Y-47776000D01*
G75*
G02*
X96422000Y-47026000I0J750000D01*
G01*
X96422000Y-45526000D01*
G75*
G02*
X97172000Y-44776000I750000J0D01*
G01*
G37*
%TD.AperFunction*%
D10*
%TO.P,J3,1*%
%TO.N,VCC*%
X98172000Y-52276000D03*
%TD*%
%TO.P,CC1,1*%
%TO.N,Net-(CC1-Pad1)*%
%TA.AperFunction,SMDPad,CuDef*%
G36*
G01*
X99560000Y-79789000D02*
X99560000Y-80739000D01*
G75*
G02*
X99310000Y-80989000I-250000J0D01*
G01*
X98810000Y-80989000D01*
G75*
G02*
X98560000Y-80739000I0J250000D01*
G01*
X98560000Y-79789000D01*
G75*
G02*
X98810000Y-79539000I250000J0D01*
G01*
X99310000Y-79539000D01*
G75*
G02*
X99560000Y-79789000I0J-250000D01*
G01*
G37*
%TD.AperFunction*%
%TO.P,CC1,2*%
%TO.N,Net-(CC1-Pad2)*%
%TA.AperFunction,SMDPad,CuDef*%
G36*
G01*
X97660000Y-79789000D02*
X97660000Y-80739000D01*
G75*
G02*
X97410000Y-80989000I-250000J0D01*
G01*
X96910000Y-80989000D01*
G75*
G02*
X96660000Y-80739000I0J250000D01*
G01*
X96660000Y-79789000D01*
G75*
G02*
X96910000Y-79539000I250000J0D01*
G01*
X97410000Y-79539000D01*
G75*
G02*
X97660000Y-79789000I0J-250000D01*
G01*
G37*
%TD.AperFunction*%
%TD*%
%TO.P,CC2,2*%
%TO.N,Net-(CC2-Pad2)*%
%TA.AperFunction,SMDPad,CuDef*%
G36*
G01*
X108516000Y-79789000D02*
X108516000Y-80739000D01*
G75*
G02*
X108266000Y-80989000I-250000J0D01*
G01*
X107766000Y-80989000D01*
G75*
G02*
X107516000Y-80739000I0J250000D01*
G01*
X107516000Y-79789000D01*
G75*
G02*
X107766000Y-79539000I250000J0D01*
G01*
X108266000Y-79539000D01*
G75*
G02*
X108516000Y-79789000I0J-250000D01*
G01*
G37*
%TD.AperFunction*%
%TO.P,CC2,1*%
%TO.N,Net-(CC2-Pad1)*%
%TA.AperFunction,SMDPad,CuDef*%
G36*
G01*
X110416000Y-79789000D02*
X110416000Y-80739000D01*
G75*
G02*
X110166000Y-80989000I-250000J0D01*
G01*
X109666000Y-80989000D01*
G75*
G02*
X109416000Y-80739000I0J250000D01*
G01*
X109416000Y-79789000D01*
G75*
G02*
X109666000Y-79539000I250000J0D01*
G01*
X110166000Y-79539000D01*
G75*
G02*
X110416000Y-79789000I0J-250000D01*
G01*
G37*
%TD.AperFunction*%
%TD*%
%TO.P,CDC1,1*%
%TO.N,Net-(CDC1-Pad1)*%
%TA.AperFunction,SMDPad,CuDef*%
G36*
G01*
X99515000Y-76167000D02*
X99515000Y-75217000D01*
G75*
G02*
X99765000Y-74967000I250000J0D01*
G01*
X100265000Y-74967000D01*
G75*
G02*
X100515000Y-75217000I0J-250000D01*
G01*
X100515000Y-76167000D01*
G75*
G02*
X100265000Y-76417000I-250000J0D01*
G01*
X99765000Y-76417000D01*
G75*
G02*
X99515000Y-76167000I0J250000D01*
G01*
G37*
%TD.AperFunction*%
%TO.P,CDC1,2*%
%TO.N,GND*%
%TA.AperFunction,SMDPad,CuDef*%
G36*
G01*
X101415000Y-76167000D02*
X101415000Y-75217000D01*
G75*
G02*
X101665000Y-74967000I250000J0D01*
G01*
X102165000Y-74967000D01*
G75*
G02*
X102415000Y-75217000I0J-250000D01*
G01*
X102415000Y-76167000D01*
G75*
G02*
X102165000Y-76417000I-250000J0D01*
G01*
X101665000Y-76417000D01*
G75*
G02*
X101415000Y-76167000I0J250000D01*
G01*
G37*
%TD.AperFunction*%
%TD*%
%TO.P,CRF1,2*%
%TO.N,GND*%
%TA.AperFunction,SMDPad,CuDef*%
G36*
G01*
X104706000Y-75725000D02*
X104706000Y-76675000D01*
G75*
G02*
X104456000Y-76925000I-250000J0D01*
G01*
X103956000Y-76925000D01*
G75*
G02*
X103706000Y-76675000I0J250000D01*
G01*
X103706000Y-75725000D01*
G75*
G02*
X103956000Y-75475000I250000J0D01*
G01*
X104456000Y-75475000D01*
G75*
G02*
X104706000Y-75725000I0J-250000D01*
G01*
G37*
%TD.AperFunction*%
%TO.P,CRF1,1*%
%TO.N,Net-(CDC1-Pad1)*%
%TA.AperFunction,SMDPad,CuDef*%
G36*
G01*
X106606000Y-75725000D02*
X106606000Y-76675000D01*
G75*
G02*
X106356000Y-76925000I-250000J0D01*
G01*
X105856000Y-76925000D01*
G75*
G02*
X105606000Y-76675000I0J250000D01*
G01*
X105606000Y-75725000D01*
G75*
G02*
X105856000Y-75475000I250000J0D01*
G01*
X106356000Y-75475000D01*
G75*
G02*
X106606000Y-75725000I0J-250000D01*
G01*
G37*
%TD.AperFunction*%
%TD*%
%TO.P,CRF2,1*%
%TO.N,Net-(CDC1-Pad1)*%
%TA.AperFunction,SMDPad,CuDef*%
G36*
G01*
X106672000Y-73693000D02*
X106672000Y-74643000D01*
G75*
G02*
X106422000Y-74893000I-250000J0D01*
G01*
X105922000Y-74893000D01*
G75*
G02*
X105672000Y-74643000I0J250000D01*
G01*
X105672000Y-73693000D01*
G75*
G02*
X105922000Y-73443000I250000J0D01*
G01*
X106422000Y-73443000D01*
G75*
G02*
X106672000Y-73693000I0J-250000D01*
G01*
G37*
%TD.AperFunction*%
%TO.P,CRF2,2*%
%TO.N,GND*%
%TA.AperFunction,SMDPad,CuDef*%
G36*
G01*
X104772000Y-73693000D02*
X104772000Y-74643000D01*
G75*
G02*
X104522000Y-74893000I-250000J0D01*
G01*
X104022000Y-74893000D01*
G75*
G02*
X103772000Y-74643000I0J250000D01*
G01*
X103772000Y-73693000D01*
G75*
G02*
X104022000Y-73443000I250000J0D01*
G01*
X104522000Y-73443000D01*
G75*
G02*
X104772000Y-73693000I0J-250000D01*
G01*
G37*
%TD.AperFunction*%
%TD*%
%TO.P,LRF1,1*%
%TO.N,Net-(CDC1-Pad1)*%
%TA.AperFunction,SMDPad,CuDef*%
G36*
G01*
X105790750Y-77701500D02*
X106553250Y-77701500D01*
G75*
G02*
X106772000Y-77920250I0J-218750D01*
G01*
X106772000Y-78357750D01*
G75*
G02*
X106553250Y-78576500I-218750J0D01*
G01*
X105790750Y-78576500D01*
G75*
G02*
X105572000Y-78357750I0J218750D01*
G01*
X105572000Y-77920250D01*
G75*
G02*
X105790750Y-77701500I218750J0D01*
G01*
G37*
%TD.AperFunction*%
%TO.P,LRF1,2*%
%TO.N,Net-(CC2-Pad2)*%
%TA.AperFunction,SMDPad,CuDef*%
G36*
G01*
X105790750Y-79826500D02*
X106553250Y-79826500D01*
G75*
G02*
X106772000Y-80045250I0J-218750D01*
G01*
X106772000Y-80482750D01*
G75*
G02*
X106553250Y-80701500I-218750J0D01*
G01*
X105790750Y-80701500D01*
G75*
G02*
X105572000Y-80482750I0J218750D01*
G01*
X105572000Y-80045250D01*
G75*
G02*
X105790750Y-79826500I218750J0D01*
G01*
G37*
%TD.AperFunction*%
%TD*%
D11*
%TO.P,U1,3*%
%TO.N,Net-(U1-Pad3)*%
X101234200Y-80768000D03*
%TO.P,U1,7*%
%TO.N,Net-(CC2-Pad2)*%
X103134200Y-80268000D03*
%TO.P,U1,8*%
%TO.N,Net-(U1-Pad8)*%
X103134200Y-79768000D03*
D12*
%TO.P,U1,9*%
%TO.N,GND*%
X102184200Y-80518000D03*
D11*
%TO.P,U1,1*%
%TO.N,Net-(CDC1-Pad1)*%
X101234200Y-79768000D03*
%TO.P,U1,2*%
%TO.N,Net-(CC1-Pad1)*%
X101234200Y-80268000D03*
%TO.P,U1,4*%
%TO.N,Net-(U1-Pad4)*%
X101234200Y-81268000D03*
%TO.P,U1,5*%
%TO.N,GND*%
X103134200Y-81268000D03*
%TO.P,U1,6*%
%TO.N,Net-(U1-Pad6)*%
X103134200Y-80768000D03*
%TD*%
%TO.P,Cin1,2*%
%TO.N,VCC*%
%TA.AperFunction,SMDPad,CuDef*%
G36*
G01*
X98610000Y-59977000D02*
X98610000Y-60927000D01*
G75*
G02*
X98360000Y-61177000I-250000J0D01*
G01*
X97860000Y-61177000D01*
G75*
G02*
X97610000Y-60927000I0J250000D01*
G01*
X97610000Y-59977000D01*
G75*
G02*
X97860000Y-59727000I250000J0D01*
G01*
X98360000Y-59727000D01*
G75*
G02*
X98610000Y-59977000I0J-250000D01*
G01*
G37*
%TD.AperFunction*%
%TO.P,Cin1,1*%
%TO.N,GND*%
%TA.AperFunction,SMDPad,CuDef*%
G36*
G01*
X100510000Y-59977000D02*
X100510000Y-60927000D01*
G75*
G02*
X100260000Y-61177000I-250000J0D01*
G01*
X99760000Y-61177000D01*
G75*
G02*
X99510000Y-60927000I0J250000D01*
G01*
X99510000Y-59977000D01*
G75*
G02*
X99760000Y-59727000I250000J0D01*
G01*
X100260000Y-59727000D01*
G75*
G02*
X100510000Y-59977000I0J-250000D01*
G01*
G37*
%TD.AperFunction*%
%TD*%
%TO.P,Co1,1*%
%TO.N,GND*%
%TA.AperFunction,SMDPad,CuDef*%
G36*
G01*
X102415000Y-68486000D02*
X102415000Y-69436000D01*
G75*
G02*
X102165000Y-69686000I-250000J0D01*
G01*
X101665000Y-69686000D01*
G75*
G02*
X101415000Y-69436000I0J250000D01*
G01*
X101415000Y-68486000D01*
G75*
G02*
X101665000Y-68236000I250000J0D01*
G01*
X102165000Y-68236000D01*
G75*
G02*
X102415000Y-68486000I0J-250000D01*
G01*
G37*
%TD.AperFunction*%
%TO.P,Co1,2*%
%TO.N,Net-(CDC1-Pad1)*%
%TA.AperFunction,SMDPad,CuDef*%
G36*
G01*
X100515000Y-68486000D02*
X100515000Y-69436000D01*
G75*
G02*
X100265000Y-69686000I-250000J0D01*
G01*
X99765000Y-69686000D01*
G75*
G02*
X99515000Y-69436000I0J250000D01*
G01*
X99515000Y-68486000D01*
G75*
G02*
X99765000Y-68236000I250000J0D01*
G01*
X100265000Y-68236000D01*
G75*
G02*
X100515000Y-68486000I0J-250000D01*
G01*
G37*
%TD.AperFunction*%
%TD*%
D13*
%TO.P,J1,1*%
%TO.N,Net-(CC1-Pad2)*%
X92456000Y-80264000D03*
D14*
%TO.P,J1,2_1*%
%TO.N,GND*%
X92656000Y-77439000D03*
%TO.P,J1,3_1*%
X92656000Y-83089000D03*
%TD*%
%TO.P,J2,3_1*%
%TO.N,GND*%
X114227000Y-77439000D03*
%TO.P,J2,2_1*%
X114227000Y-83089000D03*
D13*
%TO.P,J2,1*%
%TO.N,Net-(CC2-Pad1)*%
X114427000Y-80264000D03*
%TD*%
D15*
%TO.P,U2,1*%
%TO.N,VCC*%
X100010000Y-63670000D03*
%TO.P,U2,2*%
%TO.N,GND*%
X99060000Y-63670000D03*
%TO.P,U2,3*%
%TO.N,VCC*%
X98110000Y-63670000D03*
%TO.P,U2,4*%
%TO.N,Net-(U2-Pad4)*%
X98110000Y-65870000D03*
%TO.P,U2,5*%
%TO.N,Net-(CDC1-Pad1)*%
X100010000Y-65870000D03*
%TD*%
D16*
%TO.N,GND*%
X92837000Y-74295000D03*
X91440000Y-74295000D03*
X94107000Y-74295000D03*
X95504000Y-74295000D03*
X113538000Y-70866000D03*
X112268000Y-70866000D03*
X91440000Y-77343000D03*
X92710000Y-77470000D03*
X93980000Y-77470000D03*
X91440000Y-83058000D03*
X92710000Y-83185000D03*
X94107000Y-83058000D03*
X112776000Y-83185000D03*
X114046000Y-83185000D03*
X115443000Y-83185000D03*
X113157000Y-77470000D03*
X114300000Y-77470000D03*
X115316000Y-77470000D03*
X105664000Y-83566000D03*
X104140000Y-83566000D03*
X108458000Y-83566000D03*
X98552000Y-83566000D03*
X99822000Y-83566000D03*
X101346000Y-83566000D03*
X105664000Y-84836000D03*
X104140000Y-84836000D03*
X108458000Y-84836000D03*
X102616000Y-84836000D03*
X98552000Y-84836000D03*
X99822000Y-84836000D03*
X107188000Y-84836000D03*
X101346000Y-84836000D03*
X104140000Y-86106000D03*
X108458000Y-86106000D03*
X98552000Y-86106000D03*
X107188000Y-86106000D03*
X101346000Y-86106000D03*
X105664000Y-87376000D03*
X104140000Y-87376000D03*
X108458000Y-87376000D03*
X102616000Y-87376000D03*
X98552000Y-87376000D03*
X99822000Y-87376000D03*
X107188000Y-87376000D03*
X101346000Y-87376000D03*
X99060000Y-88646000D03*
X97536000Y-88646000D03*
X101854000Y-88646000D03*
X96012000Y-88646000D03*
X91948000Y-88646000D03*
X93218000Y-88646000D03*
X94742000Y-88646000D03*
X110490000Y-88646000D03*
X108966000Y-88646000D03*
X113284000Y-88646000D03*
X107442000Y-88646000D03*
X104648000Y-88646000D03*
X112014000Y-88646000D03*
X108204000Y-75184000D03*
X109728000Y-85344000D03*
X97028000Y-82296000D03*
X97028000Y-83820000D03*
X97028000Y-85344000D03*
X97028000Y-86868000D03*
X95758000Y-87122000D03*
X94742000Y-87122000D03*
X93472000Y-87122000D03*
X92202000Y-87122000D03*
X98552000Y-82296000D03*
X99822000Y-82296000D03*
X101346000Y-82296000D03*
X102616000Y-82296000D03*
X104140000Y-82296000D03*
X105664000Y-82296000D03*
X107188000Y-82296000D03*
X108458000Y-82296000D03*
X109728000Y-82296000D03*
X109728000Y-83820000D03*
X110236000Y-87122000D03*
X111760000Y-87122000D03*
X113030000Y-87122000D03*
X114300000Y-87122000D03*
X115316000Y-87122000D03*
X101600000Y-78486000D03*
X102870000Y-78486000D03*
X104140000Y-78486000D03*
X102108000Y-77470000D03*
X107950000Y-78232000D03*
X109220000Y-78232000D03*
X109982000Y-76962000D03*
X109982000Y-75438000D03*
X109982000Y-74168000D03*
X110998000Y-73406000D03*
X112268000Y-73406000D03*
X113538000Y-73406000D03*
X114808000Y-73406000D03*
X96774000Y-77978000D03*
X96774000Y-76708000D03*
X96774000Y-75184000D03*
X98298000Y-75184000D03*
X98298000Y-76708000D03*
X98298000Y-77978000D03*
X108204000Y-76708000D03*
X114808000Y-88646000D03*
X110998000Y-72136000D03*
X112268000Y-72136000D03*
X113538000Y-72136000D03*
X114808000Y-72136000D03*
X114808000Y-70866000D03*
X100584000Y-88646000D03*
X103378000Y-88646000D03*
X106172000Y-88646000D03*
X99822000Y-86106000D03*
X102616000Y-86106000D03*
X105664000Y-86106000D03*
X107188000Y-83566000D03*
X102616000Y-83566000D03*
X91440000Y-75311000D03*
X92837000Y-75311000D03*
X94107000Y-75311000D03*
X95504000Y-75311000D03*
X94488000Y-85090000D03*
X93091000Y-85090000D03*
X91694000Y-85090000D03*
X112141000Y-85217000D03*
X113665000Y-85217000D03*
X115062000Y-85217000D03*
X110871000Y-83058000D03*
X112268000Y-75184000D03*
X113665000Y-75184000D03*
X115062000Y-75184000D03*
X102616000Y-74041000D03*
X92364550Y-44762905D03*
X92364550Y-52762905D03*
X92364550Y-55762905D03*
X92364550Y-58762905D03*
X92364550Y-61762905D03*
X92364550Y-64762905D03*
X92364550Y-67762905D03*
X92364550Y-70762905D03*
X94364550Y-45762905D03*
X94364550Y-53762905D03*
X94364550Y-56762905D03*
X94364550Y-59762905D03*
X94364550Y-62762905D03*
X94364550Y-65762905D03*
X94364550Y-68762905D03*
X94364550Y-71762905D03*
X96364550Y-55762905D03*
X96364550Y-58762905D03*
X96364550Y-61762905D03*
X96364550Y-64762905D03*
X96364550Y-67762905D03*
X96364550Y-70762905D03*
X97364550Y-72762905D03*
X98364550Y-68762905D03*
X101364550Y-61762905D03*
X101364550Y-64762905D03*
X101364550Y-70762905D03*
X102364550Y-44762905D03*
X102364550Y-47762905D03*
X102364550Y-50762905D03*
X102364550Y-53762905D03*
X102364550Y-59762905D03*
X102364550Y-66762905D03*
X103364550Y-62762905D03*
X103364550Y-68762905D03*
X104364550Y-45762905D03*
X104364550Y-48762905D03*
X104364550Y-51762905D03*
X104364550Y-54762905D03*
X104364550Y-57762905D03*
X104364550Y-60762905D03*
X104364550Y-64762905D03*
X104364550Y-70762905D03*
X105364550Y-66762905D03*
X106364550Y-44762905D03*
X106364550Y-47762905D03*
X106364550Y-50762905D03*
X106364550Y-53762905D03*
X106364550Y-56762905D03*
X106364550Y-59762905D03*
X106364550Y-62762905D03*
X106364550Y-68762905D03*
X107364550Y-64762905D03*
X107364550Y-70762905D03*
X108364550Y-45762905D03*
X108364550Y-48762905D03*
X108364550Y-51762905D03*
X108364550Y-54762905D03*
X108364550Y-57762905D03*
X108364550Y-60762905D03*
X108364550Y-66762905D03*
X109364550Y-62762905D03*
X109364550Y-68762905D03*
X110364550Y-44762905D03*
X110364550Y-47762905D03*
X110364550Y-50762905D03*
X110364550Y-53762905D03*
X110364550Y-56762905D03*
X110364550Y-59762905D03*
X110364550Y-64762905D03*
X111364550Y-61762905D03*
X111364550Y-66762905D03*
X112364550Y-45762905D03*
X112364550Y-48762905D03*
X112364550Y-51762905D03*
X112364550Y-54762905D03*
X112364550Y-57762905D03*
X112364550Y-63762905D03*
X112364550Y-68762905D03*
X113364550Y-59762905D03*
X113364550Y-65762905D03*
X114364550Y-61762905D03*
X114364550Y-67762905D03*
%TD*%
D17*
%TO.N,Net-(CC1-Pad1)*%
X99060000Y-80264000D02*
X101346000Y-80264000D01*
D18*
%TO.N,Net-(CC1-Pad2)*%
X94996000Y-80264000D02*
X97028000Y-80264000D01*
X94996000Y-80264000D02*
X92075000Y-80264000D01*
D17*
%TO.N,Net-(CC2-Pad2)*%
X103124000Y-80264000D02*
X105624000Y-80264000D01*
X105624000Y-80264000D02*
X105640000Y-80280000D01*
X106172000Y-80264000D02*
X108204000Y-80264000D01*
D18*
%TO.N,Net-(CC2-Pad1)*%
X109916000Y-80264000D02*
X113665000Y-80264000D01*
D19*
%TO.N,VCC*%
X98172000Y-52276000D02*
X98172000Y-63626000D01*
D17*
X98172000Y-63626000D02*
X98044000Y-63754000D01*
X98110000Y-64450000D02*
X98430000Y-64770000D01*
X98110000Y-63670000D02*
X98110000Y-64450000D01*
X98430000Y-64770000D02*
X99568000Y-64770000D01*
X99568000Y-64770000D02*
X100076000Y-64262000D01*
X100076000Y-64262000D02*
X100076000Y-63500000D01*
%TO.N,GND*%
X102174000Y-80514000D02*
X102174000Y-80774002D01*
X102174000Y-81014000D02*
X102440000Y-81280000D01*
X102440000Y-81280000D02*
X103124000Y-81280000D01*
X103124000Y-81264000D02*
X103124000Y-81280000D01*
X99060000Y-63670000D02*
X99060000Y-62738000D01*
D19*
X99060000Y-62484000D02*
X99314000Y-62230000D01*
X99060000Y-62738000D02*
X99060000Y-62484000D01*
%TO.N,Net-(CDC1-Pad1)*%
X100076000Y-75692000D02*
X100076000Y-78740000D01*
X100076000Y-72898000D02*
X105410000Y-72898000D01*
X105918000Y-75946000D02*
X106172000Y-76200000D01*
X106172000Y-76200000D02*
X106172000Y-78232000D01*
X100076000Y-72898000D02*
X100076000Y-75692000D01*
X105410000Y-72898000D02*
X106172000Y-73660000D01*
X106172000Y-73660000D02*
X106172000Y-76200000D01*
D17*
X100076000Y-78740000D02*
X100076000Y-78994000D01*
X100076000Y-78994000D02*
X100838000Y-79756000D01*
X100838000Y-79756000D02*
X101346000Y-79756000D01*
D19*
X100010000Y-65870000D02*
X100010000Y-69022000D01*
X100076000Y-69088000D02*
X100076000Y-72898000D01*
X100010000Y-69022000D02*
X100076000Y-69088000D01*
%TD*%
D20*
%TO.N,GND*%
X105095004Y-81178496D02*
X105244106Y-81300861D01*
X105414215Y-81391786D01*
X105598794Y-81447778D01*
X105790750Y-81466684D01*
X106553250Y-81466684D01*
X106745206Y-81447778D01*
X106929785Y-81391786D01*
X106974952Y-81367644D01*
X107048157Y-81456843D01*
X107201994Y-81583095D01*
X107377506Y-81676908D01*
X107567947Y-81734678D01*
X107766000Y-81754184D01*
X108266000Y-81754184D01*
X108464053Y-81734678D01*
X108654494Y-81676908D01*
X108830006Y-81583095D01*
X108966000Y-81471487D01*
X109101994Y-81583095D01*
X109277506Y-81676908D01*
X109467947Y-81734678D01*
X109600141Y-81747698D01*
X109619694Y-81753629D01*
X109841751Y-81775500D01*
X111706137Y-81775500D01*
X111701886Y-81777772D01*
X111585932Y-81872932D01*
X111490772Y-81988886D01*
X111420061Y-82121176D01*
X111376518Y-82264720D01*
X111361815Y-82414000D01*
X111365500Y-82898125D01*
X111555875Y-83088500D01*
X114226500Y-83088500D01*
X114226500Y-83068500D01*
X114227500Y-83068500D01*
X114227500Y-83088500D01*
X114247500Y-83088500D01*
X114247500Y-83089500D01*
X114227500Y-83089500D01*
X114227500Y-84335125D01*
X114417875Y-84525500D01*
X115188418Y-84526988D01*
X115174390Y-89124949D01*
X112717469Y-89146420D01*
X91018583Y-89255734D01*
X90973499Y-84528379D01*
X92465125Y-84525500D01*
X92655500Y-84335125D01*
X92655500Y-83089500D01*
X92656500Y-83089500D01*
X92656500Y-84335125D01*
X92846875Y-84525500D01*
X94756000Y-84529185D01*
X94905280Y-84514482D01*
X95048824Y-84470939D01*
X95181114Y-84400228D01*
X95297068Y-84305068D01*
X95392228Y-84189114D01*
X95462939Y-84056824D01*
X95506482Y-83913280D01*
X95521185Y-83764000D01*
X111361815Y-83764000D01*
X111376518Y-83913280D01*
X111420061Y-84056824D01*
X111490772Y-84189114D01*
X111585932Y-84305068D01*
X111701886Y-84400228D01*
X111834176Y-84470939D01*
X111977720Y-84514482D01*
X112127000Y-84529185D01*
X114036125Y-84525500D01*
X114226500Y-84335125D01*
X114226500Y-83089500D01*
X111555875Y-83089500D01*
X111365500Y-83279875D01*
X111361815Y-83764000D01*
X95521185Y-83764000D01*
X95517500Y-83279875D01*
X95327125Y-83089500D01*
X92656500Y-83089500D01*
X92655500Y-83089500D01*
X92635500Y-83089500D01*
X92635500Y-83088500D01*
X92655500Y-83088500D01*
X92655500Y-83068500D01*
X92656500Y-83068500D01*
X92656500Y-83088500D01*
X95327125Y-83088500D01*
X95517500Y-82898125D01*
X95521185Y-82414000D01*
X95506482Y-82264720D01*
X95462939Y-82121176D01*
X95392228Y-81988886D01*
X95297068Y-81872932D01*
X95181114Y-81777772D01*
X95176863Y-81775500D01*
X97102249Y-81775500D01*
X97318671Y-81754184D01*
X97410000Y-81754184D01*
X97608053Y-81734678D01*
X97798494Y-81676908D01*
X97974006Y-81583095D01*
X98110000Y-81471487D01*
X98245994Y-81583095D01*
X98421506Y-81676908D01*
X98611947Y-81734678D01*
X98810000Y-81754184D01*
X99310000Y-81754184D01*
X99508053Y-81734678D01*
X99698494Y-81676908D01*
X99874006Y-81583095D01*
X100027843Y-81456843D01*
X100154095Y-81303006D01*
X100219016Y-81181547D01*
X100219016Y-81393000D01*
X100233719Y-81542280D01*
X100277262Y-81685823D01*
X100347973Y-81818113D01*
X100443133Y-81934067D01*
X100559087Y-82029227D01*
X100691377Y-82099938D01*
X100834920Y-82143481D01*
X100984200Y-82158184D01*
X101484200Y-82158184D01*
X101633480Y-82143481D01*
X101777023Y-82099938D01*
X101810393Y-82082101D01*
X101993325Y-82079500D01*
X102183700Y-81889125D01*
X102183700Y-81699738D01*
X102184669Y-81697925D01*
X102184700Y-81698010D01*
X102184700Y-81889125D01*
X102375075Y-82079500D01*
X102560195Y-82082133D01*
X102628356Y-82114146D01*
X102773960Y-82150202D01*
X102923801Y-82157160D01*
X102943825Y-82154500D01*
X103134200Y-81964125D01*
X103324575Y-82154500D01*
X103344599Y-82157160D01*
X103494440Y-82150202D01*
X103640044Y-82114146D01*
X103775817Y-82050377D01*
X103896540Y-81961345D01*
X103997574Y-81850472D01*
X104075037Y-81722018D01*
X104125951Y-81580920D01*
X104145700Y-81458375D01*
X104013671Y-81326346D01*
X104020427Y-81318113D01*
X104091138Y-81185823D01*
X104101853Y-81150500D01*
X105072028Y-81150500D01*
X105095004Y-81178496D01*
%TA.AperFunction,Conductor*%
D21*
G36*
X105095004Y-81178496D02*
G01*
X105244106Y-81300861D01*
X105414215Y-81391786D01*
X105598794Y-81447778D01*
X105790750Y-81466684D01*
X106553250Y-81466684D01*
X106745206Y-81447778D01*
X106929785Y-81391786D01*
X106974952Y-81367644D01*
X107048157Y-81456843D01*
X107201994Y-81583095D01*
X107377506Y-81676908D01*
X107567947Y-81734678D01*
X107766000Y-81754184D01*
X108266000Y-81754184D01*
X108464053Y-81734678D01*
X108654494Y-81676908D01*
X108830006Y-81583095D01*
X108966000Y-81471487D01*
X109101994Y-81583095D01*
X109277506Y-81676908D01*
X109467947Y-81734678D01*
X109600141Y-81747698D01*
X109619694Y-81753629D01*
X109841751Y-81775500D01*
X111706137Y-81775500D01*
X111701886Y-81777772D01*
X111585932Y-81872932D01*
X111490772Y-81988886D01*
X111420061Y-82121176D01*
X111376518Y-82264720D01*
X111361815Y-82414000D01*
X111365500Y-82898125D01*
X111555875Y-83088500D01*
X114226500Y-83088500D01*
X114226500Y-83068500D01*
X114227500Y-83068500D01*
X114227500Y-83088500D01*
X114247500Y-83088500D01*
X114247500Y-83089500D01*
X114227500Y-83089500D01*
X114227500Y-84335125D01*
X114417875Y-84525500D01*
X115188418Y-84526988D01*
X115174390Y-89124949D01*
X112717469Y-89146420D01*
X91018583Y-89255734D01*
X90973499Y-84528379D01*
X92465125Y-84525500D01*
X92655500Y-84335125D01*
X92655500Y-83089500D01*
X92656500Y-83089500D01*
X92656500Y-84335125D01*
X92846875Y-84525500D01*
X94756000Y-84529185D01*
X94905280Y-84514482D01*
X95048824Y-84470939D01*
X95181114Y-84400228D01*
X95297068Y-84305068D01*
X95392228Y-84189114D01*
X95462939Y-84056824D01*
X95506482Y-83913280D01*
X95521185Y-83764000D01*
X111361815Y-83764000D01*
X111376518Y-83913280D01*
X111420061Y-84056824D01*
X111490772Y-84189114D01*
X111585932Y-84305068D01*
X111701886Y-84400228D01*
X111834176Y-84470939D01*
X111977720Y-84514482D01*
X112127000Y-84529185D01*
X114036125Y-84525500D01*
X114226500Y-84335125D01*
X114226500Y-83089500D01*
X111555875Y-83089500D01*
X111365500Y-83279875D01*
X111361815Y-83764000D01*
X95521185Y-83764000D01*
X95517500Y-83279875D01*
X95327125Y-83089500D01*
X92656500Y-83089500D01*
X92655500Y-83089500D01*
X92635500Y-83089500D01*
X92635500Y-83088500D01*
X92655500Y-83088500D01*
X92655500Y-83068500D01*
X92656500Y-83068500D01*
X92656500Y-83088500D01*
X95327125Y-83088500D01*
X95517500Y-82898125D01*
X95521185Y-82414000D01*
X95506482Y-82264720D01*
X95462939Y-82121176D01*
X95392228Y-81988886D01*
X95297068Y-81872932D01*
X95181114Y-81777772D01*
X95176863Y-81775500D01*
X97102249Y-81775500D01*
X97318671Y-81754184D01*
X97410000Y-81754184D01*
X97608053Y-81734678D01*
X97798494Y-81676908D01*
X97974006Y-81583095D01*
X98110000Y-81471487D01*
X98245994Y-81583095D01*
X98421506Y-81676908D01*
X98611947Y-81734678D01*
X98810000Y-81754184D01*
X99310000Y-81754184D01*
X99508053Y-81734678D01*
X99698494Y-81676908D01*
X99874006Y-81583095D01*
X100027843Y-81456843D01*
X100154095Y-81303006D01*
X100219016Y-81181547D01*
X100219016Y-81393000D01*
X100233719Y-81542280D01*
X100277262Y-81685823D01*
X100347973Y-81818113D01*
X100443133Y-81934067D01*
X100559087Y-82029227D01*
X100691377Y-82099938D01*
X100834920Y-82143481D01*
X100984200Y-82158184D01*
X101484200Y-82158184D01*
X101633480Y-82143481D01*
X101777023Y-82099938D01*
X101810393Y-82082101D01*
X101993325Y-82079500D01*
X102183700Y-81889125D01*
X102183700Y-81699738D01*
X102184669Y-81697925D01*
X102184700Y-81698010D01*
X102184700Y-81889125D01*
X102375075Y-82079500D01*
X102560195Y-82082133D01*
X102628356Y-82114146D01*
X102773960Y-82150202D01*
X102923801Y-82157160D01*
X102943825Y-82154500D01*
X103134200Y-81964125D01*
X103324575Y-82154500D01*
X103344599Y-82157160D01*
X103494440Y-82150202D01*
X103640044Y-82114146D01*
X103775817Y-82050377D01*
X103896540Y-81961345D01*
X103997574Y-81850472D01*
X104075037Y-81722018D01*
X104125951Y-81580920D01*
X104145700Y-81458375D01*
X104013671Y-81326346D01*
X104020427Y-81318113D01*
X104091138Y-81185823D01*
X104101853Y-81150500D01*
X105072028Y-81150500D01*
X105095004Y-81178496D01*
G37*
%TD.AperFunction*%
D20*
X103010500Y-73977125D02*
X103200875Y-74167500D01*
X104271500Y-74167500D01*
X104271500Y-74147500D01*
X104272500Y-74147500D01*
X104272500Y-74167500D01*
X104292500Y-74167500D01*
X104292500Y-74168500D01*
X104272500Y-74168500D01*
X104272500Y-74188500D01*
X104271500Y-74188500D01*
X104271500Y-74168500D01*
X103200875Y-74168500D01*
X103010500Y-74358875D01*
X103009587Y-74491146D01*
X102956068Y-74425932D01*
X102840114Y-74330772D01*
X102707824Y-74260061D01*
X102564280Y-74216518D01*
X102415000Y-74201815D01*
X102105875Y-74205500D01*
X101915500Y-74395875D01*
X101915500Y-75691500D01*
X101935500Y-75691500D01*
X101935500Y-75692500D01*
X101915500Y-75692500D01*
X101915500Y-76988125D01*
X102105875Y-77178500D01*
X102415000Y-77182185D01*
X102564280Y-77167482D01*
X102707824Y-77123939D01*
X102840114Y-77053228D01*
X102944969Y-76967177D01*
X102955518Y-77074280D01*
X102999061Y-77217824D01*
X103069772Y-77350114D01*
X103164932Y-77466068D01*
X103280886Y-77561228D01*
X103413176Y-77631939D01*
X103556720Y-77675482D01*
X103706000Y-77690185D01*
X104015125Y-77686500D01*
X104205500Y-77496125D01*
X104205500Y-76200500D01*
X104185500Y-76200500D01*
X104185500Y-76199500D01*
X104205500Y-76199500D01*
X104205500Y-76179500D01*
X104206500Y-76179500D01*
X104206500Y-76199500D01*
X104226500Y-76199500D01*
X104226500Y-76200500D01*
X104206500Y-76200500D01*
X104206500Y-77496125D01*
X104396875Y-77686500D01*
X104706000Y-77690185D01*
X104841326Y-77676856D01*
X104825722Y-77728294D01*
X104806816Y-77920250D01*
X104806816Y-78357750D01*
X104825722Y-78549706D01*
X104881714Y-78734285D01*
X104972639Y-78904394D01*
X105095004Y-79053496D01*
X105244106Y-79175861D01*
X105292073Y-79201500D01*
X105244106Y-79227139D01*
X105095004Y-79349504D01*
X105072028Y-79377500D01*
X104099426Y-79377500D01*
X104091138Y-79350177D01*
X104020427Y-79217887D01*
X103925267Y-79101933D01*
X103809313Y-79006773D01*
X103677023Y-78936062D01*
X103533480Y-78892519D01*
X103384200Y-78877816D01*
X102884200Y-78877816D01*
X102734920Y-78892519D01*
X102591377Y-78936062D01*
X102558007Y-78953899D01*
X102375075Y-78956500D01*
X102184700Y-79146875D01*
X102184700Y-79336262D01*
X102184200Y-79337197D01*
X102183700Y-79336262D01*
X102183700Y-79146875D01*
X101993325Y-78956500D01*
X101810393Y-78953899D01*
X101777023Y-78936062D01*
X101633480Y-78892519D01*
X101484200Y-78877816D01*
X101473983Y-78877816D01*
X101389548Y-78869500D01*
X101205200Y-78869500D01*
X101087500Y-78751800D01*
X101087500Y-77105404D01*
X101122176Y-77123939D01*
X101265720Y-77167482D01*
X101415000Y-77182185D01*
X101724125Y-77178500D01*
X101914500Y-76988125D01*
X101914500Y-75692500D01*
X101894500Y-75692500D01*
X101894500Y-75691500D01*
X101914500Y-75691500D01*
X101914500Y-74395875D01*
X101724125Y-74205500D01*
X101415000Y-74201815D01*
X101265720Y-74216518D01*
X101122176Y-74260061D01*
X101087500Y-74278596D01*
X101087500Y-73909500D01*
X103010033Y-73909500D01*
X103010500Y-73977125D01*
%TA.AperFunction,Conductor*%
D21*
G36*
X103010500Y-73977125D02*
G01*
X103200875Y-74167500D01*
X104271500Y-74167500D01*
X104271500Y-74147500D01*
X104272500Y-74147500D01*
X104272500Y-74167500D01*
X104292500Y-74167500D01*
X104292500Y-74168500D01*
X104272500Y-74168500D01*
X104272500Y-74188500D01*
X104271500Y-74188500D01*
X104271500Y-74168500D01*
X103200875Y-74168500D01*
X103010500Y-74358875D01*
X103009587Y-74491146D01*
X102956068Y-74425932D01*
X102840114Y-74330772D01*
X102707824Y-74260061D01*
X102564280Y-74216518D01*
X102415000Y-74201815D01*
X102105875Y-74205500D01*
X101915500Y-74395875D01*
X101915500Y-75691500D01*
X101935500Y-75691500D01*
X101935500Y-75692500D01*
X101915500Y-75692500D01*
X101915500Y-76988125D01*
X102105875Y-77178500D01*
X102415000Y-77182185D01*
X102564280Y-77167482D01*
X102707824Y-77123939D01*
X102840114Y-77053228D01*
X102944969Y-76967177D01*
X102955518Y-77074280D01*
X102999061Y-77217824D01*
X103069772Y-77350114D01*
X103164932Y-77466068D01*
X103280886Y-77561228D01*
X103413176Y-77631939D01*
X103556720Y-77675482D01*
X103706000Y-77690185D01*
X104015125Y-77686500D01*
X104205500Y-77496125D01*
X104205500Y-76200500D01*
X104185500Y-76200500D01*
X104185500Y-76199500D01*
X104205500Y-76199500D01*
X104205500Y-76179500D01*
X104206500Y-76179500D01*
X104206500Y-76199500D01*
X104226500Y-76199500D01*
X104226500Y-76200500D01*
X104206500Y-76200500D01*
X104206500Y-77496125D01*
X104396875Y-77686500D01*
X104706000Y-77690185D01*
X104841326Y-77676856D01*
X104825722Y-77728294D01*
X104806816Y-77920250D01*
X104806816Y-78357750D01*
X104825722Y-78549706D01*
X104881714Y-78734285D01*
X104972639Y-78904394D01*
X105095004Y-79053496D01*
X105244106Y-79175861D01*
X105292073Y-79201500D01*
X105244106Y-79227139D01*
X105095004Y-79349504D01*
X105072028Y-79377500D01*
X104099426Y-79377500D01*
X104091138Y-79350177D01*
X104020427Y-79217887D01*
X103925267Y-79101933D01*
X103809313Y-79006773D01*
X103677023Y-78936062D01*
X103533480Y-78892519D01*
X103384200Y-78877816D01*
X102884200Y-78877816D01*
X102734920Y-78892519D01*
X102591377Y-78936062D01*
X102558007Y-78953899D01*
X102375075Y-78956500D01*
X102184700Y-79146875D01*
X102184700Y-79336262D01*
X102184200Y-79337197D01*
X102183700Y-79336262D01*
X102183700Y-79146875D01*
X101993325Y-78956500D01*
X101810393Y-78953899D01*
X101777023Y-78936062D01*
X101633480Y-78892519D01*
X101484200Y-78877816D01*
X101473983Y-78877816D01*
X101389548Y-78869500D01*
X101205200Y-78869500D01*
X101087500Y-78751800D01*
X101087500Y-77105404D01*
X101122176Y-77123939D01*
X101265720Y-77167482D01*
X101415000Y-77182185D01*
X101724125Y-77178500D01*
X101914500Y-76988125D01*
X101914500Y-75692500D01*
X101894500Y-75692500D01*
X101894500Y-75691500D01*
X101914500Y-75691500D01*
X101914500Y-74395875D01*
X101724125Y-74205500D01*
X101415000Y-74201815D01*
X101265720Y-74216518D01*
X101122176Y-74260061D01*
X101087500Y-74278596D01*
X101087500Y-73909500D01*
X103010033Y-73909500D01*
X103010500Y-73977125D01*
G37*
%TD.AperFunction*%
D20*
X115214429Y-76000962D02*
X114417875Y-76002500D01*
X114227500Y-76192875D01*
X114227500Y-77438500D01*
X114247500Y-77438500D01*
X114247500Y-77439500D01*
X114227500Y-77439500D01*
X114227500Y-77459500D01*
X114226500Y-77459500D01*
X114226500Y-77439500D01*
X111555875Y-77439500D01*
X111365500Y-77629875D01*
X111361815Y-78114000D01*
X111376518Y-78263280D01*
X111420061Y-78406824D01*
X111490772Y-78539114D01*
X111585932Y-78655068D01*
X111701886Y-78750228D01*
X111706137Y-78752500D01*
X109841751Y-78752500D01*
X109619694Y-78774371D01*
X109600141Y-78780302D01*
X109467947Y-78793322D01*
X109277506Y-78851092D01*
X109101994Y-78944905D01*
X108966000Y-79056513D01*
X108830006Y-78944905D01*
X108654494Y-78851092D01*
X108464053Y-78793322D01*
X108266000Y-78773816D01*
X107766000Y-78773816D01*
X107567947Y-78793322D01*
X107404176Y-78843002D01*
X107462286Y-78734285D01*
X107518278Y-78549706D01*
X107537184Y-78357750D01*
X107537184Y-77920250D01*
X107518278Y-77728294D01*
X107462286Y-77543715D01*
X107371361Y-77373606D01*
X107248996Y-77224504D01*
X107220393Y-77201030D01*
X107293908Y-77063494D01*
X107351678Y-76873053D01*
X107362418Y-76764000D01*
X111361815Y-76764000D01*
X111365500Y-77248125D01*
X111555875Y-77438500D01*
X114226500Y-77438500D01*
X114226500Y-76192875D01*
X114036125Y-76002500D01*
X112127000Y-75998815D01*
X111977720Y-76013518D01*
X111834176Y-76057061D01*
X111701886Y-76127772D01*
X111585932Y-76222932D01*
X111490772Y-76338886D01*
X111420061Y-76471176D01*
X111376518Y-76614720D01*
X111361815Y-76764000D01*
X107362418Y-76764000D01*
X107371184Y-76675000D01*
X107371184Y-75725000D01*
X107351678Y-75526947D01*
X107293908Y-75336506D01*
X107241020Y-75237560D01*
X107266095Y-75207006D01*
X107359908Y-75031494D01*
X107417678Y-74841053D01*
X107437184Y-74643000D01*
X107437184Y-73693000D01*
X107417678Y-73494947D01*
X107359908Y-73304506D01*
X107266095Y-73128994D01*
X107139843Y-72975157D01*
X106986006Y-72848905D01*
X106810494Y-72755092D01*
X106648397Y-72705920D01*
X106160378Y-72217902D01*
X106128699Y-72179301D01*
X105974678Y-72052899D01*
X105798957Y-71958974D01*
X105608289Y-71901136D01*
X105459689Y-71886500D01*
X105459681Y-71886500D01*
X105410000Y-71881607D01*
X105360319Y-71886500D01*
X101087500Y-71886500D01*
X101087500Y-70374404D01*
X101122176Y-70392939D01*
X101265720Y-70436482D01*
X101415000Y-70451185D01*
X101724125Y-70447500D01*
X101914500Y-70257125D01*
X101914500Y-68961500D01*
X101915500Y-68961500D01*
X101915500Y-70257125D01*
X102105875Y-70447500D01*
X102415000Y-70451185D01*
X102564280Y-70436482D01*
X102707824Y-70392939D01*
X102840114Y-70322228D01*
X102956068Y-70227068D01*
X103051228Y-70111114D01*
X103121939Y-69978824D01*
X103165482Y-69835280D01*
X103180185Y-69686000D01*
X103176500Y-69151875D01*
X102986125Y-68961500D01*
X101915500Y-68961500D01*
X101914500Y-68961500D01*
X101894500Y-68961500D01*
X101894500Y-68960500D01*
X101914500Y-68960500D01*
X101914500Y-67664875D01*
X101915500Y-67664875D01*
X101915500Y-68960500D01*
X102986125Y-68960500D01*
X103176500Y-68770125D01*
X103180185Y-68236000D01*
X103165482Y-68086720D01*
X103121939Y-67943176D01*
X103051228Y-67810886D01*
X102956068Y-67694932D01*
X102840114Y-67599772D01*
X102707824Y-67529061D01*
X102564280Y-67485518D01*
X102415000Y-67470815D01*
X102105875Y-67474500D01*
X101915500Y-67664875D01*
X101914500Y-67664875D01*
X101724125Y-67474500D01*
X101415000Y-67470815D01*
X101265720Y-67485518D01*
X101122176Y-67529061D01*
X101021500Y-67582874D01*
X101021500Y-66731060D01*
X101041938Y-66692823D01*
X101085481Y-66549280D01*
X101100184Y-66400000D01*
X101100184Y-65340000D01*
X101085481Y-65190720D01*
X101041938Y-65047177D01*
X100971227Y-64914887D01*
X100876067Y-64798933D01*
X100840812Y-64770000D01*
X100876067Y-64741067D01*
X100971227Y-64625113D01*
X101041938Y-64492823D01*
X101085481Y-64349280D01*
X101100184Y-64200000D01*
X101100184Y-63140000D01*
X101085481Y-62990720D01*
X101041938Y-62847177D01*
X100971227Y-62714887D01*
X100876067Y-62598933D01*
X100760113Y-62503773D01*
X100627823Y-62433062D01*
X100484280Y-62389519D01*
X100335000Y-62374816D01*
X99685000Y-62374816D01*
X99535720Y-62389519D01*
X99535002Y-62389737D01*
X99534280Y-62389518D01*
X99385000Y-62374815D01*
X99250875Y-62378500D01*
X99183500Y-62445875D01*
X99183500Y-61865939D01*
X99217176Y-61883939D01*
X99360720Y-61927482D01*
X99510000Y-61942185D01*
X99819125Y-61938500D01*
X100009500Y-61748125D01*
X100009500Y-60452500D01*
X100010500Y-60452500D01*
X100010500Y-61748125D01*
X100200875Y-61938500D01*
X100510000Y-61942185D01*
X100659280Y-61927482D01*
X100802824Y-61883939D01*
X100935114Y-61813228D01*
X101051068Y-61718068D01*
X101146228Y-61602114D01*
X101216939Y-61469824D01*
X101260482Y-61326280D01*
X101275185Y-61177000D01*
X101271500Y-60642875D01*
X101081125Y-60452500D01*
X100010500Y-60452500D01*
X100009500Y-60452500D01*
X99989500Y-60452500D01*
X99989500Y-60451500D01*
X100009500Y-60451500D01*
X100009500Y-59155875D01*
X100010500Y-59155875D01*
X100010500Y-60451500D01*
X101081125Y-60451500D01*
X101271500Y-60261125D01*
X101275185Y-59727000D01*
X101260482Y-59577720D01*
X101216939Y-59434176D01*
X101146228Y-59301886D01*
X101051068Y-59185932D01*
X100935114Y-59090772D01*
X100802824Y-59020061D01*
X100659280Y-58976518D01*
X100510000Y-58961815D01*
X100200875Y-58965500D01*
X100010500Y-59155875D01*
X100009500Y-59155875D01*
X99819125Y-58965500D01*
X99510000Y-58961815D01*
X99360720Y-58976518D01*
X99217176Y-59020061D01*
X99183500Y-59038061D01*
X99183500Y-58455960D01*
X99262844Y-58390844D01*
X99389095Y-58237006D01*
X99482908Y-58061495D01*
X99524920Y-57923000D01*
X99829815Y-57923000D01*
X99844518Y-58072280D01*
X99888061Y-58215824D01*
X99958772Y-58348114D01*
X100053932Y-58464068D01*
X100169886Y-58559228D01*
X100302176Y-58629939D01*
X100445720Y-58673482D01*
X100595000Y-58688185D01*
X100979125Y-58684500D01*
X101169500Y-58494125D01*
X101169500Y-57023500D01*
X101170500Y-57023500D01*
X101170500Y-58494125D01*
X101360875Y-58684500D01*
X101745000Y-58688185D01*
X101894280Y-58673482D01*
X102037824Y-58629939D01*
X102170114Y-58559228D01*
X102286068Y-58464068D01*
X102381228Y-58348114D01*
X102451939Y-58215824D01*
X102495482Y-58072280D01*
X102510185Y-57923000D01*
X102506500Y-57213875D01*
X102316125Y-57023500D01*
X101170500Y-57023500D01*
X101169500Y-57023500D01*
X100023875Y-57023500D01*
X99833500Y-57213875D01*
X99829815Y-57923000D01*
X99524920Y-57923000D01*
X99540678Y-57871053D01*
X99560184Y-57673001D01*
X99560184Y-56372999D01*
X99540678Y-56174947D01*
X99524921Y-56123000D01*
X99829815Y-56123000D01*
X99833500Y-56832125D01*
X100023875Y-57022500D01*
X101169500Y-57022500D01*
X101169500Y-55551875D01*
X101170500Y-55551875D01*
X101170500Y-57022500D01*
X102316125Y-57022500D01*
X102506500Y-56832125D01*
X102510185Y-56123000D01*
X102495482Y-55973720D01*
X102451939Y-55830176D01*
X102381228Y-55697886D01*
X102286068Y-55581932D01*
X102170114Y-55486772D01*
X102037824Y-55416061D01*
X101894280Y-55372518D01*
X101745000Y-55357815D01*
X101360875Y-55361500D01*
X101170500Y-55551875D01*
X101169500Y-55551875D01*
X100979125Y-55361500D01*
X100595000Y-55357815D01*
X100445720Y-55372518D01*
X100302176Y-55416061D01*
X100169886Y-55486772D01*
X100053932Y-55581932D01*
X99958772Y-55697886D01*
X99888061Y-55830176D01*
X99844518Y-55973720D01*
X99829815Y-56123000D01*
X99524921Y-56123000D01*
X99482908Y-55984505D01*
X99389095Y-55808994D01*
X99262844Y-55655156D01*
X99183500Y-55590040D01*
X99183500Y-54791184D01*
X99922000Y-54791184D01*
X100071280Y-54776481D01*
X100214823Y-54732938D01*
X100347113Y-54662227D01*
X100463067Y-54567067D01*
X100558227Y-54451113D01*
X100628938Y-54318823D01*
X100672481Y-54175280D01*
X100687184Y-54026000D01*
X100687184Y-50526000D01*
X100672481Y-50376720D01*
X100628938Y-50233177D01*
X100558227Y-50100887D01*
X100463067Y-49984933D01*
X100347113Y-49889773D01*
X100214823Y-49819062D01*
X100071280Y-49775519D01*
X99922000Y-49760816D01*
X96422000Y-49760816D01*
X96272720Y-49775519D01*
X96129177Y-49819062D01*
X95996887Y-49889773D01*
X95987184Y-49897736D01*
X95987184Y-48404266D01*
X95996886Y-48412228D01*
X96129176Y-48482939D01*
X96272720Y-48526482D01*
X96422000Y-48541185D01*
X97981125Y-48537500D01*
X98171500Y-48347125D01*
X98171500Y-46276500D01*
X98172500Y-46276500D01*
X98172500Y-48347125D01*
X98362875Y-48537500D01*
X99922000Y-48541185D01*
X100071280Y-48526482D01*
X100214824Y-48482939D01*
X100347114Y-48412228D01*
X100463068Y-48317068D01*
X100558228Y-48201114D01*
X100628939Y-48068824D01*
X100672482Y-47925280D01*
X100687185Y-47776000D01*
X100683500Y-46466875D01*
X100493125Y-46276500D01*
X98172500Y-46276500D01*
X98171500Y-46276500D01*
X95850875Y-46276500D01*
X95660500Y-46466875D01*
X95657802Y-47425230D01*
X95506785Y-47241215D01*
X95258237Y-47037237D01*
X94974671Y-46885668D01*
X94666984Y-46792332D01*
X94347000Y-46760816D01*
X92597000Y-46760816D01*
X92277016Y-46792332D01*
X91969329Y-46885668D01*
X91685763Y-47037237D01*
X91437215Y-47241215D01*
X91233237Y-47489763D01*
X91081668Y-47773329D01*
X90988332Y-48081016D01*
X90956816Y-48401000D01*
X90956816Y-50151000D01*
X90988332Y-50470984D01*
X91081668Y-50778671D01*
X91233237Y-51062237D01*
X91437215Y-51310785D01*
X91685763Y-51514763D01*
X91969329Y-51666332D01*
X92277016Y-51759668D01*
X92597000Y-51791184D01*
X94347000Y-51791184D01*
X94666984Y-51759668D01*
X94974671Y-51666332D01*
X95258237Y-51514763D01*
X95506785Y-51310785D01*
X95656816Y-51127972D01*
X95656816Y-54026000D01*
X95671519Y-54175280D01*
X95715062Y-54318823D01*
X95785773Y-54451113D01*
X95880933Y-54567067D01*
X95996887Y-54662227D01*
X96129177Y-54732938D01*
X96272720Y-54776481D01*
X96422000Y-54791184D01*
X97160500Y-54791184D01*
X97160500Y-55675451D01*
X97050905Y-55808994D01*
X96957092Y-55984505D01*
X96899322Y-56174947D01*
X96879816Y-56372999D01*
X96879816Y-57673001D01*
X96899322Y-57871053D01*
X96957092Y-58061495D01*
X97050905Y-58237006D01*
X97160501Y-58370549D01*
X97160501Y-59244103D01*
X97142157Y-59259157D01*
X97015905Y-59412994D01*
X96922092Y-59588506D01*
X96864322Y-59778947D01*
X96844816Y-59977000D01*
X96844816Y-60927000D01*
X96864322Y-61125053D01*
X96922092Y-61315494D01*
X97015905Y-61491006D01*
X97142157Y-61644843D01*
X97160501Y-61659898D01*
X97160501Y-62700596D01*
X97148773Y-62714887D01*
X97078062Y-62847177D01*
X97034519Y-62990720D01*
X97019816Y-63140000D01*
X97019816Y-64200000D01*
X97034519Y-64349280D01*
X97078062Y-64492823D01*
X97148773Y-64625113D01*
X97243933Y-64741067D01*
X97279188Y-64770000D01*
X97243933Y-64798933D01*
X97148773Y-64914887D01*
X97078062Y-65047177D01*
X97034519Y-65190720D01*
X97019816Y-65340000D01*
X97019816Y-66400000D01*
X97034519Y-66549280D01*
X97078062Y-66692823D01*
X97148773Y-66825113D01*
X97243933Y-66941067D01*
X97359887Y-67036227D01*
X97492177Y-67106938D01*
X97635720Y-67150481D01*
X97785000Y-67165184D01*
X98435000Y-67165184D01*
X98584280Y-67150481D01*
X98727823Y-67106938D01*
X98860113Y-67036227D01*
X98976067Y-66941067D01*
X98998500Y-66913732D01*
X98998501Y-67827444D01*
X98920905Y-67921994D01*
X98827092Y-68097506D01*
X98769322Y-68287947D01*
X98749816Y-68486000D01*
X98749816Y-69436000D01*
X98769322Y-69634053D01*
X98827092Y-69824494D01*
X98920905Y-70000006D01*
X99047157Y-70153843D01*
X99064500Y-70168076D01*
X99064501Y-72848301D01*
X99059606Y-72898000D01*
X99064500Y-72947689D01*
X99064501Y-74484923D01*
X99047157Y-74499157D01*
X98920905Y-74652994D01*
X98827092Y-74828506D01*
X98769322Y-75018947D01*
X98749816Y-75217000D01*
X98749816Y-76167000D01*
X98769322Y-76365053D01*
X98827092Y-76555494D01*
X98920905Y-76731006D01*
X99047157Y-76884843D01*
X99064500Y-76899076D01*
X99064501Y-78773816D01*
X98810000Y-78773816D01*
X98611947Y-78793322D01*
X98421506Y-78851092D01*
X98245994Y-78944905D01*
X98110000Y-79056513D01*
X97974006Y-78944905D01*
X97798494Y-78851092D01*
X97608053Y-78793322D01*
X97410000Y-78773816D01*
X97318671Y-78773816D01*
X97102249Y-78752500D01*
X95176863Y-78752500D01*
X95181114Y-78750228D01*
X95297068Y-78655068D01*
X95392228Y-78539114D01*
X95462939Y-78406824D01*
X95506482Y-78263280D01*
X95521185Y-78114000D01*
X95517500Y-77629875D01*
X95327125Y-77439500D01*
X92656500Y-77439500D01*
X92656500Y-77459500D01*
X92655500Y-77459500D01*
X92655500Y-77439500D01*
X92635500Y-77439500D01*
X92635500Y-77438500D01*
X92655500Y-77438500D01*
X92655500Y-76192875D01*
X92656500Y-76192875D01*
X92656500Y-77438500D01*
X95327125Y-77438500D01*
X95517500Y-77248125D01*
X95521185Y-76764000D01*
X95506482Y-76614720D01*
X95462939Y-76471176D01*
X95392228Y-76338886D01*
X95297068Y-76222932D01*
X95181114Y-76127772D01*
X95048824Y-76057061D01*
X94905280Y-76013518D01*
X94756000Y-75998815D01*
X92846875Y-76002500D01*
X92656500Y-76192875D01*
X92655500Y-76192875D01*
X92465125Y-76002500D01*
X90892161Y-75999464D01*
X90594390Y-44776000D01*
X95656815Y-44776000D01*
X95660500Y-46085125D01*
X95850875Y-46275500D01*
X98171500Y-46275500D01*
X98171500Y-44204875D01*
X98172500Y-44204875D01*
X98172500Y-46275500D01*
X100493125Y-46275500D01*
X100683500Y-46085125D01*
X100687185Y-44776000D01*
X100672482Y-44626720D01*
X100628939Y-44483176D01*
X100558228Y-44350886D01*
X100463068Y-44234932D01*
X100347114Y-44139772D01*
X100214824Y-44069061D01*
X100071280Y-44025518D01*
X99922000Y-44010815D01*
X98362875Y-44014500D01*
X98172500Y-44204875D01*
X98171500Y-44204875D01*
X97981125Y-44014500D01*
X96422000Y-44010815D01*
X96272720Y-44025518D01*
X96129176Y-44069061D01*
X95996886Y-44139772D01*
X95880932Y-44234932D01*
X95785772Y-44350886D01*
X95715061Y-44483176D01*
X95671518Y-44626720D01*
X95656815Y-44776000D01*
X90594390Y-44776000D01*
X90576980Y-42950500D01*
X115315261Y-42950500D01*
X115214429Y-76000962D01*
%TA.AperFunction,Conductor*%
D21*
G36*
X115214429Y-76000962D02*
G01*
X114417875Y-76002500D01*
X114227500Y-76192875D01*
X114227500Y-77438500D01*
X114247500Y-77438500D01*
X114247500Y-77439500D01*
X114227500Y-77439500D01*
X114227500Y-77459500D01*
X114226500Y-77459500D01*
X114226500Y-77439500D01*
X111555875Y-77439500D01*
X111365500Y-77629875D01*
X111361815Y-78114000D01*
X111376518Y-78263280D01*
X111420061Y-78406824D01*
X111490772Y-78539114D01*
X111585932Y-78655068D01*
X111701886Y-78750228D01*
X111706137Y-78752500D01*
X109841751Y-78752500D01*
X109619694Y-78774371D01*
X109600141Y-78780302D01*
X109467947Y-78793322D01*
X109277506Y-78851092D01*
X109101994Y-78944905D01*
X108966000Y-79056513D01*
X108830006Y-78944905D01*
X108654494Y-78851092D01*
X108464053Y-78793322D01*
X108266000Y-78773816D01*
X107766000Y-78773816D01*
X107567947Y-78793322D01*
X107404176Y-78843002D01*
X107462286Y-78734285D01*
X107518278Y-78549706D01*
X107537184Y-78357750D01*
X107537184Y-77920250D01*
X107518278Y-77728294D01*
X107462286Y-77543715D01*
X107371361Y-77373606D01*
X107248996Y-77224504D01*
X107220393Y-77201030D01*
X107293908Y-77063494D01*
X107351678Y-76873053D01*
X107362418Y-76764000D01*
X111361815Y-76764000D01*
X111365500Y-77248125D01*
X111555875Y-77438500D01*
X114226500Y-77438500D01*
X114226500Y-76192875D01*
X114036125Y-76002500D01*
X112127000Y-75998815D01*
X111977720Y-76013518D01*
X111834176Y-76057061D01*
X111701886Y-76127772D01*
X111585932Y-76222932D01*
X111490772Y-76338886D01*
X111420061Y-76471176D01*
X111376518Y-76614720D01*
X111361815Y-76764000D01*
X107362418Y-76764000D01*
X107371184Y-76675000D01*
X107371184Y-75725000D01*
X107351678Y-75526947D01*
X107293908Y-75336506D01*
X107241020Y-75237560D01*
X107266095Y-75207006D01*
X107359908Y-75031494D01*
X107417678Y-74841053D01*
X107437184Y-74643000D01*
X107437184Y-73693000D01*
X107417678Y-73494947D01*
X107359908Y-73304506D01*
X107266095Y-73128994D01*
X107139843Y-72975157D01*
X106986006Y-72848905D01*
X106810494Y-72755092D01*
X106648397Y-72705920D01*
X106160378Y-72217902D01*
X106128699Y-72179301D01*
X105974678Y-72052899D01*
X105798957Y-71958974D01*
X105608289Y-71901136D01*
X105459689Y-71886500D01*
X105459681Y-71886500D01*
X105410000Y-71881607D01*
X105360319Y-71886500D01*
X101087500Y-71886500D01*
X101087500Y-70374404D01*
X101122176Y-70392939D01*
X101265720Y-70436482D01*
X101415000Y-70451185D01*
X101724125Y-70447500D01*
X101914500Y-70257125D01*
X101914500Y-68961500D01*
X101915500Y-68961500D01*
X101915500Y-70257125D01*
X102105875Y-70447500D01*
X102415000Y-70451185D01*
X102564280Y-70436482D01*
X102707824Y-70392939D01*
X102840114Y-70322228D01*
X102956068Y-70227068D01*
X103051228Y-70111114D01*
X103121939Y-69978824D01*
X103165482Y-69835280D01*
X103180185Y-69686000D01*
X103176500Y-69151875D01*
X102986125Y-68961500D01*
X101915500Y-68961500D01*
X101914500Y-68961500D01*
X101894500Y-68961500D01*
X101894500Y-68960500D01*
X101914500Y-68960500D01*
X101914500Y-67664875D01*
X101915500Y-67664875D01*
X101915500Y-68960500D01*
X102986125Y-68960500D01*
X103176500Y-68770125D01*
X103180185Y-68236000D01*
X103165482Y-68086720D01*
X103121939Y-67943176D01*
X103051228Y-67810886D01*
X102956068Y-67694932D01*
X102840114Y-67599772D01*
X102707824Y-67529061D01*
X102564280Y-67485518D01*
X102415000Y-67470815D01*
X102105875Y-67474500D01*
X101915500Y-67664875D01*
X101914500Y-67664875D01*
X101724125Y-67474500D01*
X101415000Y-67470815D01*
X101265720Y-67485518D01*
X101122176Y-67529061D01*
X101021500Y-67582874D01*
X101021500Y-66731060D01*
X101041938Y-66692823D01*
X101085481Y-66549280D01*
X101100184Y-66400000D01*
X101100184Y-65340000D01*
X101085481Y-65190720D01*
X101041938Y-65047177D01*
X100971227Y-64914887D01*
X100876067Y-64798933D01*
X100840812Y-64770000D01*
X100876067Y-64741067D01*
X100971227Y-64625113D01*
X101041938Y-64492823D01*
X101085481Y-64349280D01*
X101100184Y-64200000D01*
X101100184Y-63140000D01*
X101085481Y-62990720D01*
X101041938Y-62847177D01*
X100971227Y-62714887D01*
X100876067Y-62598933D01*
X100760113Y-62503773D01*
X100627823Y-62433062D01*
X100484280Y-62389519D01*
X100335000Y-62374816D01*
X99685000Y-62374816D01*
X99535720Y-62389519D01*
X99535002Y-62389737D01*
X99534280Y-62389518D01*
X99385000Y-62374815D01*
X99250875Y-62378500D01*
X99183500Y-62445875D01*
X99183500Y-61865939D01*
X99217176Y-61883939D01*
X99360720Y-61927482D01*
X99510000Y-61942185D01*
X99819125Y-61938500D01*
X100009500Y-61748125D01*
X100009500Y-60452500D01*
X100010500Y-60452500D01*
X100010500Y-61748125D01*
X100200875Y-61938500D01*
X100510000Y-61942185D01*
X100659280Y-61927482D01*
X100802824Y-61883939D01*
X100935114Y-61813228D01*
X101051068Y-61718068D01*
X101146228Y-61602114D01*
X101216939Y-61469824D01*
X101260482Y-61326280D01*
X101275185Y-61177000D01*
X101271500Y-60642875D01*
X101081125Y-60452500D01*
X100010500Y-60452500D01*
X100009500Y-60452500D01*
X99989500Y-60452500D01*
X99989500Y-60451500D01*
X100009500Y-60451500D01*
X100009500Y-59155875D01*
X100010500Y-59155875D01*
X100010500Y-60451500D01*
X101081125Y-60451500D01*
X101271500Y-60261125D01*
X101275185Y-59727000D01*
X101260482Y-59577720D01*
X101216939Y-59434176D01*
X101146228Y-59301886D01*
X101051068Y-59185932D01*
X100935114Y-59090772D01*
X100802824Y-59020061D01*
X100659280Y-58976518D01*
X100510000Y-58961815D01*
X100200875Y-58965500D01*
X100010500Y-59155875D01*
X100009500Y-59155875D01*
X99819125Y-58965500D01*
X99510000Y-58961815D01*
X99360720Y-58976518D01*
X99217176Y-59020061D01*
X99183500Y-59038061D01*
X99183500Y-58455960D01*
X99262844Y-58390844D01*
X99389095Y-58237006D01*
X99482908Y-58061495D01*
X99524920Y-57923000D01*
X99829815Y-57923000D01*
X99844518Y-58072280D01*
X99888061Y-58215824D01*
X99958772Y-58348114D01*
X100053932Y-58464068D01*
X100169886Y-58559228D01*
X100302176Y-58629939D01*
X100445720Y-58673482D01*
X100595000Y-58688185D01*
X100979125Y-58684500D01*
X101169500Y-58494125D01*
X101169500Y-57023500D01*
X101170500Y-57023500D01*
X101170500Y-58494125D01*
X101360875Y-58684500D01*
X101745000Y-58688185D01*
X101894280Y-58673482D01*
X102037824Y-58629939D01*
X102170114Y-58559228D01*
X102286068Y-58464068D01*
X102381228Y-58348114D01*
X102451939Y-58215824D01*
X102495482Y-58072280D01*
X102510185Y-57923000D01*
X102506500Y-57213875D01*
X102316125Y-57023500D01*
X101170500Y-57023500D01*
X101169500Y-57023500D01*
X100023875Y-57023500D01*
X99833500Y-57213875D01*
X99829815Y-57923000D01*
X99524920Y-57923000D01*
X99540678Y-57871053D01*
X99560184Y-57673001D01*
X99560184Y-56372999D01*
X99540678Y-56174947D01*
X99524921Y-56123000D01*
X99829815Y-56123000D01*
X99833500Y-56832125D01*
X100023875Y-57022500D01*
X101169500Y-57022500D01*
X101169500Y-55551875D01*
X101170500Y-55551875D01*
X101170500Y-57022500D01*
X102316125Y-57022500D01*
X102506500Y-56832125D01*
X102510185Y-56123000D01*
X102495482Y-55973720D01*
X102451939Y-55830176D01*
X102381228Y-55697886D01*
X102286068Y-55581932D01*
X102170114Y-55486772D01*
X102037824Y-55416061D01*
X101894280Y-55372518D01*
X101745000Y-55357815D01*
X101360875Y-55361500D01*
X101170500Y-55551875D01*
X101169500Y-55551875D01*
X100979125Y-55361500D01*
X100595000Y-55357815D01*
X100445720Y-55372518D01*
X100302176Y-55416061D01*
X100169886Y-55486772D01*
X100053932Y-55581932D01*
X99958772Y-55697886D01*
X99888061Y-55830176D01*
X99844518Y-55973720D01*
X99829815Y-56123000D01*
X99524921Y-56123000D01*
X99482908Y-55984505D01*
X99389095Y-55808994D01*
X99262844Y-55655156D01*
X99183500Y-55590040D01*
X99183500Y-54791184D01*
X99922000Y-54791184D01*
X100071280Y-54776481D01*
X100214823Y-54732938D01*
X100347113Y-54662227D01*
X100463067Y-54567067D01*
X100558227Y-54451113D01*
X100628938Y-54318823D01*
X100672481Y-54175280D01*
X100687184Y-54026000D01*
X100687184Y-50526000D01*
X100672481Y-50376720D01*
X100628938Y-50233177D01*
X100558227Y-50100887D01*
X100463067Y-49984933D01*
X100347113Y-49889773D01*
X100214823Y-49819062D01*
X100071280Y-49775519D01*
X99922000Y-49760816D01*
X96422000Y-49760816D01*
X96272720Y-49775519D01*
X96129177Y-49819062D01*
X95996887Y-49889773D01*
X95987184Y-49897736D01*
X95987184Y-48404266D01*
X95996886Y-48412228D01*
X96129176Y-48482939D01*
X96272720Y-48526482D01*
X96422000Y-48541185D01*
X97981125Y-48537500D01*
X98171500Y-48347125D01*
X98171500Y-46276500D01*
X98172500Y-46276500D01*
X98172500Y-48347125D01*
X98362875Y-48537500D01*
X99922000Y-48541185D01*
X100071280Y-48526482D01*
X100214824Y-48482939D01*
X100347114Y-48412228D01*
X100463068Y-48317068D01*
X100558228Y-48201114D01*
X100628939Y-48068824D01*
X100672482Y-47925280D01*
X100687185Y-47776000D01*
X100683500Y-46466875D01*
X100493125Y-46276500D01*
X98172500Y-46276500D01*
X98171500Y-46276500D01*
X95850875Y-46276500D01*
X95660500Y-46466875D01*
X95657802Y-47425230D01*
X95506785Y-47241215D01*
X95258237Y-47037237D01*
X94974671Y-46885668D01*
X94666984Y-46792332D01*
X94347000Y-46760816D01*
X92597000Y-46760816D01*
X92277016Y-46792332D01*
X91969329Y-46885668D01*
X91685763Y-47037237D01*
X91437215Y-47241215D01*
X91233237Y-47489763D01*
X91081668Y-47773329D01*
X90988332Y-48081016D01*
X90956816Y-48401000D01*
X90956816Y-50151000D01*
X90988332Y-50470984D01*
X91081668Y-50778671D01*
X91233237Y-51062237D01*
X91437215Y-51310785D01*
X91685763Y-51514763D01*
X91969329Y-51666332D01*
X92277016Y-51759668D01*
X92597000Y-51791184D01*
X94347000Y-51791184D01*
X94666984Y-51759668D01*
X94974671Y-51666332D01*
X95258237Y-51514763D01*
X95506785Y-51310785D01*
X95656816Y-51127972D01*
X95656816Y-54026000D01*
X95671519Y-54175280D01*
X95715062Y-54318823D01*
X95785773Y-54451113D01*
X95880933Y-54567067D01*
X95996887Y-54662227D01*
X96129177Y-54732938D01*
X96272720Y-54776481D01*
X96422000Y-54791184D01*
X97160500Y-54791184D01*
X97160500Y-55675451D01*
X97050905Y-55808994D01*
X96957092Y-55984505D01*
X96899322Y-56174947D01*
X96879816Y-56372999D01*
X96879816Y-57673001D01*
X96899322Y-57871053D01*
X96957092Y-58061495D01*
X97050905Y-58237006D01*
X97160501Y-58370549D01*
X97160501Y-59244103D01*
X97142157Y-59259157D01*
X97015905Y-59412994D01*
X96922092Y-59588506D01*
X96864322Y-59778947D01*
X96844816Y-59977000D01*
X96844816Y-60927000D01*
X96864322Y-61125053D01*
X96922092Y-61315494D01*
X97015905Y-61491006D01*
X97142157Y-61644843D01*
X97160501Y-61659898D01*
X97160501Y-62700596D01*
X97148773Y-62714887D01*
X97078062Y-62847177D01*
X97034519Y-62990720D01*
X97019816Y-63140000D01*
X97019816Y-64200000D01*
X97034519Y-64349280D01*
X97078062Y-64492823D01*
X97148773Y-64625113D01*
X97243933Y-64741067D01*
X97279188Y-64770000D01*
X97243933Y-64798933D01*
X97148773Y-64914887D01*
X97078062Y-65047177D01*
X97034519Y-65190720D01*
X97019816Y-65340000D01*
X97019816Y-66400000D01*
X97034519Y-66549280D01*
X97078062Y-66692823D01*
X97148773Y-66825113D01*
X97243933Y-66941067D01*
X97359887Y-67036227D01*
X97492177Y-67106938D01*
X97635720Y-67150481D01*
X97785000Y-67165184D01*
X98435000Y-67165184D01*
X98584280Y-67150481D01*
X98727823Y-67106938D01*
X98860113Y-67036227D01*
X98976067Y-66941067D01*
X98998500Y-66913732D01*
X98998501Y-67827444D01*
X98920905Y-67921994D01*
X98827092Y-68097506D01*
X98769322Y-68287947D01*
X98749816Y-68486000D01*
X98749816Y-69436000D01*
X98769322Y-69634053D01*
X98827092Y-69824494D01*
X98920905Y-70000006D01*
X99047157Y-70153843D01*
X99064500Y-70168076D01*
X99064501Y-72848301D01*
X99059606Y-72898000D01*
X99064500Y-72947689D01*
X99064501Y-74484923D01*
X99047157Y-74499157D01*
X98920905Y-74652994D01*
X98827092Y-74828506D01*
X98769322Y-75018947D01*
X98749816Y-75217000D01*
X98749816Y-76167000D01*
X98769322Y-76365053D01*
X98827092Y-76555494D01*
X98920905Y-76731006D01*
X99047157Y-76884843D01*
X99064500Y-76899076D01*
X99064501Y-78773816D01*
X98810000Y-78773816D01*
X98611947Y-78793322D01*
X98421506Y-78851092D01*
X98245994Y-78944905D01*
X98110000Y-79056513D01*
X97974006Y-78944905D01*
X97798494Y-78851092D01*
X97608053Y-78793322D01*
X97410000Y-78773816D01*
X97318671Y-78773816D01*
X97102249Y-78752500D01*
X95176863Y-78752500D01*
X95181114Y-78750228D01*
X95297068Y-78655068D01*
X95392228Y-78539114D01*
X95462939Y-78406824D01*
X95506482Y-78263280D01*
X95521185Y-78114000D01*
X95517500Y-77629875D01*
X95327125Y-77439500D01*
X92656500Y-77439500D01*
X92656500Y-77459500D01*
X92655500Y-77459500D01*
X92655500Y-77439500D01*
X92635500Y-77439500D01*
X92635500Y-77438500D01*
X92655500Y-77438500D01*
X92655500Y-76192875D01*
X92656500Y-76192875D01*
X92656500Y-77438500D01*
X95327125Y-77438500D01*
X95517500Y-77248125D01*
X95521185Y-76764000D01*
X95506482Y-76614720D01*
X95462939Y-76471176D01*
X95392228Y-76338886D01*
X95297068Y-76222932D01*
X95181114Y-76127772D01*
X95048824Y-76057061D01*
X94905280Y-76013518D01*
X94756000Y-75998815D01*
X92846875Y-76002500D01*
X92656500Y-76192875D01*
X92655500Y-76192875D01*
X92465125Y-76002500D01*
X90892161Y-75999464D01*
X90594390Y-44776000D01*
X95656815Y-44776000D01*
X95660500Y-46085125D01*
X95850875Y-46275500D01*
X98171500Y-46275500D01*
X98171500Y-44204875D01*
X98172500Y-44204875D01*
X98172500Y-46275500D01*
X100493125Y-46275500D01*
X100683500Y-46085125D01*
X100687185Y-44776000D01*
X100672482Y-44626720D01*
X100628939Y-44483176D01*
X100558228Y-44350886D01*
X100463068Y-44234932D01*
X100347114Y-44139772D01*
X100214824Y-44069061D01*
X100071280Y-44025518D01*
X99922000Y-44010815D01*
X98362875Y-44014500D01*
X98172500Y-44204875D01*
X98171500Y-44204875D01*
X97981125Y-44014500D01*
X96422000Y-44010815D01*
X96272720Y-44025518D01*
X96129176Y-44069061D01*
X95996886Y-44139772D01*
X95880932Y-44234932D01*
X95785772Y-44350886D01*
X95715061Y-44483176D01*
X95671518Y-44626720D01*
X95656815Y-44776000D01*
X90594390Y-44776000D01*
X90576980Y-42950500D01*
X115315261Y-42950500D01*
X115214429Y-76000962D01*
G37*
%TD.AperFunction*%
%TD*%
D22*
%TO.N,GND*%
X102501042Y-79035605D02*
X102490971Y-79686572D01*
X101858579Y-79679394D01*
X101840597Y-79028427D01*
X102501042Y-79035605D01*
%TA.AperFunction,Conductor*%
D21*
G36*
X102501042Y-79035605D02*
G01*
X102490971Y-79686572D01*
X101858579Y-79679394D01*
X101840597Y-79028427D01*
X102501042Y-79035605D01*
G37*
%TD.AperFunction*%
%TD*%
D20*
%TO.N,GND*%
X102299000Y-81380290D02*
X102299000Y-82106000D01*
X102107500Y-82106000D01*
X102107500Y-81833865D01*
X102120427Y-81818113D01*
X102191138Y-81685823D01*
X102234681Y-81542280D01*
X102249384Y-81393000D01*
X102249384Y-81319832D01*
X102299000Y-81380290D01*
%TA.AperFunction,Conductor*%
D21*
G36*
X102299000Y-81380290D02*
G01*
X102299000Y-82106000D01*
X102107500Y-82106000D01*
X102107500Y-81833865D01*
X102120427Y-81818113D01*
X102191138Y-81685823D01*
X102234681Y-81542280D01*
X102249384Y-81393000D01*
X102249384Y-81319832D01*
X102299000Y-81380290D01*
G37*
%TD.AperFunction*%
%TD*%
M02*
