%TF.GenerationSoftware,KiCad,Pcbnew,(5.1.9)-1*%
%TF.CreationDate,2021-01-25T16:28:54-05:00*%
%TF.ProjectId,LNA2,4c4e4132-2e6b-4696-9361-645f70636258,rev?*%
%TF.SameCoordinates,Original*%
%TF.FileFunction,Copper,L2,Bot*%
%TF.FilePolarity,Positive*%
%FSLAX46Y46*%
G04 Gerber Fmt 4.6, Leading zero omitted, Abs format (unit mm)*
G04 Created by KiCad (PCBNEW (5.1.9)-1) date 2021-01-25 16:28:54*
%MOMM*%
%LPD*%
G01*
G04 APERTURE LIST*
%TA.AperFunction,SMDPad,CuDef*%
%ADD10R,4.200000X1.350000*%
%TD*%
%TA.AperFunction,ViaPad*%
%ADD11C,1.200000*%
%TD*%
%TA.AperFunction,ViaPad*%
%ADD12C,0.800000*%
%TD*%
%TA.AperFunction,Conductor*%
%ADD13C,0.254000*%
%TD*%
%TA.AperFunction,Conductor*%
%ADD14C,0.100000*%
%TD*%
G04 APERTURE END LIST*
D10*
%TO.P,J1,2_2*%
%TO.N,GND*%
X93672000Y-77439000D03*
%TO.P,J1,3_2*%
X93672000Y-83089000D03*
%TD*%
%TO.P,J2,3_2*%
%TO.N,GND*%
X113211000Y-77439000D03*
%TO.P,J2,2_2*%
X113211000Y-83089000D03*
%TD*%
D11*
%TO.N,VCC*%
X100076000Y-72898000D03*
D12*
%TO.N,GND*%
X97536000Y-76860400D03*
X96012000Y-75336400D03*
X97525000Y-75350000D03*
X109601000Y-77216000D03*
X108204000Y-77216000D03*
X103784400Y-78435200D03*
X102158800Y-78435200D03*
X102158800Y-77368400D03*
D11*
X98552000Y-72898000D03*
D12*
X108254800Y-84988400D03*
X105206800Y-84988400D03*
X100584000Y-83464400D03*
X103632000Y-83464400D03*
X99110800Y-83464400D03*
X97536000Y-83464400D03*
X106680000Y-84988400D03*
X103632000Y-84988400D03*
X108254800Y-83464400D03*
X102158800Y-84988400D03*
X100584000Y-84988400D03*
X99110800Y-84988400D03*
X97536000Y-84988400D03*
X96062800Y-84988400D03*
X106680000Y-83464400D03*
X105206800Y-83464400D03*
X102158800Y-83464400D03*
%TD*%
D13*
%TO.N,GND*%
X113157000Y-71389132D02*
X113157000Y-76129000D01*
X113083998Y-76129000D01*
X113083998Y-76287748D01*
X112925250Y-76129000D01*
X111111000Y-76125928D01*
X110986518Y-76138188D01*
X110866820Y-76174498D01*
X110756506Y-76233463D01*
X110659815Y-76312815D01*
X110580463Y-76409506D01*
X110521498Y-76519820D01*
X110485188Y-76639518D01*
X110472928Y-76764000D01*
X110476000Y-77153250D01*
X110634750Y-77312000D01*
X113084000Y-77312000D01*
X113084000Y-77292000D01*
X113157000Y-77292000D01*
X113157000Y-77586000D01*
X113084000Y-77586000D01*
X113084000Y-77566000D01*
X110634750Y-77566000D01*
X110476000Y-77724750D01*
X110472928Y-78114000D01*
X110485188Y-78238482D01*
X110521498Y-78358180D01*
X110580463Y-78468494D01*
X110659815Y-78565185D01*
X110756506Y-78644537D01*
X110866820Y-78703502D01*
X110986518Y-78739812D01*
X111111000Y-78752072D01*
X112925250Y-78749000D01*
X113083998Y-78590252D01*
X113083998Y-78749000D01*
X113157000Y-78749000D01*
X113157000Y-81779000D01*
X113083998Y-81779000D01*
X113083998Y-81937748D01*
X112925250Y-81779000D01*
X111111000Y-81775928D01*
X110986518Y-81788188D01*
X110866820Y-81824498D01*
X110756506Y-81883463D01*
X110659815Y-81962815D01*
X110580463Y-82059506D01*
X110521498Y-82169820D01*
X110485188Y-82289518D01*
X110472928Y-82414000D01*
X110476000Y-82803250D01*
X110634750Y-82962000D01*
X113084000Y-82962000D01*
X113084000Y-82942000D01*
X113157000Y-82942000D01*
X113157000Y-83236000D01*
X113084000Y-83236000D01*
X113084000Y-83216000D01*
X110634750Y-83216000D01*
X110476000Y-83374750D01*
X110472928Y-83764000D01*
X110485188Y-83888482D01*
X110521498Y-84008180D01*
X110580463Y-84118494D01*
X110659815Y-84215185D01*
X110756506Y-84294537D01*
X110866820Y-84353502D01*
X110986518Y-84389812D01*
X111111000Y-84402072D01*
X112925250Y-84399000D01*
X113083998Y-84240252D01*
X113083998Y-84399000D01*
X113157000Y-84399000D01*
X113157000Y-86201436D01*
X92074814Y-86232440D01*
X92077892Y-84401215D01*
X93386250Y-84399000D01*
X93545000Y-84240250D01*
X93545000Y-83216000D01*
X93799000Y-83216000D01*
X93799000Y-84240250D01*
X93957750Y-84399000D01*
X95772000Y-84402072D01*
X95896482Y-84389812D01*
X96016180Y-84353502D01*
X96126494Y-84294537D01*
X96223185Y-84215185D01*
X96302537Y-84118494D01*
X96361502Y-84008180D01*
X96397812Y-83888482D01*
X96410072Y-83764000D01*
X96407000Y-83374750D01*
X96248250Y-83216000D01*
X93799000Y-83216000D01*
X93545000Y-83216000D01*
X93525000Y-83216000D01*
X93525000Y-82962000D01*
X93545000Y-82962000D01*
X93545000Y-81937750D01*
X93799000Y-81937750D01*
X93799000Y-82962000D01*
X96248250Y-82962000D01*
X96407000Y-82803250D01*
X96410072Y-82414000D01*
X96397812Y-82289518D01*
X96361502Y-82169820D01*
X96302537Y-82059506D01*
X96223185Y-81962815D01*
X96126494Y-81883463D01*
X96016180Y-81824498D01*
X95896482Y-81788188D01*
X95772000Y-81775928D01*
X93957750Y-81779000D01*
X93799000Y-81937750D01*
X93545000Y-81937750D01*
X93386250Y-81779000D01*
X92082303Y-81776792D01*
X92087388Y-78751199D01*
X93386250Y-78749000D01*
X93545000Y-78590250D01*
X93545000Y-77566000D01*
X93799000Y-77566000D01*
X93799000Y-78590250D01*
X93957750Y-78749000D01*
X95772000Y-78752072D01*
X95896482Y-78739812D01*
X96016180Y-78703502D01*
X96126494Y-78644537D01*
X96223185Y-78565185D01*
X96302537Y-78468494D01*
X96361502Y-78358180D01*
X96397812Y-78238482D01*
X96410072Y-78114000D01*
X96407000Y-77724750D01*
X96248250Y-77566000D01*
X93799000Y-77566000D01*
X93545000Y-77566000D01*
X93525000Y-77566000D01*
X93525000Y-77312000D01*
X93545000Y-77312000D01*
X93545000Y-76287750D01*
X93799000Y-76287750D01*
X93799000Y-77312000D01*
X96248250Y-77312000D01*
X96407000Y-77153250D01*
X96410072Y-76764000D01*
X96397812Y-76639518D01*
X96361502Y-76519820D01*
X96302537Y-76409506D01*
X96223185Y-76312815D01*
X96126494Y-76233463D01*
X96016180Y-76174498D01*
X95896482Y-76138188D01*
X95772000Y-76125928D01*
X93957750Y-76129000D01*
X93799000Y-76287750D01*
X93545000Y-76287750D01*
X93386250Y-76129000D01*
X92091799Y-76126808D01*
X92097429Y-72776363D01*
X98841000Y-72776363D01*
X98841000Y-73019637D01*
X98888460Y-73258236D01*
X98981557Y-73482992D01*
X99116713Y-73685267D01*
X99288733Y-73857287D01*
X99491008Y-73992443D01*
X99715764Y-74085540D01*
X99954363Y-74133000D01*
X100197637Y-74133000D01*
X100436236Y-74085540D01*
X100660992Y-73992443D01*
X100863267Y-73857287D01*
X101035287Y-73685267D01*
X101170443Y-73482992D01*
X101263540Y-73258236D01*
X101311000Y-73019637D01*
X101311000Y-72776363D01*
X101263540Y-72537764D01*
X101170443Y-72313008D01*
X101035287Y-72110733D01*
X100863267Y-71938713D01*
X100660992Y-71803557D01*
X100436236Y-71710460D01*
X100197637Y-71663000D01*
X99954363Y-71663000D01*
X99715764Y-71710460D01*
X99491008Y-71803557D01*
X99288733Y-71938713D01*
X99116713Y-72110733D01*
X98981557Y-72313008D01*
X98888460Y-72537764D01*
X98841000Y-72776363D01*
X92097429Y-72776363D01*
X92099894Y-71309904D01*
X97473526Y-71302001D01*
X113157000Y-71389132D01*
%TA.AperFunction,Conductor*%
D14*
G36*
X113157000Y-71389132D02*
G01*
X113157000Y-76129000D01*
X113083998Y-76129000D01*
X113083998Y-76287748D01*
X112925250Y-76129000D01*
X111111000Y-76125928D01*
X110986518Y-76138188D01*
X110866820Y-76174498D01*
X110756506Y-76233463D01*
X110659815Y-76312815D01*
X110580463Y-76409506D01*
X110521498Y-76519820D01*
X110485188Y-76639518D01*
X110472928Y-76764000D01*
X110476000Y-77153250D01*
X110634750Y-77312000D01*
X113084000Y-77312000D01*
X113084000Y-77292000D01*
X113157000Y-77292000D01*
X113157000Y-77586000D01*
X113084000Y-77586000D01*
X113084000Y-77566000D01*
X110634750Y-77566000D01*
X110476000Y-77724750D01*
X110472928Y-78114000D01*
X110485188Y-78238482D01*
X110521498Y-78358180D01*
X110580463Y-78468494D01*
X110659815Y-78565185D01*
X110756506Y-78644537D01*
X110866820Y-78703502D01*
X110986518Y-78739812D01*
X111111000Y-78752072D01*
X112925250Y-78749000D01*
X113083998Y-78590252D01*
X113083998Y-78749000D01*
X113157000Y-78749000D01*
X113157000Y-81779000D01*
X113083998Y-81779000D01*
X113083998Y-81937748D01*
X112925250Y-81779000D01*
X111111000Y-81775928D01*
X110986518Y-81788188D01*
X110866820Y-81824498D01*
X110756506Y-81883463D01*
X110659815Y-81962815D01*
X110580463Y-82059506D01*
X110521498Y-82169820D01*
X110485188Y-82289518D01*
X110472928Y-82414000D01*
X110476000Y-82803250D01*
X110634750Y-82962000D01*
X113084000Y-82962000D01*
X113084000Y-82942000D01*
X113157000Y-82942000D01*
X113157000Y-83236000D01*
X113084000Y-83236000D01*
X113084000Y-83216000D01*
X110634750Y-83216000D01*
X110476000Y-83374750D01*
X110472928Y-83764000D01*
X110485188Y-83888482D01*
X110521498Y-84008180D01*
X110580463Y-84118494D01*
X110659815Y-84215185D01*
X110756506Y-84294537D01*
X110866820Y-84353502D01*
X110986518Y-84389812D01*
X111111000Y-84402072D01*
X112925250Y-84399000D01*
X113083998Y-84240252D01*
X113083998Y-84399000D01*
X113157000Y-84399000D01*
X113157000Y-86201436D01*
X92074814Y-86232440D01*
X92077892Y-84401215D01*
X93386250Y-84399000D01*
X93545000Y-84240250D01*
X93545000Y-83216000D01*
X93799000Y-83216000D01*
X93799000Y-84240250D01*
X93957750Y-84399000D01*
X95772000Y-84402072D01*
X95896482Y-84389812D01*
X96016180Y-84353502D01*
X96126494Y-84294537D01*
X96223185Y-84215185D01*
X96302537Y-84118494D01*
X96361502Y-84008180D01*
X96397812Y-83888482D01*
X96410072Y-83764000D01*
X96407000Y-83374750D01*
X96248250Y-83216000D01*
X93799000Y-83216000D01*
X93545000Y-83216000D01*
X93525000Y-83216000D01*
X93525000Y-82962000D01*
X93545000Y-82962000D01*
X93545000Y-81937750D01*
X93799000Y-81937750D01*
X93799000Y-82962000D01*
X96248250Y-82962000D01*
X96407000Y-82803250D01*
X96410072Y-82414000D01*
X96397812Y-82289518D01*
X96361502Y-82169820D01*
X96302537Y-82059506D01*
X96223185Y-81962815D01*
X96126494Y-81883463D01*
X96016180Y-81824498D01*
X95896482Y-81788188D01*
X95772000Y-81775928D01*
X93957750Y-81779000D01*
X93799000Y-81937750D01*
X93545000Y-81937750D01*
X93386250Y-81779000D01*
X92082303Y-81776792D01*
X92087388Y-78751199D01*
X93386250Y-78749000D01*
X93545000Y-78590250D01*
X93545000Y-77566000D01*
X93799000Y-77566000D01*
X93799000Y-78590250D01*
X93957750Y-78749000D01*
X95772000Y-78752072D01*
X95896482Y-78739812D01*
X96016180Y-78703502D01*
X96126494Y-78644537D01*
X96223185Y-78565185D01*
X96302537Y-78468494D01*
X96361502Y-78358180D01*
X96397812Y-78238482D01*
X96410072Y-78114000D01*
X96407000Y-77724750D01*
X96248250Y-77566000D01*
X93799000Y-77566000D01*
X93545000Y-77566000D01*
X93525000Y-77566000D01*
X93525000Y-77312000D01*
X93545000Y-77312000D01*
X93545000Y-76287750D01*
X93799000Y-76287750D01*
X93799000Y-77312000D01*
X96248250Y-77312000D01*
X96407000Y-77153250D01*
X96410072Y-76764000D01*
X96397812Y-76639518D01*
X96361502Y-76519820D01*
X96302537Y-76409506D01*
X96223185Y-76312815D01*
X96126494Y-76233463D01*
X96016180Y-76174498D01*
X95896482Y-76138188D01*
X95772000Y-76125928D01*
X93957750Y-76129000D01*
X93799000Y-76287750D01*
X93545000Y-76287750D01*
X93386250Y-76129000D01*
X92091799Y-76126808D01*
X92097429Y-72776363D01*
X98841000Y-72776363D01*
X98841000Y-73019637D01*
X98888460Y-73258236D01*
X98981557Y-73482992D01*
X99116713Y-73685267D01*
X99288733Y-73857287D01*
X99491008Y-73992443D01*
X99715764Y-74085540D01*
X99954363Y-74133000D01*
X100197637Y-74133000D01*
X100436236Y-74085540D01*
X100660992Y-73992443D01*
X100863267Y-73857287D01*
X101035287Y-73685267D01*
X101170443Y-73482992D01*
X101263540Y-73258236D01*
X101311000Y-73019637D01*
X101311000Y-72776363D01*
X101263540Y-72537764D01*
X101170443Y-72313008D01*
X101035287Y-72110733D01*
X100863267Y-71938713D01*
X100660992Y-71803557D01*
X100436236Y-71710460D01*
X100197637Y-71663000D01*
X99954363Y-71663000D01*
X99715764Y-71710460D01*
X99491008Y-71803557D01*
X99288733Y-71938713D01*
X99116713Y-72110733D01*
X98981557Y-72313008D01*
X98888460Y-72537764D01*
X98841000Y-72776363D01*
X92097429Y-72776363D01*
X92099894Y-71309904D01*
X97473526Y-71302001D01*
X113157000Y-71389132D01*
G37*
%TD.AperFunction*%
%TD*%
M02*
