%TF.GenerationSoftware,KiCad,Pcbnew,(5.1.9)-1*%
%TF.CreationDate,2021-02-11T15:31:23-05:00*%
%TF.ProjectId,LNA2,4c4e4132-2e6b-4696-9361-645f70636258,rev?*%
%TF.SameCoordinates,Original*%
%TF.FileFunction,Copper,L1,Top*%
%TF.FilePolarity,Positive*%
%FSLAX46Y46*%
G04 Gerber Fmt 4.6, Leading zero omitted, Abs format (unit mm)*
G04 Created by KiCad (PCBNEW (5.1.9)-1) date 2021-02-11 15:31:23*
%MOMM*%
%LPD*%
G01*
G04 APERTURE LIST*
%TA.AperFunction,SMDPad,CuDef*%
%ADD10R,4.200000X1.750000*%
%TD*%
%TA.AperFunction,SMDPad,CuDef*%
%ADD11R,3.600000X1.270000*%
%TD*%
%TA.AperFunction,ComponentPad*%
%ADD12R,3.500000X3.500000*%
%TD*%
%TA.AperFunction,SMDPad,CuDef*%
%ADD13R,0.500000X0.250000*%
%TD*%
%TA.AperFunction,SMDPad,CuDef*%
%ADD14R,0.900000X1.600000*%
%TD*%
%TA.AperFunction,SMDPad,CuDef*%
%ADD15R,0.650000X1.060000*%
%TD*%
%TA.AperFunction,ViaPad*%
%ADD16C,0.800000*%
%TD*%
%TA.AperFunction,Conductor*%
%ADD17C,0.250000*%
%TD*%
%TA.AperFunction,Conductor*%
%ADD18C,1.000000*%
%TD*%
%TA.AperFunction,Conductor*%
%ADD19C,0.500000*%
%TD*%
%TA.AperFunction,Conductor*%
%ADD20C,0.254000*%
%TD*%
%TA.AperFunction,Conductor*%
%ADD21C,0.100000*%
%TD*%
%TA.AperFunction,Conductor*%
%ADD22C,0.507000*%
%TD*%
G04 APERTURE END LIST*
D10*
%TO.P,J1,3_1*%
%TO.N,GND*%
X92148000Y-83089000D03*
%TO.P,J1,2_1*%
X92148000Y-77439000D03*
D11*
%TO.P,J1,1*%
%TO.N,Net-(CC1-Pad2)*%
X91948000Y-80264000D03*
%TD*%
D10*
%TO.P,J2,3_1*%
%TO.N,GND*%
X114735000Y-77439000D03*
%TO.P,J2,2_1*%
X114735000Y-83089000D03*
D11*
%TO.P,J2,1*%
%TO.N,Net-(CC2-Pad1)*%
X114935000Y-80264000D03*
%TD*%
%TO.P,J3,3*%
%TO.N,N/C*%
%TA.AperFunction,ComponentPad*%
G36*
G01*
X92618860Y-47111720D02*
X94368860Y-47111720D01*
G75*
G02*
X95243860Y-47986720I0J-875000D01*
G01*
X95243860Y-49736720D01*
G75*
G02*
X94368860Y-50611720I-875000J0D01*
G01*
X92618860Y-50611720D01*
G75*
G02*
X91743860Y-49736720I0J875000D01*
G01*
X91743860Y-47986720D01*
G75*
G02*
X92618860Y-47111720I875000J0D01*
G01*
G37*
%TD.AperFunction*%
%TO.P,J3,2*%
%TO.N,GND*%
%TA.AperFunction,ComponentPad*%
G36*
G01*
X97193860Y-44361720D02*
X99193860Y-44361720D01*
G75*
G02*
X99943860Y-45111720I0J-750000D01*
G01*
X99943860Y-46611720D01*
G75*
G02*
X99193860Y-47361720I-750000J0D01*
G01*
X97193860Y-47361720D01*
G75*
G02*
X96443860Y-46611720I0J750000D01*
G01*
X96443860Y-45111720D01*
G75*
G02*
X97193860Y-44361720I750000J0D01*
G01*
G37*
%TD.AperFunction*%
D12*
%TO.P,J3,1*%
%TO.N,VCC*%
X98193860Y-51861720D03*
%TD*%
%TO.P,CC3,2*%
%TO.N,VCC*%
%TA.AperFunction,SMDPad,CuDef*%
G36*
G01*
X99362200Y-56021800D02*
X99362200Y-57871800D01*
G75*
G02*
X99112200Y-58121800I-250000J0D01*
G01*
X97537200Y-58121800D01*
G75*
G02*
X97287200Y-57871800I0J250000D01*
G01*
X97287200Y-56021800D01*
G75*
G02*
X97537200Y-55771800I250000J0D01*
G01*
X99112200Y-55771800D01*
G75*
G02*
X99362200Y-56021800I0J-250000D01*
G01*
G37*
%TD.AperFunction*%
%TO.P,CC3,1*%
%TO.N,GND*%
%TA.AperFunction,SMDPad,CuDef*%
G36*
G01*
X104287200Y-56021800D02*
X104287200Y-57871800D01*
G75*
G02*
X104037200Y-58121800I-250000J0D01*
G01*
X102462200Y-58121800D01*
G75*
G02*
X102212200Y-57871800I0J250000D01*
G01*
X102212200Y-56021800D01*
G75*
G02*
X102462200Y-55771800I250000J0D01*
G01*
X104037200Y-55771800D01*
G75*
G02*
X104287200Y-56021800I0J-250000D01*
G01*
G37*
%TD.AperFunction*%
%TD*%
%TO.P,CC1,1*%
%TO.N,Net-(CC1-Pad1)*%
%TA.AperFunction,SMDPad,CuDef*%
G36*
G01*
X98732000Y-79789000D02*
X98732000Y-80739000D01*
G75*
G02*
X98482000Y-80989000I-250000J0D01*
G01*
X97982000Y-80989000D01*
G75*
G02*
X97732000Y-80739000I0J250000D01*
G01*
X97732000Y-79789000D01*
G75*
G02*
X97982000Y-79539000I250000J0D01*
G01*
X98482000Y-79539000D01*
G75*
G02*
X98732000Y-79789000I0J-250000D01*
G01*
G37*
%TD.AperFunction*%
%TO.P,CC1,2*%
%TO.N,Net-(CC1-Pad2)*%
%TA.AperFunction,SMDPad,CuDef*%
G36*
G01*
X96832000Y-79789000D02*
X96832000Y-80739000D01*
G75*
G02*
X96582000Y-80989000I-250000J0D01*
G01*
X96082000Y-80989000D01*
G75*
G02*
X95832000Y-80739000I0J250000D01*
G01*
X95832000Y-79789000D01*
G75*
G02*
X96082000Y-79539000I250000J0D01*
G01*
X96582000Y-79539000D01*
G75*
G02*
X96832000Y-79789000I0J-250000D01*
G01*
G37*
%TD.AperFunction*%
%TD*%
%TO.P,CC2,2*%
%TO.N,Net-(CC2-Pad2)*%
%TA.AperFunction,SMDPad,CuDef*%
G36*
G01*
X109405000Y-79789000D02*
X109405000Y-80739000D01*
G75*
G02*
X109155000Y-80989000I-250000J0D01*
G01*
X108655000Y-80989000D01*
G75*
G02*
X108405000Y-80739000I0J250000D01*
G01*
X108405000Y-79789000D01*
G75*
G02*
X108655000Y-79539000I250000J0D01*
G01*
X109155000Y-79539000D01*
G75*
G02*
X109405000Y-79789000I0J-250000D01*
G01*
G37*
%TD.AperFunction*%
%TO.P,CC2,1*%
%TO.N,Net-(CC2-Pad1)*%
%TA.AperFunction,SMDPad,CuDef*%
G36*
G01*
X111305000Y-79789000D02*
X111305000Y-80739000D01*
G75*
G02*
X111055000Y-80989000I-250000J0D01*
G01*
X110555000Y-80989000D01*
G75*
G02*
X110305000Y-80739000I0J250000D01*
G01*
X110305000Y-79789000D01*
G75*
G02*
X110555000Y-79539000I250000J0D01*
G01*
X111055000Y-79539000D01*
G75*
G02*
X111305000Y-79789000I0J-250000D01*
G01*
G37*
%TD.AperFunction*%
%TD*%
%TO.P,CDC1,1*%
%TO.N,Net-(CDC1-Pad1)*%
%TA.AperFunction,SMDPad,CuDef*%
G36*
G01*
X99515000Y-76167000D02*
X99515000Y-75217000D01*
G75*
G02*
X99765000Y-74967000I250000J0D01*
G01*
X100265000Y-74967000D01*
G75*
G02*
X100515000Y-75217000I0J-250000D01*
G01*
X100515000Y-76167000D01*
G75*
G02*
X100265000Y-76417000I-250000J0D01*
G01*
X99765000Y-76417000D01*
G75*
G02*
X99515000Y-76167000I0J250000D01*
G01*
G37*
%TD.AperFunction*%
%TO.P,CDC1,2*%
%TO.N,GND*%
%TA.AperFunction,SMDPad,CuDef*%
G36*
G01*
X101415000Y-76167000D02*
X101415000Y-75217000D01*
G75*
G02*
X101665000Y-74967000I250000J0D01*
G01*
X102165000Y-74967000D01*
G75*
G02*
X102415000Y-75217000I0J-250000D01*
G01*
X102415000Y-76167000D01*
G75*
G02*
X102165000Y-76417000I-250000J0D01*
G01*
X101665000Y-76417000D01*
G75*
G02*
X101415000Y-76167000I0J250000D01*
G01*
G37*
%TD.AperFunction*%
%TD*%
%TO.P,CRF1,2*%
%TO.N,GND*%
%TA.AperFunction,SMDPad,CuDef*%
G36*
G01*
X104706000Y-75090000D02*
X104706000Y-76040000D01*
G75*
G02*
X104456000Y-76290000I-250000J0D01*
G01*
X103956000Y-76290000D01*
G75*
G02*
X103706000Y-76040000I0J250000D01*
G01*
X103706000Y-75090000D01*
G75*
G02*
X103956000Y-74840000I250000J0D01*
G01*
X104456000Y-74840000D01*
G75*
G02*
X104706000Y-75090000I0J-250000D01*
G01*
G37*
%TD.AperFunction*%
%TO.P,CRF1,1*%
%TO.N,Net-(CDC1-Pad1)*%
%TA.AperFunction,SMDPad,CuDef*%
G36*
G01*
X106606000Y-75090000D02*
X106606000Y-76040000D01*
G75*
G02*
X106356000Y-76290000I-250000J0D01*
G01*
X105856000Y-76290000D01*
G75*
G02*
X105606000Y-76040000I0J250000D01*
G01*
X105606000Y-75090000D01*
G75*
G02*
X105856000Y-74840000I250000J0D01*
G01*
X106356000Y-74840000D01*
G75*
G02*
X106606000Y-75090000I0J-250000D01*
G01*
G37*
%TD.AperFunction*%
%TD*%
%TO.P,CRF2,1*%
%TO.N,Net-(CDC1-Pad1)*%
%TA.AperFunction,SMDPad,CuDef*%
G36*
G01*
X106672000Y-72550000D02*
X106672000Y-73500000D01*
G75*
G02*
X106422000Y-73750000I-250000J0D01*
G01*
X105922000Y-73750000D01*
G75*
G02*
X105672000Y-73500000I0J250000D01*
G01*
X105672000Y-72550000D01*
G75*
G02*
X105922000Y-72300000I250000J0D01*
G01*
X106422000Y-72300000D01*
G75*
G02*
X106672000Y-72550000I0J-250000D01*
G01*
G37*
%TD.AperFunction*%
%TO.P,CRF2,2*%
%TO.N,GND*%
%TA.AperFunction,SMDPad,CuDef*%
G36*
G01*
X104772000Y-72550000D02*
X104772000Y-73500000D01*
G75*
G02*
X104522000Y-73750000I-250000J0D01*
G01*
X104022000Y-73750000D01*
G75*
G02*
X103772000Y-73500000I0J250000D01*
G01*
X103772000Y-72550000D01*
G75*
G02*
X104022000Y-72300000I250000J0D01*
G01*
X104522000Y-72300000D01*
G75*
G02*
X104772000Y-72550000I0J-250000D01*
G01*
G37*
%TD.AperFunction*%
%TD*%
%TO.P,LRF1,1*%
%TO.N,Net-(CDC1-Pad1)*%
%TA.AperFunction,SMDPad,CuDef*%
G36*
G01*
X105790750Y-77701500D02*
X106553250Y-77701500D01*
G75*
G02*
X106772000Y-77920250I0J-218750D01*
G01*
X106772000Y-78357750D01*
G75*
G02*
X106553250Y-78576500I-218750J0D01*
G01*
X105790750Y-78576500D01*
G75*
G02*
X105572000Y-78357750I0J218750D01*
G01*
X105572000Y-77920250D01*
G75*
G02*
X105790750Y-77701500I218750J0D01*
G01*
G37*
%TD.AperFunction*%
%TO.P,LRF1,2*%
%TO.N,Net-(CC2-Pad2)*%
%TA.AperFunction,SMDPad,CuDef*%
G36*
G01*
X105790750Y-79826500D02*
X106553250Y-79826500D01*
G75*
G02*
X106772000Y-80045250I0J-218750D01*
G01*
X106772000Y-80482750D01*
G75*
G02*
X106553250Y-80701500I-218750J0D01*
G01*
X105790750Y-80701500D01*
G75*
G02*
X105572000Y-80482750I0J218750D01*
G01*
X105572000Y-80045250D01*
G75*
G02*
X105790750Y-79826500I218750J0D01*
G01*
G37*
%TD.AperFunction*%
%TD*%
D13*
%TO.P,U1,3*%
%TO.N,Net-(U1-Pad3)*%
X101234200Y-80768000D03*
%TO.P,U1,7*%
%TO.N,Net-(CC2-Pad2)*%
X103134200Y-80268000D03*
%TO.P,U1,8*%
%TO.N,Net-(U1-Pad8)*%
X103134200Y-79768000D03*
D14*
%TO.P,U1,9*%
%TO.N,GND*%
X102184200Y-80518000D03*
D13*
%TO.P,U1,1*%
%TO.N,Net-(CDC1-Pad1)*%
X101234200Y-79768000D03*
%TO.P,U1,2*%
%TO.N,Net-(CC1-Pad1)*%
X101234200Y-80268000D03*
%TO.P,U1,4*%
%TO.N,Net-(U1-Pad4)*%
X101234200Y-81268000D03*
%TO.P,U1,5*%
%TO.N,GND*%
X103134200Y-81268000D03*
%TO.P,U1,6*%
%TO.N,Net-(U1-Pad6)*%
X103134200Y-80768000D03*
%TD*%
%TO.P,Cin1,2*%
%TO.N,VCC*%
%TA.AperFunction,SMDPad,CuDef*%
G36*
G01*
X98673500Y-60231000D02*
X98673500Y-61181000D01*
G75*
G02*
X98423500Y-61431000I-250000J0D01*
G01*
X97923500Y-61431000D01*
G75*
G02*
X97673500Y-61181000I0J250000D01*
G01*
X97673500Y-60231000D01*
G75*
G02*
X97923500Y-59981000I250000J0D01*
G01*
X98423500Y-59981000D01*
G75*
G02*
X98673500Y-60231000I0J-250000D01*
G01*
G37*
%TD.AperFunction*%
%TO.P,Cin1,1*%
%TO.N,GND*%
%TA.AperFunction,SMDPad,CuDef*%
G36*
G01*
X100573500Y-60231000D02*
X100573500Y-61181000D01*
G75*
G02*
X100323500Y-61431000I-250000J0D01*
G01*
X99823500Y-61431000D01*
G75*
G02*
X99573500Y-61181000I0J250000D01*
G01*
X99573500Y-60231000D01*
G75*
G02*
X99823500Y-59981000I250000J0D01*
G01*
X100323500Y-59981000D01*
G75*
G02*
X100573500Y-60231000I0J-250000D01*
G01*
G37*
%TD.AperFunction*%
%TD*%
%TO.P,Co1,1*%
%TO.N,GND*%
%TA.AperFunction,SMDPad,CuDef*%
G36*
G01*
X102415000Y-68486000D02*
X102415000Y-69436000D01*
G75*
G02*
X102165000Y-69686000I-250000J0D01*
G01*
X101665000Y-69686000D01*
G75*
G02*
X101415000Y-69436000I0J250000D01*
G01*
X101415000Y-68486000D01*
G75*
G02*
X101665000Y-68236000I250000J0D01*
G01*
X102165000Y-68236000D01*
G75*
G02*
X102415000Y-68486000I0J-250000D01*
G01*
G37*
%TD.AperFunction*%
%TO.P,Co1,2*%
%TO.N,Net-(CDC1-Pad1)*%
%TA.AperFunction,SMDPad,CuDef*%
G36*
G01*
X100515000Y-68486000D02*
X100515000Y-69436000D01*
G75*
G02*
X100265000Y-69686000I-250000J0D01*
G01*
X99765000Y-69686000D01*
G75*
G02*
X99515000Y-69436000I0J250000D01*
G01*
X99515000Y-68486000D01*
G75*
G02*
X99765000Y-68236000I250000J0D01*
G01*
X100265000Y-68236000D01*
G75*
G02*
X100515000Y-68486000I0J-250000D01*
G01*
G37*
%TD.AperFunction*%
%TD*%
D15*
%TO.P,U2,1*%
%TO.N,VCC*%
X100010000Y-63670000D03*
%TO.P,U2,2*%
%TO.N,GND*%
X99060000Y-63670000D03*
%TO.P,U2,3*%
%TO.N,VCC*%
X98110000Y-63670000D03*
%TO.P,U2,4*%
%TO.N,Net-(U2-Pad4)*%
X98110000Y-65870000D03*
%TO.P,U2,5*%
%TO.N,Net-(CDC1-Pad1)*%
X100010000Y-65870000D03*
%TD*%
D16*
%TO.N,GND*%
X101600000Y-78486000D03*
X102870000Y-78486000D03*
X104140000Y-78486000D03*
X102108000Y-77470000D03*
X102616000Y-74041000D03*
X91856550Y-60178500D03*
X91856550Y-64178500D03*
X91856550Y-68178500D03*
X91856550Y-72178500D03*
X92856550Y-86178500D03*
X93856550Y-58178500D03*
X93856550Y-62178500D03*
X93856550Y-66178500D03*
X93856550Y-70178500D03*
X93856550Y-74178500D03*
X94856550Y-88178500D03*
X95856550Y-60178500D03*
X95856550Y-64178500D03*
X95856550Y-68178500D03*
X95856550Y-72178500D03*
X95856550Y-76178500D03*
X95856550Y-82178500D03*
X96856550Y-85178500D03*
X97856550Y-70178500D03*
X97856550Y-74178500D03*
X97856550Y-78178500D03*
X98856550Y-83178500D03*
X98856550Y-87178500D03*
X100856550Y-85178500D03*
X101856550Y-59178500D03*
X101856550Y-63178500D03*
X101856550Y-67178500D03*
X101856550Y-72178500D03*
X101856550Y-88178500D03*
X102856550Y-83178500D03*
X103856550Y-46178500D03*
X103856550Y-50178500D03*
X103856550Y-54178500D03*
X103856550Y-61178500D03*
X103856550Y-65178500D03*
X103856550Y-69178500D03*
X103856550Y-86178500D03*
X105856550Y-44178500D03*
X105856550Y-48178500D03*
X105856550Y-52178500D03*
X105856550Y-56178500D03*
X105856550Y-63178500D03*
X105856550Y-67178500D03*
X105856550Y-82178500D03*
X106856550Y-59178500D03*
X106856550Y-70178500D03*
X106856550Y-85178500D03*
X107856550Y-46178500D03*
X107856550Y-50178500D03*
X107856550Y-54178500D03*
X107856550Y-65178500D03*
X107856550Y-73178500D03*
X107856550Y-77178500D03*
X108856550Y-57178500D03*
X108856550Y-61178500D03*
X108856550Y-68178500D03*
X108856550Y-83178500D03*
X108856550Y-87178500D03*
X109856550Y-44178500D03*
X109856550Y-48178500D03*
X109856550Y-52178500D03*
X109856550Y-71178500D03*
X109856550Y-75178500D03*
X110856550Y-55178500D03*
X110856550Y-59178500D03*
X110856550Y-63178500D03*
X110856550Y-78178500D03*
X110856550Y-85178500D03*
X111856550Y-46178500D03*
X111856550Y-50178500D03*
X111856550Y-66178500D03*
X111856550Y-73178500D03*
X112856550Y-53178500D03*
X112856550Y-57178500D03*
X112856550Y-61178500D03*
X112856550Y-69178500D03*
X112856550Y-87178500D03*
X113856550Y-44178500D03*
X113856550Y-48178500D03*
X113856550Y-64178500D03*
X114856550Y-51178500D03*
X114856550Y-55178500D03*
X114856550Y-59178500D03*
X114856550Y-67178500D03*
X114856550Y-71178500D03*
%TD*%
D17*
%TO.N,Net-(CC1-Pad1)*%
X99060000Y-80264000D02*
X101346000Y-80264000D01*
D18*
X99060000Y-80264000D02*
X98298000Y-80264000D01*
%TO.N,Net-(CC1-Pad2)*%
X96332000Y-80264000D02*
X90932000Y-80264000D01*
D17*
%TO.N,Net-(CC2-Pad2)*%
X103124000Y-80264000D02*
X105624000Y-80264000D01*
X105624000Y-80264000D02*
X105640000Y-80280000D01*
D19*
X107950000Y-80264000D02*
X108966000Y-80264000D01*
X106172000Y-80264000D02*
X107950000Y-80264000D01*
D17*
X107950000Y-80264000D02*
X108204000Y-80264000D01*
D18*
%TO.N,Net-(CC2-Pad1)*%
X110805000Y-80264000D02*
X115824000Y-80264000D01*
D19*
%TO.N,VCC*%
X98172000Y-52276000D02*
X98172000Y-63626000D01*
D17*
X98172000Y-63626000D02*
X98044000Y-63754000D01*
X98110000Y-64450000D02*
X98430000Y-64770000D01*
X98110000Y-63670000D02*
X98110000Y-64450000D01*
X98430000Y-64770000D02*
X99568000Y-64770000D01*
X99568000Y-64770000D02*
X100076000Y-64262000D01*
X100076000Y-64262000D02*
X100076000Y-63500000D01*
%TO.N,GND*%
X102174000Y-80514000D02*
X102174000Y-80774002D01*
X102174000Y-81014000D02*
X102440000Y-81280000D01*
X102440000Y-81280000D02*
X103124000Y-81280000D01*
X103124000Y-81264000D02*
X103124000Y-81280000D01*
X99060000Y-63670000D02*
X99060000Y-62738000D01*
D19*
X99060000Y-62484000D02*
X99314000Y-62230000D01*
X99060000Y-62738000D02*
X99060000Y-62484000D01*
D17*
X104140000Y-75565000D02*
X102616000Y-74041000D01*
X104206000Y-75565000D02*
X104140000Y-75565000D01*
D19*
%TO.N,Net-(CDC1-Pad1)*%
X100076000Y-75692000D02*
X100076000Y-78740000D01*
X105918000Y-75946000D02*
X106172000Y-76200000D01*
X106172000Y-76200000D02*
X106172000Y-78232000D01*
X100076000Y-72898000D02*
X100076000Y-75692000D01*
X106172000Y-73660000D02*
X106172000Y-76200000D01*
D17*
X100076000Y-78740000D02*
X100076000Y-78994000D01*
X100076000Y-78994000D02*
X100838000Y-79756000D01*
X100838000Y-79756000D02*
X101346000Y-79756000D01*
D19*
X100010000Y-65870000D02*
X100010000Y-69022000D01*
X100010000Y-69022000D02*
X100076000Y-69088000D01*
X100076000Y-69088000D02*
X100076000Y-70866000D01*
X100076000Y-70866000D02*
X100076000Y-72898000D01*
X104623923Y-70866000D02*
X100076000Y-70866000D01*
X106172000Y-72414077D02*
X104623923Y-70866000D01*
X106172000Y-73025000D02*
X106172000Y-72414077D01*
%TD*%
D20*
%TO.N,GND*%
X102501042Y-79035605D02*
X102490971Y-79686572D01*
X101858579Y-79679394D01*
X101840597Y-79028427D01*
X102501042Y-79035605D01*
%TA.AperFunction,Conductor*%
D21*
G36*
X102501042Y-79035605D02*
G01*
X102490971Y-79686572D01*
X101858579Y-79679394D01*
X101840597Y-79028427D01*
X102501042Y-79035605D01*
G37*
%TD.AperFunction*%
%TD*%
D22*
%TO.N,GND*%
X102299000Y-81380290D02*
X102299000Y-82106000D01*
X102107500Y-82106000D01*
X102107500Y-81833865D01*
X102120427Y-81818113D01*
X102191138Y-81685823D01*
X102234681Y-81542280D01*
X102249384Y-81393000D01*
X102249384Y-81319832D01*
X102299000Y-81380290D01*
%TA.AperFunction,Conductor*%
D21*
G36*
X102299000Y-81380290D02*
G01*
X102299000Y-82106000D01*
X102107500Y-82106000D01*
X102107500Y-81833865D01*
X102120427Y-81818113D01*
X102191138Y-81685823D01*
X102234681Y-81542280D01*
X102249384Y-81393000D01*
X102249384Y-81319832D01*
X102299000Y-81380290D01*
G37*
%TD.AperFunction*%
%TD*%
D22*
%TO.N,GND*%
X100219016Y-81393000D02*
X100233719Y-81542280D01*
X100277262Y-81685823D01*
X100347973Y-81818113D01*
X100443133Y-81934067D01*
X100559087Y-82029227D01*
X100691377Y-82099938D01*
X100834920Y-82143481D01*
X100984200Y-82158184D01*
X101484200Y-82158184D01*
X101633480Y-82143481D01*
X101777023Y-82099938D01*
X101810393Y-82082101D01*
X101993325Y-82079500D01*
X102183700Y-81889125D01*
X102183700Y-81699738D01*
X102184669Y-81697925D01*
X102184700Y-81698010D01*
X102184700Y-81889125D01*
X102375075Y-82079500D01*
X102560195Y-82082133D01*
X102628356Y-82114146D01*
X102773960Y-82150202D01*
X102923801Y-82157160D01*
X102943825Y-82154500D01*
X103134200Y-81964125D01*
X103324575Y-82154500D01*
X103344599Y-82157160D01*
X103494440Y-82150202D01*
X103640044Y-82114146D01*
X103775817Y-82050377D01*
X103896540Y-81961345D01*
X103997574Y-81850472D01*
X104075037Y-81722018D01*
X104125951Y-81580920D01*
X104145700Y-81458375D01*
X104013671Y-81326346D01*
X104020427Y-81318113D01*
X104091138Y-81185823D01*
X104101853Y-81150500D01*
X105072028Y-81150500D01*
X105095004Y-81178496D01*
X105244106Y-81300861D01*
X105414215Y-81391786D01*
X105598794Y-81447778D01*
X105790750Y-81466684D01*
X106553250Y-81466684D01*
X106745206Y-81447778D01*
X106929785Y-81391786D01*
X107099894Y-81300861D01*
X107130796Y-81275500D01*
X107796203Y-81275500D01*
X107810905Y-81303006D01*
X107937157Y-81456843D01*
X108090994Y-81583095D01*
X108266506Y-81676908D01*
X108456947Y-81734678D01*
X108655000Y-81754184D01*
X109155000Y-81754184D01*
X109353053Y-81734678D01*
X109543494Y-81676908D01*
X109719006Y-81583095D01*
X109855000Y-81471487D01*
X109990994Y-81583095D01*
X110166506Y-81676908D01*
X110356947Y-81734678D01*
X110555000Y-81754184D01*
X111055000Y-81754184D01*
X111253053Y-81734678D01*
X111443494Y-81676908D01*
X111619006Y-81583095D01*
X111689185Y-81525500D01*
X112307679Y-81525500D01*
X112209886Y-81577772D01*
X112093932Y-81672932D01*
X111998772Y-81788886D01*
X111928061Y-81921176D01*
X111884518Y-82064720D01*
X111869815Y-82214000D01*
X111873500Y-82898125D01*
X112063875Y-83088500D01*
X114734500Y-83088500D01*
X114734500Y-83068500D01*
X114735500Y-83068500D01*
X114735500Y-83088500D01*
X114755500Y-83088500D01*
X114755500Y-83089500D01*
X114735500Y-83089500D01*
X114735500Y-84535125D01*
X114925875Y-84725500D01*
X116642329Y-84728813D01*
X116686934Y-89130419D01*
X91018583Y-89255759D01*
X90975397Y-84727395D01*
X91957125Y-84725500D01*
X92147500Y-84535125D01*
X92147500Y-83089500D01*
X92148500Y-83089500D01*
X92148500Y-84535125D01*
X92338875Y-84725500D01*
X94248000Y-84729185D01*
X94397280Y-84714482D01*
X94540824Y-84670939D01*
X94673114Y-84600228D01*
X94789068Y-84505068D01*
X94884228Y-84389114D01*
X94954939Y-84256824D01*
X94998482Y-84113280D01*
X95013185Y-83964000D01*
X111869815Y-83964000D01*
X111884518Y-84113280D01*
X111928061Y-84256824D01*
X111998772Y-84389114D01*
X112093932Y-84505068D01*
X112209886Y-84600228D01*
X112342176Y-84670939D01*
X112485720Y-84714482D01*
X112635000Y-84729185D01*
X114544125Y-84725500D01*
X114734500Y-84535125D01*
X114734500Y-83089500D01*
X112063875Y-83089500D01*
X111873500Y-83279875D01*
X111869815Y-83964000D01*
X95013185Y-83964000D01*
X95009500Y-83279875D01*
X94819125Y-83089500D01*
X92148500Y-83089500D01*
X92147500Y-83089500D01*
X92127500Y-83089500D01*
X92127500Y-83088500D01*
X92147500Y-83088500D01*
X92147500Y-83068500D01*
X92148500Y-83068500D01*
X92148500Y-83088500D01*
X94819125Y-83088500D01*
X95009500Y-82898125D01*
X95013185Y-82214000D01*
X94998482Y-82064720D01*
X94954939Y-81921176D01*
X94884228Y-81788886D01*
X94789068Y-81672932D01*
X94673114Y-81577772D01*
X94575321Y-81525500D01*
X95447815Y-81525500D01*
X95517994Y-81583095D01*
X95693506Y-81676908D01*
X95883947Y-81734678D01*
X96082000Y-81754184D01*
X96582000Y-81754184D01*
X96780053Y-81734678D01*
X96970494Y-81676908D01*
X97146006Y-81583095D01*
X97282000Y-81471487D01*
X97417994Y-81583095D01*
X97593506Y-81676908D01*
X97783947Y-81734678D01*
X97982000Y-81754184D01*
X98482000Y-81754184D01*
X98680053Y-81734678D01*
X98870494Y-81676908D01*
X99046006Y-81583095D01*
X99116185Y-81525500D01*
X99121964Y-81525500D01*
X99307297Y-81507246D01*
X99545091Y-81435112D01*
X99764242Y-81317973D01*
X99956331Y-81160331D01*
X99964399Y-81150500D01*
X100219016Y-81150500D01*
X100219016Y-81393000D01*
%TA.AperFunction,Conductor*%
D21*
G36*
X100219016Y-81393000D02*
G01*
X100233719Y-81542280D01*
X100277262Y-81685823D01*
X100347973Y-81818113D01*
X100443133Y-81934067D01*
X100559087Y-82029227D01*
X100691377Y-82099938D01*
X100834920Y-82143481D01*
X100984200Y-82158184D01*
X101484200Y-82158184D01*
X101633480Y-82143481D01*
X101777023Y-82099938D01*
X101810393Y-82082101D01*
X101993325Y-82079500D01*
X102183700Y-81889125D01*
X102183700Y-81699738D01*
X102184669Y-81697925D01*
X102184700Y-81698010D01*
X102184700Y-81889125D01*
X102375075Y-82079500D01*
X102560195Y-82082133D01*
X102628356Y-82114146D01*
X102773960Y-82150202D01*
X102923801Y-82157160D01*
X102943825Y-82154500D01*
X103134200Y-81964125D01*
X103324575Y-82154500D01*
X103344599Y-82157160D01*
X103494440Y-82150202D01*
X103640044Y-82114146D01*
X103775817Y-82050377D01*
X103896540Y-81961345D01*
X103997574Y-81850472D01*
X104075037Y-81722018D01*
X104125951Y-81580920D01*
X104145700Y-81458375D01*
X104013671Y-81326346D01*
X104020427Y-81318113D01*
X104091138Y-81185823D01*
X104101853Y-81150500D01*
X105072028Y-81150500D01*
X105095004Y-81178496D01*
X105244106Y-81300861D01*
X105414215Y-81391786D01*
X105598794Y-81447778D01*
X105790750Y-81466684D01*
X106553250Y-81466684D01*
X106745206Y-81447778D01*
X106929785Y-81391786D01*
X107099894Y-81300861D01*
X107130796Y-81275500D01*
X107796203Y-81275500D01*
X107810905Y-81303006D01*
X107937157Y-81456843D01*
X108090994Y-81583095D01*
X108266506Y-81676908D01*
X108456947Y-81734678D01*
X108655000Y-81754184D01*
X109155000Y-81754184D01*
X109353053Y-81734678D01*
X109543494Y-81676908D01*
X109719006Y-81583095D01*
X109855000Y-81471487D01*
X109990994Y-81583095D01*
X110166506Y-81676908D01*
X110356947Y-81734678D01*
X110555000Y-81754184D01*
X111055000Y-81754184D01*
X111253053Y-81734678D01*
X111443494Y-81676908D01*
X111619006Y-81583095D01*
X111689185Y-81525500D01*
X112307679Y-81525500D01*
X112209886Y-81577772D01*
X112093932Y-81672932D01*
X111998772Y-81788886D01*
X111928061Y-81921176D01*
X111884518Y-82064720D01*
X111869815Y-82214000D01*
X111873500Y-82898125D01*
X112063875Y-83088500D01*
X114734500Y-83088500D01*
X114734500Y-83068500D01*
X114735500Y-83068500D01*
X114735500Y-83088500D01*
X114755500Y-83088500D01*
X114755500Y-83089500D01*
X114735500Y-83089500D01*
X114735500Y-84535125D01*
X114925875Y-84725500D01*
X116642329Y-84728813D01*
X116686934Y-89130419D01*
X91018583Y-89255759D01*
X90975397Y-84727395D01*
X91957125Y-84725500D01*
X92147500Y-84535125D01*
X92147500Y-83089500D01*
X92148500Y-83089500D01*
X92148500Y-84535125D01*
X92338875Y-84725500D01*
X94248000Y-84729185D01*
X94397280Y-84714482D01*
X94540824Y-84670939D01*
X94673114Y-84600228D01*
X94789068Y-84505068D01*
X94884228Y-84389114D01*
X94954939Y-84256824D01*
X94998482Y-84113280D01*
X95013185Y-83964000D01*
X111869815Y-83964000D01*
X111884518Y-84113280D01*
X111928061Y-84256824D01*
X111998772Y-84389114D01*
X112093932Y-84505068D01*
X112209886Y-84600228D01*
X112342176Y-84670939D01*
X112485720Y-84714482D01*
X112635000Y-84729185D01*
X114544125Y-84725500D01*
X114734500Y-84535125D01*
X114734500Y-83089500D01*
X112063875Y-83089500D01*
X111873500Y-83279875D01*
X111869815Y-83964000D01*
X95013185Y-83964000D01*
X95009500Y-83279875D01*
X94819125Y-83089500D01*
X92148500Y-83089500D01*
X92147500Y-83089500D01*
X92127500Y-83089500D01*
X92127500Y-83088500D01*
X92147500Y-83088500D01*
X92147500Y-83068500D01*
X92148500Y-83068500D01*
X92148500Y-83088500D01*
X94819125Y-83088500D01*
X95009500Y-82898125D01*
X95013185Y-82214000D01*
X94998482Y-82064720D01*
X94954939Y-81921176D01*
X94884228Y-81788886D01*
X94789068Y-81672932D01*
X94673114Y-81577772D01*
X94575321Y-81525500D01*
X95447815Y-81525500D01*
X95517994Y-81583095D01*
X95693506Y-81676908D01*
X95883947Y-81734678D01*
X96082000Y-81754184D01*
X96582000Y-81754184D01*
X96780053Y-81734678D01*
X96970494Y-81676908D01*
X97146006Y-81583095D01*
X97282000Y-81471487D01*
X97417994Y-81583095D01*
X97593506Y-81676908D01*
X97783947Y-81734678D01*
X97982000Y-81754184D01*
X98482000Y-81754184D01*
X98680053Y-81734678D01*
X98870494Y-81676908D01*
X99046006Y-81583095D01*
X99116185Y-81525500D01*
X99121964Y-81525500D01*
X99307297Y-81507246D01*
X99545091Y-81435112D01*
X99764242Y-81317973D01*
X99956331Y-81160331D01*
X99964399Y-81150500D01*
X100219016Y-81150500D01*
X100219016Y-81393000D01*
G37*
%TD.AperFunction*%
D22*
X103065061Y-72007176D02*
X103021518Y-72150720D01*
X103006815Y-72300000D01*
X103010500Y-72834125D01*
X103200875Y-73024500D01*
X104271500Y-73024500D01*
X104271500Y-73004500D01*
X104272500Y-73004500D01*
X104272500Y-73024500D01*
X104292500Y-73024500D01*
X104292500Y-73025500D01*
X104272500Y-73025500D01*
X104272500Y-73045500D01*
X104271500Y-73045500D01*
X104271500Y-73025500D01*
X103200875Y-73025500D01*
X103010500Y-73215875D01*
X103006815Y-73750000D01*
X103021518Y-73899280D01*
X103065061Y-74042824D01*
X103135772Y-74175114D01*
X103208227Y-74263401D01*
X103164932Y-74298932D01*
X103069772Y-74414886D01*
X103021349Y-74505478D01*
X102956068Y-74425932D01*
X102840114Y-74330772D01*
X102707824Y-74260061D01*
X102564280Y-74216518D01*
X102415000Y-74201815D01*
X102105875Y-74205500D01*
X101915500Y-74395875D01*
X101915500Y-75691500D01*
X101935500Y-75691500D01*
X101935500Y-75692500D01*
X101915500Y-75692500D01*
X101915500Y-76988125D01*
X102105875Y-77178500D01*
X102415000Y-77182185D01*
X102564280Y-77167482D01*
X102707824Y-77123939D01*
X102840114Y-77053228D01*
X102956068Y-76958068D01*
X103051228Y-76842114D01*
X103099651Y-76751522D01*
X103164932Y-76831068D01*
X103280886Y-76926228D01*
X103413176Y-76996939D01*
X103556720Y-77040482D01*
X103706000Y-77055185D01*
X104015125Y-77051500D01*
X104205500Y-76861125D01*
X104205500Y-75565500D01*
X104185500Y-75565500D01*
X104185500Y-75564500D01*
X104205500Y-75564500D01*
X104205500Y-75544500D01*
X104206500Y-75544500D01*
X104206500Y-75564500D01*
X104226500Y-75564500D01*
X104226500Y-75565500D01*
X104206500Y-75565500D01*
X104206500Y-76861125D01*
X104396875Y-77051500D01*
X104706000Y-77055185D01*
X104855280Y-77040482D01*
X104998824Y-76996939D01*
X105131114Y-76926228D01*
X105160500Y-76902111D01*
X105160500Y-77170752D01*
X105095004Y-77224504D01*
X104972639Y-77373606D01*
X104881714Y-77543715D01*
X104825722Y-77728294D01*
X104806816Y-77920250D01*
X104806816Y-78357750D01*
X104825722Y-78549706D01*
X104881714Y-78734285D01*
X104972639Y-78904394D01*
X105095004Y-79053496D01*
X105244106Y-79175861D01*
X105292073Y-79201500D01*
X105244106Y-79227139D01*
X105095004Y-79349504D01*
X105072028Y-79377500D01*
X104099426Y-79377500D01*
X104091138Y-79350177D01*
X104020427Y-79217887D01*
X103925267Y-79101933D01*
X103809313Y-79006773D01*
X103677023Y-78936062D01*
X103533480Y-78892519D01*
X103384200Y-78877816D01*
X102884200Y-78877816D01*
X102734920Y-78892519D01*
X102591377Y-78936062D01*
X102558007Y-78953899D01*
X102375075Y-78956500D01*
X102184700Y-79146875D01*
X102184700Y-79336262D01*
X102184200Y-79337197D01*
X102183700Y-79336262D01*
X102183700Y-79146875D01*
X101993325Y-78956500D01*
X101810393Y-78953899D01*
X101777023Y-78936062D01*
X101633480Y-78892519D01*
X101484200Y-78877816D01*
X101473983Y-78877816D01*
X101389548Y-78869500D01*
X101205200Y-78869500D01*
X101087500Y-78751800D01*
X101087500Y-77105404D01*
X101122176Y-77123939D01*
X101265720Y-77167482D01*
X101415000Y-77182185D01*
X101724125Y-77178500D01*
X101914500Y-76988125D01*
X101914500Y-75692500D01*
X101894500Y-75692500D01*
X101894500Y-75691500D01*
X101914500Y-75691500D01*
X101914500Y-74395875D01*
X101724125Y-74205500D01*
X101415000Y-74201815D01*
X101265720Y-74216518D01*
X101122176Y-74260061D01*
X101087500Y-74278596D01*
X101087500Y-71877500D01*
X103134375Y-71877500D01*
X103065061Y-72007176D01*
%TA.AperFunction,Conductor*%
D21*
G36*
X103065061Y-72007176D02*
G01*
X103021518Y-72150720D01*
X103006815Y-72300000D01*
X103010500Y-72834125D01*
X103200875Y-73024500D01*
X104271500Y-73024500D01*
X104271500Y-73004500D01*
X104272500Y-73004500D01*
X104272500Y-73024500D01*
X104292500Y-73024500D01*
X104292500Y-73025500D01*
X104272500Y-73025500D01*
X104272500Y-73045500D01*
X104271500Y-73045500D01*
X104271500Y-73025500D01*
X103200875Y-73025500D01*
X103010500Y-73215875D01*
X103006815Y-73750000D01*
X103021518Y-73899280D01*
X103065061Y-74042824D01*
X103135772Y-74175114D01*
X103208227Y-74263401D01*
X103164932Y-74298932D01*
X103069772Y-74414886D01*
X103021349Y-74505478D01*
X102956068Y-74425932D01*
X102840114Y-74330772D01*
X102707824Y-74260061D01*
X102564280Y-74216518D01*
X102415000Y-74201815D01*
X102105875Y-74205500D01*
X101915500Y-74395875D01*
X101915500Y-75691500D01*
X101935500Y-75691500D01*
X101935500Y-75692500D01*
X101915500Y-75692500D01*
X101915500Y-76988125D01*
X102105875Y-77178500D01*
X102415000Y-77182185D01*
X102564280Y-77167482D01*
X102707824Y-77123939D01*
X102840114Y-77053228D01*
X102956068Y-76958068D01*
X103051228Y-76842114D01*
X103099651Y-76751522D01*
X103164932Y-76831068D01*
X103280886Y-76926228D01*
X103413176Y-76996939D01*
X103556720Y-77040482D01*
X103706000Y-77055185D01*
X104015125Y-77051500D01*
X104205500Y-76861125D01*
X104205500Y-75565500D01*
X104185500Y-75565500D01*
X104185500Y-75564500D01*
X104205500Y-75564500D01*
X104205500Y-75544500D01*
X104206500Y-75544500D01*
X104206500Y-75564500D01*
X104226500Y-75564500D01*
X104226500Y-75565500D01*
X104206500Y-75565500D01*
X104206500Y-76861125D01*
X104396875Y-77051500D01*
X104706000Y-77055185D01*
X104855280Y-77040482D01*
X104998824Y-76996939D01*
X105131114Y-76926228D01*
X105160500Y-76902111D01*
X105160500Y-77170752D01*
X105095004Y-77224504D01*
X104972639Y-77373606D01*
X104881714Y-77543715D01*
X104825722Y-77728294D01*
X104806816Y-77920250D01*
X104806816Y-78357750D01*
X104825722Y-78549706D01*
X104881714Y-78734285D01*
X104972639Y-78904394D01*
X105095004Y-79053496D01*
X105244106Y-79175861D01*
X105292073Y-79201500D01*
X105244106Y-79227139D01*
X105095004Y-79349504D01*
X105072028Y-79377500D01*
X104099426Y-79377500D01*
X104091138Y-79350177D01*
X104020427Y-79217887D01*
X103925267Y-79101933D01*
X103809313Y-79006773D01*
X103677023Y-78936062D01*
X103533480Y-78892519D01*
X103384200Y-78877816D01*
X102884200Y-78877816D01*
X102734920Y-78892519D01*
X102591377Y-78936062D01*
X102558007Y-78953899D01*
X102375075Y-78956500D01*
X102184700Y-79146875D01*
X102184700Y-79336262D01*
X102184200Y-79337197D01*
X102183700Y-79336262D01*
X102183700Y-79146875D01*
X101993325Y-78956500D01*
X101810393Y-78953899D01*
X101777023Y-78936062D01*
X101633480Y-78892519D01*
X101484200Y-78877816D01*
X101473983Y-78877816D01*
X101389548Y-78869500D01*
X101205200Y-78869500D01*
X101087500Y-78751800D01*
X101087500Y-77105404D01*
X101122176Y-77123939D01*
X101265720Y-77167482D01*
X101415000Y-77182185D01*
X101724125Y-77178500D01*
X101914500Y-76988125D01*
X101914500Y-75692500D01*
X101894500Y-75692500D01*
X101894500Y-75691500D01*
X101914500Y-75691500D01*
X101914500Y-74395875D01*
X101724125Y-74205500D01*
X101415000Y-74201815D01*
X101265720Y-74216518D01*
X101122176Y-74260061D01*
X101087500Y-74278596D01*
X101087500Y-71877500D01*
X103134375Y-71877500D01*
X103065061Y-72007176D01*
G37*
%TD.AperFunction*%
D22*
X116551839Y-75799362D02*
X114925875Y-75802500D01*
X114735500Y-75992875D01*
X114735500Y-77438500D01*
X114755500Y-77438500D01*
X114755500Y-77439500D01*
X114735500Y-77439500D01*
X114735500Y-77459500D01*
X114734500Y-77459500D01*
X114734500Y-77439500D01*
X112063875Y-77439500D01*
X111873500Y-77629875D01*
X111869815Y-78314000D01*
X111884518Y-78463280D01*
X111928061Y-78606824D01*
X111998772Y-78739114D01*
X112093932Y-78855068D01*
X112209886Y-78950228D01*
X112307679Y-79002500D01*
X111689185Y-79002500D01*
X111619006Y-78944905D01*
X111443494Y-78851092D01*
X111253053Y-78793322D01*
X111055000Y-78773816D01*
X110555000Y-78773816D01*
X110356947Y-78793322D01*
X110166506Y-78851092D01*
X109990994Y-78944905D01*
X109855000Y-79056513D01*
X109719006Y-78944905D01*
X109543494Y-78851092D01*
X109353053Y-78793322D01*
X109155000Y-78773816D01*
X108655000Y-78773816D01*
X108456947Y-78793322D01*
X108266506Y-78851092D01*
X108090994Y-78944905D01*
X107937157Y-79071157D01*
X107810905Y-79224994D01*
X107796203Y-79252500D01*
X107130796Y-79252500D01*
X107099894Y-79227139D01*
X107051927Y-79201500D01*
X107099894Y-79175861D01*
X107248996Y-79053496D01*
X107371361Y-78904394D01*
X107462286Y-78734285D01*
X107518278Y-78549706D01*
X107537184Y-78357750D01*
X107537184Y-77920250D01*
X107518278Y-77728294D01*
X107462286Y-77543715D01*
X107371361Y-77373606D01*
X107248996Y-77224504D01*
X107183500Y-77170753D01*
X107183500Y-76624227D01*
X107200095Y-76604006D01*
X107221478Y-76564000D01*
X111869815Y-76564000D01*
X111873500Y-77248125D01*
X112063875Y-77438500D01*
X114734500Y-77438500D01*
X114734500Y-75992875D01*
X114544125Y-75802500D01*
X112635000Y-75798815D01*
X112485720Y-75813518D01*
X112342176Y-75857061D01*
X112209886Y-75927772D01*
X112093932Y-76022932D01*
X111998772Y-76138886D01*
X111928061Y-76271176D01*
X111884518Y-76414720D01*
X111869815Y-76564000D01*
X107221478Y-76564000D01*
X107293908Y-76428494D01*
X107351678Y-76238053D01*
X107371184Y-76040000D01*
X107371184Y-75090000D01*
X107351678Y-74891947D01*
X107293908Y-74701506D01*
X107200095Y-74525994D01*
X107183500Y-74505773D01*
X107183500Y-74164647D01*
X107266095Y-74064006D01*
X107359908Y-73888494D01*
X107417678Y-73698053D01*
X107437184Y-73500000D01*
X107437184Y-72550000D01*
X107417678Y-72351947D01*
X107359908Y-72161506D01*
X107266095Y-71985994D01*
X107139843Y-71832157D01*
X106986006Y-71705905D01*
X106810494Y-71612092D01*
X106796137Y-71607737D01*
X105374301Y-70185902D01*
X105342622Y-70147301D01*
X105188601Y-70020899D01*
X105012880Y-69926974D01*
X104822212Y-69869136D01*
X104673612Y-69854500D01*
X104673604Y-69854500D01*
X104623923Y-69849607D01*
X104574242Y-69854500D01*
X103159652Y-69854500D01*
X103165482Y-69835280D01*
X103180185Y-69686000D01*
X103176500Y-69151875D01*
X102986125Y-68961500D01*
X101915500Y-68961500D01*
X101915500Y-68981500D01*
X101914500Y-68981500D01*
X101914500Y-68961500D01*
X101894500Y-68961500D01*
X101894500Y-68960500D01*
X101914500Y-68960500D01*
X101914500Y-67664875D01*
X101915500Y-67664875D01*
X101915500Y-68960500D01*
X102986125Y-68960500D01*
X103176500Y-68770125D01*
X103180185Y-68236000D01*
X103165482Y-68086720D01*
X103121939Y-67943176D01*
X103051228Y-67810886D01*
X102956068Y-67694932D01*
X102840114Y-67599772D01*
X102707824Y-67529061D01*
X102564280Y-67485518D01*
X102415000Y-67470815D01*
X102105875Y-67474500D01*
X101915500Y-67664875D01*
X101914500Y-67664875D01*
X101724125Y-67474500D01*
X101415000Y-67470815D01*
X101265720Y-67485518D01*
X101122176Y-67529061D01*
X101021500Y-67582874D01*
X101021500Y-66731060D01*
X101041938Y-66692823D01*
X101085481Y-66549280D01*
X101100184Y-66400000D01*
X101100184Y-65340000D01*
X101085481Y-65190720D01*
X101041938Y-65047177D01*
X100971227Y-64914887D01*
X100876067Y-64798933D01*
X100840812Y-64770000D01*
X100876067Y-64741067D01*
X100971227Y-64625113D01*
X101041938Y-64492823D01*
X101085481Y-64349280D01*
X101100184Y-64200000D01*
X101100184Y-63140000D01*
X101085481Y-62990720D01*
X101041938Y-62847177D01*
X100971227Y-62714887D01*
X100876067Y-62598933D01*
X100760113Y-62503773D01*
X100627823Y-62433062D01*
X100484280Y-62389519D01*
X100335000Y-62374816D01*
X99685000Y-62374816D01*
X99535720Y-62389519D01*
X99535002Y-62389737D01*
X99534280Y-62389518D01*
X99385000Y-62374815D01*
X99250875Y-62378500D01*
X99183500Y-62445875D01*
X99183500Y-62085997D01*
X99280676Y-62137939D01*
X99424220Y-62181482D01*
X99573500Y-62196185D01*
X99882625Y-62192500D01*
X100073000Y-62002125D01*
X100073000Y-60706500D01*
X100074000Y-60706500D01*
X100074000Y-62002125D01*
X100264375Y-62192500D01*
X100573500Y-62196185D01*
X100722780Y-62181482D01*
X100866324Y-62137939D01*
X100998614Y-62067228D01*
X101114568Y-61972068D01*
X101209728Y-61856114D01*
X101280439Y-61723824D01*
X101323982Y-61580280D01*
X101338685Y-61431000D01*
X101335000Y-60896875D01*
X101144625Y-60706500D01*
X100074000Y-60706500D01*
X100073000Y-60706500D01*
X100053000Y-60706500D01*
X100053000Y-60705500D01*
X100073000Y-60705500D01*
X100073000Y-59409875D01*
X100074000Y-59409875D01*
X100074000Y-60705500D01*
X101144625Y-60705500D01*
X101335000Y-60515125D01*
X101338685Y-59981000D01*
X101323982Y-59831720D01*
X101280439Y-59688176D01*
X101209728Y-59555886D01*
X101114568Y-59439932D01*
X100998614Y-59344772D01*
X100866324Y-59274061D01*
X100722780Y-59230518D01*
X100573500Y-59215815D01*
X100264375Y-59219500D01*
X100074000Y-59409875D01*
X100073000Y-59409875D01*
X99882625Y-59219500D01*
X99573500Y-59215815D01*
X99424220Y-59230518D01*
X99280676Y-59274061D01*
X99183500Y-59326003D01*
X99183500Y-58879962D01*
X99310253Y-58867478D01*
X99500694Y-58809708D01*
X99676206Y-58715895D01*
X99830043Y-58589643D01*
X99956295Y-58435806D01*
X100050108Y-58260294D01*
X100092119Y-58121800D01*
X101447015Y-58121800D01*
X101461718Y-58271080D01*
X101505261Y-58414624D01*
X101575972Y-58546914D01*
X101671132Y-58662868D01*
X101787086Y-58758028D01*
X101919376Y-58828739D01*
X102062920Y-58872282D01*
X102212200Y-58886985D01*
X103058825Y-58883300D01*
X103249200Y-58692925D01*
X103249200Y-56947300D01*
X103250200Y-56947300D01*
X103250200Y-58692925D01*
X103440575Y-58883300D01*
X104287200Y-58886985D01*
X104436480Y-58872282D01*
X104580024Y-58828739D01*
X104712314Y-58758028D01*
X104828268Y-58662868D01*
X104923428Y-58546914D01*
X104994139Y-58414624D01*
X105037682Y-58271080D01*
X105052385Y-58121800D01*
X105048700Y-57137675D01*
X104858325Y-56947300D01*
X103250200Y-56947300D01*
X103249200Y-56947300D01*
X101641075Y-56947300D01*
X101450700Y-57137675D01*
X101447015Y-58121800D01*
X100092119Y-58121800D01*
X100107878Y-58069853D01*
X100127384Y-57871800D01*
X100127384Y-56021800D01*
X100107878Y-55823747D01*
X100092120Y-55771800D01*
X101447015Y-55771800D01*
X101450700Y-56755925D01*
X101641075Y-56946300D01*
X103249200Y-56946300D01*
X103249200Y-55200675D01*
X103250200Y-55200675D01*
X103250200Y-56946300D01*
X104858325Y-56946300D01*
X105048700Y-56755925D01*
X105052385Y-55771800D01*
X105037682Y-55622520D01*
X104994139Y-55478976D01*
X104923428Y-55346686D01*
X104828268Y-55230732D01*
X104712314Y-55135572D01*
X104580024Y-55064861D01*
X104436480Y-55021318D01*
X104287200Y-55006615D01*
X103440575Y-55010300D01*
X103250200Y-55200675D01*
X103249200Y-55200675D01*
X103058825Y-55010300D01*
X102212200Y-55006615D01*
X102062920Y-55021318D01*
X101919376Y-55064861D01*
X101787086Y-55135572D01*
X101671132Y-55230732D01*
X101575972Y-55346686D01*
X101505261Y-55478976D01*
X101461718Y-55622520D01*
X101447015Y-55771800D01*
X100092120Y-55771800D01*
X100050108Y-55633306D01*
X99956295Y-55457794D01*
X99830043Y-55303957D01*
X99676206Y-55177705D01*
X99500694Y-55083892D01*
X99310253Y-55026122D01*
X99183500Y-55013638D01*
X99183500Y-54376904D01*
X99943860Y-54376904D01*
X100093140Y-54362201D01*
X100236683Y-54318658D01*
X100368973Y-54247947D01*
X100484927Y-54152787D01*
X100580087Y-54036833D01*
X100650798Y-53904543D01*
X100694341Y-53761000D01*
X100709044Y-53611720D01*
X100709044Y-50111720D01*
X100694341Y-49962440D01*
X100650798Y-49818897D01*
X100580087Y-49686607D01*
X100484927Y-49570653D01*
X100368973Y-49475493D01*
X100236683Y-49404782D01*
X100093140Y-49361239D01*
X99943860Y-49346536D01*
X96443860Y-49346536D01*
X96294580Y-49361239D01*
X96151037Y-49404782D01*
X96018747Y-49475493D01*
X96009044Y-49483456D01*
X96009044Y-47989986D01*
X96018746Y-47997948D01*
X96151036Y-48068659D01*
X96294580Y-48112202D01*
X96443860Y-48126905D01*
X98002985Y-48123220D01*
X98193360Y-47932845D01*
X98193360Y-45862220D01*
X98194360Y-45862220D01*
X98194360Y-47932845D01*
X98384735Y-48123220D01*
X99943860Y-48126905D01*
X100093140Y-48112202D01*
X100236684Y-48068659D01*
X100368974Y-47997948D01*
X100484928Y-47902788D01*
X100580088Y-47786834D01*
X100650799Y-47654544D01*
X100694342Y-47511000D01*
X100709045Y-47361720D01*
X100705360Y-46052595D01*
X100514985Y-45862220D01*
X98194360Y-45862220D01*
X98193360Y-45862220D01*
X95872735Y-45862220D01*
X95682360Y-46052595D01*
X95679662Y-47010950D01*
X95528645Y-46826935D01*
X95280097Y-46622957D01*
X94996531Y-46471388D01*
X94688844Y-46378052D01*
X94368860Y-46346536D01*
X92618860Y-46346536D01*
X92298876Y-46378052D01*
X91991189Y-46471388D01*
X91707623Y-46622957D01*
X91459075Y-46826935D01*
X91255097Y-47075483D01*
X91103528Y-47359049D01*
X91010192Y-47666736D01*
X90978676Y-47986720D01*
X90978676Y-49736720D01*
X91010192Y-50056704D01*
X91103528Y-50364391D01*
X91255097Y-50647957D01*
X91459075Y-50896505D01*
X91707623Y-51100483D01*
X91991189Y-51252052D01*
X92298876Y-51345388D01*
X92618860Y-51376904D01*
X94368860Y-51376904D01*
X94688844Y-51345388D01*
X94996531Y-51252052D01*
X95280097Y-51100483D01*
X95528645Y-50896505D01*
X95678676Y-50713692D01*
X95678676Y-53611720D01*
X95693379Y-53761000D01*
X95736922Y-53904543D01*
X95807633Y-54036833D01*
X95902793Y-54152787D01*
X96018747Y-54247947D01*
X96151037Y-54318658D01*
X96294580Y-54362201D01*
X96443860Y-54376904D01*
X97160500Y-54376904D01*
X97160500Y-55080314D01*
X97148706Y-55083892D01*
X96973194Y-55177705D01*
X96819357Y-55303957D01*
X96693105Y-55457794D01*
X96599292Y-55633306D01*
X96541522Y-55823747D01*
X96522016Y-56021800D01*
X96522016Y-57871800D01*
X96541522Y-58069853D01*
X96599292Y-58260294D01*
X96693105Y-58435806D01*
X96819357Y-58589643D01*
X96973194Y-58715895D01*
X97148706Y-58809708D01*
X97160501Y-58813286D01*
X97160501Y-59568180D01*
X97079405Y-59666994D01*
X96985592Y-59842506D01*
X96927822Y-60032947D01*
X96908316Y-60231000D01*
X96908316Y-61181000D01*
X96927822Y-61379053D01*
X96985592Y-61569494D01*
X97079405Y-61745006D01*
X97160501Y-61843821D01*
X97160501Y-62700596D01*
X97148773Y-62714887D01*
X97078062Y-62847177D01*
X97034519Y-62990720D01*
X97019816Y-63140000D01*
X97019816Y-64200000D01*
X97034519Y-64349280D01*
X97078062Y-64492823D01*
X97148773Y-64625113D01*
X97243933Y-64741067D01*
X97279188Y-64770000D01*
X97243933Y-64798933D01*
X97148773Y-64914887D01*
X97078062Y-65047177D01*
X97034519Y-65190720D01*
X97019816Y-65340000D01*
X97019816Y-66400000D01*
X97034519Y-66549280D01*
X97078062Y-66692823D01*
X97148773Y-66825113D01*
X97243933Y-66941067D01*
X97359887Y-67036227D01*
X97492177Y-67106938D01*
X97635720Y-67150481D01*
X97785000Y-67165184D01*
X98435000Y-67165184D01*
X98584280Y-67150481D01*
X98727823Y-67106938D01*
X98860113Y-67036227D01*
X98976067Y-66941067D01*
X98998500Y-66913732D01*
X98998501Y-67827444D01*
X98920905Y-67921994D01*
X98827092Y-68097506D01*
X98769322Y-68287947D01*
X98749816Y-68486000D01*
X98749816Y-69436000D01*
X98769322Y-69634053D01*
X98827092Y-69824494D01*
X98920905Y-70000006D01*
X99047157Y-70153843D01*
X99064501Y-70168077D01*
X99064501Y-70816301D01*
X99059606Y-70866000D01*
X99064500Y-70915689D01*
X99064501Y-72848302D01*
X99064500Y-72848312D01*
X99064501Y-74484923D01*
X99047157Y-74499157D01*
X98920905Y-74652994D01*
X98827092Y-74828506D01*
X98769322Y-75018947D01*
X98749816Y-75217000D01*
X98749816Y-76167000D01*
X98769322Y-76365053D01*
X98827092Y-76555494D01*
X98920905Y-76731006D01*
X99047157Y-76884843D01*
X99064500Y-76899076D01*
X99064501Y-78789689D01*
X99079137Y-78938289D01*
X99092791Y-78983301D01*
X99046006Y-78944905D01*
X98870494Y-78851092D01*
X98680053Y-78793322D01*
X98482000Y-78773816D01*
X97982000Y-78773816D01*
X97783947Y-78793322D01*
X97593506Y-78851092D01*
X97417994Y-78944905D01*
X97282000Y-79056513D01*
X97146006Y-78944905D01*
X96970494Y-78851092D01*
X96780053Y-78793322D01*
X96582000Y-78773816D01*
X96082000Y-78773816D01*
X95883947Y-78793322D01*
X95693506Y-78851092D01*
X95517994Y-78944905D01*
X95447815Y-79002500D01*
X94575321Y-79002500D01*
X94673114Y-78950228D01*
X94789068Y-78855068D01*
X94884228Y-78739114D01*
X94954939Y-78606824D01*
X94998482Y-78463280D01*
X95013185Y-78314000D01*
X95009500Y-77629875D01*
X94819125Y-77439500D01*
X92148500Y-77439500D01*
X92148500Y-77459500D01*
X92147500Y-77459500D01*
X92147500Y-77439500D01*
X92127500Y-77439500D01*
X92127500Y-77438500D01*
X92147500Y-77438500D01*
X92147500Y-75992875D01*
X92148500Y-75992875D01*
X92148500Y-77438500D01*
X94819125Y-77438500D01*
X95009500Y-77248125D01*
X95013185Y-76564000D01*
X94998482Y-76414720D01*
X94954939Y-76271176D01*
X94884228Y-76138886D01*
X94789068Y-76022932D01*
X94673114Y-75927772D01*
X94540824Y-75857061D01*
X94397280Y-75813518D01*
X94248000Y-75798815D01*
X92338875Y-75802500D01*
X92148500Y-75992875D01*
X92147500Y-75992875D01*
X91957125Y-75802500D01*
X90890263Y-75800441D01*
X90590439Y-44361720D01*
X95678675Y-44361720D01*
X95682360Y-45670845D01*
X95872735Y-45861220D01*
X98193360Y-45861220D01*
X98193360Y-43790595D01*
X98194360Y-43790595D01*
X98194360Y-45861220D01*
X100514985Y-45861220D01*
X100705360Y-45670845D01*
X100709045Y-44361720D01*
X100694342Y-44212440D01*
X100650799Y-44068896D01*
X100580088Y-43936606D01*
X100484928Y-43820652D01*
X100368974Y-43725492D01*
X100236684Y-43654781D01*
X100093140Y-43611238D01*
X99943860Y-43596535D01*
X98384735Y-43600220D01*
X98194360Y-43790595D01*
X98193360Y-43790595D01*
X98002985Y-43600220D01*
X96443860Y-43596535D01*
X96294580Y-43611238D01*
X96151036Y-43654781D01*
X96018746Y-43725492D01*
X95902792Y-43820652D01*
X95807632Y-43936606D01*
X95736921Y-44068896D01*
X95693378Y-44212440D01*
X95678675Y-44361720D01*
X90590439Y-44361720D01*
X90576980Y-42950500D01*
X116218953Y-42950500D01*
X116551839Y-75799362D01*
%TA.AperFunction,Conductor*%
D21*
G36*
X116551839Y-75799362D02*
G01*
X114925875Y-75802500D01*
X114735500Y-75992875D01*
X114735500Y-77438500D01*
X114755500Y-77438500D01*
X114755500Y-77439500D01*
X114735500Y-77439500D01*
X114735500Y-77459500D01*
X114734500Y-77459500D01*
X114734500Y-77439500D01*
X112063875Y-77439500D01*
X111873500Y-77629875D01*
X111869815Y-78314000D01*
X111884518Y-78463280D01*
X111928061Y-78606824D01*
X111998772Y-78739114D01*
X112093932Y-78855068D01*
X112209886Y-78950228D01*
X112307679Y-79002500D01*
X111689185Y-79002500D01*
X111619006Y-78944905D01*
X111443494Y-78851092D01*
X111253053Y-78793322D01*
X111055000Y-78773816D01*
X110555000Y-78773816D01*
X110356947Y-78793322D01*
X110166506Y-78851092D01*
X109990994Y-78944905D01*
X109855000Y-79056513D01*
X109719006Y-78944905D01*
X109543494Y-78851092D01*
X109353053Y-78793322D01*
X109155000Y-78773816D01*
X108655000Y-78773816D01*
X108456947Y-78793322D01*
X108266506Y-78851092D01*
X108090994Y-78944905D01*
X107937157Y-79071157D01*
X107810905Y-79224994D01*
X107796203Y-79252500D01*
X107130796Y-79252500D01*
X107099894Y-79227139D01*
X107051927Y-79201500D01*
X107099894Y-79175861D01*
X107248996Y-79053496D01*
X107371361Y-78904394D01*
X107462286Y-78734285D01*
X107518278Y-78549706D01*
X107537184Y-78357750D01*
X107537184Y-77920250D01*
X107518278Y-77728294D01*
X107462286Y-77543715D01*
X107371361Y-77373606D01*
X107248996Y-77224504D01*
X107183500Y-77170753D01*
X107183500Y-76624227D01*
X107200095Y-76604006D01*
X107221478Y-76564000D01*
X111869815Y-76564000D01*
X111873500Y-77248125D01*
X112063875Y-77438500D01*
X114734500Y-77438500D01*
X114734500Y-75992875D01*
X114544125Y-75802500D01*
X112635000Y-75798815D01*
X112485720Y-75813518D01*
X112342176Y-75857061D01*
X112209886Y-75927772D01*
X112093932Y-76022932D01*
X111998772Y-76138886D01*
X111928061Y-76271176D01*
X111884518Y-76414720D01*
X111869815Y-76564000D01*
X107221478Y-76564000D01*
X107293908Y-76428494D01*
X107351678Y-76238053D01*
X107371184Y-76040000D01*
X107371184Y-75090000D01*
X107351678Y-74891947D01*
X107293908Y-74701506D01*
X107200095Y-74525994D01*
X107183500Y-74505773D01*
X107183500Y-74164647D01*
X107266095Y-74064006D01*
X107359908Y-73888494D01*
X107417678Y-73698053D01*
X107437184Y-73500000D01*
X107437184Y-72550000D01*
X107417678Y-72351947D01*
X107359908Y-72161506D01*
X107266095Y-71985994D01*
X107139843Y-71832157D01*
X106986006Y-71705905D01*
X106810494Y-71612092D01*
X106796137Y-71607737D01*
X105374301Y-70185902D01*
X105342622Y-70147301D01*
X105188601Y-70020899D01*
X105012880Y-69926974D01*
X104822212Y-69869136D01*
X104673612Y-69854500D01*
X104673604Y-69854500D01*
X104623923Y-69849607D01*
X104574242Y-69854500D01*
X103159652Y-69854500D01*
X103165482Y-69835280D01*
X103180185Y-69686000D01*
X103176500Y-69151875D01*
X102986125Y-68961500D01*
X101915500Y-68961500D01*
X101915500Y-68981500D01*
X101914500Y-68981500D01*
X101914500Y-68961500D01*
X101894500Y-68961500D01*
X101894500Y-68960500D01*
X101914500Y-68960500D01*
X101914500Y-67664875D01*
X101915500Y-67664875D01*
X101915500Y-68960500D01*
X102986125Y-68960500D01*
X103176500Y-68770125D01*
X103180185Y-68236000D01*
X103165482Y-68086720D01*
X103121939Y-67943176D01*
X103051228Y-67810886D01*
X102956068Y-67694932D01*
X102840114Y-67599772D01*
X102707824Y-67529061D01*
X102564280Y-67485518D01*
X102415000Y-67470815D01*
X102105875Y-67474500D01*
X101915500Y-67664875D01*
X101914500Y-67664875D01*
X101724125Y-67474500D01*
X101415000Y-67470815D01*
X101265720Y-67485518D01*
X101122176Y-67529061D01*
X101021500Y-67582874D01*
X101021500Y-66731060D01*
X101041938Y-66692823D01*
X101085481Y-66549280D01*
X101100184Y-66400000D01*
X101100184Y-65340000D01*
X101085481Y-65190720D01*
X101041938Y-65047177D01*
X100971227Y-64914887D01*
X100876067Y-64798933D01*
X100840812Y-64770000D01*
X100876067Y-64741067D01*
X100971227Y-64625113D01*
X101041938Y-64492823D01*
X101085481Y-64349280D01*
X101100184Y-64200000D01*
X101100184Y-63140000D01*
X101085481Y-62990720D01*
X101041938Y-62847177D01*
X100971227Y-62714887D01*
X100876067Y-62598933D01*
X100760113Y-62503773D01*
X100627823Y-62433062D01*
X100484280Y-62389519D01*
X100335000Y-62374816D01*
X99685000Y-62374816D01*
X99535720Y-62389519D01*
X99535002Y-62389737D01*
X99534280Y-62389518D01*
X99385000Y-62374815D01*
X99250875Y-62378500D01*
X99183500Y-62445875D01*
X99183500Y-62085997D01*
X99280676Y-62137939D01*
X99424220Y-62181482D01*
X99573500Y-62196185D01*
X99882625Y-62192500D01*
X100073000Y-62002125D01*
X100073000Y-60706500D01*
X100074000Y-60706500D01*
X100074000Y-62002125D01*
X100264375Y-62192500D01*
X100573500Y-62196185D01*
X100722780Y-62181482D01*
X100866324Y-62137939D01*
X100998614Y-62067228D01*
X101114568Y-61972068D01*
X101209728Y-61856114D01*
X101280439Y-61723824D01*
X101323982Y-61580280D01*
X101338685Y-61431000D01*
X101335000Y-60896875D01*
X101144625Y-60706500D01*
X100074000Y-60706500D01*
X100073000Y-60706500D01*
X100053000Y-60706500D01*
X100053000Y-60705500D01*
X100073000Y-60705500D01*
X100073000Y-59409875D01*
X100074000Y-59409875D01*
X100074000Y-60705500D01*
X101144625Y-60705500D01*
X101335000Y-60515125D01*
X101338685Y-59981000D01*
X101323982Y-59831720D01*
X101280439Y-59688176D01*
X101209728Y-59555886D01*
X101114568Y-59439932D01*
X100998614Y-59344772D01*
X100866324Y-59274061D01*
X100722780Y-59230518D01*
X100573500Y-59215815D01*
X100264375Y-59219500D01*
X100074000Y-59409875D01*
X100073000Y-59409875D01*
X99882625Y-59219500D01*
X99573500Y-59215815D01*
X99424220Y-59230518D01*
X99280676Y-59274061D01*
X99183500Y-59326003D01*
X99183500Y-58879962D01*
X99310253Y-58867478D01*
X99500694Y-58809708D01*
X99676206Y-58715895D01*
X99830043Y-58589643D01*
X99956295Y-58435806D01*
X100050108Y-58260294D01*
X100092119Y-58121800D01*
X101447015Y-58121800D01*
X101461718Y-58271080D01*
X101505261Y-58414624D01*
X101575972Y-58546914D01*
X101671132Y-58662868D01*
X101787086Y-58758028D01*
X101919376Y-58828739D01*
X102062920Y-58872282D01*
X102212200Y-58886985D01*
X103058825Y-58883300D01*
X103249200Y-58692925D01*
X103249200Y-56947300D01*
X103250200Y-56947300D01*
X103250200Y-58692925D01*
X103440575Y-58883300D01*
X104287200Y-58886985D01*
X104436480Y-58872282D01*
X104580024Y-58828739D01*
X104712314Y-58758028D01*
X104828268Y-58662868D01*
X104923428Y-58546914D01*
X104994139Y-58414624D01*
X105037682Y-58271080D01*
X105052385Y-58121800D01*
X105048700Y-57137675D01*
X104858325Y-56947300D01*
X103250200Y-56947300D01*
X103249200Y-56947300D01*
X101641075Y-56947300D01*
X101450700Y-57137675D01*
X101447015Y-58121800D01*
X100092119Y-58121800D01*
X100107878Y-58069853D01*
X100127384Y-57871800D01*
X100127384Y-56021800D01*
X100107878Y-55823747D01*
X100092120Y-55771800D01*
X101447015Y-55771800D01*
X101450700Y-56755925D01*
X101641075Y-56946300D01*
X103249200Y-56946300D01*
X103249200Y-55200675D01*
X103250200Y-55200675D01*
X103250200Y-56946300D01*
X104858325Y-56946300D01*
X105048700Y-56755925D01*
X105052385Y-55771800D01*
X105037682Y-55622520D01*
X104994139Y-55478976D01*
X104923428Y-55346686D01*
X104828268Y-55230732D01*
X104712314Y-55135572D01*
X104580024Y-55064861D01*
X104436480Y-55021318D01*
X104287200Y-55006615D01*
X103440575Y-55010300D01*
X103250200Y-55200675D01*
X103249200Y-55200675D01*
X103058825Y-55010300D01*
X102212200Y-55006615D01*
X102062920Y-55021318D01*
X101919376Y-55064861D01*
X101787086Y-55135572D01*
X101671132Y-55230732D01*
X101575972Y-55346686D01*
X101505261Y-55478976D01*
X101461718Y-55622520D01*
X101447015Y-55771800D01*
X100092120Y-55771800D01*
X100050108Y-55633306D01*
X99956295Y-55457794D01*
X99830043Y-55303957D01*
X99676206Y-55177705D01*
X99500694Y-55083892D01*
X99310253Y-55026122D01*
X99183500Y-55013638D01*
X99183500Y-54376904D01*
X99943860Y-54376904D01*
X100093140Y-54362201D01*
X100236683Y-54318658D01*
X100368973Y-54247947D01*
X100484927Y-54152787D01*
X100580087Y-54036833D01*
X100650798Y-53904543D01*
X100694341Y-53761000D01*
X100709044Y-53611720D01*
X100709044Y-50111720D01*
X100694341Y-49962440D01*
X100650798Y-49818897D01*
X100580087Y-49686607D01*
X100484927Y-49570653D01*
X100368973Y-49475493D01*
X100236683Y-49404782D01*
X100093140Y-49361239D01*
X99943860Y-49346536D01*
X96443860Y-49346536D01*
X96294580Y-49361239D01*
X96151037Y-49404782D01*
X96018747Y-49475493D01*
X96009044Y-49483456D01*
X96009044Y-47989986D01*
X96018746Y-47997948D01*
X96151036Y-48068659D01*
X96294580Y-48112202D01*
X96443860Y-48126905D01*
X98002985Y-48123220D01*
X98193360Y-47932845D01*
X98193360Y-45862220D01*
X98194360Y-45862220D01*
X98194360Y-47932845D01*
X98384735Y-48123220D01*
X99943860Y-48126905D01*
X100093140Y-48112202D01*
X100236684Y-48068659D01*
X100368974Y-47997948D01*
X100484928Y-47902788D01*
X100580088Y-47786834D01*
X100650799Y-47654544D01*
X100694342Y-47511000D01*
X100709045Y-47361720D01*
X100705360Y-46052595D01*
X100514985Y-45862220D01*
X98194360Y-45862220D01*
X98193360Y-45862220D01*
X95872735Y-45862220D01*
X95682360Y-46052595D01*
X95679662Y-47010950D01*
X95528645Y-46826935D01*
X95280097Y-46622957D01*
X94996531Y-46471388D01*
X94688844Y-46378052D01*
X94368860Y-46346536D01*
X92618860Y-46346536D01*
X92298876Y-46378052D01*
X91991189Y-46471388D01*
X91707623Y-46622957D01*
X91459075Y-46826935D01*
X91255097Y-47075483D01*
X91103528Y-47359049D01*
X91010192Y-47666736D01*
X90978676Y-47986720D01*
X90978676Y-49736720D01*
X91010192Y-50056704D01*
X91103528Y-50364391D01*
X91255097Y-50647957D01*
X91459075Y-50896505D01*
X91707623Y-51100483D01*
X91991189Y-51252052D01*
X92298876Y-51345388D01*
X92618860Y-51376904D01*
X94368860Y-51376904D01*
X94688844Y-51345388D01*
X94996531Y-51252052D01*
X95280097Y-51100483D01*
X95528645Y-50896505D01*
X95678676Y-50713692D01*
X95678676Y-53611720D01*
X95693379Y-53761000D01*
X95736922Y-53904543D01*
X95807633Y-54036833D01*
X95902793Y-54152787D01*
X96018747Y-54247947D01*
X96151037Y-54318658D01*
X96294580Y-54362201D01*
X96443860Y-54376904D01*
X97160500Y-54376904D01*
X97160500Y-55080314D01*
X97148706Y-55083892D01*
X96973194Y-55177705D01*
X96819357Y-55303957D01*
X96693105Y-55457794D01*
X96599292Y-55633306D01*
X96541522Y-55823747D01*
X96522016Y-56021800D01*
X96522016Y-57871800D01*
X96541522Y-58069853D01*
X96599292Y-58260294D01*
X96693105Y-58435806D01*
X96819357Y-58589643D01*
X96973194Y-58715895D01*
X97148706Y-58809708D01*
X97160501Y-58813286D01*
X97160501Y-59568180D01*
X97079405Y-59666994D01*
X96985592Y-59842506D01*
X96927822Y-60032947D01*
X96908316Y-60231000D01*
X96908316Y-61181000D01*
X96927822Y-61379053D01*
X96985592Y-61569494D01*
X97079405Y-61745006D01*
X97160501Y-61843821D01*
X97160501Y-62700596D01*
X97148773Y-62714887D01*
X97078062Y-62847177D01*
X97034519Y-62990720D01*
X97019816Y-63140000D01*
X97019816Y-64200000D01*
X97034519Y-64349280D01*
X97078062Y-64492823D01*
X97148773Y-64625113D01*
X97243933Y-64741067D01*
X97279188Y-64770000D01*
X97243933Y-64798933D01*
X97148773Y-64914887D01*
X97078062Y-65047177D01*
X97034519Y-65190720D01*
X97019816Y-65340000D01*
X97019816Y-66400000D01*
X97034519Y-66549280D01*
X97078062Y-66692823D01*
X97148773Y-66825113D01*
X97243933Y-66941067D01*
X97359887Y-67036227D01*
X97492177Y-67106938D01*
X97635720Y-67150481D01*
X97785000Y-67165184D01*
X98435000Y-67165184D01*
X98584280Y-67150481D01*
X98727823Y-67106938D01*
X98860113Y-67036227D01*
X98976067Y-66941067D01*
X98998500Y-66913732D01*
X98998501Y-67827444D01*
X98920905Y-67921994D01*
X98827092Y-68097506D01*
X98769322Y-68287947D01*
X98749816Y-68486000D01*
X98749816Y-69436000D01*
X98769322Y-69634053D01*
X98827092Y-69824494D01*
X98920905Y-70000006D01*
X99047157Y-70153843D01*
X99064501Y-70168077D01*
X99064501Y-70816301D01*
X99059606Y-70866000D01*
X99064500Y-70915689D01*
X99064501Y-72848302D01*
X99064500Y-72848312D01*
X99064501Y-74484923D01*
X99047157Y-74499157D01*
X98920905Y-74652994D01*
X98827092Y-74828506D01*
X98769322Y-75018947D01*
X98749816Y-75217000D01*
X98749816Y-76167000D01*
X98769322Y-76365053D01*
X98827092Y-76555494D01*
X98920905Y-76731006D01*
X99047157Y-76884843D01*
X99064500Y-76899076D01*
X99064501Y-78789689D01*
X99079137Y-78938289D01*
X99092791Y-78983301D01*
X99046006Y-78944905D01*
X98870494Y-78851092D01*
X98680053Y-78793322D01*
X98482000Y-78773816D01*
X97982000Y-78773816D01*
X97783947Y-78793322D01*
X97593506Y-78851092D01*
X97417994Y-78944905D01*
X97282000Y-79056513D01*
X97146006Y-78944905D01*
X96970494Y-78851092D01*
X96780053Y-78793322D01*
X96582000Y-78773816D01*
X96082000Y-78773816D01*
X95883947Y-78793322D01*
X95693506Y-78851092D01*
X95517994Y-78944905D01*
X95447815Y-79002500D01*
X94575321Y-79002500D01*
X94673114Y-78950228D01*
X94789068Y-78855068D01*
X94884228Y-78739114D01*
X94954939Y-78606824D01*
X94998482Y-78463280D01*
X95013185Y-78314000D01*
X95009500Y-77629875D01*
X94819125Y-77439500D01*
X92148500Y-77439500D01*
X92148500Y-77459500D01*
X92147500Y-77459500D01*
X92147500Y-77439500D01*
X92127500Y-77439500D01*
X92127500Y-77438500D01*
X92147500Y-77438500D01*
X92147500Y-75992875D01*
X92148500Y-75992875D01*
X92148500Y-77438500D01*
X94819125Y-77438500D01*
X95009500Y-77248125D01*
X95013185Y-76564000D01*
X94998482Y-76414720D01*
X94954939Y-76271176D01*
X94884228Y-76138886D01*
X94789068Y-76022932D01*
X94673114Y-75927772D01*
X94540824Y-75857061D01*
X94397280Y-75813518D01*
X94248000Y-75798815D01*
X92338875Y-75802500D01*
X92148500Y-75992875D01*
X92147500Y-75992875D01*
X91957125Y-75802500D01*
X90890263Y-75800441D01*
X90590439Y-44361720D01*
X95678675Y-44361720D01*
X95682360Y-45670845D01*
X95872735Y-45861220D01*
X98193360Y-45861220D01*
X98193360Y-43790595D01*
X98194360Y-43790595D01*
X98194360Y-45861220D01*
X100514985Y-45861220D01*
X100705360Y-45670845D01*
X100709045Y-44361720D01*
X100694342Y-44212440D01*
X100650799Y-44068896D01*
X100580088Y-43936606D01*
X100484928Y-43820652D01*
X100368974Y-43725492D01*
X100236684Y-43654781D01*
X100093140Y-43611238D01*
X99943860Y-43596535D01*
X98384735Y-43600220D01*
X98194360Y-43790595D01*
X98193360Y-43790595D01*
X98002985Y-43600220D01*
X96443860Y-43596535D01*
X96294580Y-43611238D01*
X96151036Y-43654781D01*
X96018746Y-43725492D01*
X95902792Y-43820652D01*
X95807632Y-43936606D01*
X95736921Y-44068896D01*
X95693378Y-44212440D01*
X95678675Y-44361720D01*
X90590439Y-44361720D01*
X90576980Y-42950500D01*
X116218953Y-42950500D01*
X116551839Y-75799362D01*
G37*
%TD.AperFunction*%
%TD*%
M02*
