%TF.GenerationSoftware,KiCad,Pcbnew,(5.1.9)-1*%
%TF.CreationDate,2021-01-25T16:28:54-05:00*%
%TF.ProjectId,LNA2,4c4e4132-2e6b-4696-9361-645f70636258,rev?*%
%TF.SameCoordinates,Original*%
%TF.FileFunction,Copper,L1,Top*%
%TF.FilePolarity,Positive*%
%FSLAX46Y46*%
G04 Gerber Fmt 4.6, Leading zero omitted, Abs format (unit mm)*
G04 Created by KiCad (PCBNEW (5.1.9)-1) date 2021-01-25 16:28:54*
%MOMM*%
%LPD*%
G01*
G04 APERTURE LIST*
%TA.AperFunction,SMDPad,CuDef*%
%ADD10R,0.500000X0.250000*%
%TD*%
%TA.AperFunction,SMDPad,CuDef*%
%ADD11R,0.900000X1.600000*%
%TD*%
%TA.AperFunction,SMDPad,CuDef*%
%ADD12R,3.600000X1.270000*%
%TD*%
%TA.AperFunction,SMDPad,CuDef*%
%ADD13R,4.200000X1.350000*%
%TD*%
%TA.AperFunction,ViaPad*%
%ADD14C,1.200000*%
%TD*%
%TA.AperFunction,ViaPad*%
%ADD15C,0.800000*%
%TD*%
%TA.AperFunction,Conductor*%
%ADD16C,0.250000*%
%TD*%
%TA.AperFunction,Conductor*%
%ADD17C,1.500000*%
%TD*%
%TA.AperFunction,Conductor*%
%ADD18C,0.500000*%
%TD*%
%TA.AperFunction,Conductor*%
%ADD19C,0.507000*%
%TD*%
%TA.AperFunction,Conductor*%
%ADD20C,0.100000*%
%TD*%
%TA.AperFunction,Conductor*%
%ADD21C,0.254000*%
%TD*%
G04 APERTURE END LIST*
%TO.P,CC1,1*%
%TO.N,Net-(CC1-Pad1)*%
%TA.AperFunction,SMDPad,CuDef*%
G36*
G01*
X99560000Y-79789000D02*
X99560000Y-80739000D01*
G75*
G02*
X99310000Y-80989000I-250000J0D01*
G01*
X98810000Y-80989000D01*
G75*
G02*
X98560000Y-80739000I0J250000D01*
G01*
X98560000Y-79789000D01*
G75*
G02*
X98810000Y-79539000I250000J0D01*
G01*
X99310000Y-79539000D01*
G75*
G02*
X99560000Y-79789000I0J-250000D01*
G01*
G37*
%TD.AperFunction*%
%TO.P,CC1,2*%
%TO.N,Net-(CC1-Pad2)*%
%TA.AperFunction,SMDPad,CuDef*%
G36*
G01*
X97660000Y-79789000D02*
X97660000Y-80739000D01*
G75*
G02*
X97410000Y-80989000I-250000J0D01*
G01*
X96910000Y-80989000D01*
G75*
G02*
X96660000Y-80739000I0J250000D01*
G01*
X96660000Y-79789000D01*
G75*
G02*
X96910000Y-79539000I250000J0D01*
G01*
X97410000Y-79539000D01*
G75*
G02*
X97660000Y-79789000I0J-250000D01*
G01*
G37*
%TD.AperFunction*%
%TD*%
%TO.P,CC2,2*%
%TO.N,Net-(CC2-Pad2)*%
%TA.AperFunction,SMDPad,CuDef*%
G36*
G01*
X108516000Y-79789000D02*
X108516000Y-80739000D01*
G75*
G02*
X108266000Y-80989000I-250000J0D01*
G01*
X107766000Y-80989000D01*
G75*
G02*
X107516000Y-80739000I0J250000D01*
G01*
X107516000Y-79789000D01*
G75*
G02*
X107766000Y-79539000I250000J0D01*
G01*
X108266000Y-79539000D01*
G75*
G02*
X108516000Y-79789000I0J-250000D01*
G01*
G37*
%TD.AperFunction*%
%TO.P,CC2,1*%
%TO.N,Net-(CC2-Pad1)*%
%TA.AperFunction,SMDPad,CuDef*%
G36*
G01*
X110416000Y-79789000D02*
X110416000Y-80739000D01*
G75*
G02*
X110166000Y-80989000I-250000J0D01*
G01*
X109666000Y-80989000D01*
G75*
G02*
X109416000Y-80739000I0J250000D01*
G01*
X109416000Y-79789000D01*
G75*
G02*
X109666000Y-79539000I250000J0D01*
G01*
X110166000Y-79539000D01*
G75*
G02*
X110416000Y-79789000I0J-250000D01*
G01*
G37*
%TD.AperFunction*%
%TD*%
%TO.P,CDC1,1*%
%TO.N,VCC*%
%TA.AperFunction,SMDPad,CuDef*%
G36*
G01*
X99515000Y-76167000D02*
X99515000Y-75217000D01*
G75*
G02*
X99765000Y-74967000I250000J0D01*
G01*
X100265000Y-74967000D01*
G75*
G02*
X100515000Y-75217000I0J-250000D01*
G01*
X100515000Y-76167000D01*
G75*
G02*
X100265000Y-76417000I-250000J0D01*
G01*
X99765000Y-76417000D01*
G75*
G02*
X99515000Y-76167000I0J250000D01*
G01*
G37*
%TD.AperFunction*%
%TO.P,CDC1,2*%
%TO.N,GND*%
%TA.AperFunction,SMDPad,CuDef*%
G36*
G01*
X101415000Y-76167000D02*
X101415000Y-75217000D01*
G75*
G02*
X101665000Y-74967000I250000J0D01*
G01*
X102165000Y-74967000D01*
G75*
G02*
X102415000Y-75217000I0J-250000D01*
G01*
X102415000Y-76167000D01*
G75*
G02*
X102165000Y-76417000I-250000J0D01*
G01*
X101665000Y-76417000D01*
G75*
G02*
X101415000Y-76167000I0J250000D01*
G01*
G37*
%TD.AperFunction*%
%TD*%
%TO.P,CRF1,2*%
%TO.N,GND*%
%TA.AperFunction,SMDPad,CuDef*%
G36*
G01*
X104706000Y-75725000D02*
X104706000Y-76675000D01*
G75*
G02*
X104456000Y-76925000I-250000J0D01*
G01*
X103956000Y-76925000D01*
G75*
G02*
X103706000Y-76675000I0J250000D01*
G01*
X103706000Y-75725000D01*
G75*
G02*
X103956000Y-75475000I250000J0D01*
G01*
X104456000Y-75475000D01*
G75*
G02*
X104706000Y-75725000I0J-250000D01*
G01*
G37*
%TD.AperFunction*%
%TO.P,CRF1,1*%
%TO.N,VCC*%
%TA.AperFunction,SMDPad,CuDef*%
G36*
G01*
X106606000Y-75725000D02*
X106606000Y-76675000D01*
G75*
G02*
X106356000Y-76925000I-250000J0D01*
G01*
X105856000Y-76925000D01*
G75*
G02*
X105606000Y-76675000I0J250000D01*
G01*
X105606000Y-75725000D01*
G75*
G02*
X105856000Y-75475000I250000J0D01*
G01*
X106356000Y-75475000D01*
G75*
G02*
X106606000Y-75725000I0J-250000D01*
G01*
G37*
%TD.AperFunction*%
%TD*%
%TO.P,CRF2,1*%
%TO.N,VCC*%
%TA.AperFunction,SMDPad,CuDef*%
G36*
G01*
X106672000Y-73693000D02*
X106672000Y-74643000D01*
G75*
G02*
X106422000Y-74893000I-250000J0D01*
G01*
X105922000Y-74893000D01*
G75*
G02*
X105672000Y-74643000I0J250000D01*
G01*
X105672000Y-73693000D01*
G75*
G02*
X105922000Y-73443000I250000J0D01*
G01*
X106422000Y-73443000D01*
G75*
G02*
X106672000Y-73693000I0J-250000D01*
G01*
G37*
%TD.AperFunction*%
%TO.P,CRF2,2*%
%TO.N,GND*%
%TA.AperFunction,SMDPad,CuDef*%
G36*
G01*
X104772000Y-73693000D02*
X104772000Y-74643000D01*
G75*
G02*
X104522000Y-74893000I-250000J0D01*
G01*
X104022000Y-74893000D01*
G75*
G02*
X103772000Y-74643000I0J250000D01*
G01*
X103772000Y-73693000D01*
G75*
G02*
X104022000Y-73443000I250000J0D01*
G01*
X104522000Y-73443000D01*
G75*
G02*
X104772000Y-73693000I0J-250000D01*
G01*
G37*
%TD.AperFunction*%
%TD*%
%TO.P,LRF1,1*%
%TO.N,VCC*%
%TA.AperFunction,SMDPad,CuDef*%
G36*
G01*
X105790750Y-77701500D02*
X106553250Y-77701500D01*
G75*
G02*
X106772000Y-77920250I0J-218750D01*
G01*
X106772000Y-78357750D01*
G75*
G02*
X106553250Y-78576500I-218750J0D01*
G01*
X105790750Y-78576500D01*
G75*
G02*
X105572000Y-78357750I0J218750D01*
G01*
X105572000Y-77920250D01*
G75*
G02*
X105790750Y-77701500I218750J0D01*
G01*
G37*
%TD.AperFunction*%
%TO.P,LRF1,2*%
%TO.N,Net-(CC2-Pad2)*%
%TA.AperFunction,SMDPad,CuDef*%
G36*
G01*
X105790750Y-79826500D02*
X106553250Y-79826500D01*
G75*
G02*
X106772000Y-80045250I0J-218750D01*
G01*
X106772000Y-80482750D01*
G75*
G02*
X106553250Y-80701500I-218750J0D01*
G01*
X105790750Y-80701500D01*
G75*
G02*
X105572000Y-80482750I0J218750D01*
G01*
X105572000Y-80045250D01*
G75*
G02*
X105790750Y-79826500I218750J0D01*
G01*
G37*
%TD.AperFunction*%
%TD*%
D10*
%TO.P,U1,3*%
%TO.N,Net-(U1-Pad3)*%
X101234200Y-80768000D03*
%TO.P,U1,7*%
%TO.N,Net-(CC2-Pad2)*%
X103134200Y-80268000D03*
%TO.P,U1,8*%
%TO.N,Net-(U1-Pad8)*%
X103134200Y-79768000D03*
D11*
%TO.P,U1,9*%
%TO.N,GND*%
X102184200Y-80518000D03*
D10*
%TO.P,U1,1*%
%TO.N,VCC*%
X101234200Y-79768000D03*
%TO.P,U1,2*%
%TO.N,Net-(CC1-Pad1)*%
X101234200Y-80268000D03*
%TO.P,U1,4*%
%TO.N,Net-(U1-Pad4)*%
X101234200Y-81268000D03*
%TO.P,U1,5*%
%TO.N,GND*%
X103134200Y-81268000D03*
%TO.P,U1,6*%
%TO.N,Net-(U1-Pad6)*%
X103134200Y-80768000D03*
%TD*%
D12*
%TO.P,J1,1*%
%TO.N,Net-(CC1-Pad2)*%
X93472000Y-80264000D03*
D13*
%TO.P,J1,2_1*%
%TO.N,GND*%
X93672000Y-77439000D03*
%TO.P,J1,3_1*%
X93672000Y-83089000D03*
%TD*%
%TO.P,J2,3_1*%
%TO.N,GND*%
X113211000Y-77439000D03*
%TO.P,J2,2_1*%
X113211000Y-83089000D03*
D12*
%TO.P,J2,1*%
%TO.N,Net-(CC2-Pad1)*%
X113411000Y-80264000D03*
%TD*%
D14*
%TO.N,VCC*%
X100076000Y-72898000D03*
D15*
%TO.N,GND*%
X97536000Y-76860400D03*
X96012000Y-75336400D03*
X97525000Y-75350000D03*
X109601000Y-77216000D03*
X108204000Y-77216000D03*
X103784400Y-78435200D03*
X102158800Y-78435200D03*
X102158800Y-77368400D03*
D14*
X98552000Y-72898000D03*
D15*
X108254800Y-84988400D03*
X105206800Y-84988400D03*
X100584000Y-83464400D03*
X103632000Y-83464400D03*
X99110800Y-83464400D03*
X97536000Y-83464400D03*
X106680000Y-84988400D03*
X103632000Y-84988400D03*
X108254800Y-83464400D03*
X102158800Y-84988400D03*
X100584000Y-84988400D03*
X99110800Y-84988400D03*
X97536000Y-84988400D03*
X96062800Y-84988400D03*
X106680000Y-83464400D03*
X105206800Y-83464400D03*
X102158800Y-83464400D03*
%TD*%
D16*
%TO.N,Net-(CC1-Pad1)*%
X99060000Y-80264000D02*
X101346000Y-80264000D01*
D17*
%TO.N,Net-(CC1-Pad2)*%
X94996000Y-80264000D02*
X97028000Y-80264000D01*
D16*
%TO.N,Net-(CC2-Pad2)*%
X103124000Y-80264000D02*
X105624000Y-80264000D01*
X105624000Y-80264000D02*
X105640000Y-80280000D01*
X106172000Y-80264000D02*
X108204000Y-80264000D01*
D17*
%TO.N,Net-(CC2-Pad1)*%
X109916000Y-80264000D02*
X113665000Y-80264000D01*
D18*
%TO.N,VCC*%
X100076000Y-75692000D02*
X100076000Y-78740000D01*
X100076000Y-72898000D02*
X105410000Y-72898000D01*
D16*
X105918000Y-75946000D02*
X106172000Y-76200000D01*
D18*
X106172000Y-76200000D02*
X106172000Y-78232000D01*
X100076000Y-72898000D02*
X100076000Y-75692000D01*
X105410000Y-72898000D02*
X106172000Y-73660000D01*
X106172000Y-73660000D02*
X106172000Y-76200000D01*
D16*
X100076000Y-78740000D02*
X100076000Y-78994000D01*
X100076000Y-78994000D02*
X100838000Y-79756000D01*
X100838000Y-79756000D02*
X101346000Y-79756000D01*
%TO.N,GND*%
X102174000Y-80514000D02*
X102174000Y-80774002D01*
X102174000Y-81014000D02*
X102440000Y-81280000D01*
X102440000Y-81280000D02*
X103124000Y-81280000D01*
X103124000Y-81264000D02*
X103124000Y-81280000D01*
%TD*%
D19*
%TO.N,GND*%
X105095004Y-81178496D02*
X105244106Y-81300861D01*
X105414215Y-81391786D01*
X105598794Y-81447778D01*
X105790750Y-81466684D01*
X106553250Y-81466684D01*
X106745206Y-81447778D01*
X106929785Y-81391786D01*
X106974952Y-81367644D01*
X107048157Y-81456843D01*
X107201994Y-81583095D01*
X107377506Y-81676908D01*
X107567947Y-81734678D01*
X107766000Y-81754184D01*
X108266000Y-81754184D01*
X108464053Y-81734678D01*
X108654494Y-81676908D01*
X108830006Y-81583095D01*
X108966000Y-81471487D01*
X109101994Y-81583095D01*
X109277506Y-81676908D01*
X109467947Y-81734678D01*
X109600141Y-81747698D01*
X109619694Y-81753629D01*
X109841751Y-81775500D01*
X110690137Y-81775500D01*
X110685886Y-81777772D01*
X110569932Y-81872932D01*
X110474772Y-81988886D01*
X110404061Y-82121176D01*
X110360518Y-82264720D01*
X110345815Y-82414000D01*
X110349500Y-82898125D01*
X110539875Y-83088500D01*
X113210500Y-83088500D01*
X113210500Y-83068500D01*
X113211500Y-83068500D01*
X113211500Y-83088500D01*
X113231500Y-83088500D01*
X113231500Y-83089500D01*
X113211500Y-83089500D01*
X113211500Y-84335125D01*
X113401875Y-84525500D01*
X114783500Y-84528167D01*
X114783500Y-86081100D01*
X92201568Y-86081100D01*
X92204179Y-84527965D01*
X93481125Y-84525500D01*
X93671500Y-84335125D01*
X93671500Y-83089500D01*
X93672500Y-83089500D01*
X93672500Y-84335125D01*
X93862875Y-84525500D01*
X95772000Y-84529185D01*
X95921280Y-84514482D01*
X96064824Y-84470939D01*
X96197114Y-84400228D01*
X96313068Y-84305068D01*
X96408228Y-84189114D01*
X96478939Y-84056824D01*
X96522482Y-83913280D01*
X96537185Y-83764000D01*
X110345815Y-83764000D01*
X110360518Y-83913280D01*
X110404061Y-84056824D01*
X110474772Y-84189114D01*
X110569932Y-84305068D01*
X110685886Y-84400228D01*
X110818176Y-84470939D01*
X110961720Y-84514482D01*
X111111000Y-84529185D01*
X113020125Y-84525500D01*
X113210500Y-84335125D01*
X113210500Y-83089500D01*
X110539875Y-83089500D01*
X110349500Y-83279875D01*
X110345815Y-83764000D01*
X96537185Y-83764000D01*
X96533500Y-83279875D01*
X96343125Y-83089500D01*
X93672500Y-83089500D01*
X93671500Y-83089500D01*
X93651500Y-83089500D01*
X93651500Y-83088500D01*
X93671500Y-83088500D01*
X93671500Y-83068500D01*
X93672500Y-83068500D01*
X93672500Y-83088500D01*
X96343125Y-83088500D01*
X96533500Y-82898125D01*
X96537185Y-82414000D01*
X96522482Y-82264720D01*
X96478939Y-82121176D01*
X96408228Y-81988886D01*
X96313068Y-81872932D01*
X96197114Y-81777772D01*
X96192863Y-81775500D01*
X97102249Y-81775500D01*
X97318671Y-81754184D01*
X97410000Y-81754184D01*
X97608053Y-81734678D01*
X97798494Y-81676908D01*
X97974006Y-81583095D01*
X98110000Y-81471487D01*
X98245994Y-81583095D01*
X98421506Y-81676908D01*
X98611947Y-81734678D01*
X98810000Y-81754184D01*
X99310000Y-81754184D01*
X99508053Y-81734678D01*
X99698494Y-81676908D01*
X99874006Y-81583095D01*
X100027843Y-81456843D01*
X100154095Y-81303006D01*
X100219016Y-81181547D01*
X100219016Y-81393000D01*
X100233719Y-81542280D01*
X100277262Y-81685823D01*
X100347973Y-81818113D01*
X100443133Y-81934067D01*
X100559087Y-82029227D01*
X100691377Y-82099938D01*
X100834920Y-82143481D01*
X100984200Y-82158184D01*
X101484200Y-82158184D01*
X101633480Y-82143481D01*
X101777023Y-82099938D01*
X101810393Y-82082101D01*
X101993325Y-82079500D01*
X102183700Y-81889125D01*
X102183700Y-81699738D01*
X102184669Y-81697925D01*
X102184700Y-81698010D01*
X102184700Y-81889125D01*
X102375075Y-82079500D01*
X102560195Y-82082133D01*
X102628356Y-82114146D01*
X102773960Y-82150202D01*
X102923801Y-82157160D01*
X102943825Y-82154500D01*
X103134200Y-81964125D01*
X103324575Y-82154500D01*
X103344599Y-82157160D01*
X103494440Y-82150202D01*
X103640044Y-82114146D01*
X103775817Y-82050377D01*
X103896540Y-81961345D01*
X103997574Y-81850472D01*
X104075037Y-81722018D01*
X104125951Y-81580920D01*
X104145700Y-81458375D01*
X104013671Y-81326346D01*
X104020427Y-81318113D01*
X104091138Y-81185823D01*
X104101853Y-81150500D01*
X105072028Y-81150500D01*
X105095004Y-81178496D01*
%TA.AperFunction,Conductor*%
D20*
G36*
X105095004Y-81178496D02*
G01*
X105244106Y-81300861D01*
X105414215Y-81391786D01*
X105598794Y-81447778D01*
X105790750Y-81466684D01*
X106553250Y-81466684D01*
X106745206Y-81447778D01*
X106929785Y-81391786D01*
X106974952Y-81367644D01*
X107048157Y-81456843D01*
X107201994Y-81583095D01*
X107377506Y-81676908D01*
X107567947Y-81734678D01*
X107766000Y-81754184D01*
X108266000Y-81754184D01*
X108464053Y-81734678D01*
X108654494Y-81676908D01*
X108830006Y-81583095D01*
X108966000Y-81471487D01*
X109101994Y-81583095D01*
X109277506Y-81676908D01*
X109467947Y-81734678D01*
X109600141Y-81747698D01*
X109619694Y-81753629D01*
X109841751Y-81775500D01*
X110690137Y-81775500D01*
X110685886Y-81777772D01*
X110569932Y-81872932D01*
X110474772Y-81988886D01*
X110404061Y-82121176D01*
X110360518Y-82264720D01*
X110345815Y-82414000D01*
X110349500Y-82898125D01*
X110539875Y-83088500D01*
X113210500Y-83088500D01*
X113210500Y-83068500D01*
X113211500Y-83068500D01*
X113211500Y-83088500D01*
X113231500Y-83088500D01*
X113231500Y-83089500D01*
X113211500Y-83089500D01*
X113211500Y-84335125D01*
X113401875Y-84525500D01*
X114783500Y-84528167D01*
X114783500Y-86081100D01*
X92201568Y-86081100D01*
X92204179Y-84527965D01*
X93481125Y-84525500D01*
X93671500Y-84335125D01*
X93671500Y-83089500D01*
X93672500Y-83089500D01*
X93672500Y-84335125D01*
X93862875Y-84525500D01*
X95772000Y-84529185D01*
X95921280Y-84514482D01*
X96064824Y-84470939D01*
X96197114Y-84400228D01*
X96313068Y-84305068D01*
X96408228Y-84189114D01*
X96478939Y-84056824D01*
X96522482Y-83913280D01*
X96537185Y-83764000D01*
X110345815Y-83764000D01*
X110360518Y-83913280D01*
X110404061Y-84056824D01*
X110474772Y-84189114D01*
X110569932Y-84305068D01*
X110685886Y-84400228D01*
X110818176Y-84470939D01*
X110961720Y-84514482D01*
X111111000Y-84529185D01*
X113020125Y-84525500D01*
X113210500Y-84335125D01*
X113210500Y-83089500D01*
X110539875Y-83089500D01*
X110349500Y-83279875D01*
X110345815Y-83764000D01*
X96537185Y-83764000D01*
X96533500Y-83279875D01*
X96343125Y-83089500D01*
X93672500Y-83089500D01*
X93671500Y-83089500D01*
X93651500Y-83089500D01*
X93651500Y-83088500D01*
X93671500Y-83088500D01*
X93671500Y-83068500D01*
X93672500Y-83068500D01*
X93672500Y-83088500D01*
X96343125Y-83088500D01*
X96533500Y-82898125D01*
X96537185Y-82414000D01*
X96522482Y-82264720D01*
X96478939Y-82121176D01*
X96408228Y-81988886D01*
X96313068Y-81872932D01*
X96197114Y-81777772D01*
X96192863Y-81775500D01*
X97102249Y-81775500D01*
X97318671Y-81754184D01*
X97410000Y-81754184D01*
X97608053Y-81734678D01*
X97798494Y-81676908D01*
X97974006Y-81583095D01*
X98110000Y-81471487D01*
X98245994Y-81583095D01*
X98421506Y-81676908D01*
X98611947Y-81734678D01*
X98810000Y-81754184D01*
X99310000Y-81754184D01*
X99508053Y-81734678D01*
X99698494Y-81676908D01*
X99874006Y-81583095D01*
X100027843Y-81456843D01*
X100154095Y-81303006D01*
X100219016Y-81181547D01*
X100219016Y-81393000D01*
X100233719Y-81542280D01*
X100277262Y-81685823D01*
X100347973Y-81818113D01*
X100443133Y-81934067D01*
X100559087Y-82029227D01*
X100691377Y-82099938D01*
X100834920Y-82143481D01*
X100984200Y-82158184D01*
X101484200Y-82158184D01*
X101633480Y-82143481D01*
X101777023Y-82099938D01*
X101810393Y-82082101D01*
X101993325Y-82079500D01*
X102183700Y-81889125D01*
X102183700Y-81699738D01*
X102184669Y-81697925D01*
X102184700Y-81698010D01*
X102184700Y-81889125D01*
X102375075Y-82079500D01*
X102560195Y-82082133D01*
X102628356Y-82114146D01*
X102773960Y-82150202D01*
X102923801Y-82157160D01*
X102943825Y-82154500D01*
X103134200Y-81964125D01*
X103324575Y-82154500D01*
X103344599Y-82157160D01*
X103494440Y-82150202D01*
X103640044Y-82114146D01*
X103775817Y-82050377D01*
X103896540Y-81961345D01*
X103997574Y-81850472D01*
X104075037Y-81722018D01*
X104125951Y-81580920D01*
X104145700Y-81458375D01*
X104013671Y-81326346D01*
X104020427Y-81318113D01*
X104091138Y-81185823D01*
X104101853Y-81150500D01*
X105072028Y-81150500D01*
X105095004Y-81178496D01*
G37*
%TD.AperFunction*%
D19*
X103010500Y-73977125D02*
X103200875Y-74167500D01*
X104271500Y-74167500D01*
X104271500Y-74147500D01*
X104272500Y-74147500D01*
X104272500Y-74167500D01*
X104292500Y-74167500D01*
X104292500Y-74168500D01*
X104272500Y-74168500D01*
X104272500Y-74188500D01*
X104271500Y-74188500D01*
X104271500Y-74168500D01*
X103200875Y-74168500D01*
X103010500Y-74358875D01*
X103009587Y-74491146D01*
X102956068Y-74425932D01*
X102840114Y-74330772D01*
X102707824Y-74260061D01*
X102564280Y-74216518D01*
X102415000Y-74201815D01*
X102105875Y-74205500D01*
X101915500Y-74395875D01*
X101915500Y-75691500D01*
X101935500Y-75691500D01*
X101935500Y-75692500D01*
X101915500Y-75692500D01*
X101915500Y-76988125D01*
X102105875Y-77178500D01*
X102415000Y-77182185D01*
X102564280Y-77167482D01*
X102707824Y-77123939D01*
X102840114Y-77053228D01*
X102944969Y-76967177D01*
X102955518Y-77074280D01*
X102999061Y-77217824D01*
X103069772Y-77350114D01*
X103164932Y-77466068D01*
X103280886Y-77561228D01*
X103413176Y-77631939D01*
X103556720Y-77675482D01*
X103706000Y-77690185D01*
X104015125Y-77686500D01*
X104205500Y-77496125D01*
X104205500Y-76200500D01*
X104185500Y-76200500D01*
X104185500Y-76199500D01*
X104205500Y-76199500D01*
X104205500Y-76179500D01*
X104206500Y-76179500D01*
X104206500Y-76199500D01*
X104226500Y-76199500D01*
X104226500Y-76200500D01*
X104206500Y-76200500D01*
X104206500Y-77496125D01*
X104396875Y-77686500D01*
X104706000Y-77690185D01*
X104841326Y-77676856D01*
X104825722Y-77728294D01*
X104806816Y-77920250D01*
X104806816Y-78357750D01*
X104825722Y-78549706D01*
X104881714Y-78734285D01*
X104972639Y-78904394D01*
X105095004Y-79053496D01*
X105244106Y-79175861D01*
X105292073Y-79201500D01*
X105244106Y-79227139D01*
X105095004Y-79349504D01*
X105072028Y-79377500D01*
X104099426Y-79377500D01*
X104091138Y-79350177D01*
X104020427Y-79217887D01*
X103925267Y-79101933D01*
X103809313Y-79006773D01*
X103677023Y-78936062D01*
X103533480Y-78892519D01*
X103384200Y-78877816D01*
X102884200Y-78877816D01*
X102734920Y-78892519D01*
X102591377Y-78936062D01*
X102558007Y-78953899D01*
X102375075Y-78956500D01*
X102184700Y-79146875D01*
X102184700Y-79336262D01*
X102184200Y-79337197D01*
X102183700Y-79336262D01*
X102183700Y-79146875D01*
X101993325Y-78956500D01*
X101810393Y-78953899D01*
X101777023Y-78936062D01*
X101633480Y-78892519D01*
X101484200Y-78877816D01*
X101473983Y-78877816D01*
X101389548Y-78869500D01*
X101205200Y-78869500D01*
X101087500Y-78751800D01*
X101087500Y-77105404D01*
X101122176Y-77123939D01*
X101265720Y-77167482D01*
X101415000Y-77182185D01*
X101724125Y-77178500D01*
X101914500Y-76988125D01*
X101914500Y-75692500D01*
X101894500Y-75692500D01*
X101894500Y-75691500D01*
X101914500Y-75691500D01*
X101914500Y-74395875D01*
X101724125Y-74205500D01*
X101415000Y-74201815D01*
X101265720Y-74216518D01*
X101122176Y-74260061D01*
X101087500Y-74278596D01*
X101087500Y-73909500D01*
X103010033Y-73909500D01*
X103010500Y-73977125D01*
%TA.AperFunction,Conductor*%
D20*
G36*
X103010500Y-73977125D02*
G01*
X103200875Y-74167500D01*
X104271500Y-74167500D01*
X104271500Y-74147500D01*
X104272500Y-74147500D01*
X104272500Y-74167500D01*
X104292500Y-74167500D01*
X104292500Y-74168500D01*
X104272500Y-74168500D01*
X104272500Y-74188500D01*
X104271500Y-74188500D01*
X104271500Y-74168500D01*
X103200875Y-74168500D01*
X103010500Y-74358875D01*
X103009587Y-74491146D01*
X102956068Y-74425932D01*
X102840114Y-74330772D01*
X102707824Y-74260061D01*
X102564280Y-74216518D01*
X102415000Y-74201815D01*
X102105875Y-74205500D01*
X101915500Y-74395875D01*
X101915500Y-75691500D01*
X101935500Y-75691500D01*
X101935500Y-75692500D01*
X101915500Y-75692500D01*
X101915500Y-76988125D01*
X102105875Y-77178500D01*
X102415000Y-77182185D01*
X102564280Y-77167482D01*
X102707824Y-77123939D01*
X102840114Y-77053228D01*
X102944969Y-76967177D01*
X102955518Y-77074280D01*
X102999061Y-77217824D01*
X103069772Y-77350114D01*
X103164932Y-77466068D01*
X103280886Y-77561228D01*
X103413176Y-77631939D01*
X103556720Y-77675482D01*
X103706000Y-77690185D01*
X104015125Y-77686500D01*
X104205500Y-77496125D01*
X104205500Y-76200500D01*
X104185500Y-76200500D01*
X104185500Y-76199500D01*
X104205500Y-76199500D01*
X104205500Y-76179500D01*
X104206500Y-76179500D01*
X104206500Y-76199500D01*
X104226500Y-76199500D01*
X104226500Y-76200500D01*
X104206500Y-76200500D01*
X104206500Y-77496125D01*
X104396875Y-77686500D01*
X104706000Y-77690185D01*
X104841326Y-77676856D01*
X104825722Y-77728294D01*
X104806816Y-77920250D01*
X104806816Y-78357750D01*
X104825722Y-78549706D01*
X104881714Y-78734285D01*
X104972639Y-78904394D01*
X105095004Y-79053496D01*
X105244106Y-79175861D01*
X105292073Y-79201500D01*
X105244106Y-79227139D01*
X105095004Y-79349504D01*
X105072028Y-79377500D01*
X104099426Y-79377500D01*
X104091138Y-79350177D01*
X104020427Y-79217887D01*
X103925267Y-79101933D01*
X103809313Y-79006773D01*
X103677023Y-78936062D01*
X103533480Y-78892519D01*
X103384200Y-78877816D01*
X102884200Y-78877816D01*
X102734920Y-78892519D01*
X102591377Y-78936062D01*
X102558007Y-78953899D01*
X102375075Y-78956500D01*
X102184700Y-79146875D01*
X102184700Y-79336262D01*
X102184200Y-79337197D01*
X102183700Y-79336262D01*
X102183700Y-79146875D01*
X101993325Y-78956500D01*
X101810393Y-78953899D01*
X101777023Y-78936062D01*
X101633480Y-78892519D01*
X101484200Y-78877816D01*
X101473983Y-78877816D01*
X101389548Y-78869500D01*
X101205200Y-78869500D01*
X101087500Y-78751800D01*
X101087500Y-77105404D01*
X101122176Y-77123939D01*
X101265720Y-77167482D01*
X101415000Y-77182185D01*
X101724125Y-77178500D01*
X101914500Y-76988125D01*
X101914500Y-75692500D01*
X101894500Y-75692500D01*
X101894500Y-75691500D01*
X101914500Y-75691500D01*
X101914500Y-74395875D01*
X101724125Y-74205500D01*
X101415000Y-74201815D01*
X101265720Y-74216518D01*
X101122176Y-74260061D01*
X101087500Y-74278596D01*
X101087500Y-73909500D01*
X103010033Y-73909500D01*
X103010500Y-73977125D01*
G37*
%TD.AperFunction*%
D19*
X114783501Y-71524670D02*
X114783501Y-75999833D01*
X113401875Y-76002500D01*
X113211500Y-76192875D01*
X113211500Y-77438500D01*
X113231500Y-77438500D01*
X113231500Y-77439500D01*
X113211500Y-77439500D01*
X113211500Y-77459500D01*
X113210500Y-77459500D01*
X113210500Y-77439500D01*
X110539875Y-77439500D01*
X110349500Y-77629875D01*
X110345815Y-78114000D01*
X110360518Y-78263280D01*
X110404061Y-78406824D01*
X110474772Y-78539114D01*
X110569932Y-78655068D01*
X110685886Y-78750228D01*
X110690137Y-78752500D01*
X109841751Y-78752500D01*
X109619694Y-78774371D01*
X109600141Y-78780302D01*
X109467947Y-78793322D01*
X109277506Y-78851092D01*
X109101994Y-78944905D01*
X108966000Y-79056513D01*
X108830006Y-78944905D01*
X108654494Y-78851092D01*
X108464053Y-78793322D01*
X108266000Y-78773816D01*
X107766000Y-78773816D01*
X107567947Y-78793322D01*
X107404176Y-78843002D01*
X107462286Y-78734285D01*
X107518278Y-78549706D01*
X107537184Y-78357750D01*
X107537184Y-77920250D01*
X107518278Y-77728294D01*
X107462286Y-77543715D01*
X107371361Y-77373606D01*
X107248996Y-77224504D01*
X107220393Y-77201030D01*
X107293908Y-77063494D01*
X107351678Y-76873053D01*
X107362418Y-76764000D01*
X110345815Y-76764000D01*
X110349500Y-77248125D01*
X110539875Y-77438500D01*
X113210500Y-77438500D01*
X113210500Y-76192875D01*
X113020125Y-76002500D01*
X111111000Y-75998815D01*
X110961720Y-76013518D01*
X110818176Y-76057061D01*
X110685886Y-76127772D01*
X110569932Y-76222932D01*
X110474772Y-76338886D01*
X110404061Y-76471176D01*
X110360518Y-76614720D01*
X110345815Y-76764000D01*
X107362418Y-76764000D01*
X107371184Y-76675000D01*
X107371184Y-75725000D01*
X107351678Y-75526947D01*
X107293908Y-75336506D01*
X107241020Y-75237560D01*
X107266095Y-75207006D01*
X107359908Y-75031494D01*
X107417678Y-74841053D01*
X107437184Y-74643000D01*
X107437184Y-73693000D01*
X107417678Y-73494947D01*
X107359908Y-73304506D01*
X107266095Y-73128994D01*
X107139843Y-72975157D01*
X106986006Y-72848905D01*
X106810494Y-72755092D01*
X106648397Y-72705920D01*
X106160378Y-72217902D01*
X106128699Y-72179301D01*
X105974678Y-72052899D01*
X105798957Y-71958974D01*
X105608289Y-71901136D01*
X105459689Y-71886500D01*
X105459681Y-71886500D01*
X105410000Y-71881607D01*
X105360319Y-71886500D01*
X100989952Y-71886500D01*
X100943906Y-71840454D01*
X100720912Y-71691454D01*
X100473135Y-71588821D01*
X100210096Y-71536500D01*
X99941904Y-71536500D01*
X99678865Y-71588821D01*
X99431088Y-71691454D01*
X99208094Y-71840454D01*
X99018454Y-72030094D01*
X98869454Y-72253088D01*
X98766821Y-72500865D01*
X98714500Y-72763904D01*
X98714500Y-73032096D01*
X98766821Y-73295135D01*
X98869454Y-73542912D01*
X99018454Y-73765906D01*
X99064500Y-73811952D01*
X99064501Y-74484923D01*
X99047157Y-74499157D01*
X98920905Y-74652994D01*
X98827092Y-74828506D01*
X98769322Y-75018947D01*
X98749816Y-75217000D01*
X98749816Y-76167000D01*
X98769322Y-76365053D01*
X98827092Y-76555494D01*
X98920905Y-76731006D01*
X99047157Y-76884843D01*
X99064500Y-76899076D01*
X99064501Y-78773816D01*
X98810000Y-78773816D01*
X98611947Y-78793322D01*
X98421506Y-78851092D01*
X98245994Y-78944905D01*
X98110000Y-79056513D01*
X97974006Y-78944905D01*
X97798494Y-78851092D01*
X97608053Y-78793322D01*
X97410000Y-78773816D01*
X97318671Y-78773816D01*
X97102249Y-78752500D01*
X96192863Y-78752500D01*
X96197114Y-78750228D01*
X96313068Y-78655068D01*
X96408228Y-78539114D01*
X96478939Y-78406824D01*
X96522482Y-78263280D01*
X96537185Y-78114000D01*
X96533500Y-77629875D01*
X96343125Y-77439500D01*
X93672500Y-77439500D01*
X93672500Y-77459500D01*
X93671500Y-77459500D01*
X93671500Y-77439500D01*
X93651500Y-77439500D01*
X93651500Y-77438500D01*
X93671500Y-77438500D01*
X93671500Y-76192875D01*
X93672500Y-76192875D01*
X93672500Y-77438500D01*
X96343125Y-77438500D01*
X96533500Y-77248125D01*
X96537185Y-76764000D01*
X96522482Y-76614720D01*
X96478939Y-76471176D01*
X96408228Y-76338886D01*
X96313068Y-76222932D01*
X96197114Y-76127772D01*
X96064824Y-76057061D01*
X95921280Y-76013518D01*
X95772000Y-75998815D01*
X93862875Y-76002500D01*
X93672500Y-76192875D01*
X93671500Y-76192875D01*
X93481125Y-76002500D01*
X92218512Y-76000063D01*
X92226244Y-71399352D01*
X114783501Y-71524670D01*
%TA.AperFunction,Conductor*%
D20*
G36*
X114783501Y-71524670D02*
G01*
X114783501Y-75999833D01*
X113401875Y-76002500D01*
X113211500Y-76192875D01*
X113211500Y-77438500D01*
X113231500Y-77438500D01*
X113231500Y-77439500D01*
X113211500Y-77439500D01*
X113211500Y-77459500D01*
X113210500Y-77459500D01*
X113210500Y-77439500D01*
X110539875Y-77439500D01*
X110349500Y-77629875D01*
X110345815Y-78114000D01*
X110360518Y-78263280D01*
X110404061Y-78406824D01*
X110474772Y-78539114D01*
X110569932Y-78655068D01*
X110685886Y-78750228D01*
X110690137Y-78752500D01*
X109841751Y-78752500D01*
X109619694Y-78774371D01*
X109600141Y-78780302D01*
X109467947Y-78793322D01*
X109277506Y-78851092D01*
X109101994Y-78944905D01*
X108966000Y-79056513D01*
X108830006Y-78944905D01*
X108654494Y-78851092D01*
X108464053Y-78793322D01*
X108266000Y-78773816D01*
X107766000Y-78773816D01*
X107567947Y-78793322D01*
X107404176Y-78843002D01*
X107462286Y-78734285D01*
X107518278Y-78549706D01*
X107537184Y-78357750D01*
X107537184Y-77920250D01*
X107518278Y-77728294D01*
X107462286Y-77543715D01*
X107371361Y-77373606D01*
X107248996Y-77224504D01*
X107220393Y-77201030D01*
X107293908Y-77063494D01*
X107351678Y-76873053D01*
X107362418Y-76764000D01*
X110345815Y-76764000D01*
X110349500Y-77248125D01*
X110539875Y-77438500D01*
X113210500Y-77438500D01*
X113210500Y-76192875D01*
X113020125Y-76002500D01*
X111111000Y-75998815D01*
X110961720Y-76013518D01*
X110818176Y-76057061D01*
X110685886Y-76127772D01*
X110569932Y-76222932D01*
X110474772Y-76338886D01*
X110404061Y-76471176D01*
X110360518Y-76614720D01*
X110345815Y-76764000D01*
X107362418Y-76764000D01*
X107371184Y-76675000D01*
X107371184Y-75725000D01*
X107351678Y-75526947D01*
X107293908Y-75336506D01*
X107241020Y-75237560D01*
X107266095Y-75207006D01*
X107359908Y-75031494D01*
X107417678Y-74841053D01*
X107437184Y-74643000D01*
X107437184Y-73693000D01*
X107417678Y-73494947D01*
X107359908Y-73304506D01*
X107266095Y-73128994D01*
X107139843Y-72975157D01*
X106986006Y-72848905D01*
X106810494Y-72755092D01*
X106648397Y-72705920D01*
X106160378Y-72217902D01*
X106128699Y-72179301D01*
X105974678Y-72052899D01*
X105798957Y-71958974D01*
X105608289Y-71901136D01*
X105459689Y-71886500D01*
X105459681Y-71886500D01*
X105410000Y-71881607D01*
X105360319Y-71886500D01*
X100989952Y-71886500D01*
X100943906Y-71840454D01*
X100720912Y-71691454D01*
X100473135Y-71588821D01*
X100210096Y-71536500D01*
X99941904Y-71536500D01*
X99678865Y-71588821D01*
X99431088Y-71691454D01*
X99208094Y-71840454D01*
X99018454Y-72030094D01*
X98869454Y-72253088D01*
X98766821Y-72500865D01*
X98714500Y-72763904D01*
X98714500Y-73032096D01*
X98766821Y-73295135D01*
X98869454Y-73542912D01*
X99018454Y-73765906D01*
X99064500Y-73811952D01*
X99064501Y-74484923D01*
X99047157Y-74499157D01*
X98920905Y-74652994D01*
X98827092Y-74828506D01*
X98769322Y-75018947D01*
X98749816Y-75217000D01*
X98749816Y-76167000D01*
X98769322Y-76365053D01*
X98827092Y-76555494D01*
X98920905Y-76731006D01*
X99047157Y-76884843D01*
X99064500Y-76899076D01*
X99064501Y-78773816D01*
X98810000Y-78773816D01*
X98611947Y-78793322D01*
X98421506Y-78851092D01*
X98245994Y-78944905D01*
X98110000Y-79056513D01*
X97974006Y-78944905D01*
X97798494Y-78851092D01*
X97608053Y-78793322D01*
X97410000Y-78773816D01*
X97318671Y-78773816D01*
X97102249Y-78752500D01*
X96192863Y-78752500D01*
X96197114Y-78750228D01*
X96313068Y-78655068D01*
X96408228Y-78539114D01*
X96478939Y-78406824D01*
X96522482Y-78263280D01*
X96537185Y-78114000D01*
X96533500Y-77629875D01*
X96343125Y-77439500D01*
X93672500Y-77439500D01*
X93672500Y-77459500D01*
X93671500Y-77459500D01*
X93671500Y-77439500D01*
X93651500Y-77439500D01*
X93651500Y-77438500D01*
X93671500Y-77438500D01*
X93671500Y-76192875D01*
X93672500Y-76192875D01*
X93672500Y-77438500D01*
X96343125Y-77438500D01*
X96533500Y-77248125D01*
X96537185Y-76764000D01*
X96522482Y-76614720D01*
X96478939Y-76471176D01*
X96408228Y-76338886D01*
X96313068Y-76222932D01*
X96197114Y-76127772D01*
X96064824Y-76057061D01*
X95921280Y-76013518D01*
X95772000Y-75998815D01*
X93862875Y-76002500D01*
X93672500Y-76192875D01*
X93671500Y-76192875D01*
X93481125Y-76002500D01*
X92218512Y-76000063D01*
X92226244Y-71399352D01*
X114783501Y-71524670D01*
G37*
%TD.AperFunction*%
%TD*%
D21*
%TO.N,GND*%
X102501042Y-79035605D02*
X102490971Y-79686572D01*
X101858579Y-79679394D01*
X101840597Y-79028427D01*
X102501042Y-79035605D01*
%TA.AperFunction,Conductor*%
D20*
G36*
X102501042Y-79035605D02*
G01*
X102490971Y-79686572D01*
X101858579Y-79679394D01*
X101840597Y-79028427D01*
X102501042Y-79035605D01*
G37*
%TD.AperFunction*%
%TD*%
D19*
%TO.N,GND*%
X102299000Y-81380290D02*
X102299000Y-82106000D01*
X102107500Y-82106000D01*
X102107500Y-81833865D01*
X102120427Y-81818113D01*
X102191138Y-81685823D01*
X102234681Y-81542280D01*
X102249384Y-81393000D01*
X102249384Y-81319832D01*
X102299000Y-81380290D01*
%TA.AperFunction,Conductor*%
D20*
G36*
X102299000Y-81380290D02*
G01*
X102299000Y-82106000D01*
X102107500Y-82106000D01*
X102107500Y-81833865D01*
X102120427Y-81818113D01*
X102191138Y-81685823D01*
X102234681Y-81542280D01*
X102249384Y-81393000D01*
X102249384Y-81319832D01*
X102299000Y-81380290D01*
G37*
%TD.AperFunction*%
%TD*%
M02*
