%TF.GenerationSoftware,KiCad,Pcbnew,(5.1.9)-1*%
%TF.CreationDate,2021-01-25T16:28:54-05:00*%
%TF.ProjectId,LNA2,4c4e4132-2e6b-4696-9361-645f70636258,rev?*%
%TF.SameCoordinates,Original*%
%TF.FileFunction,Legend,Top*%
%TF.FilePolarity,Positive*%
%FSLAX46Y46*%
G04 Gerber Fmt 4.6, Leading zero omitted, Abs format (unit mm)*
G04 Created by KiCad (PCBNEW (5.1.9)-1) date 2021-01-25 16:28:54*
%MOMM*%
%LPD*%
G01*
G04 APERTURE LIST*
%ADD10C,0.150000*%
%ADD11C,0.120000*%
%ADD12C,0.015000*%
G04 APERTURE END LIST*
D10*
X110331428Y-71129000D02*
X110236190Y-71081380D01*
X110093333Y-71081380D01*
X109950476Y-71129000D01*
X109855238Y-71224238D01*
X109807619Y-71319476D01*
X109760000Y-71509952D01*
X109760000Y-71652809D01*
X109807619Y-71843285D01*
X109855238Y-71938523D01*
X109950476Y-72033761D01*
X110093333Y-72081380D01*
X110188571Y-72081380D01*
X110331428Y-72033761D01*
X110379047Y-71986142D01*
X110379047Y-71652809D01*
X110188571Y-71652809D01*
X110664761Y-71081380D02*
X111236190Y-71081380D01*
X110950476Y-72081380D02*
X110950476Y-71081380D01*
X112140952Y-72081380D02*
X111807619Y-71605190D01*
X111569523Y-72081380D02*
X111569523Y-71081380D01*
X111950476Y-71081380D01*
X112045714Y-71129000D01*
X112093333Y-71176619D01*
X112140952Y-71271857D01*
X112140952Y-71414714D01*
X112093333Y-71509952D01*
X112045714Y-71557571D01*
X111950476Y-71605190D01*
X111569523Y-71605190D01*
X112902857Y-71557571D02*
X112569523Y-71557571D01*
X112569523Y-72081380D02*
X112569523Y-71081380D01*
X113045714Y-71081380D01*
X108069523Y-72779000D02*
X107974285Y-72731380D01*
X107831428Y-72731380D01*
X107688571Y-72779000D01*
X107593333Y-72874238D01*
X107545714Y-72969476D01*
X107498095Y-73159952D01*
X107498095Y-73302809D01*
X107545714Y-73493285D01*
X107593333Y-73588523D01*
X107688571Y-73683761D01*
X107831428Y-73731380D01*
X107926666Y-73731380D01*
X108069523Y-73683761D01*
X108117142Y-73636142D01*
X108117142Y-73302809D01*
X107926666Y-73302809D01*
X108974285Y-73731380D02*
X108974285Y-73207571D01*
X108926666Y-73112333D01*
X108831428Y-73064714D01*
X108640952Y-73064714D01*
X108545714Y-73112333D01*
X108974285Y-73683761D02*
X108879047Y-73731380D01*
X108640952Y-73731380D01*
X108545714Y-73683761D01*
X108498095Y-73588523D01*
X108498095Y-73493285D01*
X108545714Y-73398047D01*
X108640952Y-73350428D01*
X108879047Y-73350428D01*
X108974285Y-73302809D01*
X109450476Y-73731380D02*
X109450476Y-73064714D01*
X109450476Y-72731380D02*
X109402857Y-72779000D01*
X109450476Y-72826619D01*
X109498095Y-72779000D01*
X109450476Y-72731380D01*
X109450476Y-72826619D01*
X109926666Y-73064714D02*
X109926666Y-73731380D01*
X109926666Y-73159952D02*
X109974285Y-73112333D01*
X110069523Y-73064714D01*
X110212380Y-73064714D01*
X110307619Y-73112333D01*
X110355238Y-73207571D01*
X110355238Y-73731380D01*
X111926666Y-73207571D02*
X112069523Y-73255190D01*
X112117142Y-73302809D01*
X112164761Y-73398047D01*
X112164761Y-73540904D01*
X112117142Y-73636142D01*
X112069523Y-73683761D01*
X111974285Y-73731380D01*
X111593333Y-73731380D01*
X111593333Y-72731380D01*
X111926666Y-72731380D01*
X112021904Y-72779000D01*
X112069523Y-72826619D01*
X112117142Y-72921857D01*
X112117142Y-73017095D01*
X112069523Y-73112333D01*
X112021904Y-73159952D01*
X111926666Y-73207571D01*
X111593333Y-73207571D01*
X112736190Y-73731380D02*
X112640952Y-73683761D01*
X112593333Y-73588523D01*
X112593333Y-72731380D01*
X113260000Y-73731380D02*
X113164761Y-73683761D01*
X113117142Y-73636142D01*
X113069523Y-73540904D01*
X113069523Y-73255190D01*
X113117142Y-73159952D01*
X113164761Y-73112333D01*
X113260000Y-73064714D01*
X113402857Y-73064714D01*
X113498095Y-73112333D01*
X113545714Y-73159952D01*
X113593333Y-73255190D01*
X113593333Y-73540904D01*
X113545714Y-73636142D01*
X113498095Y-73683761D01*
X113402857Y-73731380D01*
X113260000Y-73731380D01*
X114450476Y-73683761D02*
X114355238Y-73731380D01*
X114164761Y-73731380D01*
X114069523Y-73683761D01*
X114021904Y-73636142D01*
X113974285Y-73540904D01*
X113974285Y-73255190D01*
X114021904Y-73159952D01*
X114069523Y-73112333D01*
X114164761Y-73064714D01*
X114355238Y-73064714D01*
X114450476Y-73112333D01*
X114879047Y-73731380D02*
X114879047Y-72731380D01*
X114974285Y-73350428D02*
X115260000Y-73731380D01*
X115260000Y-73064714D02*
X114879047Y-73445666D01*
X109688571Y-75381380D02*
X109355238Y-74905190D01*
X109117142Y-75381380D02*
X109117142Y-74381380D01*
X109498095Y-74381380D01*
X109593333Y-74429000D01*
X109640952Y-74476619D01*
X109688571Y-74571857D01*
X109688571Y-74714714D01*
X109640952Y-74809952D01*
X109593333Y-74857571D01*
X109498095Y-74905190D01*
X109117142Y-74905190D01*
X110498095Y-75333761D02*
X110402857Y-75381380D01*
X110212380Y-75381380D01*
X110117142Y-75333761D01*
X110069523Y-75238523D01*
X110069523Y-74857571D01*
X110117142Y-74762333D01*
X110212380Y-74714714D01*
X110402857Y-74714714D01*
X110498095Y-74762333D01*
X110545714Y-74857571D01*
X110545714Y-74952809D01*
X110069523Y-75048047D01*
X110879047Y-74714714D02*
X111117142Y-75381380D01*
X111355238Y-74714714D01*
X113021904Y-75381380D02*
X112450476Y-75381380D01*
X112736190Y-75381380D02*
X112736190Y-74381380D01*
X112640952Y-74524238D01*
X112545714Y-74619476D01*
X112450476Y-74667095D01*
X113450476Y-75286142D02*
X113498095Y-75333761D01*
X113450476Y-75381380D01*
X113402857Y-75333761D01*
X113450476Y-75286142D01*
X113450476Y-75381380D01*
X114117142Y-74381380D02*
X114212380Y-74381380D01*
X114307619Y-74429000D01*
X114355238Y-74476619D01*
X114402857Y-74571857D01*
X114450476Y-74762333D01*
X114450476Y-75000428D01*
X114402857Y-75190904D01*
X114355238Y-75286142D01*
X114307619Y-75333761D01*
X114212380Y-75381380D01*
X114117142Y-75381380D01*
X114021904Y-75333761D01*
X113974285Y-75286142D01*
X113926666Y-75190904D01*
X113879047Y-75000428D01*
X113879047Y-74762333D01*
X113926666Y-74571857D01*
X113974285Y-74476619D01*
X114021904Y-74429000D01*
X114117142Y-74381380D01*
D11*
%TO.C,CC1*%
X98371252Y-79529000D02*
X97848748Y-79529000D01*
X98371252Y-80999000D02*
X97848748Y-80999000D01*
%TO.C,CC2*%
X109227252Y-80999000D02*
X108704748Y-80999000D01*
X109227252Y-79529000D02*
X108704748Y-79529000D01*
%TO.C,CDC1*%
X100703748Y-76427000D02*
X101226252Y-76427000D01*
X100703748Y-74957000D02*
X101226252Y-74957000D01*
%TO.C,CRF1*%
X105417252Y-76935000D02*
X104894748Y-76935000D01*
X105417252Y-75465000D02*
X104894748Y-75465000D01*
%TO.C,CRF2*%
X105483252Y-73433000D02*
X104960748Y-73433000D01*
X105483252Y-74903000D02*
X104960748Y-74903000D01*
%TO.C,LRF1*%
X105612000Y-78801878D02*
X105612000Y-79601122D01*
X106732000Y-78801878D02*
X106732000Y-79601122D01*
%TO.C,U1*%
X100684200Y-79398000D02*
X102684200Y-79398000D01*
X102684200Y-81638000D02*
X101684200Y-81638000D01*
D10*
X101802295Y-78070380D02*
X101802295Y-78879904D01*
X101849914Y-78975142D01*
X101897533Y-79022761D01*
X101992771Y-79070380D01*
X102183247Y-79070380D01*
X102278485Y-79022761D01*
X102326104Y-78975142D01*
X102373723Y-78879904D01*
X102373723Y-78070380D01*
X103373723Y-79070380D02*
X102802295Y-79070380D01*
X103088009Y-79070380D02*
X103088009Y-78070380D01*
X102992771Y-78213238D01*
X102897533Y-78308476D01*
X102802295Y-78356095D01*
%TO.C,J1*%
D12*
X96594050Y-80256283D02*
X97308336Y-80256283D01*
X97451193Y-80303902D01*
X97546431Y-80399140D01*
X97594050Y-80541997D01*
X97594050Y-80637235D01*
X97594050Y-79256283D02*
X97594050Y-79827711D01*
X97594050Y-79541997D02*
X96594050Y-79541997D01*
X96736908Y-79637235D01*
X96832146Y-79732473D01*
X96879765Y-79827711D01*
%TO.C,J2*%
X109193710Y-80938383D02*
X109907996Y-80938383D01*
X110050853Y-80986002D01*
X110146091Y-81081240D01*
X110193710Y-81224097D01*
X110193710Y-81319335D01*
X109288949Y-80509811D02*
X109241330Y-80462192D01*
X109193710Y-80366954D01*
X109193710Y-80128859D01*
X109241330Y-80033621D01*
X109288949Y-79986002D01*
X109384187Y-79938383D01*
X109479425Y-79938383D01*
X109622282Y-79986002D01*
X110193710Y-80557430D01*
X110193710Y-79938383D01*
%TD*%
M02*
