M48
; DRILL file {KiCad (5.1.9)-1} date 02/06/21 16:33:32
; FORMAT={-:-/ absolute / inch / decimal}
; #@! TF.CreationDate,2021-02-06T16:33:32-05:00
; #@! TF.GenerationSoftware,Kicad,Pcbnew,(5.1.9)-1
; #@! TF.FileFunction,Plated,1,2,PTH
FMAT,2
INCH
T1C0.0157
T2C0.0394
%
G90
G05
T1
X3.6Y-2.925
X3.6Y-2.965
X3.6Y-3.045
X3.6Y-3.27
X3.61Y-3.35
X3.62Y-3.49
X3.63Y-3.43
X3.6364Y-1.7623
X3.6364Y-2.0773
X3.6364Y-2.1954
X3.6364Y-2.3135
X3.6364Y-2.4316
X3.6364Y-2.5497
X3.6364Y-2.6678
X3.6364Y-2.7859
X3.65Y-3.05
X3.65Y-3.275
X3.655Y-2.925
X3.655Y-2.965
X3.665Y-3.35
X3.67Y-3.49
X3.68Y-3.43
X3.7Y-3.05
X3.705Y-2.925
X3.705Y-2.965
X3.705Y-3.27
X3.7151Y-1.8017
X3.7151Y-2.1166
X3.7151Y-2.2348
X3.7151Y-2.3529
X3.7151Y-2.471
X3.7151Y-2.5891
X3.7151Y-2.7072
X3.7151Y-2.8253
X3.72Y-3.35
X3.73Y-3.43
X3.73Y-3.49
X3.76Y-2.925
X3.76Y-2.965
X3.77Y-3.43
X3.78Y-3.49
X3.7939Y-2.1954
X3.7939Y-2.3135
X3.7939Y-2.4316
X3.7939Y-2.5497
X3.7939Y-2.6678
X3.7939Y-2.7859
X3.81Y-2.96
X3.81Y-3.02
X3.81Y-3.07
X3.82Y-3.24
X3.82Y-3.3
X3.82Y-3.36
X3.82Y-3.42
X3.8333Y-2.8647
X3.84Y-3.49
X3.87Y-2.96
X3.87Y-3.02
X3.87Y-3.07
X3.8726Y-2.7072
X3.88Y-3.24
X3.88Y-3.29
X3.88Y-3.34
X3.88Y-3.39
X3.88Y-3.44
X3.9Y-3.49
X3.93Y-3.24
X3.93Y-3.29
X3.93Y-3.34
X3.93Y-3.39
X3.93Y-3.44
X3.96Y-3.49
X3.99Y-3.24
X3.99Y-3.29
X3.99Y-3.34
X3.99Y-3.39
X3.99Y-3.44
X3.9907Y-2.4316
X3.9907Y-2.5497
X3.9907Y-2.7859
X4.0Y-3.09
X4.01Y-3.49
X4.02Y-3.05
X4.0301Y-1.7623
X4.0301Y-1.8804
X4.0301Y-1.9985
X4.0301Y-2.1166
X4.0301Y-2.3529
X4.0301Y-2.6285
X4.04Y-2.915
X4.04Y-3.24
X4.04Y-3.29
X4.04Y-3.34
X4.04Y-3.39
X4.04Y-3.44
X4.05Y-3.09
X4.0695Y-2.471
X4.0695Y-2.7072
X4.07Y-3.49
X4.1Y-3.09
X4.1Y-3.24
X4.1Y-3.29
X4.1Y-3.34
X4.1Y-3.39
X4.1Y-3.44
X4.1088Y-1.8017
X4.1088Y-1.9198
X4.1088Y-2.0379
X4.1088Y-2.156
X4.1088Y-2.2741
X4.1088Y-2.3922
X4.1088Y-2.5497
X4.1088Y-2.7859
X4.12Y-3.49
X4.1482Y-2.6285
X4.16Y-3.24
X4.16Y-3.29
X4.16Y-3.34
X4.16Y-3.39
X4.16Y-3.44
X4.18Y-3.49
X4.1876Y-1.7623
X4.1876Y-1.8804
X4.1876Y-1.9985
X4.1876Y-2.1166
X4.1876Y-2.2348
X4.1876Y-2.3529
X4.1876Y-2.471
X4.1876Y-2.7072
X4.22Y-3.24
X4.22Y-3.29
X4.22Y-3.34
X4.22Y-3.39
X4.22Y-3.44
X4.227Y-2.5497
X4.227Y-2.7859
X4.23Y-3.49
X4.25Y-3.08
X4.26Y-2.96
X4.26Y-3.02
X4.2663Y-1.8017
X4.2663Y-1.9198
X4.2663Y-2.0379
X4.2663Y-2.156
X4.2663Y-2.2741
X4.2663Y-2.3922
X4.2663Y-2.6285
X4.27Y-3.24
X4.27Y-3.29
X4.27Y-3.34
X4.27Y-3.39
X4.27Y-3.44
X4.29Y-3.49
X4.3Y-3.08
X4.3057Y-2.471
X4.3057Y-2.7072
X4.32Y-3.24
X4.32Y-3.3
X4.32Y-3.36
X4.33Y-2.92
X4.33Y-2.97
X4.33Y-3.03
X4.34Y-3.43
X4.3451Y-1.7623
X4.3451Y-1.8804
X4.3451Y-1.9985
X4.3451Y-2.1166
X4.3451Y-2.2348
X4.3451Y-2.3529
X4.3451Y-2.5497
X4.35Y-3.49
X4.365Y-3.27
X4.37Y-2.84
X4.37Y-2.89
X4.3844Y-2.4316
X4.3844Y-2.6285
X4.4Y-3.43
X4.41Y-3.49
X4.415Y-3.355
X4.42Y-2.79
X4.42Y-2.84
X4.42Y-2.89
X4.42Y-2.96
X4.4238Y-1.8017
X4.4238Y-1.9198
X4.4238Y-2.0379
X4.4238Y-2.156
X4.4238Y-2.2741
X4.4238Y-2.5104
X4.4238Y-2.7072
X4.44Y-3.275
X4.45Y-3.43
X4.455Y-3.05
X4.46Y-3.49
X4.4632Y-2.3529
X4.4632Y-2.5891
X4.47Y-2.79
X4.47Y-2.84
X4.47Y-2.89
X4.475Y-2.96
X4.475Y-3.355
X4.49Y-3.275
X4.5Y-3.05
X4.5Y-3.43
X4.5025Y-2.4316
X4.5025Y-2.6678
X4.52Y-2.79
X4.52Y-2.84
X4.52Y-2.89
X4.52Y-3.49
X4.53Y-2.96
X4.53Y-3.355
X4.54Y-3.05
X4.54Y-3.43
X4.545Y-3.275
T2
G00X3.68Y-1.9006
M15
G01X3.68Y-1.9794
M16
G05
G00X3.9044Y-1.8219
M15
G01X3.8257Y-1.8219
M16
G05
G00X3.9044Y-2.0581
M15
G01X3.8257Y-2.0581
M16
G05
T0
M30
