%TF.GenerationSoftware,KiCad,Pcbnew,(5.1.9)-1*%
%TF.CreationDate,2021-02-11T15:31:23-05:00*%
%TF.ProjectId,LNA2,4c4e4132-2e6b-4696-9361-645f70636258,rev?*%
%TF.SameCoordinates,Original*%
%TF.FileFunction,Legend,Top*%
%TF.FilePolarity,Positive*%
%FSLAX46Y46*%
G04 Gerber Fmt 4.6, Leading zero omitted, Abs format (unit mm)*
G04 Created by KiCad (PCBNEW (5.1.9)-1) date 2021-02-11 15:31:23*
%MOMM*%
%LPD*%
G01*
G04 APERTURE LIST*
%ADD10C,0.150000*%
%ADD11C,0.120000*%
%ADD12C,0.015000*%
G04 APERTURE END LIST*
D10*
X107410428Y-59318000D02*
X107315190Y-59270380D01*
X107172333Y-59270380D01*
X107029476Y-59318000D01*
X106934238Y-59413238D01*
X106886619Y-59508476D01*
X106839000Y-59698952D01*
X106839000Y-59841809D01*
X106886619Y-60032285D01*
X106934238Y-60127523D01*
X107029476Y-60222761D01*
X107172333Y-60270380D01*
X107267571Y-60270380D01*
X107410428Y-60222761D01*
X107458047Y-60175142D01*
X107458047Y-59841809D01*
X107267571Y-59841809D01*
X107743761Y-59270380D02*
X108315190Y-59270380D01*
X108029476Y-60270380D02*
X108029476Y-59270380D01*
X109219952Y-60270380D02*
X108886619Y-59794190D01*
X108648523Y-60270380D02*
X108648523Y-59270380D01*
X109029476Y-59270380D01*
X109124714Y-59318000D01*
X109172333Y-59365619D01*
X109219952Y-59460857D01*
X109219952Y-59603714D01*
X109172333Y-59698952D01*
X109124714Y-59746571D01*
X109029476Y-59794190D01*
X108648523Y-59794190D01*
X109981857Y-59746571D02*
X109648523Y-59746571D01*
X109648523Y-60270380D02*
X109648523Y-59270380D01*
X110124714Y-59270380D01*
X105148523Y-60968000D02*
X105053285Y-60920380D01*
X104910428Y-60920380D01*
X104767571Y-60968000D01*
X104672333Y-61063238D01*
X104624714Y-61158476D01*
X104577095Y-61348952D01*
X104577095Y-61491809D01*
X104624714Y-61682285D01*
X104672333Y-61777523D01*
X104767571Y-61872761D01*
X104910428Y-61920380D01*
X105005666Y-61920380D01*
X105148523Y-61872761D01*
X105196142Y-61825142D01*
X105196142Y-61491809D01*
X105005666Y-61491809D01*
X106053285Y-61920380D02*
X106053285Y-61396571D01*
X106005666Y-61301333D01*
X105910428Y-61253714D01*
X105719952Y-61253714D01*
X105624714Y-61301333D01*
X106053285Y-61872761D02*
X105958047Y-61920380D01*
X105719952Y-61920380D01*
X105624714Y-61872761D01*
X105577095Y-61777523D01*
X105577095Y-61682285D01*
X105624714Y-61587047D01*
X105719952Y-61539428D01*
X105958047Y-61539428D01*
X106053285Y-61491809D01*
X106529476Y-61920380D02*
X106529476Y-61253714D01*
X106529476Y-60920380D02*
X106481857Y-60968000D01*
X106529476Y-61015619D01*
X106577095Y-60968000D01*
X106529476Y-60920380D01*
X106529476Y-61015619D01*
X107005666Y-61253714D02*
X107005666Y-61920380D01*
X107005666Y-61348952D02*
X107053285Y-61301333D01*
X107148523Y-61253714D01*
X107291380Y-61253714D01*
X107386619Y-61301333D01*
X107434238Y-61396571D01*
X107434238Y-61920380D01*
X109005666Y-61396571D02*
X109148523Y-61444190D01*
X109196142Y-61491809D01*
X109243761Y-61587047D01*
X109243761Y-61729904D01*
X109196142Y-61825142D01*
X109148523Y-61872761D01*
X109053285Y-61920380D01*
X108672333Y-61920380D01*
X108672333Y-60920380D01*
X109005666Y-60920380D01*
X109100904Y-60968000D01*
X109148523Y-61015619D01*
X109196142Y-61110857D01*
X109196142Y-61206095D01*
X109148523Y-61301333D01*
X109100904Y-61348952D01*
X109005666Y-61396571D01*
X108672333Y-61396571D01*
X109815190Y-61920380D02*
X109719952Y-61872761D01*
X109672333Y-61777523D01*
X109672333Y-60920380D01*
X110339000Y-61920380D02*
X110243761Y-61872761D01*
X110196142Y-61825142D01*
X110148523Y-61729904D01*
X110148523Y-61444190D01*
X110196142Y-61348952D01*
X110243761Y-61301333D01*
X110339000Y-61253714D01*
X110481857Y-61253714D01*
X110577095Y-61301333D01*
X110624714Y-61348952D01*
X110672333Y-61444190D01*
X110672333Y-61729904D01*
X110624714Y-61825142D01*
X110577095Y-61872761D01*
X110481857Y-61920380D01*
X110339000Y-61920380D01*
X111529476Y-61872761D02*
X111434238Y-61920380D01*
X111243761Y-61920380D01*
X111148523Y-61872761D01*
X111100904Y-61825142D01*
X111053285Y-61729904D01*
X111053285Y-61444190D01*
X111100904Y-61348952D01*
X111148523Y-61301333D01*
X111243761Y-61253714D01*
X111434238Y-61253714D01*
X111529476Y-61301333D01*
X111958047Y-61920380D02*
X111958047Y-60920380D01*
X112053285Y-61539428D02*
X112339000Y-61920380D01*
X112339000Y-61253714D02*
X111958047Y-61634666D01*
X106767571Y-63570380D02*
X106434238Y-63094190D01*
X106196142Y-63570380D02*
X106196142Y-62570380D01*
X106577095Y-62570380D01*
X106672333Y-62618000D01*
X106719952Y-62665619D01*
X106767571Y-62760857D01*
X106767571Y-62903714D01*
X106719952Y-62998952D01*
X106672333Y-63046571D01*
X106577095Y-63094190D01*
X106196142Y-63094190D01*
X107577095Y-63522761D02*
X107481857Y-63570380D01*
X107291380Y-63570380D01*
X107196142Y-63522761D01*
X107148523Y-63427523D01*
X107148523Y-63046571D01*
X107196142Y-62951333D01*
X107291380Y-62903714D01*
X107481857Y-62903714D01*
X107577095Y-62951333D01*
X107624714Y-63046571D01*
X107624714Y-63141809D01*
X107148523Y-63237047D01*
X107958047Y-62903714D02*
X108196142Y-63570380D01*
X108434238Y-62903714D01*
X110100904Y-63570380D02*
X109529476Y-63570380D01*
X109815190Y-63570380D02*
X109815190Y-62570380D01*
X109719952Y-62713238D01*
X109624714Y-62808476D01*
X109529476Y-62856095D01*
X110529476Y-63475142D02*
X110577095Y-63522761D01*
X110529476Y-63570380D01*
X110481857Y-63522761D01*
X110529476Y-63475142D01*
X110529476Y-63570380D01*
X111196142Y-62570380D02*
X111291380Y-62570380D01*
X111386619Y-62618000D01*
X111434238Y-62665619D01*
X111481857Y-62760857D01*
X111529476Y-62951333D01*
X111529476Y-63189428D01*
X111481857Y-63379904D01*
X111434238Y-63475142D01*
X111386619Y-63522761D01*
X111291380Y-63570380D01*
X111196142Y-63570380D01*
X111100904Y-63522761D01*
X111053285Y-63475142D01*
X111005666Y-63379904D01*
X110958047Y-63189428D01*
X110958047Y-62951333D01*
X111005666Y-62760857D01*
X111053285Y-62665619D01*
X111100904Y-62618000D01*
X111196142Y-62570380D01*
D11*
%TO.C,J3*%
X102793860Y-52761720D02*
X100193860Y-52761720D01*
X102793860Y-38061720D02*
X102793860Y-52761720D01*
X93593860Y-52761720D02*
X93593860Y-50861720D01*
X96293860Y-52761720D02*
X93593860Y-52761720D01*
X93593860Y-38061720D02*
X102793860Y-38061720D01*
X93593860Y-46861720D02*
X93593860Y-38061720D01*
X102993860Y-51911720D02*
X102993860Y-52961720D01*
X101943860Y-52961720D02*
X102993860Y-52961720D01*
%TO.C,CC3*%
X97787200Y-58656800D02*
X104547200Y-58656800D01*
X104547200Y-58656800D02*
X104547200Y-55236800D01*
X104547200Y-55236800D02*
X97787200Y-55236800D01*
%TO.C,CC1*%
X97543252Y-80999000D02*
X97020748Y-80999000D01*
X97543252Y-79529000D02*
X97020748Y-79529000D01*
%TO.C,CC2*%
X110116252Y-79529000D02*
X109593748Y-79529000D01*
X110116252Y-80999000D02*
X109593748Y-80999000D01*
%TO.C,CDC1*%
X100703748Y-74957000D02*
X101226252Y-74957000D01*
X100703748Y-76427000D02*
X101226252Y-76427000D01*
%TO.C,CRF1*%
X105417252Y-74830000D02*
X104894748Y-74830000D01*
X105417252Y-76300000D02*
X104894748Y-76300000D01*
%TO.C,CRF2*%
X105483252Y-73760000D02*
X104960748Y-73760000D01*
X105483252Y-72290000D02*
X104960748Y-72290000D01*
%TO.C,LRF1*%
X106732000Y-78801878D02*
X106732000Y-79601122D01*
X105612000Y-78801878D02*
X105612000Y-79601122D01*
%TO.C,U1*%
X102684200Y-81638000D02*
X101684200Y-81638000D01*
X100684200Y-79398000D02*
X102684200Y-79398000D01*
%TO.C,Cin1*%
X99384752Y-59971000D02*
X98862248Y-59971000D01*
X99384752Y-61441000D02*
X98862248Y-61441000D01*
%TO.C,Co1*%
X101226252Y-69696000D02*
X100703748Y-69696000D01*
X101226252Y-68226000D02*
X100703748Y-68226000D01*
%TO.C,U2*%
X97450000Y-63870000D02*
X97450000Y-65670000D01*
X100670000Y-65670000D02*
X100670000Y-63220000D01*
%TO.C,J1*%
D12*
X95070050Y-80256283D02*
X95784336Y-80256283D01*
X95927193Y-80303902D01*
X96022431Y-80399140D01*
X96070050Y-80541997D01*
X96070050Y-80637235D01*
X96070050Y-79256283D02*
X96070050Y-79827711D01*
X96070050Y-79541997D02*
X95070050Y-79541997D01*
X95212908Y-79637235D01*
X95308146Y-79732473D01*
X95355765Y-79827711D01*
%TO.C,J2*%
X110717710Y-80938383D02*
X111431996Y-80938383D01*
X111574853Y-80986002D01*
X111670091Y-81081240D01*
X111717710Y-81224097D01*
X111717710Y-81319335D01*
X110812949Y-80509811D02*
X110765330Y-80462192D01*
X110717710Y-80366954D01*
X110717710Y-80128859D01*
X110765330Y-80033621D01*
X110812949Y-79986002D01*
X110908187Y-79938383D01*
X111003425Y-79938383D01*
X111146282Y-79986002D01*
X111717710Y-80557430D01*
X111717710Y-79938383D01*
%TO.C,J3*%
D10*
X91896240Y-43745053D02*
X92610526Y-43745053D01*
X92753383Y-43792672D01*
X92848621Y-43887910D01*
X92896240Y-44030767D01*
X92896240Y-44126005D01*
X91896240Y-43364100D02*
X91896240Y-42745053D01*
X92277193Y-43078386D01*
X92277193Y-42935529D01*
X92324812Y-42840291D01*
X92372431Y-42792672D01*
X92467669Y-42745053D01*
X92705764Y-42745053D01*
X92801002Y-42792672D01*
X92848621Y-42840291D01*
X92896240Y-42935529D01*
X92896240Y-43221243D01*
X92848621Y-43316481D01*
X92801002Y-43364100D01*
%TO.C,CC3*%
X100120533Y-59853942D02*
X100072914Y-59901561D01*
X99930057Y-59949180D01*
X99834819Y-59949180D01*
X99691961Y-59901561D01*
X99596723Y-59806323D01*
X99549104Y-59711085D01*
X99501485Y-59520609D01*
X99501485Y-59377752D01*
X99549104Y-59187276D01*
X99596723Y-59092038D01*
X99691961Y-58996800D01*
X99834819Y-58949180D01*
X99930057Y-58949180D01*
X100072914Y-58996800D01*
X100120533Y-59044419D01*
X101120533Y-59853942D02*
X101072914Y-59901561D01*
X100930057Y-59949180D01*
X100834819Y-59949180D01*
X100691961Y-59901561D01*
X100596723Y-59806323D01*
X100549104Y-59711085D01*
X100501485Y-59520609D01*
X100501485Y-59377752D01*
X100549104Y-59187276D01*
X100596723Y-59092038D01*
X100691961Y-58996800D01*
X100834819Y-58949180D01*
X100930057Y-58949180D01*
X101072914Y-58996800D01*
X101120533Y-59044419D01*
X101453866Y-58949180D02*
X102072914Y-58949180D01*
X101739580Y-59330133D01*
X101882438Y-59330133D01*
X101977676Y-59377752D01*
X102025295Y-59425371D01*
X102072914Y-59520609D01*
X102072914Y-59758704D01*
X102025295Y-59853942D01*
X101977676Y-59901561D01*
X101882438Y-59949180D01*
X101596723Y-59949180D01*
X101501485Y-59901561D01*
X101453866Y-59853942D01*
%TO.C,U1*%
X101802295Y-78070380D02*
X101802295Y-78879904D01*
X101849914Y-78975142D01*
X101897533Y-79022761D01*
X101992771Y-79070380D01*
X102183247Y-79070380D01*
X102278485Y-79022761D01*
X102326104Y-78975142D01*
X102373723Y-78879904D01*
X102373723Y-78070380D01*
X103373723Y-79070380D02*
X102802295Y-79070380D01*
X103088009Y-79070380D02*
X103088009Y-78070380D01*
X102992771Y-78213238D01*
X102897533Y-78308476D01*
X102802295Y-78356095D01*
%TO.C,Cin1*%
X98266357Y-62743142D02*
X98218738Y-62790761D01*
X98075880Y-62838380D01*
X97980642Y-62838380D01*
X97837785Y-62790761D01*
X97742547Y-62695523D01*
X97694928Y-62600285D01*
X97647309Y-62409809D01*
X97647309Y-62266952D01*
X97694928Y-62076476D01*
X97742547Y-61981238D01*
X97837785Y-61886000D01*
X97980642Y-61838380D01*
X98075880Y-61838380D01*
X98218738Y-61886000D01*
X98266357Y-61933619D01*
X98694928Y-62838380D02*
X98694928Y-62171714D01*
X98694928Y-61838380D02*
X98647309Y-61886000D01*
X98694928Y-61933619D01*
X98742547Y-61886000D01*
X98694928Y-61838380D01*
X98694928Y-61933619D01*
X99171119Y-62171714D02*
X99171119Y-62838380D01*
X99171119Y-62266952D02*
X99218738Y-62219333D01*
X99313976Y-62171714D01*
X99456833Y-62171714D01*
X99552071Y-62219333D01*
X99599690Y-62314571D01*
X99599690Y-62838380D01*
X100599690Y-62838380D02*
X100028261Y-62838380D01*
X100313976Y-62838380D02*
X100313976Y-61838380D01*
X100218738Y-61981238D01*
X100123500Y-62076476D01*
X100028261Y-62124095D01*
%TO.C,Co1*%
X100345952Y-70998142D02*
X100298333Y-71045761D01*
X100155476Y-71093380D01*
X100060238Y-71093380D01*
X99917380Y-71045761D01*
X99822142Y-70950523D01*
X99774523Y-70855285D01*
X99726904Y-70664809D01*
X99726904Y-70521952D01*
X99774523Y-70331476D01*
X99822142Y-70236238D01*
X99917380Y-70141000D01*
X100060238Y-70093380D01*
X100155476Y-70093380D01*
X100298333Y-70141000D01*
X100345952Y-70188619D01*
X100917380Y-71093380D02*
X100822142Y-71045761D01*
X100774523Y-70998142D01*
X100726904Y-70902904D01*
X100726904Y-70617190D01*
X100774523Y-70521952D01*
X100822142Y-70474333D01*
X100917380Y-70426714D01*
X101060238Y-70426714D01*
X101155476Y-70474333D01*
X101203095Y-70521952D01*
X101250714Y-70617190D01*
X101250714Y-70902904D01*
X101203095Y-70998142D01*
X101155476Y-71045761D01*
X101060238Y-71093380D01*
X100917380Y-71093380D01*
X102203095Y-71093380D02*
X101631666Y-71093380D01*
X101917380Y-71093380D02*
X101917380Y-70093380D01*
X101822142Y-70236238D01*
X101726904Y-70331476D01*
X101631666Y-70379095D01*
%TO.C,U2*%
X101412380Y-65531904D02*
X102221904Y-65531904D01*
X102317142Y-65484285D01*
X102364761Y-65436666D01*
X102412380Y-65341428D01*
X102412380Y-65150952D01*
X102364761Y-65055714D01*
X102317142Y-65008095D01*
X102221904Y-64960476D01*
X101412380Y-64960476D01*
X101507619Y-64531904D02*
X101460000Y-64484285D01*
X101412380Y-64389047D01*
X101412380Y-64150952D01*
X101460000Y-64055714D01*
X101507619Y-64008095D01*
X101602857Y-63960476D01*
X101698095Y-63960476D01*
X101840952Y-64008095D01*
X102412380Y-64579523D01*
X102412380Y-63960476D01*
%TD*%
M02*
