%TF.GenerationSoftware,KiCad,Pcbnew,(5.1.9)-1*%
%TF.CreationDate,2021-02-06T16:33:29-05:00*%
%TF.ProjectId,LNA2,4c4e4132-2e6b-4696-9361-645f70636258,rev?*%
%TF.SameCoordinates,Original*%
%TF.FileFunction,Copper,L2,Bot*%
%TF.FilePolarity,Positive*%
%FSLAX46Y46*%
G04 Gerber Fmt 4.6, Leading zero omitted, Abs format (unit mm)*
G04 Created by KiCad (PCBNEW (5.1.9)-1) date 2021-02-06 16:33:29*
%MOMM*%
%LPD*%
G01*
G04 APERTURE LIST*
%TA.AperFunction,ComponentPad*%
%ADD10R,3.500000X3.500000*%
%TD*%
%TA.AperFunction,SMDPad,CuDef*%
%ADD11R,4.200000X1.350000*%
%TD*%
%TA.AperFunction,ViaPad*%
%ADD12C,0.800000*%
%TD*%
%TA.AperFunction,Conductor*%
%ADD13C,0.254000*%
%TD*%
%TA.AperFunction,Conductor*%
%ADD14C,0.100000*%
%TD*%
G04 APERTURE END LIST*
%TO.P,J3,3*%
%TO.N,N/C*%
%TA.AperFunction,ComponentPad*%
G36*
G01*
X92597000Y-47526000D02*
X94347000Y-47526000D01*
G75*
G02*
X95222000Y-48401000I0J-875000D01*
G01*
X95222000Y-50151000D01*
G75*
G02*
X94347000Y-51026000I-875000J0D01*
G01*
X92597000Y-51026000D01*
G75*
G02*
X91722000Y-50151000I0J875000D01*
G01*
X91722000Y-48401000D01*
G75*
G02*
X92597000Y-47526000I875000J0D01*
G01*
G37*
%TD.AperFunction*%
%TO.P,J3,2*%
%TO.N,GND*%
%TA.AperFunction,ComponentPad*%
G36*
G01*
X97172000Y-44776000D02*
X99172000Y-44776000D01*
G75*
G02*
X99922000Y-45526000I0J-750000D01*
G01*
X99922000Y-47026000D01*
G75*
G02*
X99172000Y-47776000I-750000J0D01*
G01*
X97172000Y-47776000D01*
G75*
G02*
X96422000Y-47026000I0J750000D01*
G01*
X96422000Y-45526000D01*
G75*
G02*
X97172000Y-44776000I750000J0D01*
G01*
G37*
%TD.AperFunction*%
D10*
%TO.P,J3,1*%
%TO.N,VCC*%
X98172000Y-52276000D03*
%TD*%
D11*
%TO.P,J1,2_2*%
%TO.N,GND*%
X92656000Y-77439000D03*
%TO.P,J1,3_2*%
X92656000Y-83089000D03*
%TD*%
%TO.P,J2,3_2*%
%TO.N,GND*%
X114227000Y-77439000D03*
%TO.P,J2,2_2*%
X114227000Y-83089000D03*
%TD*%
D12*
%TO.N,GND*%
X92837000Y-74295000D03*
X91440000Y-74295000D03*
X94107000Y-74295000D03*
X95504000Y-74295000D03*
X113538000Y-70866000D03*
X112268000Y-70866000D03*
X91440000Y-77343000D03*
X92710000Y-77470000D03*
X93980000Y-77470000D03*
X91440000Y-83058000D03*
X92710000Y-83185000D03*
X94107000Y-83058000D03*
X112776000Y-83185000D03*
X114046000Y-83185000D03*
X115443000Y-83185000D03*
X113157000Y-77470000D03*
X114300000Y-77470000D03*
X115316000Y-77470000D03*
X105664000Y-83566000D03*
X104140000Y-83566000D03*
X108458000Y-83566000D03*
X98552000Y-83566000D03*
X99822000Y-83566000D03*
X101346000Y-83566000D03*
X105664000Y-84836000D03*
X104140000Y-84836000D03*
X108458000Y-84836000D03*
X102616000Y-84836000D03*
X98552000Y-84836000D03*
X99822000Y-84836000D03*
X107188000Y-84836000D03*
X101346000Y-84836000D03*
X104140000Y-86106000D03*
X108458000Y-86106000D03*
X98552000Y-86106000D03*
X107188000Y-86106000D03*
X101346000Y-86106000D03*
X105664000Y-87376000D03*
X104140000Y-87376000D03*
X108458000Y-87376000D03*
X102616000Y-87376000D03*
X98552000Y-87376000D03*
X99822000Y-87376000D03*
X107188000Y-87376000D03*
X101346000Y-87376000D03*
X99060000Y-88646000D03*
X97536000Y-88646000D03*
X101854000Y-88646000D03*
X96012000Y-88646000D03*
X91948000Y-88646000D03*
X93218000Y-88646000D03*
X94742000Y-88646000D03*
X110490000Y-88646000D03*
X108966000Y-88646000D03*
X113284000Y-88646000D03*
X107442000Y-88646000D03*
X104648000Y-88646000D03*
X112014000Y-88646000D03*
X108204000Y-75184000D03*
X109728000Y-85344000D03*
X97028000Y-82296000D03*
X97028000Y-83820000D03*
X97028000Y-85344000D03*
X97028000Y-86868000D03*
X95758000Y-87122000D03*
X94742000Y-87122000D03*
X93472000Y-87122000D03*
X92202000Y-87122000D03*
X98552000Y-82296000D03*
X99822000Y-82296000D03*
X101346000Y-82296000D03*
X102616000Y-82296000D03*
X104140000Y-82296000D03*
X105664000Y-82296000D03*
X107188000Y-82296000D03*
X108458000Y-82296000D03*
X109728000Y-82296000D03*
X109728000Y-83820000D03*
X110236000Y-87122000D03*
X111760000Y-87122000D03*
X113030000Y-87122000D03*
X114300000Y-87122000D03*
X115316000Y-87122000D03*
X101600000Y-78486000D03*
X102870000Y-78486000D03*
X104140000Y-78486000D03*
X102108000Y-77470000D03*
X107950000Y-78232000D03*
X109220000Y-78232000D03*
X109982000Y-76962000D03*
X109982000Y-75438000D03*
X109982000Y-74168000D03*
X110998000Y-73406000D03*
X112268000Y-73406000D03*
X113538000Y-73406000D03*
X114808000Y-73406000D03*
X96774000Y-77978000D03*
X96774000Y-76708000D03*
X96774000Y-75184000D03*
X98298000Y-75184000D03*
X98298000Y-76708000D03*
X98298000Y-77978000D03*
X108204000Y-76708000D03*
X114808000Y-88646000D03*
X110998000Y-72136000D03*
X112268000Y-72136000D03*
X113538000Y-72136000D03*
X114808000Y-72136000D03*
X114808000Y-70866000D03*
X100584000Y-88646000D03*
X103378000Y-88646000D03*
X106172000Y-88646000D03*
X99822000Y-86106000D03*
X102616000Y-86106000D03*
X105664000Y-86106000D03*
X107188000Y-83566000D03*
X102616000Y-83566000D03*
X91440000Y-75311000D03*
X92837000Y-75311000D03*
X94107000Y-75311000D03*
X95504000Y-75311000D03*
X94488000Y-85090000D03*
X93091000Y-85090000D03*
X91694000Y-85090000D03*
X112141000Y-85217000D03*
X113665000Y-85217000D03*
X115062000Y-85217000D03*
X110871000Y-83058000D03*
X112268000Y-75184000D03*
X113665000Y-75184000D03*
X115062000Y-75184000D03*
X102616000Y-74041000D03*
X92364550Y-44762905D03*
X92364550Y-52762905D03*
X92364550Y-55762905D03*
X92364550Y-58762905D03*
X92364550Y-61762905D03*
X92364550Y-64762905D03*
X92364550Y-67762905D03*
X92364550Y-70762905D03*
X94364550Y-45762905D03*
X94364550Y-53762905D03*
X94364550Y-56762905D03*
X94364550Y-59762905D03*
X94364550Y-62762905D03*
X94364550Y-65762905D03*
X94364550Y-68762905D03*
X94364550Y-71762905D03*
X96364550Y-55762905D03*
X96364550Y-58762905D03*
X96364550Y-61762905D03*
X96364550Y-64762905D03*
X96364550Y-67762905D03*
X96364550Y-70762905D03*
X97364550Y-72762905D03*
X98364550Y-68762905D03*
X101364550Y-61762905D03*
X101364550Y-64762905D03*
X101364550Y-70762905D03*
X102364550Y-44762905D03*
X102364550Y-47762905D03*
X102364550Y-50762905D03*
X102364550Y-53762905D03*
X102364550Y-59762905D03*
X102364550Y-66762905D03*
X103364550Y-62762905D03*
X103364550Y-68762905D03*
X104364550Y-45762905D03*
X104364550Y-48762905D03*
X104364550Y-51762905D03*
X104364550Y-54762905D03*
X104364550Y-57762905D03*
X104364550Y-60762905D03*
X104364550Y-64762905D03*
X104364550Y-70762905D03*
X105364550Y-66762905D03*
X106364550Y-44762905D03*
X106364550Y-47762905D03*
X106364550Y-50762905D03*
X106364550Y-53762905D03*
X106364550Y-56762905D03*
X106364550Y-59762905D03*
X106364550Y-62762905D03*
X106364550Y-68762905D03*
X107364550Y-64762905D03*
X107364550Y-70762905D03*
X108364550Y-45762905D03*
X108364550Y-48762905D03*
X108364550Y-51762905D03*
X108364550Y-54762905D03*
X108364550Y-57762905D03*
X108364550Y-60762905D03*
X108364550Y-66762905D03*
X109364550Y-62762905D03*
X109364550Y-68762905D03*
X110364550Y-44762905D03*
X110364550Y-47762905D03*
X110364550Y-50762905D03*
X110364550Y-53762905D03*
X110364550Y-56762905D03*
X110364550Y-59762905D03*
X110364550Y-64762905D03*
X111364550Y-61762905D03*
X111364550Y-66762905D03*
X112364550Y-45762905D03*
X112364550Y-48762905D03*
X112364550Y-51762905D03*
X112364550Y-54762905D03*
X112364550Y-57762905D03*
X112364550Y-63762905D03*
X112364550Y-68762905D03*
X113364550Y-59762905D03*
X113364550Y-65762905D03*
X114364550Y-61762905D03*
X114364550Y-67762905D03*
%TD*%
D13*
%TO.N,GND*%
X115825021Y-76126778D02*
X114512750Y-76129000D01*
X114354000Y-76287750D01*
X114354000Y-77312000D01*
X114374000Y-77312000D01*
X114374000Y-77566000D01*
X114354000Y-77566000D01*
X114354000Y-78590250D01*
X114512750Y-78749000D01*
X115849914Y-78751264D01*
X115878611Y-81776687D01*
X114512750Y-81779000D01*
X114354000Y-81937750D01*
X114354000Y-82962000D01*
X114374000Y-82962000D01*
X114374000Y-83216000D01*
X114354000Y-83216000D01*
X114354000Y-84240250D01*
X114512750Y-84399000D01*
X115903506Y-84401355D01*
X115949559Y-89256639D01*
X90899119Y-89382838D01*
X90893987Y-89382335D01*
X90893215Y-89374988D01*
X90845785Y-84401581D01*
X92370250Y-84399000D01*
X92529000Y-84240250D01*
X92529000Y-83216000D01*
X92783000Y-83216000D01*
X92783000Y-84240250D01*
X92941750Y-84399000D01*
X94756000Y-84402072D01*
X94880482Y-84389812D01*
X95000180Y-84353502D01*
X95110494Y-84294537D01*
X95207185Y-84215185D01*
X95286537Y-84118494D01*
X95345502Y-84008180D01*
X95381812Y-83888482D01*
X95394072Y-83764000D01*
X111488928Y-83764000D01*
X111501188Y-83888482D01*
X111537498Y-84008180D01*
X111596463Y-84118494D01*
X111675815Y-84215185D01*
X111772506Y-84294537D01*
X111882820Y-84353502D01*
X112002518Y-84389812D01*
X112127000Y-84402072D01*
X113941250Y-84399000D01*
X114100000Y-84240250D01*
X114100000Y-83216000D01*
X111650750Y-83216000D01*
X111492000Y-83374750D01*
X111488928Y-83764000D01*
X95394072Y-83764000D01*
X95391000Y-83374750D01*
X95232250Y-83216000D01*
X92783000Y-83216000D01*
X92529000Y-83216000D01*
X92509000Y-83216000D01*
X92509000Y-82962000D01*
X92529000Y-82962000D01*
X92529000Y-81937750D01*
X92783000Y-81937750D01*
X92783000Y-82962000D01*
X95232250Y-82962000D01*
X95391000Y-82803250D01*
X95394072Y-82414000D01*
X111488928Y-82414000D01*
X111492000Y-82803250D01*
X111650750Y-82962000D01*
X114100000Y-82962000D01*
X114100000Y-81937750D01*
X113941250Y-81779000D01*
X112127000Y-81775928D01*
X112002518Y-81788188D01*
X111882820Y-81824498D01*
X111772506Y-81883463D01*
X111675815Y-81962815D01*
X111596463Y-82059506D01*
X111537498Y-82169820D01*
X111501188Y-82289518D01*
X111488928Y-82414000D01*
X95394072Y-82414000D01*
X95381812Y-82289518D01*
X95345502Y-82169820D01*
X95286537Y-82059506D01*
X95207185Y-81962815D01*
X95110494Y-81883463D01*
X95000180Y-81824498D01*
X94880482Y-81788188D01*
X94756000Y-81775928D01*
X92941750Y-81779000D01*
X92783000Y-81937750D01*
X92529000Y-81937750D01*
X92370250Y-81779000D01*
X90820749Y-81776376D01*
X90791903Y-78751673D01*
X92370250Y-78749000D01*
X92529000Y-78590250D01*
X92529000Y-77566000D01*
X92783000Y-77566000D01*
X92783000Y-78590250D01*
X92941750Y-78749000D01*
X94756000Y-78752072D01*
X94880482Y-78739812D01*
X95000180Y-78703502D01*
X95110494Y-78644537D01*
X95207185Y-78565185D01*
X95286537Y-78468494D01*
X95345502Y-78358180D01*
X95381812Y-78238482D01*
X95394072Y-78114000D01*
X111488928Y-78114000D01*
X111501188Y-78238482D01*
X111537498Y-78358180D01*
X111596463Y-78468494D01*
X111675815Y-78565185D01*
X111772506Y-78644537D01*
X111882820Y-78703502D01*
X112002518Y-78739812D01*
X112127000Y-78752072D01*
X113941250Y-78749000D01*
X114100000Y-78590250D01*
X114100000Y-77566000D01*
X111650750Y-77566000D01*
X111492000Y-77724750D01*
X111488928Y-78114000D01*
X95394072Y-78114000D01*
X95391000Y-77724750D01*
X95232250Y-77566000D01*
X92783000Y-77566000D01*
X92529000Y-77566000D01*
X92509000Y-77566000D01*
X92509000Y-77312000D01*
X92529000Y-77312000D01*
X92529000Y-76287750D01*
X92783000Y-76287750D01*
X92783000Y-77312000D01*
X95232250Y-77312000D01*
X95391000Y-77153250D01*
X95394072Y-76764000D01*
X111488928Y-76764000D01*
X111492000Y-77153250D01*
X111650750Y-77312000D01*
X114100000Y-77312000D01*
X114100000Y-76287750D01*
X113941250Y-76129000D01*
X112127000Y-76125928D01*
X112002518Y-76138188D01*
X111882820Y-76174498D01*
X111772506Y-76233463D01*
X111675815Y-76312815D01*
X111596463Y-76409506D01*
X111537498Y-76519820D01*
X111501188Y-76639518D01*
X111488928Y-76764000D01*
X95394072Y-76764000D01*
X95381812Y-76639518D01*
X95345502Y-76519820D01*
X95286537Y-76409506D01*
X95207185Y-76312815D01*
X95110494Y-76233463D01*
X95000180Y-76174498D01*
X94880482Y-76138188D01*
X94756000Y-76125928D01*
X92941750Y-76129000D01*
X92783000Y-76287750D01*
X92529000Y-76287750D01*
X92370250Y-76129000D01*
X90766865Y-76126285D01*
X90502455Y-48401000D01*
X91083928Y-48401000D01*
X91083928Y-50151000D01*
X91113001Y-50446186D01*
X91199104Y-50730028D01*
X91338927Y-50991618D01*
X91527097Y-51220903D01*
X91756382Y-51409073D01*
X92017972Y-51548896D01*
X92301814Y-51634999D01*
X92597000Y-51664072D01*
X94347000Y-51664072D01*
X94642186Y-51634999D01*
X94926028Y-51548896D01*
X95187618Y-51409073D01*
X95416903Y-51220903D01*
X95605073Y-50991618D01*
X95744896Y-50730028D01*
X95783928Y-50601357D01*
X95783928Y-54026000D01*
X95796188Y-54150482D01*
X95832498Y-54270180D01*
X95891463Y-54380494D01*
X95970815Y-54477185D01*
X96067506Y-54556537D01*
X96177820Y-54615502D01*
X96297518Y-54651812D01*
X96422000Y-54664072D01*
X99922000Y-54664072D01*
X100046482Y-54651812D01*
X100166180Y-54615502D01*
X100276494Y-54556537D01*
X100373185Y-54477185D01*
X100452537Y-54380494D01*
X100511502Y-54270180D01*
X100547812Y-54150482D01*
X100560072Y-54026000D01*
X100560072Y-50526000D01*
X100547812Y-50401518D01*
X100511502Y-50281820D01*
X100452537Y-50171506D01*
X100373185Y-50074815D01*
X100276494Y-49995463D01*
X100166180Y-49936498D01*
X100046482Y-49900188D01*
X99922000Y-49887928D01*
X96422000Y-49887928D01*
X96297518Y-49900188D01*
X96177820Y-49936498D01*
X96067506Y-49995463D01*
X95970815Y-50074815D01*
X95891463Y-50171506D01*
X95850506Y-50248131D01*
X95860072Y-50151000D01*
X95860072Y-48401000D01*
X95830999Y-48105814D01*
X95744896Y-47821972D01*
X95720324Y-47776000D01*
X95783928Y-47776000D01*
X95796188Y-47900482D01*
X95832498Y-48020180D01*
X95891463Y-48130494D01*
X95970815Y-48227185D01*
X96067506Y-48306537D01*
X96177820Y-48365502D01*
X96297518Y-48401812D01*
X96422000Y-48414072D01*
X97886250Y-48411000D01*
X98045000Y-48252250D01*
X98045000Y-46403000D01*
X98299000Y-46403000D01*
X98299000Y-48252250D01*
X98457750Y-48411000D01*
X99922000Y-48414072D01*
X100046482Y-48401812D01*
X100166180Y-48365502D01*
X100276494Y-48306537D01*
X100373185Y-48227185D01*
X100452537Y-48130494D01*
X100511502Y-48020180D01*
X100547812Y-47900482D01*
X100560072Y-47776000D01*
X100557000Y-46561750D01*
X100398250Y-46403000D01*
X98299000Y-46403000D01*
X98045000Y-46403000D01*
X95945750Y-46403000D01*
X95787000Y-46561750D01*
X95783928Y-47776000D01*
X95720324Y-47776000D01*
X95605073Y-47560382D01*
X95416903Y-47331097D01*
X95187618Y-47142927D01*
X94926028Y-47003104D01*
X94642186Y-46917001D01*
X94347000Y-46887928D01*
X92597000Y-46887928D01*
X92301814Y-46917001D01*
X92017972Y-47003104D01*
X91756382Y-47142927D01*
X91527097Y-47331097D01*
X91338927Y-47560382D01*
X91199104Y-47821972D01*
X91113001Y-48105814D01*
X91083928Y-48401000D01*
X90502455Y-48401000D01*
X90467884Y-44776000D01*
X95783928Y-44776000D01*
X95787000Y-45990250D01*
X95945750Y-46149000D01*
X98045000Y-46149000D01*
X98045000Y-44299750D01*
X98299000Y-44299750D01*
X98299000Y-46149000D01*
X100398250Y-46149000D01*
X100557000Y-45990250D01*
X100560072Y-44776000D01*
X100547812Y-44651518D01*
X100511502Y-44531820D01*
X100452537Y-44421506D01*
X100373185Y-44324815D01*
X100276494Y-44245463D01*
X100166180Y-44186498D01*
X100046482Y-44150188D01*
X99922000Y-44137928D01*
X98457750Y-44141000D01*
X98299000Y-44299750D01*
X98045000Y-44299750D01*
X97886250Y-44141000D01*
X96422000Y-44137928D01*
X96297518Y-44150188D01*
X96177820Y-44186498D01*
X96067506Y-44245463D01*
X95970815Y-44324815D01*
X95891463Y-44421506D01*
X95832498Y-44531820D01*
X95796188Y-44651518D01*
X95783928Y-44776000D01*
X90467884Y-44776000D01*
X90449307Y-42828143D01*
X90449666Y-42824487D01*
X90454301Y-42824000D01*
X115509141Y-42824000D01*
X115825021Y-76126778D01*
%TA.AperFunction,Conductor*%
D14*
G36*
X115825021Y-76126778D02*
G01*
X114512750Y-76129000D01*
X114354000Y-76287750D01*
X114354000Y-77312000D01*
X114374000Y-77312000D01*
X114374000Y-77566000D01*
X114354000Y-77566000D01*
X114354000Y-78590250D01*
X114512750Y-78749000D01*
X115849914Y-78751264D01*
X115878611Y-81776687D01*
X114512750Y-81779000D01*
X114354000Y-81937750D01*
X114354000Y-82962000D01*
X114374000Y-82962000D01*
X114374000Y-83216000D01*
X114354000Y-83216000D01*
X114354000Y-84240250D01*
X114512750Y-84399000D01*
X115903506Y-84401355D01*
X115949559Y-89256639D01*
X90899119Y-89382838D01*
X90893987Y-89382335D01*
X90893215Y-89374988D01*
X90845785Y-84401581D01*
X92370250Y-84399000D01*
X92529000Y-84240250D01*
X92529000Y-83216000D01*
X92783000Y-83216000D01*
X92783000Y-84240250D01*
X92941750Y-84399000D01*
X94756000Y-84402072D01*
X94880482Y-84389812D01*
X95000180Y-84353502D01*
X95110494Y-84294537D01*
X95207185Y-84215185D01*
X95286537Y-84118494D01*
X95345502Y-84008180D01*
X95381812Y-83888482D01*
X95394072Y-83764000D01*
X111488928Y-83764000D01*
X111501188Y-83888482D01*
X111537498Y-84008180D01*
X111596463Y-84118494D01*
X111675815Y-84215185D01*
X111772506Y-84294537D01*
X111882820Y-84353502D01*
X112002518Y-84389812D01*
X112127000Y-84402072D01*
X113941250Y-84399000D01*
X114100000Y-84240250D01*
X114100000Y-83216000D01*
X111650750Y-83216000D01*
X111492000Y-83374750D01*
X111488928Y-83764000D01*
X95394072Y-83764000D01*
X95391000Y-83374750D01*
X95232250Y-83216000D01*
X92783000Y-83216000D01*
X92529000Y-83216000D01*
X92509000Y-83216000D01*
X92509000Y-82962000D01*
X92529000Y-82962000D01*
X92529000Y-81937750D01*
X92783000Y-81937750D01*
X92783000Y-82962000D01*
X95232250Y-82962000D01*
X95391000Y-82803250D01*
X95394072Y-82414000D01*
X111488928Y-82414000D01*
X111492000Y-82803250D01*
X111650750Y-82962000D01*
X114100000Y-82962000D01*
X114100000Y-81937750D01*
X113941250Y-81779000D01*
X112127000Y-81775928D01*
X112002518Y-81788188D01*
X111882820Y-81824498D01*
X111772506Y-81883463D01*
X111675815Y-81962815D01*
X111596463Y-82059506D01*
X111537498Y-82169820D01*
X111501188Y-82289518D01*
X111488928Y-82414000D01*
X95394072Y-82414000D01*
X95381812Y-82289518D01*
X95345502Y-82169820D01*
X95286537Y-82059506D01*
X95207185Y-81962815D01*
X95110494Y-81883463D01*
X95000180Y-81824498D01*
X94880482Y-81788188D01*
X94756000Y-81775928D01*
X92941750Y-81779000D01*
X92783000Y-81937750D01*
X92529000Y-81937750D01*
X92370250Y-81779000D01*
X90820749Y-81776376D01*
X90791903Y-78751673D01*
X92370250Y-78749000D01*
X92529000Y-78590250D01*
X92529000Y-77566000D01*
X92783000Y-77566000D01*
X92783000Y-78590250D01*
X92941750Y-78749000D01*
X94756000Y-78752072D01*
X94880482Y-78739812D01*
X95000180Y-78703502D01*
X95110494Y-78644537D01*
X95207185Y-78565185D01*
X95286537Y-78468494D01*
X95345502Y-78358180D01*
X95381812Y-78238482D01*
X95394072Y-78114000D01*
X111488928Y-78114000D01*
X111501188Y-78238482D01*
X111537498Y-78358180D01*
X111596463Y-78468494D01*
X111675815Y-78565185D01*
X111772506Y-78644537D01*
X111882820Y-78703502D01*
X112002518Y-78739812D01*
X112127000Y-78752072D01*
X113941250Y-78749000D01*
X114100000Y-78590250D01*
X114100000Y-77566000D01*
X111650750Y-77566000D01*
X111492000Y-77724750D01*
X111488928Y-78114000D01*
X95394072Y-78114000D01*
X95391000Y-77724750D01*
X95232250Y-77566000D01*
X92783000Y-77566000D01*
X92529000Y-77566000D01*
X92509000Y-77566000D01*
X92509000Y-77312000D01*
X92529000Y-77312000D01*
X92529000Y-76287750D01*
X92783000Y-76287750D01*
X92783000Y-77312000D01*
X95232250Y-77312000D01*
X95391000Y-77153250D01*
X95394072Y-76764000D01*
X111488928Y-76764000D01*
X111492000Y-77153250D01*
X111650750Y-77312000D01*
X114100000Y-77312000D01*
X114100000Y-76287750D01*
X113941250Y-76129000D01*
X112127000Y-76125928D01*
X112002518Y-76138188D01*
X111882820Y-76174498D01*
X111772506Y-76233463D01*
X111675815Y-76312815D01*
X111596463Y-76409506D01*
X111537498Y-76519820D01*
X111501188Y-76639518D01*
X111488928Y-76764000D01*
X95394072Y-76764000D01*
X95381812Y-76639518D01*
X95345502Y-76519820D01*
X95286537Y-76409506D01*
X95207185Y-76312815D01*
X95110494Y-76233463D01*
X95000180Y-76174498D01*
X94880482Y-76138188D01*
X94756000Y-76125928D01*
X92941750Y-76129000D01*
X92783000Y-76287750D01*
X92529000Y-76287750D01*
X92370250Y-76129000D01*
X90766865Y-76126285D01*
X90502455Y-48401000D01*
X91083928Y-48401000D01*
X91083928Y-50151000D01*
X91113001Y-50446186D01*
X91199104Y-50730028D01*
X91338927Y-50991618D01*
X91527097Y-51220903D01*
X91756382Y-51409073D01*
X92017972Y-51548896D01*
X92301814Y-51634999D01*
X92597000Y-51664072D01*
X94347000Y-51664072D01*
X94642186Y-51634999D01*
X94926028Y-51548896D01*
X95187618Y-51409073D01*
X95416903Y-51220903D01*
X95605073Y-50991618D01*
X95744896Y-50730028D01*
X95783928Y-50601357D01*
X95783928Y-54026000D01*
X95796188Y-54150482D01*
X95832498Y-54270180D01*
X95891463Y-54380494D01*
X95970815Y-54477185D01*
X96067506Y-54556537D01*
X96177820Y-54615502D01*
X96297518Y-54651812D01*
X96422000Y-54664072D01*
X99922000Y-54664072D01*
X100046482Y-54651812D01*
X100166180Y-54615502D01*
X100276494Y-54556537D01*
X100373185Y-54477185D01*
X100452537Y-54380494D01*
X100511502Y-54270180D01*
X100547812Y-54150482D01*
X100560072Y-54026000D01*
X100560072Y-50526000D01*
X100547812Y-50401518D01*
X100511502Y-50281820D01*
X100452537Y-50171506D01*
X100373185Y-50074815D01*
X100276494Y-49995463D01*
X100166180Y-49936498D01*
X100046482Y-49900188D01*
X99922000Y-49887928D01*
X96422000Y-49887928D01*
X96297518Y-49900188D01*
X96177820Y-49936498D01*
X96067506Y-49995463D01*
X95970815Y-50074815D01*
X95891463Y-50171506D01*
X95850506Y-50248131D01*
X95860072Y-50151000D01*
X95860072Y-48401000D01*
X95830999Y-48105814D01*
X95744896Y-47821972D01*
X95720324Y-47776000D01*
X95783928Y-47776000D01*
X95796188Y-47900482D01*
X95832498Y-48020180D01*
X95891463Y-48130494D01*
X95970815Y-48227185D01*
X96067506Y-48306537D01*
X96177820Y-48365502D01*
X96297518Y-48401812D01*
X96422000Y-48414072D01*
X97886250Y-48411000D01*
X98045000Y-48252250D01*
X98045000Y-46403000D01*
X98299000Y-46403000D01*
X98299000Y-48252250D01*
X98457750Y-48411000D01*
X99922000Y-48414072D01*
X100046482Y-48401812D01*
X100166180Y-48365502D01*
X100276494Y-48306537D01*
X100373185Y-48227185D01*
X100452537Y-48130494D01*
X100511502Y-48020180D01*
X100547812Y-47900482D01*
X100560072Y-47776000D01*
X100557000Y-46561750D01*
X100398250Y-46403000D01*
X98299000Y-46403000D01*
X98045000Y-46403000D01*
X95945750Y-46403000D01*
X95787000Y-46561750D01*
X95783928Y-47776000D01*
X95720324Y-47776000D01*
X95605073Y-47560382D01*
X95416903Y-47331097D01*
X95187618Y-47142927D01*
X94926028Y-47003104D01*
X94642186Y-46917001D01*
X94347000Y-46887928D01*
X92597000Y-46887928D01*
X92301814Y-46917001D01*
X92017972Y-47003104D01*
X91756382Y-47142927D01*
X91527097Y-47331097D01*
X91338927Y-47560382D01*
X91199104Y-47821972D01*
X91113001Y-48105814D01*
X91083928Y-48401000D01*
X90502455Y-48401000D01*
X90467884Y-44776000D01*
X95783928Y-44776000D01*
X95787000Y-45990250D01*
X95945750Y-46149000D01*
X98045000Y-46149000D01*
X98045000Y-44299750D01*
X98299000Y-44299750D01*
X98299000Y-46149000D01*
X100398250Y-46149000D01*
X100557000Y-45990250D01*
X100560072Y-44776000D01*
X100547812Y-44651518D01*
X100511502Y-44531820D01*
X100452537Y-44421506D01*
X100373185Y-44324815D01*
X100276494Y-44245463D01*
X100166180Y-44186498D01*
X100046482Y-44150188D01*
X99922000Y-44137928D01*
X98457750Y-44141000D01*
X98299000Y-44299750D01*
X98045000Y-44299750D01*
X97886250Y-44141000D01*
X96422000Y-44137928D01*
X96297518Y-44150188D01*
X96177820Y-44186498D01*
X96067506Y-44245463D01*
X95970815Y-44324815D01*
X95891463Y-44421506D01*
X95832498Y-44531820D01*
X95796188Y-44651518D01*
X95783928Y-44776000D01*
X90467884Y-44776000D01*
X90449307Y-42828143D01*
X90449666Y-42824487D01*
X90454301Y-42824000D01*
X115509141Y-42824000D01*
X115825021Y-76126778D01*
G37*
%TD.AperFunction*%
%TD*%
M02*
