M48
; DRILL file {KiCad (5.1.9)-1} date 03/16/21 19:24:23
; FORMAT={-:-/ absolute / inch / decimal}
; #@! TF.CreationDate,2021-03-16T19:24:23-04:00
; #@! TF.GenerationSoftware,Kicad,Pcbnew,(5.1.9)-1
; #@! TF.FileFunction,Plated,1,2,PTH
FMAT,2
INCH
T1C0.0157
T2C0.0394
%
G90
G05
T1
X5.209Y-2.8385
X5.209Y-2.9959
X5.2878Y-2.9172
X5.2878Y-3.0747
X5.3665Y-2.8385
X5.3665Y-2.9959
X5.4059Y-3.1534
X5.4059Y-3.3896
X5.4452Y-2.9172
X5.524Y-2.8385
X5.524Y-3.1928
X5.524Y-3.429
X5.5634Y-2.9566
X5.6027Y-3.3503
X5.6815Y-3.429
X5.7208Y-2.9566
X5.7602Y-3.0747
X5.7602Y-3.3503
X5.7996Y-3.1928
X5.839Y-2.9959
X5.839Y-3.429
X5.8783Y-2.8385
X5.8783Y-3.1141
X5.9571Y-2.9172
X5.9571Y-3.1928
X5.9571Y-3.3896
X5.9964Y-3.0353
X6.0358Y-2.8385
X6.0752Y-2.9566
X6.1145Y-3.0747
X6.1539Y-2.8778
X6.1933Y-2.9959
T2
X5.661Y-2.855
X5.761Y-2.855
T0
M30
