%TF.GenerationSoftware,KiCad,Pcbnew,(5.1.9)-1*%
%TF.CreationDate,2021-03-17T20:36:52-04:00*%
%TF.ProjectId,VVA_Macom,5656415f-4d61-4636-9f6d-2e6b69636164,rev?*%
%TF.SameCoordinates,Original*%
%TF.FileFunction,Soldermask,Top*%
%TF.FilePolarity,Negative*%
%FSLAX46Y46*%
G04 Gerber Fmt 4.6, Leading zero omitted, Abs format (unit mm)*
G04 Created by KiCad (PCBNEW (5.1.9)-1) date 2021-03-17 20:36:52*
%MOMM*%
%LPD*%
G01*
G04 APERTURE LIST*
%ADD10R,4.200000X1.750000*%
%ADD11R,3.600000X1.270000*%
%ADD12R,0.650000X1.060000*%
%ADD13O,1.700000X1.700000*%
%ADD14R,1.700000X1.700000*%
G04 APERTURE END LIST*
D10*
%TO.C,Jout1*%
X155425800Y-80817200D03*
X155425800Y-86467200D03*
D11*
X155625800Y-83642200D03*
%TD*%
D10*
%TO.C,JIn1*%
X133600800Y-86467200D03*
X133600800Y-80817200D03*
D11*
X133400800Y-83642200D03*
%TD*%
%TO.C,CC3*%
G36*
G01*
X143330000Y-77815000D02*
X143330000Y-76865000D01*
G75*
G02*
X143580000Y-76615000I250000J0D01*
G01*
X144080000Y-76615000D01*
G75*
G02*
X144330000Y-76865000I0J-250000D01*
G01*
X144330000Y-77815000D01*
G75*
G02*
X144080000Y-78065000I-250000J0D01*
G01*
X143580000Y-78065000D01*
G75*
G02*
X143330000Y-77815000I0J250000D01*
G01*
G37*
G36*
G01*
X141430000Y-77815000D02*
X141430000Y-76865000D01*
G75*
G02*
X141680000Y-76615000I250000J0D01*
G01*
X142180000Y-76615000D01*
G75*
G02*
X142430000Y-76865000I0J-250000D01*
G01*
X142430000Y-77815000D01*
G75*
G02*
X142180000Y-78065000I-250000J0D01*
G01*
X141680000Y-78065000D01*
G75*
G02*
X141430000Y-77815000I0J250000D01*
G01*
G37*
%TD*%
%TO.C,CC2*%
G36*
G01*
X150284600Y-84142600D02*
X150284600Y-83192600D01*
G75*
G02*
X150534600Y-82942600I250000J0D01*
G01*
X151034600Y-82942600D01*
G75*
G02*
X151284600Y-83192600I0J-250000D01*
G01*
X151284600Y-84142600D01*
G75*
G02*
X151034600Y-84392600I-250000J0D01*
G01*
X150534600Y-84392600D01*
G75*
G02*
X150284600Y-84142600I0J250000D01*
G01*
G37*
G36*
G01*
X148384600Y-84142600D02*
X148384600Y-83192600D01*
G75*
G02*
X148634600Y-82942600I250000J0D01*
G01*
X149134600Y-82942600D01*
G75*
G02*
X149384600Y-83192600I0J-250000D01*
G01*
X149384600Y-84142600D01*
G75*
G02*
X149134600Y-84392600I-250000J0D01*
G01*
X148634600Y-84392600D01*
G75*
G02*
X148384600Y-84142600I0J250000D01*
G01*
G37*
%TD*%
%TO.C,CC1*%
G36*
G01*
X139921400Y-84117200D02*
X139921400Y-83167200D01*
G75*
G02*
X140171400Y-82917200I250000J0D01*
G01*
X140671400Y-82917200D01*
G75*
G02*
X140921400Y-83167200I0J-250000D01*
G01*
X140921400Y-84117200D01*
G75*
G02*
X140671400Y-84367200I-250000J0D01*
G01*
X140171400Y-84367200D01*
G75*
G02*
X139921400Y-84117200I0J250000D01*
G01*
G37*
G36*
G01*
X138021400Y-84117200D02*
X138021400Y-83167200D01*
G75*
G02*
X138271400Y-82917200I250000J0D01*
G01*
X138771400Y-82917200D01*
G75*
G02*
X139021400Y-83167200I0J-250000D01*
G01*
X139021400Y-84117200D01*
G75*
G02*
X138771400Y-84367200I-250000J0D01*
G01*
X138271400Y-84367200D01*
G75*
G02*
X138021400Y-84117200I0J250000D01*
G01*
G37*
%TD*%
D12*
%TO.C,U1*%
X143830000Y-81450000D03*
X145730000Y-81450000D03*
X145730000Y-83650000D03*
X144780000Y-83650000D03*
X143830000Y-83650000D03*
%TD*%
D13*
%TO.C,JPower1*%
X146329400Y-72517000D03*
D14*
X143789400Y-72517000D03*
%TD*%
M02*
