%TF.GenerationSoftware,KiCad,Pcbnew,(5.1.9)-1*%
%TF.CreationDate,2021-03-17T18:45:03-04:00*%
%TF.ProjectId,BackupMixer,4261636b-7570-44d6-9978-65722e6b6963,rev?*%
%TF.SameCoordinates,Original*%
%TF.FileFunction,Copper,L2,Bot*%
%TF.FilePolarity,Positive*%
%FSLAX46Y46*%
G04 Gerber Fmt 4.6, Leading zero omitted, Abs format (unit mm)*
G04 Created by KiCad (PCBNEW (5.1.9)-1) date 2021-03-17 18:45:03*
%MOMM*%
%LPD*%
G01*
G04 APERTURE LIST*
%TA.AperFunction,ComponentPad*%
%ADD10C,1.016000*%
%TD*%
%TA.AperFunction,SMDPad,CuDef*%
%ADD11R,1.750000X4.200000*%
%TD*%
%TA.AperFunction,SMDPad,CuDef*%
%ADD12R,4.200000X1.750000*%
%TD*%
%TA.AperFunction,ViaPad*%
%ADD13C,0.800000*%
%TD*%
%TA.AperFunction,Conductor*%
%ADD14C,0.254000*%
%TD*%
%TA.AperFunction,Conductor*%
%ADD15C,0.100000*%
%TD*%
G04 APERTURE END LIST*
D10*
%TO.P,UADE10x1,1*%
%TO.N,GND*%
X130429000Y-91440000D03*
%TO.P,UADE10x1,5*%
X138811000Y-93980000D03*
%TO.P,UADE10x1,4*%
X138811000Y-96520000D03*
%TO.P,UADE10x1,1*%
X134620000Y-91440000D03*
X134620000Y-92710000D03*
X134620000Y-93980000D03*
X134620000Y-95250000D03*
X134620000Y-96520000D03*
%TD*%
D11*
%TO.P,JRF1,3_2*%
%TO.N,GND*%
X134905000Y-106480000D03*
%TO.P,JRF1,2_2*%
X129255000Y-106480000D03*
%TD*%
D12*
%TO.P,JLO1,3_2*%
%TO.N,GND*%
X152200000Y-88615000D03*
%TO.P,JLO1,2_2*%
X152200000Y-94265000D03*
%TD*%
%TO.P,JIF1,3_2*%
%TO.N,GND*%
X119580000Y-96805000D03*
%TO.P,JIF1,2_2*%
X119580000Y-91155000D03*
%TD*%
D13*
%TO.N,GND*%
X119288550Y-87894876D03*
X119288550Y-99894876D03*
X119288550Y-103894876D03*
X120288550Y-106894876D03*
X121288550Y-101894876D03*
X122288550Y-104894876D03*
X123288550Y-87894876D03*
X123288550Y-91894876D03*
X123288550Y-95894876D03*
X123288550Y-99894876D03*
X124288550Y-102894876D03*
X124288550Y-106894876D03*
X125288550Y-89894876D03*
X125288550Y-97894876D03*
X126288550Y-100894876D03*
X126288550Y-104894876D03*
X127288550Y-87894876D03*
X127288550Y-91894876D03*
X127288550Y-95894876D03*
X128288550Y-98894876D03*
X128288550Y-102894876D03*
X130288550Y-88894876D03*
X130288550Y-100894876D03*
X133288550Y-87894876D03*
X134288550Y-98894876D03*
X135288550Y-101894876D03*
X136288550Y-88894876D03*
X137288550Y-99894876D03*
X138288550Y-102894876D03*
X138288550Y-106894876D03*
X139288550Y-87894876D03*
X140288550Y-92894876D03*
X140288550Y-96894876D03*
X140288550Y-100894876D03*
X140288550Y-104894876D03*
X141288550Y-89894876D03*
X142288550Y-94894876D03*
X142288550Y-98894876D03*
X142288550Y-102894876D03*
X142288550Y-106894876D03*
X143288550Y-87894876D03*
X144288550Y-96894876D03*
X144288550Y-100894876D03*
X144288550Y-104894876D03*
X145288550Y-93894876D03*
X146288550Y-88894876D03*
X146288550Y-98894876D03*
X146288550Y-102894876D03*
X146288550Y-106894876D03*
X147288550Y-95894876D03*
X148288550Y-92894876D03*
X148288550Y-100894876D03*
X148288550Y-104894876D03*
X149288550Y-97894876D03*
X150288550Y-102894876D03*
X150288550Y-106894876D03*
X151288550Y-99894876D03*
X152288550Y-96894876D03*
X152288550Y-104894876D03*
%TD*%
D14*
%TO.N,GND*%
X153644513Y-86385666D02*
X153645001Y-86390310D01*
X153645001Y-87103037D01*
X152485750Y-87105000D01*
X152327000Y-87263750D01*
X152327000Y-88488000D01*
X152347000Y-88488000D01*
X152347000Y-88742000D01*
X152327000Y-88742000D01*
X152327000Y-89966250D01*
X152485750Y-90125000D01*
X153645001Y-90126963D01*
X153645001Y-92753037D01*
X152485750Y-92755000D01*
X152327000Y-92913750D01*
X152327000Y-94138000D01*
X152347000Y-94138000D01*
X152347000Y-94392000D01*
X152327000Y-94392000D01*
X152327000Y-95616250D01*
X152485750Y-95775000D01*
X153645001Y-95776963D01*
X153645000Y-107917725D01*
X153644335Y-107924513D01*
X153639699Y-107925000D01*
X136416963Y-107925000D01*
X136415000Y-106765750D01*
X136256250Y-106607000D01*
X135032000Y-106607000D01*
X135032000Y-106627000D01*
X134778000Y-106627000D01*
X134778000Y-106607000D01*
X133553750Y-106607000D01*
X133395000Y-106765750D01*
X133393037Y-107925000D01*
X130766963Y-107925000D01*
X130765000Y-106765750D01*
X130606250Y-106607000D01*
X129382000Y-106607000D01*
X129382000Y-106627000D01*
X129128000Y-106627000D01*
X129128000Y-106607000D01*
X127903750Y-106607000D01*
X127745000Y-106765750D01*
X127743037Y-107925000D01*
X118142275Y-107925000D01*
X118135487Y-107924335D01*
X118135000Y-107919699D01*
X118135000Y-104380000D01*
X127741928Y-104380000D01*
X127745000Y-106194250D01*
X127903750Y-106353000D01*
X129128000Y-106353000D01*
X129128000Y-103903750D01*
X129382000Y-103903750D01*
X129382000Y-106353000D01*
X130606250Y-106353000D01*
X130765000Y-106194250D01*
X130768072Y-104380000D01*
X133391928Y-104380000D01*
X133395000Y-106194250D01*
X133553750Y-106353000D01*
X134778000Y-106353000D01*
X134778000Y-103903750D01*
X135032000Y-103903750D01*
X135032000Y-106353000D01*
X136256250Y-106353000D01*
X136415000Y-106194250D01*
X136418072Y-104380000D01*
X136405812Y-104255518D01*
X136369502Y-104135820D01*
X136310537Y-104025506D01*
X136231185Y-103928815D01*
X136134494Y-103849463D01*
X136024180Y-103790498D01*
X135904482Y-103754188D01*
X135780000Y-103741928D01*
X135190750Y-103745000D01*
X135032000Y-103903750D01*
X134778000Y-103903750D01*
X134619250Y-103745000D01*
X134030000Y-103741928D01*
X133905518Y-103754188D01*
X133785820Y-103790498D01*
X133675506Y-103849463D01*
X133578815Y-103928815D01*
X133499463Y-104025506D01*
X133440498Y-104135820D01*
X133404188Y-104255518D01*
X133391928Y-104380000D01*
X130768072Y-104380000D01*
X130755812Y-104255518D01*
X130719502Y-104135820D01*
X130660537Y-104025506D01*
X130581185Y-103928815D01*
X130484494Y-103849463D01*
X130374180Y-103790498D01*
X130254482Y-103754188D01*
X130130000Y-103741928D01*
X129540750Y-103745000D01*
X129382000Y-103903750D01*
X129128000Y-103903750D01*
X128969250Y-103745000D01*
X128380000Y-103741928D01*
X128255518Y-103754188D01*
X128135820Y-103790498D01*
X128025506Y-103849463D01*
X127928815Y-103928815D01*
X127849463Y-104025506D01*
X127790498Y-104135820D01*
X127754188Y-104255518D01*
X127741928Y-104380000D01*
X118135000Y-104380000D01*
X118135000Y-98316963D01*
X119294250Y-98315000D01*
X119453000Y-98156250D01*
X119453000Y-96932000D01*
X119707000Y-96932000D01*
X119707000Y-98156250D01*
X119865750Y-98315000D01*
X121680000Y-98318072D01*
X121804482Y-98305812D01*
X121924180Y-98269502D01*
X122034494Y-98210537D01*
X122131185Y-98131185D01*
X122210537Y-98034494D01*
X122269502Y-97924180D01*
X122305812Y-97804482D01*
X122318072Y-97680000D01*
X122315000Y-97090750D01*
X122156250Y-96932000D01*
X119707000Y-96932000D01*
X119453000Y-96932000D01*
X119433000Y-96932000D01*
X119433000Y-96678000D01*
X119453000Y-96678000D01*
X119453000Y-95453750D01*
X119707000Y-95453750D01*
X119707000Y-96678000D01*
X122156250Y-96678000D01*
X122315000Y-96519250D01*
X122318072Y-95930000D01*
X122305812Y-95805518D01*
X122269502Y-95685820D01*
X122210537Y-95575506D01*
X122131185Y-95478815D01*
X122034494Y-95399463D01*
X121924180Y-95340498D01*
X121804482Y-95304188D01*
X121680000Y-95291928D01*
X119865750Y-95295000D01*
X119707000Y-95453750D01*
X119453000Y-95453750D01*
X119294250Y-95295000D01*
X118135000Y-95293037D01*
X118135000Y-95140000D01*
X149461928Y-95140000D01*
X149474188Y-95264482D01*
X149510498Y-95384180D01*
X149569463Y-95494494D01*
X149648815Y-95591185D01*
X149745506Y-95670537D01*
X149855820Y-95729502D01*
X149975518Y-95765812D01*
X150100000Y-95778072D01*
X151914250Y-95775000D01*
X152073000Y-95616250D01*
X152073000Y-94392000D01*
X149623750Y-94392000D01*
X149465000Y-94550750D01*
X149461928Y-95140000D01*
X118135000Y-95140000D01*
X118135000Y-93390000D01*
X149461928Y-93390000D01*
X149465000Y-93979250D01*
X149623750Y-94138000D01*
X152073000Y-94138000D01*
X152073000Y-92913750D01*
X151914250Y-92755000D01*
X150100000Y-92751928D01*
X149975518Y-92764188D01*
X149855820Y-92800498D01*
X149745506Y-92859463D01*
X149648815Y-92938815D01*
X149569463Y-93035506D01*
X149510498Y-93145820D01*
X149474188Y-93265518D01*
X149461928Y-93390000D01*
X118135000Y-93390000D01*
X118135000Y-92666963D01*
X119294250Y-92665000D01*
X119453000Y-92506250D01*
X119453000Y-91282000D01*
X119707000Y-91282000D01*
X119707000Y-92506250D01*
X119865750Y-92665000D01*
X121680000Y-92668072D01*
X121804482Y-92655812D01*
X121924180Y-92619502D01*
X122034494Y-92560537D01*
X122131185Y-92481185D01*
X122210537Y-92384494D01*
X122269502Y-92274180D01*
X122305812Y-92154482D01*
X122318072Y-92030000D01*
X122315000Y-91440750D01*
X122156250Y-91282000D01*
X119707000Y-91282000D01*
X119453000Y-91282000D01*
X119433000Y-91282000D01*
X119433000Y-91028000D01*
X119453000Y-91028000D01*
X119453000Y-89803750D01*
X119707000Y-89803750D01*
X119707000Y-91028000D01*
X122156250Y-91028000D01*
X122315000Y-90869250D01*
X122318072Y-90280000D01*
X122305812Y-90155518D01*
X122269502Y-90035820D01*
X122210537Y-89925506D01*
X122131185Y-89828815D01*
X122034494Y-89749463D01*
X121924180Y-89690498D01*
X121804482Y-89654188D01*
X121680000Y-89641928D01*
X119865750Y-89645000D01*
X119707000Y-89803750D01*
X119453000Y-89803750D01*
X119294250Y-89645000D01*
X118135000Y-89643037D01*
X118135000Y-89490000D01*
X149461928Y-89490000D01*
X149474188Y-89614482D01*
X149510498Y-89734180D01*
X149569463Y-89844494D01*
X149648815Y-89941185D01*
X149745506Y-90020537D01*
X149855820Y-90079502D01*
X149975518Y-90115812D01*
X150100000Y-90128072D01*
X151914250Y-90125000D01*
X152073000Y-89966250D01*
X152073000Y-88742000D01*
X149623750Y-88742000D01*
X149465000Y-88900750D01*
X149461928Y-89490000D01*
X118135000Y-89490000D01*
X118135000Y-87740000D01*
X149461928Y-87740000D01*
X149465000Y-88329250D01*
X149623750Y-88488000D01*
X152073000Y-88488000D01*
X152073000Y-87263750D01*
X151914250Y-87105000D01*
X150100000Y-87101928D01*
X149975518Y-87114188D01*
X149855820Y-87150498D01*
X149745506Y-87209463D01*
X149648815Y-87288815D01*
X149569463Y-87385506D01*
X149510498Y-87495820D01*
X149474188Y-87615518D01*
X149461928Y-87740000D01*
X118135000Y-87740000D01*
X118135000Y-86392275D01*
X118135666Y-86385487D01*
X118140301Y-86385000D01*
X153637725Y-86385000D01*
X153644513Y-86385666D01*
%TA.AperFunction,Conductor*%
D15*
G36*
X153644513Y-86385666D02*
G01*
X153645001Y-86390310D01*
X153645001Y-87103037D01*
X152485750Y-87105000D01*
X152327000Y-87263750D01*
X152327000Y-88488000D01*
X152347000Y-88488000D01*
X152347000Y-88742000D01*
X152327000Y-88742000D01*
X152327000Y-89966250D01*
X152485750Y-90125000D01*
X153645001Y-90126963D01*
X153645001Y-92753037D01*
X152485750Y-92755000D01*
X152327000Y-92913750D01*
X152327000Y-94138000D01*
X152347000Y-94138000D01*
X152347000Y-94392000D01*
X152327000Y-94392000D01*
X152327000Y-95616250D01*
X152485750Y-95775000D01*
X153645001Y-95776963D01*
X153645000Y-107917725D01*
X153644335Y-107924513D01*
X153639699Y-107925000D01*
X136416963Y-107925000D01*
X136415000Y-106765750D01*
X136256250Y-106607000D01*
X135032000Y-106607000D01*
X135032000Y-106627000D01*
X134778000Y-106627000D01*
X134778000Y-106607000D01*
X133553750Y-106607000D01*
X133395000Y-106765750D01*
X133393037Y-107925000D01*
X130766963Y-107925000D01*
X130765000Y-106765750D01*
X130606250Y-106607000D01*
X129382000Y-106607000D01*
X129382000Y-106627000D01*
X129128000Y-106627000D01*
X129128000Y-106607000D01*
X127903750Y-106607000D01*
X127745000Y-106765750D01*
X127743037Y-107925000D01*
X118142275Y-107925000D01*
X118135487Y-107924335D01*
X118135000Y-107919699D01*
X118135000Y-104380000D01*
X127741928Y-104380000D01*
X127745000Y-106194250D01*
X127903750Y-106353000D01*
X129128000Y-106353000D01*
X129128000Y-103903750D01*
X129382000Y-103903750D01*
X129382000Y-106353000D01*
X130606250Y-106353000D01*
X130765000Y-106194250D01*
X130768072Y-104380000D01*
X133391928Y-104380000D01*
X133395000Y-106194250D01*
X133553750Y-106353000D01*
X134778000Y-106353000D01*
X134778000Y-103903750D01*
X135032000Y-103903750D01*
X135032000Y-106353000D01*
X136256250Y-106353000D01*
X136415000Y-106194250D01*
X136418072Y-104380000D01*
X136405812Y-104255518D01*
X136369502Y-104135820D01*
X136310537Y-104025506D01*
X136231185Y-103928815D01*
X136134494Y-103849463D01*
X136024180Y-103790498D01*
X135904482Y-103754188D01*
X135780000Y-103741928D01*
X135190750Y-103745000D01*
X135032000Y-103903750D01*
X134778000Y-103903750D01*
X134619250Y-103745000D01*
X134030000Y-103741928D01*
X133905518Y-103754188D01*
X133785820Y-103790498D01*
X133675506Y-103849463D01*
X133578815Y-103928815D01*
X133499463Y-104025506D01*
X133440498Y-104135820D01*
X133404188Y-104255518D01*
X133391928Y-104380000D01*
X130768072Y-104380000D01*
X130755812Y-104255518D01*
X130719502Y-104135820D01*
X130660537Y-104025506D01*
X130581185Y-103928815D01*
X130484494Y-103849463D01*
X130374180Y-103790498D01*
X130254482Y-103754188D01*
X130130000Y-103741928D01*
X129540750Y-103745000D01*
X129382000Y-103903750D01*
X129128000Y-103903750D01*
X128969250Y-103745000D01*
X128380000Y-103741928D01*
X128255518Y-103754188D01*
X128135820Y-103790498D01*
X128025506Y-103849463D01*
X127928815Y-103928815D01*
X127849463Y-104025506D01*
X127790498Y-104135820D01*
X127754188Y-104255518D01*
X127741928Y-104380000D01*
X118135000Y-104380000D01*
X118135000Y-98316963D01*
X119294250Y-98315000D01*
X119453000Y-98156250D01*
X119453000Y-96932000D01*
X119707000Y-96932000D01*
X119707000Y-98156250D01*
X119865750Y-98315000D01*
X121680000Y-98318072D01*
X121804482Y-98305812D01*
X121924180Y-98269502D01*
X122034494Y-98210537D01*
X122131185Y-98131185D01*
X122210537Y-98034494D01*
X122269502Y-97924180D01*
X122305812Y-97804482D01*
X122318072Y-97680000D01*
X122315000Y-97090750D01*
X122156250Y-96932000D01*
X119707000Y-96932000D01*
X119453000Y-96932000D01*
X119433000Y-96932000D01*
X119433000Y-96678000D01*
X119453000Y-96678000D01*
X119453000Y-95453750D01*
X119707000Y-95453750D01*
X119707000Y-96678000D01*
X122156250Y-96678000D01*
X122315000Y-96519250D01*
X122318072Y-95930000D01*
X122305812Y-95805518D01*
X122269502Y-95685820D01*
X122210537Y-95575506D01*
X122131185Y-95478815D01*
X122034494Y-95399463D01*
X121924180Y-95340498D01*
X121804482Y-95304188D01*
X121680000Y-95291928D01*
X119865750Y-95295000D01*
X119707000Y-95453750D01*
X119453000Y-95453750D01*
X119294250Y-95295000D01*
X118135000Y-95293037D01*
X118135000Y-95140000D01*
X149461928Y-95140000D01*
X149474188Y-95264482D01*
X149510498Y-95384180D01*
X149569463Y-95494494D01*
X149648815Y-95591185D01*
X149745506Y-95670537D01*
X149855820Y-95729502D01*
X149975518Y-95765812D01*
X150100000Y-95778072D01*
X151914250Y-95775000D01*
X152073000Y-95616250D01*
X152073000Y-94392000D01*
X149623750Y-94392000D01*
X149465000Y-94550750D01*
X149461928Y-95140000D01*
X118135000Y-95140000D01*
X118135000Y-93390000D01*
X149461928Y-93390000D01*
X149465000Y-93979250D01*
X149623750Y-94138000D01*
X152073000Y-94138000D01*
X152073000Y-92913750D01*
X151914250Y-92755000D01*
X150100000Y-92751928D01*
X149975518Y-92764188D01*
X149855820Y-92800498D01*
X149745506Y-92859463D01*
X149648815Y-92938815D01*
X149569463Y-93035506D01*
X149510498Y-93145820D01*
X149474188Y-93265518D01*
X149461928Y-93390000D01*
X118135000Y-93390000D01*
X118135000Y-92666963D01*
X119294250Y-92665000D01*
X119453000Y-92506250D01*
X119453000Y-91282000D01*
X119707000Y-91282000D01*
X119707000Y-92506250D01*
X119865750Y-92665000D01*
X121680000Y-92668072D01*
X121804482Y-92655812D01*
X121924180Y-92619502D01*
X122034494Y-92560537D01*
X122131185Y-92481185D01*
X122210537Y-92384494D01*
X122269502Y-92274180D01*
X122305812Y-92154482D01*
X122318072Y-92030000D01*
X122315000Y-91440750D01*
X122156250Y-91282000D01*
X119707000Y-91282000D01*
X119453000Y-91282000D01*
X119433000Y-91282000D01*
X119433000Y-91028000D01*
X119453000Y-91028000D01*
X119453000Y-89803750D01*
X119707000Y-89803750D01*
X119707000Y-91028000D01*
X122156250Y-91028000D01*
X122315000Y-90869250D01*
X122318072Y-90280000D01*
X122305812Y-90155518D01*
X122269502Y-90035820D01*
X122210537Y-89925506D01*
X122131185Y-89828815D01*
X122034494Y-89749463D01*
X121924180Y-89690498D01*
X121804482Y-89654188D01*
X121680000Y-89641928D01*
X119865750Y-89645000D01*
X119707000Y-89803750D01*
X119453000Y-89803750D01*
X119294250Y-89645000D01*
X118135000Y-89643037D01*
X118135000Y-89490000D01*
X149461928Y-89490000D01*
X149474188Y-89614482D01*
X149510498Y-89734180D01*
X149569463Y-89844494D01*
X149648815Y-89941185D01*
X149745506Y-90020537D01*
X149855820Y-90079502D01*
X149975518Y-90115812D01*
X150100000Y-90128072D01*
X151914250Y-90125000D01*
X152073000Y-89966250D01*
X152073000Y-88742000D01*
X149623750Y-88742000D01*
X149465000Y-88900750D01*
X149461928Y-89490000D01*
X118135000Y-89490000D01*
X118135000Y-87740000D01*
X149461928Y-87740000D01*
X149465000Y-88329250D01*
X149623750Y-88488000D01*
X152073000Y-88488000D01*
X152073000Y-87263750D01*
X151914250Y-87105000D01*
X150100000Y-87101928D01*
X149975518Y-87114188D01*
X149855820Y-87150498D01*
X149745506Y-87209463D01*
X149648815Y-87288815D01*
X149569463Y-87385506D01*
X149510498Y-87495820D01*
X149474188Y-87615518D01*
X149461928Y-87740000D01*
X118135000Y-87740000D01*
X118135000Y-86392275D01*
X118135666Y-86385487D01*
X118140301Y-86385000D01*
X153637725Y-86385000D01*
X153644513Y-86385666D01*
G37*
%TD.AperFunction*%
%TD*%
M02*
