%TF.GenerationSoftware,KiCad,Pcbnew,(5.1.9)-1*%
%TF.CreationDate,2021-03-17T18:45:03-04:00*%
%TF.ProjectId,BackupMixer,4261636b-7570-44d6-9978-65722e6b6963,rev?*%
%TF.SameCoordinates,Original*%
%TF.FileFunction,Paste,Top*%
%TF.FilePolarity,Positive*%
%FSLAX46Y46*%
G04 Gerber Fmt 4.6, Leading zero omitted, Abs format (unit mm)*
G04 Created by KiCad (PCBNEW (5.1.9)-1) date 2021-03-17 18:45:03*
%MOMM*%
%LPD*%
G01*
G04 APERTURE LIST*
%ADD10R,2.540000X1.651000*%
%ADD11R,1.750000X4.200000*%
%ADD12R,1.270000X3.600000*%
%ADD13R,4.200000X1.750000*%
%ADD14R,3.600000X1.270000*%
G04 APERTURE END LIST*
D10*
%TO.C,UADE10x1*%
X132080000Y-91440000D03*
X132080000Y-93980000D03*
X132080000Y-96520000D03*
X137160000Y-91440000D03*
X137160000Y-93980000D03*
X137160000Y-96520000D03*
%TD*%
D11*
%TO.C,JRF1*%
X134905000Y-106480000D03*
X129255000Y-106480000D03*
D12*
X132080000Y-106680000D03*
%TD*%
D13*
%TO.C,JLO1*%
X152200000Y-88615000D03*
X152200000Y-94265000D03*
D14*
X152400000Y-91440000D03*
%TD*%
D13*
%TO.C,JIF1*%
X119580000Y-96805000D03*
X119580000Y-91155000D03*
D14*
X119380000Y-93980000D03*
%TD*%
%TO.C,CC3*%
G36*
G01*
X126550000Y-93505000D02*
X126550000Y-94455000D01*
G75*
G02*
X126300000Y-94705000I-250000J0D01*
G01*
X125800000Y-94705000D01*
G75*
G02*
X125550000Y-94455000I0J250000D01*
G01*
X125550000Y-93505000D01*
G75*
G02*
X125800000Y-93255000I250000J0D01*
G01*
X126300000Y-93255000D01*
G75*
G02*
X126550000Y-93505000I0J-250000D01*
G01*
G37*
G36*
G01*
X128450000Y-93505000D02*
X128450000Y-94455000D01*
G75*
G02*
X128200000Y-94705000I-250000J0D01*
G01*
X127700000Y-94705000D01*
G75*
G02*
X127450000Y-94455000I0J250000D01*
G01*
X127450000Y-93505000D01*
G75*
G02*
X127700000Y-93255000I250000J0D01*
G01*
X128200000Y-93255000D01*
G75*
G02*
X128450000Y-93505000I0J-250000D01*
G01*
G37*
%TD*%
%TO.C,CC2*%
G36*
G01*
X145230000Y-91915000D02*
X145230000Y-90965000D01*
G75*
G02*
X145480000Y-90715000I250000J0D01*
G01*
X145980000Y-90715000D01*
G75*
G02*
X146230000Y-90965000I0J-250000D01*
G01*
X146230000Y-91915000D01*
G75*
G02*
X145980000Y-92165000I-250000J0D01*
G01*
X145480000Y-92165000D01*
G75*
G02*
X145230000Y-91915000I0J250000D01*
G01*
G37*
G36*
G01*
X143330000Y-91915000D02*
X143330000Y-90965000D01*
G75*
G02*
X143580000Y-90715000I250000J0D01*
G01*
X144080000Y-90715000D01*
G75*
G02*
X144330000Y-90965000I0J-250000D01*
G01*
X144330000Y-91915000D01*
G75*
G02*
X144080000Y-92165000I-250000J0D01*
G01*
X143580000Y-92165000D01*
G75*
G02*
X143330000Y-91915000I0J250000D01*
G01*
G37*
%TD*%
%TO.C,CC1*%
G36*
G01*
X132555000Y-101150000D02*
X131605000Y-101150000D01*
G75*
G02*
X131355000Y-100900000I0J250000D01*
G01*
X131355000Y-100400000D01*
G75*
G02*
X131605000Y-100150000I250000J0D01*
G01*
X132555000Y-100150000D01*
G75*
G02*
X132805000Y-100400000I0J-250000D01*
G01*
X132805000Y-100900000D01*
G75*
G02*
X132555000Y-101150000I-250000J0D01*
G01*
G37*
G36*
G01*
X132555000Y-103050000D02*
X131605000Y-103050000D01*
G75*
G02*
X131355000Y-102800000I0J250000D01*
G01*
X131355000Y-102300000D01*
G75*
G02*
X131605000Y-102050000I250000J0D01*
G01*
X132555000Y-102050000D01*
G75*
G02*
X132805000Y-102300000I0J-250000D01*
G01*
X132805000Y-102800000D01*
G75*
G02*
X132555000Y-103050000I-250000J0D01*
G01*
G37*
%TD*%
M02*
