M48
; DRILL file {KiCad (5.1.9)-1} date 03/17/21 18:45:04
; FORMAT={-:-/ absolute / inch / decimal}
; #@! TF.CreationDate,2021-03-17T18:45:04-04:00
; #@! TF.GenerationSoftware,Kicad,Pcbnew,(5.1.9)-1
; #@! TF.FileFunction,Plated,1,2,PTH
FMAT,2
INCH
T1C0.0157
T2C0.0200
%
G90
G05
T1
X4.6964Y-3.4604
X4.6964Y-3.9329
X4.6964Y-4.0903
X4.7358Y-4.2085
X4.7751Y-4.0116
X4.8145Y-4.1297
X4.8539Y-3.4604
X4.8539Y-3.6179
X4.8539Y-3.7754
X4.8539Y-3.9329
X4.8933Y-4.051
X4.8933Y-4.2085
X4.9326Y-3.5392
X4.9326Y-3.8541
X4.972Y-3.9722
X4.972Y-4.1297
X5.0114Y-3.4604
X5.0114Y-3.6179
X5.0114Y-3.7754
X5.0507Y-3.8935
X5.0507Y-4.051
X5.1295Y-3.4998
X5.1295Y-3.9722
X5.2476Y-3.4604
X5.287Y-3.8935
X5.3263Y-4.0116
X5.3657Y-3.4998
X5.4051Y-3.9329
X5.4444Y-4.051
X5.4444Y-4.2085
X5.4838Y-3.4604
X5.5232Y-3.6573
X5.5232Y-3.8148
X5.5232Y-3.9722
X5.5232Y-4.1297
X5.5625Y-3.5392
X5.6019Y-3.736
X5.6019Y-3.8935
X5.6019Y-4.051
X5.6019Y-4.2085
X5.6413Y-3.4604
X5.6807Y-3.8148
X5.6807Y-3.9722
X5.6807Y-4.1297
X5.72Y-3.6966
X5.7594Y-3.4998
X5.7594Y-3.8935
X5.7594Y-4.051
X5.7594Y-4.2085
X5.7988Y-3.7754
X5.8381Y-3.6573
X5.8381Y-3.9722
X5.8381Y-4.1297
X5.8775Y-3.8541
X5.9169Y-4.051
X5.9169Y-4.2085
X5.9562Y-3.9329
X5.9956Y-3.8148
X5.9956Y-4.1297
T2
X5.135Y-3.6
X5.3Y-3.6
X5.3Y-3.65
X5.3Y-3.7
X5.3Y-3.75
X5.3Y-3.8
X5.465Y-3.7
X5.465Y-3.8
T0
M30
